<svg version="1.1" viewBox="0.0 0.0 600.0 371.0" fill="none" stroke="none" stroke-linecap="square" stroke-miterlimit="10" width="600" height="371" xmlns:xlink="http://www.w3.org/1999/xlink" xmlns="http://www.w3.org/2000/svg"><path fill="#ffffff" d="M0 0L600.0 0L600.0 371.0L0 371.0L0 0Z" fill-rule="nonzero"/><path stroke="#000000" stroke-width="1.0" stroke-linecap="butt" stroke-opacity="0.0" d="M65.5 88.5L65.5 326.5" fill-rule="nonzero"/><path stroke="#000000" stroke-width="1.0" stroke-linecap="butt" stroke-opacity="0.0" d="M101.5 88.5L101.5 326.5" fill-rule="nonzero"/><path stroke="#000000" stroke-width="1.0" stroke-linecap="butt" stroke-opacity="0.0" d="M175.5 88.5L175.5 326.5" fill-rule="nonzero"/><path stroke="#000000" stroke-width="1.0" stroke-linecap="butt" stroke-opacity="0.0" d="M212.5 88.5L212.5 326.5" fill-rule="nonzero"/><path stroke="#000000" stroke-width="1.0" stroke-linecap="butt" stroke-opacity="0.0" d="M286.5 88.5L286.5 326.5" fill-rule="nonzero"/><path stroke="#000000" stroke-width="1.0" stroke-linecap="butt" stroke-opacity="0.0" d="M323.5 88.5L323.5 326.5" fill-rule="nonzero"/><path stroke="#000000" stroke-width="1.0" stroke-linecap="butt" stroke-opacity="0.0" d="M397.5 88.5L397.5 326.5" fill-rule="nonzero"/><path stroke="#000000" stroke-width="1.0" stroke-linecap="butt" stroke-opacity="0.0" d="M433.5 88.5L433.5 326.5" fill-rule="nonzero"/><path stroke="#000000" stroke-width="1.0" stroke-linecap="butt" stroke-opacity="0.0" d="M507.5 88.5L507.5 326.5" fill-rule="nonzero"/><path stroke="#000000" stroke-width="1.0" stroke-linecap="butt" stroke-opacity="0.0" d="M544.5 88.5L544.5 326.5" fill-rule="nonzero"/><path stroke="#cccccc" stroke-width="1.0" stroke-linecap="butt" d="M45.5 326.5L581.5 326.5" fill-rule="nonzero"/><path stroke="#cccccc" stroke-width="1.0" stroke-linecap="butt" d="M45.5 278.5L581.5 278.5" fill-rule="nonzero"/><path stroke="#333333" stroke-width="1.0" stroke-linecap="butt" d="M45.5 231.5L581.5 231.5" fill-rule="nonzero"/><path stroke="#cccccc" stroke-width="1.0" stroke-linecap="butt" d="M45.5 183.5L581.5 183.5" fill-rule="nonzero"/><path stroke="#cccccc" stroke-width="1.0" stroke-linecap="butt" d="M45.5 135.5L581.5 135.5" fill-rule="nonzero"/><path stroke="#cccccc" stroke-width="1.0" stroke-linecap="butt" d="M45.5 88.5L581.5 88.5" fill-rule="nonzero"/><path stroke="#000000" stroke-width="1.0" stroke-linecap="butt" d="M581.5 326.5L45.5 326.5" fill-rule="nonzero"/><clipPath id="id_0"><path d="M45.55 88.28333L581.45 88.28333L581.45 326.45L45.55 326.45L45.55 88.28333Z" clip-rule="nonzero"/></clipPath><path stroke="#4285f4" stroke-width="2.0" stroke-linecap="butt" stroke-opacity="0.4" clip-path="url(#id_0)" d="M0 403.596C0 403.596 2.6666667 394.5673 4.0 390.14633C5.3333335 385.7254 6.6666665 381.36673 8.0 377.07034C9.333333 372.77396 10.666667 368.53983 12.0 364.36798C13.333333 360.19617 14.666667 356.08658 16.0 352.0393C17.333334 347.992 18.666666 344.007 20.0 340.08426C21.333334 336.16153 22.666666 332.3011 24.0 328.5029C25.333334 324.7047 26.666666 320.9688 28.0 317.29517C29.333334 313.62152 30.666666 310.01016 32.0 306.4611C33.333332 302.91202 34.666668 299.4252 36.0 296.00067C37.333332 292.57617 38.666668 289.2139 40.0 285.91394C41.333332 282.61395 42.666668 279.37625 44.0 276.20084C45.333332 273.02542 46.666668 269.91226 48.0 266.8614C49.333332 263.81052 50.666668 260.82193 52.0 257.8956C53.333332 254.96928 54.666668 252.10524 56.0 249.30347C57.333332 246.5017 58.666668 243.7622 60.0 241.08499C61.333332 238.40778 62.666668 235.79283 64.0 233.24017C65.333336 230.68752 66.666664 228.19711 68.0 225.76901C69.333336 223.3409 70.666664 220.97507 72.0 218.67151C73.333336 216.36794 74.666664 214.12666 76.0 211.94765C77.333336 209.76865 78.666664 207.65192 80.0 205.59746C81.333336 203.543 82.666664 201.55081 84.0 199.62091C85.333336 197.69101 86.666664 195.82338 88.0 194.01804C89.333336 192.21268 90.666664 190.4696 92.0 188.7888C93.333336 187.108 94.666664 185.48949 96.0 183.93323C97.333336 182.37698 98.666664 180.88301 100.0 179.45132C101.333336 178.01962 102.666664 176.6502 104.0 175.34306C105.333336 174.03592 106.666664 172.79105 108.0 171.60846C109.333336 170.42586 110.666664 169.30554 112.0 168.24751C113.333336 167.18947 114.666664 166.19371 116.0 165.26021C117.333336 164.32672 118.666664 163.45552 120.0 162.64658C121.333336 161.83765 122.666664 161.09099 124.0 160.4066C125.333336 159.72221 126.666664 159.10011 128.0 158.54028C129.33333 157.98044 130.66667 157.4829 132.0 157.0476C133.33333 156.61234 134.66667 156.23933 136.0 155.9286C137.33333 155.61787 138.66667 155.36942 140.0 155.18324C141.33333 154.99707 142.66667 154.87317 144.0 154.81154C145.33333 154.74992 146.66667 154.75058 148.0 154.8135C149.33333 154.87643 150.66667 155.00163 152.0 155.18912C153.33333 155.37659 154.66667 155.62634 156.0 155.93839C157.33333 156.25041 158.66667 156.62473 160.0 157.06131C161.33333 157.4979 162.66667 157.99675 164.0 158.55789C165.33333 159.11902 166.66667 159.74243 168.0 160.42813C169.33333 161.11382 170.66667 161.86177 172.0 162.67201C173.33333 163.48225 174.66667 164.35477 176.0 165.28957C177.33333 166.22437 178.66667 167.22142 180.0 168.28078C181.33333 169.34012 182.66667 170.46173 184.0 171.64563C185.33333 172.82953 186.66667 174.0757 188.0 175.38416C189.33333 176.6926 190.66667 178.06332 192.0 179.49632C193.33333 180.92932 194.66667 182.42459 196.0 183.98215C197.33333 185.5397 198.66667 187.15953 200.0 188.84163C201.33333 190.52374 202.66667 192.26811 204.0 194.07478C205.33333 195.88144 206.66667 197.75037 208.0 199.68158C209.33333 201.61278 210.66667 203.60626 212.0 205.66203C213.33333 207.71779 214.66667 209.83582 216.0 212.01613C217.33333 214.19644 218.66667 216.43904 220.0 218.7439C221.33333 221.04877 222.66667 223.41591 224.0 225.84532C225.33333 228.27473 226.66667 230.76643 228.0 233.3204C229.33333 235.87436 230.66667 238.49062 232.0 241.16913C233.33333 243.84766 234.66667 246.58844 236.0 249.39153C237.33333 252.1946 238.66667 255.05994 240.0 257.98758C241.33333 260.9152 242.66667 263.9051 244.0 266.95728C245.33333 270.00943 246.66667 273.1239 248.0 276.30063C249.33333 279.47736 250.66667 282.71637 252.0 286.01764C253.33333 289.3189 254.66667 292.68246 256.0 296.1083C257.33334 299.53415 258.66666 303.02225 260.0 306.57263C261.33334 310.12302 262.66666 313.7357 264.0 317.4106C265.33334 321.08554 266.66666 324.82275 268.0 328.62225C269.33334 332.42172 270.66666 336.2835 272.0 340.20755C273.33334 344.1316 274.66666 348.1179 276.0 352.1665C277.33334 356.2151 278.66666 360.32596 280.0 364.49908C281.33334 368.67224 282.66666 372.90765 284.0 377.20535C285.33334 381.50305 286.66666 385.86304 288.0 390.28528C289.33334 394.70752 290.66666 399.19205 292.0 403.73886C293.33334 408.28564 294.66666 412.8947 296.0 417.56607C297.33334 422.23743 298.66666 426.97107 300.0 431.76697C301.33334 436.56287 302.66666 441.42105 304.0 446.3415C305.33334 451.26196 306.66666 456.2447 308.0 461.2897C309.33334 466.33472 310.66666 471.442 312.0 476.61154C313.33334 481.7811 314.66666 487.01294 316.0 492.30707C317.33334 497.60117 318.66666 502.95755 320.0 508.37622C321.33334 513.79486 322.66666 519.2758 324.0 524.81903C325.33334 530.36224 326.66666 535.9678 328.0 541.6355C329.33334 547.3033 330.66666 553.0333 332.0 558.8257C333.33334 564.618 334.66666 570.4726 336.0 576.38947C337.33334 582.30634 338.66666 588.28546 340.0 594.3269C341.33334 600.3683 342.66666 606.47205 344.0 612.638C345.33334 618.80396 346.66666 625.0322 348.0 631.32275C349.33334 637.6133 350.66666 643.96606 352.0 650.38116C353.33334 656.79626 354.66666 663.2736 356.0 669.81323C357.33334 676.35284 358.66666 682.9548 360.0 689.61896C361.33334 696.28314 362.66666 703.0096 364.0 709.79834C365.33334 716.5871 366.66666 723.4381 368.0 730.3514C369.33334 737.26465 370.66666 744.24023 372.0 751.2781C373.33334 758.3159 374.66666 765.416 376.0 772.5784C377.33334 779.7408 378.66666 786.96545 380.0 794.25244C381.33334 801.53937 382.66666 808.8886 384.0 816.3001C385.33334 823.7116 386.66666 831.18536 388.0 838.7214C389.33334 846.25745 390.66666 853.8558 392.0 861.51636C393.33334 869.177 394.66666 876.89984 396.0 884.685C397.33334 892.47015 398.66666 900.31757 400.0 908.2273C401.33334 916.137 402.66666 924.10895 404.0 932.14325C405.33334 940.1775 406.66666 948.27405 408.0 956.43286C409.33334 964.5916 410.66666 972.81274 412.0 981.09607C413.33334 989.37946 414.66666 997.7251 416.0 1006.133C417.33334 1014.5409 418.66666 1023.0111 420.0 1031.5436C421.33334 1040.076 422.66666 1048.6708 424.0 1057.3278C425.33334 1065.9847 426.66666 1074.7041 428.0 1083.4857C429.33334 1092.2672 430.66666 1101.1111 432.0 1110.0172C433.33334 1118.9233 434.66666 1127.8917 436.0 1136.9224C437.33334 1145.953 438.66666 1155.046 440.0 1164.2012C441.33334 1173.3564 442.66666 1182.574 444.0 1191.8538C445.33334 1201.1335 446.66666 1210.4756 448.0 1219.8799C449.33334 1229.2842 450.66666 1238.7509 452.0 1248.2797C453.33334 1257.8086 454.66666 1267.3998 456.0 1277.0532C457.33334 1286.7065 458.66666 1296.4224 460.0 1306.2003C461.33334 1315.9783 462.66666 1325.8185 464.0 1335.7211C465.33334 1345.6237 466.66666 1355.5884 468.0 1365.6155C469.33334 1375.6426 470.66666 1385.7319 472.0 1395.8837C473.33334 1406.0353 474.66666 1416.2491 476.0 1426.5254C477.33334 1436.8015 478.66666 1447.14 480.0 1457.5408C481.33334 1467.9415 482.66666 1478.4045 484.0 1488.9298C485.33334 1499.4551 486.66666 1510.0427 488.0 1520.6925C489.33334 1531.3424 490.66666 1542.0546 492.0 1552.8289C493.33334 1563.6033 494.66666 1574.44 496.0 1585.339C497.33334 1596.2379 498.66666 1607.1991 500.0 1618.2227C501.33334 1629.2461 502.66666 1640.3319 504.0 1651.48C505.33334 1662.628 506.66666 1673.8384 508.0 1685.111C509.33334 1696.3835 510.66666 1707.7185 512.0 1719.1156C513.3333 1730.5128 514.6667 1741.9722 516.0 1753.4939C517.3333 1765.0156 518.6667 1776.5996 520.0 1788.2458C521.3333 1799.8922 522.6667 1811.6007 524.0 1823.3716C525.3333 1835.1423 526.6667 1846.9755 528.0 1858.8708C529.3333 1870.7661 530.6667 1882.7238 532.0 1894.7438C533.3333 1906.7637 534.6667 1918.8458 536.0 1930.9904C537.3333 1943.1348 538.6667 1955.3416 540.0 1967.6106C541.3333 1979.8796 542.6667 1992.2109 544.0 2004.6045C545.3333 2016.998 546.6667 2029.4539 548.0 2041.972C549.3333 2054.4902 550.6667 2067.0706 552.0 2079.7131C553.3333 2092.356 554.6667 2105.0608 556.0 2117.8281C557.3333 2130.5955 558.6667 2143.4248 560.0 2156.3167C561.3333 2169.2085 562.6667 2182.1626 564.0 2195.1787C565.3333 2208.195 566.6667 2221.2737 568.0 2234.4146C569.3333 2247.5557 570.6667 2260.7588 572.0 2274.0242C573.3333 2287.2896 574.6667 2300.6172 576.0 2314.0073C577.3333 2327.3972 580.0 2354.364 580.0 2354.364" fill-rule="nonzero"/><path fill="#4285f4" clip-path="url(#id_0)" d="M103.440056 133.25943C103.440056 135.7447 101.42534 137.75943 98.940056 137.75943C96.45478 137.75943 94.440056 135.7447 94.440056 133.25943C94.440056 130.77415 96.45478 128.75943 98.940056 128.75943C101.42534 128.75943 103.440056 130.77415 103.440056 133.25943Z" fill-rule="nonzero"/><path fill="#4285f4" clip-path="url(#id_0)" d="M87.94662 122.362816C87.94662 124.8481 85.9319 126.862816 83.44662 126.862816C80.96134 126.862816 78.94662 124.8481 78.94662 122.362816C78.94662 119.87754 80.96134 117.862816 83.44662 117.862816C85.9319 117.862816 87.94662 119.87754 87.94662 122.362816Z" fill-rule="nonzero"/><path fill="#4285f4" clip-path="url(#id_0)" d="M74.666534 154.64478C74.666534 157.13005 72.65181 159.14478 70.166534 159.14478C67.68125 159.14478 65.666534 157.13005 65.666534 154.64478C65.666534 152.15948 67.68125 150.14478 70.166534 150.14478C72.65181 150.14478 74.666534 152.15948 74.666534 154.64478Z" fill-rule="nonzero"/><path fill="#4285f4" clip-path="url(#id_0)" d="M103.440056 157.3835C103.440056 159.86877 101.42534 161.8835 98.940056 161.8835C96.45478 161.8835 94.440056 159.86877 94.440056 157.3835C94.440056 154.89821 96.45478 152.8835 98.940056 152.8835C101.42534 152.8835 103.440056 154.89821 103.440056 157.3835Z" fill-rule="nonzero"/><path fill="#4285f4" clip-path="url(#id_0)" d="M103.440056 160.12222C103.440056 162.6075 101.42534 164.62222 98.940056 164.62222C96.45478 164.62222 94.440056 162.6075 94.440056 160.12222C94.440056 157.63693 96.45478 155.62222 98.940056 155.62222C101.42534 155.62222 103.440056 157.63693 103.440056 160.12222Z" fill-rule="nonzero"/><path fill="#4285f4" clip-path="url(#id_0)" d="M103.440056 306.61472C103.440056 309.09998 101.42534 311.11472 98.940056 311.11472C96.45478 311.11472 94.440056 309.09998 94.440056 306.61472C94.440056 304.12943 96.45478 302.11472 98.940056 302.11472C101.42534 302.11472 103.440056 304.12943 103.440056 306.61472Z" fill-rule="nonzero"/><path fill="#4285f4" clip-path="url(#id_0)" d="M214.10748 199.3967C214.10748 201.88197 212.09276 203.8967 209.60748 203.8967C207.1222 203.8967 205.10748 201.88197 205.10748 199.3967C205.10748 196.9114 207.1222 194.8967 209.60748 194.8967C212.09276 194.8967 214.10748 196.9114 214.10748 199.3967Z" fill-rule="nonzero"/><path fill="#4285f4" clip-path="url(#id_0)" d="M99.01336 223.63733C99.01336 226.1226 96.99864 228.13733 94.51336 228.13733C92.02808 228.13733 90.01336 226.1226 90.01336 223.63733C90.01336 221.15204 92.02808 219.13733 94.51336 219.13733C96.99864 219.13733 99.01336 221.15204 99.01336 223.63733Z" fill-rule="nonzero"/><path fill="#4285f4" clip-path="url(#id_0)" d="M87.94662 212.7407C87.94662 215.226 85.9319 217.2407 83.44662 217.2407C80.96134 217.2407 78.94662 215.226 78.94662 212.7407C78.94662 210.25543 80.96134 208.2407 83.44662 208.2407C85.9319 208.2407 87.94662 210.25543 87.94662 212.7407Z" fill-rule="nonzero"/><path fill="#4285f4" clip-path="url(#id_0)" d="M74.666534 243.39113C74.666534 245.87642 72.65181 247.89113 70.166534 247.89113C67.68125 247.89113 65.666534 245.87642 65.666534 243.39113C65.666534 240.90585 67.68125 238.89113 70.166534 238.89113C72.65181 238.89113 74.666534 240.90585 74.666534 243.39113Z" fill-rule="nonzero"/><path fill="#4285f4" clip-path="url(#id_0)" d="M59.17309 251.6073C59.17309 254.09259 57.158375 256.1073 54.67309 256.1073C52.187813 256.1073 50.17309 254.09259 50.17309 251.6073C50.17309 249.12202 52.187813 247.1073 54.67309 247.1073C57.158375 247.1073 59.17309 249.12202 59.17309 251.6073Z" fill-rule="nonzero"/><path fill="#4285f4" clip-path="url(#id_0)" d="M59.17309 271.24454C59.17309 273.72983 57.158375 275.74454 54.67309 275.74454C52.187813 275.74454 50.17309 273.72983 50.17309 271.24454C50.17309 268.75925 52.187813 266.74454 54.67309 266.74454C57.158375 266.74454 59.17309 268.75925 59.17309 271.24454Z" fill-rule="nonzero"/><path fill="#4285f4" clip-path="url(#id_0)" d="M56.959743 279.46072C56.959743 281.94598 54.945026 283.96072 52.459743 283.96072C49.974464 283.96072 47.959743 281.94598 47.959743 279.46072C47.959743 276.97543 49.974464 274.96072 52.459743 274.96072C54.945026 274.96072 56.959743 276.97543 56.959743 279.46072Z" fill-rule="nonzero"/><path stroke="#000000" stroke-width="1.0" stroke-linecap="butt" d="M65.5 329.5L65.5 323.5" fill-rule="nonzero"/><path stroke="#000000" stroke-width="1.0" stroke-linecap="butt" d="M101.5 329.5L101.5 323.5" fill-rule="nonzero"/><path stroke="#000000" stroke-width="1.0" stroke-linecap="butt" d="M175.5 329.5L175.5 323.5" fill-rule="nonzero"/><path stroke="#000000" stroke-width="1.0" stroke-linecap="butt" d="M212.5 329.5L212.5 323.5" fill-rule="nonzero"/><path stroke="#000000" stroke-width="1.0" stroke-linecap="butt" d="M286.5 329.5L286.5 323.5" fill-rule="nonzero"/><path stroke="#000000" stroke-width="1.0" stroke-linecap="butt" d="M323.5 329.5L323.5 323.5" fill-rule="nonzero"/><path stroke="#000000" stroke-width="1.0" stroke-linecap="butt" d="M397.5 329.5L397.5 323.5" fill-rule="nonzero"/><path stroke="#000000" stroke-width="1.0" stroke-linecap="butt" d="M433.5 329.5L433.5 323.5" fill-rule="nonzero"/><path stroke="#000000" stroke-width="1.0" stroke-linecap="butt" d="M507.5 329.5L507.5 323.5" fill-rule="nonzero"/><path stroke="#000000" stroke-width="1.0" stroke-linecap="butt" d="M544.5 329.5L544.5 323.5" fill-rule="nonzero"/><path stroke="#000000" stroke-width="1.0" stroke-linecap="butt" d="M138.5 332.5L138.5 320.5" fill-rule="nonzero"/><path stroke="#000000" stroke-width="1.0" stroke-linecap="butt" d="M249.5 332.5L249.5 320.5" fill-rule="nonzero"/><path stroke="#000000" stroke-width="1.0" stroke-linecap="butt" d="M360.5 332.5L360.5 320.5" fill-rule="nonzero"/><path stroke="#000000" stroke-width="1.0" stroke-linecap="butt" d="M470.5 332.5L470.5 320.5" fill-rule="nonzero"/><path stroke="#000000" stroke-width="1.0" stroke-linecap="butt" d="M581.5 332.5L581.5 320.5" fill-rule="nonzero"/><path fill="#000000" d="M18.925 327.8719L18.925 326.8094L22.175 326.8094L22.175 327.8719L18.925 327.8719ZM27.01875 330.45L25.971874 330.45L25.971874 323.73126Q25.58125 324.09064 24.95625 324.46564Q24.346874 324.825 23.8625 324.9969L23.8625 323.98126Q24.7375 323.5594 25.39375 322.98126Q26.065624 322.3875 26.346874 321.825L27.01875 321.825L27.01875 330.45ZM30.64375 330.45L30.64375 329.2469L31.846874 329.2469L31.846874 330.45L30.64375 330.45ZM33.05 326.21564Q33.05 324.6844 33.3625 323.7625Q33.675 322.825 34.284374 322.325Q34.909374 321.825 35.846874 321.825Q36.534374 321.825 37.05 322.10626Q37.58125 322.3875 37.925 322.91876Q38.26875 323.4344 38.45625 324.1844Q38.64375 324.9344 38.64375 326.21564Q38.64375 327.73126 38.33125 328.65314Q38.034374 329.575 37.409374 330.09064Q36.8 330.59064 35.846874 330.59064Q34.6125 330.59064 33.89375 329.7Q33.05 328.6375 33.05 326.21564ZM34.128124 326.21564Q34.128124 328.325 34.628124 329.02814Q35.128124 329.73126 35.846874 329.73126Q36.58125 329.73126 37.065624 329.02814Q37.565624 328.325 37.565624 326.21564Q37.565624 324.09064 37.065624 323.40314Q36.58125 322.7 35.83125 322.7Q35.1125 322.7 34.675 323.3094Q34.128124 324.09064 34.128124 326.21564Z" fill-rule="nonzero"/><path fill="#000000" d="M18.925 280.23856L18.925 279.17606L22.175 279.17606L22.175 280.23856L18.925 280.23856ZM23.05 278.5823Q23.05 277.05106 23.3625 276.12918Q23.675 275.19168 24.284374 274.69168Q24.909374 274.19168 25.846874 274.19168Q26.534374 274.19168 27.05 274.47293Q27.58125 274.75418 27.925 275.28543Q28.26875 275.80106 28.45625 276.55106Q28.64375 277.30106 28.64375 278.5823Q28.64375 280.09793 28.33125 281.0198Q28.034374 281.94168 27.409374 282.4573Q26.8 282.9573 25.846874 282.9573Q24.6125 282.9573 23.89375 282.06668Q23.05 281.00418 23.05 278.5823ZM24.128124 278.5823Q24.128124 280.69168 24.628124 281.3948Q25.128124 282.09793 25.846874 282.09793Q26.58125 282.09793 27.065624 281.3948Q27.565624 280.69168 27.565624 278.5823Q27.565624 276.4573 27.065624 275.7698Q26.58125 275.06668 25.83125 275.06668Q25.1125 275.06668 24.675 275.67606Q24.128124 276.4573 24.128124 278.5823ZM30.64375 282.81668L30.64375 281.61356L31.846874 281.61356L31.846874 282.81668L30.64375 282.81668ZM33.05 280.56668L34.159374 280.47293Q34.284374 281.28543 34.721874 281.69168Q35.175 282.09793 35.815624 282.09793Q36.565624 282.09793 37.096874 281.5198Q37.628124 280.94168 37.628124 280.00418Q37.628124 279.09793 37.1125 278.5823Q36.6125 278.05106 35.784374 278.05106Q35.284374 278.05106 34.8625 278.28543Q34.45625 278.5198 34.221874 278.87918L33.2375 278.75418L34.065624 274.34793L38.346874 274.34793L38.346874 275.34793L34.909374 275.34793L34.45625 277.66043Q35.221874 277.11356 36.065624 277.11356Q37.190624 277.11356 37.95625 277.8948Q38.7375 278.67606 38.7375 279.91043Q38.7375 281.06668 38.065624 281.92606Q37.2375 282.9573 35.815624 282.9573Q34.64375 282.9573 33.89375 282.30106Q33.159374 281.6448 33.05 280.56668Z" fill-rule="nonzero"/><path fill="#000000" d="M23.05 230.94896Q23.05 229.41771 23.3625 228.49583Q23.675 227.55833 24.284374 227.05833Q24.909374 226.55833 25.846874 226.55833Q26.534374 226.55833 27.05 226.83958Q27.58125 227.12083 27.925 227.65208Q28.26875 228.16771 28.45625 228.91771Q28.64375 229.66771 28.64375 230.94896Q28.64375 232.46458 28.33125 233.38646Q28.034374 234.30833 27.409374 234.82396Q26.8 235.32396 25.846874 235.32396Q24.6125 235.32396 23.89375 234.43333Q23.05 233.37083 23.05 230.94896ZM24.128124 230.94896Q24.128124 233.05833 24.628124 233.76146Q25.128124 234.46458 25.846874 234.46458Q26.58125 234.46458 27.065624 233.76146Q27.565624 233.05833 27.565624 230.94896Q27.565624 228.82396 27.065624 228.13646Q26.58125 227.43333 25.83125 227.43333Q25.1125 227.43333 24.675 228.04271Q24.128124 228.82396 24.128124 230.94896ZM30.64375 235.18333L30.64375 233.98021L31.846874 233.98021L31.846874 235.18333L30.64375 235.18333ZM33.05 230.94896Q33.05 229.41771 33.3625 228.49583Q33.675 227.55833 34.284374 227.05833Q34.909374 226.55833 35.846874 226.55833Q36.534374 226.55833 37.05 226.83958Q37.58125 227.12083 37.925 227.65208Q38.26875 228.16771 38.45625 228.91771Q38.64375 229.66771 38.64375 230.94896Q38.64375 232.46458 38.33125 233.38646Q38.034374 234.30833 37.409374 234.82396Q36.8 235.32396 35.846874 235.32396Q34.6125 235.32396 33.89375 234.43333Q33.05 233.37083 33.05 230.94896ZM34.128124 230.94896Q34.128124 233.05833 34.628124 233.76146Q35.128124 234.46458 35.846874 234.46458Q36.58125 234.46458 37.065624 233.76146Q37.565624 233.05833 37.565624 230.94896Q37.565624 228.82396 37.065624 228.13646Q36.58125 227.43333 35.83125 227.43333Q35.1125 227.43333 34.675 228.04271Q34.128124 228.82396 34.128124 230.94896Z" fill-rule="nonzero"/><path fill="#000000" d="M23.05 183.31563Q23.05 181.78438 23.3625 180.8625Q23.675 179.925 24.284374 179.425Q24.909374 178.925 25.846874 178.925Q26.534374 178.925 27.05 179.20625Q27.58125 179.4875 27.925 180.01875Q28.26875 180.53438 28.45625 181.28438Q28.64375 182.03438 28.64375 183.31563Q28.64375 184.83125 28.33125 185.75313Q28.034374 186.675 27.409374 187.19063Q26.8 187.69063 25.846874 187.69063Q24.6125 187.69063 23.89375 186.8Q23.05 185.7375 23.05 183.31563ZM24.128124 183.31563Q24.128124 185.425 24.628124 186.12813Q25.128124 186.83125 25.846874 186.83125Q26.58125 186.83125 27.065624 186.12813Q27.565624 185.425 27.565624 183.31563Q27.565624 181.19063 27.065624 180.50313Q26.58125 179.8 25.83125 179.8Q25.1125 179.8 24.675 180.40938Q24.128124 181.19063 24.128124 183.31563ZM30.64375 187.55L30.64375 186.34688L31.846874 186.34688L31.846874 187.55L30.64375 187.55ZM33.05 185.3L34.159374 185.20625Q34.284374 186.01875 34.721874 186.425Q35.175 186.83125 35.815624 186.83125Q36.565624 186.83125 37.096874 186.25313Q37.628124 185.675 37.628124 184.7375Q37.628124 183.83125 37.1125 183.31563Q36.6125 182.78438 35.784374 182.78438Q35.284374 182.78438 34.8625 183.01875Q34.45625 183.25313 34.221874 183.6125L33.2375 183.4875L34.065624 179.08125L38.346874 179.08125L38.346874 180.08125L34.909374 180.08125L34.45625 182.39375Q35.221874 181.84688 36.065624 181.84688Q37.190624 181.84688 37.95625 182.62813Q38.7375 183.40938 38.7375 184.64375Q38.7375 185.8 38.065624 186.65938Q37.2375 187.69063 35.815624 187.69063Q34.64375 187.69063 33.89375 187.03438Q33.159374 186.37813 33.05 185.3Z" fill-rule="nonzero"/><path fill="#000000" d="M27.01875 139.91667L25.971874 139.91667L25.971874 133.19792Q25.58125 133.5573 24.95625 133.9323Q24.346874 134.29167 23.8625 134.46355L23.8625 133.44792Q24.7375 133.02605 25.39375 132.44792Q26.065624 131.85417 26.346874 131.29167L27.01875 131.29167L27.01875 139.91667ZM30.64375 139.91667L30.64375 138.71355L31.846874 138.71355L31.846874 139.91667L30.64375 139.91667ZM33.05 135.6823Q33.05 134.15105 33.3625 133.22917Q33.675 132.29167 34.284374 131.79167Q34.909374 131.29167 35.846874 131.29167Q36.534374 131.29167 37.05 131.57292Q37.58125 131.85417 37.925 132.38542Q38.26875 132.90105 38.45625 133.65105Q38.64375 134.40105 38.64375 135.6823Q38.64375 137.19792 38.33125 138.1198Q38.034374 139.04167 37.409374 139.5573Q36.8 140.0573 35.846874 140.0573Q34.6125 140.0573 33.89375 139.16667Q33.05 138.10417 33.05 135.6823ZM34.128124 135.6823Q34.128124 137.79167 34.628124 138.4948Q35.128124 139.19792 35.846874 139.19792Q36.58125 139.19792 37.065624 138.4948Q37.565624 137.79167 37.565624 135.6823Q37.565624 133.5573 37.065624 132.8698Q36.58125 132.16667 35.83125 132.16667Q35.1125 132.16667 34.675 132.77605Q34.128124 133.5573 34.128124 135.6823Z" fill-rule="nonzero"/><path fill="#000000" d="M27.01875 92.28333L25.971874 92.28333L25.971874 85.56458Q25.58125 85.92396 24.95625 86.29896Q24.346874 86.65833 23.8625 86.83021L23.8625 85.81458Q24.7375 85.39271 25.39375 84.81458Q26.065624 84.22083 26.346874 83.65833L27.01875 83.65833L27.01875 92.28333ZM30.64375 92.28333L30.64375 91.08021L31.846874 91.08021L31.846874 92.28333L30.64375 92.28333ZM33.05 90.03333L34.159374 89.93958Q34.284374 90.75208 34.721874 91.15833Q35.175 91.56458 35.815624 91.56458Q36.565624 91.56458 37.096874 90.98646Q37.628124 90.40833 37.628124 89.47083Q37.628124 88.56458 37.1125 88.04896Q36.6125 87.51771 35.784374 87.51771Q35.284374 87.51771 34.8625 87.75208Q34.45625 87.98646 34.221874 88.34583L33.2375 88.22083L34.065624 83.81458L38.346874 83.81458L38.346874 84.81458L34.909374 84.81458L34.45625 87.12708Q35.221874 86.58021 36.065624 86.58021Q37.190624 86.58021 37.95625 87.36146Q38.7375 88.14271 38.7375 89.37708Q38.7375 90.53333 38.065624 91.39271Q37.2375 92.42396 35.815624 92.42396Q34.64375 92.42396 33.89375 91.76771Q33.159374 91.11146 33.05 90.03333Z" fill-rule="nonzero"/><path fill="#000000" d="M126.2647 350.6844L126.2647 349.6375Q125.48345 349.52814 124.98345 349.27814Q124.48345 349.02814 124.12408 348.46564Q123.7647 347.8875 123.7022 347.0594L124.7647 346.8719Q124.8897 347.71564 125.2022 348.10626Q125.65533 348.66876 126.2647 348.7469L126.2647 345.3875Q125.62408 345.2625 124.93658 344.8719Q124.43658 344.59064 124.15533 344.10626Q123.8897 343.60626 123.8897 342.96564Q123.8897 341.84064 124.68658 341.15314Q125.21783 340.6844 126.2647 340.575L126.2647 340.075L126.8897 340.075L126.8897 340.575Q127.81158 340.65314 128.34283 341.10626Q129.04596 341.6844 129.18658 342.6844L128.09283 342.85626Q127.99908 342.23126 127.7022 341.90314Q127.40533 341.575 126.8897 341.46564L126.8897 344.4969Q127.68658 344.7 127.9522 344.8094Q128.43658 345.02814 128.74908 345.34064Q129.06158 345.65314 129.21783 346.09064Q129.38971 346.5125 129.38971 347.0125Q129.38971 348.10626 128.68658 348.84064Q127.99908 349.575 126.8897 349.6219L126.8897 350.6844L126.2647 350.6844ZM126.2647 341.45Q125.65533 341.54376 125.29595 341.95Q124.9522 342.34064 124.9522 342.8875Q124.9522 343.41876 125.24908 343.79376Q125.54595 344.15314 126.2647 344.3719L126.2647 341.45ZM126.8897 348.7469Q127.49908 348.66876 127.90533 348.21564Q128.31158 347.7469 128.31158 347.075Q128.31158 346.4969 128.01471 346.15314Q127.73345 345.8094 126.8897 345.52814L126.8897 348.7469ZM130.78033 345.21564Q130.78033 343.6844 131.09283 342.7625Q131.40533 341.825 132.01471 341.325Q132.63971 340.825 133.57721 340.825Q134.26471 340.825 134.78033 341.10626Q135.31158 341.3875 135.65533 341.91876Q135.99908 342.4344 136.18658 343.1844Q136.37408 343.9344 136.37408 345.21564Q136.37408 346.73126 136.06158 347.65314Q135.76471 348.575 135.13971 349.09064Q134.53033 349.59064 133.57721 349.59064Q132.34283 349.59064 131.62408 348.7Q130.78033 347.6375 130.78033 345.21564ZM131.85846 345.21564Q131.85846 347.325 132.35846 348.02814Q132.85846 348.73126 133.57721 348.73126Q134.31158 348.73126 134.79596 348.02814Q135.29596 347.325 135.29596 345.21564Q135.29596 343.09064 134.79596 342.40314Q134.31158 341.7 133.56158 341.7Q132.84283 341.7 132.40533 342.3094Q131.85846 343.09064 131.85846 345.21564ZM138.37408 349.45L138.37408 348.2469L139.57721 348.2469L139.57721 349.45L138.37408 349.45ZM140.78033 347.2L141.88971 347.10626Q142.01471 347.91876 142.45221 348.325Q142.90533 348.73126 143.54596 348.73126Q144.29596 348.73126 144.82721 348.15314Q145.35846 347.575 145.35846 346.6375Q145.35846 345.73126 144.84283 345.21564Q144.34283 344.6844 143.51471 344.6844Q143.01471 344.6844 142.59283 344.91876Q142.18658 345.15314 141.95221 345.5125L140.96783 345.3875L141.79596 340.98126L146.07721 340.98126L146.07721 341.98126L142.63971 341.98126L142.18658 344.29376Q142.95221 343.7469 143.79596 343.7469Q144.92096 343.7469 145.68658 344.52814Q146.46783 345.3094 146.46783 346.54376Q146.46783 347.7 145.79596 348.5594Q144.96783 349.59064 143.54596 349.59064Q142.37408 349.59064 141.62408 348.9344Q140.88971 348.27814 140.78033 347.2ZM147.78033 345.21564Q147.78033 343.6844 148.09283 342.7625Q148.40533 341.825 149.01471 341.325Q149.63971 340.825 150.57721 340.825Q151.26471 340.825 151.78033 341.10626Q152.31158 341.3875 152.65533 341.91876Q152.99908 342.4344 153.18658 343.1844Q153.37408 343.9344 153.37408 345.21564Q153.37408 346.73126 153.06158 347.65314Q152.76471 348.575 152.13971 349.09064Q151.53033 349.59064 150.57721 349.59064Q149.34283 349.59064 148.62408 348.7Q147.78033 347.6375 147.78033 345.21564ZM148.85846 345.21564Q148.85846 347.325 149.35846 348.02814Q149.85846 348.73126 150.57721 348.73126Q151.31158 348.73126 151.79596 348.02814Q152.29596 347.325 152.29596 345.21564Q152.29596 343.09064 151.79596 342.40314Q151.31158 341.7 150.56158 341.7Q149.84283 341.7 149.40533 342.3094Q148.85846 343.09064 148.85846 345.21564Z" fill-rule="nonzero"/><path fill="#000000" d="M236.93213 350.6844L236.93213 349.6375Q236.15088 349.52814 235.65088 349.27814Q235.15088 349.02814 234.7915 348.46564Q234.43213 347.8875 234.36963 347.0594L235.43213 346.8719Q235.55713 347.71564 235.86963 348.10626Q236.32275 348.66876 236.93213 348.7469L236.93213 345.3875Q236.2915 345.2625 235.604 344.8719Q235.104 344.59064 234.82275 344.10626Q234.55713 343.60626 234.55713 342.96564Q234.55713 341.84064 235.354 341.15314Q235.88525 340.6844 236.93213 340.575L236.93213 340.075L237.55713 340.075L237.55713 340.575Q238.479 340.65314 239.01025 341.10626Q239.71338 341.6844 239.854 342.6844L238.76025 342.85626Q238.6665 342.23126 238.36963 341.90314Q238.07275 341.575 237.55713 341.46564L237.55713 344.4969Q238.354 344.7 238.61963 344.8094Q239.104 345.02814 239.4165 345.34064Q239.729 345.65314 239.88525 346.09064Q240.05713 346.5125 240.05713 347.0125Q240.05713 348.10626 239.354 348.84064Q238.6665 349.575 237.55713 349.6219L237.55713 350.6844L236.93213 350.6844ZM236.93213 341.45Q236.32275 341.54376 235.96338 341.95Q235.61963 342.34064 235.61963 342.8875Q235.61963 343.41876 235.9165 343.79376Q236.21338 344.15314 236.93213 344.3719L236.93213 341.45ZM237.55713 348.7469Q238.1665 348.66876 238.57275 348.21564Q238.979 347.7469 238.979 347.075Q238.979 346.4969 238.68213 346.15314Q238.40088 345.8094 237.55713 345.52814L237.55713 348.7469ZM245.4165 349.45L244.36963 349.45L244.36963 342.73126Q243.979 343.09064 243.354 343.46564Q242.74463 343.825 242.26025 343.9969L242.26025 342.98126Q243.13525 342.5594 243.7915 341.98126Q244.46338 341.3875 244.74463 340.825L245.4165 340.825L245.4165 349.45ZM249.0415 349.45L249.0415 348.2469L250.24463 348.2469L250.24463 349.45L249.0415 349.45ZM251.44775 345.21564Q251.44775 343.6844 251.76025 342.7625Q252.07275 341.825 252.68213 341.325Q253.30713 340.825 254.24463 340.825Q254.93213 340.825 255.44775 341.10626Q255.979 341.3875 256.32275 341.91876Q256.6665 342.4344 256.854 343.1844Q257.0415 343.9344 257.0415 345.21564Q257.0415 346.73126 256.729 347.65314Q256.43213 348.575 255.80713 349.09064Q255.19775 349.59064 254.24463 349.59064Q253.01025 349.59064 252.2915 348.7Q251.44775 347.6375 251.44775 345.21564ZM252.52588 345.21564Q252.52588 347.325 253.02588 348.02814Q253.52588 348.73126 254.24463 348.73126Q254.979 348.73126 255.46338 348.02814Q255.96338 347.325 255.96338 345.21564Q255.96338 343.09064 255.46338 342.40314Q254.979 341.7 254.229 341.7Q253.51025 341.7 253.07275 342.3094Q252.52588 343.09064 252.52588 345.21564ZM258.44775 345.21564Q258.44775 343.6844 258.76025 342.7625Q259.07275 341.825 259.68213 341.325Q260.30713 340.825 261.24463 340.825Q261.93213 340.825 262.44775 341.10626Q262.979 341.3875 263.32275 341.91876Q263.6665 342.4344 263.854 343.1844Q264.0415 343.9344 264.0415 345.21564Q264.0415 346.73126 263.729 347.65314Q263.43213 348.575 262.80713 349.09064Q262.19775 349.59064 261.24463 349.59064Q260.01025 349.59064 259.2915 348.7Q258.44775 347.6375 258.44775 345.21564ZM259.52588 345.21564Q259.52588 347.325 260.02588 348.02814Q260.52588 348.73126 261.24463 348.73126Q261.979 348.73126 262.46338 348.02814Q262.96338 347.325 262.96338 345.21564Q262.96338 343.09064 262.46338 342.40314Q261.979 341.7 261.229 341.7Q260.51025 341.7 260.07275 342.3094Q259.52588 343.09064 259.52588 345.21564Z" fill-rule="nonzero"/><path fill="#000000" d="M347.59955 350.6844L347.59955 349.6375Q346.8183 349.52814 346.3183 349.27814Q345.8183 349.02814 345.45892 348.46564Q345.09955 347.8875 345.03705 347.0594L346.09955 346.8719Q346.22455 347.71564 346.53705 348.10626Q346.99017 348.66876 347.59955 348.7469L347.59955 345.3875Q346.95892 345.2625 346.27142 344.8719Q345.77142 344.59064 345.49017 344.10626Q345.22455 343.60626 345.22455 342.96564Q345.22455 341.84064 346.02142 341.15314Q346.55267 340.6844 347.59955 340.575L347.59955 340.075L348.22455 340.075L348.22455 340.575Q349.14642 340.65314 349.67767 341.10626Q350.3808 341.6844 350.52142 342.6844L349.42767 342.85626Q349.33392 342.23126 349.03705 341.90314Q348.74017 341.575 348.22455 341.46564L348.22455 344.4969Q349.02142 344.7 349.28705 344.8094Q349.77142 345.02814 350.08392 345.34064Q350.39642 345.65314 350.55267 346.09064Q350.72455 346.5125 350.72455 347.0125Q350.72455 348.10626 350.02142 348.84064Q349.33392 349.575 348.22455 349.6219L348.22455 350.6844L347.59955 350.6844ZM347.59955 341.45Q346.99017 341.54376 346.6308 341.95Q346.28705 342.34064 346.28705 342.8875Q346.28705 343.41876 346.58392 343.79376Q346.8808 344.15314 347.59955 344.3719L347.59955 341.45ZM348.22455 348.7469Q348.83392 348.66876 349.24017 348.21564Q349.64642 347.7469 349.64642 347.075Q349.64642 346.4969 349.34955 346.15314Q349.0683 345.8094 348.22455 345.52814L348.22455 348.7469ZM356.08392 349.45L355.03705 349.45L355.03705 342.73126Q354.64642 343.09064 354.02142 343.46564Q353.41205 343.825 352.92767 343.9969L352.92767 342.98126Q353.80267 342.5594 354.45892 341.98126Q355.1308 341.3875 355.41205 340.825L356.08392 340.825L356.08392 349.45ZM359.70892 349.45L359.70892 348.2469L360.91205 348.2469L360.91205 349.45L359.70892 349.45ZM362.11517 347.2L363.22455 347.10626Q363.34955 347.91876 363.78705 348.325Q364.24017 348.73126 364.8808 348.73126Q365.6308 348.73126 366.16205 348.15314Q366.6933 347.575 366.6933 346.6375Q366.6933 345.73126 366.17767 345.21564Q365.67767 344.6844 364.84955 344.6844Q364.34955 344.6844 363.92767 344.91876Q363.52142 345.15314 363.28705 345.5125L362.30267 345.3875L363.1308 340.98126L367.41205 340.98126L367.41205 341.98126L363.97455 341.98126L363.52142 344.29376Q364.28705 343.7469 365.1308 343.7469Q366.2558 343.7469 367.02142 344.52814Q367.80267 345.3094 367.80267 346.54376Q367.80267 347.7 367.1308 348.5594Q366.30267 349.59064 364.8808 349.59064Q363.70892 349.59064 362.95892 348.9344Q362.22455 348.27814 362.11517 347.2ZM369.11517 345.21564Q369.11517 343.6844 369.42767 342.7625Q369.74017 341.825 370.34955 341.325Q370.97455 340.825 371.91205 340.825Q372.59955 340.825 373.11517 341.10626Q373.64642 341.3875 373.99017 341.91876Q374.33392 342.4344 374.52142 343.1844Q374.70892 343.9344 374.70892 345.21564Q374.70892 346.73126 374.39642 347.65314Q374.09955 348.575 373.47455 349.09064Q372.86517 349.59064 371.91205 349.59064Q370.67767 349.59064 369.95892 348.7Q369.11517 347.6375 369.11517 345.21564ZM370.1933 345.21564Q370.1933 347.325 370.6933 348.02814Q371.1933 348.73126 371.91205 348.73126Q372.64642 348.73126 373.1308 348.02814Q373.6308 347.325 373.6308 345.21564Q373.6308 343.09064 373.1308 342.40314Q372.64642 341.7 371.89642 341.7Q371.17767 341.7 370.74017 342.3094Q370.1933 343.09064 370.1933 345.21564Z" fill-rule="nonzero"/><path fill="#000000" d="M458.26697 350.6844L458.26697 349.6375Q457.48572 349.52814 456.98572 349.27814Q456.48572 349.02814 456.12634 348.46564Q455.76697 347.8875 455.70447 347.0594L456.76697 346.8719Q456.89197 347.71564 457.20447 348.10626Q457.6576 348.66876 458.26697 348.7469L458.26697 345.3875Q457.62634 345.2625 456.93884 344.8719Q456.43884 344.59064 456.1576 344.10626Q455.89197 343.60626 455.89197 342.96564Q455.89197 341.84064 456.68884 341.15314Q457.2201 340.6844 458.26697 340.575L458.26697 340.075L458.89197 340.075L458.89197 340.575Q459.81384 340.65314 460.3451 341.10626Q461.04822 341.6844 461.18884 342.6844L460.0951 342.85626Q460.00134 342.23126 459.70447 341.90314Q459.4076 341.575 458.89197 341.46564L458.89197 344.4969Q459.68884 344.7 459.95447 344.8094Q460.43884 345.02814 460.75134 345.34064Q461.06384 345.65314 461.2201 346.09064Q461.39197 346.5125 461.39197 347.0125Q461.39197 348.10626 460.68884 348.84064Q460.00134 349.575 458.89197 349.6219L458.89197 350.6844L458.26697 350.6844ZM458.26697 341.45Q457.6576 341.54376 457.29822 341.95Q456.95447 342.34064 456.95447 342.8875Q456.95447 343.41876 457.25134 343.79376Q457.54822 344.15314 458.26697 344.3719L458.26697 341.45ZM458.89197 348.7469Q459.50134 348.66876 459.9076 348.21564Q460.31384 347.7469 460.31384 347.075Q460.31384 346.4969 460.01697 346.15314Q459.73572 345.8094 458.89197 345.52814L458.89197 348.7469ZM468.32947 348.4344L468.32947 349.45L462.64197 349.45Q462.64197 349.075 462.76697 348.71564Q462.98572 348.1375 463.45447 347.575Q463.93884 347.0125 464.8451 346.27814Q466.25134 345.1219 466.73572 344.45Q467.23572 343.77814 467.23572 343.1844Q467.23572 342.5594 466.7826 342.1375Q466.32947 341.7 465.61072 341.7Q464.8451 341.7 464.39197 342.15314Q463.93884 342.60626 463.92322 343.41876L462.8451 343.3094Q462.95447 342.09064 463.67322 341.46564Q464.4076 340.825 465.64197 340.825Q466.87634 340.825 467.5951 341.5125Q468.31384 342.2 468.31384 343.21564Q468.31384 343.73126 468.0951 344.23126Q467.89197 344.71564 467.39197 345.27814Q466.9076 345.825 465.7826 346.77814Q464.82947 347.575 464.54822 347.8719Q464.2826 348.15314 464.11072 348.4344L468.32947 348.4344ZM470.37634 349.45L470.37634 348.2469L471.57947 348.2469L471.57947 349.45L470.37634 349.45ZM472.7826 345.21564Q472.7826 343.6844 473.0951 342.7625Q473.4076 341.825 474.01697 341.325Q474.64197 340.825 475.57947 340.825Q476.26697 340.825 476.7826 341.10626Q477.31384 341.3875 477.6576 341.91876Q478.00134 342.4344 478.18884 343.1844Q478.37634 343.9344 478.37634 345.21564Q478.37634 346.73126 478.06384 347.65314Q477.76697 348.575 477.14197 349.09064Q476.5326 349.59064 475.57947 349.59064Q474.3451 349.59064 473.62634 348.7Q472.7826 347.6375 472.7826 345.21564ZM473.86072 345.21564Q473.86072 347.325 474.36072 348.02814Q474.86072 348.73126 475.57947 348.73126Q476.31384 348.73126 476.79822 348.02814Q477.29822 347.325 477.29822 345.21564Q477.29822 343.09064 476.79822 342.40314Q476.31384 341.7 475.56384 341.7Q474.8451 341.7 474.4076 342.3094Q473.86072 343.09064 473.86072 345.21564ZM479.7826 345.21564Q479.7826 343.6844 480.0951 342.7625Q480.4076 341.825 481.01697 341.325Q481.64197 340.825 482.57947 340.825Q483.26697 340.825 483.7826 341.10626Q484.31384 341.3875 484.6576 341.91876Q485.00134 342.4344 485.18884 343.1844Q485.37634 343.9344 485.37634 345.21564Q485.37634 346.73126 485.06384 347.65314Q484.76697 348.575 484.14197 349.09064Q483.5326 349.59064 482.57947 349.59064Q481.3451 349.59064 480.62634 348.7Q479.7826 347.6375 479.7826 345.21564ZM480.86072 345.21564Q480.86072 347.325 481.36072 348.02814Q481.86072 348.73126 482.57947 348.73126Q483.31384 348.73126 483.79822 348.02814Q484.29822 347.325 484.29822 345.21564Q484.29822 343.09064 483.79822 342.40314Q483.31384 341.7 482.56384 341.7Q481.8451 341.7 481.4076 342.3094Q480.86072 343.09064 480.86072 345.21564Z" fill-rule="nonzero"/><path fill="#000000" d="M568.9344 350.6844L568.9344 349.6375Q568.15314 349.52814 567.65314 349.27814Q567.15314 349.02814 566.79376 348.46564Q566.4344 347.8875 566.3719 347.0594L567.4344 346.8719Q567.5594 347.71564 567.8719 348.10626Q568.325 348.66876 568.9344 348.7469L568.9344 345.3875Q568.29376 345.2625 567.60626 344.8719Q567.10626 344.59064 566.825 344.10626Q566.5594 343.60626 566.5594 342.96564Q566.5594 341.84064 567.35626 341.15314Q567.8875 340.6844 568.9344 340.575L568.9344 340.075L569.5594 340.075L569.5594 340.575Q570.48126 340.65314 571.0125 341.10626Q571.71564 341.6844 571.85626 342.6844L570.7625 342.85626Q570.66876 342.23126 570.3719 341.90314Q570.075 341.575 569.5594 341.46564L569.5594 344.4969Q570.35626 344.7 570.6219 344.8094Q571.10626 345.02814 571.41876 345.34064Q571.73126 345.65314 571.8875 346.09064Q572.0594 346.5125 572.0594 347.0125Q572.0594 348.10626 571.35626 348.84064Q570.66876 349.575 569.5594 349.6219L569.5594 350.6844L568.9344 350.6844ZM568.9344 341.45Q568.325 341.54376 567.96564 341.95Q567.6219 342.34064 567.6219 342.8875Q567.6219 343.41876 567.91876 343.79376Q568.21564 344.15314 568.9344 344.3719L568.9344 341.45ZM569.5594 348.7469Q570.16876 348.66876 570.575 348.21564Q570.98126 347.7469 570.98126 347.075Q570.98126 346.4969 570.6844 346.15314Q570.40314 345.8094 569.5594 345.52814L569.5594 348.7469ZM578.9969 348.4344L578.9969 349.45L573.3094 349.45Q573.3094 349.075 573.4344 348.71564Q573.65314 348.1375 574.1219 347.575Q574.60626 347.0125 575.5125 346.27814Q576.91876 345.1219 577.40314 344.45Q577.90314 343.77814 577.90314 343.1844Q577.90314 342.5594 577.45 342.1375Q576.9969 341.7 576.27814 341.7Q575.5125 341.7 575.0594 342.15314Q574.60626 342.60626 574.59064 343.41876L573.5125 343.3094Q573.6219 342.09064 574.34064 341.46564Q575.075 340.825 576.3094 340.825Q577.54376 340.825 578.2625 341.5125Q578.98126 342.2 578.98126 343.21564Q578.98126 343.73126 578.7625 344.23126Q578.5594 344.71564 578.0594 345.27814Q577.575 345.825 576.45 346.77814Q575.4969 347.575 575.21564 347.8719Q574.95 348.15314 574.77814 348.4344L578.9969 348.4344ZM581.04376 349.45L581.04376 348.2469L582.2469 348.2469L582.2469 349.45L581.04376 349.45ZM583.45 347.2L584.5594 347.10626Q584.6844 347.91876 585.1219 348.325Q585.575 348.73126 586.21564 348.73126Q586.96564 348.73126 587.4969 348.15314Q588.02814 347.575 588.02814 346.6375Q588.02814 345.73126 587.5125 345.21564Q587.0125 344.6844 586.1844 344.6844Q585.6844 344.6844 585.2625 344.91876Q584.85626 345.15314 584.6219 345.5125L583.6375 345.3875L584.46564 340.98126L588.7469 340.98126L588.7469 341.98126L585.3094 341.98126L584.85626 344.29376Q585.6219 343.7469 586.46564 343.7469Q587.59064 343.7469 588.35626 344.52814Q589.1375 345.3094 589.1375 346.54376Q589.1375 347.7 588.46564 348.5594Q587.6375 349.59064 586.21564 349.59064Q585.04376 349.59064 584.29376 348.9344Q583.5594 348.27814 583.45 347.2ZM590.45 345.21564Q590.45 343.6844 590.7625 342.7625Q591.075 341.825 591.6844 341.325Q592.3094 340.825 593.2469 340.825Q593.9344 340.825 594.45 341.10626Q594.98126 341.3875 595.325 341.91876Q595.66876 342.4344 595.85626 343.1844Q596.04376 343.9344 596.04376 345.21564Q596.04376 346.73126 595.73126 347.65314Q595.4344 348.575 594.8094 349.09064Q594.2 349.59064 593.2469 349.59064Q592.0125 349.59064 591.29376 348.7Q590.45 347.6375 590.45 345.21564ZM591.52814 345.21564Q591.52814 347.325 592.02814 348.02814Q592.52814 348.73126 593.2469 348.73126Q593.98126 348.73126 594.46564 348.02814Q594.96564 347.325 594.96564 345.21564Q594.96564 343.09064 594.46564 342.40314Q593.98126 341.7 593.23126 341.7Q592.5125 341.7 592.075 342.3094Q591.52814 343.09064 591.52814 345.21564Z" fill-rule="nonzero"/><path fill="#4285f4" d="M199.5 61.916668C199.5 65.23038 196.8137 67.916664 193.5 67.916664C190.1863 67.916664 187.5 65.23038 187.5 61.916668C187.5 58.60296 190.1863 55.916668 193.5 55.916668C196.8137 55.916668 199.5 58.60296 199.5 61.916668Z" fill-rule="nonzero"/><path stroke="#4285f4" stroke-width="4.0" stroke-linecap="butt" stroke-opacity="0.4" d="M215.5 61.916668L227.5 61.916668" fill-rule="nonzero"/><path fill="#1a1a1a" d="M238.60938 65.916664L238.60938 58.33854L235.78125 58.33854L235.78125 57.322914L242.59375 57.322914L242.59375 58.33854L239.75 58.33854L239.75 65.916664L238.60938 65.916664ZM243.28125 65.916664L243.28125 59.697914L244.23438 59.697914L244.23438 60.635414Q244.59375 59.979164 244.89062 59.77604Q245.20312 59.55729 245.57812 59.55729Q246.10938 59.55729 246.65625 59.885414L246.29688 60.86979Q245.90625 60.635414 245.53125 60.635414Q245.17188 60.635414 244.89062 60.854164Q244.625 61.05729 244.51562 61.43229Q244.32812 61.99479 244.32812 62.65104L244.32812 65.916664L243.28125 65.916664ZM251.54688 63.916664L252.64062 64.041664Q252.39062 64.99479 251.6875 65.52604Q250.98438 66.05729 249.90625 66.05729Q248.54688 66.05729 247.73438 65.21354Q246.9375 64.36979 246.9375 62.854164Q246.9375 61.291664 247.75 60.43229Q248.5625 59.55729 249.84375 59.55729Q251.09375 59.55729 251.875 60.40104Q252.67188 61.24479 252.67188 62.791664Q252.67188 62.885414 252.67188 63.072914L248.03125 63.072914Q248.09375 64.104164 248.60938 64.65104Q249.125 65.18229 249.90625 65.18229Q250.48438 65.18229 250.89062 64.885414Q251.3125 64.572914 251.54688 63.916664ZM248.09375 62.21354L251.5625 62.21354Q251.5 61.416664 251.17188 61.02604Q250.65625 60.416664 249.85938 60.416664Q249.125 60.416664 248.625 60.90104Q248.14062 61.385414 248.09375 62.21354ZM254.29688 65.916664L254.29688 59.697914L255.23438 59.697914L255.23438 60.572914Q255.92188 59.55729 257.21875 59.55729Q257.78125 59.55729 258.25 59.760414Q258.73438 59.96354 258.96875 60.291664Q259.20312 60.61979 259.29688 61.05729Q259.34375 61.354164 259.34375 62.08854L259.34375 65.916664L258.29688 65.916664L258.29688 62.135414Q258.29688 61.479164 258.17188 61.166664Q258.04688 60.854164 257.73438 60.666664Q257.42188 60.46354 257.0 60.46354Q256.32812 60.46354 255.82812 60.90104Q255.34375 61.322914 255.34375 62.510414L255.34375 65.916664L254.29688 65.916664ZM265.32812 65.916664L265.32812 65.135414Q264.73438 66.05729 263.59375 66.05729Q262.84375 66.05729 262.21875 65.65104Q261.59375 65.229164 261.25 64.49479Q260.90625 63.760414 260.90625 62.80729Q260.90625 61.885414 261.21875 61.11979Q261.53125 60.354164 262.15625 59.96354Q262.78125 59.55729 263.54688 59.55729Q264.10938 59.55729 264.54688 59.791664Q264.98438 60.02604 265.26562 60.40104L265.26562 57.322914L266.3125 57.322914L266.3125 65.916664L265.32812 65.916664ZM262.0 62.80729Q262.0 64.010414 262.5 64.604164Q263.0 65.18229 263.6875 65.18229Q264.375 65.18229 264.85938 64.61979Q265.34375 64.05729 265.34375 62.90104Q265.34375 61.61979 264.84375 61.02604Q264.35938 60.43229 263.64062 60.43229Q262.9375 60.43229 262.46875 61.010414Q262.0 61.572914 262.0 62.80729ZM268.26562 65.916664L268.26562 57.322914L269.32812 57.322914L269.32812 65.916664L268.26562 65.916664ZM271.29688 58.541664L271.29688 57.322914L272.35938 57.322914L272.35938 58.541664L271.29688 58.541664ZM271.29688 65.916664L271.29688 59.697914L272.35938 59.697914L272.35938 65.916664L271.29688 65.916664ZM274.29688 65.916664L274.29688 59.697914L275.23438 59.697914L275.23438 60.572914Q275.92188 59.55729 277.21875 59.55729Q277.78125 59.55729 278.25 59.760414Q278.73438 59.96354 278.96875 60.291664Q279.20312 60.61979 279.29688 61.05729Q279.34375 61.354164 279.34375 62.08854L279.34375 65.916664L278.29688 65.916664L278.29688 62.135414Q278.29688 61.479164 278.17188 61.166664Q278.04688 60.854164 277.73438 60.666664Q277.42188 60.46354 277.0 60.46354Q276.32812 60.46354 275.82812 60.90104Q275.34375 61.322914 275.34375 62.510414L275.34375 65.916664L274.29688 65.916664ZM285.54688 63.916664L286.64062 64.041664Q286.39062 64.99479 285.6875 65.52604Q284.98438 66.05729 283.90625 66.05729Q282.54688 66.05729 281.73438 65.21354Q280.9375 64.36979 280.9375 62.854164Q280.9375 61.291664 281.75 60.43229Q282.5625 59.55729 283.84375 59.55729Q285.09375 59.55729 285.875 60.40104Q286.67188 61.24479 286.67188 62.791664Q286.67188 62.885414 286.67188 63.072914L282.03125 63.072914Q282.09375 64.104164 282.60938 64.65104Q283.125 65.18229 283.90625 65.18229Q284.48438 65.18229 284.89062 64.885414Q285.3125 64.572914 285.54688 63.916664ZM282.09375 62.21354L285.5625 62.21354Q285.5 61.416664 285.17188 61.02604Q284.65625 60.416664 283.85938 60.416664Q283.125 60.416664 282.625 60.90104Q282.14062 61.385414 282.09375 62.21354ZM291.54688 65.916664L291.54688 60.510414L290.60938 60.510414L290.60938 59.697914L291.54688 59.697914L291.54688 59.02604Q291.54688 58.40104 291.65625 58.104164Q291.8125 57.68229 292.1875 57.43229Q292.57812 57.18229 293.26562 57.18229Q293.71875 57.18229 294.25 57.291664L294.09375 58.197914Q293.76562 58.15104 293.46875 58.15104Q292.98438 58.15104 292.78125 58.354164Q292.59375 58.55729 292.59375 59.11979L292.59375 59.697914L293.8125 59.697914L293.8125 60.510414L292.59375 60.510414L292.59375 65.916664L291.54688 65.916664ZM293.90625 62.80729Q293.90625 61.072914 294.85938 60.24479Q295.65625 59.55729 296.8125 59.55729Q298.09375 59.55729 298.90625 60.40104Q299.73438 61.229164 299.73438 62.71354Q299.73438 63.916664 299.375 64.604164Q299.01562 65.291664 298.3125 65.68229Q297.625 66.05729 296.8125 66.05729Q295.51562 66.05729 294.70312 65.229164Q293.90625 64.385414 293.90625 62.80729ZM294.98438 62.80729Q294.98438 63.99479 295.5 64.58854Q296.03125 65.18229 296.8125 65.18229Q297.60938 65.18229 298.125 64.58854Q298.64062 63.99479 298.64062 62.77604Q298.64062 61.61979 298.10938 61.02604Q297.59375 60.43229 296.8125 60.43229Q296.03125 60.43229 295.5 61.02604Q294.98438 61.604164 294.98438 62.80729ZM301.28125 65.916664L301.28125 59.697914L302.23438 59.697914L302.23438 60.635414Q302.59375 59.979164 302.89062 59.77604Q303.20312 59.55729 303.57812 59.55729Q304.10938 59.55729 304.65625 59.885414L304.29688 60.86979Q303.90625 60.635414 303.53125 60.635414Q303.17188 60.635414 302.89062 60.854164Q302.625 61.05729 302.51562 61.43229Q302.32812 61.99479 302.32812 62.65104L302.32812 65.916664L301.28125 65.916664ZM307.875 64.05729L308.90625 63.90104Q309.0 64.52604 309.39062 64.854164Q309.79688 65.18229 310.53125 65.18229Q311.25 65.18229 311.59375 64.90104Q311.95312 64.604164 311.95312 64.197914Q311.95312 63.83854 311.64062 63.635414Q311.42188 63.49479 310.5625 63.27604Q309.40625 62.979164 308.95312 62.77604Q308.51562 62.55729 308.28125 62.18229Q308.04688 61.80729 308.04688 61.33854Q308.04688 60.93229 308.23438 60.572914Q308.42188 60.21354 308.75 59.979164Q309.0 59.80729 309.42188 59.68229Q309.84375 59.55729 310.34375 59.55729Q311.0625 59.55729 311.60938 59.77604Q312.17188 59.979164 312.4375 60.33854Q312.70312 60.697914 312.79688 61.291664L311.76562 61.43229Q311.70312 60.96354 311.35938 60.697914Q311.03125 60.416664 310.40625 60.416664Q309.6875 60.416664 309.375 60.666664Q309.0625 60.90104 309.0625 61.229164Q309.0625 61.43229 309.1875 61.58854Q309.32812 61.760414 309.59375 61.86979Q309.75 61.93229 310.53125 62.135414Q311.65625 62.447914 312.09375 62.635414Q312.53125 62.822914 312.78125 63.18229Q313.03125 63.541664 313.03125 64.08854Q313.03125 64.61979 312.71875 65.08854Q312.42188 65.541664 311.84375 65.80729Q311.26562 66.05729 310.53125 66.05729Q309.3125 66.05729 308.67188 65.55729Q308.04688 65.041664 307.875 64.05729ZM319.54688 63.916664L320.64062 64.041664Q320.39062 64.99479 319.6875 65.52604Q318.98438 66.05729 317.90625 66.05729Q316.54688 66.05729 315.73438 65.21354Q314.9375 64.36979 314.9375 62.854164Q314.9375 61.291664 315.75 60.43229Q316.5625 59.55729 317.84375 59.55729Q319.09375 59.55729 319.875 60.40104Q320.67188 61.24479 320.67188 62.791664Q320.67188 62.885414 320.67188 63.072914L316.03125 63.072914Q316.09375 64.104164 316.60938 64.65104Q317.125 65.18229 317.90625 65.18229Q318.48438 65.18229 318.89062 64.885414Q319.3125 64.572914 319.54688 63.916664ZM316.09375 62.21354L319.5625 62.21354Q319.5 61.416664 319.17188 61.02604Q318.65625 60.416664 317.85938 60.416664Q317.125 60.416664 316.625 60.90104Q316.14062 61.385414 316.09375 62.21354ZM322.28125 65.916664L322.28125 59.697914L323.23438 59.697914L323.23438 60.635414Q323.59375 59.979164 323.89062 59.77604Q324.20312 59.55729 324.57812 59.55729Q325.10938 59.55729 325.65625 59.885414L325.29688 60.86979Q324.90625 60.635414 324.53125 60.635414Q324.17188 60.635414 323.89062 60.854164Q323.625 61.05729 323.51562 61.43229Q323.32812 61.99479 323.32812 62.65104L323.32812 65.916664L322.28125 65.916664ZM326.29688 58.541664L326.29688 57.322914L327.35938 57.322914L327.35938 58.541664L326.29688 58.541664ZM326.29688 65.916664L326.29688 59.697914L327.35938 59.697914L327.35938 65.916664L326.29688 65.916664ZM333.54688 63.916664L334.64062 64.041664Q334.39062 64.99479 333.6875 65.52604Q332.98438 66.05729 331.90625 66.05729Q330.54688 66.05729 329.73438 65.21354Q328.9375 64.36979 328.9375 62.854164Q328.9375 61.291664 329.75 60.43229Q330.5625 59.55729 331.84375 59.55729Q333.09375 59.55729 333.875 60.40104Q334.67188 61.24479 334.67188 62.791664Q334.67188 62.885414 334.67188 63.072914L330.03125 63.072914Q330.09375 64.104164 330.60938 64.65104Q331.125 65.18229 331.90625 65.18229Q332.48438 65.18229 332.89062 64.885414Q333.3125 64.572914 333.54688 63.916664ZM330.09375 62.21354L333.5625 62.21354Q333.5 61.416664 333.17188 61.02604Q332.65625 60.416664 331.85938 60.416664Q331.125 60.416664 330.625 60.90104Q330.14062 61.385414 330.09375 62.21354ZM335.875 64.05729L336.90625 63.90104Q337.0 64.52604 337.39062 64.854164Q337.79688 65.18229 338.53125 65.18229Q339.25 65.18229 339.59375 64.90104Q339.95312 64.604164 339.95312 64.197914Q339.95312 63.83854 339.64062 63.635414Q339.42188 63.49479 338.5625 63.27604Q337.40625 62.979164 336.95312 62.77604Q336.51562 62.55729 336.28125 62.18229Q336.04688 61.80729 336.04688 61.33854Q336.04688 60.93229 336.23438 60.572914Q336.42188 60.21354 336.75 59.979164Q337.0 59.80729 337.42188 59.68229Q337.84375 59.55729 338.34375 59.55729Q339.0625 59.55729 339.60938 59.77604Q340.17188 59.979164 340.4375 60.33854Q340.70312 60.697914 340.79688 61.291664L339.76562 61.43229Q339.70312 60.96354 339.35938 60.697914Q339.03125 60.416664 338.40625 60.416664Q337.6875 60.416664 337.375 60.666664Q337.0625 60.90104 337.0625 61.229164Q337.0625 61.43229 337.1875 61.58854Q337.32812 61.760414 337.59375 61.86979Q337.75 61.93229 338.53125 62.135414Q339.65625 62.447914 340.09375 62.635414Q340.53125 62.822914 340.78125 63.18229Q341.03125 63.541664 341.03125 64.08854Q341.03125 64.61979 340.71875 65.08854Q340.42188 65.541664 339.84375 65.80729Q339.26562 66.05729 338.53125 66.05729Q337.3125 66.05729 336.67188 65.55729Q336.04688 65.041664 335.875 64.05729ZM349.96875 65.916664L348.92188 65.916664L348.92188 59.197914Q348.53125 59.55729 347.90625 59.93229Q347.29688 60.291664 346.8125 60.46354L346.8125 59.447914Q347.6875 59.02604 348.34375 58.447914Q349.01562 57.854164 349.29688 57.291664L349.96875 57.291664L349.96875 65.916664ZM356.4375 65.916664L356.4375 57.322914L360.25 57.322914Q361.40625 57.322914 362.0 57.55729Q362.59375 57.791664 362.95312 58.385414Q363.3125 58.96354 363.3125 59.666664Q363.3125 60.58854 362.71875 61.21354Q362.125 61.83854 360.89062 62.010414Q361.34375 62.229164 361.57812 62.43229Q362.07812 62.885414 362.51562 63.572914L364.01562 65.916664L362.57812 65.916664L361.45312 64.135414Q360.95312 63.354164 360.625 62.947914Q360.3125 62.541664 360.04688 62.385414Q359.79688 62.21354 359.53125 62.135414Q359.34375 62.104164 358.90625 62.104164L357.57812 62.104164L357.57812 65.916664L356.4375 65.916664ZM357.57812 61.11979L360.03125 61.11979Q360.79688 61.11979 361.23438 60.96354Q361.6875 60.791664 361.90625 60.447914Q362.14062 60.08854 362.14062 59.666664Q362.14062 59.05729 361.6875 58.666664Q361.25 58.27604 360.29688 58.27604L357.57812 58.27604L357.57812 61.11979ZM364.64062 61.61979Q364.6875 61.291664 364.92188 60.947914Q365.29688 60.447914 366.14062 59.83854Q366.98438 59.229164 367.14062 59.041664Q367.35938 58.80729 367.35938 58.55729Q367.35938 58.27604 367.14062 58.104164Q366.9375 57.916664 366.54688 57.916664Q366.15625 57.916664 365.96875 58.05729Q365.78125 58.18229 365.65625 58.572914L364.76562 58.479164Q364.9375 57.83854 365.35938 57.52604Q365.78125 57.21354 366.5625 57.21354Q367.45312 57.21354 367.85938 57.572914Q368.28125 57.916664 368.28125 58.416664Q368.28125 58.90104 367.92188 59.33854Q367.67188 59.666664 366.73438 60.33854Q366.23438 60.697914 366.03125 60.916664L368.29688 60.916664L368.29688 61.61979L364.64062 61.61979ZM377.84375 60.86979L372.17188 60.86979L372.17188 59.885414L377.84375 59.885414L377.84375 60.86979ZM377.84375 63.479164L372.17188 63.479164L372.17188 62.49479L377.84375 62.49479L377.84375 63.479164ZM382.0 61.68229Q382.0 60.15104 382.3125 59.229164Q382.625 58.291664 383.23438 57.791664Q383.85938 57.291664 384.79688 57.291664Q385.48438 57.291664 386.0 57.572914Q386.53125 57.854164 386.875 58.385414Q387.21875 58.90104 387.40625 59.65104Q387.59375 60.40104 387.59375 61.68229Q387.59375 63.197914 387.28125 64.11979Q386.98438 65.041664 386.35938 65.55729Q385.75 66.05729 384.79688 66.05729Q383.5625 66.05729 382.84375 65.166664Q382.0 64.104164 382.0 61.68229ZM383.07812 61.68229Q383.07812 63.791664 383.57812 64.49479Q384.07812 65.197914 384.79688 65.197914Q385.53125 65.197914 386.01562 64.49479Q386.51562 63.791664 386.51562 61.68229Q386.51562 59.55729 386.01562 58.86979Q385.53125 58.166664 384.78125 58.166664Q384.0625 58.166664 383.625 58.77604Q383.07812 59.55729 383.07812 61.68229ZM389.59375 65.916664L389.59375 64.71354L390.79688 64.71354L390.79688 65.916664L389.59375 65.916664ZM397.54688 64.90104L397.54688 65.916664L391.85938 65.916664Q391.85938 65.541664 391.98438 65.18229Q392.20312 64.604164 392.67188 64.041664Q393.15625 63.479164 394.0625 62.74479Q395.46875 61.58854 395.95312 60.916664Q396.45312 60.24479 396.45312 59.65104Q396.45312 59.02604 396.0 58.604164Q395.54688 58.166664 394.82812 58.166664Q394.0625 58.166664 393.60938 58.61979Q393.15625 59.072914 393.14062 59.885414L392.0625 59.77604Q392.17188 58.55729 392.89062 57.93229Q393.625 57.291664 394.85938 57.291664Q396.09375 57.291664 396.8125 57.979164Q397.53125 58.666664 397.53125 59.68229Q397.53125 60.197914 397.3125 60.697914Q397.10938 61.18229 396.60938 61.74479Q396.125 62.291664 395.0 63.24479Q394.04688 64.041664 393.76562 64.33854Q393.5 64.61979 393.32812 64.90104L397.54688 64.90104ZM402.375 65.916664L402.375 63.854164L398.65625 63.854164L398.65625 62.885414L402.57812 57.322914L403.4375 57.322914L403.4375 62.885414L404.59375 62.885414L404.59375 63.854164L403.4375 63.854164L403.4375 65.916664L402.375 65.916664ZM402.375 62.885414L402.375 59.02604L399.6875 62.885414L402.375 62.885414ZM409.96875 65.916664L408.92188 65.916664L408.92188 59.197914Q408.53125 59.55729 407.90625 59.93229Q407.29688 60.291664 406.8125 60.46354L406.8125 59.447914Q407.6875 59.02604 408.34375 58.447914Q409.01562 57.854164 409.29688 57.291664L409.96875 57.291664L409.96875 65.916664Z" fill-rule="nonzero"/><path fill="#000000" d="M24.159374 36.253124Q24.8 36.253124 25.346874 36.003124Q25.89375 35.7375 26.2375 35.26875Q26.596874 34.8 26.64375 34.20625L28.3625 34.20625Q28.315624 35.14375 27.7375 35.95625Q27.159374 36.753124 26.221874 37.253124Q25.284374 37.753124 24.159374 37.753124Q22.971874 37.753124 22.08125 37.33125Q21.190624 36.909374 20.6125 36.175Q20.034374 35.440624 19.7375 34.4875Q19.45625 33.534374 19.45625 32.471874L19.45625 32.065624Q19.45625 31.003124 19.7375 30.05Q20.034374 29.096874 20.6125 28.3625Q21.190624 27.628124 22.08125 27.20625Q22.971874 26.784374 24.159374 26.784374Q25.39375 26.784374 26.315624 27.3Q27.253124 27.8 27.784374 28.659374Q28.315624 29.51875 28.3625 30.6125L26.64375 30.6125Q26.596874 29.95625 26.26875 29.440624Q25.95625 28.909374 25.409374 28.596874Q24.878124 28.26875 24.159374 28.26875Q23.33125 28.26875 22.76875 28.596874Q22.20625 28.925 21.878124 29.4875Q21.55 30.034374 21.409374 30.70625Q21.26875 31.3625 21.26875 32.065624L21.26875 32.471874Q21.26875 33.159374 21.39375 33.846874Q21.534374 34.51875 21.8625 35.065624Q22.190624 35.6125 22.753124 35.940624Q23.315624 36.253124 24.159374 36.253124ZM29.45625 32.378124L29.45625 32.159374Q29.45625 31.01875 29.784374 30.034374Q30.1125 29.05 30.7375 28.33125Q31.3625 27.596874 32.253124 27.190624Q33.14375 26.784374 34.2375 26.784374Q35.3625 26.784374 36.253124 27.190624Q37.14375 27.596874 37.76875 28.33125Q38.409374 29.05 38.7375 30.034374Q39.065624 31.01875 39.065624 32.159374L39.065624 32.378124Q39.065624 33.51875 38.7375 34.503124Q38.409374 35.471874 37.76875 36.20625Q37.14375 36.940624 36.253124 37.346874Q35.378124 37.753124 34.26875 37.753124Q33.14375 37.753124 32.253124 37.346874Q31.378124 36.940624 30.7375 36.20625Q30.1125 35.471874 29.784374 34.503124Q29.45625 33.51875 29.45625 32.378124ZM31.253124 32.159374L31.253124 32.378124Q31.253124 33.175 31.440624 33.878124Q31.628124 34.565624 32.003124 35.1125Q32.378124 35.64375 32.940624 35.95625Q33.51875 36.253124 34.26875 36.253124Q35.003124 36.253124 35.565624 35.95625Q36.128124 35.64375 36.503124 35.1125Q36.878124 34.565624 37.065624 33.878124Q37.253124 33.175 37.253124 32.378124L37.253124 32.159374Q37.253124 31.378124 37.065624 30.690624Q36.878124 29.9875 36.4875 29.440624Q36.1125 28.89375 35.55 28.58125Q35.003124 28.26875 34.2375 28.26875Q33.503124 28.26875 32.940624 28.58125Q32.378124 28.89375 32.003124 29.440624Q31.628124 29.9875 31.440624 30.690624Q31.253124 31.378124 31.253124 32.159374ZM47.08125 34.753124Q47.08125 34.3625 46.909374 34.01875Q46.7375 33.675 46.20625 33.409374Q45.690624 33.128124 44.64375 32.925Q43.76875 32.7375 43.05 32.4875Q42.346874 32.221874 41.846874 31.8625Q41.3625 31.503124 41.096874 31.01875Q40.846874 30.534374 40.846874 29.878124Q40.846874 29.253124 41.1125 28.690624Q41.39375 28.128124 41.909374 27.70625Q42.425 27.26875 43.14375 27.034374Q43.8625 26.784374 44.753124 26.784374Q46.01875 26.784374 46.909374 27.2375Q47.815624 27.690624 48.3 28.440624Q48.784374 29.175 48.784374 30.08125L46.971874 30.08125Q46.971874 29.64375 46.70625 29.2375Q46.45625 28.815624 45.95625 28.55Q45.471874 28.26875 44.753124 28.26875Q44.003124 28.26875 43.534374 28.503124Q43.08125 28.7375 42.8625 29.096874Q42.659374 29.440624 42.659374 29.83125Q42.659374 30.1125 42.753124 30.346874Q42.8625 30.58125 43.128124 30.76875Q43.39375 30.95625 43.8625 31.128124Q44.346874 31.284374 45.08125 31.45625Q46.39375 31.753124 47.221874 32.159374Q48.065624 32.565624 48.471874 33.159374Q48.89375 33.753124 48.89375 34.6125Q48.89375 35.3 48.596874 35.878124Q48.315624 36.45625 47.76875 36.878124Q47.221874 37.284374 46.471874 37.51875Q45.7375 37.753124 44.8 37.753124Q43.409374 37.753124 42.440624 37.253124Q41.471874 36.753124 40.971874 35.95625Q40.471874 35.159374 40.471874 34.284374L42.3 34.284374Q42.33125 35.034374 42.721874 35.471874Q43.1125 35.89375 43.675 36.08125Q44.253124 36.253124 44.8 36.253124Q45.55 36.253124 46.05 36.065624Q46.55 35.8625 46.815624 35.534374Q47.08125 35.190624 47.08125 34.753124ZM55.346874 26.9875L55.346874 28.3625L49.64375 28.3625L49.64375 26.9875L55.346874 26.9875ZM51.565624 24.409374L53.378124 24.409374L53.378124 34.925Q53.378124 35.471874 53.534374 35.753124Q53.70625 36.01875 53.971874 36.1125Q54.2375 36.190624 54.534374 36.190624Q54.76875 36.190624 55.01875 36.14375Q55.26875 36.096874 55.39375 36.08125L55.39375 37.55Q55.190624 37.6125 54.83125 37.675Q54.4875 37.753124 54.003124 37.753124Q53.346874 37.753124 52.784374 37.4875Q52.221874 37.221874 51.89375 36.596874Q51.565624 35.971874 51.565624 34.925L51.565624 24.409374ZM66.14375 35.925L69.03438 26.9875L70.87813 26.9875L67.08125 37.55L65.8625 37.55L66.14375 35.925ZM63.721874 26.9875L66.70625 35.971874L66.90938 37.55L65.70625 37.55L61.878124 26.9875L63.721874 26.9875ZM79.08125 34.753124Q79.08125 34.3625 78.90938 34.01875Q78.7375 33.675 78.20625 33.409374Q77.69063 33.128124 76.64375 32.925Q75.76875 32.7375 75.05 32.4875Q74.34688 32.221874 73.84688 31.8625Q73.3625 31.503124 73.09688 31.01875Q72.84688 30.534374 72.84688 29.878124Q72.84688 29.253124 73.1125 28.690624Q73.39375 28.128124 73.90938 27.70625Q74.425 27.26875 75.14375 27.034374Q75.8625 26.784374 76.75313 26.784374Q78.01875 26.784374 78.90938 27.2375Q79.81563 27.690624 80.3 28.440624Q80.78438 29.175 80.78438 30.08125L78.97188 30.08125Q78.97188 29.64375 78.70625 29.2375Q78.45625 28.815624 77.95625 28.55Q77.47188 28.26875 76.75313 28.26875Q76.00313 28.26875 75.53438 28.503124Q75.08125 28.7375 74.8625 29.096874Q74.65938 29.440624 74.65938 29.83125Q74.65938 30.1125 74.75313 30.346874Q74.8625 30.58125 75.12813 30.76875Q75.39375 30.95625 75.8625 31.128124Q76.34688 31.284374 77.08125 31.45625Q78.39375 31.753124 79.22188 32.159374Q80.06563 32.565624 80.47188 33.159374Q80.89375 33.753124 80.89375 34.6125Q80.89375 35.3 80.59688 35.878124Q80.31563 36.45625 79.76875 36.878124Q79.22188 37.284374 78.47188 37.51875Q77.7375 37.753124 76.8 37.753124Q75.40938 37.753124 74.44063 37.253124Q73.47188 36.753124 72.97188 35.95625Q72.47188 35.159374 72.47188 34.284374L74.3 34.284374Q74.33125 35.034374 74.72188 35.471874Q75.1125 35.89375 75.675 36.08125Q76.25313 36.253124 76.8 36.253124Q77.55 36.253124 78.05 36.065624Q78.55 35.8625 78.81563 35.534374Q79.08125 35.190624 79.08125 34.753124ZM82.95625 36.596874Q82.95625 36.128124 83.2375 35.815624Q83.53438 35.503124 84.08125 35.503124Q84.62813 35.503124 84.90938 35.815624Q85.20625 36.128124 85.20625 36.596874Q85.20625 37.034374 84.90938 37.3625Q84.62813 37.675 84.08125 37.675Q83.53438 37.675 83.2375 37.3625Q82.95625 37.034374 82.95625 36.596874ZM94.7375 29.01875L94.7375 41.6125L92.925 41.6125L92.925 26.9875L94.58125 26.9875L94.7375 29.01875ZM101.84688 32.175L101.84688 32.378124Q101.84688 33.534374 101.56563 34.51875Q101.3 35.503124 100.78438 36.221874Q100.26875 36.940624 99.50313 37.346874Q98.7375 37.753124 97.75313 37.753124Q96.75313 37.753124 95.97188 37.425Q95.20625 37.08125 94.65938 36.45625Q94.12813 35.815624 93.8 34.925Q93.4875 34.034374 93.37813 32.925L93.37813 31.83125Q93.4875 30.659374 93.81563 29.7375Q94.14375 28.8 94.675 28.14375Q95.20625 27.4875 95.95625 27.14375Q96.72188 26.784374 97.72188 26.784374Q98.72188 26.784374 99.4875 27.175Q100.26875 27.565624 100.78438 28.284374Q101.31563 28.9875 101.58125 29.9875Q101.84688 30.971874 101.84688 32.175ZM100.03438 32.378124L100.03438 32.175Q100.03438 31.39375 99.8625 30.690624Q99.70625 29.9875 99.3625 29.45625Q99.01875 28.925 98.47188 28.628124Q97.94063 28.315624 97.19063 28.315624Q96.51875 28.315624 96.00313 28.55Q95.50313 28.784374 95.14375 29.175Q94.8 29.565624 94.58125 30.08125Q94.3625 30.58125 94.25313 31.1125L94.25313 33.64375Q94.45625 34.33125 94.8 34.940624Q95.15938 35.534374 95.7375 35.89375Q96.33125 36.253124 97.22188 36.253124Q97.94063 36.253124 98.47188 35.95625Q99.01875 35.64375 99.3625 35.1125Q99.70625 34.565624 99.8625 33.878124Q100.03438 33.175 100.03438 32.378124ZM105.7375 28.64375L105.7375 37.55L103.925 37.55L103.925 26.9875L105.69063 26.9875L105.7375 28.64375ZM109.03438 26.925L109.01875 28.596874Q108.8 28.55 108.59688 28.534374Q108.39375 28.51875 108.14375 28.51875Q107.51875 28.51875 107.03438 28.721874Q106.56563 28.909374 106.22188 29.26875Q105.89375 29.6125 105.70625 30.096874Q105.51875 30.58125 105.45625 31.159374L104.95625 31.45625Q104.95625 30.503124 105.14375 29.659374Q105.33125 28.815624 105.72188 28.175Q106.12813 27.51875 106.75313 27.159374Q107.37813 26.784374 108.2375 26.784374Q108.425 26.784374 108.675 26.83125Q108.94063 26.878124 109.03438 26.925ZM112.89375 26.9875L112.89375 37.55L111.08125 37.55L111.08125 26.9875L112.89375 26.9875ZM110.94063 24.175Q110.94063 23.7375 111.20625 23.440624Q111.47188 23.128124 112.00313 23.128124Q112.51875 23.128124 112.8 23.440624Q113.08125 23.7375 113.08125 24.175Q113.08125 24.596874 112.8 24.89375Q112.51875 25.190624 112.00313 25.190624Q111.47188 25.190624 111.20625 24.89375Q110.94063 24.596874 110.94063 24.175ZM120.15938 36.253124Q120.8 36.253124 121.34688 36.003124Q121.89375 35.7375 122.2375 35.26875Q122.59688 34.8 122.64375 34.20625L124.3625 34.20625Q124.31563 35.14375 123.7375 35.95625Q123.15938 36.753124 122.22188 37.253124Q121.28438 37.753124 120.15938 37.753124Q118.97188 37.753124 118.08125 37.33125Q117.19063 36.909374 116.6125 36.175Q116.03438 35.440624 115.7375 34.4875Q115.45625 33.534374 115.45625 32.471874L115.45625 32.065624Q115.45625 31.003124 115.7375 30.05Q116.03438 29.096874 116.6125 28.3625Q117.19063 27.628124 118.08125 27.20625Q118.97188 26.784374 120.15938 26.784374Q121.39375 26.784374 122.31563 27.3Q123.25313 27.8 123.78438 28.659374Q124.31563 29.51875 124.3625 30.6125L122.64375 30.6125Q122.59688 29.95625 122.26875 29.440624Q121.95625 28.909374 121.40938 28.596874Q120.87813 28.26875 120.15938 28.26875Q119.33125 28.26875 118.76875 28.596874Q118.20625 28.925 117.87813 29.4875Q117.55 30.034374 117.40938 30.70625Q117.26875 31.3625 117.26875 32.065624L117.26875 32.471874Q117.26875 33.159374 117.39375 33.846874Q117.53438 34.51875 117.8625 35.065624Q118.19063 35.6125 118.75313 35.940624Q119.31563 36.253124 120.15938 36.253124ZM130.31563 37.753124Q129.20625 37.753124 128.31563 37.378124Q127.425 36.9875 126.78438 36.315624Q126.14375 35.628124 125.8 34.690624Q125.45625 33.753124 125.45625 32.64375L125.45625 32.221874Q125.45625 30.940624 125.83125 29.925Q126.22188 28.909374 126.87813 28.20625Q127.53438 27.503124 128.3625 27.14375Q129.19063 26.784374 130.08125 26.784374Q131.20625 26.784374 132.03438 27.175Q132.8625 27.565624 133.37813 28.26875Q133.90938 28.971874 134.15938 29.909374Q134.425 30.846874 134.425 31.95625L134.425 32.76875L126.53438 32.76875L126.53438 31.3L132.6125 31.3L132.6125 31.159374Q132.58125 30.45625 132.33125 29.8Q132.08125 29.128124 131.53438 28.70625Q131.00313 28.26875 130.08125 28.26875Q129.45625 28.26875 128.94063 28.534374Q128.425 28.784374 128.05 29.3Q127.69063 29.8 127.47188 30.534374Q127.26875 31.26875 127.26875 32.221874L127.26875 32.64375Q127.26875 33.39375 127.47188 34.05Q127.69063 34.70625 128.09688 35.20625Q128.50313 35.70625 129.08125 35.9875Q129.675 36.26875 130.40938 36.26875Q131.3625 36.26875 132.01875 35.878124Q132.69063 35.4875 133.19063 34.83125L134.28438 35.70625Q133.94063 36.221874 133.40938 36.690624Q132.89375 37.159374 132.12813 37.45625Q131.3625 37.753124 130.31563 37.753124ZM146.31563 37.753124Q145.20625 37.753124 144.31563 37.378124Q143.425 36.9875 142.78438 36.315624Q142.14375 35.628124 141.8 34.690624Q141.45625 33.753124 141.45625 32.64375L141.45625 32.221874Q141.45625 30.940624 141.83125 29.925Q142.22188 28.909374 142.87813 28.20625Q143.53438 27.503124 144.3625 27.14375Q145.19063 26.784374 146.08125 26.784374Q147.20625 26.784374 148.03438 27.175Q148.8625 27.565624 149.37813 28.26875Q149.90938 28.971874 150.15938 29.909374Q150.425 30.846874 150.425 31.95625L150.425 32.76875L142.53438 32.76875L142.53438 31.3L148.6125 31.3L148.6125 31.159374Q148.58125 30.45625 148.33125 29.8Q148.08125 29.128124 147.53438 28.70625Q147.00313 28.26875 146.08125 28.26875Q145.45625 28.26875 144.94063 28.534374Q144.425 28.784374 144.05 29.3Q143.69063 29.8 143.47188 30.534374Q143.26875 31.26875 143.26875 32.221874L143.26875 32.64375Q143.26875 33.39375 143.47188 34.05Q143.69063 34.70625 144.09688 35.20625Q144.50313 35.70625 145.08125 35.9875Q145.675 36.26875 146.40938 36.26875Q147.3625 36.26875 148.01875 35.878124Q148.69063 35.4875 149.19063 34.83125L150.28438 35.70625Q149.94063 36.221874 149.40938 36.690624Q148.89375 37.159374 148.12813 37.45625Q147.3625 37.753124 146.31563 37.753124ZM155.62813 37.55L153.81563 37.55L153.81563 25.8625Q153.81563 24.721874 154.22188 23.940624Q154.64375 23.159374 155.425 22.753124Q156.20625 22.346874 157.28438 22.346874Q157.59688 22.346874 157.90938 22.39375Q158.2375 22.425 158.53438 22.503124L158.44063 23.971874Q158.2375 23.925 157.97188 23.909374Q157.70625 23.89375 157.45625 23.89375Q156.87813 23.89375 156.45625 24.128124Q156.05 24.346874 155.83125 24.784374Q155.62813 25.221874 155.62813 25.8625L155.62813 37.55ZM157.8625 26.9875L157.8625 28.3625L152.14375 28.3625L152.14375 26.9875L157.8625 26.9875ZM162.62813 37.55L160.81563 37.55L160.81563 25.8625Q160.81563 24.721874 161.22188 23.940624Q161.64375 23.159374 162.425 22.753124Q163.20625 22.346874 164.28438 22.346874Q164.59688 22.346874 164.90938 22.39375Q165.2375 22.425 165.53438 22.503124L165.44063 23.971874Q165.2375 23.925 164.97188 23.909374Q164.70625 23.89375 164.45625 23.89375Q163.87813 23.89375 163.45625 24.128124Q163.05 24.346874 162.83125 24.784374Q162.62813 25.221874 162.62813 25.8625L162.62813 37.55ZM164.8625 26.9875L164.8625 28.3625L159.14375 28.3625L159.14375 26.9875L164.8625 26.9875ZM168.89375 26.9875L168.89375 37.55L167.08125 37.55L167.08125 26.9875L168.89375 26.9875ZM166.94063 24.175Q166.94063 23.7375 167.20625 23.440624Q167.47188 23.128124 168.00313 23.128124Q168.51875 23.128124 168.8 23.440624Q169.08125 23.7375 169.08125 24.175Q169.08125 24.596874 168.8 24.89375Q168.51875 25.190624 168.00313 25.190624Q167.47188 25.190624 167.20625 24.89375Q166.94063 24.596874 166.94063 24.175ZM176.15938 36.253124Q176.8 36.253124 177.34688 36.003124Q177.89375 35.7375 178.2375 35.26875Q178.59688 34.8 178.64375 34.20625L180.3625 34.20625Q180.31563 35.14375 179.7375 35.95625Q179.15938 36.753124 178.22188 37.253124Q177.28438 37.753124 176.15938 37.753124Q174.97188 37.753124 174.08125 37.33125Q173.19063 36.909374 172.6125 36.175Q172.03438 35.440624 171.7375 34.4875Q171.45625 33.534374 171.45625 32.471874L171.45625 32.065624Q171.45625 31.003124 171.7375 30.05Q172.03438 29.096874 172.6125 28.3625Q173.19063 27.628124 174.08125 27.20625Q174.97188 26.784374 176.15938 26.784374Q177.39375 26.784374 178.31563 27.3Q179.25313 27.8 179.78438 28.659374Q180.31563 29.51875 180.3625 30.6125L178.64375 30.6125Q178.59688 29.95625 178.26875 29.440624Q177.95625 28.909374 177.40938 28.596874Q176.87813 28.26875 176.15938 28.26875Q175.33125 28.26875 174.76875 28.596874Q174.20625 28.925 173.87813 29.4875Q173.55 30.034374 173.40938 30.70625Q173.26875 31.3625 173.26875 32.065624L173.26875 32.471874Q173.26875 33.159374 173.39375 33.846874Q173.53438 34.51875 173.8625 35.065624Q174.19063 35.6125 174.75313 35.940624Q175.31563 36.253124 176.15938 36.253124ZM183.89375 26.9875L183.89375 37.55L182.08125 37.55L182.08125 26.9875L183.89375 26.9875ZM181.94063 24.175Q181.94063 23.7375 182.20625 23.440624Q182.47188 23.128124 183.00313 23.128124Q183.51875 23.128124 183.8 23.440624Q184.08125 23.7375 184.08125 24.175Q184.08125 24.596874 183.8 24.89375Q183.51875 25.190624 183.00313 25.190624Q182.47188 25.190624 182.20625 24.89375Q181.94063 24.596874 181.94063 24.175ZM191.31563 37.753124Q190.20625 37.753124 189.31563 37.378124Q188.425 36.9875 187.78438 36.315624Q187.14375 35.628124 186.8 34.690624Q186.45625 33.753124 186.45625 32.64375L186.45625 32.221874Q186.45625 30.940624 186.83125 29.925Q187.22188 28.909374 187.87813 28.20625Q188.53438 27.503124 189.3625 27.14375Q190.19063 26.784374 191.08125 26.784374Q192.20625 26.784374 193.03438 27.175Q193.8625 27.565624 194.37813 28.26875Q194.90938 28.971874 195.15938 29.909374Q195.425 30.846874 195.425 31.95625L195.425 32.76875L187.53438 32.76875L187.53438 31.3L193.6125 31.3L193.6125 31.159374Q193.58125 30.45625 193.33125 29.8Q193.08125 29.128124 192.53438 28.70625Q192.00313 28.26875 191.08125 28.26875Q190.45625 28.26875 189.94063 28.534374Q189.425 28.784374 189.05 29.3Q188.69063 29.8 188.47188 30.534374Q188.26875 31.26875 188.26875 32.221874L188.26875 32.64375Q188.26875 33.39375 188.47188 34.05Q188.69063 34.70625 189.09688 35.20625Q189.50313 35.70625 190.08125 35.9875Q190.675 36.26875 191.40938 36.26875Q192.3625 36.26875 193.01875 35.878124Q193.69063 35.4875 194.19063 34.83125L195.28438 35.70625Q194.94063 36.221874 194.40938 36.690624Q193.89375 37.159374 193.12813 37.45625Q192.3625 37.753124 191.31563 37.753124ZM199.7375 29.2375L199.7375 37.55L197.925 37.55L197.925 26.9875L199.64375 26.9875L199.7375 29.2375ZM199.3 31.8625L198.55 31.83125Q198.56563 30.753124 198.87813 29.83125Q199.19063 28.909374 199.75313 28.221874Q200.31563 27.534374 201.09688 27.159374Q201.89375 26.784374 202.84688 26.784374Q203.62813 26.784374 204.25313 27.003124Q204.87813 27.20625 205.31563 27.675Q205.76875 28.128124 206.00313 28.8625Q206.2375 29.58125 206.2375 30.628124L206.2375 37.55L204.425 37.55L204.425 30.6125Q204.425 29.76875 204.175 29.26875Q203.94063 28.76875 203.47188 28.55Q203.00313 28.315624 202.31563 28.315624Q201.64375 28.315624 201.08125 28.596874Q200.53438 28.878124 200.12813 29.378124Q199.7375 29.878124 199.51875 30.51875Q199.3 31.159374 199.3 31.8625ZM213.15938 36.253124Q213.8 36.253124 214.34688 36.003124Q214.89375 35.7375 215.2375 35.26875Q215.59688 34.8 215.64375 34.20625L217.3625 34.20625Q217.31563 35.14375 216.7375 35.95625Q216.15938 36.753124 215.22188 37.253124Q214.28438 37.753124 213.15938 37.753124Q211.97188 37.753124 211.08125 37.33125Q210.19063 36.909374 209.6125 36.175Q209.03438 35.440624 208.7375 34.4875Q208.45625 33.534374 208.45625 32.471874L208.45625 32.065624Q208.45625 31.003124 208.7375 30.05Q209.03438 29.096874 209.6125 28.3625Q210.19063 27.628124 211.08125 27.20625Q211.97188 26.784374 213.15938 26.784374Q214.39375 26.784374 215.31563 27.3Q216.25313 27.8 216.78438 28.659374Q217.31563 29.51875 217.3625 30.6125L215.64375 30.6125Q215.59688 29.95625 215.26875 29.440624Q214.95625 28.909374 214.40938 28.596874Q213.87813 28.26875 213.15938 28.26875Q212.33125 28.26875 211.76875 28.596874Q211.20625 28.925 210.87813 29.4875Q210.55 30.034374 210.40938 30.70625Q210.26875 31.3625 210.26875 32.065624L210.26875 32.471874Q210.26875 33.159374 210.39375 33.846874Q210.53438 34.51875 210.8625 35.065624Q211.19063 35.6125 211.75313 35.940624Q212.31563 36.253124 213.15938 36.253124ZM221.89375 36.45625L224.83125 26.9875L226.76875 26.9875L222.53438 39.175Q222.37813 39.565624 222.14375 40.01875Q221.90938 40.4875 221.53438 40.89375Q221.15938 41.3 220.62813 41.55Q220.1125 41.815624 219.39375 41.815624Q219.175 41.815624 218.84688 41.753124Q218.51875 41.70625 218.37813 41.659374L218.37813 40.190624Q218.45625 40.20625 218.6125 40.221874Q218.78438 40.2375 218.8625 40.2375Q219.47188 40.2375 219.89375 40.065624Q220.33125 39.909374 220.62813 39.534374Q220.925 39.159374 221.14375 38.503124L221.89375 36.45625ZM219.7375 26.9875L222.4875 35.190624L222.95625 37.096874L221.65938 37.753124L217.76875 26.9875L219.7375 26.9875ZM232.8625 31.8625L232.8625 31.76875Q232.8625 29.64375 233.33125 27.925Q233.81563 26.190624 234.55 24.89375Q235.3 23.596874 236.1125 22.7375Q236.94063 21.878124 237.62813 21.503124L238.01875 22.690624Q237.44063 23.128124 236.84688 23.909374Q236.25313 24.675 235.75313 25.8Q235.26875 26.925 234.95625 28.409374Q234.65938 29.89375 234.65938 31.753124L234.65938 31.878124Q234.65938 33.7375 234.95625 35.2375Q235.26875 36.721874 235.75313 37.846874Q236.25313 38.9875 236.84688 39.784374Q237.44063 40.58125 238.01875 41.05L237.62813 42.14375Q236.94063 41.753124 236.1125 40.89375Q235.3 40.05 234.55 38.753124Q233.81563 37.45625 233.33125 35.7375Q232.8625 34.003124 232.8625 31.8625ZM244.15938 36.253124Q244.8 36.253124 245.34688 36.003124Q245.89375 35.7375 246.2375 35.26875Q246.59688 34.8 246.64375 34.20625L248.3625 34.20625Q248.31563 35.14375 247.7375 35.95625Q247.15938 36.753124 246.22188 37.253124Q245.28438 37.753124 244.15938 37.753124Q242.97188 37.753124 242.08125 37.33125Q241.19063 36.909374 240.6125 36.175Q240.03438 35.440624 239.7375 34.4875Q239.45625 33.534374 239.45625 32.471874L239.45625 32.065624Q239.45625 31.003124 239.7375 30.05Q240.03438 29.096874 240.6125 28.3625Q241.19063 27.628124 242.08125 27.20625Q242.97188 26.784374 244.15938 26.784374Q245.39375 26.784374 246.31563 27.3Q247.25313 27.8 247.78438 28.659374Q248.31563 29.51875 248.3625 30.6125L246.64375 30.6125Q246.59688 29.95625 246.26875 29.440624Q245.95625 28.909374 245.40938 28.596874Q244.87813 28.26875 244.15938 28.26875Q243.33125 28.26875 242.76875 28.596874Q242.20625 28.925 241.87813 29.4875Q241.55 30.034374 241.40938 30.70625Q241.26875 31.3625 241.26875 32.065624L241.26875 32.471874Q241.26875 33.159374 241.39375 33.846874Q241.53438 34.51875 241.8625 35.065624Q242.19063 35.6125 242.75313 35.940624Q243.31563 36.253124 244.15938 36.253124ZM249.45625 32.378124L249.45625 32.159374Q249.45625 31.01875 249.78438 30.034374Q250.1125 29.05 250.7375 28.33125Q251.3625 27.596874 252.25313 27.190624Q253.14375 26.784374 254.2375 26.784374Q255.3625 26.784374 256.2531 27.190624Q257.14374 27.596874 257.76874 28.33125Q258.40936 29.05 258.7375 30.034374Q259.0656 31.01875 259.0656 32.159374L259.0656 32.378124Q259.0656 33.51875 258.7375 34.503124Q258.40936 35.471874 257.76874 36.20625Q257.14374 36.940624 256.2531 37.346874Q255.37813 37.753124 254.26875 37.753124Q253.14375 37.753124 252.25313 37.346874Q251.37813 36.940624 250.7375 36.20625Q250.1125 35.471874 249.78438 34.503124Q249.45625 33.51875 249.45625 32.378124ZM251.25313 32.159374L251.25313 32.378124Q251.25313 33.175 251.44063 33.878124Q251.62813 34.565624 252.00313 35.1125Q252.37813 35.64375 252.94063 35.95625Q253.51875 36.253124 254.26875 36.253124Q255.00313 36.253124 255.56563 35.95625Q256.1281 35.64375 256.5031 35.1125Q256.8781 34.565624 257.0656 33.878124Q257.2531 33.175 257.2531 32.378124L257.2531 32.159374Q257.2531 31.378124 257.0656 30.690624Q256.8781 29.9875 256.4875 29.440624Q256.1125 28.89375 255.55 28.58125Q255.00313 28.26875 254.2375 28.26875Q253.50313 28.26875 252.94063 28.58125Q252.37813 28.89375 252.00313 29.440624Q251.62813 29.9875 251.44063 30.690624Q251.25313 31.378124 251.25313 32.159374ZM267.08124 34.753124Q267.08124 34.3625 266.90936 34.01875Q266.7375 33.675 266.20624 33.409374Q265.6906 33.128124 264.64374 32.925Q263.76874 32.7375 263.05 32.4875Q262.34686 32.221874 261.84686 31.8625Q261.3625 31.503124 261.09686 31.01875Q260.84686 30.534374 260.84686 29.878124Q260.84686 29.253124 261.1125 28.690624Q261.39374 28.128124 261.90936 27.70625Q262.425 27.26875 263.14374 27.034374Q263.8625 26.784374 264.7531 26.784374Q266.01874 26.784374 266.90936 27.2375Q267.8156 27.690624 268.3 28.440624Q268.78436 29.175 268.78436 30.08125L266.97186 30.08125Q266.97186 29.64375 266.70624 29.2375Q266.45624 28.815624 265.95624 28.55Q265.47186 28.26875 264.7531 28.26875Q264.0031 28.26875 263.53436 28.503124Q263.08124 28.7375 262.8625 29.096874Q262.65936 29.440624 262.65936 29.83125Q262.65936 30.1125 262.7531 30.346874Q262.8625 30.58125 263.1281 30.76875Q263.39374 30.95625 263.8625 31.128124Q264.34686 31.284374 265.08124 31.45625Q266.39374 31.753124 267.22186 32.159374Q268.0656 32.565624 268.47186 33.159374Q268.89374 33.753124 268.89374 34.6125Q268.89374 35.3 268.59686 35.878124Q268.3156 36.45625 267.76874 36.878124Q267.22186 37.284374 266.47186 37.51875Q265.7375 37.753124 264.8 37.753124Q263.40936 37.753124 262.4406 37.253124Q261.47186 36.753124 260.97186 35.95625Q260.47186 35.159374 260.47186 34.284374L262.3 34.284374Q262.33124 35.034374 262.72186 35.471874Q263.1125 35.89375 263.675 36.08125Q264.2531 36.253124 264.8 36.253124Q265.55 36.253124 266.05 36.065624Q266.55 35.8625 266.8156 35.534374Q267.08124 35.190624 267.08124 34.753124ZM275.34686 26.9875L275.34686 28.3625L269.64374 28.3625L269.64374 26.9875L275.34686 26.9875ZM271.5656 24.409374L273.3781 24.409374L273.3781 34.925Q273.3781 35.471874 273.53436 35.753124Q273.70624 36.01875 273.97186 36.1125Q274.2375 36.190624 274.53436 36.190624Q274.76874 36.190624 275.01874 36.14375Q275.26874 36.096874 275.39374 36.08125L275.39374 37.55Q275.1906 37.6125 274.83124 37.675Q274.4875 37.753124 274.0031 37.753124Q273.34686 37.753124 272.78436 37.4875Q272.22186 37.221874 271.89374 36.596874Q271.5656 35.971874 271.5656 34.925L271.5656 24.409374ZM281.6906 30.76875L281.6906 32.253124L276.925 32.253124L276.925 30.76875L281.6906 30.76875ZM285.7375 28.64375L285.7375 37.55L283.925 37.55L283.925 26.9875L285.6906 26.9875L285.7375 28.64375ZM289.03436 26.925L289.01874 28.596874Q288.8 28.55 288.59686 28.534374Q288.39374 28.51875 288.14374 28.51875Q287.51874 28.51875 287.03436 28.721874Q286.5656 28.909374 286.22186 29.26875Q285.89374 29.6125 285.70624 30.096874Q285.51874 30.58125 285.45624 31.159374L284.95624 31.45625Q284.95624 30.503124 285.14374 29.659374Q285.33124 28.815624 285.72186 28.175Q286.1281 27.51875 286.7531 27.159374Q287.3781 26.784374 288.2375 26.784374Q288.425 26.784374 288.675 26.83125Q288.9406 26.878124 289.03436 26.925ZM297.15936 35.7375L297.15936 30.3Q297.15936 29.675 296.90936 29.221874Q296.65936 28.753124 296.15936 28.503124Q295.65936 28.2375 294.925 28.2375Q294.2531 28.2375 293.7375 28.471874Q293.22186 28.70625 292.925 29.096874Q292.64374 29.471874 292.64374 29.909374L290.84686 29.909374Q290.84686 29.346874 291.1281 28.8Q291.425 28.2375 291.97186 27.784374Q292.53436 27.33125 293.3 27.065624Q294.08124 26.784374 295.03436 26.784374Q296.1906 26.784374 297.0656 27.175Q297.95624 27.565624 298.45624 28.3625Q298.97186 29.14375 298.97186 30.315624L298.97186 35.2375Q298.97186 35.76875 299.05 36.3625Q299.14374 36.95625 299.33124 37.39375L299.33124 37.55L297.45624 37.55Q297.3156 37.2375 297.2375 36.721874Q297.15936 36.190624 297.15936 35.7375ZM297.47186 31.14375L297.4875 32.409374L295.65936 32.409374Q294.89374 32.409374 294.28436 32.534374Q293.675 32.659374 293.26874 32.909374Q292.8625 33.14375 292.64374 33.51875Q292.425 33.878124 292.425 34.3625Q292.425 34.8625 292.64374 35.284374Q292.8781 35.690624 293.33124 35.925Q293.78436 36.159374 294.45624 36.159374Q295.28436 36.159374 295.90936 35.815624Q296.55 35.45625 296.925 34.95625Q297.3 34.440624 297.33124 33.971874L298.1125 34.83125Q298.03436 35.2375 297.72186 35.7375Q297.425 36.2375 296.925 36.690624Q296.425 37.14375 295.7375 37.45625Q295.05 37.753124 294.1906 37.753124Q293.1125 37.753124 292.3 37.33125Q291.5031 36.909374 291.05 36.20625Q290.6125 35.4875 290.6125 34.6125Q290.6125 33.753124 290.9406 33.1125Q291.28436 32.45625 291.90936 32.034374Q292.53436 31.596874 293.40936 31.378124Q294.28436 31.14375 295.3781 31.14375L297.47186 31.14375ZM303.7375 29.2375L303.7375 37.55L301.925 37.55L301.925 26.9875L303.64374 26.9875L303.7375 29.2375ZM303.3 31.8625L302.55 31.83125Q302.5656 30.753124 302.8781 29.83125Q303.1906 28.909374 303.7531 28.221874Q304.3156 27.534374 305.09686 27.159374Q305.89374 26.784374 306.84686 26.784374Q307.6281 26.784374 308.2531 27.003124Q308.8781 27.20625 309.3156 27.675Q309.76874 28.128124 310.0031 28.8625Q310.2375 29.58125 310.2375 30.628124L310.2375 37.55L308.425 37.55L308.425 30.6125Q308.425 29.76875 308.175 29.26875Q307.9406 28.76875 307.47186 28.55Q307.0031 28.315624 306.3156 28.315624Q305.64374 28.315624 305.08124 28.596874Q304.53436 28.878124 304.1281 29.378124Q303.7375 29.878124 303.51874 30.51875Q303.3 31.159374 303.3 31.8625ZM314.7375 22.55L314.7375 37.55L312.925 37.55L312.925 22.55L314.7375 22.55ZM321.20624 26.9875L316.59686 31.909374L314.01874 34.596874L313.8625 32.659374L315.70624 30.45625L318.9875 26.9875L321.20624 26.9875ZM319.55 37.55L315.78436 32.503124L316.72186 30.89375L321.675 37.55L319.55 37.55ZM334.08124 34.753124Q334.08124 34.3625 333.90936 34.01875Q333.7375 33.675 333.20624 33.409374Q332.6906 33.128124 331.64374 32.925Q330.76874 32.7375 330.05 32.4875Q329.34686 32.221874 328.84686 31.8625Q328.3625 31.503124 328.09686 31.01875Q327.84686 30.534374 327.84686 29.878124Q327.84686 29.253124 328.1125 28.690624Q328.39374 28.128124 328.90936 27.70625Q329.425 27.26875 330.14374 27.034374Q330.8625 26.784374 331.7531 26.784374Q333.01874 26.784374 333.90936 27.2375Q334.8156 27.690624 335.3 28.440624Q335.78436 29.175 335.78436 30.08125L333.97186 30.08125Q333.97186 29.64375 333.70624 29.2375Q333.45624 28.815624 332.95624 28.55Q332.47186 28.26875 331.7531 28.26875Q331.0031 28.26875 330.53436 28.503124Q330.08124 28.7375 329.8625 29.096874Q329.65936 29.440624 329.65936 29.83125Q329.65936 30.1125 329.7531 30.346874Q329.8625 30.58125 330.1281 30.76875Q330.39374 30.95625 330.8625 31.128124Q331.34686 31.284374 332.08124 31.45625Q333.39374 31.753124 334.22186 32.159374Q335.0656 32.565624 335.47186 33.159374Q335.89374 33.753124 335.89374 34.6125Q335.89374 35.3 335.59686 35.878124Q335.3156 36.45625 334.76874 36.878124Q334.22186 37.284374 333.47186 37.51875Q332.7375 37.753124 331.8 37.753124Q330.40936 37.753124 329.4406 37.253124Q328.47186 36.753124 327.97186 35.95625Q327.47186 35.159374 327.47186 34.284374L329.3 34.284374Q329.33124 35.034374 329.72186 35.471874Q330.1125 35.89375 330.675 36.08125Q331.2531 36.253124 331.8 36.253124Q332.55 36.253124 333.05 36.065624Q333.55 35.8625 333.8156 35.534374Q334.08124 35.190624 334.08124 34.753124ZM342.15936 36.253124Q342.8 36.253124 343.34686 36.003124Q343.89374 35.7375 344.2375 35.26875Q344.59686 34.8 344.64374 34.20625L346.3625 34.20625Q346.3156 35.14375 345.7375 35.95625Q345.15936 36.753124 344.22186 37.253124Q343.28436 37.753124 342.15936 37.753124Q340.97186 37.753124 340.08124 37.33125Q339.1906 36.909374 338.6125 36.175Q338.03436 35.440624 337.7375 34.4875Q337.45624 33.534374 337.45624 32.471874L337.45624 32.065624Q337.45624 31.003124 337.7375 30.05Q338.03436 29.096874 338.6125 28.3625Q339.1906 27.628124 340.08124 27.20625Q340.97186 26.784374 342.15936 26.784374Q343.39374 26.784374 344.3156 27.3Q345.2531 27.8 345.78436 28.659374Q346.3156 29.51875 346.3625 30.6125L344.64374 30.6125Q344.59686 29.95625 344.26874 29.440624Q343.95624 28.909374 343.40936 28.596874Q342.8781 28.26875 342.15936 28.26875Q341.33124 28.26875 340.76874 28.596874Q340.20624 28.925 339.8781 29.4875Q339.55 30.034374 339.40936 30.70625Q339.26874 31.3625 339.26874 32.065624L339.26874 32.471874Q339.26874 33.159374 339.39374 33.846874Q339.53436 34.51875 339.8625 35.065624Q340.1906 35.6125 340.7531 35.940624Q341.3156 36.253124 342.15936 36.253124ZM347.45624 32.378124L347.45624 32.159374Q347.45624 31.01875 347.78436 30.034374Q348.1125 29.05 348.7375 28.33125Q349.3625 27.596874 350.2531 27.190624Q351.14374 26.784374 352.2375 26.784374Q353.3625 26.784374 354.2531 27.190624Q355.14374 27.596874 355.76874 28.33125Q356.40936 29.05 356.7375 30.034374Q357.0656 31.01875 357.0656 32.159374L357.0656 32.378124Q357.0656 33.51875 356.7375 34.503124Q356.40936 35.471874 355.76874 36.20625Q355.14374 36.940624 354.2531 37.346874Q353.3781 37.753124 352.26874 37.753124Q351.14374 37.753124 350.2531 37.346874Q349.3781 36.940624 348.7375 36.20625Q348.1125 35.471874 347.78436 34.503124Q347.45624 33.51875 347.45624 32.378124ZM349.2531 32.159374L349.2531 32.378124Q349.2531 33.175 349.4406 33.878124Q349.6281 34.565624 350.0031 35.1125Q350.3781 35.64375 350.9406 35.95625Q351.51874 36.253124 352.26874 36.253124Q353.0031 36.253124 353.5656 35.95625Q354.1281 35.64375 354.5031 35.1125Q354.8781 34.565624 355.0656 33.878124Q355.2531 33.175 355.2531 32.378124L355.2531 32.159374Q355.2531 31.378124 355.0656 30.690624Q354.8781 29.9875 354.4875 29.440624Q354.1125 28.89375 353.55 28.58125Q353.0031 28.26875 352.2375 28.26875Q351.5031 28.26875 350.9406 28.58125Q350.3781 28.89375 350.0031 29.440624Q349.6281 29.9875 349.4406 30.690624Q349.2531 31.378124 349.2531 32.159374ZM360.7375 28.64375L360.7375 37.55L358.925 37.55L358.925 26.9875L360.6906 26.9875L360.7375 28.64375ZM364.03436 26.925L364.01874 28.596874Q363.8 28.55 363.59686 28.534374Q363.39374 28.51875 363.14374 28.51875Q362.51874 28.51875 362.03436 28.721874Q361.5656 28.909374 361.22186 29.26875Q360.89374 29.6125 360.70624 30.096874Q360.51874 30.58125 360.45624 31.159374L359.95624 31.45625Q359.95624 30.503124 360.14374 29.659374Q360.33124 28.815624 360.72186 28.175Q361.1281 27.51875 361.7531 27.159374Q362.3781 26.784374 363.2375 26.784374Q363.425 26.784374 363.675 26.83125Q363.9406 26.878124 364.03436 26.925ZM370.3156 37.753124Q369.20624 37.753124 368.3156 37.378124Q367.425 36.9875 366.78436 36.315624Q366.14374 35.628124 365.8 34.690624Q365.45624 33.753124 365.45624 32.64375L365.45624 32.221874Q365.45624 30.940624 365.83124 29.925Q366.22186 28.909374 366.8781 28.20625Q367.53436 27.503124 368.3625 27.14375Q369.1906 26.784374 370.08124 26.784374Q371.20624 26.784374 372.03436 27.175Q372.8625 27.565624 373.3781 28.26875Q373.90936 28.971874 374.15936 29.909374Q374.425 30.846874 374.425 31.95625L374.425 32.76875L366.53436 32.76875L366.53436 31.3L372.6125 31.3L372.6125 31.159374Q372.58124 30.45625 372.33124 29.8Q372.08124 29.128124 371.53436 28.70625Q371.0031 28.26875 370.08124 28.26875Q369.45624 28.26875 368.9406 28.534374Q368.425 28.784374 368.05 29.3Q367.6906 29.8 367.47186 30.534374Q367.26874 31.26875 367.26874 32.221874L367.26874 32.64375Q367.26874 33.39375 367.47186 34.05Q367.6906 34.70625 368.09686 35.20625Q368.5031 35.70625 369.08124 35.9875Q369.675 36.26875 370.40936 36.26875Q371.3625 36.26875 372.01874 35.878124Q372.6906 35.4875 373.1906 34.83125L374.28436 35.70625Q373.9406 36.221874 373.40936 36.690624Q372.89374 37.159374 372.1281 37.45625Q371.3625 37.753124 370.3156 37.753124ZM381.08124 31.76875L381.08124 31.8625Q381.08124 34.003124 380.59686 35.7375Q380.1281 37.45625 379.3781 38.753124Q378.64374 40.05 377.8156 40.89375Q377.0031 41.753124 376.3156 42.14375L375.925 41.05Q376.5031 40.6125 377.08124 39.815624Q377.675 39.034374 378.175 37.878124Q378.675 36.7375 378.97186 35.2375Q379.28436 33.7375 379.28436 31.878124L379.28436 31.753124Q379.28436 29.89375 378.95624 28.39375Q378.64374 26.89375 378.1281 25.753124Q377.6125 24.6125 377.03436 23.83125Q376.45624 23.034374 375.925 22.6125L376.3156 21.503124Q377.0031 21.878124 377.8156 22.7375Q378.64374 23.596874 379.3781 24.89375Q380.1281 26.190624 380.59686 27.925Q381.08124 29.64375 381.08124 31.76875Z" fill-rule="nonzero"/></svg>