<svg version="1.1" viewBox="0.0 0.0 600.0 371.0" fill="none" stroke="none" stroke-linecap="square" stroke-miterlimit="10" width="600" height="371" xmlns:xlink="http://www.w3.org/1999/xlink" xmlns="http://www.w3.org/2000/svg"><path fill="#ffffff" d="M0 0L600.0 0L600.0 371.0L0 371.0L0 0Z" fill-rule="nonzero"/><path stroke="#000000" stroke-width="1.0" stroke-linecap="butt" stroke-opacity="0.0" d="M551.5 88.5L551.5 326.5" fill-rule="nonzero"/><path stroke="#000000" stroke-width="1.0" stroke-linecap="butt" stroke-opacity="0.0" d="M521.5 88.5L521.5 326.5" fill-rule="nonzero"/><path stroke="#000000" stroke-width="1.0" stroke-linecap="butt" stroke-opacity="0.0" d="M462.5 88.5L462.5 326.5" fill-rule="nonzero"/><path stroke="#000000" stroke-width="1.0" stroke-linecap="butt" stroke-opacity="0.0" d="M432.5 88.5L432.5 326.5" fill-rule="nonzero"/><path stroke="#000000" stroke-width="1.0" stroke-linecap="butt" stroke-opacity="0.0" d="M373.5 88.5L373.5 326.5" fill-rule="nonzero"/><path stroke="#000000" stroke-width="1.0" stroke-linecap="butt" stroke-opacity="0.0" d="M343.5 88.5L343.5 326.5" fill-rule="nonzero"/><path stroke="#000000" stroke-width="1.0" stroke-linecap="butt" stroke-opacity="0.0" d="M283.5 88.5L283.5 326.5" fill-rule="nonzero"/><path stroke="#000000" stroke-width="1.0" stroke-linecap="butt" stroke-opacity="0.0" d="M253.5 88.5L253.5 326.5" fill-rule="nonzero"/><path stroke="#000000" stroke-width="1.0" stroke-linecap="butt" stroke-opacity="0.0" d="M194.5 88.5L194.5 326.5" fill-rule="nonzero"/><path stroke="#000000" stroke-width="1.0" stroke-linecap="butt" stroke-opacity="0.0" d="M164.5 88.5L164.5 326.5" fill-rule="nonzero"/><path stroke="#000000" stroke-width="1.0" stroke-linecap="butt" stroke-opacity="0.0" d="M105.5 88.5L105.5 326.5" fill-rule="nonzero"/><path stroke="#000000" stroke-width="1.0" stroke-linecap="butt" stroke-opacity="0.0" d="M75.5 88.5L75.5 326.5" fill-rule="nonzero"/><path stroke="#cccccc" stroke-width="1.0" stroke-linecap="butt" d="M45.5 326.5L581.5 326.5" fill-rule="nonzero"/><path stroke="#cccccc" stroke-width="1.0" stroke-linecap="butt" d="M45.5 278.5L581.5 278.5" fill-rule="nonzero"/><path stroke="#333333" stroke-width="1.0" stroke-linecap="butt" d="M45.5 231.5L581.5 231.5" fill-rule="nonzero"/><path stroke="#cccccc" stroke-width="1.0" stroke-linecap="butt" d="M45.5 183.5L581.5 183.5" fill-rule="nonzero"/><path stroke="#cccccc" stroke-width="1.0" stroke-linecap="butt" d="M45.5 135.5L581.5 135.5" fill-rule="nonzero"/><path stroke="#cccccc" stroke-width="1.0" stroke-linecap="butt" d="M45.5 88.5L581.5 88.5" fill-rule="nonzero"/><path stroke="#000000" stroke-width="1.0" stroke-linecap="butt" d="M581.5 326.5L45.5 326.5" fill-rule="nonzero"/><clipPath id="id_0"><path d="M45.55 88.28333L581.45 88.28333L581.45 326.45L45.55 326.45L45.55 88.28333Z" clip-rule="nonzero"/></clipPath><path stroke="#4285f4" stroke-width="2.0" stroke-linecap="butt" stroke-opacity="0.4" clip-path="url(#id_0)" d="M0 243.1783C0 243.1783 2.6666667 244.10376 4.0 244.55435C5.3333335 245.00494 6.6666665 245.44745 8.0 245.88188C9.333333 246.3163 10.666667 246.74263 12.0 247.16089C13.333333 247.57913 14.666667 247.9893 16.0 248.39139C17.333334 248.79346 18.666666 249.18745 20.0 249.57336C21.333334 249.95927 22.666666 250.3371 24.0 250.70683C25.333334 251.07657 26.666666 251.43822 28.0 251.79178C29.333334 252.14534 30.666666 252.49081 32.0 252.8282C33.333332 253.1656 34.666668 253.4949 36.0 253.81612C37.333332 254.13734 38.666668 254.45047 40.0 254.75552C41.333332 255.06056 42.666668 255.35753 44.0 255.64641C45.333332 255.93529 46.666668 256.21606 48.0 256.48877C49.333332 256.76147 50.666668 257.0261 52.0 257.28262C53.333332 257.53915 54.666668 257.7876 56.0 258.02795C57.333332 258.2683 58.666668 258.50058 60.0 258.7248C61.333332 258.94897 62.666668 259.16507 64.0 259.37308C65.333336 259.5811 66.666664 259.78104 68.0 259.97287C69.333336 260.1647 70.666664 260.34848 72.0 260.52414C73.333336 260.6998 74.666664 260.8674 76.0 261.0269C77.333336 261.1864 78.666664 261.3378 80.0 261.48114C81.333336 261.62445 82.666664 261.7597 84.0 261.88684C85.333336 262.014 86.666664 262.1331 88.0 262.24405C89.333336 262.35504 90.666664 262.45795 92.0 262.55276C93.333336 262.64755 94.666664 262.73428 96.0 262.81293C97.333336 262.89157 98.666664 262.96213 100.0 263.0246C101.333336 263.08707 102.666664 263.14142 104.0 263.1877C105.333336 263.234 106.666664 263.27222 108.0 263.30237C109.333336 263.3325 110.666664 263.35452 112.0 263.36847C113.333336 263.38242 114.666664 263.38828 116.0 263.38605C117.333336 263.38385 118.666664 263.37354 120.0 263.35513C121.333336 263.33673 122.666664 263.31027 124.0 263.2757C125.333336 263.24112 126.666664 263.1985 128.0 263.14774C129.33333 263.09702 130.66667 263.03818 132.0 262.97128C133.33333 262.90436 134.66667 262.82938 136.0 262.74628C137.33333 262.6632 138.66667 262.57205 140.0 262.47278C141.33333 262.37354 142.66667 262.2662 144.0 262.15076C145.33333 262.03534 146.66667 261.91183 148.0 261.78024C149.33333 261.64862 150.66667 261.50894 152.0 261.36118C153.33333 261.2134 154.66667 261.05756 156.0 260.89362C157.33333 260.72968 158.66667 260.55765 160.0 260.37753C161.33333 260.19742 162.66667 260.00922 164.0 259.81293C165.33333 259.61664 166.66667 259.41226 168.0 259.19983C169.33333 258.98737 170.66667 258.7668 172.0 258.53818C173.33333 258.30957 174.66667 258.07285 176.0 257.82803C177.33333 257.58325 178.66667 257.33035 180.0 257.06937C181.33333 256.8084 182.66667 256.53934 184.0 256.2622C185.33333 255.98505 186.66667 255.69981 188.0 255.40651C189.33333 255.11319 190.66667 254.81178 192.0 254.50229C193.33333 254.1928 194.66667 253.87523 196.0 253.54956C197.33333 253.2239 198.66667 252.89015 200.0 252.54832C201.33333 252.20648 202.66667 251.85657 204.0 251.49857C205.33333 251.14055 206.66667 250.77446 208.0 250.40028C209.33333 250.02611 210.66667 249.64384 212.0 249.2535C213.33333 248.86314 214.66667 248.4647 216.0 248.05818C217.33333 247.65166 218.66667 247.23706 220.0 246.81436C221.33333 246.39166 222.66667 245.96089 224.0 245.52202C225.33333 245.08316 226.66667 244.6362 228.0 244.18117C229.33333 243.72612 230.66667 243.263 232.0 242.7918C233.33333 242.32059 234.66667 241.8413 236.0 241.3539C237.33333 240.86652 238.66667 240.37105 240.0 239.8675C241.33333 239.36395 242.66667 238.85231 244.0 238.33258C245.33333 237.81285 246.66667 237.28503 248.0 236.74915C249.33333 236.21324 250.66667 235.66927 252.0 235.11719C253.33333 234.56512 254.66667 234.00496 256.0 233.43672C257.33334 232.86848 258.66666 232.29214 260.0 231.70773C261.33334 231.12332 262.66666 230.53082 264.0 229.93024C265.33334 229.32965 266.66666 228.72098 268.0 228.10422C269.33334 227.48746 270.66666 226.86261 272.0 226.22969C273.33334 225.59676 274.66666 224.95573 276.0 224.30664C277.33334 223.65753 278.66666 223.00035 280.0 222.33507C281.33334 221.6698 282.66666 220.99644 284.0 220.31499C285.33334 219.63354 286.66666 218.94402 288.0 218.2464C289.33334 217.54878 290.66666 216.84306 292.0 216.12929C293.33334 215.4155 294.66666 214.69362 296.0 213.96365C297.33334 213.23369 298.66666 212.49564 300.0 211.74951C301.33334 211.00337 302.66666 210.24915 304.0 209.48685C305.33334 208.72453 306.66666 207.95415 308.0 207.17566C309.33334 206.39719 310.66666 205.61063 312.0 204.81598C313.33334 204.02132 314.66666 203.21858 316.0 202.40776C317.33334 201.59694 318.66666 200.77803 320.0 199.95103C321.33334 199.12404 322.66666 198.28896 324.0 197.4458C325.33334 196.60263 326.66666 195.75137 328.0 194.89204C329.33334 194.0327 330.66666 193.16527 332.0 192.28976C333.33334 191.41425 334.66666 190.53065 336.0 189.63898C337.33334 188.74728 338.66666 187.84752 340.0 186.93967C341.33334 186.03181 342.66666 185.11588 344.0 184.19185C345.33334 183.26782 346.66666 182.33571 348.0 181.39551C349.33334 180.4553 350.66666 179.50702 352.0 178.55064C353.33334 177.59428 354.66666 176.62982 356.0 175.65729C357.33334 174.68474 358.66666 173.7041 360.0 172.7154C361.33334 171.72668 362.66666 170.72987 364.0 169.72499C365.33334 168.72011 366.66666 167.70714 368.0 166.68607C369.33334 165.66501 370.66666 164.63586 372.0 163.59863C373.33334 162.5614 374.66666 161.51608 376.0 160.46269C377.33334 159.40929 378.66666 158.3478 380.0 157.27821C381.33334 156.20865 382.66666 155.13098 384.0 154.04524C385.33334 152.95949 386.66666 151.86566 388.0 150.76373C389.33334 149.66182 390.66666 148.55182 392.0 147.43372C393.33334 146.31563 394.66666 145.18945 396.0 144.05519C397.33334 142.92093 398.66666 141.77858 400.0 140.62814C401.33334 139.4777 402.66666 138.31918 404.0 137.15259C405.33334 135.98598 406.66666 134.81128 408.0 133.6285C409.33334 132.44572 410.66666 131.25485 412.0 130.05591C413.33334 128.85695 414.66666 127.64992 416.0 126.43479C417.33334 125.21967 418.66666 123.99646 420.0 122.76517C421.33334 121.53387 422.66666 120.29449 424.0 119.04702C425.33334 117.79955 426.66666 116.544 428.0 115.280365C429.33334 114.01672 430.66666 112.744995 432.0 111.46519C433.33334 110.18537 434.66666 108.89748 436.0 107.601494C437.33334 106.30551 438.66666 105.00144 440.0 103.689285C441.33334 102.37713 442.66666 101.05689 444.0 99.72856C445.33334 98.40023 446.66666 97.06382 448.0 95.71932C449.33334 94.374825 450.66666 93.02224 452.0 91.66157C453.33334 90.300896 454.66666 88.93214 456.0 87.55529C457.33334 86.17845 458.66666 84.79352 460.0 83.400505C461.33334 82.00749 462.66666 80.606384 464.0 79.1972C465.33334 77.78801 466.66666 76.370735 468.0 74.94538C469.33334 73.52002 470.66666 72.08657 472.0 70.64504C473.33334 69.203514 474.66666 67.75389 476.0 66.29619C477.33334 64.838486 478.66666 63.372696 480.0 61.89882C481.33334 60.424946 482.66666 58.94298 484.0 57.452934C485.33334 55.962887 486.66666 54.464752 488.0 52.958534C489.33334 51.452316 490.66666 49.938007 492.0 48.415615C493.33334 46.893227 494.66666 45.362747 496.0 43.824184C497.33334 42.28562 498.66666 40.73897 500.0 39.184235C501.33334 37.629498 502.66666 36.066677 504.0 34.49577C505.33334 32.924862 506.66666 31.345867 508.0 29.758787C509.33334 28.171707 510.66666 26.576542 512.0 24.97329C513.3333 23.370039 514.6667 21.758701 516.0 20.139277C517.3333 18.519854 518.6667 16.892344 520.0 15.256747C521.3333 13.621151 522.6667 11.977469 524.0 10.325701C525.3333 8.673933 526.6667 7.014079 528.0 5.3461394C529.3333 3.6781993 530.6667 2.0021734 532.0 0.31806135C533.3333 -1.3660506 534.6667 -3.0582485 536.0 -4.7585325C537.3333 -6.4588165 538.6667 -8.167187 540.0 -9.883643C541.3333 -11.600099 542.6667 -13.324641 544.0 -15.057269C545.3333 -16.789896 546.6667 -18.530611 548.0 -20.279411C549.3333 -22.028212 550.6667 -23.785097 552.0 -25.55007C553.3333 -27.31504 554.6667 -29.0881 556.0 -30.869244C557.3333 -32.650387 558.6667 -34.439617 560.0 -36.236935C561.3333 -38.034252 562.6667 -39.839653 564.0 -41.65314C565.3333 -43.46663 566.6667 -45.288204 568.0 -47.117863C569.3333 -48.947525 570.6667 -50.78527 572.0 -52.631104C573.3333 -54.476933 574.6667 -56.330853 576.0 -58.192856C577.3333 -60.05486 580.0 -63.803127 580.0 -63.803127" fill-rule="nonzero"/><path fill="#4285f4" clip-path="url(#id_0)" d="M429.64584 127.25753C429.64584 129.74281 427.6311 131.75752 425.14584 131.75752C422.66055 131.75752 420.64584 129.74281 420.64584 127.25753C420.64584 124.77225 422.66055 122.75753 425.14584 122.75753C427.6311 122.75753 429.64584 124.77225 429.64584 127.25753Z" fill-rule="nonzero"/><path fill="#4285f4" clip-path="url(#id_0)" d="M393.91916 133.25943C393.91916 135.7447 391.90445 137.75943 389.41916 137.75943C386.9339 137.75943 384.91916 135.7447 384.91916 133.25943C384.91916 130.77415 386.9339 128.75943 389.41916 128.75943C391.90445 128.75943 393.91916 130.77415 393.91916 133.25943Z" fill-rule="nonzero"/><path fill="#4285f4" clip-path="url(#id_0)" d="M389.45334 122.362816C389.45334 124.8481 387.43863 126.862816 384.95334 126.862816C382.46805 126.862816 380.45334 124.8481 380.45334 122.362816C380.45334 119.87754 382.46805 117.862816 384.95334 117.862816C387.43863 117.862816 389.45334 119.87754 389.45334 122.362816Z" fill-rule="nonzero"/><path fill="#4285f4" clip-path="url(#id_0)" d="M384.9875 154.64478C384.9875 157.13005 382.97278 159.14478 380.4875 159.14478C378.00223 159.14478 375.9875 157.13005 375.9875 154.64478C375.9875 152.15948 378.00223 150.14478 380.4875 150.14478C382.97278 150.14478 384.9875 152.15948 384.9875 154.64478Z" fill-rule="nonzero"/><path fill="#4285f4" clip-path="url(#id_0)" d="M380.52167 157.3835C380.52167 159.86877 378.50696 161.8835 376.02167 161.8835C373.53638 161.8835 371.52167 159.86877 371.52167 157.3835C371.52167 154.89821 373.53638 152.8835 376.02167 152.8835C378.50696 152.8835 380.52167 154.89821 380.52167 157.3835Z" fill-rule="nonzero"/><path fill="#4285f4" clip-path="url(#id_0)" d="M376.05585 160.12222C376.05585 162.6075 374.0411 164.62222 371.55585 164.62222C369.07056 164.62222 367.05585 162.6075 367.05585 160.12222C367.05585 157.63693 369.07056 155.62222 371.55585 155.62222C374.0411 155.62222 376.05585 157.63693 376.05585 160.12222Z" fill-rule="nonzero"/><path fill="#4285f4" clip-path="url(#id_0)" d="M322.46582 306.61472C322.46582 309.09998 320.4511 311.11472 317.96582 311.11472C315.48056 311.11472 313.46582 309.09998 313.46582 306.61472C313.46582 304.12943 315.48056 302.11472 317.96582 302.11472C320.4511 302.11472 322.46582 304.12943 322.46582 306.61472Z" fill-rule="nonzero"/><path fill="#4285f4" clip-path="url(#id_0)" d="M304.6025 199.3967C304.6025 201.88197 302.58777 203.8967 300.1025 203.8967C297.61722 203.8967 295.6025 201.88197 295.6025 199.3967C295.6025 196.9114 297.61722 194.8967 300.1025 194.8967C302.58777 194.8967 304.6025 196.9114 304.6025 199.3967Z" fill-rule="nonzero"/><path fill="#4285f4" clip-path="url(#id_0)" d="M246.54666 223.63733C246.54666 226.1226 244.53195 228.13733 242.04666 228.13733C239.56139 228.13733 237.54666 226.1226 237.54666 223.63733C237.54666 221.15204 239.56139 219.13733 242.04666 219.13733C244.53195 219.13733 246.54666 221.15204 246.54666 223.63733Z" fill-rule="nonzero"/><path fill="#4285f4" clip-path="url(#id_0)" d="M242.08083 212.7407C242.08083 215.226 240.06612 217.2407 237.58083 217.2407C235.09555 217.2407 233.08083 215.226 233.08083 212.7407C233.08083 210.25543 235.09555 208.2407 237.58083 208.2407C240.06612 208.2407 242.08083 210.25543 242.08083 212.7407Z" fill-rule="nonzero"/><path fill="#4285f4" clip-path="url(#id_0)" d="M166.16167 243.39113C166.16167 245.87642 164.14694 247.89113 161.66167 247.89113C159.17639 247.89113 157.16167 245.87642 157.16167 243.39113C157.16167 240.90585 159.17639 238.89113 161.66167 238.89113C164.14694 238.89113 166.16167 240.90585 166.16167 243.39113Z" fill-rule="nonzero"/><path fill="#4285f4" clip-path="url(#id_0)" d="M152.76416 251.6073C152.76416 254.09259 150.74945 256.1073 148.26416 256.1073C145.77888 256.1073 143.76416 254.09259 143.76416 251.6073C143.76416 249.12202 145.77888 247.1073 148.26416 247.1073C150.74945 247.1073 152.76416 249.12202 152.76416 251.6073Z" fill-rule="nonzero"/><path fill="#4285f4" clip-path="url(#id_0)" d="M117.0375 271.24454C117.0375 273.72983 115.02278 275.74454 112.5375 275.74454C110.052216 275.74454 108.0375 273.72983 108.0375 271.24454C108.0375 268.75925 110.052216 266.74454 112.5375 266.74454C115.02278 266.74454 117.0375 268.75925 117.0375 271.24454Z" fill-rule="nonzero"/><path fill="#4285f4" clip-path="url(#id_0)" d="M103.64 279.46072C103.64 281.94598 101.62528 283.96072 99.14 283.96072C96.65472 283.96072 94.64 281.94598 94.64 279.46072C94.64 276.97543 96.65472 274.96072 99.14 274.96072C101.62528 274.96072 103.64 276.97543 103.64 279.46072Z" fill-rule="nonzero"/><path stroke="#000000" stroke-width="1.0" stroke-linecap="butt" d="M551.5 329.5L551.5 323.5" fill-rule="nonzero"/><path stroke="#000000" stroke-width="1.0" stroke-linecap="butt" d="M521.5 329.5L521.5 323.5" fill-rule="nonzero"/><path stroke="#000000" stroke-width="1.0" stroke-linecap="butt" d="M462.5 329.5L462.5 323.5" fill-rule="nonzero"/><path stroke="#000000" stroke-width="1.0" stroke-linecap="butt" d="M432.5 329.5L432.5 323.5" fill-rule="nonzero"/><path stroke="#000000" stroke-width="1.0" stroke-linecap="butt" d="M373.5 329.5L373.5 323.5" fill-rule="nonzero"/><path stroke="#000000" stroke-width="1.0" stroke-linecap="butt" d="M343.5 329.5L343.5 323.5" fill-rule="nonzero"/><path stroke="#000000" stroke-width="1.0" stroke-linecap="butt" d="M283.5 329.5L283.5 323.5" fill-rule="nonzero"/><path stroke="#000000" stroke-width="1.0" stroke-linecap="butt" d="M253.5 329.5L253.5 323.5" fill-rule="nonzero"/><path stroke="#000000" stroke-width="1.0" stroke-linecap="butt" d="M194.5 329.5L194.5 323.5" fill-rule="nonzero"/><path stroke="#000000" stroke-width="1.0" stroke-linecap="butt" d="M164.5 329.5L164.5 323.5" fill-rule="nonzero"/><path stroke="#000000" stroke-width="1.0" stroke-linecap="butt" d="M105.5 329.5L105.5 323.5" fill-rule="nonzero"/><path stroke="#000000" stroke-width="1.0" stroke-linecap="butt" d="M75.5 329.5L75.5 323.5" fill-rule="nonzero"/><path stroke="#000000" stroke-width="1.0" stroke-linecap="butt" d="M581.5 332.5L581.5 320.5" fill-rule="nonzero"/><path stroke="#000000" stroke-width="1.0" stroke-linecap="butt" d="M492.5 332.5L492.5 320.5" fill-rule="nonzero"/><path stroke="#000000" stroke-width="1.0" stroke-linecap="butt" d="M402.5 332.5L402.5 320.5" fill-rule="nonzero"/><path stroke="#000000" stroke-width="1.0" stroke-linecap="butt" d="M313.5 332.5L313.5 320.5" fill-rule="nonzero"/><path stroke="#000000" stroke-width="1.0" stroke-linecap="butt" d="M224.5 332.5L224.5 320.5" fill-rule="nonzero"/><path stroke="#000000" stroke-width="1.0" stroke-linecap="butt" d="M134.5 332.5L134.5 320.5" fill-rule="nonzero"/><path stroke="#000000" stroke-width="1.0" stroke-linecap="butt" d="M45.5 332.5L45.5 320.5" fill-rule="nonzero"/><path fill="#000000" d="M18.925 327.8719L18.925 326.8094L22.175 326.8094L22.175 327.8719L18.925 327.8719ZM27.01875 330.45L25.971874 330.45L25.971874 323.73126Q25.58125 324.09064 24.95625 324.46564Q24.346874 324.825 23.8625 324.9969L23.8625 323.98126Q24.7375 323.5594 25.39375 322.98126Q26.065624 322.3875 26.346874 321.825L27.01875 321.825L27.01875 330.45ZM30.64375 330.45L30.64375 329.2469L31.846874 329.2469L31.846874 330.45L30.64375 330.45ZM33.05 326.21564Q33.05 324.6844 33.3625 323.7625Q33.675 322.825 34.284374 322.325Q34.909374 321.825 35.846874 321.825Q36.534374 321.825 37.05 322.10626Q37.58125 322.3875 37.925 322.91876Q38.26875 323.4344 38.45625 324.1844Q38.64375 324.9344 38.64375 326.21564Q38.64375 327.73126 38.33125 328.65314Q38.034374 329.575 37.409374 330.09064Q36.8 330.59064 35.846874 330.59064Q34.6125 330.59064 33.89375 329.7Q33.05 328.6375 33.05 326.21564ZM34.128124 326.21564Q34.128124 328.325 34.628124 329.02814Q35.128124 329.73126 35.846874 329.73126Q36.58125 329.73126 37.065624 329.02814Q37.565624 328.325 37.565624 326.21564Q37.565624 324.09064 37.065624 323.40314Q36.58125 322.7 35.83125 322.7Q35.1125 322.7 34.675 323.3094Q34.128124 324.09064 34.128124 326.21564Z" fill-rule="nonzero"/><path fill="#000000" d="M18.925 280.23856L18.925 279.17606L22.175 279.17606L22.175 280.23856L18.925 280.23856ZM23.05 278.5823Q23.05 277.05106 23.3625 276.12918Q23.675 275.19168 24.284374 274.69168Q24.909374 274.19168 25.846874 274.19168Q26.534374 274.19168 27.05 274.47293Q27.58125 274.75418 27.925 275.28543Q28.26875 275.80106 28.45625 276.55106Q28.64375 277.30106 28.64375 278.5823Q28.64375 280.09793 28.33125 281.0198Q28.034374 281.94168 27.409374 282.4573Q26.8 282.9573 25.846874 282.9573Q24.6125 282.9573 23.89375 282.06668Q23.05 281.00418 23.05 278.5823ZM24.128124 278.5823Q24.128124 280.69168 24.628124 281.3948Q25.128124 282.09793 25.846874 282.09793Q26.58125 282.09793 27.065624 281.3948Q27.565624 280.69168 27.565624 278.5823Q27.565624 276.4573 27.065624 275.7698Q26.58125 275.06668 25.83125 275.06668Q25.1125 275.06668 24.675 275.67606Q24.128124 276.4573 24.128124 278.5823ZM30.64375 282.81668L30.64375 281.61356L31.846874 281.61356L31.846874 282.81668L30.64375 282.81668ZM33.05 280.56668L34.159374 280.47293Q34.284374 281.28543 34.721874 281.69168Q35.175 282.09793 35.815624 282.09793Q36.565624 282.09793 37.096874 281.5198Q37.628124 280.94168 37.628124 280.00418Q37.628124 279.09793 37.1125 278.5823Q36.6125 278.05106 35.784374 278.05106Q35.284374 278.05106 34.8625 278.28543Q34.45625 278.5198 34.221874 278.87918L33.2375 278.75418L34.065624 274.34793L38.346874 274.34793L38.346874 275.34793L34.909374 275.34793L34.45625 277.66043Q35.221874 277.11356 36.065624 277.11356Q37.190624 277.11356 37.95625 277.8948Q38.7375 278.67606 38.7375 279.91043Q38.7375 281.06668 38.065624 281.92606Q37.2375 282.9573 35.815624 282.9573Q34.64375 282.9573 33.89375 282.30106Q33.159374 281.6448 33.05 280.56668Z" fill-rule="nonzero"/><path fill="#000000" d="M23.05 230.94896Q23.05 229.41771 23.3625 228.49583Q23.675 227.55833 24.284374 227.05833Q24.909374 226.55833 25.846874 226.55833Q26.534374 226.55833 27.05 226.83958Q27.58125 227.12083 27.925 227.65208Q28.26875 228.16771 28.45625 228.91771Q28.64375 229.66771 28.64375 230.94896Q28.64375 232.46458 28.33125 233.38646Q28.034374 234.30833 27.409374 234.82396Q26.8 235.32396 25.846874 235.32396Q24.6125 235.32396 23.89375 234.43333Q23.05 233.37083 23.05 230.94896ZM24.128124 230.94896Q24.128124 233.05833 24.628124 233.76146Q25.128124 234.46458 25.846874 234.46458Q26.58125 234.46458 27.065624 233.76146Q27.565624 233.05833 27.565624 230.94896Q27.565624 228.82396 27.065624 228.13646Q26.58125 227.43333 25.83125 227.43333Q25.1125 227.43333 24.675 228.04271Q24.128124 228.82396 24.128124 230.94896ZM30.64375 235.18333L30.64375 233.98021L31.846874 233.98021L31.846874 235.18333L30.64375 235.18333ZM33.05 230.94896Q33.05 229.41771 33.3625 228.49583Q33.675 227.55833 34.284374 227.05833Q34.909374 226.55833 35.846874 226.55833Q36.534374 226.55833 37.05 226.83958Q37.58125 227.12083 37.925 227.65208Q38.26875 228.16771 38.45625 228.91771Q38.64375 229.66771 38.64375 230.94896Q38.64375 232.46458 38.33125 233.38646Q38.034374 234.30833 37.409374 234.82396Q36.8 235.32396 35.846874 235.32396Q34.6125 235.32396 33.89375 234.43333Q33.05 233.37083 33.05 230.94896ZM34.128124 230.94896Q34.128124 233.05833 34.628124 233.76146Q35.128124 234.46458 35.846874 234.46458Q36.58125 234.46458 37.065624 233.76146Q37.565624 233.05833 37.565624 230.94896Q37.565624 228.82396 37.065624 228.13646Q36.58125 227.43333 35.83125 227.43333Q35.1125 227.43333 34.675 228.04271Q34.128124 228.82396 34.128124 230.94896Z" fill-rule="nonzero"/><path fill="#000000" d="M23.05 183.31563Q23.05 181.78438 23.3625 180.8625Q23.675 179.925 24.284374 179.425Q24.909374 178.925 25.846874 178.925Q26.534374 178.925 27.05 179.20625Q27.58125 179.4875 27.925 180.01875Q28.26875 180.53438 28.45625 181.28438Q28.64375 182.03438 28.64375 183.31563Q28.64375 184.83125 28.33125 185.75313Q28.034374 186.675 27.409374 187.19063Q26.8 187.69063 25.846874 187.69063Q24.6125 187.69063 23.89375 186.8Q23.05 185.7375 23.05 183.31563ZM24.128124 183.31563Q24.128124 185.425 24.628124 186.12813Q25.128124 186.83125 25.846874 186.83125Q26.58125 186.83125 27.065624 186.12813Q27.565624 185.425 27.565624 183.31563Q27.565624 181.19063 27.065624 180.50313Q26.58125 179.8 25.83125 179.8Q25.1125 179.8 24.675 180.40938Q24.128124 181.19063 24.128124 183.31563ZM30.64375 187.55L30.64375 186.34688L31.846874 186.34688L31.846874 187.55L30.64375 187.55ZM33.05 185.3L34.159374 185.20625Q34.284374 186.01875 34.721874 186.425Q35.175 186.83125 35.815624 186.83125Q36.565624 186.83125 37.096874 186.25313Q37.628124 185.675 37.628124 184.7375Q37.628124 183.83125 37.1125 183.31563Q36.6125 182.78438 35.784374 182.78438Q35.284374 182.78438 34.8625 183.01875Q34.45625 183.25313 34.221874 183.6125L33.2375 183.4875L34.065624 179.08125L38.346874 179.08125L38.346874 180.08125L34.909374 180.08125L34.45625 182.39375Q35.221874 181.84688 36.065624 181.84688Q37.190624 181.84688 37.95625 182.62813Q38.7375 183.40938 38.7375 184.64375Q38.7375 185.8 38.065624 186.65938Q37.2375 187.69063 35.815624 187.69063Q34.64375 187.69063 33.89375 187.03438Q33.159374 186.37813 33.05 185.3Z" fill-rule="nonzero"/><path fill="#000000" d="M27.01875 139.91667L25.971874 139.91667L25.971874 133.19792Q25.58125 133.5573 24.95625 133.9323Q24.346874 134.29167 23.8625 134.46355L23.8625 133.44792Q24.7375 133.02605 25.39375 132.44792Q26.065624 131.85417 26.346874 131.29167L27.01875 131.29167L27.01875 139.91667ZM30.64375 139.91667L30.64375 138.71355L31.846874 138.71355L31.846874 139.91667L30.64375 139.91667ZM33.05 135.6823Q33.05 134.15105 33.3625 133.22917Q33.675 132.29167 34.284374 131.79167Q34.909374 131.29167 35.846874 131.29167Q36.534374 131.29167 37.05 131.57292Q37.58125 131.85417 37.925 132.38542Q38.26875 132.90105 38.45625 133.65105Q38.64375 134.40105 38.64375 135.6823Q38.64375 137.19792 38.33125 138.1198Q38.034374 139.04167 37.409374 139.5573Q36.8 140.0573 35.846874 140.0573Q34.6125 140.0573 33.89375 139.16667Q33.05 138.10417 33.05 135.6823ZM34.128124 135.6823Q34.128124 137.79167 34.628124 138.4948Q35.128124 139.19792 35.846874 139.19792Q36.58125 139.19792 37.065624 138.4948Q37.565624 137.79167 37.565624 135.6823Q37.565624 133.5573 37.065624 132.8698Q36.58125 132.16667 35.83125 132.16667Q35.1125 132.16667 34.675 132.77605Q34.128124 133.5573 34.128124 135.6823Z" fill-rule="nonzero"/><path fill="#000000" d="M27.01875 92.28333L25.971874 92.28333L25.971874 85.56458Q25.58125 85.92396 24.95625 86.29896Q24.346874 86.65833 23.8625 86.83021L23.8625 85.81458Q24.7375 85.39271 25.39375 84.81458Q26.065624 84.22083 26.346874 83.65833L27.01875 83.65833L27.01875 92.28333ZM30.64375 92.28333L30.64375 91.08021L31.846874 91.08021L31.846874 92.28333L30.64375 92.28333ZM33.05 90.03333L34.159374 89.93958Q34.284374 90.75208 34.721874 91.15833Q35.175 91.56458 35.815624 91.56458Q36.565624 91.56458 37.096874 90.98646Q37.628124 90.40833 37.628124 89.47083Q37.628124 88.56458 37.1125 88.04896Q36.6125 87.51771 35.784374 87.51771Q35.284374 87.51771 34.8625 87.75208Q34.45625 87.98646 34.221874 88.34583L33.2375 88.22083L34.065624 83.81458L38.346874 83.81458L38.346874 84.81458L34.909374 84.81458L34.45625 87.12708Q35.221874 86.58021 36.065624 86.58021Q37.190624 86.58021 37.95625 87.36146Q38.7375 88.14271 38.7375 89.37708Q38.7375 90.53333 38.065624 91.39271Q37.2375 92.42396 35.815624 92.42396Q34.64375 92.42396 33.89375 91.76771Q33.159374 91.11146 33.05 90.03333Z" fill-rule="nonzero"/><path fill="#000000" d="M578.45 345.21564Q578.45 343.6844 578.7625 342.7625Q579.075 341.825 579.6844 341.325Q580.3094 340.825 581.2469 340.825Q581.9344 340.825 582.45 341.10626Q582.98126 341.3875 583.325 341.91876Q583.66876 342.4344 583.85626 343.1844Q584.04376 343.9344 584.04376 345.21564Q584.04376 346.73126 583.73126 347.65314Q583.4344 348.575 582.8094 349.09064Q582.2 349.59064 581.2469 349.59064Q580.0125 349.59064 579.29376 348.7Q578.45 347.6375 578.45 345.21564ZM579.52814 345.21564Q579.52814 347.325 580.02814 348.02814Q580.52814 348.73126 581.2469 348.73126Q581.98126 348.73126 582.46564 348.02814Q582.96564 347.325 582.96564 345.21564Q582.96564 343.09064 582.46564 342.40314Q581.98126 341.7 581.23126 341.7Q580.5125 341.7 580.075 342.3094Q579.52814 343.09064 579.52814 345.21564Z" fill-rule="nonzero"/><path fill="#000000" d="M491.1802 348.4344L491.1802 349.45L485.4927 349.45Q485.4927 349.075 485.6177 348.71564Q485.83646 348.1375 486.3052 347.575Q486.78958 347.0125 487.69583 346.27814Q489.10208 345.1219 489.58646 344.45Q490.08646 343.77814 490.08646 343.1844Q490.08646 342.5594 489.63333 342.1375Q489.1802 341.7 488.46146 341.7Q487.69583 341.7 487.2427 342.15314Q486.78958 342.60626 486.77396 343.41876L485.69583 343.3094Q485.8052 342.09064 486.52396 341.46564Q487.25833 340.825 488.4927 340.825Q489.72708 340.825 490.44583 341.5125Q491.16458 342.2 491.16458 343.21564Q491.16458 343.73126 490.94583 344.23126Q490.7427 344.71564 490.2427 345.27814Q489.75833 345.825 488.63333 346.77814Q487.6802 347.575 487.39896 347.8719Q487.13333 348.15314 486.96146 348.4344L491.1802 348.4344ZM492.63333 345.21564Q492.63333 343.6844 492.94583 342.7625Q493.25833 341.825 493.8677 341.325Q494.4927 340.825 495.4302 340.825Q496.1177 340.825 496.63333 341.10626Q497.16458 341.3875 497.50833 341.91876Q497.85208 342.4344 498.03958 343.1844Q498.22708 343.9344 498.22708 345.21564Q498.22708 346.73126 497.91458 347.65314Q497.6177 348.575 496.9927 349.09064Q496.38333 349.59064 495.4302 349.59064Q494.19583 349.59064 493.47708 348.7Q492.63333 347.6375 492.63333 345.21564ZM493.71146 345.21564Q493.71146 347.325 494.21146 348.02814Q494.71146 348.73126 495.4302 348.73126Q496.16458 348.73126 496.64896 348.02814Q497.14896 347.325 497.14896 345.21564Q497.14896 343.09064 496.64896 342.40314Q496.16458 341.7 495.41458 341.7Q494.69583 341.7 494.25833 342.3094Q493.71146 343.09064 493.71146 345.21564Z" fill-rule="nonzero"/><path fill="#000000" d="M399.69168 349.45L399.69168 347.3875L395.97293 347.3875L395.97293 346.41876L399.8948 340.85626L400.75418 340.85626L400.75418 346.41876L401.91043 346.41876L401.91043 347.3875L400.75418 347.3875L400.75418 349.45L399.69168 349.45ZM399.69168 346.41876L399.69168 342.5594L397.00418 346.41876L399.69168 346.41876ZM403.31668 345.21564Q403.31668 343.6844 403.62918 342.7625Q403.94168 341.825 404.55106 341.325Q405.17606 340.825 406.11356 340.825Q406.80106 340.825 407.31668 341.10626Q407.84793 341.3875 408.19168 341.91876Q408.53543 342.4344 408.72293 343.1844Q408.91043 343.9344 408.91043 345.21564Q408.91043 346.73126 408.59793 347.65314Q408.30106 348.575 407.67606 349.09064Q407.06668 349.59064 406.11356 349.59064Q404.87918 349.59064 404.16043 348.7Q403.31668 347.6375 403.31668 345.21564ZM404.3948 345.21564Q404.3948 347.325 404.8948 348.02814Q405.3948 348.73126 406.11356 348.73126Q406.84793 348.73126 407.3323 348.02814Q407.8323 347.325 407.8323 345.21564Q407.8323 343.09064 407.3323 342.40314Q406.84793 341.7 406.09793 341.7Q405.37918 341.7 404.94168 342.3094Q404.3948 343.09064 404.3948 345.21564Z" fill-rule="nonzero"/><path fill="#000000" d="M312.46875 342.96564L311.42188 343.04376Q311.28125 342.41876 311.03125 342.1375Q310.59375 341.6844 309.96875 341.6844Q309.46875 341.6844 309.07812 341.96564Q308.59375 342.34064 308.29688 343.04376Q308.01562 343.73126 308.0 345.0125Q308.375 344.4344 308.92188 344.15314Q309.48438 343.8719 310.09375 343.8719Q311.14062 343.8719 311.875 344.65314Q312.625 345.4344 312.625 346.65314Q312.625 347.46564 312.26562 348.16876Q311.92188 348.85626 311.3125 349.23126Q310.70312 349.59064 309.9375 349.59064Q308.60938 349.59064 307.78125 348.6219Q306.95312 347.65314 306.95312 345.4344Q306.95312 342.9344 307.875 341.8094Q308.67188 340.825 310.03125 340.825Q311.04688 340.825 311.6875 341.40314Q312.34375 341.96564 312.46875 342.96564ZM308.17188 346.66876Q308.17188 347.21564 308.39062 347.71564Q308.625 348.2 309.03125 348.46564Q309.45312 348.73126 309.92188 348.73126Q310.57812 348.73126 311.0625 348.2Q311.54688 347.65314 311.54688 346.73126Q311.54688 345.84064 311.0625 345.325Q310.59375 344.8094 309.875 344.8094Q309.15625 344.8094 308.65625 345.325Q308.17188 345.84064 308.17188 346.66876ZM314.0 345.21564Q314.0 343.6844 314.3125 342.7625Q314.625 341.825 315.23438 341.325Q315.85938 340.825 316.79688 340.825Q317.48438 340.825 318.0 341.10626Q318.53125 341.3875 318.875 341.91876Q319.21875 342.4344 319.40625 343.1844Q319.59375 343.9344 319.59375 345.21564Q319.59375 346.73126 319.28125 347.65314Q318.98438 348.575 318.35938 349.09064Q317.75 349.59064 316.79688 349.59064Q315.5625 349.59064 314.84375 348.7Q314.0 347.6375 314.0 345.21564ZM315.07812 345.21564Q315.07812 347.325 315.57812 348.02814Q316.07812 348.73126 316.79688 348.73126Q317.53125 348.73126 318.01562 348.02814Q318.51562 347.325 318.51562 345.21564Q318.51562 343.09064 318.01562 342.40314Q317.53125 341.7 316.78125 341.7Q316.0625 341.7 315.625 342.3094Q315.07812 343.09064 315.07812 345.21564Z" fill-rule="nonzero"/><path fill="#000000" d="M219.30833 344.79376Q218.65208 344.54376 218.32396 344.10626Q218.01146 343.65314 218.01146 343.04376Q218.01146 342.10626 218.68333 341.46564Q219.37083 340.825 220.48021 340.825Q221.60521 340.825 222.29271 341.48126Q222.98021 342.1375 222.98021 343.075Q222.98021 343.66876 222.66771 344.10626Q222.35521 344.54376 221.71458 344.79376Q222.51146 345.04376 222.91771 345.6219Q223.32396 346.2 223.32396 346.9969Q223.32396 348.09064 222.54271 348.84064Q221.77708 349.59064 220.49583 349.59064Q219.23021 349.59064 218.44896 348.84064Q217.66771 348.09064 217.66771 346.96564Q217.66771 346.1219 218.08958 345.5594Q218.52708 344.9969 219.30833 344.79376ZM219.08958 342.9969Q219.08958 343.60626 219.48021 343.9969Q219.88646 344.3875 220.51146 344.3875Q221.12083 344.3875 221.51146 344.0125Q221.90208 343.6219 221.90208 343.0594Q221.90208 342.48126 221.49583 342.09064Q221.08958 341.6844 220.49583 341.6844Q219.88646 341.6844 219.48021 342.075Q219.08958 342.46564 219.08958 342.9969ZM218.76146 346.96564Q218.76146 347.41876 218.96458 347.84064Q219.18333 348.2625 219.60521 348.4969Q220.02708 348.73126 220.51146 348.73126Q221.26146 348.73126 221.74583 348.2469Q222.24583 347.7625 222.24583 347.0125Q222.24583 346.2469 221.74583 345.7469Q221.24583 345.2469 220.48021 345.2469Q219.73021 345.2469 219.24583 345.7469Q218.76146 346.23126 218.76146 346.96564ZM224.68333 345.21564Q224.68333 343.6844 224.99583 342.7625Q225.30833 341.825 225.91771 341.325Q226.54271 340.825 227.48021 340.825Q228.16771 340.825 228.68333 341.10626Q229.21458 341.3875 229.55833 341.91876Q229.90208 342.4344 230.08958 343.1844Q230.27708 343.9344 230.27708 345.21564Q230.27708 346.73126 229.96458 347.65314Q229.66771 348.575 229.04271 349.09064Q228.43333 349.59064 227.48021 349.59064Q226.24583 349.59064 225.52708 348.7Q224.68333 347.6375 224.68333 345.21564ZM225.76146 345.21564Q225.76146 347.325 226.26146 348.02814Q226.76146 348.73126 227.48021 348.73126Q228.21458 348.73126 228.69896 348.02814Q229.19896 347.325 229.19896 345.21564Q229.19896 343.09064 228.69896 342.40314Q228.21458 341.7 227.46458 341.7Q226.74583 341.7 226.30833 342.3094Q225.76146 343.09064 225.76146 345.21564Z" fill-rule="nonzero"/><path fill="#000000" d="M128.83542 349.45L127.78854 349.45L127.78854 342.73126Q127.39792 343.09064 126.77292 343.46564Q126.16354 343.825 125.67917 343.9969L125.67917 342.98126Q126.55417 342.5594 127.21042 341.98126Q127.88229 341.3875 128.16354 340.825L128.83542 340.825L128.83542 349.45ZM131.86667 345.21564Q131.86667 343.6844 132.17917 342.7625Q132.49167 341.825 133.10104 341.325Q133.72604 340.825 134.66354 340.825Q135.35104 340.825 135.86667 341.10626Q136.39792 341.3875 136.74167 341.91876Q137.08542 342.4344 137.27292 343.1844Q137.46042 343.9344 137.46042 345.21564Q137.46042 346.73126 137.14792 347.65314Q136.85104 348.575 136.22604 349.09064Q135.61667 349.59064 134.66354 349.59064Q133.42917 349.59064 132.71042 348.7Q131.86667 347.6375 131.86667 345.21564ZM132.9448 345.21564Q132.9448 347.325 133.4448 348.02814Q133.9448 348.73126 134.66354 348.73126Q135.39792 348.73126 135.8823 348.02814Q136.3823 347.325 136.3823 345.21564Q136.3823 343.09064 135.8823 342.40314Q135.39792 341.7 134.64792 341.7Q133.92917 341.7 133.49167 342.3094Q132.9448 343.09064 132.9448 345.21564ZM138.86667 345.21564Q138.86667 343.6844 139.17917 342.7625Q139.49167 341.825 140.10104 341.325Q140.72604 340.825 141.66354 340.825Q142.35104 340.825 142.86667 341.10626Q143.39792 341.3875 143.74167 341.91876Q144.08542 342.4344 144.27292 343.1844Q144.46042 343.9344 144.46042 345.21564Q144.46042 346.73126 144.14792 347.65314Q143.85104 348.575 143.22604 349.09064Q142.61667 349.59064 141.66354 349.59064Q140.42917 349.59064 139.71042 348.7Q138.86667 347.6375 138.86667 345.21564ZM139.9448 345.21564Q139.9448 347.325 140.4448 348.02814Q140.9448 348.73126 141.66354 348.73126Q142.39792 348.73126 142.8823 348.02814Q143.3823 347.325 143.3823 345.21564Q143.3823 343.09064 142.8823 342.40314Q142.39792 341.7 141.64792 341.7Q140.92917 341.7 140.49167 342.3094Q139.9448 343.09064 139.9448 345.21564Z" fill-rule="nonzero"/><path fill="#000000" d="M39.51875 349.45L38.471874 349.45L38.471874 342.73126Q38.08125 343.09064 37.45625 343.46564Q36.846874 343.825 36.3625 343.9969L36.3625 342.98126Q37.2375 342.5594 37.89375 341.98126Q38.565624 341.3875 38.846874 340.825L39.51875 340.825L39.51875 349.45ZM48.096874 348.4344L48.096874 349.45L42.409374 349.45Q42.409374 349.075 42.534374 348.71564Q42.753124 348.1375 43.221874 347.575Q43.70625 347.0125 44.6125 346.27814Q46.01875 345.1219 46.503124 344.45Q47.003124 343.77814 47.003124 343.1844Q47.003124 342.5594 46.55 342.1375Q46.096874 341.7 45.378124 341.7Q44.6125 341.7 44.159374 342.15314Q43.70625 342.60626 43.690624 343.41876L42.6125 343.3094Q42.721874 342.09064 43.440624 341.46564Q44.175 340.825 45.409374 340.825Q46.64375 340.825 47.3625 341.5125Q48.08125 342.2 48.08125 343.21564Q48.08125 343.73126 47.8625 344.23126Q47.659374 344.71564 47.159374 345.27814Q46.675 345.825 45.55 346.77814Q44.596874 347.575 44.315624 347.8719Q44.05 348.15314 43.878124 348.4344L48.096874 348.4344ZM49.55 345.21564Q49.55 343.6844 49.8625 342.7625Q50.175 341.825 50.784374 341.325Q51.409374 340.825 52.346874 340.825Q53.034374 340.825 53.55 341.10626Q54.08125 341.3875 54.425 341.91876Q54.76875 342.4344 54.95625 343.1844Q55.14375 343.9344 55.14375 345.21564Q55.14375 346.73126 54.83125 347.65314Q54.534374 348.575 53.909374 349.09064Q53.3 349.59064 52.346874 349.59064Q51.1125 349.59064 50.39375 348.7Q49.55 347.6375 49.55 345.21564ZM50.628124 345.21564Q50.628124 347.325 51.128124 348.02814Q51.628124 348.73126 52.346874 348.73126Q53.08125 348.73126 53.565624 348.02814Q54.065624 347.325 54.065624 345.21564Q54.065624 343.09064 53.565624 342.40314Q53.08125 341.7 52.33125 341.7Q51.6125 341.7 51.175 342.3094Q50.628124 343.09064 50.628124 345.21564Z" fill-rule="nonzero"/><path fill="#4285f4" d="M199.5 61.916668C199.5 65.23038 196.8137 67.916664 193.5 67.916664C190.1863 67.916664 187.5 65.23038 187.5 61.916668C187.5 58.60296 190.1863 55.916668 193.5 55.916668C196.8137 55.916668 199.5 58.60296 199.5 61.916668Z" fill-rule="nonzero"/><path stroke="#4285f4" stroke-width="4.0" stroke-linecap="butt" stroke-opacity="0.4" d="M215.5 61.916668L227.5 61.916668" fill-rule="nonzero"/><path fill="#1a1a1a" d="M238.60938 65.916664L238.60938 58.33854L235.78125 58.33854L235.78125 57.322914L242.59375 57.322914L242.59375 58.33854L239.75 58.33854L239.75 65.916664L238.60938 65.916664ZM243.28125 65.916664L243.28125 59.697914L244.23438 59.697914L244.23438 60.635414Q244.59375 59.979164 244.89062 59.77604Q245.20312 59.55729 245.57812 59.55729Q246.10938 59.55729 246.65625 59.885414L246.29688 60.86979Q245.90625 60.635414 245.53125 60.635414Q245.17188 60.635414 244.89062 60.854164Q244.625 61.05729 244.51562 61.43229Q244.32812 61.99479 244.32812 62.65104L244.32812 65.916664L243.28125 65.916664ZM251.54688 63.916664L252.64062 64.041664Q252.39062 64.99479 251.6875 65.52604Q250.98438 66.05729 249.90625 66.05729Q248.54688 66.05729 247.73438 65.21354Q246.9375 64.36979 246.9375 62.854164Q246.9375 61.291664 247.75 60.43229Q248.5625 59.55729 249.84375 59.55729Q251.09375 59.55729 251.875 60.40104Q252.67188 61.24479 252.67188 62.791664Q252.67188 62.885414 252.67188 63.072914L248.03125 63.072914Q248.09375 64.104164 248.60938 64.65104Q249.125 65.18229 249.90625 65.18229Q250.48438 65.18229 250.89062 64.885414Q251.3125 64.572914 251.54688 63.916664ZM248.09375 62.21354L251.5625 62.21354Q251.5 61.416664 251.17188 61.02604Q250.65625 60.416664 249.85938 60.416664Q249.125 60.416664 248.625 60.90104Q248.14062 61.385414 248.09375 62.21354ZM254.29688 65.916664L254.29688 59.697914L255.23438 59.697914L255.23438 60.572914Q255.92188 59.55729 257.21875 59.55729Q257.78125 59.55729 258.25 59.760414Q258.73438 59.96354 258.96875 60.291664Q259.20312 60.61979 259.29688 61.05729Q259.34375 61.354164 259.34375 62.08854L259.34375 65.916664L258.29688 65.916664L258.29688 62.135414Q258.29688 61.479164 258.17188 61.166664Q258.04688 60.854164 257.73438 60.666664Q257.42188 60.46354 257.0 60.46354Q256.32812 60.46354 255.82812 60.90104Q255.34375 61.322914 255.34375 62.510414L255.34375 65.916664L254.29688 65.916664ZM265.32812 65.916664L265.32812 65.135414Q264.73438 66.05729 263.59375 66.05729Q262.84375 66.05729 262.21875 65.65104Q261.59375 65.229164 261.25 64.49479Q260.90625 63.760414 260.90625 62.80729Q260.90625 61.885414 261.21875 61.11979Q261.53125 60.354164 262.15625 59.96354Q262.78125 59.55729 263.54688 59.55729Q264.10938 59.55729 264.54688 59.791664Q264.98438 60.02604 265.26562 60.40104L265.26562 57.322914L266.3125 57.322914L266.3125 65.916664L265.32812 65.916664ZM262.0 62.80729Q262.0 64.010414 262.5 64.604164Q263.0 65.18229 263.6875 65.18229Q264.375 65.18229 264.85938 64.61979Q265.34375 64.05729 265.34375 62.90104Q265.34375 61.61979 264.84375 61.02604Q264.35938 60.43229 263.64062 60.43229Q262.9375 60.43229 262.46875 61.010414Q262.0 61.572914 262.0 62.80729ZM268.26562 65.916664L268.26562 57.322914L269.32812 57.322914L269.32812 65.916664L268.26562 65.916664ZM271.29688 58.541664L271.29688 57.322914L272.35938 57.322914L272.35938 58.541664L271.29688 58.541664ZM271.29688 65.916664L271.29688 59.697914L272.35938 59.697914L272.35938 65.916664L271.29688 65.916664ZM274.29688 65.916664L274.29688 59.697914L275.23438 59.697914L275.23438 60.572914Q275.92188 59.55729 277.21875 59.55729Q277.78125 59.55729 278.25 59.760414Q278.73438 59.96354 278.96875 60.291664Q279.20312 60.61979 279.29688 61.05729Q279.34375 61.354164 279.34375 62.08854L279.34375 65.916664L278.29688 65.916664L278.29688 62.135414Q278.29688 61.479164 278.17188 61.166664Q278.04688 60.854164 277.73438 60.666664Q277.42188 60.46354 277.0 60.46354Q276.32812 60.46354 275.82812 60.90104Q275.34375 61.322914 275.34375 62.510414L275.34375 65.916664L274.29688 65.916664ZM285.54688 63.916664L286.64062 64.041664Q286.39062 64.99479 285.6875 65.52604Q284.98438 66.05729 283.90625 66.05729Q282.54688 66.05729 281.73438 65.21354Q280.9375 64.36979 280.9375 62.854164Q280.9375 61.291664 281.75 60.43229Q282.5625 59.55729 283.84375 59.55729Q285.09375 59.55729 285.875 60.40104Q286.67188 61.24479 286.67188 62.791664Q286.67188 62.885414 286.67188 63.072914L282.03125 63.072914Q282.09375 64.104164 282.60938 64.65104Q283.125 65.18229 283.90625 65.18229Q284.48438 65.18229 284.89062 64.885414Q285.3125 64.572914 285.54688 63.916664ZM282.09375 62.21354L285.5625 62.21354Q285.5 61.416664 285.17188 61.02604Q284.65625 60.416664 283.85938 60.416664Q283.125 60.416664 282.625 60.90104Q282.14062 61.385414 282.09375 62.21354ZM291.54688 65.916664L291.54688 60.510414L290.60938 60.510414L290.60938 59.697914L291.54688 59.697914L291.54688 59.02604Q291.54688 58.40104 291.65625 58.104164Q291.8125 57.68229 292.1875 57.43229Q292.57812 57.18229 293.26562 57.18229Q293.71875 57.18229 294.25 57.291664L294.09375 58.197914Q293.76562 58.15104 293.46875 58.15104Q292.98438 58.15104 292.78125 58.354164Q292.59375 58.55729 292.59375 59.11979L292.59375 59.697914L293.8125 59.697914L293.8125 60.510414L292.59375 60.510414L292.59375 65.916664L291.54688 65.916664ZM293.90625 62.80729Q293.90625 61.072914 294.85938 60.24479Q295.65625 59.55729 296.8125 59.55729Q298.09375 59.55729 298.90625 60.40104Q299.73438 61.229164 299.73438 62.71354Q299.73438 63.916664 299.375 64.604164Q299.01562 65.291664 298.3125 65.68229Q297.625 66.05729 296.8125 66.05729Q295.51562 66.05729 294.70312 65.229164Q293.90625 64.385414 293.90625 62.80729ZM294.98438 62.80729Q294.98438 63.99479 295.5 64.58854Q296.03125 65.18229 296.8125 65.18229Q297.60938 65.18229 298.125 64.58854Q298.64062 63.99479 298.64062 62.77604Q298.64062 61.61979 298.10938 61.02604Q297.59375 60.43229 296.8125 60.43229Q296.03125 60.43229 295.5 61.02604Q294.98438 61.604164 294.98438 62.80729ZM301.28125 65.916664L301.28125 59.697914L302.23438 59.697914L302.23438 60.635414Q302.59375 59.979164 302.89062 59.77604Q303.20312 59.55729 303.57812 59.55729Q304.10938 59.55729 304.65625 59.885414L304.29688 60.86979Q303.90625 60.635414 303.53125 60.635414Q303.17188 60.635414 302.89062 60.854164Q302.625 61.05729 302.51562 61.43229Q302.32812 61.99479 302.32812 62.65104L302.32812 65.916664L301.28125 65.916664ZM307.875 64.05729L308.90625 63.90104Q309.0 64.52604 309.39062 64.854164Q309.79688 65.18229 310.53125 65.18229Q311.25 65.18229 311.59375 64.90104Q311.95312 64.604164 311.95312 64.197914Q311.95312 63.83854 311.64062 63.635414Q311.42188 63.49479 310.5625 63.27604Q309.40625 62.979164 308.95312 62.77604Q308.51562 62.55729 308.28125 62.18229Q308.04688 61.80729 308.04688 61.33854Q308.04688 60.93229 308.23438 60.572914Q308.42188 60.21354 308.75 59.979164Q309.0 59.80729 309.42188 59.68229Q309.84375 59.55729 310.34375 59.55729Q311.0625 59.55729 311.60938 59.77604Q312.17188 59.979164 312.4375 60.33854Q312.70312 60.697914 312.79688 61.291664L311.76562 61.43229Q311.70312 60.96354 311.35938 60.697914Q311.03125 60.416664 310.40625 60.416664Q309.6875 60.416664 309.375 60.666664Q309.0625 60.90104 309.0625 61.229164Q309.0625 61.43229 309.1875 61.58854Q309.32812 61.760414 309.59375 61.86979Q309.75 61.93229 310.53125 62.135414Q311.65625 62.447914 312.09375 62.635414Q312.53125 62.822914 312.78125 63.18229Q313.03125 63.541664 313.03125 64.08854Q313.03125 64.61979 312.71875 65.08854Q312.42188 65.541664 311.84375 65.80729Q311.26562 66.05729 310.53125 66.05729Q309.3125 66.05729 308.67188 65.55729Q308.04688 65.041664 307.875 64.05729ZM319.54688 63.916664L320.64062 64.041664Q320.39062 64.99479 319.6875 65.52604Q318.98438 66.05729 317.90625 66.05729Q316.54688 66.05729 315.73438 65.21354Q314.9375 64.36979 314.9375 62.854164Q314.9375 61.291664 315.75 60.43229Q316.5625 59.55729 317.84375 59.55729Q319.09375 59.55729 319.875 60.40104Q320.67188 61.24479 320.67188 62.791664Q320.67188 62.885414 320.67188 63.072914L316.03125 63.072914Q316.09375 64.104164 316.60938 64.65104Q317.125 65.18229 317.90625 65.18229Q318.48438 65.18229 318.89062 64.885414Q319.3125 64.572914 319.54688 63.916664ZM316.09375 62.21354L319.5625 62.21354Q319.5 61.416664 319.17188 61.02604Q318.65625 60.416664 317.85938 60.416664Q317.125 60.416664 316.625 60.90104Q316.14062 61.385414 316.09375 62.21354ZM322.28125 65.916664L322.28125 59.697914L323.23438 59.697914L323.23438 60.635414Q323.59375 59.979164 323.89062 59.77604Q324.20312 59.55729 324.57812 59.55729Q325.10938 59.55729 325.65625 59.885414L325.29688 60.86979Q324.90625 60.635414 324.53125 60.635414Q324.17188 60.635414 323.89062 60.854164Q323.625 61.05729 323.51562 61.43229Q323.32812 61.99479 323.32812 62.65104L323.32812 65.916664L322.28125 65.916664ZM326.29688 58.541664L326.29688 57.322914L327.35938 57.322914L327.35938 58.541664L326.29688 58.541664ZM326.29688 65.916664L326.29688 59.697914L327.35938 59.697914L327.35938 65.916664L326.29688 65.916664ZM333.54688 63.916664L334.64062 64.041664Q334.39062 64.99479 333.6875 65.52604Q332.98438 66.05729 331.90625 66.05729Q330.54688 66.05729 329.73438 65.21354Q328.9375 64.36979 328.9375 62.854164Q328.9375 61.291664 329.75 60.43229Q330.5625 59.55729 331.84375 59.55729Q333.09375 59.55729 333.875 60.40104Q334.67188 61.24479 334.67188 62.791664Q334.67188 62.885414 334.67188 63.072914L330.03125 63.072914Q330.09375 64.104164 330.60938 64.65104Q331.125 65.18229 331.90625 65.18229Q332.48438 65.18229 332.89062 64.885414Q333.3125 64.572914 333.54688 63.916664ZM330.09375 62.21354L333.5625 62.21354Q333.5 61.416664 333.17188 61.02604Q332.65625 60.416664 331.85938 60.416664Q331.125 60.416664 330.625 60.90104Q330.14062 61.385414 330.09375 62.21354ZM335.875 64.05729L336.90625 63.90104Q337.0 64.52604 337.39062 64.854164Q337.79688 65.18229 338.53125 65.18229Q339.25 65.18229 339.59375 64.90104Q339.95312 64.604164 339.95312 64.197914Q339.95312 63.83854 339.64062 63.635414Q339.42188 63.49479 338.5625 63.27604Q337.40625 62.979164 336.95312 62.77604Q336.51562 62.55729 336.28125 62.18229Q336.04688 61.80729 336.04688 61.33854Q336.04688 60.93229 336.23438 60.572914Q336.42188 60.21354 336.75 59.979164Q337.0 59.80729 337.42188 59.68229Q337.84375 59.55729 338.34375 59.55729Q339.0625 59.55729 339.60938 59.77604Q340.17188 59.979164 340.4375 60.33854Q340.70312 60.697914 340.79688 61.291664L339.76562 61.43229Q339.70312 60.96354 339.35938 60.697914Q339.03125 60.416664 338.40625 60.416664Q337.6875 60.416664 337.375 60.666664Q337.0625 60.90104 337.0625 61.229164Q337.0625 61.43229 337.1875 61.58854Q337.32812 61.760414 337.59375 61.86979Q337.75 61.93229 338.53125 62.135414Q339.65625 62.447914 340.09375 62.635414Q340.53125 62.822914 340.78125 63.18229Q341.03125 63.541664 341.03125 64.08854Q341.03125 64.61979 340.71875 65.08854Q340.42188 65.541664 339.84375 65.80729Q339.26562 66.05729 338.53125 66.05729Q337.3125 66.05729 336.67188 65.55729Q336.04688 65.041664 335.875 64.05729ZM349.96875 65.916664L348.92188 65.916664L348.92188 59.197914Q348.53125 59.55729 347.90625 59.93229Q347.29688 60.291664 346.8125 60.46354L346.8125 59.447914Q347.6875 59.02604 348.34375 58.447914Q349.01562 57.854164 349.29688 57.291664L349.96875 57.291664L349.96875 65.916664ZM356.4375 65.916664L356.4375 57.322914L360.25 57.322914Q361.40625 57.322914 362.0 57.55729Q362.59375 57.791664 362.95312 58.385414Q363.3125 58.96354 363.3125 59.666664Q363.3125 60.58854 362.71875 61.21354Q362.125 61.83854 360.89062 62.010414Q361.34375 62.229164 361.57812 62.43229Q362.07812 62.885414 362.51562 63.572914L364.01562 65.916664L362.57812 65.916664L361.45312 64.135414Q360.95312 63.354164 360.625 62.947914Q360.3125 62.541664 360.04688 62.385414Q359.79688 62.21354 359.53125 62.135414Q359.34375 62.104164 358.90625 62.104164L357.57812 62.104164L357.57812 65.916664L356.4375 65.916664ZM357.57812 61.11979L360.03125 61.11979Q360.79688 61.11979 361.23438 60.96354Q361.6875 60.791664 361.90625 60.447914Q362.14062 60.08854 362.14062 59.666664Q362.14062 59.05729 361.6875 58.666664Q361.25 58.27604 360.29688 58.27604L357.57812 58.27604L357.57812 61.11979ZM364.64062 61.61979Q364.6875 61.291664 364.92188 60.947914Q365.29688 60.447914 366.14062 59.83854Q366.98438 59.229164 367.14062 59.041664Q367.35938 58.80729 367.35938 58.55729Q367.35938 58.27604 367.14062 58.104164Q366.9375 57.916664 366.54688 57.916664Q366.15625 57.916664 365.96875 58.05729Q365.78125 58.18229 365.65625 58.572914L364.76562 58.479164Q364.9375 57.83854 365.35938 57.52604Q365.78125 57.21354 366.5625 57.21354Q367.45312 57.21354 367.85938 57.572914Q368.28125 57.916664 368.28125 58.416664Q368.28125 58.90104 367.92188 59.33854Q367.67188 59.666664 366.73438 60.33854Q366.23438 60.697914 366.03125 60.916664L368.29688 60.916664L368.29688 61.61979L364.64062 61.61979ZM377.84375 60.86979L372.17188 60.86979L372.17188 59.885414L377.84375 59.885414L377.84375 60.86979ZM377.84375 63.479164L372.17188 63.479164L372.17188 62.49479L377.84375 62.49479L377.84375 63.479164ZM382.0 61.68229Q382.0 60.15104 382.3125 59.229164Q382.625 58.291664 383.23438 57.791664Q383.85938 57.291664 384.79688 57.291664Q385.48438 57.291664 386.0 57.572914Q386.53125 57.854164 386.875 58.385414Q387.21875 58.90104 387.40625 59.65104Q387.59375 60.40104 387.59375 61.68229Q387.59375 63.197914 387.28125 64.11979Q386.98438 65.041664 386.35938 65.55729Q385.75 66.05729 384.79688 66.05729Q383.5625 66.05729 382.84375 65.166664Q382.0 64.104164 382.0 61.68229ZM383.07812 61.68229Q383.07812 63.791664 383.57812 64.49479Q384.07812 65.197914 384.79688 65.197914Q385.53125 65.197914 386.01562 64.49479Q386.51562 63.791664 386.51562 61.68229Q386.51562 59.55729 386.01562 58.86979Q385.53125 58.166664 384.78125 58.166664Q384.0625 58.166664 383.625 58.77604Q383.07812 59.55729 383.07812 61.68229ZM389.59375 65.916664L389.59375 64.71354L390.79688 64.71354L390.79688 65.916664L389.59375 65.916664ZM392.0625 58.447914L392.0625 57.43229L397.625 57.43229L397.625 58.260414Q396.8125 59.135414 396.0 60.58854Q395.20312 62.02604 394.76562 63.55729Q394.4375 64.635414 394.35938 65.916664L393.26562 65.916664Q393.28125 64.90104 393.65625 63.46354Q394.04688 62.02604 394.75 60.697914Q395.46875 59.36979 396.28125 58.447914L392.0625 58.447914ZM399.0 61.68229Q399.0 60.15104 399.3125 59.229164Q399.625 58.291664 400.23438 57.791664Q400.85938 57.291664 401.79688 57.291664Q402.48438 57.291664 403.0 57.572914Q403.53125 57.854164 403.875 58.385414Q404.21875 58.90104 404.40625 59.65104Q404.59375 60.40104 404.59375 61.68229Q404.59375 63.197914 404.28125 64.11979Q403.98438 65.041664 403.35938 65.55729Q402.75 66.05729 401.79688 66.05729Q400.5625 66.05729 399.84375 65.166664Q399.0 64.104164 399.0 61.68229ZM400.07812 61.68229Q400.07812 63.791664 400.57812 64.49479Q401.07812 65.197914 401.79688 65.197914Q402.53125 65.197914 403.01562 64.49479Q403.51562 63.791664 403.51562 61.68229Q403.51562 59.55729 403.01562 58.86979Q402.53125 58.166664 401.78125 58.166664Q401.0625 58.166664 400.625 58.77604Q400.07812 59.55729 400.07812 61.68229ZM407.625 61.260414Q406.96875 61.010414 406.64062 60.572914Q406.32812 60.11979 406.32812 59.510414Q406.32812 58.572914 407.0 57.93229Q407.6875 57.291664 408.79688 57.291664Q409.92188 57.291664 410.60938 57.947914Q411.29688 58.604164 411.29688 59.541664Q411.29688 60.135414 410.98438 60.572914Q410.67188 61.010414 410.03125 61.260414Q410.82812 61.510414 411.23438 62.08854Q411.64062 62.666664 411.64062 63.46354Q411.64062 64.55729 410.85938 65.30729Q410.09375 66.05729 408.8125 66.05729Q407.54688 66.05729 406.76562 65.30729Q405.98438 64.55729 405.98438 63.43229Q405.98438 62.58854 406.40625 62.02604Q406.84375 61.46354 407.625 61.260414ZM407.40625 59.46354Q407.40625 60.072914 407.79688 60.46354Q408.20312 60.854164 408.82812 60.854164Q409.4375 60.854164 409.82812 60.479164Q410.21875 60.08854 410.21875 59.52604Q410.21875 58.947914 409.8125 58.55729Q409.40625 58.15104 408.8125 58.15104Q408.20312 58.15104 407.79688 58.541664Q407.40625 58.93229 407.40625 59.46354ZM407.07812 63.43229Q407.07812 63.885414 407.28125 64.30729Q407.5 64.729164 407.92188 64.96354Q408.34375 65.197914 408.82812 65.197914Q409.57812 65.197914 410.0625 64.71354Q410.5625 64.229164 410.5625 63.479164Q410.5625 62.71354 410.0625 62.21354Q409.5625 61.71354 408.79688 61.71354Q408.04688 61.71354 407.5625 62.21354Q407.07812 62.697914 407.07812 63.43229Z" fill-rule="nonzero"/><path fill="#000000" d="M21.7375 28.64375L21.7375 37.55L19.925 37.55L19.925 26.9875L21.690624 26.9875L21.7375 28.64375ZM25.034374 26.925L25.01875 28.596874Q24.8 28.55 24.596874 28.534374Q24.39375 28.51875 24.14375 28.51875Q23.51875 28.51875 23.034374 28.721874Q22.565624 28.909374 22.221874 29.26875Q21.89375 29.6125 21.70625 30.096874Q21.51875 30.58125 21.45625 31.159374L20.95625 31.45625Q20.95625 30.503124 21.14375 29.659374Q21.33125 28.815624 21.721874 28.175Q22.128124 27.51875 22.753124 27.159374Q23.378124 26.784374 24.2375 26.784374Q24.425 26.784374 24.675 26.83125Q24.940624 26.878124 25.034374 26.925ZM33.159374 35.7375L33.159374 30.3Q33.159374 29.675 32.909374 29.221874Q32.659374 28.753124 32.159374 28.503124Q31.659374 28.2375 30.925 28.2375Q30.253124 28.2375 29.7375 28.471874Q29.221874 28.70625 28.925 29.096874Q28.64375 29.471874 28.64375 29.909374L26.846874 29.909374Q26.846874 29.346874 27.128124 28.8Q27.425 28.2375 27.971874 27.784374Q28.534374 27.33125 29.3 27.065624Q30.08125 26.784374 31.034374 26.784374Q32.190624 26.784374 33.065624 27.175Q33.95625 27.565624 34.45625 28.3625Q34.971874 29.14375 34.971874 30.315624L34.971874 35.2375Q34.971874 35.76875 35.05 36.3625Q35.14375 36.95625 35.33125 37.39375L35.33125 37.55L33.45625 37.55Q33.315624 37.2375 33.2375 36.721874Q33.159374 36.190624 33.159374 35.7375ZM33.471874 31.14375L33.4875 32.409374L31.659374 32.409374Q30.89375 32.409374 30.284374 32.534374Q29.675 32.659374 29.26875 32.909374Q28.8625 33.14375 28.64375 33.51875Q28.425 33.878124 28.425 34.3625Q28.425 34.8625 28.64375 35.284374Q28.878124 35.690624 29.33125 35.925Q29.784374 36.159374 30.45625 36.159374Q31.284374 36.159374 31.909374 35.815624Q32.55 35.45625 32.925 34.95625Q33.3 34.440624 33.33125 33.971874L34.1125 34.83125Q34.034374 35.2375 33.721874 35.7375Q33.425 36.2375 32.925 36.690624Q32.425 37.14375 31.7375 37.45625Q31.05 37.753124 30.190624 37.753124Q29.1125 37.753124 28.3 37.33125Q27.503124 36.909374 27.05 36.20625Q26.6125 35.4875 26.6125 34.6125Q26.6125 33.753124 26.940624 33.1125Q27.284374 32.45625 27.909374 32.034374Q28.534374 31.596874 29.409374 31.378124Q30.284374 31.14375 31.378124 31.14375L33.471874 31.14375ZM39.7375 29.2375L39.7375 37.55L37.925 37.55L37.925 26.9875L39.64375 26.9875L39.7375 29.2375ZM39.3 31.8625L38.55 31.83125Q38.565624 30.753124 38.878124 29.83125Q39.190624 28.909374 39.753124 28.221874Q40.315624 27.534374 41.096874 27.159374Q41.89375 26.784374 42.846874 26.784374Q43.628124 26.784374 44.253124 27.003124Q44.878124 27.20625 45.315624 27.675Q45.76875 28.128124 46.003124 28.8625Q46.2375 29.58125 46.2375 30.628124L46.2375 37.55L44.425 37.55L44.425 30.6125Q44.425 29.76875 44.175 29.26875Q43.940624 28.76875 43.471874 28.55Q43.003124 28.315624 42.315624 28.315624Q41.64375 28.315624 41.08125 28.596874Q40.534374 28.878124 40.128124 29.378124Q39.7375 29.878124 39.51875 30.51875Q39.3 31.159374 39.3 31.8625ZM50.7375 22.55L50.7375 37.55L48.925 37.55L48.925 22.55L50.7375 22.55ZM57.20625 26.9875L52.596874 31.909374L50.01875 34.596874L49.8625 32.659374L51.70625 30.45625L54.9875 26.9875L57.20625 26.9875ZM55.55 37.55L51.784374 32.503124L52.721874 30.89375L57.675 37.55L55.55 37.55ZM67.14375 35.925L70.03438 26.9875L71.87813 26.9875L68.08125 37.55L66.8625 37.55L67.14375 35.925ZM64.72188 26.9875L67.70625 35.971874L67.90938 37.55L66.70625 37.55L62.878124 26.9875L64.72188 26.9875ZM80.08125 34.753124Q80.08125 34.3625 79.90938 34.01875Q79.7375 33.675 79.20625 33.409374Q78.69063 33.128124 77.64375 32.925Q76.76875 32.7375 76.05 32.4875Q75.34688 32.221874 74.84688 31.8625Q74.3625 31.503124 74.09688 31.01875Q73.84688 30.534374 73.84688 29.878124Q73.84688 29.253124 74.1125 28.690624Q74.39375 28.128124 74.90938 27.70625Q75.425 27.26875 76.14375 27.034374Q76.8625 26.784374 77.75313 26.784374Q79.01875 26.784374 79.90938 27.2375Q80.81563 27.690624 81.3 28.440624Q81.78438 29.175 81.78438 30.08125L79.97188 30.08125Q79.97188 29.64375 79.70625 29.2375Q79.45625 28.815624 78.95625 28.55Q78.47188 28.26875 77.75313 28.26875Q77.00313 28.26875 76.53438 28.503124Q76.08125 28.7375 75.8625 29.096874Q75.65938 29.440624 75.65938 29.83125Q75.65938 30.1125 75.75313 30.346874Q75.8625 30.58125 76.12813 30.76875Q76.39375 30.95625 76.8625 31.128124Q77.34688 31.284374 78.08125 31.45625Q79.39375 31.753124 80.22188 32.159374Q81.06563 32.565624 81.47188 33.159374Q81.89375 33.753124 81.89375 34.6125Q81.89375 35.3 81.59688 35.878124Q81.31563 36.45625 80.76875 36.878124Q80.22188 37.284374 79.47188 37.51875Q78.7375 37.753124 77.8 37.753124Q76.40938 37.753124 75.44063 37.253124Q74.47188 36.753124 73.97188 35.95625Q73.47188 35.159374 73.47188 34.284374L75.3 34.284374Q75.33125 35.034374 75.72188 35.471874Q76.1125 35.89375 76.675 36.08125Q77.25313 36.253124 77.8 36.253124Q78.55 36.253124 79.05 36.065624Q79.55 35.8625 79.81563 35.534374Q80.08125 35.190624 80.08125 34.753124ZM83.95625 36.596874Q83.95625 36.128124 84.2375 35.815624Q84.53438 35.503124 85.08125 35.503124Q85.62813 35.503124 85.90938 35.815624Q86.20625 36.128124 86.20625 36.596874Q86.20625 37.034374 85.90938 37.3625Q85.62813 37.675 85.08125 37.675Q84.53438 37.675 84.2375 37.3625Q83.95625 37.034374 83.95625 36.596874ZM95.7375 29.01875L95.7375 41.6125L93.925 41.6125L93.925 26.9875L95.58125 26.9875L95.7375 29.01875ZM102.84688 32.175L102.84688 32.378124Q102.84688 33.534374 102.56563 34.51875Q102.3 35.503124 101.78438 36.221874Q101.26875 36.940624 100.50313 37.346874Q99.7375 37.753124 98.75313 37.753124Q97.75313 37.753124 96.97188 37.425Q96.20625 37.08125 95.65938 36.45625Q95.12813 35.815624 94.8 34.925Q94.4875 34.034374 94.37813 32.925L94.37813 31.83125Q94.4875 30.659374 94.81563 29.7375Q95.14375 28.8 95.675 28.14375Q96.20625 27.4875 96.95625 27.14375Q97.72188 26.784374 98.72188 26.784374Q99.72188 26.784374 100.4875 27.175Q101.26875 27.565624 101.78438 28.284374Q102.31563 28.9875 102.58125 29.9875Q102.84688 30.971874 102.84688 32.175ZM101.03438 32.378124L101.03438 32.175Q101.03438 31.39375 100.8625 30.690624Q100.70625 29.9875 100.3625 29.45625Q100.01875 28.925 99.47188 28.628124Q98.94063 28.315624 98.19063 28.315624Q97.51875 28.315624 97.00313 28.55Q96.50313 28.784374 96.14375 29.175Q95.8 29.565624 95.58125 30.08125Q95.3625 30.58125 95.25313 31.1125L95.25313 33.64375Q95.45625 34.33125 95.8 34.940624Q96.15938 35.534374 96.7375 35.89375Q97.33125 36.253124 98.22188 36.253124Q98.94063 36.253124 99.47188 35.95625Q100.01875 35.64375 100.3625 35.1125Q100.70625 34.565624 100.8625 33.878124Q101.03438 33.175 101.03438 32.378124ZM106.7375 28.64375L106.7375 37.55L104.925 37.55L104.925 26.9875L106.69063 26.9875L106.7375 28.64375ZM110.03438 26.925L110.01875 28.596874Q109.8 28.55 109.59688 28.534374Q109.39375 28.51875 109.14375 28.51875Q108.51875 28.51875 108.03438 28.721874Q107.56563 28.909374 107.22188 29.26875Q106.89375 29.6125 106.70625 30.096874Q106.51875 30.58125 106.45625 31.159374L105.95625 31.45625Q105.95625 30.503124 106.14375 29.659374Q106.33125 28.815624 106.72188 28.175Q107.12813 27.51875 107.75313 27.159374Q108.37813 26.784374 109.2375 26.784374Q109.425 26.784374 109.675 26.83125Q109.94063 26.878124 110.03438 26.925ZM113.89375 26.9875L113.89375 37.55L112.08125 37.55L112.08125 26.9875L113.89375 26.9875ZM111.94063 24.175Q111.94063 23.7375 112.20625 23.440624Q112.47188 23.128124 113.00313 23.128124Q113.51875 23.128124 113.8 23.440624Q114.08125 23.7375 114.08125 24.175Q114.08125 24.596874 113.8 24.89375Q113.51875 25.190624 113.00313 25.190624Q112.47188 25.190624 112.20625 24.89375Q111.94063 24.596874 111.94063 24.175ZM121.15938 36.253124Q121.8 36.253124 122.34688 36.003124Q122.89375 35.7375 123.2375 35.26875Q123.59688 34.8 123.64375 34.20625L125.3625 34.20625Q125.31563 35.14375 124.7375 35.95625Q124.15938 36.753124 123.22188 37.253124Q122.28438 37.753124 121.15938 37.753124Q119.97188 37.753124 119.08125 37.33125Q118.19063 36.909374 117.6125 36.175Q117.03438 35.440624 116.7375 34.4875Q116.45625 33.534374 116.45625 32.471874L116.45625 32.065624Q116.45625 31.003124 116.7375 30.05Q117.03438 29.096874 117.6125 28.3625Q118.19063 27.628124 119.08125 27.20625Q119.97188 26.784374 121.15938 26.784374Q122.39375 26.784374 123.31563 27.3Q124.25313 27.8 124.78438 28.659374Q125.31563 29.51875 125.3625 30.6125L123.64375 30.6125Q123.59688 29.95625 123.26875 29.440624Q122.95625 28.909374 122.40938 28.596874Q121.87813 28.26875 121.15938 28.26875Q120.33125 28.26875 119.76875 28.596874Q119.20625 28.925 118.87813 29.4875Q118.55 30.034374 118.40938 30.70625Q118.26875 31.3625 118.26875 32.065624L118.26875 32.471874Q118.26875 33.159374 118.39375 33.846874Q118.53438 34.51875 118.8625 35.065624Q119.19063 35.6125 119.75313 35.940624Q120.31563 36.253124 121.15938 36.253124ZM131.31563 37.753124Q130.20625 37.753124 129.31563 37.378124Q128.425 36.9875 127.78438 36.315624Q127.14375 35.628124 126.8 34.690624Q126.45625 33.753124 126.45625 32.64375L126.45625 32.221874Q126.45625 30.940624 126.83125 29.925Q127.22188 28.909374 127.87813 28.20625Q128.53438 27.503124 129.3625 27.14375Q130.19063 26.784374 131.08125 26.784374Q132.20625 26.784374 133.03438 27.175Q133.8625 27.565624 134.37813 28.26875Q134.90938 28.971874 135.15938 29.909374Q135.425 30.846874 135.425 31.95625L135.425 32.76875L127.53438 32.76875L127.53438 31.3L133.6125 31.3L133.6125 31.159374Q133.58125 30.45625 133.33125 29.8Q133.08125 29.128124 132.53438 28.70625Q132.00313 28.26875 131.08125 28.26875Q130.45625 28.26875 129.94063 28.534374Q129.425 28.784374 129.05 29.3Q128.69063 29.8 128.47188 30.534374Q128.26875 31.26875 128.26875 32.221874L128.26875 32.64375Q128.26875 33.39375 128.47188 34.05Q128.69063 34.70625 129.09688 35.20625Q129.50313 35.70625 130.08125 35.9875Q130.675 36.26875 131.40938 36.26875Q132.3625 36.26875 133.01875 35.878124Q133.69063 35.4875 134.19063 34.83125L135.28438 35.70625Q134.94063 36.221874 134.40938 36.690624Q133.89375 37.159374 133.12813 37.45625Q132.3625 37.753124 131.31563 37.753124ZM147.31563 37.753124Q146.20625 37.753124 145.31563 37.378124Q144.425 36.9875 143.78438 36.315624Q143.14375 35.628124 142.8 34.690624Q142.45625 33.753124 142.45625 32.64375L142.45625 32.221874Q142.45625 30.940624 142.83125 29.925Q143.22188 28.909374 143.87813 28.20625Q144.53438 27.503124 145.3625 27.14375Q146.19063 26.784374 147.08125 26.784374Q148.20625 26.784374 149.03438 27.175Q149.8625 27.565624 150.37813 28.26875Q150.90938 28.971874 151.15938 29.909374Q151.425 30.846874 151.425 31.95625L151.425 32.76875L143.53438 32.76875L143.53438 31.3L149.6125 31.3L149.6125 31.159374Q149.58125 30.45625 149.33125 29.8Q149.08125 29.128124 148.53438 28.70625Q148.00313 28.26875 147.08125 28.26875Q146.45625 28.26875 145.94063 28.534374Q145.425 28.784374 145.05 29.3Q144.69063 29.8 144.47188 30.534374Q144.26875 31.26875 144.26875 32.221874L144.26875 32.64375Q144.26875 33.39375 144.47188 34.05Q144.69063 34.70625 145.09688 35.20625Q145.50313 35.70625 146.08125 35.9875Q146.675 36.26875 147.40938 36.26875Q148.3625 36.26875 149.01875 35.878124Q149.69063 35.4875 150.19063 34.83125L151.28438 35.70625Q150.94063 36.221874 150.40938 36.690624Q149.89375 37.159374 149.12813 37.45625Q148.3625 37.753124 147.31563 37.753124ZM156.62813 37.55L154.81563 37.55L154.81563 25.8625Q154.81563 24.721874 155.22188 23.940624Q155.64375 23.159374 156.425 22.753124Q157.20625 22.346874 158.28438 22.346874Q158.59688 22.346874 158.90938 22.39375Q159.2375 22.425 159.53438 22.503124L159.44063 23.971874Q159.2375 23.925 158.97188 23.909374Q158.70625 23.89375 158.45625 23.89375Q157.87813 23.89375 157.45625 24.128124Q157.05 24.346874 156.83125 24.784374Q156.62813 25.221874 156.62813 25.8625L156.62813 37.55ZM158.8625 26.9875L158.8625 28.3625L153.14375 28.3625L153.14375 26.9875L158.8625 26.9875ZM163.62813 37.55L161.81563 37.55L161.81563 25.8625Q161.81563 24.721874 162.22188 23.940624Q162.64375 23.159374 163.425 22.753124Q164.20625 22.346874 165.28438 22.346874Q165.59688 22.346874 165.90938 22.39375Q166.2375 22.425 166.53438 22.503124L166.44063 23.971874Q166.2375 23.925 165.97188 23.909374Q165.70625 23.89375 165.45625 23.89375Q164.87813 23.89375 164.45625 24.128124Q164.05 24.346874 163.83125 24.784374Q163.62813 25.221874 163.62813 25.8625L163.62813 37.55ZM165.8625 26.9875L165.8625 28.3625L160.14375 28.3625L160.14375 26.9875L165.8625 26.9875ZM169.89375 26.9875L169.89375 37.55L168.08125 37.55L168.08125 26.9875L169.89375 26.9875ZM167.94063 24.175Q167.94063 23.7375 168.20625 23.440624Q168.47188 23.128124 169.00313 23.128124Q169.51875 23.128124 169.8 23.440624Q170.08125 23.7375 170.08125 24.175Q170.08125 24.596874 169.8 24.89375Q169.51875 25.190624 169.00313 25.190624Q168.47188 25.190624 168.20625 24.89375Q167.94063 24.596874 167.94063 24.175ZM177.15938 36.253124Q177.8 36.253124 178.34688 36.003124Q178.89375 35.7375 179.2375 35.26875Q179.59688 34.8 179.64375 34.20625L181.3625 34.20625Q181.31563 35.14375 180.7375 35.95625Q180.15938 36.753124 179.22188 37.253124Q178.28438 37.753124 177.15938 37.753124Q175.97188 37.753124 175.08125 37.33125Q174.19063 36.909374 173.6125 36.175Q173.03438 35.440624 172.7375 34.4875Q172.45625 33.534374 172.45625 32.471874L172.45625 32.065624Q172.45625 31.003124 172.7375 30.05Q173.03438 29.096874 173.6125 28.3625Q174.19063 27.628124 175.08125 27.20625Q175.97188 26.784374 177.15938 26.784374Q178.39375 26.784374 179.31563 27.3Q180.25313 27.8 180.78438 28.659374Q181.31563 29.51875 181.3625 30.6125L179.64375 30.6125Q179.59688 29.95625 179.26875 29.440624Q178.95625 28.909374 178.40938 28.596874Q177.87813 28.26875 177.15938 28.26875Q176.33125 28.26875 175.76875 28.596874Q175.20625 28.925 174.87813 29.4875Q174.55 30.034374 174.40938 30.70625Q174.26875 31.3625 174.26875 32.065624L174.26875 32.471874Q174.26875 33.159374 174.39375 33.846874Q174.53438 34.51875 174.8625 35.065624Q175.19063 35.6125 175.75313 35.940624Q176.31563 36.253124 177.15938 36.253124ZM184.89375 26.9875L184.89375 37.55L183.08125 37.55L183.08125 26.9875L184.89375 26.9875ZM182.94063 24.175Q182.94063 23.7375 183.20625 23.440624Q183.47188 23.128124 184.00313 23.128124Q184.51875 23.128124 184.8 23.440624Q185.08125 23.7375 185.08125 24.175Q185.08125 24.596874 184.8 24.89375Q184.51875 25.190624 184.00313 25.190624Q183.47188 25.190624 183.20625 24.89375Q182.94063 24.596874 182.94063 24.175ZM192.31563 37.753124Q191.20625 37.753124 190.31563 37.378124Q189.425 36.9875 188.78438 36.315624Q188.14375 35.628124 187.8 34.690624Q187.45625 33.753124 187.45625 32.64375L187.45625 32.221874Q187.45625 30.940624 187.83125 29.925Q188.22188 28.909374 188.87813 28.20625Q189.53438 27.503124 190.3625 27.14375Q191.19063 26.784374 192.08125 26.784374Q193.20625 26.784374 194.03438 27.175Q194.8625 27.565624 195.37813 28.26875Q195.90938 28.971874 196.15938 29.909374Q196.425 30.846874 196.425 31.95625L196.425 32.76875L188.53438 32.76875L188.53438 31.3L194.6125 31.3L194.6125 31.159374Q194.58125 30.45625 194.33125 29.8Q194.08125 29.128124 193.53438 28.70625Q193.00313 28.26875 192.08125 28.26875Q191.45625 28.26875 190.94063 28.534374Q190.425 28.784374 190.05 29.3Q189.69063 29.8 189.47188 30.534374Q189.26875 31.26875 189.26875 32.221874L189.26875 32.64375Q189.26875 33.39375 189.47188 34.05Q189.69063 34.70625 190.09688 35.20625Q190.50313 35.70625 191.08125 35.9875Q191.675 36.26875 192.40938 36.26875Q193.3625 36.26875 194.01875 35.878124Q194.69063 35.4875 195.19063 34.83125L196.28438 35.70625Q195.94063 36.221874 195.40938 36.690624Q194.89375 37.159374 194.12813 37.45625Q193.3625 37.753124 192.31563 37.753124ZM200.7375 29.2375L200.7375 37.55L198.925 37.55L198.925 26.9875L200.64375 26.9875L200.7375 29.2375ZM200.3 31.8625L199.55 31.83125Q199.56563 30.753124 199.87813 29.83125Q200.19063 28.909374 200.75313 28.221874Q201.31563 27.534374 202.09688 27.159374Q202.89375 26.784374 203.84688 26.784374Q204.62813 26.784374 205.25313 27.003124Q205.87813 27.20625 206.31563 27.675Q206.76875 28.128124 207.00313 28.8625Q207.2375 29.58125 207.2375 30.628124L207.2375 37.55L205.425 37.55L205.425 30.6125Q205.425 29.76875 205.175 29.26875Q204.94063 28.76875 204.47188 28.55Q204.00313 28.315624 203.31563 28.315624Q202.64375 28.315624 202.08125 28.596874Q201.53438 28.878124 201.12813 29.378124Q200.7375 29.878124 200.51875 30.51875Q200.3 31.159374 200.3 31.8625ZM214.15938 36.253124Q214.8 36.253124 215.34688 36.003124Q215.89375 35.7375 216.2375 35.26875Q216.59688 34.8 216.64375 34.20625L218.3625 34.20625Q218.31563 35.14375 217.7375 35.95625Q217.15938 36.753124 216.22188 37.253124Q215.28438 37.753124 214.15938 37.753124Q212.97188 37.753124 212.08125 37.33125Q211.19063 36.909374 210.6125 36.175Q210.03438 35.440624 209.7375 34.4875Q209.45625 33.534374 209.45625 32.471874L209.45625 32.065624Q209.45625 31.003124 209.7375 30.05Q210.03438 29.096874 210.6125 28.3625Q211.19063 27.628124 212.08125 27.20625Q212.97188 26.784374 214.15938 26.784374Q215.39375 26.784374 216.31563 27.3Q217.25313 27.8 217.78438 28.659374Q218.31563 29.51875 218.3625 30.6125L216.64375 30.6125Q216.59688 29.95625 216.26875 29.440624Q215.95625 28.909374 215.40938 28.596874Q214.87813 28.26875 214.15938 28.26875Q213.33125 28.26875 212.76875 28.596874Q212.20625 28.925 211.87813 29.4875Q211.55 30.034374 211.40938 30.70625Q211.26875 31.3625 211.26875 32.065624L211.26875 32.471874Q211.26875 33.159374 211.39375 33.846874Q211.53438 34.51875 211.8625 35.065624Q212.19063 35.6125 212.75313 35.940624Q213.31563 36.253124 214.15938 36.253124ZM222.89375 36.45625L225.83125 26.9875L227.76875 26.9875L223.53438 39.175Q223.37813 39.565624 223.14375 40.01875Q222.90938 40.4875 222.53438 40.89375Q222.15938 41.3 221.62813 41.55Q221.1125 41.815624 220.39375 41.815624Q220.175 41.815624 219.84688 41.753124Q219.51875 41.70625 219.37813 41.659374L219.37813 40.190624Q219.45625 40.20625 219.6125 40.221874Q219.78438 40.2375 219.8625 40.2375Q220.47188 40.2375 220.89375 40.065624Q221.33125 39.909374 221.62813 39.534374Q221.925 39.159374 222.14375 38.503124L222.89375 36.45625ZM220.7375 26.9875L223.4875 35.190624L223.95625 37.096874L222.65938 37.753124L218.76875 26.9875L220.7375 26.9875ZM233.8625 31.8625L233.8625 31.76875Q233.8625 29.64375 234.33125 27.925Q234.81563 26.190624 235.55 24.89375Q236.3 23.596874 237.1125 22.7375Q237.94063 21.878124 238.62813 21.503124L239.01875 22.690624Q238.44063 23.128124 237.84688 23.909374Q237.25313 24.675 236.75313 25.8Q236.26875 26.925 235.95625 28.409374Q235.65938 29.89375 235.65938 31.753124L235.65938 31.878124Q235.65938 33.7375 235.95625 35.2375Q236.26875 36.721874 236.75313 37.846874Q237.25313 38.9875 237.84688 39.784374Q238.44063 40.58125 239.01875 41.05L238.62813 42.14375Q237.94063 41.753124 237.1125 40.89375Q236.3 40.05 235.55 38.753124Q234.81563 37.45625 234.33125 35.7375Q233.8625 34.003124 233.8625 31.8625ZM245.15938 36.253124Q245.8 36.253124 246.34688 36.003124Q246.89375 35.7375 247.2375 35.26875Q247.59688 34.8 247.64375 34.20625L249.3625 34.20625Q249.31563 35.14375 248.7375 35.95625Q248.15938 36.753124 247.22188 37.253124Q246.28438 37.753124 245.15938 37.753124Q243.97188 37.753124 243.08125 37.33125Q242.19063 36.909374 241.6125 36.175Q241.03438 35.440624 240.7375 34.4875Q240.45625 33.534374 240.45625 32.471874L240.45625 32.065624Q240.45625 31.003124 240.7375 30.05Q241.03438 29.096874 241.6125 28.3625Q242.19063 27.628124 243.08125 27.20625Q243.97188 26.784374 245.15938 26.784374Q246.39375 26.784374 247.31563 27.3Q248.25313 27.8 248.78438 28.659374Q249.31563 29.51875 249.3625 30.6125L247.64375 30.6125Q247.59688 29.95625 247.26875 29.440624Q246.95625 28.909374 246.40938 28.596874Q245.87813 28.26875 245.15938 28.26875Q244.33125 28.26875 243.76875 28.596874Q243.20625 28.925 242.87813 29.4875Q242.55 30.034374 242.40938 30.70625Q242.26875 31.3625 242.26875 32.065624L242.26875 32.471874Q242.26875 33.159374 242.39375 33.846874Q242.53438 34.51875 242.8625 35.065624Q243.19063 35.6125 243.75313 35.940624Q244.31563 36.253124 245.15938 36.253124ZM250.45625 32.378124L250.45625 32.159374Q250.45625 31.01875 250.78438 30.034374Q251.1125 29.05 251.7375 28.33125Q252.3625 27.596874 253.25313 27.190624Q254.14375 26.784374 255.2375 26.784374Q256.3625 26.784374 257.2531 27.190624Q258.14374 27.596874 258.76874 28.33125Q259.40936 29.05 259.7375 30.034374Q260.0656 31.01875 260.0656 32.159374L260.0656 32.378124Q260.0656 33.51875 259.7375 34.503124Q259.40936 35.471874 258.76874 36.20625Q258.14374 36.940624 257.2531 37.346874Q256.3781 37.753124 255.26875 37.753124Q254.14375 37.753124 253.25313 37.346874Q252.37813 36.940624 251.7375 36.20625Q251.1125 35.471874 250.78438 34.503124Q250.45625 33.51875 250.45625 32.378124ZM252.25313 32.159374L252.25313 32.378124Q252.25313 33.175 252.44063 33.878124Q252.62813 34.565624 253.00313 35.1125Q253.37813 35.64375 253.94063 35.95625Q254.51875 36.253124 255.26875 36.253124Q256.0031 36.253124 256.5656 35.95625Q257.1281 35.64375 257.5031 35.1125Q257.8781 34.565624 258.0656 33.878124Q258.2531 33.175 258.2531 32.378124L258.2531 32.159374Q258.2531 31.378124 258.0656 30.690624Q257.8781 29.9875 257.4875 29.440624Q257.1125 28.89375 256.55 28.58125Q256.0031 28.26875 255.2375 28.26875Q254.50313 28.26875 253.94063 28.58125Q253.37813 28.89375 253.00313 29.440624Q252.62813 29.9875 252.44063 30.690624Q252.25313 31.378124 252.25313 32.159374ZM268.08124 34.753124Q268.08124 34.3625 267.90936 34.01875Q267.7375 33.675 267.20624 33.409374Q266.6906 33.128124 265.64374 32.925Q264.76874 32.7375 264.05 32.4875Q263.34686 32.221874 262.84686 31.8625Q262.3625 31.503124 262.09686 31.01875Q261.84686 30.534374 261.84686 29.878124Q261.84686 29.253124 262.1125 28.690624Q262.39374 28.128124 262.90936 27.70625Q263.425 27.26875 264.14374 27.034374Q264.8625 26.784374 265.7531 26.784374Q267.01874 26.784374 267.90936 27.2375Q268.8156 27.690624 269.3 28.440624Q269.78436 29.175 269.78436 30.08125L267.97186 30.08125Q267.97186 29.64375 267.70624 29.2375Q267.45624 28.815624 266.95624 28.55Q266.47186 28.26875 265.7531 28.26875Q265.0031 28.26875 264.53436 28.503124Q264.08124 28.7375 263.8625 29.096874Q263.65936 29.440624 263.65936 29.83125Q263.65936 30.1125 263.7531 30.346874Q263.8625 30.58125 264.1281 30.76875Q264.39374 30.95625 264.8625 31.128124Q265.34686 31.284374 266.08124 31.45625Q267.39374 31.753124 268.22186 32.159374Q269.0656 32.565624 269.47186 33.159374Q269.89374 33.753124 269.89374 34.6125Q269.89374 35.3 269.59686 35.878124Q269.3156 36.45625 268.76874 36.878124Q268.22186 37.284374 267.47186 37.51875Q266.7375 37.753124 265.8 37.753124Q264.40936 37.753124 263.4406 37.253124Q262.47186 36.753124 261.97186 35.95625Q261.47186 35.159374 261.47186 34.284374L263.3 34.284374Q263.33124 35.034374 263.72186 35.471874Q264.1125 35.89375 264.675 36.08125Q265.2531 36.253124 265.8 36.253124Q266.55 36.253124 267.05 36.065624Q267.55 35.8625 267.8156 35.534374Q268.08124 35.190624 268.08124 34.753124ZM276.34686 26.9875L276.34686 28.3625L270.64374 28.3625L270.64374 26.9875L276.34686 26.9875ZM272.5656 24.409374L274.3781 24.409374L274.3781 34.925Q274.3781 35.471874 274.53436 35.753124Q274.70624 36.01875 274.97186 36.1125Q275.2375 36.190624 275.53436 36.190624Q275.76874 36.190624 276.01874 36.14375Q276.26874 36.096874 276.39374 36.08125L276.39374 37.55Q276.1906 37.6125 275.83124 37.675Q275.4875 37.753124 275.0031 37.753124Q274.34686 37.753124 273.78436 37.4875Q273.22186 37.221874 272.89374 36.596874Q272.5656 35.971874 272.5656 34.925L272.5656 24.409374ZM282.6906 30.76875L282.6906 32.253124L277.925 32.253124L277.925 30.76875L282.6906 30.76875ZM286.7375 28.64375L286.7375 37.55L284.925 37.55L284.925 26.9875L286.6906 26.9875L286.7375 28.64375ZM290.03436 26.925L290.01874 28.596874Q289.8 28.55 289.59686 28.534374Q289.39374 28.51875 289.14374 28.51875Q288.51874 28.51875 288.03436 28.721874Q287.5656 28.909374 287.22186 29.26875Q286.89374 29.6125 286.70624 30.096874Q286.51874 30.58125 286.45624 31.159374L285.95624 31.45625Q285.95624 30.503124 286.14374 29.659374Q286.33124 28.815624 286.72186 28.175Q287.1281 27.51875 287.7531 27.159374Q288.3781 26.784374 289.2375 26.784374Q289.425 26.784374 289.675 26.83125Q289.9406 26.878124 290.03436 26.925ZM298.15936 35.7375L298.15936 30.3Q298.15936 29.675 297.90936 29.221874Q297.65936 28.753124 297.15936 28.503124Q296.65936 28.2375 295.925 28.2375Q295.2531 28.2375 294.7375 28.471874Q294.22186 28.70625 293.925 29.096874Q293.64374 29.471874 293.64374 29.909374L291.84686 29.909374Q291.84686 29.346874 292.1281 28.8Q292.425 28.2375 292.97186 27.784374Q293.53436 27.33125 294.3 27.065624Q295.08124 26.784374 296.03436 26.784374Q297.1906 26.784374 298.0656 27.175Q298.95624 27.565624 299.45624 28.3625Q299.97186 29.14375 299.97186 30.315624L299.97186 35.2375Q299.97186 35.76875 300.05 36.3625Q300.14374 36.95625 300.33124 37.39375L300.33124 37.55L298.45624 37.55Q298.3156 37.2375 298.2375 36.721874Q298.15936 36.190624 298.15936 35.7375ZM298.47186 31.14375L298.4875 32.409374L296.65936 32.409374Q295.89374 32.409374 295.28436 32.534374Q294.675 32.659374 294.26874 32.909374Q293.8625 33.14375 293.64374 33.51875Q293.425 33.878124 293.425 34.3625Q293.425 34.8625 293.64374 35.284374Q293.8781 35.690624 294.33124 35.925Q294.78436 36.159374 295.45624 36.159374Q296.28436 36.159374 296.90936 35.815624Q297.55 35.45625 297.925 34.95625Q298.3 34.440624 298.33124 33.971874L299.1125 34.83125Q299.03436 35.2375 298.72186 35.7375Q298.425 36.2375 297.925 36.690624Q297.425 37.14375 296.7375 37.45625Q296.05 37.753124 295.1906 37.753124Q294.1125 37.753124 293.3 37.33125Q292.5031 36.909374 292.05 36.20625Q291.6125 35.4875 291.6125 34.6125Q291.6125 33.753124 291.9406 33.1125Q292.28436 32.45625 292.90936 32.034374Q293.53436 31.596874 294.40936 31.378124Q295.28436 31.14375 296.3781 31.14375L298.47186 31.14375ZM304.7375 29.2375L304.7375 37.55L302.925 37.55L302.925 26.9875L304.64374 26.9875L304.7375 29.2375ZM304.3 31.8625L303.55 31.83125Q303.5656 30.753124 303.8781 29.83125Q304.1906 28.909374 304.7531 28.221874Q305.3156 27.534374 306.09686 27.159374Q306.89374 26.784374 307.84686 26.784374Q308.6281 26.784374 309.2531 27.003124Q309.8781 27.20625 310.3156 27.675Q310.76874 28.128124 311.0031 28.8625Q311.2375 29.58125 311.2375 30.628124L311.2375 37.55L309.425 37.55L309.425 30.6125Q309.425 29.76875 309.175 29.26875Q308.9406 28.76875 308.47186 28.55Q308.0031 28.315624 307.3156 28.315624Q306.64374 28.315624 306.08124 28.596874Q305.53436 28.878124 305.1281 29.378124Q304.7375 29.878124 304.51874 30.51875Q304.3 31.159374 304.3 31.8625ZM315.7375 22.55L315.7375 37.55L313.925 37.55L313.925 22.55L315.7375 22.55ZM322.20624 26.9875L317.59686 31.909374L315.01874 34.596874L314.8625 32.659374L316.70624 30.45625L319.9875 26.9875L322.20624 26.9875ZM320.55 37.55L316.78436 32.503124L317.72186 30.89375L322.675 37.55L320.55 37.55ZM335.08124 34.753124Q335.08124 34.3625 334.90936 34.01875Q334.7375 33.675 334.20624 33.409374Q333.6906 33.128124 332.64374 32.925Q331.76874 32.7375 331.05 32.4875Q330.34686 32.221874 329.84686 31.8625Q329.3625 31.503124 329.09686 31.01875Q328.84686 30.534374 328.84686 29.878124Q328.84686 29.253124 329.1125 28.690624Q329.39374 28.128124 329.90936 27.70625Q330.425 27.26875 331.14374 27.034374Q331.8625 26.784374 332.7531 26.784374Q334.01874 26.784374 334.90936 27.2375Q335.8156 27.690624 336.3 28.440624Q336.78436 29.175 336.78436 30.08125L334.97186 30.08125Q334.97186 29.64375 334.70624 29.2375Q334.45624 28.815624 333.95624 28.55Q333.47186 28.26875 332.7531 28.26875Q332.0031 28.26875 331.53436 28.503124Q331.08124 28.7375 330.8625 29.096874Q330.65936 29.440624 330.65936 29.83125Q330.65936 30.1125 330.7531 30.346874Q330.8625 30.58125 331.1281 30.76875Q331.39374 30.95625 331.8625 31.128124Q332.34686 31.284374 333.08124 31.45625Q334.39374 31.753124 335.22186 32.159374Q336.0656 32.565624 336.47186 33.159374Q336.89374 33.753124 336.89374 34.6125Q336.89374 35.3 336.59686 35.878124Q336.3156 36.45625 335.76874 36.878124Q335.22186 37.284374 334.47186 37.51875Q333.7375 37.753124 332.8 37.753124Q331.40936 37.753124 330.4406 37.253124Q329.47186 36.753124 328.97186 35.95625Q328.47186 35.159374 328.47186 34.284374L330.3 34.284374Q330.33124 35.034374 330.72186 35.471874Q331.1125 35.89375 331.675 36.08125Q332.2531 36.253124 332.8 36.253124Q333.55 36.253124 334.05 36.065624Q334.55 35.8625 334.8156 35.534374Q335.08124 35.190624 335.08124 34.753124ZM343.15936 36.253124Q343.8 36.253124 344.34686 36.003124Q344.89374 35.7375 345.2375 35.26875Q345.59686 34.8 345.64374 34.20625L347.3625 34.20625Q347.3156 35.14375 346.7375 35.95625Q346.15936 36.753124 345.22186 37.253124Q344.28436 37.753124 343.15936 37.753124Q341.97186 37.753124 341.08124 37.33125Q340.1906 36.909374 339.6125 36.175Q339.03436 35.440624 338.7375 34.4875Q338.45624 33.534374 338.45624 32.471874L338.45624 32.065624Q338.45624 31.003124 338.7375 30.05Q339.03436 29.096874 339.6125 28.3625Q340.1906 27.628124 341.08124 27.20625Q341.97186 26.784374 343.15936 26.784374Q344.39374 26.784374 345.3156 27.3Q346.2531 27.8 346.78436 28.659374Q347.3156 29.51875 347.3625 30.6125L345.64374 30.6125Q345.59686 29.95625 345.26874 29.440624Q344.95624 28.909374 344.40936 28.596874Q343.8781 28.26875 343.15936 28.26875Q342.33124 28.26875 341.76874 28.596874Q341.20624 28.925 340.8781 29.4875Q340.55 30.034374 340.40936 30.70625Q340.26874 31.3625 340.26874 32.065624L340.26874 32.471874Q340.26874 33.159374 340.39374 33.846874Q340.53436 34.51875 340.8625 35.065624Q341.1906 35.6125 341.7531 35.940624Q342.3156 36.253124 343.15936 36.253124ZM348.45624 32.378124L348.45624 32.159374Q348.45624 31.01875 348.78436 30.034374Q349.1125 29.05 349.7375 28.33125Q350.3625 27.596874 351.2531 27.190624Q352.14374 26.784374 353.2375 26.784374Q354.3625 26.784374 355.2531 27.190624Q356.14374 27.596874 356.76874 28.33125Q357.40936 29.05 357.7375 30.034374Q358.0656 31.01875 358.0656 32.159374L358.0656 32.378124Q358.0656 33.51875 357.7375 34.503124Q357.40936 35.471874 356.76874 36.20625Q356.14374 36.940624 355.2531 37.346874Q354.3781 37.753124 353.26874 37.753124Q352.14374 37.753124 351.2531 37.346874Q350.3781 36.940624 349.7375 36.20625Q349.1125 35.471874 348.78436 34.503124Q348.45624 33.51875 348.45624 32.378124ZM350.2531 32.159374L350.2531 32.378124Q350.2531 33.175 350.4406 33.878124Q350.6281 34.565624 351.0031 35.1125Q351.3781 35.64375 351.9406 35.95625Q352.51874 36.253124 353.26874 36.253124Q354.0031 36.253124 354.5656 35.95625Q355.1281 35.64375 355.5031 35.1125Q355.8781 34.565624 356.0656 33.878124Q356.2531 33.175 356.2531 32.378124L356.2531 32.159374Q356.2531 31.378124 356.0656 30.690624Q355.8781 29.9875 355.4875 29.440624Q355.1125 28.89375 354.55 28.58125Q354.0031 28.26875 353.2375 28.26875Q352.5031 28.26875 351.9406 28.58125Q351.3781 28.89375 351.0031 29.440624Q350.6281 29.9875 350.4406 30.690624Q350.2531 31.378124 350.2531 32.159374ZM361.7375 28.64375L361.7375 37.55L359.925 37.55L359.925 26.9875L361.6906 26.9875L361.7375 28.64375ZM365.03436 26.925L365.01874 28.596874Q364.8 28.55 364.59686 28.534374Q364.39374 28.51875 364.14374 28.51875Q363.51874 28.51875 363.03436 28.721874Q362.5656 28.909374 362.22186 29.26875Q361.89374 29.6125 361.70624 30.096874Q361.51874 30.58125 361.45624 31.159374L360.95624 31.45625Q360.95624 30.503124 361.14374 29.659374Q361.33124 28.815624 361.72186 28.175Q362.1281 27.51875 362.7531 27.159374Q363.3781 26.784374 364.2375 26.784374Q364.425 26.784374 364.675 26.83125Q364.9406 26.878124 365.03436 26.925ZM371.3156 37.753124Q370.20624 37.753124 369.3156 37.378124Q368.425 36.9875 367.78436 36.315624Q367.14374 35.628124 366.8 34.690624Q366.45624 33.753124 366.45624 32.64375L366.45624 32.221874Q366.45624 30.940624 366.83124 29.925Q367.22186 28.909374 367.8781 28.20625Q368.53436 27.503124 369.3625 27.14375Q370.1906 26.784374 371.08124 26.784374Q372.20624 26.784374 373.03436 27.175Q373.8625 27.565624 374.3781 28.26875Q374.90936 28.971874 375.15936 29.909374Q375.425 30.846874 375.425 31.95625L375.425 32.76875L367.53436 32.76875L367.53436 31.3L373.6125 31.3L373.6125 31.159374Q373.58124 30.45625 373.33124 29.8Q373.08124 29.128124 372.53436 28.70625Q372.0031 28.26875 371.08124 28.26875Q370.45624 28.26875 369.9406 28.534374Q369.425 28.784374 369.05 29.3Q368.6906 29.8 368.47186 30.534374Q368.26874 31.26875 368.26874 32.221874L368.26874 32.64375Q368.26874 33.39375 368.47186 34.05Q368.6906 34.70625 369.09686 35.20625Q369.5031 35.70625 370.08124 35.9875Q370.675 36.26875 371.40936 36.26875Q372.3625 36.26875 373.01874 35.878124Q373.6906 35.4875 374.1906 34.83125L375.28436 35.70625Q374.9406 36.221874 374.40936 36.690624Q373.89374 37.159374 373.1281 37.45625Q372.3625 37.753124 371.3156 37.753124ZM382.08124 31.76875L382.08124 31.8625Q382.08124 34.003124 381.59686 35.7375Q381.1281 37.45625 380.3781 38.753124Q379.64374 40.05 378.8156 40.89375Q378.0031 41.753124 377.3156 42.14375L376.925 41.05Q377.5031 40.6125 378.08124 39.815624Q378.675 39.034374 379.175 37.878124Q379.675 36.7375 379.97186 35.2375Q380.28436 33.7375 380.28436 31.878124L380.28436 31.753124Q380.28436 29.89375 379.95624 28.39375Q379.64374 26.89375 379.1281 25.753124Q378.6125 24.6125 378.03436 23.83125Q377.45624 23.034374 376.925 22.6125L377.3156 21.503124Q378.0031 21.878124 378.8156 22.7375Q379.64374 23.596874 380.3781 24.89375Q381.1281 26.190624 381.59686 27.925Q382.08124 29.64375 382.08124 31.76875Z" fill-rule="nonzero"/></svg>