<svg version="1.1" viewBox="0.0 0.0 600.0 371.0" fill="none" stroke="none" stroke-linecap="square" stroke-miterlimit="10" width="600" height="371" xmlns:xlink="http://www.w3.org/1999/xlink" xmlns="http://www.w3.org/2000/svg"><path fill="#ffffff" d="M0 0L600.0 0L600.0 371.0L0 371.0L0 0Z" fill-rule="nonzero"/><path stroke="#000000" stroke-width="1.0" stroke-linecap="butt" stroke-opacity="0.0" d="M60.5 88.5L60.5 326.5" fill-rule="nonzero"/><path stroke="#000000" stroke-width="1.0" stroke-linecap="butt" stroke-opacity="0.0" d="M97.5 88.5L97.5 326.5" fill-rule="nonzero"/><path stroke="#000000" stroke-width="1.0" stroke-linecap="butt" stroke-opacity="0.0" d="M172.5 88.5L172.5 326.5" fill-rule="nonzero"/><path stroke="#000000" stroke-width="1.0" stroke-linecap="butt" stroke-opacity="0.0" d="M209.5 88.5L209.5 326.5" fill-rule="nonzero"/><path stroke="#000000" stroke-width="1.0" stroke-linecap="butt" stroke-opacity="0.0" d="M283.5 88.5L283.5 326.5" fill-rule="nonzero"/><path stroke="#000000" stroke-width="1.0" stroke-linecap="butt" stroke-opacity="0.0" d="M321.5 88.5L321.5 326.5" fill-rule="nonzero"/><path stroke="#000000" stroke-width="1.0" stroke-linecap="butt" stroke-opacity="0.0" d="M395.5 88.5L395.5 326.5" fill-rule="nonzero"/><path stroke="#000000" stroke-width="1.0" stroke-linecap="butt" stroke-opacity="0.0" d="M432.5 88.5L432.5 326.5" fill-rule="nonzero"/><path stroke="#000000" stroke-width="1.0" stroke-linecap="butt" stroke-opacity="0.0" d="M507.5 88.5L507.5 326.5" fill-rule="nonzero"/><path stroke="#000000" stroke-width="1.0" stroke-linecap="butt" stroke-opacity="0.0" d="M544.5 88.5L544.5 326.5" fill-rule="nonzero"/><path stroke="#cccccc" stroke-width="1.0" stroke-linecap="butt" d="M45.5 326.5L581.5 326.5" fill-rule="nonzero"/><path stroke="#cccccc" stroke-width="1.0" stroke-linecap="butt" d="M45.5 266.5L581.5 266.5" fill-rule="nonzero"/><path stroke="#333333" stroke-width="1.0" stroke-linecap="butt" d="M45.5 207.5L581.5 207.5" fill-rule="nonzero"/><path stroke="#cccccc" stroke-width="1.0" stroke-linecap="butt" d="M45.5 147.5L581.5 147.5" fill-rule="nonzero"/><path stroke="#cccccc" stroke-width="1.0" stroke-linecap="butt" d="M45.5 88.5L581.5 88.5" fill-rule="nonzero"/><path stroke="#000000" stroke-width="1.0" stroke-linecap="butt" d="M581.5 326.5L45.5 326.5" fill-rule="nonzero"/><clipPath id="id_0"><path d="M45.55 88.28333L581.45 88.28333L581.45 326.45L45.55 326.45L45.55 88.28333Z" clip-rule="nonzero"/></clipPath><path stroke="#4285f4" stroke-width="2.0" stroke-linecap="butt" stroke-opacity="0.4" clip-path="url(#id_0)" d="M0 216.62547C0 216.62547 2.6666667 215.54073 4.0 215.00134C5.3333335 214.46194 6.6666665 213.92455 8.0 213.38913C9.333333 212.85371 10.666667 212.32027 12.0 211.78883C13.333333 211.25739 14.666667 210.72792 16.0 210.20045C17.333334 209.67297 18.666666 209.14749 20.0 208.62398C21.333334 208.10048 22.666666 207.57896 24.0 207.05943C25.333334 206.5399 26.666666 206.02237 28.0 205.5068C29.333334 204.99126 30.666666 204.47768 32.0 203.9661C33.333332 203.45451 34.666668 202.94492 36.0 202.4373C37.333332 201.92969 38.666668 201.42406 40.0 200.92043C41.333332 200.41678 42.666668 199.91513 44.0 199.41545C45.333332 198.91579 46.666668 198.4181 48.0 197.92241C49.333332 197.42671 50.666668 196.933 52.0 196.44128C53.333332 195.94955 54.666668 195.45982 56.0 194.97206C57.333332 194.48431 58.666668 193.99855 60.0 193.51477C61.333332 193.03099 62.666668 192.5492 64.0 192.0694C65.333336 191.58958 66.666664 191.11177 68.0 190.63593C69.333336 190.1601 70.666664 189.68625 72.0 189.21439C73.333336 188.74252 74.666664 188.27264 76.0 187.80476C77.333336 187.33687 78.666664 186.87096 80.0 186.40704C81.333336 185.94313 82.666664 185.4812 84.0 185.02126C85.333336 184.56131 86.666664 184.10335 88.0 183.64737C89.333336 183.1914 90.666664 182.73741 92.0 182.28542C93.333336 181.8334 94.666664 181.38339 96.0 180.93536C97.333336 180.48734 98.666664 180.04129 100.0 179.59724C101.333336 179.15318 102.666664 178.71112 104.0 178.27103C105.333336 177.83095 106.666664 177.39285 108.0 176.95674C109.333336 176.52063 110.666664 176.0865 112.0 175.65436C113.333336 175.22221 114.666664 174.79207 116.0 174.36389C117.333336 173.93573 118.666664 173.50955 120.0 173.08536C121.333336 172.66116 122.666664 172.23895 124.0 171.81873C125.333336 171.3985 126.666664 170.98027 128.0 170.56401C129.33333 170.14777 130.66667 169.7335 132.0 169.32123C133.33333 168.90895 134.66667 168.49866 136.0 168.09035C137.33333 167.68204 138.66667 167.27573 140.0 166.87138C141.33333 166.46706 142.66667 166.06471 144.0 165.66435C145.33333 165.26399 146.66667 164.86562 148.0 164.46922C149.33333 164.07283 150.66667 163.67842 152.0 163.28601C153.33333 162.8936 154.66667 162.50316 156.0 162.11472C157.33333 161.72627 158.66667 161.33981 160.0 160.95534C161.33333 160.57088 162.66667 160.18839 164.0 159.80789C165.33333 159.42738 166.66667 159.04887 168.0 158.67235C169.33333 158.29582 170.66667 157.92128 172.0 157.54872C173.33333 157.17616 174.66667 156.80559 176.0 156.43701C177.33333 156.06842 178.66667 155.70183 180.0 155.33722C181.33333 154.97261 182.66667 154.60999 184.0 154.24934C185.33333 153.8887 186.66667 153.53004 188.0 153.17339C189.33333 152.81673 190.66667 152.46204 192.0 152.10934C193.33333 151.75665 194.66667 151.40594 196.0 151.05722C197.33333 150.7085 198.66667 150.36176 200.0 150.01701C201.33333 149.67226 202.66667 149.3295 204.0 148.98872C205.33333 148.64795 206.66667 148.30916 208.0 147.97235C209.33333 147.63554 210.66667 147.30072 212.0 146.9679C213.33333 146.63506 214.66667 146.30421 216.0 145.97536C217.33333 145.64648 218.66667 145.31961 220.0 144.99472C221.33333 144.66985 222.66667 144.34694 224.0 144.02602C225.33333 143.70511 226.66667 143.38617 228.0 143.06923C229.33333 142.75229 230.66667 142.43733 232.0 142.12436C233.33333 141.81139 234.66667 141.5004 236.0 141.1914C237.33333 140.8824 238.66667 140.5754 240.0 140.27037C241.33333 139.96533 242.66667 139.6623 244.0 139.36124C245.33333 139.06018 246.66667 138.76112 248.0 138.46404C249.33333 138.16695 250.66667 137.87186 252.0 137.57875C253.33333 137.28563 254.66667 136.9945 256.0 136.70537C257.33334 136.41623 258.66666 136.12909 260.0 135.84392C261.33334 135.55875 262.66666 135.27557 264.0 134.99438C265.33334 134.71318 266.66666 134.43398 268.0 134.15675C269.33334 133.87953 270.66666 133.60431 272.0 133.33105C273.33334 133.0578 274.66666 132.78654 276.0 132.51726C277.33334 132.24799 278.66666 131.9807 280.0 131.7154C281.33334 131.45009 282.66666 131.18677 284.0 130.92545C285.33334 130.66411 286.66666 130.40475 288.0 130.1474C289.33334 129.89005 290.66666 129.63467 292.0 129.38129C293.33334 129.1279 294.66666 128.8765 296.0 128.62708C297.33334 128.37766 298.66666 128.13023 300.0 127.88479C301.33334 127.63934 302.66666 127.39589 304.0 127.15442C305.33334 126.91295 306.66666 126.67346 308.0 126.43597C309.33334 126.19846 310.66666 125.96295 312.0 125.72943C313.33334 125.4959 314.66666 125.26436 316.0 125.034805C317.33334 124.80525 318.66666 124.57768 320.0 124.352104C321.33334 124.126526 322.66666 123.90292 324.0 123.68132C325.33334 123.45971 326.66666 123.24008 328.0 123.022446C329.33334 122.80481 330.66666 122.58916 332.0 122.375496C333.33334 122.16183 334.66666 121.95015 336.0 121.740456C337.33334 121.53077 338.66666 121.32306 340.0 121.11734C341.33334 120.91162 342.66666 120.707886 344.0 120.506134C345.33334 120.30439 346.66666 120.10463 348.0 119.90685C349.33334 119.709076 350.66666 119.51328 352.0 119.31948C353.33334 119.12568 354.66666 118.93386 356.0 118.74403C357.33334 118.5542 358.66666 118.366356 360.0 118.1805C361.33334 117.99464 362.66666 117.81076 364.0 117.628876C365.33334 117.44699 366.66666 117.26709 368.0 117.08917C369.33334 116.91126 370.66666 116.73534 372.0 116.56139C373.33334 116.38745 374.66666 116.21549 376.0 116.045525C377.33334 115.87555 378.66666 115.707565 380.0 115.54157C381.33334 115.37557 382.66666 115.21156 384.0 115.04954C385.33334 114.88751 386.66666 114.72747 388.0 114.56942C389.33334 114.41137 390.66666 114.2553 392.0 114.10122C393.33334 113.947136 394.66666 113.795044 396.0 113.644936C397.33334 113.49483 398.66666 113.3467 400.0 113.20057C401.33334 113.05443 402.66666 112.91028 404.0 112.76812C405.33334 112.62595 406.66666 112.48578 408.0 112.34758C409.33334 112.20939 410.66666 112.07319 412.0 111.938965C413.33334 111.80475 414.66666 111.672516 416.0 111.54227C417.33334 111.41202 418.66666 111.28376 420.0 111.157486C421.33334 111.03121 422.66666 110.90692 424.0 110.784615C425.33334 110.662315 426.66666 110.542 428.0 110.42367C429.33334 110.305336 430.66666 110.188995 432.0 110.07464C433.33334 109.96027 434.66666 109.84791 436.0 109.73752C437.33334 109.62714 438.66666 109.51873 440.0 109.41232C441.33334 109.30591 442.66666 109.20148 444.0 109.09904C445.33334 108.9966 446.66666 108.89614 448.0 108.79767C449.33334 108.6992 450.66666 108.60272 452.0 108.508224C453.33334 108.41373 454.66666 108.32121 456.0 108.23069C457.33334 108.14017 458.66666 108.05163 460.0 107.96507C461.33334 107.878525 462.66666 107.79396 464.0 107.71138C465.33334 107.6288 466.66666 107.5482 468.0 107.4696C469.33334 107.39099 470.66666 107.31437 472.0 107.23973C473.33334 107.16509 474.66666 107.092445 476.0 107.02178C477.33334 106.95112 478.66666 106.88245 480.0 106.81575C481.33334 106.74906 482.66666 106.68436 484.0 106.621635C485.33334 106.55892 486.66666 106.498184 488.0 106.43944C489.33334 106.38069 490.66666 106.32394 492.0 106.26916C493.33334 106.214386 494.66666 106.1616 496.0 106.110794C497.33334 106.06 498.66666 106.01118 500.0 105.96435C501.33334 105.91752 502.66666 105.87267 504.0 105.82982C505.33334 105.786964 506.66666 105.74609 508.0 105.70721C509.33334 105.66832 510.66666 105.631424 512.0 105.59651C513.3333 105.56159 514.6667 105.52867 516.0 105.49773C517.3333 105.46679 518.6667 105.437836 520.0 105.410866C521.3333 105.383896 522.6667 105.35892 524.0 105.33592C525.3333 105.31292 526.6667 105.291916 528.0 105.27289C529.3333 105.25387 530.6667 105.23683 532.0 105.22178C533.3333 105.206726 534.6667 105.19366 536.0 105.18258C537.3333 105.1715 538.6667 105.16241 540.0 105.155304C541.3333 105.14819 542.6667 105.143074 544.0 105.13994C545.3333 105.1368 546.6667 105.13566 548.0 105.1365C549.3333 105.13733 550.6667 105.14016 552.0 105.144966C553.3333 105.14977 554.6667 105.15657 556.0 105.16535C557.3333 105.17413 558.6667 105.184906 560.0 105.19766C561.3333 105.21041 562.6667 105.22515 564.0 105.24188C565.3333 105.258606 566.6667 105.27732 568.0 105.29802C569.3333 105.31872 570.6667 105.3414 572.0 105.36607C573.3333 105.39075 574.6667 105.417404 576.0 105.446045C577.3333 105.47469 580.0 105.53793 580.0 105.53793" fill-rule="nonzero"/><path fill="#4285f4" clip-path="url(#id_0)" d="M418.54803 109.08948C418.54803 111.57476 416.5333 113.58948 414.04803 113.58948C411.56274 113.58948 409.54803 111.57476 409.54803 109.08948C409.54803 106.6042 411.56274 104.58948 414.04803 104.58948C416.5333 104.58948 418.54803 106.6042 418.54803 109.08948Z" fill-rule="nonzero"/><path fill="#4285f4" clip-path="url(#id_0)" d="M79.28001 160.54977C79.28001 163.03505 77.26529 165.04977 74.78001 165.04977C72.29472 165.04977 70.28001 163.03505 70.28001 160.54977C70.28001 158.0645 72.29472 156.04977 74.78001 156.04977C77.26529 156.04977 79.28001 158.0645 79.28001 160.54977Z" fill-rule="nonzero"/><path fill="#4285f4" clip-path="url(#id_0)" d="M144.00877 147.25679C144.00877 149.74207 141.99405 151.75679 139.50877 151.75679C137.0235 151.75679 135.00877 149.74207 135.00877 147.25679C135.00877 144.77151 137.0235 142.75679 139.50877 142.75679C141.99405 142.75679 144.00877 144.77151 144.00877 147.25679Z" fill-rule="nonzero"/><path fill="#4285f4" clip-path="url(#id_0)" d="M101.60027 130.50398C101.60027 132.98926 99.585556 135.00398 97.10027 135.00398C94.61499 135.00398 92.60027 132.98926 92.60027 130.50398C92.60027 128.01869 94.61499 126.003975 97.10027 126.003975C99.585556 126.003975 101.60027 128.01869 101.60027 130.50398Z" fill-rule="nonzero"/><path fill="#4285f4" clip-path="url(#id_0)" d="M72.58393 178.24951C72.58393 180.73479 70.569214 182.74951 68.08393 182.74951C65.59865 182.74951 63.583927 180.73479 63.583927 178.24951C63.583927 175.76422 65.59865 173.74951 68.08393 173.74951C70.569214 173.74951 72.58393 175.76422 72.58393 178.24951Z" fill-rule="nonzero"/><path fill="#4285f4" clip-path="url(#id_0)" d="M139.54472 147.621C139.54472 150.10628 137.53 152.121 135.04472 152.121C132.55943 152.121 130.54472 150.10628 130.54472 147.621C130.54472 145.13573 132.55943 143.121 135.04472 143.121C137.53 143.121 139.54472 145.13573 139.54472 147.621Z" fill-rule="nonzero"/><path fill="#4285f4" clip-path="url(#id_0)" d="M72.58393 196.53195C72.58393 199.01724 70.569214 201.03195 68.08393 201.03195C65.59865 201.03195 63.583927 199.01724 63.583927 196.53195C63.583927 194.04668 65.59865 192.03195 68.08393 192.03195C70.569214 192.03195 72.58393 194.04668 72.58393 196.53195Z" fill-rule="nonzero"/><path fill="#4285f4" clip-path="url(#id_0)" d="M130.61661 195.43939C130.61661 197.92467 128.6019 199.93939 126.116615 199.93939C123.63133 199.93939 121.616615 197.92467 121.616615 195.43939C121.616615 192.95412 123.63133 190.93939 126.116615 190.93939C128.6019 190.93939 130.61661 192.95412 130.61661 195.43939Z" fill-rule="nonzero"/><path fill="#4285f4" clip-path="url(#id_0)" d="M112.76041 161.64241C112.76041 164.12769 110.74568 166.14241 108.26041 166.14241C105.77512 166.14241 103.76041 164.12769 103.76041 161.64241C103.76041 159.15712 105.77512 157.14241 108.26041 157.14241C110.74568 157.14241 112.76041 159.15712 112.76041 161.64241Z" fill-rule="nonzero"/><path fill="#4285f4" clip-path="url(#id_0)" d="M56.959743 194.89311C56.959743 197.37839 54.945026 199.39311 52.459743 199.39311C49.974464 199.39311 47.959743 197.37839 47.959743 194.89311C47.959743 192.40782 49.974464 190.39311 52.459743 190.39311C54.945026 190.39311 56.959743 192.40782 56.959743 194.89311Z" fill-rule="nonzero"/><path fill="#4285f4" clip-path="url(#id_0)" d="M103.8323 207.96759C103.8323 210.45287 101.81758 212.46759 99.3323 212.46759C96.847015 212.46759 94.8323 210.45287 94.8323 207.96759C94.8323 205.48232 96.847015 203.46759 99.3323 203.46759C101.81758 203.46759 103.8323 205.48232 103.8323 207.96759Z" fill-rule="nonzero"/><path fill="#4285f4" clip-path="url(#id_0)" d="M121.68851 184.69576C121.68851 187.18103 119.67379 189.19576 117.18851 189.19576C114.70323 189.19576 112.68851 187.18103 112.68851 184.69576C112.68851 182.21046 114.70323 180.19576 117.18851 180.19576C119.67379 180.19576 121.68851 182.21046 121.68851 184.69576Z" fill-rule="nonzero"/><path fill="#4285f4" clip-path="url(#id_0)" d="M77.04798 178.17673C77.04798 180.662 75.033264 182.67673 72.54798 182.67673C70.0627 182.67673 68.04798 180.662 68.04798 178.17673C68.04798 175.69144 70.0627 173.67673 72.54798 173.67673C75.033264 173.67673 77.04798 175.69144 77.04798 178.17673Z" fill-rule="nonzero"/><path fill="#4285f4" clip-path="url(#id_0)" d="M61.423798 259.71924C61.423798 262.20453 59.409077 264.21924 56.923798 264.21924C54.438515 264.21924 52.423798 262.20453 52.423798 259.71924C52.423798 257.23395 54.438515 255.21924 56.923798 255.21924C59.409077 255.21924 61.423798 257.23395 61.423798 259.71924Z" fill-rule="nonzero"/><path fill="#4285f4" clip-path="url(#id_0)" d="M184.18524 190.41357C184.18524 192.89885 182.17053 194.91357 179.68524 194.91357C177.19997 194.91357 175.18524 192.89885 175.18524 190.41357C175.18524 187.92828 177.19997 185.91357 179.68524 185.91357C182.17053 185.91357 184.18524 187.92828 184.18524 190.41357Z" fill-rule="nonzero"/><path fill="#4285f4" clip-path="url(#id_0)" d="M72.58393 182.18283C72.58393 184.66812 70.569214 186.68283 68.08393 186.68283C65.59865 186.68283 63.583927 184.66812 63.583927 182.18283C63.583927 179.69756 65.59865 177.68283 68.08393 177.68283C70.569214 177.68283 72.58393 179.69756 72.58393 182.18283Z" fill-rule="nonzero"/><path stroke="#000000" stroke-width="1.0" stroke-linecap="butt" d="M60.5 329.5L60.5 323.5" fill-rule="nonzero"/><path stroke="#000000" stroke-width="1.0" stroke-linecap="butt" d="M97.5 329.5L97.5 323.5" fill-rule="nonzero"/><path stroke="#000000" stroke-width="1.0" stroke-linecap="butt" d="M172.5 329.5L172.5 323.5" fill-rule="nonzero"/><path stroke="#000000" stroke-width="1.0" stroke-linecap="butt" d="M209.5 329.5L209.5 323.5" fill-rule="nonzero"/><path stroke="#000000" stroke-width="1.0" stroke-linecap="butt" d="M283.5 329.5L283.5 323.5" fill-rule="nonzero"/><path stroke="#000000" stroke-width="1.0" stroke-linecap="butt" d="M321.5 329.5L321.5 323.5" fill-rule="nonzero"/><path stroke="#000000" stroke-width="1.0" stroke-linecap="butt" d="M395.5 329.5L395.5 323.5" fill-rule="nonzero"/><path stroke="#000000" stroke-width="1.0" stroke-linecap="butt" d="M432.5 329.5L432.5 323.5" fill-rule="nonzero"/><path stroke="#000000" stroke-width="1.0" stroke-linecap="butt" d="M507.5 329.5L507.5 323.5" fill-rule="nonzero"/><path stroke="#000000" stroke-width="1.0" stroke-linecap="butt" d="M544.5 329.5L544.5 323.5" fill-rule="nonzero"/><path stroke="#000000" stroke-width="1.0" stroke-linecap="butt" d="M135.5 332.5L135.5 320.5" fill-rule="nonzero"/><path stroke="#000000" stroke-width="1.0" stroke-linecap="butt" d="M246.5 332.5L246.5 320.5" fill-rule="nonzero"/><path stroke="#000000" stroke-width="1.0" stroke-linecap="butt" d="M358.5 332.5L358.5 320.5" fill-rule="nonzero"/><path stroke="#000000" stroke-width="1.0" stroke-linecap="butt" d="M469.5 332.5L469.5 320.5" fill-rule="nonzero"/><path stroke="#000000" stroke-width="1.0" stroke-linecap="butt" d="M581.5 332.5L581.5 320.5" fill-rule="nonzero"/><path fill="#000000" d="M28.925 327.8719L28.925 326.8094L32.175 326.8094L32.175 327.8719L28.925 327.8719ZM38.596874 329.4344L38.596874 330.45L32.909374 330.45Q32.909374 330.075 33.034374 329.71564Q33.253124 329.1375 33.721874 328.575Q34.20625 328.0125 35.1125 327.27814Q36.51875 326.1219 37.003124 325.45Q37.503124 324.77814 37.503124 324.1844Q37.503124 323.5594 37.05 323.1375Q36.596874 322.7 35.878124 322.7Q35.1125 322.7 34.659374 323.15314Q34.20625 323.60626 34.190624 324.41876L33.1125 324.3094Q33.221874 323.09064 33.940624 322.46564Q34.675 321.825 35.909374 321.825Q37.14375 321.825 37.8625 322.5125Q38.58125 323.2 38.58125 324.21564Q38.58125 324.73126 38.3625 325.23126Q38.159374 325.71564 37.659374 326.27814Q37.175 326.825 36.05 327.77814Q35.096874 328.575 34.815624 328.8719Q34.55 329.15314 34.378124 329.4344L38.596874 329.4344Z" fill-rule="nonzero"/><path fill="#000000" d="M28.925 268.3302L28.925 267.2677L32.175 267.2677L32.175 268.3302L28.925 268.3302ZM37.01875 270.90833L35.971874 270.90833L35.971874 264.18958Q35.58125 264.54895 34.95625 264.92395Q34.346874 265.28333 33.8625 265.4552L33.8625 264.43958Q34.7375 264.0177 35.39375 263.43958Q36.065624 262.84583 36.346874 262.28333L37.01875 262.28333L37.01875 270.90833Z" fill-rule="nonzero"/><path fill="#000000" d="M33.05 207.1323Q33.05 205.60104 33.3625 204.67917Q33.675 203.74167 34.284374 203.24167Q34.909374 202.74167 35.846874 202.74167Q36.534374 202.74167 37.05 203.02292Q37.58125 203.30417 37.925 203.83542Q38.26875 204.35104 38.45625 205.10104Q38.64375 205.85104 38.64375 207.1323Q38.64375 208.64792 38.33125 209.5698Q38.034374 210.49167 37.409374 211.0073Q36.8 211.5073 35.846874 211.5073Q34.6125 211.5073 33.89375 210.61667Q33.05 209.55417 33.05 207.1323ZM34.128124 207.1323Q34.128124 209.24167 34.628124 209.9448Q35.128124 210.64792 35.846874 210.64792Q36.58125 210.64792 37.065624 209.9448Q37.565624 209.24167 37.565624 207.1323Q37.565624 205.0073 37.065624 204.3198Q36.58125 203.61667 35.83125 203.61667Q35.1125 203.61667 34.675 204.22604Q34.128124 205.0073 34.128124 207.1323Z" fill-rule="nonzero"/><path fill="#000000" d="M37.01875 151.825L35.971874 151.825L35.971874 145.10625Q35.58125 145.46562 34.95625 145.84062Q34.346874 146.2 33.8625 146.37187L33.8625 145.35625Q34.7375 144.93437 35.39375 144.35625Q36.065624 143.7625 36.346874 143.2L37.01875 143.2L37.01875 151.825Z" fill-rule="nonzero"/><path fill="#000000" d="M38.596874 91.26771L38.596874 92.28333L32.909374 92.28333Q32.909374 91.90833 33.034374 91.54896Q33.253124 90.97083 33.721874 90.40833Q34.20625 89.84583 35.1125 89.11146Q36.51875 87.95521 37.003124 87.28333Q37.503124 86.61146 37.503124 86.01771Q37.503124 85.39271 37.05 84.97083Q36.596874 84.53333 35.878124 84.53333Q35.1125 84.53333 34.659374 84.98646Q34.20625 85.43958 34.190624 86.25208L33.1125 86.14271Q33.221874 84.92396 33.940624 84.29896Q34.675 83.65833 35.909374 83.65833Q37.14375 83.65833 37.8625 84.34583Q38.58125 85.03333 38.58125 86.04896Q38.58125 86.56458 38.3625 87.06458Q38.159374 87.54896 37.659374 88.11146Q37.175 88.65833 36.05 89.61146Q35.096874 90.40833 34.815624 90.70521Q34.55 90.98646 34.378124 91.26771L38.596874 91.26771Z" fill-rule="nonzero"/><path fill="#000000" d="M122.5291 350.6844L122.5291 349.6375Q121.74785 349.52814 121.24785 349.27814Q120.74785 349.02814 120.38847 348.46564Q120.0291 347.8875 119.9666 347.0594L121.0291 346.8719Q121.1541 347.71564 121.4666 348.10626Q121.91972 348.66876 122.5291 348.7469L122.5291 345.3875Q121.88847 345.2625 121.20097 344.8719Q120.70097 344.59064 120.41972 344.10626Q120.1541 343.60626 120.1541 342.96564Q120.1541 341.84064 120.95097 341.15314Q121.48222 340.6844 122.5291 340.575L122.5291 340.075L123.1541 340.075L123.1541 340.575Q124.07597 340.65314 124.60722 341.10626Q125.31035 341.6844 125.45097 342.6844L124.35722 342.85626Q124.26347 342.23126 123.9666 341.90314Q123.66972 341.575 123.1541 341.46564L123.1541 344.4969Q123.95097 344.7 124.2166 344.8094Q124.70097 345.02814 125.01347 345.34064Q125.32597 345.65314 125.48222 346.09064Q125.6541 346.5125 125.6541 347.0125Q125.6541 348.10626 124.95097 348.84064Q124.26347 349.575 123.1541 349.6219L123.1541 350.6844L122.5291 350.6844ZM122.5291 341.45Q121.91972 341.54376 121.56035 341.95Q121.2166 342.34064 121.2166 342.8875Q121.2166 343.41876 121.51347 343.79376Q121.81035 344.15314 122.5291 344.3719L122.5291 341.45ZM123.1541 348.7469Q123.76347 348.66876 124.16972 348.21564Q124.57597 347.7469 124.57597 347.075Q124.57597 346.4969 124.2791 346.15314Q123.99785 345.8094 123.1541 345.52814L123.1541 348.7469ZM127.04472 345.21564Q127.04472 343.6844 127.35722 342.7625Q127.66972 341.825 128.2791 341.325Q128.9041 340.825 129.8416 340.825Q130.5291 340.825 131.04472 341.10626Q131.57597 341.3875 131.91972 341.91876Q132.26347 342.4344 132.45097 343.1844Q132.63847 343.9344 132.63847 345.21564Q132.63847 346.73126 132.32597 347.65314Q132.0291 348.575 131.4041 349.09064Q130.79472 349.59064 129.8416 349.59064Q128.60722 349.59064 127.88847 348.7Q127.04472 347.6375 127.04472 345.21564ZM128.12285 345.21564Q128.12285 347.325 128.62285 348.02814Q129.12285 348.73126 129.8416 348.73126Q130.57597 348.73126 131.06035 348.02814Q131.56035 347.325 131.56035 345.21564Q131.56035 343.09064 131.06035 342.40314Q130.57597 341.7 129.82597 341.7Q129.10722 341.7 128.66972 342.3094Q128.12285 343.09064 128.12285 345.21564ZM134.63847 349.45L134.63847 348.2469L135.8416 348.2469L135.8416 349.45L134.63847 349.45ZM137.04472 347.2L138.1541 347.10626Q138.2791 347.91876 138.7166 348.325Q139.16972 348.73126 139.81035 348.73126Q140.56035 348.73126 141.0916 348.15314Q141.62285 347.575 141.62285 346.6375Q141.62285 345.73126 141.10722 345.21564Q140.60722 344.6844 139.7791 344.6844Q139.2791 344.6844 138.85722 344.91876Q138.45097 345.15314 138.2166 345.5125L137.23222 345.3875L138.06035 340.98126L142.3416 340.98126L142.3416 341.98126L138.9041 341.98126L138.45097 344.29376Q139.2166 343.7469 140.06035 343.7469Q141.18535 343.7469 141.95097 344.52814Q142.73222 345.3094 142.73222 346.54376Q142.73222 347.7 142.06035 348.5594Q141.23222 349.59064 139.81035 349.59064Q138.63847 349.59064 137.88847 348.9344Q137.1541 348.27814 137.04472 347.2ZM144.04472 345.21564Q144.04472 343.6844 144.35722 342.7625Q144.66972 341.825 145.2791 341.325Q145.9041 340.825 146.8416 340.825Q147.5291 340.825 148.04472 341.10626Q148.57597 341.3875 148.91972 341.91876Q149.26347 342.4344 149.45097 343.1844Q149.63847 343.9344 149.63847 345.21564Q149.63847 346.73126 149.32597 347.65314Q149.0291 348.575 148.4041 349.09064Q147.79472 349.59064 146.8416 349.59064Q145.60722 349.59064 144.88847 348.7Q144.04472 347.6375 144.04472 345.21564ZM145.12285 345.21564Q145.12285 347.325 145.62285 348.02814Q146.12285 348.73126 146.8416 348.73126Q147.57597 348.73126 148.06035 348.02814Q148.56035 347.325 148.56035 345.21564Q148.56035 343.09064 148.06035 342.40314Q147.57597 341.7 146.82597 341.7Q146.10722 341.7 145.66972 342.3094Q145.12285 343.09064 145.12285 345.21564Z" fill-rule="nonzero"/><path fill="#000000" d="M234.13042 350.6844L234.13042 349.6375Q233.34917 349.52814 232.84917 349.27814Q232.34917 349.02814 231.98979 348.46564Q231.63042 347.8875 231.56792 347.0594L232.63042 346.8719Q232.75542 347.71564 233.06792 348.10626Q233.52104 348.66876 234.13042 348.7469L234.13042 345.3875Q233.48979 345.2625 232.80229 344.8719Q232.30229 344.59064 232.02104 344.10626Q231.75542 343.60626 231.75542 342.96564Q231.75542 341.84064 232.55229 341.15314Q233.08354 340.6844 234.13042 340.575L234.13042 340.075L234.75542 340.075L234.75542 340.575Q235.67729 340.65314 236.20854 341.10626Q236.91167 341.6844 237.05229 342.6844L235.95854 342.85626Q235.86479 342.23126 235.56792 341.90314Q235.27104 341.575 234.75542 341.46564L234.75542 344.4969Q235.55229 344.7 235.81792 344.8094Q236.30229 345.02814 236.61479 345.34064Q236.92729 345.65314 237.08354 346.09064Q237.25542 346.5125 237.25542 347.0125Q237.25542 348.10626 236.55229 348.84064Q235.86479 349.575 234.75542 349.6219L234.75542 350.6844L234.13042 350.6844ZM234.13042 341.45Q233.52104 341.54376 233.16167 341.95Q232.81792 342.34064 232.81792 342.8875Q232.81792 343.41876 233.11479 343.79376Q233.41167 344.15314 234.13042 344.3719L234.13042 341.45ZM234.75542 348.7469Q235.36479 348.66876 235.77104 348.21564Q236.17729 347.7469 236.17729 347.075Q236.17729 346.4969 235.88042 346.15314Q235.59917 345.8094 234.75542 345.52814L234.75542 348.7469ZM242.61479 349.45L241.56792 349.45L241.56792 342.73126Q241.17729 343.09064 240.55229 343.46564Q239.94292 343.825 239.45854 343.9969L239.45854 342.98126Q240.33354 342.5594 240.98979 341.98126Q241.66167 341.3875 241.94292 340.825L242.61479 340.825L242.61479 349.45ZM246.23979 349.45L246.23979 348.2469L247.44292 348.2469L247.44292 349.45L246.23979 349.45ZM248.64604 345.21564Q248.64604 343.6844 248.95854 342.7625Q249.27104 341.825 249.88042 341.325Q250.50542 340.825 251.44292 340.825Q252.13042 340.825 252.64604 341.10626Q253.17729 341.3875 253.52104 341.91876Q253.86479 342.4344 254.05229 343.1844Q254.23979 343.9344 254.23979 345.21564Q254.23979 346.73126 253.92729 347.65314Q253.63042 348.575 253.00542 349.09064Q252.39604 349.59064 251.44292 349.59064Q250.20854 349.59064 249.48979 348.7Q248.64604 347.6375 248.64604 345.21564ZM249.72417 345.21564Q249.72417 347.325 250.22417 348.02814Q250.72417 348.73126 251.44292 348.73126Q252.17729 348.73126 252.66167 348.02814Q253.16167 347.325 253.16167 345.21564Q253.16167 343.09064 252.66167 342.40314Q252.17729 341.7 251.42729 341.7Q250.70854 341.7 250.27104 342.3094Q249.72417 343.09064 249.72417 345.21564ZM255.64604 345.21564Q255.64604 343.6844 255.95854 342.7625Q256.27106 341.825 256.88043 341.325Q257.50543 340.825 258.44293 340.825Q259.13043 340.825 259.64606 341.10626Q260.1773 341.3875 260.52106 341.91876Q260.8648 342.4344 261.0523 343.1844Q261.2398 343.9344 261.2398 345.21564Q261.2398 346.73126 260.9273 347.65314Q260.63043 348.575 260.00543 349.09064Q259.39606 349.59064 258.44293 349.59064Q257.20856 349.59064 256.4898 348.7Q255.64604 347.6375 255.64604 345.21564ZM256.72418 345.21564Q256.72418 347.325 257.22418 348.02814Q257.72418 348.73126 258.44293 348.73126Q259.1773 348.73126 259.66168 348.02814Q260.16168 347.325 260.16168 345.21564Q260.16168 343.09064 259.66168 342.40314Q259.1773 341.7 258.4273 341.7Q257.70856 341.7 257.27106 342.3094Q256.72418 343.09064 256.72418 345.21564Z" fill-rule="nonzero"/><path fill="#000000" d="M345.73175 350.6844L345.73175 349.6375Q344.9505 349.52814 344.4505 349.27814Q343.9505 349.02814 343.59113 348.46564Q343.23175 347.8875 343.16925 347.0594L344.23175 346.8719Q344.35675 347.71564 344.66925 348.10626Q345.12238 348.66876 345.73175 348.7469L345.73175 345.3875Q345.09113 345.2625 344.40363 344.8719Q343.90363 344.59064 343.62238 344.10626Q343.35675 343.60626 343.35675 342.96564Q343.35675 341.84064 344.15363 341.15314Q344.68488 340.6844 345.73175 340.575L345.73175 340.075L346.35675 340.075L346.35675 340.575Q347.27863 340.65314 347.80988 341.10626Q348.513 341.6844 348.65363 342.6844L347.55988 342.85626Q347.46613 342.23126 347.16925 341.90314Q346.87238 341.575 346.35675 341.46564L346.35675 344.4969Q347.15363 344.7 347.41925 344.8094Q347.90363 345.02814 348.21613 345.34064Q348.52863 345.65314 348.68488 346.09064Q348.85675 346.5125 348.85675 347.0125Q348.85675 348.10626 348.15363 348.84064Q347.46613 349.575 346.35675 349.6219L346.35675 350.6844L345.73175 350.6844ZM345.73175 341.45Q345.12238 341.54376 344.763 341.95Q344.41925 342.34064 344.41925 342.8875Q344.41925 343.41876 344.71613 343.79376Q345.013 344.15314 345.73175 344.3719L345.73175 341.45ZM346.35675 348.7469Q346.96613 348.66876 347.37238 348.21564Q347.77863 347.7469 347.77863 347.075Q347.77863 346.4969 347.48175 346.15314Q347.2005 345.8094 346.35675 345.52814L346.35675 348.7469ZM354.21613 349.45L353.16925 349.45L353.16925 342.73126Q352.77863 343.09064 352.15363 343.46564Q351.54425 343.825 351.05988 343.9969L351.05988 342.98126Q351.93488 342.5594 352.59113 341.98126Q353.263 341.3875 353.54425 340.825L354.21613 340.825L354.21613 349.45ZM357.84113 349.45L357.84113 348.2469L359.04425 348.2469L359.04425 349.45L357.84113 349.45ZM360.24738 347.2L361.35675 347.10626Q361.48175 347.91876 361.91925 348.325Q362.37238 348.73126 363.013 348.73126Q363.763 348.73126 364.29425 348.15314Q364.8255 347.575 364.8255 346.6375Q364.8255 345.73126 364.30988 345.21564Q363.80988 344.6844 362.98175 344.6844Q362.48175 344.6844 362.05988 344.91876Q361.65363 345.15314 361.41925 345.5125L360.43488 345.3875L361.263 340.98126L365.54425 340.98126L365.54425 341.98126L362.10675 341.98126L361.65363 344.29376Q362.41925 343.7469 363.263 343.7469Q364.388 343.7469 365.15363 344.52814Q365.93488 345.3094 365.93488 346.54376Q365.93488 347.7 365.263 348.5594Q364.43488 349.59064 363.013 349.59064Q361.84113 349.59064 361.09113 348.9344Q360.35675 348.27814 360.24738 347.2ZM367.24738 345.21564Q367.24738 343.6844 367.55988 342.7625Q367.87238 341.825 368.48175 341.325Q369.10675 340.825 370.04425 340.825Q370.73175 340.825 371.24738 341.10626Q371.77863 341.3875 372.12238 341.91876Q372.46613 342.4344 372.65363 343.1844Q372.84113 343.9344 372.84113 345.21564Q372.84113 346.73126 372.52863 347.65314Q372.23175 348.575 371.60675 349.09064Q370.99738 349.59064 370.04425 349.59064Q368.80988 349.59064 368.09113 348.7Q367.24738 347.6375 367.24738 345.21564ZM368.3255 345.21564Q368.3255 347.325 368.8255 348.02814Q369.3255 348.73126 370.04425 348.73126Q370.77863 348.73126 371.263 348.02814Q371.763 347.325 371.763 345.21564Q371.763 343.09064 371.263 342.40314Q370.77863 341.7 370.02863 341.7Q369.30988 341.7 368.87238 342.3094Q368.3255 343.09064 368.3255 345.21564Z" fill-rule="nonzero"/><path fill="#000000" d="M457.33307 350.6844L457.33307 349.6375Q456.55182 349.52814 456.05182 349.27814Q455.55182 349.02814 455.19244 348.46564Q454.83307 347.8875 454.77057 347.0594L455.83307 346.8719Q455.95807 347.71564 456.27057 348.10626Q456.7237 348.66876 457.33307 348.7469L457.33307 345.3875Q456.69244 345.2625 456.00494 344.8719Q455.50494 344.59064 455.2237 344.10626Q454.95807 343.60626 454.95807 342.96564Q454.95807 341.84064 455.75494 341.15314Q456.2862 340.6844 457.33307 340.575L457.33307 340.075L457.95807 340.075L457.95807 340.575Q458.87994 340.65314 459.4112 341.10626Q460.11432 341.6844 460.25494 342.6844L459.1612 342.85626Q459.06744 342.23126 458.77057 341.90314Q458.4737 341.575 457.95807 341.46564L457.95807 344.4969Q458.75494 344.7 459.02057 344.8094Q459.50494 345.02814 459.81744 345.34064Q460.12994 345.65314 460.2862 346.09064Q460.45807 346.5125 460.45807 347.0125Q460.45807 348.10626 459.75494 348.84064Q459.06744 349.575 457.95807 349.6219L457.95807 350.6844L457.33307 350.6844ZM457.33307 341.45Q456.7237 341.54376 456.36432 341.95Q456.02057 342.34064 456.02057 342.8875Q456.02057 343.41876 456.31744 343.79376Q456.61432 344.15314 457.33307 344.3719L457.33307 341.45ZM457.95807 348.7469Q458.56744 348.66876 458.9737 348.21564Q459.37994 347.7469 459.37994 347.075Q459.37994 346.4969 459.08307 346.15314Q458.80182 345.8094 457.95807 345.52814L457.95807 348.7469ZM467.39557 348.4344L467.39557 349.45L461.70807 349.45Q461.70807 349.075 461.83307 348.71564Q462.05182 348.1375 462.52057 347.575Q463.00494 347.0125 463.9112 346.27814Q465.31744 345.1219 465.80182 344.45Q466.30182 343.77814 466.30182 343.1844Q466.30182 342.5594 465.8487 342.1375Q465.39557 341.7 464.67682 341.7Q463.9112 341.7 463.45807 342.15314Q463.00494 342.60626 462.98932 343.41876L461.9112 343.3094Q462.02057 342.09064 462.73932 341.46564Q463.4737 340.825 464.70807 340.825Q465.94244 340.825 466.6612 341.5125Q467.37994 342.2 467.37994 343.21564Q467.37994 343.73126 467.1612 344.23126Q466.95807 344.71564 466.45807 345.27814Q465.9737 345.825 464.8487 346.77814Q463.89557 347.575 463.61432 347.8719Q463.3487 348.15314 463.17682 348.4344L467.39557 348.4344ZM469.44244 349.45L469.44244 348.2469L470.64557 348.2469L470.64557 349.45L469.44244 349.45ZM471.8487 345.21564Q471.8487 343.6844 472.1612 342.7625Q472.4737 341.825 473.08307 341.325Q473.70807 340.825 474.64557 340.825Q475.33307 340.825 475.8487 341.10626Q476.37994 341.3875 476.7237 341.91876Q477.06744 342.4344 477.25494 343.1844Q477.44244 343.9344 477.44244 345.21564Q477.44244 346.73126 477.12994 347.65314Q476.83307 348.575 476.20807 349.09064Q475.5987 349.59064 474.64557 349.59064Q473.4112 349.59064 472.69244 348.7Q471.8487 347.6375 471.8487 345.21564ZM472.92682 345.21564Q472.92682 347.325 473.42682 348.02814Q473.92682 348.73126 474.64557 348.73126Q475.37994 348.73126 475.86432 348.02814Q476.36432 347.325 476.36432 345.21564Q476.36432 343.09064 475.86432 342.40314Q475.37994 341.7 474.62994 341.7Q473.9112 341.7 473.4737 342.3094Q472.92682 343.09064 472.92682 345.21564ZM478.8487 345.21564Q478.8487 343.6844 479.1612 342.7625Q479.4737 341.825 480.08307 341.325Q480.70807 340.825 481.64557 340.825Q482.33307 340.825 482.8487 341.10626Q483.37994 341.3875 483.7237 341.91876Q484.06744 342.4344 484.25494 343.1844Q484.44244 343.9344 484.44244 345.21564Q484.44244 346.73126 484.12994 347.65314Q483.83307 348.575 483.20807 349.09064Q482.5987 349.59064 481.64557 349.59064Q480.4112 349.59064 479.69244 348.7Q478.8487 347.6375 478.8487 345.21564ZM479.92682 345.21564Q479.92682 347.325 480.42682 348.02814Q480.92682 348.73126 481.64557 348.73126Q482.37994 348.73126 482.86432 348.02814Q483.36432 347.325 483.36432 345.21564Q483.36432 343.09064 482.86432 342.40314Q482.37994 341.7 481.62994 341.7Q480.9112 341.7 480.4737 342.3094Q479.92682 343.09064 479.92682 345.21564Z" fill-rule="nonzero"/><path fill="#000000" d="M568.9344 350.6844L568.9344 349.6375Q568.15314 349.52814 567.65314 349.27814Q567.15314 349.02814 566.79376 348.46564Q566.4344 347.8875 566.3719 347.0594L567.4344 346.8719Q567.5594 347.71564 567.8719 348.10626Q568.325 348.66876 568.9344 348.7469L568.9344 345.3875Q568.29376 345.2625 567.60626 344.8719Q567.10626 344.59064 566.825 344.10626Q566.5594 343.60626 566.5594 342.96564Q566.5594 341.84064 567.35626 341.15314Q567.8875 340.6844 568.9344 340.575L568.9344 340.075L569.5594 340.075L569.5594 340.575Q570.48126 340.65314 571.0125 341.10626Q571.71564 341.6844 571.85626 342.6844L570.7625 342.85626Q570.66876 342.23126 570.3719 341.90314Q570.075 341.575 569.5594 341.46564L569.5594 344.4969Q570.35626 344.7 570.6219 344.8094Q571.10626 345.02814 571.41876 345.34064Q571.73126 345.65314 571.8875 346.09064Q572.0594 346.5125 572.0594 347.0125Q572.0594 348.10626 571.35626 348.84064Q570.66876 349.575 569.5594 349.6219L569.5594 350.6844L568.9344 350.6844ZM568.9344 341.45Q568.325 341.54376 567.96564 341.95Q567.6219 342.34064 567.6219 342.8875Q567.6219 343.41876 567.91876 343.79376Q568.21564 344.15314 568.9344 344.3719L568.9344 341.45ZM569.5594 348.7469Q570.16876 348.66876 570.575 348.21564Q570.98126 347.7469 570.98126 347.075Q570.98126 346.4969 570.6844 346.15314Q570.40314 345.8094 569.5594 345.52814L569.5594 348.7469ZM578.9969 348.4344L578.9969 349.45L573.3094 349.45Q573.3094 349.075 573.4344 348.71564Q573.65314 348.1375 574.1219 347.575Q574.60626 347.0125 575.5125 346.27814Q576.91876 345.1219 577.40314 344.45Q577.90314 343.77814 577.90314 343.1844Q577.90314 342.5594 577.45 342.1375Q576.9969 341.7 576.27814 341.7Q575.5125 341.7 575.0594 342.15314Q574.60626 342.60626 574.59064 343.41876L573.5125 343.3094Q573.6219 342.09064 574.34064 341.46564Q575.075 340.825 576.3094 340.825Q577.54376 340.825 578.2625 341.5125Q578.98126 342.2 578.98126 343.21564Q578.98126 343.73126 578.7625 344.23126Q578.5594 344.71564 578.0594 345.27814Q577.575 345.825 576.45 346.77814Q575.4969 347.575 575.21564 347.8719Q574.95 348.15314 574.77814 348.4344L578.9969 348.4344ZM581.04376 349.45L581.04376 348.2469L582.2469 348.2469L582.2469 349.45L581.04376 349.45ZM583.45 347.2L584.5594 347.10626Q584.6844 347.91876 585.1219 348.325Q585.575 348.73126 586.21564 348.73126Q586.96564 348.73126 587.4969 348.15314Q588.02814 347.575 588.02814 346.6375Q588.02814 345.73126 587.5125 345.21564Q587.0125 344.6844 586.1844 344.6844Q585.6844 344.6844 585.2625 344.91876Q584.85626 345.15314 584.6219 345.5125L583.6375 345.3875L584.46564 340.98126L588.7469 340.98126L588.7469 341.98126L585.3094 341.98126L584.85626 344.29376Q585.6219 343.7469 586.46564 343.7469Q587.59064 343.7469 588.35626 344.52814Q589.1375 345.3094 589.1375 346.54376Q589.1375 347.7 588.46564 348.5594Q587.6375 349.59064 586.21564 349.59064Q585.04376 349.59064 584.29376 348.9344Q583.5594 348.27814 583.45 347.2ZM590.45 345.21564Q590.45 343.6844 590.7625 342.7625Q591.075 341.825 591.6844 341.325Q592.3094 340.825 593.2469 340.825Q593.9344 340.825 594.45 341.10626Q594.98126 341.3875 595.325 341.91876Q595.66876 342.4344 595.85626 343.1844Q596.04376 343.9344 596.04376 345.21564Q596.04376 346.73126 595.73126 347.65314Q595.4344 348.575 594.8094 349.09064Q594.2 349.59064 593.2469 349.59064Q592.0125 349.59064 591.29376 348.7Q590.45 347.6375 590.45 345.21564ZM591.52814 345.21564Q591.52814 347.325 592.02814 348.02814Q592.52814 348.73126 593.2469 348.73126Q593.98126 348.73126 594.46564 348.02814Q594.96564 347.325 594.96564 345.21564Q594.96564 343.09064 594.46564 342.40314Q593.98126 341.7 593.23126 341.7Q592.5125 341.7 592.075 342.3094Q591.52814 343.09064 591.52814 345.21564Z" fill-rule="nonzero"/><path fill="#4285f4" d="M199.5 61.916668C199.5 65.23038 196.8137 67.916664 193.5 67.916664C190.1863 67.916664 187.5 65.23038 187.5 61.916668C187.5 58.60296 190.1863 55.916668 193.5 55.916668C196.8137 55.916668 199.5 58.60296 199.5 61.916668Z" fill-rule="nonzero"/><path stroke="#4285f4" stroke-width="4.0" stroke-linecap="butt" stroke-opacity="0.4" d="M215.5 61.916668L227.5 61.916668" fill-rule="nonzero"/><path fill="#1a1a1a" d="M238.60938 65.916664L238.60938 58.33854L235.78125 58.33854L235.78125 57.322914L242.59375 57.322914L242.59375 58.33854L239.75 58.33854L239.75 65.916664L238.60938 65.916664ZM243.28125 65.916664L243.28125 59.697914L244.23438 59.697914L244.23438 60.635414Q244.59375 59.979164 244.89062 59.77604Q245.20312 59.55729 245.57812 59.55729Q246.10938 59.55729 246.65625 59.885414L246.29688 60.86979Q245.90625 60.635414 245.53125 60.635414Q245.17188 60.635414 244.89062 60.854164Q244.625 61.05729 244.51562 61.43229Q244.32812 61.99479 244.32812 62.65104L244.32812 65.916664L243.28125 65.916664ZM251.54688 63.916664L252.64062 64.041664Q252.39062 64.99479 251.6875 65.52604Q250.98438 66.05729 249.90625 66.05729Q248.54688 66.05729 247.73438 65.21354Q246.9375 64.36979 246.9375 62.854164Q246.9375 61.291664 247.75 60.43229Q248.5625 59.55729 249.84375 59.55729Q251.09375 59.55729 251.875 60.40104Q252.67188 61.24479 252.67188 62.791664Q252.67188 62.885414 252.67188 63.072914L248.03125 63.072914Q248.09375 64.104164 248.60938 64.65104Q249.125 65.18229 249.90625 65.18229Q250.48438 65.18229 250.89062 64.885414Q251.3125 64.572914 251.54688 63.916664ZM248.09375 62.21354L251.5625 62.21354Q251.5 61.416664 251.17188 61.02604Q250.65625 60.416664 249.85938 60.416664Q249.125 60.416664 248.625 60.90104Q248.14062 61.385414 248.09375 62.21354ZM254.29688 65.916664L254.29688 59.697914L255.23438 59.697914L255.23438 60.572914Q255.92188 59.55729 257.21875 59.55729Q257.78125 59.55729 258.25 59.760414Q258.73438 59.96354 258.96875 60.291664Q259.20312 60.61979 259.29688 61.05729Q259.34375 61.354164 259.34375 62.08854L259.34375 65.916664L258.29688 65.916664L258.29688 62.135414Q258.29688 61.479164 258.17188 61.166664Q258.04688 60.854164 257.73438 60.666664Q257.42188 60.46354 257.0 60.46354Q256.32812 60.46354 255.82812 60.90104Q255.34375 61.322914 255.34375 62.510414L255.34375 65.916664L254.29688 65.916664ZM265.32812 65.916664L265.32812 65.135414Q264.73438 66.05729 263.59375 66.05729Q262.84375 66.05729 262.21875 65.65104Q261.59375 65.229164 261.25 64.49479Q260.90625 63.760414 260.90625 62.80729Q260.90625 61.885414 261.21875 61.11979Q261.53125 60.354164 262.15625 59.96354Q262.78125 59.55729 263.54688 59.55729Q264.10938 59.55729 264.54688 59.791664Q264.98438 60.02604 265.26562 60.40104L265.26562 57.322914L266.3125 57.322914L266.3125 65.916664L265.32812 65.916664ZM262.0 62.80729Q262.0 64.010414 262.5 64.604164Q263.0 65.18229 263.6875 65.18229Q264.375 65.18229 264.85938 64.61979Q265.34375 64.05729 265.34375 62.90104Q265.34375 61.61979 264.84375 61.02604Q264.35938 60.43229 263.64062 60.43229Q262.9375 60.43229 262.46875 61.010414Q262.0 61.572914 262.0 62.80729ZM268.26562 65.916664L268.26562 57.322914L269.32812 57.322914L269.32812 65.916664L268.26562 65.916664ZM271.29688 58.541664L271.29688 57.322914L272.35938 57.322914L272.35938 58.541664L271.29688 58.541664ZM271.29688 65.916664L271.29688 59.697914L272.35938 59.697914L272.35938 65.916664L271.29688 65.916664ZM274.29688 65.916664L274.29688 59.697914L275.23438 59.697914L275.23438 60.572914Q275.92188 59.55729 277.21875 59.55729Q277.78125 59.55729 278.25 59.760414Q278.73438 59.96354 278.96875 60.291664Q279.20312 60.61979 279.29688 61.05729Q279.34375 61.354164 279.34375 62.08854L279.34375 65.916664L278.29688 65.916664L278.29688 62.135414Q278.29688 61.479164 278.17188 61.166664Q278.04688 60.854164 277.73438 60.666664Q277.42188 60.46354 277.0 60.46354Q276.32812 60.46354 275.82812 60.90104Q275.34375 61.322914 275.34375 62.510414L275.34375 65.916664L274.29688 65.916664ZM285.54688 63.916664L286.64062 64.041664Q286.39062 64.99479 285.6875 65.52604Q284.98438 66.05729 283.90625 66.05729Q282.54688 66.05729 281.73438 65.21354Q280.9375 64.36979 280.9375 62.854164Q280.9375 61.291664 281.75 60.43229Q282.5625 59.55729 283.84375 59.55729Q285.09375 59.55729 285.875 60.40104Q286.67188 61.24479 286.67188 62.791664Q286.67188 62.885414 286.67188 63.072914L282.03125 63.072914Q282.09375 64.104164 282.60938 64.65104Q283.125 65.18229 283.90625 65.18229Q284.48438 65.18229 284.89062 64.885414Q285.3125 64.572914 285.54688 63.916664ZM282.09375 62.21354L285.5625 62.21354Q285.5 61.416664 285.17188 61.02604Q284.65625 60.416664 283.85938 60.416664Q283.125 60.416664 282.625 60.90104Q282.14062 61.385414 282.09375 62.21354ZM291.54688 65.916664L291.54688 60.510414L290.60938 60.510414L290.60938 59.697914L291.54688 59.697914L291.54688 59.02604Q291.54688 58.40104 291.65625 58.104164Q291.8125 57.68229 292.1875 57.43229Q292.57812 57.18229 293.26562 57.18229Q293.71875 57.18229 294.25 57.291664L294.09375 58.197914Q293.76562 58.15104 293.46875 58.15104Q292.98438 58.15104 292.78125 58.354164Q292.59375 58.55729 292.59375 59.11979L292.59375 59.697914L293.8125 59.697914L293.8125 60.510414L292.59375 60.510414L292.59375 65.916664L291.54688 65.916664ZM293.90625 62.80729Q293.90625 61.072914 294.85938 60.24479Q295.65625 59.55729 296.8125 59.55729Q298.09375 59.55729 298.90625 60.40104Q299.73438 61.229164 299.73438 62.71354Q299.73438 63.916664 299.375 64.604164Q299.01562 65.291664 298.3125 65.68229Q297.625 66.05729 296.8125 66.05729Q295.51562 66.05729 294.70312 65.229164Q293.90625 64.385414 293.90625 62.80729ZM294.98438 62.80729Q294.98438 63.99479 295.5 64.58854Q296.03125 65.18229 296.8125 65.18229Q297.60938 65.18229 298.125 64.58854Q298.64062 63.99479 298.64062 62.77604Q298.64062 61.61979 298.10938 61.02604Q297.59375 60.43229 296.8125 60.43229Q296.03125 60.43229 295.5 61.02604Q294.98438 61.604164 294.98438 62.80729ZM301.28125 65.916664L301.28125 59.697914L302.23438 59.697914L302.23438 60.635414Q302.59375 59.979164 302.89062 59.77604Q303.20312 59.55729 303.57812 59.55729Q304.10938 59.55729 304.65625 59.885414L304.29688 60.86979Q303.90625 60.635414 303.53125 60.635414Q303.17188 60.635414 302.89062 60.854164Q302.625 61.05729 302.51562 61.43229Q302.32812 61.99479 302.32812 62.65104L302.32812 65.916664L301.28125 65.916664ZM307.875 64.05729L308.90625 63.90104Q309.0 64.52604 309.39062 64.854164Q309.79688 65.18229 310.53125 65.18229Q311.25 65.18229 311.59375 64.90104Q311.95312 64.604164 311.95312 64.197914Q311.95312 63.83854 311.64062 63.635414Q311.42188 63.49479 310.5625 63.27604Q309.40625 62.979164 308.95312 62.77604Q308.51562 62.55729 308.28125 62.18229Q308.04688 61.80729 308.04688 61.33854Q308.04688 60.93229 308.23438 60.572914Q308.42188 60.21354 308.75 59.979164Q309.0 59.80729 309.42188 59.68229Q309.84375 59.55729 310.34375 59.55729Q311.0625 59.55729 311.60938 59.77604Q312.17188 59.979164 312.4375 60.33854Q312.70312 60.697914 312.79688 61.291664L311.76562 61.43229Q311.70312 60.96354 311.35938 60.697914Q311.03125 60.416664 310.40625 60.416664Q309.6875 60.416664 309.375 60.666664Q309.0625 60.90104 309.0625 61.229164Q309.0625 61.43229 309.1875 61.58854Q309.32812 61.760414 309.59375 61.86979Q309.75 61.93229 310.53125 62.135414Q311.65625 62.447914 312.09375 62.635414Q312.53125 62.822914 312.78125 63.18229Q313.03125 63.541664 313.03125 64.08854Q313.03125 64.61979 312.71875 65.08854Q312.42188 65.541664 311.84375 65.80729Q311.26562 66.05729 310.53125 66.05729Q309.3125 66.05729 308.67188 65.55729Q308.04688 65.041664 307.875 64.05729ZM319.54688 63.916664L320.64062 64.041664Q320.39062 64.99479 319.6875 65.52604Q318.98438 66.05729 317.90625 66.05729Q316.54688 66.05729 315.73438 65.21354Q314.9375 64.36979 314.9375 62.854164Q314.9375 61.291664 315.75 60.43229Q316.5625 59.55729 317.84375 59.55729Q319.09375 59.55729 319.875 60.40104Q320.67188 61.24479 320.67188 62.791664Q320.67188 62.885414 320.67188 63.072914L316.03125 63.072914Q316.09375 64.104164 316.60938 64.65104Q317.125 65.18229 317.90625 65.18229Q318.48438 65.18229 318.89062 64.885414Q319.3125 64.572914 319.54688 63.916664ZM316.09375 62.21354L319.5625 62.21354Q319.5 61.416664 319.17188 61.02604Q318.65625 60.416664 317.85938 60.416664Q317.125 60.416664 316.625 60.90104Q316.14062 61.385414 316.09375 62.21354ZM322.28125 65.916664L322.28125 59.697914L323.23438 59.697914L323.23438 60.635414Q323.59375 59.979164 323.89062 59.77604Q324.20312 59.55729 324.57812 59.55729Q325.10938 59.55729 325.65625 59.885414L325.29688 60.86979Q324.90625 60.635414 324.53125 60.635414Q324.17188 60.635414 323.89062 60.854164Q323.625 61.05729 323.51562 61.43229Q323.32812 61.99479 323.32812 62.65104L323.32812 65.916664L322.28125 65.916664ZM326.29688 58.541664L326.29688 57.322914L327.35938 57.322914L327.35938 58.541664L326.29688 58.541664ZM326.29688 65.916664L326.29688 59.697914L327.35938 59.697914L327.35938 65.916664L326.29688 65.916664ZM333.54688 63.916664L334.64062 64.041664Q334.39062 64.99479 333.6875 65.52604Q332.98438 66.05729 331.90625 66.05729Q330.54688 66.05729 329.73438 65.21354Q328.9375 64.36979 328.9375 62.854164Q328.9375 61.291664 329.75 60.43229Q330.5625 59.55729 331.84375 59.55729Q333.09375 59.55729 333.875 60.40104Q334.67188 61.24479 334.67188 62.791664Q334.67188 62.885414 334.67188 63.072914L330.03125 63.072914Q330.09375 64.104164 330.60938 64.65104Q331.125 65.18229 331.90625 65.18229Q332.48438 65.18229 332.89062 64.885414Q333.3125 64.572914 333.54688 63.916664ZM330.09375 62.21354L333.5625 62.21354Q333.5 61.416664 333.17188 61.02604Q332.65625 60.416664 331.85938 60.416664Q331.125 60.416664 330.625 60.90104Q330.14062 61.385414 330.09375 62.21354ZM335.875 64.05729L336.90625 63.90104Q337.0 64.52604 337.39062 64.854164Q337.79688 65.18229 338.53125 65.18229Q339.25 65.18229 339.59375 64.90104Q339.95312 64.604164 339.95312 64.197914Q339.95312 63.83854 339.64062 63.635414Q339.42188 63.49479 338.5625 63.27604Q337.40625 62.979164 336.95312 62.77604Q336.51562 62.55729 336.28125 62.18229Q336.04688 61.80729 336.04688 61.33854Q336.04688 60.93229 336.23438 60.572914Q336.42188 60.21354 336.75 59.979164Q337.0 59.80729 337.42188 59.68229Q337.84375 59.55729 338.34375 59.55729Q339.0625 59.55729 339.60938 59.77604Q340.17188 59.979164 340.4375 60.33854Q340.70312 60.697914 340.79688 61.291664L339.76562 61.43229Q339.70312 60.96354 339.35938 60.697914Q339.03125 60.416664 338.40625 60.416664Q337.6875 60.416664 337.375 60.666664Q337.0625 60.90104 337.0625 61.229164Q337.0625 61.43229 337.1875 61.58854Q337.32812 61.760414 337.59375 61.86979Q337.75 61.93229 338.53125 62.135414Q339.65625 62.447914 340.09375 62.635414Q340.53125 62.822914 340.78125 63.18229Q341.03125 63.541664 341.03125 64.08854Q341.03125 64.61979 340.71875 65.08854Q340.42188 65.541664 339.84375 65.80729Q339.26562 66.05729 338.53125 66.05729Q337.3125 66.05729 336.67188 65.55729Q336.04688 65.041664 335.875 64.05729ZM349.96875 65.916664L348.92188 65.916664L348.92188 59.197914Q348.53125 59.55729 347.90625 59.93229Q347.29688 60.291664 346.8125 60.46354L346.8125 59.447914Q347.6875 59.02604 348.34375 58.447914Q349.01562 57.854164 349.29688 57.291664L349.96875 57.291664L349.96875 65.916664ZM356.4375 65.916664L356.4375 57.322914L360.25 57.322914Q361.40625 57.322914 362.0 57.55729Q362.59375 57.791664 362.95312 58.385414Q363.3125 58.96354 363.3125 59.666664Q363.3125 60.58854 362.71875 61.21354Q362.125 61.83854 360.89062 62.010414Q361.34375 62.229164 361.57812 62.43229Q362.07812 62.885414 362.51562 63.572914L364.01562 65.916664L362.57812 65.916664L361.45312 64.135414Q360.95312 63.354164 360.625 62.947914Q360.3125 62.541664 360.04688 62.385414Q359.79688 62.21354 359.53125 62.135414Q359.34375 62.104164 358.90625 62.104164L357.57812 62.104164L357.57812 65.916664L356.4375 65.916664ZM357.57812 61.11979L360.03125 61.11979Q360.79688 61.11979 361.23438 60.96354Q361.6875 60.791664 361.90625 60.447914Q362.14062 60.08854 362.14062 59.666664Q362.14062 59.05729 361.6875 58.666664Q361.25 58.27604 360.29688 58.27604L357.57812 58.27604L357.57812 61.11979ZM364.64062 61.61979Q364.6875 61.291664 364.92188 60.947914Q365.29688 60.447914 366.14062 59.83854Q366.98438 59.229164 367.14062 59.041664Q367.35938 58.80729 367.35938 58.55729Q367.35938 58.27604 367.14062 58.104164Q366.9375 57.916664 366.54688 57.916664Q366.15625 57.916664 365.96875 58.05729Q365.78125 58.18229 365.65625 58.572914L364.76562 58.479164Q364.9375 57.83854 365.35938 57.52604Q365.78125 57.21354 366.5625 57.21354Q367.45312 57.21354 367.85938 57.572914Q368.28125 57.916664 368.28125 58.416664Q368.28125 58.90104 367.92188 59.33854Q367.67188 59.666664 366.73438 60.33854Q366.23438 60.697914 366.03125 60.916664L368.29688 60.916664L368.29688 61.61979L364.64062 61.61979ZM377.84375 60.86979L372.17188 60.86979L372.17188 59.885414L377.84375 59.885414L377.84375 60.86979ZM377.84375 63.479164L372.17188 63.479164L372.17188 62.49479L377.84375 62.49479L377.84375 63.479164ZM382.0 61.68229Q382.0 60.15104 382.3125 59.229164Q382.625 58.291664 383.23438 57.791664Q383.85938 57.291664 384.79688 57.291664Q385.48438 57.291664 386.0 57.572914Q386.53125 57.854164 386.875 58.385414Q387.21875 58.90104 387.40625 59.65104Q387.59375 60.40104 387.59375 61.68229Q387.59375 63.197914 387.28125 64.11979Q386.98438 65.041664 386.35938 65.55729Q385.75 66.05729 384.79688 66.05729Q383.5625 66.05729 382.84375 65.166664Q382.0 64.104164 382.0 61.68229ZM383.07812 61.68229Q383.07812 63.791664 383.57812 64.49479Q384.07812 65.197914 384.79688 65.197914Q385.53125 65.197914 386.01562 64.49479Q386.51562 63.791664 386.51562 61.68229Q386.51562 59.55729 386.01562 58.86979Q385.53125 58.166664 384.78125 58.166664Q384.0625 58.166664 383.625 58.77604Q383.07812 59.55729 383.07812 61.68229ZM389.59375 65.916664L389.59375 64.71354L390.79688 64.71354L390.79688 65.916664L389.59375 65.916664ZM392.0 63.65104L393.0625 63.510414Q393.23438 64.40104 393.67188 64.80729Q394.10938 65.197914 394.73438 65.197914Q395.48438 65.197914 396.0 64.68229Q396.51562 64.166664 396.51562 63.40104Q396.51562 62.68229 396.03125 62.21354Q395.5625 61.729164 394.82812 61.729164Q394.53125 61.729164 394.07812 61.854164L394.20312 60.916664Q394.3125 60.93229 394.375 60.93229Q395.04688 60.93229 395.57812 60.58854Q396.125 60.229164 396.125 59.49479Q396.125 58.916664 395.73438 58.541664Q395.34375 58.15104 394.71875 58.15104Q394.10938 58.15104 393.6875 58.541664Q393.28125 58.93229 393.17188 59.697914L392.10938 59.510414Q392.29688 58.46354 392.98438 57.885414Q393.67188 57.291664 394.6875 57.291664Q395.39062 57.291664 395.98438 57.604164Q396.57812 57.90104 396.89062 58.416664Q397.20312 58.93229 397.20312 59.52604Q397.20312 60.072914 396.90625 60.541664Q396.60938 60.99479 396.03125 61.260414Q396.78125 61.43229 397.20312 61.99479Q397.625 62.541664 397.625 63.385414Q397.625 64.510414 396.79688 65.291664Q395.98438 66.072914 394.73438 66.072914Q393.60938 66.072914 392.85938 65.40104Q392.10938 64.71354 392.0 63.65104ZM399.0 63.666664L400.10938 63.572914Q400.23438 64.385414 400.67188 64.791664Q401.125 65.197914 401.76562 65.197914Q402.51562 65.197914 403.04688 64.61979Q403.57812 64.041664 403.57812 63.104164Q403.57812 62.197914 403.0625 61.68229Q402.5625 61.15104 401.73438 61.15104Q401.23438 61.15104 400.8125 61.385414Q400.40625 61.61979 400.17188 61.979164L399.1875 61.854164L400.01562 57.447914L404.29688 57.447914L404.29688 58.447914L400.85938 58.447914L400.40625 60.760414Q401.17188 60.21354 402.01562 60.21354Q403.14062 60.21354 403.90625 60.99479Q404.6875 61.77604 404.6875 63.010414Q404.6875 64.166664 404.01562 65.02604Q403.1875 66.05729 401.76562 66.05729Q400.59375 66.05729 399.84375 65.40104Q399.10938 64.74479 399.0 63.666664ZM407.625 61.260414Q406.96875 61.010414 406.64062 60.572914Q406.32812 60.11979 406.32812 59.510414Q406.32812 58.572914 407.0 57.93229Q407.6875 57.291664 408.79688 57.291664Q409.92188 57.291664 410.60938 57.947914Q411.29688 58.604164 411.29688 59.541664Q411.29688 60.135414 410.98438 60.572914Q410.67188 61.010414 410.03125 61.260414Q410.82812 61.510414 411.23438 62.08854Q411.64062 62.666664 411.64062 63.46354Q411.64062 64.55729 410.85938 65.30729Q410.09375 66.05729 408.8125 66.05729Q407.54688 66.05729 406.76562 65.30729Q405.98438 64.55729 405.98438 63.43229Q405.98438 62.58854 406.40625 62.02604Q406.84375 61.46354 407.625 61.260414ZM407.40625 59.46354Q407.40625 60.072914 407.79688 60.46354Q408.20312 60.854164 408.82812 60.854164Q409.4375 60.854164 409.82812 60.479164Q410.21875 60.08854 410.21875 59.52604Q410.21875 58.947914 409.8125 58.55729Q409.40625 58.15104 408.8125 58.15104Q408.20312 58.15104 407.79688 58.541664Q407.40625 58.93229 407.40625 59.46354ZM407.07812 63.43229Q407.07812 63.885414 407.28125 64.30729Q407.5 64.729164 407.92188 64.96354Q408.34375 65.197914 408.82812 65.197914Q409.57812 65.197914 410.0625 64.71354Q410.5625 64.229164 410.5625 63.479164Q410.5625 62.71354 410.0625 62.21354Q409.5625 61.71354 408.79688 61.71354Q408.04688 61.71354 407.5625 62.21354Q407.07812 62.697914 407.07812 63.43229Z" fill-rule="nonzero"/><path fill="#000000" d="M24.159374 36.253124Q24.8 36.253124 25.346874 36.003124Q25.89375 35.7375 26.2375 35.26875Q26.596874 34.8 26.64375 34.20625L28.3625 34.20625Q28.315624 35.14375 27.7375 35.95625Q27.159374 36.753124 26.221874 37.253124Q25.284374 37.753124 24.159374 37.753124Q22.971874 37.753124 22.08125 37.33125Q21.190624 36.909374 20.6125 36.175Q20.034374 35.440624 19.7375 34.4875Q19.45625 33.534374 19.45625 32.471874L19.45625 32.065624Q19.45625 31.003124 19.7375 30.05Q20.034374 29.096874 20.6125 28.3625Q21.190624 27.628124 22.08125 27.20625Q22.971874 26.784374 24.159374 26.784374Q25.39375 26.784374 26.315624 27.3Q27.253124 27.8 27.784374 28.659374Q28.315624 29.51875 28.3625 30.6125L26.64375 30.6125Q26.596874 29.95625 26.26875 29.440624Q25.95625 28.909374 25.409374 28.596874Q24.878124 28.26875 24.159374 28.26875Q23.33125 28.26875 22.76875 28.596874Q22.20625 28.925 21.878124 29.4875Q21.55 30.034374 21.409374 30.70625Q21.26875 31.3625 21.26875 32.065624L21.26875 32.471874Q21.26875 33.159374 21.39375 33.846874Q21.534374 34.51875 21.8625 35.065624Q22.190624 35.6125 22.753124 35.940624Q23.315624 36.253124 24.159374 36.253124ZM29.45625 32.378124L29.45625 32.159374Q29.45625 31.01875 29.784374 30.034374Q30.1125 29.05 30.7375 28.33125Q31.3625 27.596874 32.253124 27.190624Q33.14375 26.784374 34.2375 26.784374Q35.3625 26.784374 36.253124 27.190624Q37.14375 27.596874 37.76875 28.33125Q38.409374 29.05 38.7375 30.034374Q39.065624 31.01875 39.065624 32.159374L39.065624 32.378124Q39.065624 33.51875 38.7375 34.503124Q38.409374 35.471874 37.76875 36.20625Q37.14375 36.940624 36.253124 37.346874Q35.378124 37.753124 34.26875 37.753124Q33.14375 37.753124 32.253124 37.346874Q31.378124 36.940624 30.7375 36.20625Q30.1125 35.471874 29.784374 34.503124Q29.45625 33.51875 29.45625 32.378124ZM31.253124 32.159374L31.253124 32.378124Q31.253124 33.175 31.440624 33.878124Q31.628124 34.565624 32.003124 35.1125Q32.378124 35.64375 32.940624 35.95625Q33.51875 36.253124 34.26875 36.253124Q35.003124 36.253124 35.565624 35.95625Q36.128124 35.64375 36.503124 35.1125Q36.878124 34.565624 37.065624 33.878124Q37.253124 33.175 37.253124 32.378124L37.253124 32.159374Q37.253124 31.378124 37.065624 30.690624Q36.878124 29.9875 36.4875 29.440624Q36.1125 28.89375 35.55 28.58125Q35.003124 28.26875 34.2375 28.26875Q33.503124 28.26875 32.940624 28.58125Q32.378124 28.89375 32.003124 29.440624Q31.628124 29.9875 31.440624 30.690624Q31.253124 31.378124 31.253124 32.159374ZM47.08125 34.753124Q47.08125 34.3625 46.909374 34.01875Q46.7375 33.675 46.20625 33.409374Q45.690624 33.128124 44.64375 32.925Q43.76875 32.7375 43.05 32.4875Q42.346874 32.221874 41.846874 31.8625Q41.3625 31.503124 41.096874 31.01875Q40.846874 30.534374 40.846874 29.878124Q40.846874 29.253124 41.1125 28.690624Q41.39375 28.128124 41.909374 27.70625Q42.425 27.26875 43.14375 27.034374Q43.8625 26.784374 44.753124 26.784374Q46.01875 26.784374 46.909374 27.2375Q47.815624 27.690624 48.3 28.440624Q48.784374 29.175 48.784374 30.08125L46.971874 30.08125Q46.971874 29.64375 46.70625 29.2375Q46.45625 28.815624 45.95625 28.55Q45.471874 28.26875 44.753124 28.26875Q44.003124 28.26875 43.534374 28.503124Q43.08125 28.7375 42.8625 29.096874Q42.659374 29.440624 42.659374 29.83125Q42.659374 30.1125 42.753124 30.346874Q42.8625 30.58125 43.128124 30.76875Q43.39375 30.95625 43.8625 31.128124Q44.346874 31.284374 45.08125 31.45625Q46.39375 31.753124 47.221874 32.159374Q48.065624 32.565624 48.471874 33.159374Q48.89375 33.753124 48.89375 34.6125Q48.89375 35.3 48.596874 35.878124Q48.315624 36.45625 47.76875 36.878124Q47.221874 37.284374 46.471874 37.51875Q45.7375 37.753124 44.8 37.753124Q43.409374 37.753124 42.440624 37.253124Q41.471874 36.753124 40.971874 35.95625Q40.471874 35.159374 40.471874 34.284374L42.3 34.284374Q42.33125 35.034374 42.721874 35.471874Q43.1125 35.89375 43.675 36.08125Q44.253124 36.253124 44.8 36.253124Q45.55 36.253124 46.05 36.065624Q46.55 35.8625 46.815624 35.534374Q47.08125 35.190624 47.08125 34.753124ZM55.346874 26.9875L55.346874 28.3625L49.64375 28.3625L49.64375 26.9875L55.346874 26.9875ZM51.565624 24.409374L53.378124 24.409374L53.378124 34.925Q53.378124 35.471874 53.534374 35.753124Q53.70625 36.01875 53.971874 36.1125Q54.2375 36.190624 54.534374 36.190624Q54.76875 36.190624 55.01875 36.14375Q55.26875 36.096874 55.39375 36.08125L55.39375 37.55Q55.190624 37.6125 54.83125 37.675Q54.4875 37.753124 54.003124 37.753124Q53.346874 37.753124 52.784374 37.4875Q52.221874 37.221874 51.89375 36.596874Q51.565624 35.971874 51.565624 34.925L51.565624 24.409374ZM66.14375 35.925L69.03438 26.9875L70.87813 26.9875L67.08125 37.55L65.8625 37.55L66.14375 35.925ZM63.721874 26.9875L66.70625 35.971874L66.90938 37.55L65.70625 37.55L61.878124 26.9875L63.721874 26.9875ZM79.08125 34.753124Q79.08125 34.3625 78.90938 34.01875Q78.7375 33.675 78.20625 33.409374Q77.69063 33.128124 76.64375 32.925Q75.76875 32.7375 75.05 32.4875Q74.34688 32.221874 73.84688 31.8625Q73.3625 31.503124 73.09688 31.01875Q72.84688 30.534374 72.84688 29.878124Q72.84688 29.253124 73.1125 28.690624Q73.39375 28.128124 73.90938 27.70625Q74.425 27.26875 75.14375 27.034374Q75.8625 26.784374 76.75313 26.784374Q78.01875 26.784374 78.90938 27.2375Q79.81563 27.690624 80.3 28.440624Q80.78438 29.175 80.78438 30.08125L78.97188 30.08125Q78.97188 29.64375 78.70625 29.2375Q78.45625 28.815624 77.95625 28.55Q77.47188 28.26875 76.75313 28.26875Q76.00313 28.26875 75.53438 28.503124Q75.08125 28.7375 74.8625 29.096874Q74.65938 29.440624 74.65938 29.83125Q74.65938 30.1125 74.75313 30.346874Q74.8625 30.58125 75.12813 30.76875Q75.39375 30.95625 75.8625 31.128124Q76.34688 31.284374 77.08125 31.45625Q78.39375 31.753124 79.22188 32.159374Q80.06563 32.565624 80.47188 33.159374Q80.89375 33.753124 80.89375 34.6125Q80.89375 35.3 80.59688 35.878124Q80.31563 36.45625 79.76875 36.878124Q79.22188 37.284374 78.47188 37.51875Q77.7375 37.753124 76.8 37.753124Q75.40938 37.753124 74.44063 37.253124Q73.47188 36.753124 72.97188 35.95625Q72.47188 35.159374 72.47188 34.284374L74.3 34.284374Q74.33125 35.034374 74.72188 35.471874Q75.1125 35.89375 75.675 36.08125Q76.25313 36.253124 76.8 36.253124Q77.55 36.253124 78.05 36.065624Q78.55 35.8625 78.81563 35.534374Q79.08125 35.190624 79.08125 34.753124ZM82.95625 36.596874Q82.95625 36.128124 83.2375 35.815624Q83.53438 35.503124 84.08125 35.503124Q84.62813 35.503124 84.90938 35.815624Q85.20625 36.128124 85.20625 36.596874Q85.20625 37.034374 84.90938 37.3625Q84.62813 37.675 84.08125 37.675Q83.53438 37.675 83.2375 37.3625Q82.95625 37.034374 82.95625 36.596874ZM94.7375 29.01875L94.7375 41.6125L92.925 41.6125L92.925 26.9875L94.58125 26.9875L94.7375 29.01875ZM101.84688 32.175L101.84688 32.378124Q101.84688 33.534374 101.56563 34.51875Q101.3 35.503124 100.78438 36.221874Q100.26875 36.940624 99.50313 37.346874Q98.7375 37.753124 97.75313 37.753124Q96.75313 37.753124 95.97188 37.425Q95.20625 37.08125 94.65938 36.45625Q94.12813 35.815624 93.8 34.925Q93.4875 34.034374 93.37813 32.925L93.37813 31.83125Q93.4875 30.659374 93.81563 29.7375Q94.14375 28.8 94.675 28.14375Q95.20625 27.4875 95.95625 27.14375Q96.72188 26.784374 97.72188 26.784374Q98.72188 26.784374 99.4875 27.175Q100.26875 27.565624 100.78438 28.284374Q101.31563 28.9875 101.58125 29.9875Q101.84688 30.971874 101.84688 32.175ZM100.03438 32.378124L100.03438 32.175Q100.03438 31.39375 99.8625 30.690624Q99.70625 29.9875 99.3625 29.45625Q99.01875 28.925 98.47188 28.628124Q97.94063 28.315624 97.19063 28.315624Q96.51875 28.315624 96.00313 28.55Q95.50313 28.784374 95.14375 29.175Q94.8 29.565624 94.58125 30.08125Q94.3625 30.58125 94.25313 31.1125L94.25313 33.64375Q94.45625 34.33125 94.8 34.940624Q95.15938 35.534374 95.7375 35.89375Q96.33125 36.253124 97.22188 36.253124Q97.94063 36.253124 98.47188 35.95625Q99.01875 35.64375 99.3625 35.1125Q99.70625 34.565624 99.8625 33.878124Q100.03438 33.175 100.03438 32.378124ZM105.7375 28.64375L105.7375 37.55L103.925 37.55L103.925 26.9875L105.69063 26.9875L105.7375 28.64375ZM109.03438 26.925L109.01875 28.596874Q108.8 28.55 108.59688 28.534374Q108.39375 28.51875 108.14375 28.51875Q107.51875 28.51875 107.03438 28.721874Q106.56563 28.909374 106.22188 29.26875Q105.89375 29.6125 105.70625 30.096874Q105.51875 30.58125 105.45625 31.159374L104.95625 31.45625Q104.95625 30.503124 105.14375 29.659374Q105.33125 28.815624 105.72188 28.175Q106.12813 27.51875 106.75313 27.159374Q107.37813 26.784374 108.2375 26.784374Q108.425 26.784374 108.675 26.83125Q108.94063 26.878124 109.03438 26.925ZM112.89375 26.9875L112.89375 37.55L111.08125 37.55L111.08125 26.9875L112.89375 26.9875ZM110.94063 24.175Q110.94063 23.7375 111.20625 23.440624Q111.47188 23.128124 112.00313 23.128124Q112.51875 23.128124 112.8 23.440624Q113.08125 23.7375 113.08125 24.175Q113.08125 24.596874 112.8 24.89375Q112.51875 25.190624 112.00313 25.190624Q111.47188 25.190624 111.20625 24.89375Q110.94063 24.596874 110.94063 24.175ZM120.15938 36.253124Q120.8 36.253124 121.34688 36.003124Q121.89375 35.7375 122.2375 35.26875Q122.59688 34.8 122.64375 34.20625L124.3625 34.20625Q124.31563 35.14375 123.7375 35.95625Q123.15938 36.753124 122.22188 37.253124Q121.28438 37.753124 120.15938 37.753124Q118.97188 37.753124 118.08125 37.33125Q117.19063 36.909374 116.6125 36.175Q116.03438 35.440624 115.7375 34.4875Q115.45625 33.534374 115.45625 32.471874L115.45625 32.065624Q115.45625 31.003124 115.7375 30.05Q116.03438 29.096874 116.6125 28.3625Q117.19063 27.628124 118.08125 27.20625Q118.97188 26.784374 120.15938 26.784374Q121.39375 26.784374 122.31563 27.3Q123.25313 27.8 123.78438 28.659374Q124.31563 29.51875 124.3625 30.6125L122.64375 30.6125Q122.59688 29.95625 122.26875 29.440624Q121.95625 28.909374 121.40938 28.596874Q120.87813 28.26875 120.15938 28.26875Q119.33125 28.26875 118.76875 28.596874Q118.20625 28.925 117.87813 29.4875Q117.55 30.034374 117.40938 30.70625Q117.26875 31.3625 117.26875 32.065624L117.26875 32.471874Q117.26875 33.159374 117.39375 33.846874Q117.53438 34.51875 117.8625 35.065624Q118.19063 35.6125 118.75313 35.940624Q119.31563 36.253124 120.15938 36.253124ZM130.31563 37.753124Q129.20625 37.753124 128.31563 37.378124Q127.425 36.9875 126.78438 36.315624Q126.14375 35.628124 125.8 34.690624Q125.45625 33.753124 125.45625 32.64375L125.45625 32.221874Q125.45625 30.940624 125.83125 29.925Q126.22188 28.909374 126.87813 28.20625Q127.53438 27.503124 128.3625 27.14375Q129.19063 26.784374 130.08125 26.784374Q131.20625 26.784374 132.03438 27.175Q132.8625 27.565624 133.37813 28.26875Q133.90938 28.971874 134.15938 29.909374Q134.425 30.846874 134.425 31.95625L134.425 32.76875L126.53438 32.76875L126.53438 31.3L132.6125 31.3L132.6125 31.159374Q132.58125 30.45625 132.33125 29.8Q132.08125 29.128124 131.53438 28.70625Q131.00313 28.26875 130.08125 28.26875Q129.45625 28.26875 128.94063 28.534374Q128.425 28.784374 128.05 29.3Q127.69063 29.8 127.47188 30.534374Q127.26875 31.26875 127.26875 32.221874L127.26875 32.64375Q127.26875 33.39375 127.47188 34.05Q127.69063 34.70625 128.09688 35.20625Q128.50313 35.70625 129.08125 35.9875Q129.675 36.26875 130.40938 36.26875Q131.3625 36.26875 132.01875 35.878124Q132.69063 35.4875 133.19063 34.83125L134.28438 35.70625Q133.94063 36.221874 133.40938 36.690624Q132.89375 37.159374 132.12813 37.45625Q131.3625 37.753124 130.31563 37.753124ZM146.31563 37.753124Q145.20625 37.753124 144.31563 37.378124Q143.425 36.9875 142.78438 36.315624Q142.14375 35.628124 141.8 34.690624Q141.45625 33.753124 141.45625 32.64375L141.45625 32.221874Q141.45625 30.940624 141.83125 29.925Q142.22188 28.909374 142.87813 28.20625Q143.53438 27.503124 144.3625 27.14375Q145.19063 26.784374 146.08125 26.784374Q147.20625 26.784374 148.03438 27.175Q148.8625 27.565624 149.37813 28.26875Q149.90938 28.971874 150.15938 29.909374Q150.425 30.846874 150.425 31.95625L150.425 32.76875L142.53438 32.76875L142.53438 31.3L148.6125 31.3L148.6125 31.159374Q148.58125 30.45625 148.33125 29.8Q148.08125 29.128124 147.53438 28.70625Q147.00313 28.26875 146.08125 28.26875Q145.45625 28.26875 144.94063 28.534374Q144.425 28.784374 144.05 29.3Q143.69063 29.8 143.47188 30.534374Q143.26875 31.26875 143.26875 32.221874L143.26875 32.64375Q143.26875 33.39375 143.47188 34.05Q143.69063 34.70625 144.09688 35.20625Q144.50313 35.70625 145.08125 35.9875Q145.675 36.26875 146.40938 36.26875Q147.3625 36.26875 148.01875 35.878124Q148.69063 35.4875 149.19063 34.83125L150.28438 35.70625Q149.94063 36.221874 149.40938 36.690624Q148.89375 37.159374 148.12813 37.45625Q147.3625 37.753124 146.31563 37.753124ZM155.62813 37.55L153.81563 37.55L153.81563 25.8625Q153.81563 24.721874 154.22188 23.940624Q154.64375 23.159374 155.425 22.753124Q156.20625 22.346874 157.28438 22.346874Q157.59688 22.346874 157.90938 22.39375Q158.2375 22.425 158.53438 22.503124L158.44063 23.971874Q158.2375 23.925 157.97188 23.909374Q157.70625 23.89375 157.45625 23.89375Q156.87813 23.89375 156.45625 24.128124Q156.05 24.346874 155.83125 24.784374Q155.62813 25.221874 155.62813 25.8625L155.62813 37.55ZM157.8625 26.9875L157.8625 28.3625L152.14375 28.3625L152.14375 26.9875L157.8625 26.9875ZM162.62813 37.55L160.81563 37.55L160.81563 25.8625Q160.81563 24.721874 161.22188 23.940624Q161.64375 23.159374 162.425 22.753124Q163.20625 22.346874 164.28438 22.346874Q164.59688 22.346874 164.90938 22.39375Q165.2375 22.425 165.53438 22.503124L165.44063 23.971874Q165.2375 23.925 164.97188 23.909374Q164.70625 23.89375 164.45625 23.89375Q163.87813 23.89375 163.45625 24.128124Q163.05 24.346874 162.83125 24.784374Q162.62813 25.221874 162.62813 25.8625L162.62813 37.55ZM164.8625 26.9875L164.8625 28.3625L159.14375 28.3625L159.14375 26.9875L164.8625 26.9875ZM168.89375 26.9875L168.89375 37.55L167.08125 37.55L167.08125 26.9875L168.89375 26.9875ZM166.94063 24.175Q166.94063 23.7375 167.20625 23.440624Q167.47188 23.128124 168.00313 23.128124Q168.51875 23.128124 168.8 23.440624Q169.08125 23.7375 169.08125 24.175Q169.08125 24.596874 168.8 24.89375Q168.51875 25.190624 168.00313 25.190624Q167.47188 25.190624 167.20625 24.89375Q166.94063 24.596874 166.94063 24.175ZM176.15938 36.253124Q176.8 36.253124 177.34688 36.003124Q177.89375 35.7375 178.2375 35.26875Q178.59688 34.8 178.64375 34.20625L180.3625 34.20625Q180.31563 35.14375 179.7375 35.95625Q179.15938 36.753124 178.22188 37.253124Q177.28438 37.753124 176.15938 37.753124Q174.97188 37.753124 174.08125 37.33125Q173.19063 36.909374 172.6125 36.175Q172.03438 35.440624 171.7375 34.4875Q171.45625 33.534374 171.45625 32.471874L171.45625 32.065624Q171.45625 31.003124 171.7375 30.05Q172.03438 29.096874 172.6125 28.3625Q173.19063 27.628124 174.08125 27.20625Q174.97188 26.784374 176.15938 26.784374Q177.39375 26.784374 178.31563 27.3Q179.25313 27.8 179.78438 28.659374Q180.31563 29.51875 180.3625 30.6125L178.64375 30.6125Q178.59688 29.95625 178.26875 29.440624Q177.95625 28.909374 177.40938 28.596874Q176.87813 28.26875 176.15938 28.26875Q175.33125 28.26875 174.76875 28.596874Q174.20625 28.925 173.87813 29.4875Q173.55 30.034374 173.40938 30.70625Q173.26875 31.3625 173.26875 32.065624L173.26875 32.471874Q173.26875 33.159374 173.39375 33.846874Q173.53438 34.51875 173.8625 35.065624Q174.19063 35.6125 174.75313 35.940624Q175.31563 36.253124 176.15938 36.253124ZM183.89375 26.9875L183.89375 37.55L182.08125 37.55L182.08125 26.9875L183.89375 26.9875ZM181.94063 24.175Q181.94063 23.7375 182.20625 23.440624Q182.47188 23.128124 183.00313 23.128124Q183.51875 23.128124 183.8 23.440624Q184.08125 23.7375 184.08125 24.175Q184.08125 24.596874 183.8 24.89375Q183.51875 25.190624 183.00313 25.190624Q182.47188 25.190624 182.20625 24.89375Q181.94063 24.596874 181.94063 24.175ZM191.31563 37.753124Q190.20625 37.753124 189.31563 37.378124Q188.425 36.9875 187.78438 36.315624Q187.14375 35.628124 186.8 34.690624Q186.45625 33.753124 186.45625 32.64375L186.45625 32.221874Q186.45625 30.940624 186.83125 29.925Q187.22188 28.909374 187.87813 28.20625Q188.53438 27.503124 189.3625 27.14375Q190.19063 26.784374 191.08125 26.784374Q192.20625 26.784374 193.03438 27.175Q193.8625 27.565624 194.37813 28.26875Q194.90938 28.971874 195.15938 29.909374Q195.425 30.846874 195.425 31.95625L195.425 32.76875L187.53438 32.76875L187.53438 31.3L193.6125 31.3L193.6125 31.159374Q193.58125 30.45625 193.33125 29.8Q193.08125 29.128124 192.53438 28.70625Q192.00313 28.26875 191.08125 28.26875Q190.45625 28.26875 189.94063 28.534374Q189.425 28.784374 189.05 29.3Q188.69063 29.8 188.47188 30.534374Q188.26875 31.26875 188.26875 32.221874L188.26875 32.64375Q188.26875 33.39375 188.47188 34.05Q188.69063 34.70625 189.09688 35.20625Q189.50313 35.70625 190.08125 35.9875Q190.675 36.26875 191.40938 36.26875Q192.3625 36.26875 193.01875 35.878124Q193.69063 35.4875 194.19063 34.83125L195.28438 35.70625Q194.94063 36.221874 194.40938 36.690624Q193.89375 37.159374 193.12813 37.45625Q192.3625 37.753124 191.31563 37.753124ZM199.7375 29.2375L199.7375 37.55L197.925 37.55L197.925 26.9875L199.64375 26.9875L199.7375 29.2375ZM199.3 31.8625L198.55 31.83125Q198.56563 30.753124 198.87813 29.83125Q199.19063 28.909374 199.75313 28.221874Q200.31563 27.534374 201.09688 27.159374Q201.89375 26.784374 202.84688 26.784374Q203.62813 26.784374 204.25313 27.003124Q204.87813 27.20625 205.31563 27.675Q205.76875 28.128124 206.00313 28.8625Q206.2375 29.58125 206.2375 30.628124L206.2375 37.55L204.425 37.55L204.425 30.6125Q204.425 29.76875 204.175 29.26875Q203.94063 28.76875 203.47188 28.55Q203.00313 28.315624 202.31563 28.315624Q201.64375 28.315624 201.08125 28.596874Q200.53438 28.878124 200.12813 29.378124Q199.7375 29.878124 199.51875 30.51875Q199.3 31.159374 199.3 31.8625ZM213.15938 36.253124Q213.8 36.253124 214.34688 36.003124Q214.89375 35.7375 215.2375 35.26875Q215.59688 34.8 215.64375 34.20625L217.3625 34.20625Q217.31563 35.14375 216.7375 35.95625Q216.15938 36.753124 215.22188 37.253124Q214.28438 37.753124 213.15938 37.753124Q211.97188 37.753124 211.08125 37.33125Q210.19063 36.909374 209.6125 36.175Q209.03438 35.440624 208.7375 34.4875Q208.45625 33.534374 208.45625 32.471874L208.45625 32.065624Q208.45625 31.003124 208.7375 30.05Q209.03438 29.096874 209.6125 28.3625Q210.19063 27.628124 211.08125 27.20625Q211.97188 26.784374 213.15938 26.784374Q214.39375 26.784374 215.31563 27.3Q216.25313 27.8 216.78438 28.659374Q217.31563 29.51875 217.3625 30.6125L215.64375 30.6125Q215.59688 29.95625 215.26875 29.440624Q214.95625 28.909374 214.40938 28.596874Q213.87813 28.26875 213.15938 28.26875Q212.33125 28.26875 211.76875 28.596874Q211.20625 28.925 210.87813 29.4875Q210.55 30.034374 210.40938 30.70625Q210.26875 31.3625 210.26875 32.065624L210.26875 32.471874Q210.26875 33.159374 210.39375 33.846874Q210.53438 34.51875 210.8625 35.065624Q211.19063 35.6125 211.75313 35.940624Q212.31563 36.253124 213.15938 36.253124ZM221.89375 36.45625L224.83125 26.9875L226.76875 26.9875L222.53438 39.175Q222.37813 39.565624 222.14375 40.01875Q221.90938 40.4875 221.53438 40.89375Q221.15938 41.3 220.62813 41.55Q220.1125 41.815624 219.39375 41.815624Q219.175 41.815624 218.84688 41.753124Q218.51875 41.70625 218.37813 41.659374L218.37813 40.190624Q218.45625 40.20625 218.6125 40.221874Q218.78438 40.2375 218.8625 40.2375Q219.47188 40.2375 219.89375 40.065624Q220.33125 39.909374 220.62813 39.534374Q220.925 39.159374 221.14375 38.503124L221.89375 36.45625ZM219.7375 26.9875L222.4875 35.190624L222.95625 37.096874L221.65938 37.753124L217.76875 26.9875L219.7375 26.9875ZM232.8625 31.8625L232.8625 31.76875Q232.8625 29.64375 233.33125 27.925Q233.81563 26.190624 234.55 24.89375Q235.3 23.596874 236.1125 22.7375Q236.94063 21.878124 237.62813 21.503124L238.01875 22.690624Q237.44063 23.128124 236.84688 23.909374Q236.25313 24.675 235.75313 25.8Q235.26875 26.925 234.95625 28.409374Q234.65938 29.89375 234.65938 31.753124L234.65938 31.878124Q234.65938 33.7375 234.95625 35.2375Q235.26875 36.721874 235.75313 37.846874Q236.25313 38.9875 236.84688 39.784374Q237.44063 40.58125 238.01875 41.05L237.62813 42.14375Q236.94063 41.753124 236.1125 40.89375Q235.3 40.05 234.55 38.753124Q233.81563 37.45625 233.33125 35.7375Q232.8625 34.003124 232.8625 31.8625ZM244.15938 36.253124Q244.8 36.253124 245.34688 36.003124Q245.89375 35.7375 246.2375 35.26875Q246.59688 34.8 246.64375 34.20625L248.3625 34.20625Q248.31563 35.14375 247.7375 35.95625Q247.15938 36.753124 246.22188 37.253124Q245.28438 37.753124 244.15938 37.753124Q242.97188 37.753124 242.08125 37.33125Q241.19063 36.909374 240.6125 36.175Q240.03438 35.440624 239.7375 34.4875Q239.45625 33.534374 239.45625 32.471874L239.45625 32.065624Q239.45625 31.003124 239.7375 30.05Q240.03438 29.096874 240.6125 28.3625Q241.19063 27.628124 242.08125 27.20625Q242.97188 26.784374 244.15938 26.784374Q245.39375 26.784374 246.31563 27.3Q247.25313 27.8 247.78438 28.659374Q248.31563 29.51875 248.3625 30.6125L246.64375 30.6125Q246.59688 29.95625 246.26875 29.440624Q245.95625 28.909374 245.40938 28.596874Q244.87813 28.26875 244.15938 28.26875Q243.33125 28.26875 242.76875 28.596874Q242.20625 28.925 241.87813 29.4875Q241.55 30.034374 241.40938 30.70625Q241.26875 31.3625 241.26875 32.065624L241.26875 32.471874Q241.26875 33.159374 241.39375 33.846874Q241.53438 34.51875 241.8625 35.065624Q242.19063 35.6125 242.75313 35.940624Q243.31563 36.253124 244.15938 36.253124ZM249.45625 32.378124L249.45625 32.159374Q249.45625 31.01875 249.78438 30.034374Q250.1125 29.05 250.7375 28.33125Q251.3625 27.596874 252.25313 27.190624Q253.14375 26.784374 254.2375 26.784374Q255.3625 26.784374 256.2531 27.190624Q257.14374 27.596874 257.76874 28.33125Q258.40936 29.05 258.7375 30.034374Q259.0656 31.01875 259.0656 32.159374L259.0656 32.378124Q259.0656 33.51875 258.7375 34.503124Q258.40936 35.471874 257.76874 36.20625Q257.14374 36.940624 256.2531 37.346874Q255.37813 37.753124 254.26875 37.753124Q253.14375 37.753124 252.25313 37.346874Q251.37813 36.940624 250.7375 36.20625Q250.1125 35.471874 249.78438 34.503124Q249.45625 33.51875 249.45625 32.378124ZM251.25313 32.159374L251.25313 32.378124Q251.25313 33.175 251.44063 33.878124Q251.62813 34.565624 252.00313 35.1125Q252.37813 35.64375 252.94063 35.95625Q253.51875 36.253124 254.26875 36.253124Q255.00313 36.253124 255.56563 35.95625Q256.1281 35.64375 256.5031 35.1125Q256.8781 34.565624 257.0656 33.878124Q257.2531 33.175 257.2531 32.378124L257.2531 32.159374Q257.2531 31.378124 257.0656 30.690624Q256.8781 29.9875 256.4875 29.440624Q256.1125 28.89375 255.55 28.58125Q255.00313 28.26875 254.2375 28.26875Q253.50313 28.26875 252.94063 28.58125Q252.37813 28.89375 252.00313 29.440624Q251.62813 29.9875 251.44063 30.690624Q251.25313 31.378124 251.25313 32.159374ZM267.08124 34.753124Q267.08124 34.3625 266.90936 34.01875Q266.7375 33.675 266.20624 33.409374Q265.6906 33.128124 264.64374 32.925Q263.76874 32.7375 263.05 32.4875Q262.34686 32.221874 261.84686 31.8625Q261.3625 31.503124 261.09686 31.01875Q260.84686 30.534374 260.84686 29.878124Q260.84686 29.253124 261.1125 28.690624Q261.39374 28.128124 261.90936 27.70625Q262.425 27.26875 263.14374 27.034374Q263.8625 26.784374 264.7531 26.784374Q266.01874 26.784374 266.90936 27.2375Q267.8156 27.690624 268.3 28.440624Q268.78436 29.175 268.78436 30.08125L266.97186 30.08125Q266.97186 29.64375 266.70624 29.2375Q266.45624 28.815624 265.95624 28.55Q265.47186 28.26875 264.7531 28.26875Q264.0031 28.26875 263.53436 28.503124Q263.08124 28.7375 262.8625 29.096874Q262.65936 29.440624 262.65936 29.83125Q262.65936 30.1125 262.7531 30.346874Q262.8625 30.58125 263.1281 30.76875Q263.39374 30.95625 263.8625 31.128124Q264.34686 31.284374 265.08124 31.45625Q266.39374 31.753124 267.22186 32.159374Q268.0656 32.565624 268.47186 33.159374Q268.89374 33.753124 268.89374 34.6125Q268.89374 35.3 268.59686 35.878124Q268.3156 36.45625 267.76874 36.878124Q267.22186 37.284374 266.47186 37.51875Q265.7375 37.753124 264.8 37.753124Q263.40936 37.753124 262.4406 37.253124Q261.47186 36.753124 260.97186 35.95625Q260.47186 35.159374 260.47186 34.284374L262.3 34.284374Q262.33124 35.034374 262.72186 35.471874Q263.1125 35.89375 263.675 36.08125Q264.2531 36.253124 264.8 36.253124Q265.55 36.253124 266.05 36.065624Q266.55 35.8625 266.8156 35.534374Q267.08124 35.190624 267.08124 34.753124ZM275.34686 26.9875L275.34686 28.3625L269.64374 28.3625L269.64374 26.9875L275.34686 26.9875ZM271.5656 24.409374L273.3781 24.409374L273.3781 34.925Q273.3781 35.471874 273.53436 35.753124Q273.70624 36.01875 273.97186 36.1125Q274.2375 36.190624 274.53436 36.190624Q274.76874 36.190624 275.01874 36.14375Q275.26874 36.096874 275.39374 36.08125L275.39374 37.55Q275.1906 37.6125 274.83124 37.675Q274.4875 37.753124 274.0031 37.753124Q273.34686 37.753124 272.78436 37.4875Q272.22186 37.221874 271.89374 36.596874Q271.5656 35.971874 271.5656 34.925L271.5656 24.409374ZM281.6906 30.76875L281.6906 32.253124L276.925 32.253124L276.925 30.76875L281.6906 30.76875ZM285.7375 28.64375L285.7375 37.55L283.925 37.55L283.925 26.9875L285.6906 26.9875L285.7375 28.64375ZM289.03436 26.925L289.01874 28.596874Q288.8 28.55 288.59686 28.534374Q288.39374 28.51875 288.14374 28.51875Q287.51874 28.51875 287.03436 28.721874Q286.5656 28.909374 286.22186 29.26875Q285.89374 29.6125 285.70624 30.096874Q285.51874 30.58125 285.45624 31.159374L284.95624 31.45625Q284.95624 30.503124 285.14374 29.659374Q285.33124 28.815624 285.72186 28.175Q286.1281 27.51875 286.7531 27.159374Q287.3781 26.784374 288.2375 26.784374Q288.425 26.784374 288.675 26.83125Q288.9406 26.878124 289.03436 26.925ZM297.15936 35.7375L297.15936 30.3Q297.15936 29.675 296.90936 29.221874Q296.65936 28.753124 296.15936 28.503124Q295.65936 28.2375 294.925 28.2375Q294.2531 28.2375 293.7375 28.471874Q293.22186 28.70625 292.925 29.096874Q292.64374 29.471874 292.64374 29.909374L290.84686 29.909374Q290.84686 29.346874 291.1281 28.8Q291.425 28.2375 291.97186 27.784374Q292.53436 27.33125 293.3 27.065624Q294.08124 26.784374 295.03436 26.784374Q296.1906 26.784374 297.0656 27.175Q297.95624 27.565624 298.45624 28.3625Q298.97186 29.14375 298.97186 30.315624L298.97186 35.2375Q298.97186 35.76875 299.05 36.3625Q299.14374 36.95625 299.33124 37.39375L299.33124 37.55L297.45624 37.55Q297.3156 37.2375 297.2375 36.721874Q297.15936 36.190624 297.15936 35.7375ZM297.47186 31.14375L297.4875 32.409374L295.65936 32.409374Q294.89374 32.409374 294.28436 32.534374Q293.675 32.659374 293.26874 32.909374Q292.8625 33.14375 292.64374 33.51875Q292.425 33.878124 292.425 34.3625Q292.425 34.8625 292.64374 35.284374Q292.8781 35.690624 293.33124 35.925Q293.78436 36.159374 294.45624 36.159374Q295.28436 36.159374 295.90936 35.815624Q296.55 35.45625 296.925 34.95625Q297.3 34.440624 297.33124 33.971874L298.1125 34.83125Q298.03436 35.2375 297.72186 35.7375Q297.425 36.2375 296.925 36.690624Q296.425 37.14375 295.7375 37.45625Q295.05 37.753124 294.1906 37.753124Q293.1125 37.753124 292.3 37.33125Q291.5031 36.909374 291.05 36.20625Q290.6125 35.4875 290.6125 34.6125Q290.6125 33.753124 290.9406 33.1125Q291.28436 32.45625 291.90936 32.034374Q292.53436 31.596874 293.40936 31.378124Q294.28436 31.14375 295.3781 31.14375L297.47186 31.14375ZM303.7375 29.2375L303.7375 37.55L301.925 37.55L301.925 26.9875L303.64374 26.9875L303.7375 29.2375ZM303.3 31.8625L302.55 31.83125Q302.5656 30.753124 302.8781 29.83125Q303.1906 28.909374 303.7531 28.221874Q304.3156 27.534374 305.09686 27.159374Q305.89374 26.784374 306.84686 26.784374Q307.6281 26.784374 308.2531 27.003124Q308.8781 27.20625 309.3156 27.675Q309.76874 28.128124 310.0031 28.8625Q310.2375 29.58125 310.2375 30.628124L310.2375 37.55L308.425 37.55L308.425 30.6125Q308.425 29.76875 308.175 29.26875Q307.9406 28.76875 307.47186 28.55Q307.0031 28.315624 306.3156 28.315624Q305.64374 28.315624 305.08124 28.596874Q304.53436 28.878124 304.1281 29.378124Q303.7375 29.878124 303.51874 30.51875Q303.3 31.159374 303.3 31.8625ZM314.7375 22.55L314.7375 37.55L312.925 37.55L312.925 22.55L314.7375 22.55ZM321.20624 26.9875L316.59686 31.909374L314.01874 34.596874L313.8625 32.659374L315.70624 30.45625L318.9875 26.9875L321.20624 26.9875ZM319.55 37.55L315.78436 32.503124L316.72186 30.89375L321.675 37.55L319.55 37.55ZM334.08124 34.753124Q334.08124 34.3625 333.90936 34.01875Q333.7375 33.675 333.20624 33.409374Q332.6906 33.128124 331.64374 32.925Q330.76874 32.7375 330.05 32.4875Q329.34686 32.221874 328.84686 31.8625Q328.3625 31.503124 328.09686 31.01875Q327.84686 30.534374 327.84686 29.878124Q327.84686 29.253124 328.1125 28.690624Q328.39374 28.128124 328.90936 27.70625Q329.425 27.26875 330.14374 27.034374Q330.8625 26.784374 331.7531 26.784374Q333.01874 26.784374 333.90936 27.2375Q334.8156 27.690624 335.3 28.440624Q335.78436 29.175 335.78436 30.08125L333.97186 30.08125Q333.97186 29.64375 333.70624 29.2375Q333.45624 28.815624 332.95624 28.55Q332.47186 28.26875 331.7531 28.26875Q331.0031 28.26875 330.53436 28.503124Q330.08124 28.7375 329.8625 29.096874Q329.65936 29.440624 329.65936 29.83125Q329.65936 30.1125 329.7531 30.346874Q329.8625 30.58125 330.1281 30.76875Q330.39374 30.95625 330.8625 31.128124Q331.34686 31.284374 332.08124 31.45625Q333.39374 31.753124 334.22186 32.159374Q335.0656 32.565624 335.47186 33.159374Q335.89374 33.753124 335.89374 34.6125Q335.89374 35.3 335.59686 35.878124Q335.3156 36.45625 334.76874 36.878124Q334.22186 37.284374 333.47186 37.51875Q332.7375 37.753124 331.8 37.753124Q330.40936 37.753124 329.4406 37.253124Q328.47186 36.753124 327.97186 35.95625Q327.47186 35.159374 327.47186 34.284374L329.3 34.284374Q329.33124 35.034374 329.72186 35.471874Q330.1125 35.89375 330.675 36.08125Q331.2531 36.253124 331.8 36.253124Q332.55 36.253124 333.05 36.065624Q333.55 35.8625 333.8156 35.534374Q334.08124 35.190624 334.08124 34.753124ZM342.15936 36.253124Q342.8 36.253124 343.34686 36.003124Q343.89374 35.7375 344.2375 35.26875Q344.59686 34.8 344.64374 34.20625L346.3625 34.20625Q346.3156 35.14375 345.7375 35.95625Q345.15936 36.753124 344.22186 37.253124Q343.28436 37.753124 342.15936 37.753124Q340.97186 37.753124 340.08124 37.33125Q339.1906 36.909374 338.6125 36.175Q338.03436 35.440624 337.7375 34.4875Q337.45624 33.534374 337.45624 32.471874L337.45624 32.065624Q337.45624 31.003124 337.7375 30.05Q338.03436 29.096874 338.6125 28.3625Q339.1906 27.628124 340.08124 27.20625Q340.97186 26.784374 342.15936 26.784374Q343.39374 26.784374 344.3156 27.3Q345.2531 27.8 345.78436 28.659374Q346.3156 29.51875 346.3625 30.6125L344.64374 30.6125Q344.59686 29.95625 344.26874 29.440624Q343.95624 28.909374 343.40936 28.596874Q342.8781 28.26875 342.15936 28.26875Q341.33124 28.26875 340.76874 28.596874Q340.20624 28.925 339.8781 29.4875Q339.55 30.034374 339.40936 30.70625Q339.26874 31.3625 339.26874 32.065624L339.26874 32.471874Q339.26874 33.159374 339.39374 33.846874Q339.53436 34.51875 339.8625 35.065624Q340.1906 35.6125 340.7531 35.940624Q341.3156 36.253124 342.15936 36.253124ZM347.45624 32.378124L347.45624 32.159374Q347.45624 31.01875 347.78436 30.034374Q348.1125 29.05 348.7375 28.33125Q349.3625 27.596874 350.2531 27.190624Q351.14374 26.784374 352.2375 26.784374Q353.3625 26.784374 354.2531 27.190624Q355.14374 27.596874 355.76874 28.33125Q356.40936 29.05 356.7375 30.034374Q357.0656 31.01875 357.0656 32.159374L357.0656 32.378124Q357.0656 33.51875 356.7375 34.503124Q356.40936 35.471874 355.76874 36.20625Q355.14374 36.940624 354.2531 37.346874Q353.3781 37.753124 352.26874 37.753124Q351.14374 37.753124 350.2531 37.346874Q349.3781 36.940624 348.7375 36.20625Q348.1125 35.471874 347.78436 34.503124Q347.45624 33.51875 347.45624 32.378124ZM349.2531 32.159374L349.2531 32.378124Q349.2531 33.175 349.4406 33.878124Q349.6281 34.565624 350.0031 35.1125Q350.3781 35.64375 350.9406 35.95625Q351.51874 36.253124 352.26874 36.253124Q353.0031 36.253124 353.5656 35.95625Q354.1281 35.64375 354.5031 35.1125Q354.8781 34.565624 355.0656 33.878124Q355.2531 33.175 355.2531 32.378124L355.2531 32.159374Q355.2531 31.378124 355.0656 30.690624Q354.8781 29.9875 354.4875 29.440624Q354.1125 28.89375 353.55 28.58125Q353.0031 28.26875 352.2375 28.26875Q351.5031 28.26875 350.9406 28.58125Q350.3781 28.89375 350.0031 29.440624Q349.6281 29.9875 349.4406 30.690624Q349.2531 31.378124 349.2531 32.159374ZM360.7375 28.64375L360.7375 37.55L358.925 37.55L358.925 26.9875L360.6906 26.9875L360.7375 28.64375ZM364.03436 26.925L364.01874 28.596874Q363.8 28.55 363.59686 28.534374Q363.39374 28.51875 363.14374 28.51875Q362.51874 28.51875 362.03436 28.721874Q361.5656 28.909374 361.22186 29.26875Q360.89374 29.6125 360.70624 30.096874Q360.51874 30.58125 360.45624 31.159374L359.95624 31.45625Q359.95624 30.503124 360.14374 29.659374Q360.33124 28.815624 360.72186 28.175Q361.1281 27.51875 361.7531 27.159374Q362.3781 26.784374 363.2375 26.784374Q363.425 26.784374 363.675 26.83125Q363.9406 26.878124 364.03436 26.925ZM370.3156 37.753124Q369.20624 37.753124 368.3156 37.378124Q367.425 36.9875 366.78436 36.315624Q366.14374 35.628124 365.8 34.690624Q365.45624 33.753124 365.45624 32.64375L365.45624 32.221874Q365.45624 30.940624 365.83124 29.925Q366.22186 28.909374 366.8781 28.20625Q367.53436 27.503124 368.3625 27.14375Q369.1906 26.784374 370.08124 26.784374Q371.20624 26.784374 372.03436 27.175Q372.8625 27.565624 373.3781 28.26875Q373.90936 28.971874 374.15936 29.909374Q374.425 30.846874 374.425 31.95625L374.425 32.76875L366.53436 32.76875L366.53436 31.3L372.6125 31.3L372.6125 31.159374Q372.58124 30.45625 372.33124 29.8Q372.08124 29.128124 371.53436 28.70625Q371.0031 28.26875 370.08124 28.26875Q369.45624 28.26875 368.9406 28.534374Q368.425 28.784374 368.05 29.3Q367.6906 29.8 367.47186 30.534374Q367.26874 31.26875 367.26874 32.221874L367.26874 32.64375Q367.26874 33.39375 367.47186 34.05Q367.6906 34.70625 368.09686 35.20625Q368.5031 35.70625 369.08124 35.9875Q369.675 36.26875 370.40936 36.26875Q371.3625 36.26875 372.01874 35.878124Q372.6906 35.4875 373.1906 34.83125L374.28436 35.70625Q373.9406 36.221874 373.40936 36.690624Q372.89374 37.159374 372.1281 37.45625Q371.3625 37.753124 370.3156 37.753124ZM381.08124 31.76875L381.08124 31.8625Q381.08124 34.003124 380.59686 35.7375Q380.1281 37.45625 379.3781 38.753124Q378.64374 40.05 377.8156 40.89375Q377.0031 41.753124 376.3156 42.14375L375.925 41.05Q376.5031 40.6125 377.08124 39.815624Q377.675 39.034374 378.175 37.878124Q378.675 36.7375 378.97186 35.2375Q379.28436 33.7375 379.28436 31.878124L379.28436 31.753124Q379.28436 29.89375 378.95624 28.39375Q378.64374 26.89375 378.1281 25.753124Q377.6125 24.6125 377.03436 23.83125Q376.45624 23.034374 375.925 22.6125L376.3156 21.503124Q377.0031 21.878124 377.8156 22.7375Q378.64374 23.596874 379.3781 24.89375Q380.1281 26.190624 380.59686 27.925Q381.08124 29.64375 381.08124 31.76875Z" fill-rule="nonzero"/></svg>