<svg version="1.1" viewBox="0.0 0.0 600.0 371.0" fill="none" stroke="none" stroke-linecap="square" stroke-miterlimit="10" width="600" height="371" xmlns:xlink="http://www.w3.org/1999/xlink" xmlns="http://www.w3.org/2000/svg"><path fill="#ffffff" d="M0 0L600.0 0L600.0 371.0L0 371.0L0 0Z" fill-rule="nonzero"/><path stroke="#000000" stroke-width="1.0" stroke-linecap="butt" stroke-opacity="0.0" d="M552.5 88.5L552.5 326.5" fill-rule="nonzero"/><path stroke="#000000" stroke-width="1.0" stroke-linecap="butt" stroke-opacity="0.0" d="M523.5 88.5L523.5 326.5" fill-rule="nonzero"/><path stroke="#000000" stroke-width="1.0" stroke-linecap="butt" stroke-opacity="0.0" d="M464.5 88.5L464.5 326.5" fill-rule="nonzero"/><path stroke="#000000" stroke-width="1.0" stroke-linecap="butt" stroke-opacity="0.0" d="M435.5 88.5L435.5 326.5" fill-rule="nonzero"/><path stroke="#000000" stroke-width="1.0" stroke-linecap="butt" stroke-opacity="0.0" d="M376.5 88.5L376.5 326.5" fill-rule="nonzero"/><path stroke="#000000" stroke-width="1.0" stroke-linecap="butt" stroke-opacity="0.0" d="M347.5 88.5L347.5 326.5" fill-rule="nonzero"/><path stroke="#000000" stroke-width="1.0" stroke-linecap="butt" stroke-opacity="0.0" d="M289.5 88.5L289.5 326.5" fill-rule="nonzero"/><path stroke="#000000" stroke-width="1.0" stroke-linecap="butt" stroke-opacity="0.0" d="M260.5 88.5L260.5 326.5" fill-rule="nonzero"/><path stroke="#000000" stroke-width="1.0" stroke-linecap="butt" stroke-opacity="0.0" d="M201.5 88.5L201.5 326.5" fill-rule="nonzero"/><path stroke="#000000" stroke-width="1.0" stroke-linecap="butt" stroke-opacity="0.0" d="M172.5 88.5L172.5 326.5" fill-rule="nonzero"/><path stroke="#000000" stroke-width="1.0" stroke-linecap="butt" stroke-opacity="0.0" d="M113.5 88.5L113.5 326.5" fill-rule="nonzero"/><path stroke="#000000" stroke-width="1.0" stroke-linecap="butt" stroke-opacity="0.0" d="M84.5 88.5L84.5 326.5" fill-rule="nonzero"/><path stroke="#333333" stroke-width="1.0" stroke-linecap="butt" d="M55.5 326.5L581.5 326.5" fill-rule="nonzero"/><path stroke="#cccccc" stroke-width="1.0" stroke-linecap="butt" d="M55.5 266.5L581.5 266.5" fill-rule="nonzero"/><path stroke="#cccccc" stroke-width="1.0" stroke-linecap="butt" d="M55.5 207.5L581.5 207.5" fill-rule="nonzero"/><path stroke="#cccccc" stroke-width="1.0" stroke-linecap="butt" d="M55.5 147.5L581.5 147.5" fill-rule="nonzero"/><path stroke="#cccccc" stroke-width="1.0" stroke-linecap="butt" d="M55.5 88.5L581.5 88.5" fill-rule="nonzero"/><path stroke="#000000" stroke-width="1.0" stroke-linecap="butt" stroke-opacity="0.0" d="M55.5 306.5L581.5 306.5" fill-rule="nonzero"/><path stroke="#000000" stroke-width="1.0" stroke-linecap="butt" stroke-opacity="0.0" d="M55.5 286.5L581.5 286.5" fill-rule="nonzero"/><path stroke="#000000" stroke-width="1.0" stroke-linecap="butt" stroke-opacity="0.0" d="M55.5 247.5L581.5 247.5" fill-rule="nonzero"/><path stroke="#000000" stroke-width="1.0" stroke-linecap="butt" stroke-opacity="0.0" d="M55.5 227.5L581.5 227.5" fill-rule="nonzero"/><path stroke="#000000" stroke-width="1.0" stroke-linecap="butt" stroke-opacity="0.0" d="M55.5 187.5L581.5 187.5" fill-rule="nonzero"/><path stroke="#000000" stroke-width="1.0" stroke-linecap="butt" stroke-opacity="0.0" d="M55.5 167.5L581.5 167.5" fill-rule="nonzero"/><path stroke="#000000" stroke-width="1.0" stroke-linecap="butt" stroke-opacity="0.0" d="M55.5 127.5L581.5 127.5" fill-rule="nonzero"/><path stroke="#000000" stroke-width="1.0" stroke-linecap="butt" stroke-opacity="0.0" d="M55.5 108.5L581.5 108.5" fill-rule="nonzero"/><path stroke="#000000" stroke-width="1.0" stroke-linecap="butt" d="M581.5 326.5L55.5 326.5" fill-rule="nonzero"/><clipPath id="id_0"><path d="M55.55 88.28333L581.45 88.28333L581.45 326.45L55.55 326.45L55.55 88.28333Z" clip-rule="nonzero"/></clipPath><path stroke="#4285f4" stroke-width="2.0" stroke-linecap="butt" stroke-opacity="0.4" clip-path="url(#id_0)" d="M0 2197.919C0 2197.919 2.6666667 2153.6519 4.0 2131.8962C5.3333335 2110.1406 6.6666665 2088.6401 8.0 2067.3855C9.333333 2046.1311 10.666667 2025.1287 12.0 2004.3696C13.333333 1983.6106 14.666667 1963.1007 16.0 1942.8313C17.333334 1922.5619 18.666666 1902.5388 20.0 1882.7534C21.333334 1862.968 22.666666 1843.4259 24.0 1824.1187C25.333334 1804.8114 26.666666 1785.7448 28.0 1766.91C29.333334 1748.0752 30.666666 1729.4781 32.0 1711.1101C33.333332 1692.7421 34.666668 1674.6089 36.0 1656.7019C37.333332 1638.7948 38.666668 1621.1198 40.0 1603.6681C41.333332 1586.2163 42.666668 1568.9937 44.0 1551.9915C45.333332 1534.9893 46.666668 1518.2134 48.0 1501.655C49.333332 1485.0967 50.666668 1468.7616 52.0 1452.6414C53.333332 1436.5211 54.666668 1420.6212 56.0 1404.9333C57.333332 1389.2455 58.666668 1373.7751 60.0 1358.5138C61.333332 1343.2526 62.666668 1328.2059 64.0 1313.3656C65.333336 1298.5251 66.666664 1283.8966 68.0 1269.4714C69.333336 1255.0461 70.666664 1240.83 72.0 1226.8142C73.333336 1212.7983 74.666664 1198.9886 76.0 1185.3766C77.333336 1171.7645 78.666664 1158.3557 80.0 1145.1415C81.333336 1131.9274 82.666664 1118.9137 84.0 1106.0918C85.333336 1093.2699 86.666664 1080.6455 88.0 1068.2101C89.333336 1055.7748 90.666664 1043.534 92.0 1031.4794C93.333336 1019.4248 94.666664 1007.562 96.0 995.88245C97.333336 984.2029 98.666664 972.7122 100.0 961.402C101.333336 950.09174 102.666664 938.9675 104.0 928.0209C105.333336 917.0742 106.666664 906.3107 108.0 895.7219C109.333336 885.1331 110.666664 874.7246 112.0 864.4879C113.333336 854.2512 114.666664 844.192 116.0 834.3017C117.333336 824.4114 118.666664 814.6957 120.0 805.146C121.333336 795.5964 122.666664 786.21844 124.0 777.0037C125.333336 767.789 126.666664 758.74316 128.0 749.8576C129.33333 740.9721 130.66667 732.25256 132.0 723.6905C133.33333 715.1284 134.66667 706.7295 136.0 698.48517C137.33333 690.24084 138.66667 682.1568 140.0 674.2244C141.33333 666.2921 142.66667 658.5172 144.0 650.8912C145.33333 643.2651 146.66667 635.7936 148.0 628.4681C149.33333 621.1425 150.66667 613.9687 152.0 606.938C153.33333 599.9073 154.66667 593.0254 156.0 586.28375C157.33333 579.5421 158.66667 572.9464 160.0 566.48816C161.33333 560.02985 162.66667 553.71466 164.0 547.534C165.33333 541.3533 166.66667 535.31287 168.0 529.40405C169.33333 523.49524 170.66667 517.7238 172.0 512.0812C173.33333 506.43857 174.66667 500.93042 176.0 495.54822C177.33333 490.166 178.66667 484.9154 180.0 479.78787C181.33333 474.66034 182.66667 469.6616 184.0 464.78302C185.33333 459.90445 186.66667 455.1518 188.0 450.51645C189.33333 445.8811 190.66667 441.3688 192.0 436.97098C193.33333 432.57312 194.66667 428.29547 196.0 424.1294C197.33333 419.96332 198.66667 415.91455 200.0 411.9745C201.33333 408.03445 202.66667 404.20886 204.0 400.48914C205.33333 396.76938 206.66667 393.16122 208.0 389.65607C209.33333 386.1509 210.66667 382.75446 212.0 379.45813C213.33333 376.1618 214.66667 372.97134 216.0 369.8781C217.33333 366.7849 218.66667 363.79468 220.0 360.89883C221.33333 358.003 222.66667 355.2073 224.0 352.5031C225.33333 349.79892 226.66667 347.192 228.0 344.6737C229.33333 342.15546 230.66667 339.73157 232.0 337.3935C233.33333 335.0554 234.66667 332.80884 236.0 330.6452C237.33333 328.4816 238.66667 326.40662 240.0 324.4117C241.33333 322.4168 242.66667 320.5077 244.0 318.67578C245.33333 316.84387 246.66667 315.09488 248.0 313.42023C249.33333 311.74557 250.66667 310.151 252.0 308.62787C253.33333 307.10477 254.66667 305.65884 256.0 304.28152C257.33334 302.9042 258.66666 301.6012 260.0 300.36395C261.33334 299.1267 262.66666 297.9609 264.0 296.858C265.33334 295.7551 266.66666 294.72076 268.0 293.74646C269.33334 292.77216 270.66666 291.8636 272.0 291.01215C273.33334 290.1607 274.66666 289.37213 276.0 288.63785C277.33334 287.90356 278.66666 287.22928 280.0 286.60638C281.33334 285.9835 282.66666 285.41776 284.0 284.90057C285.33334 284.38336 286.66666 283.92044 288.0 283.5032C289.33334 283.08594 290.66666 282.7201 292.0 282.39706C293.33334 282.07404 294.66666 281.79956 296.0 281.56503C297.33334 281.33047 298.66666 281.1416 300.0 280.98984C301.33334 280.83804 302.66666 280.72906 304.0 280.65433C305.33334 280.57956 306.66666 280.54474 308.0 280.5413C309.33334 280.5378 310.66666 280.57144 312.0 280.6335C313.33334 280.69562 314.66666 280.79193 316.0 280.91388C317.33334 281.0358 318.66666 281.1891 320.0 281.3651C321.33334 281.54114 322.66666 281.74567 324.0 281.97006C325.33334 282.19446 326.66666 282.4445 328.0 282.71152C329.33334 282.97858 330.66666 283.26837 332.0 283.57233C333.33334 283.87625 334.66666 284.2001 336.0 284.53522C337.33334 284.87036 338.66666 285.2225 340.0 285.58307C341.33334 285.94363 342.66666 286.31836 344.0 286.69867C345.33334 287.07895 346.66666 287.47052 348.0 287.86478C349.33334 288.25906 350.66666 288.66174 352.0 289.06427C353.33334 289.4668 354.66666 289.87488 356.0 290.2799C357.33334 290.68497 358.66666 291.09268 360.0 291.4945C361.33334 291.89636 362.66666 292.298 364.0 292.6909C365.33334 293.0838 366.66666 293.47363 368.0 293.85187C369.33334 294.23007 370.66666 294.6024 372.0 294.9602C373.33334 295.31802 374.66666 295.66708 376.0 295.99875C377.33334 296.3304 378.66666 296.65048 380.0 296.9503C381.33334 297.2501 382.66666 297.53543 384.0 297.79764C385.33334 298.05984 386.66666 298.3047 388.0 298.5236C389.33334 298.7425 390.66666 298.94113 392.0 299.11096C393.33334 299.2808 394.66666 299.42752 396.0 299.54257C397.33334 299.6576 398.66666 299.74667 400.0 299.8012C401.33334 299.8557 402.66666 299.8814 404.0 299.86966C405.33334 299.85794 406.66666 299.8145 408.0 299.7308C409.33334 299.64706 410.66666 299.5288 412.0 299.36737C413.33334 299.20593 414.66666 299.00708 416.0 298.76218C417.33334 298.5173 418.66666 298.23215 420.0 297.89807C421.33334 297.56403 422.66666 297.18683 424.0 296.75784C425.33334 296.3289 426.66666 295.8539 428.0 295.3243C429.33334 294.79468 430.66666 294.2162 432.0 293.58023C433.33334 292.94424 434.66666 292.25653 436.0 291.50845C437.33334 290.76038 438.66666 289.95767 440.0 289.09177C441.33334 288.22586 442.66666 287.30246 444.0 286.313C445.33334 285.32352 446.66666 284.27368 448.0 283.15494C449.33334 282.03616 450.66666 280.8542 452.0 279.60037C453.33334 278.3466 454.66666 277.0267 456.0 275.63217C457.33334 274.2376 458.66666 272.7741 460.0 271.23306C461.33334 269.69202 462.66666 268.0792 464.0 266.38593C465.33334 264.69266 466.66666 262.9247 468.0 261.07352C469.33334 259.2223 470.66666 257.29355 472.0 255.27866C473.33334 253.26376 474.66666 251.16847 476.0 248.98416C477.33334 246.79985 478.66666 244.53227 480.0 242.17282C481.33334 239.81337 482.66666 237.36778 484.0 234.82747C485.33334 232.28714 486.66666 229.6578 488.0 226.93088C489.33334 224.20395 490.66666 221.38515 492.0 218.46588C493.33334 215.54662 494.66666 212.53261 496.0 209.41527C497.33334 206.29793 498.66666 203.083 500.0 199.76186C501.33334 196.44072 502.66666 193.01912 504.0 189.48845C505.33334 185.95778 506.66666 182.32378 508.0 178.57785C509.33334 174.83192 510.66666 170.9798 512.0 167.01286C513.3333 163.04594 514.6667 158.96996 516.0 154.7763C517.3333 150.58266 518.6667 146.27708 520.0 141.85098C521.3333 137.42488 522.6667 132.88399 524.0 128.2197C525.3333 123.555405 526.6667 118.77345 528.0 113.86525C529.3333 108.95704 530.6667 103.92831 532.0 98.770454C533.3333 93.612595 534.6667 88.33135 536.0 82.91811C537.3333 77.50488 538.6667 71.965385 540.0 66.29104C541.3333 60.61669 542.6667 54.813225 544.0 48.872036C545.3333 42.930847 546.6667 36.85767 548.0 30.643908C549.3333 24.430145 550.6667 18.081528 552.0 11.589462C553.3333 5.0973954 554.6667 -1.5323907 556.0 -8.308493C557.3333 -15.084595 558.6667 -22.001282 560.0 -29.067152C561.3333 -36.13302 562.6667 -43.34234 564.0 -50.703705C565.3333 -58.065075 566.6667 -65.572754 568.0 -73.23535C569.3333 -80.89795 570.6667 -88.709724 572.0 -96.67928C573.3333 -104.648834 574.6667 -112.77044 576.0 -121.05269C577.3333 -129.33493 580.0 -146.37276 580.0 -146.37276" fill-rule="nonzero"/><path fill="#4285f4" clip-path="url(#id_0)" d="M524.595 118.05417C524.595 120.53945 522.58026 122.55417 520.095 122.55417C517.60974 122.55417 515.595 120.53945 515.595 118.05417C515.595 115.568886 517.60974 113.55417 520.095 113.55417C522.58026 113.55417 524.595 115.568886 524.595 118.05417Z" fill-rule="nonzero"/><path fill="#4285f4" clip-path="url(#id_0)" d="M485.1525 299.06082C485.1525 301.5461 483.1378 303.56082 480.6525 303.56082C478.1672 303.56082 476.1525 301.5461 476.1525 299.06082C476.1525 296.57556 478.1672 294.56082 480.6525 294.56082C483.1378 294.56082 485.1525 296.57556 485.1525 299.06082Z" fill-rule="nonzero"/><path fill="#4285f4" clip-path="url(#id_0)" d="M458.8575 264.52667C458.8575 267.01196 456.84277 269.02667 454.3575 269.02667C451.87222 269.02667 449.8575 267.01196 449.8575 264.52667C449.8575 262.04138 451.87222 260.02667 454.3575 260.02667C456.84277 260.02667 458.8575 262.04138 458.8575 264.52667Z" fill-rule="nonzero"/><path fill="#4285f4" clip-path="url(#id_0)" d="M423.7975 287.1525C423.7975 289.6378 421.78278 291.6525 419.2975 291.6525C416.81223 291.6525 414.7975 289.6378 414.7975 287.1525C414.7975 284.6672 416.81223 282.6525 419.2975 282.6525C421.78278 282.6525 423.7975 284.6672 423.7975 287.1525Z" fill-rule="nonzero"/><path fill="#4285f4" clip-path="url(#id_0)" d="M419.415 302.63333C419.415 305.11862 417.40027 307.13333 414.915 307.13333C412.42972 307.13333 410.415 305.11862 410.415 302.63333C410.415 300.14804 412.42972 298.13333 414.915 298.13333C417.40027 298.13333 419.415 300.14804 419.415 302.63333Z" fill-rule="nonzero"/><path fill="#4285f4" clip-path="url(#id_0)" d="M406.2675 266.90833C406.2675 269.39362 404.25278 271.40833 401.7675 271.40833C399.28223 271.40833 397.2675 269.39362 397.2675 266.90833C397.2675 264.42307 399.28223 262.40833 401.7675 262.40833C404.25278 262.40833 406.2675 264.42307 406.2675 266.90833Z" fill-rule="nonzero"/><path fill="#4285f4" clip-path="url(#id_0)" d="M375.59 302.63333C375.59 305.11862 373.5753 307.13333 371.09 307.13333C368.6047 307.13333 366.59 305.11862 366.59 302.63333C366.59 300.14804 368.6047 298.13333 371.09 298.13333C373.5753 298.13333 375.59 300.14804 375.59 302.63333Z" fill-rule="nonzero"/><path fill="#4285f4" clip-path="url(#id_0)" d="M344.9125 271.67166C344.9125 274.15695 342.8978 276.17166 340.4125 276.17166C337.92722 276.17166 335.9125 274.15695 335.9125 271.67166C335.9125 269.18637 337.92722 267.17166 340.4125 267.17166C342.8978 267.17166 344.9125 269.18637 344.9125 271.67166Z" fill-rule="nonzero"/><path fill="#4285f4" clip-path="url(#id_0)" d="M318.6175 281.19833C318.6175 283.68362 316.60278 285.69833 314.1175 285.69833C311.63223 285.69833 309.6175 283.68362 309.6175 281.19833C309.6175 278.71304 311.63223 276.69833 314.1175 276.69833C316.60278 276.69833 318.6175 278.71304 318.6175 281.19833Z" fill-rule="nonzero"/><path fill="#4285f4" clip-path="url(#id_0)" d="M314.235 310.96918C314.235 313.45444 312.22028 315.46918 309.735 315.46918C307.24973 315.46918 305.235 313.45444 305.235 310.96918C305.235 308.4839 307.24973 306.46918 309.735 306.46918C312.22028 306.46918 314.235 308.4839 314.235 310.96918Z" fill-rule="nonzero"/><path fill="#4285f4" clip-path="url(#id_0)" d="M305.47 285.96167C305.47 288.44696 303.4553 290.46167 300.97 290.46167C298.4847 290.46167 296.47 288.44696 296.47 285.96167C296.47 283.47638 298.4847 281.46167 300.97 281.46167C303.4553 281.46167 305.47 283.47638 305.47 285.96167Z" fill-rule="nonzero"/><path fill="#4285f4" clip-path="url(#id_0)" d="M301.0875 276.435C301.0875 278.9203 299.07278 280.935 296.5875 280.935C294.1022 280.935 292.0875 278.9203 292.0875 276.435C292.0875 273.9497 294.1022 271.935 296.5875 271.935C299.07278 271.935 301.0875 273.9497 301.0875 276.435Z" fill-rule="nonzero"/><path fill="#4285f4" clip-path="url(#id_0)" d="M287.94 300.25168C287.94 302.73694 285.9253 304.75168 283.44 304.75168C280.9547 304.75168 278.94 302.73694 278.94 300.25168C278.94 297.7664 280.9547 295.75168 283.44 295.75168C285.9253 295.75168 287.94 297.7664 287.94 300.25168Z" fill-rule="nonzero"/><path fill="#4285f4" clip-path="url(#id_0)" d="M279.175 308.5875C279.175 311.07278 277.16028 313.0875 274.675 313.0875C272.18973 313.0875 270.175 311.07278 270.175 308.5875C270.175 306.1022 272.18973 304.0875 274.675 304.0875C277.16028 304.0875 279.175 306.1022 279.175 308.5875Z" fill-rule="nonzero"/><path fill="#4285f4" clip-path="url(#id_0)" d="M270.41 243.09166C270.41 245.57695 268.3953 247.59166 265.91 247.59166C263.4247 247.59166 261.41 245.57695 261.41 243.09166C261.41 240.60638 263.4247 238.59166 265.91 238.59166C268.3953 238.59166 270.41 240.60638 270.41 243.09166Z" fill-rule="nonzero"/><path fill="#4285f4" clip-path="url(#id_0)" d="M266.0275 302.63333C266.0275 305.11862 264.0128 307.13333 261.5275 307.13333C259.0422 307.13333 257.0275 305.11862 257.0275 302.63333C257.0275 300.14804 259.0422 298.13333 261.5275 298.13333C264.0128 298.13333 266.0275 300.14804 266.0275 302.63333Z" fill-rule="nonzero"/><path fill="#4285f4" clip-path="url(#id_0)" d="M261.645 310.96918C261.645 313.45444 259.63028 315.46918 257.145 315.46918C254.65971 315.46918 252.645 313.45444 252.645 310.96918C252.645 308.4839 254.65971 306.46918 257.145 306.46918C259.63028 306.46918 261.645 308.4839 261.645 310.96918Z" fill-rule="nonzero"/><path stroke="#000000" stroke-width="1.0" stroke-linecap="butt" d="M552.5 329.5L552.5 323.5" fill-rule="nonzero"/><path stroke="#000000" stroke-width="1.0" stroke-linecap="butt" d="M523.5 329.5L523.5 323.5" fill-rule="nonzero"/><path stroke="#000000" stroke-width="1.0" stroke-linecap="butt" d="M464.5 329.5L464.5 323.5" fill-rule="nonzero"/><path stroke="#000000" stroke-width="1.0" stroke-linecap="butt" d="M435.5 329.5L435.5 323.5" fill-rule="nonzero"/><path stroke="#000000" stroke-width="1.0" stroke-linecap="butt" d="M376.5 329.5L376.5 323.5" fill-rule="nonzero"/><path stroke="#000000" stroke-width="1.0" stroke-linecap="butt" d="M347.5 329.5L347.5 323.5" fill-rule="nonzero"/><path stroke="#000000" stroke-width="1.0" stroke-linecap="butt" d="M289.5 329.5L289.5 323.5" fill-rule="nonzero"/><path stroke="#000000" stroke-width="1.0" stroke-linecap="butt" d="M260.5 329.5L260.5 323.5" fill-rule="nonzero"/><path stroke="#000000" stroke-width="1.0" stroke-linecap="butt" d="M201.5 329.5L201.5 323.5" fill-rule="nonzero"/><path stroke="#000000" stroke-width="1.0" stroke-linecap="butt" d="M172.5 329.5L172.5 323.5" fill-rule="nonzero"/><path stroke="#000000" stroke-width="1.0" stroke-linecap="butt" d="M113.5 329.5L113.5 323.5" fill-rule="nonzero"/><path stroke="#000000" stroke-width="1.0" stroke-linecap="butt" d="M84.5 329.5L84.5 323.5" fill-rule="nonzero"/><path stroke="#000000" stroke-width="1.0" stroke-linecap="butt" d="M581.5 332.5L581.5 320.5" fill-rule="nonzero"/><path stroke="#000000" stroke-width="1.0" stroke-linecap="butt" d="M493.5 332.5L493.5 320.5" fill-rule="nonzero"/><path stroke="#000000" stroke-width="1.0" stroke-linecap="butt" d="M406.5 332.5L406.5 320.5" fill-rule="nonzero"/><path stroke="#000000" stroke-width="1.0" stroke-linecap="butt" d="M318.5 332.5L318.5 320.5" fill-rule="nonzero"/><path stroke="#000000" stroke-width="1.0" stroke-linecap="butt" d="M230.5 332.5L230.5 320.5" fill-rule="nonzero"/><path stroke="#000000" stroke-width="1.0" stroke-linecap="butt" d="M143.5 332.5L143.5 320.5" fill-rule="nonzero"/><path stroke="#000000" stroke-width="1.0" stroke-linecap="butt" d="M55.5 332.5L55.5 320.5" fill-rule="nonzero"/><path fill="#000000" d="M21.534374 331.6844L21.534374 330.6375Q20.753124 330.52814 20.253124 330.27814Q19.753124 330.02814 19.39375 329.46564Q19.034374 328.8875 18.971874 328.0594L20.034374 327.8719Q20.159374 328.71564 20.471874 329.10626Q20.925 329.66876 21.534374 329.7469L21.534374 326.3875Q20.89375 326.2625 20.20625 325.8719Q19.70625 325.59064 19.425 325.10626Q19.159374 324.60626 19.159374 323.96564Q19.159374 322.84064 19.95625 322.15314Q20.4875 321.6844 21.534374 321.575L21.534374 321.075L22.159374 321.075L22.159374 321.575Q23.08125 321.65314 23.6125 322.10626Q24.315624 322.6844 24.45625 323.6844L23.3625 323.85626Q23.26875 323.23126 22.971874 322.90314Q22.675 322.575 22.159374 322.46564L22.159374 325.4969Q22.95625 325.7 23.221874 325.8094Q23.70625 326.02814 24.01875 326.34064Q24.33125 326.65314 24.4875 327.09064Q24.659374 327.5125 24.659374 328.0125Q24.659374 329.10626 23.95625 329.84064Q23.26875 330.575 22.159374 330.6219L22.159374 331.6844L21.534374 331.6844ZM21.534374 322.45Q20.925 322.54376 20.565624 322.95Q20.221874 323.34064 20.221874 323.8875Q20.221874 324.41876 20.51875 324.79376Q20.815624 325.15314 21.534374 325.3719L21.534374 322.45ZM22.159374 329.7469Q22.76875 329.66876 23.175 329.21564Q23.58125 328.7469 23.58125 328.075Q23.58125 327.4969 23.284374 327.15314Q23.003124 326.8094 22.159374 326.52814L22.159374 329.7469ZM26.05 326.21564Q26.05 324.6844 26.3625 323.7625Q26.675 322.825 27.284374 322.325Q27.909374 321.825 28.846874 321.825Q29.534374 321.825 30.05 322.10626Q30.58125 322.3875 30.925 322.91876Q31.26875 323.4344 31.45625 324.1844Q31.64375 324.9344 31.64375 326.21564Q31.64375 327.73126 31.33125 328.65314Q31.034374 329.575 30.409374 330.09064Q29.8 330.59064 28.846874 330.59064Q27.6125 330.59064 26.89375 329.7Q26.05 328.6375 26.05 326.21564ZM27.128124 326.21564Q27.128124 328.325 27.628124 329.02814Q28.128124 329.73126 28.846874 329.73126Q29.58125 329.73126 30.065624 329.02814Q30.565624 328.325 30.565624 326.21564Q30.565624 324.09064 30.065624 323.40314Q29.58125 322.7 28.83125 322.7Q28.1125 322.7 27.675 323.3094Q27.128124 324.09064 27.128124 326.21564ZM33.64375 330.45L33.64375 329.2469L34.846874 329.2469L34.846874 330.45L33.64375 330.45ZM36.05 326.21564Q36.05 324.6844 36.3625 323.7625Q36.675 322.825 37.284374 322.325Q37.909374 321.825 38.846874 321.825Q39.534374 321.825 40.05 322.10626Q40.58125 322.3875 40.925 322.91876Q41.26875 323.4344 41.45625 324.1844Q41.64375 324.9344 41.64375 326.21564Q41.64375 327.73126 41.33125 328.65314Q41.034374 329.575 40.409374 330.09064Q39.8 330.59064 38.846874 330.59064Q37.6125 330.59064 36.89375 329.7Q36.05 328.6375 36.05 326.21564ZM37.128124 326.21564Q37.128124 328.325 37.628124 329.02814Q38.128124 329.73126 38.846874 329.73126Q39.58125 329.73126 40.065624 329.02814Q40.565624 328.325 40.565624 326.21564Q40.565624 324.09064 40.065624 323.40314Q39.58125 322.7 38.83125 322.7Q38.1125 322.7 37.675 323.3094Q37.128124 324.09064 37.128124 326.21564ZM43.05 326.21564Q43.05 324.6844 43.3625 323.7625Q43.675 322.825 44.284374 322.325Q44.909374 321.825 45.846874 321.825Q46.534374 321.825 47.05 322.10626Q47.58125 322.3875 47.925 322.91876Q48.26875 323.4344 48.45625 324.1844Q48.64375 324.9344 48.64375 326.21564Q48.64375 327.73126 48.33125 328.65314Q48.034374 329.575 47.409374 330.09064Q46.8 330.59064 45.846874 330.59064Q44.6125 330.59064 43.89375 329.7Q43.05 328.6375 43.05 326.21564ZM44.128124 326.21564Q44.128124 328.325 44.628124 329.02814Q45.128124 329.73126 45.846874 329.73126Q46.58125 329.73126 47.065624 329.02814Q47.565624 328.325 47.565624 326.21564Q47.565624 324.09064 47.065624 323.40314Q46.58125 322.7 45.83125 322.7Q45.1125 322.7 44.675 323.3094Q44.128124 324.09064 44.128124 326.21564Z" fill-rule="nonzero"/><path fill="#000000" d="M21.534374 272.1427L21.534374 271.09583Q20.753124 270.98645 20.253124 270.73645Q19.753124 270.48645 19.39375 269.92395Q19.034374 269.34583 18.971874 268.5177L20.034374 268.3302Q20.159374 269.17395 20.471874 269.56458Q20.925 270.12708 21.534374 270.2052L21.534374 266.84583Q20.89375 266.72083 20.20625 266.3302Q19.70625 266.04895 19.425 265.56458Q19.159374 265.06458 19.159374 264.42395Q19.159374 263.29895 19.95625 262.61145Q20.4875 262.1427 21.534374 262.03333L21.534374 261.53333L22.159374 261.53333L22.159374 262.03333Q23.08125 262.11145 23.6125 262.56458Q24.315624 263.1427 24.45625 264.1427L23.3625 264.31458Q23.26875 263.68958 22.971874 263.36145Q22.675 263.03333 22.159374 262.92395L22.159374 265.9552Q22.95625 266.15833 23.221874 266.2677Q23.70625 266.48645 24.01875 266.79895Q24.33125 267.11145 24.4875 267.54895Q24.659374 267.97083 24.659374 268.47083Q24.659374 269.56458 23.95625 270.29895Q23.26875 271.03333 22.159374 271.0802L22.159374 272.1427L21.534374 272.1427ZM21.534374 262.90833Q20.925 263.00208 20.565624 263.40833Q20.221874 263.79895 20.221874 264.34583Q20.221874 264.87708 20.51875 265.25208Q20.815624 265.61145 21.534374 265.8302L21.534374 262.90833ZM22.159374 270.2052Q22.76875 270.12708 23.175 269.67395Q23.58125 269.2052 23.58125 268.53333Q23.58125 267.9552 23.284374 267.61145Q23.003124 267.2677 22.159374 266.98645L22.159374 270.2052ZM26.05 266.67395Q26.05 265.1427 26.3625 264.22083Q26.675 263.28333 27.284374 262.78333Q27.909374 262.28333 28.846874 262.28333Q29.534374 262.28333 30.05 262.56458Q30.58125 262.84583 30.925 263.37708Q31.26875 263.8927 31.45625 264.6427Q31.64375 265.3927 31.64375 266.67395Q31.64375 268.18958 31.33125 269.11145Q31.034374 270.03333 30.409374 270.54895Q29.8 271.04895 28.846874 271.04895Q27.6125 271.04895 26.89375 270.15833Q26.05 269.09583 26.05 266.67395ZM27.128124 266.67395Q27.128124 268.78333 27.628124 269.48645Q28.128124 270.18958 28.846874 270.18958Q29.58125 270.18958 30.065624 269.48645Q30.565624 268.78333 30.565624 266.67395Q30.565624 264.54895 30.065624 263.86145Q29.58125 263.15833 28.83125 263.15833Q28.1125 263.15833 27.675 263.7677Q27.128124 264.54895 27.128124 266.67395ZM33.64375 270.90833L33.64375 269.7052L34.846874 269.7052L34.846874 270.90833L33.64375 270.90833ZM36.05 268.65833L37.159374 268.56458Q37.284374 269.37708 37.721874 269.78333Q38.175 270.18958 38.815624 270.18958Q39.565624 270.18958 40.096874 269.61145Q40.628124 269.03333 40.628124 268.09583Q40.628124 267.18958 40.1125 266.67395Q39.6125 266.1427 38.784374 266.1427Q38.284374 266.1427 37.8625 266.37708Q37.45625 266.61145 37.221874 266.97083L36.2375 266.84583L37.065624 262.43958L41.346874 262.43958L41.346874 263.43958L37.909374 263.43958L37.45625 265.75208Q38.221874 265.2052 39.065624 265.2052Q40.190624 265.2052 40.95625 265.98645Q41.7375 266.7677 41.7375 268.00208Q41.7375 269.15833 41.065624 270.0177Q40.2375 271.04895 38.815624 271.04895Q37.64375 271.04895 36.89375 270.3927Q36.159374 269.73645 36.05 268.65833ZM43.05 266.67395Q43.05 265.1427 43.3625 264.22083Q43.675 263.28333 44.284374 262.78333Q44.909374 262.28333 45.846874 262.28333Q46.534374 262.28333 47.05 262.56458Q47.58125 262.84583 47.925 263.37708Q48.26875 263.8927 48.45625 264.6427Q48.64375 265.3927 48.64375 266.67395Q48.64375 268.18958 48.33125 269.11145Q48.034374 270.03333 47.409374 270.54895Q46.8 271.04895 45.846874 271.04895Q44.6125 271.04895 43.89375 270.15833Q43.05 269.09583 43.05 266.67395ZM44.128124 266.67395Q44.128124 268.78333 44.628124 269.48645Q45.128124 270.18958 45.846874 270.18958Q46.58125 270.18958 47.065624 269.48645Q47.565624 268.78333 47.565624 266.67395Q47.565624 264.54895 47.065624 263.86145Q46.58125 263.15833 45.83125 263.15833Q45.1125 263.15833 44.675 263.7677Q44.128124 264.54895 44.128124 266.67395Z" fill-rule="nonzero"/><path fill="#000000" d="M21.534374 212.60104L21.534374 211.55417Q20.753124 211.4448 20.253124 211.1948Q19.753124 210.9448 19.39375 210.3823Q19.034374 209.80417 18.971874 208.97604L20.034374 208.78854Q20.159374 209.6323 20.471874 210.02292Q20.925 210.58542 21.534374 210.66354L21.534374 207.30417Q20.89375 207.17917 20.20625 206.78854Q19.70625 206.5073 19.425 206.02292Q19.159374 205.52292 19.159374 204.8823Q19.159374 203.7573 19.95625 203.0698Q20.4875 202.60104 21.534374 202.49167L21.534374 201.99167L22.159374 201.99167L22.159374 202.49167Q23.08125 202.5698 23.6125 203.02292Q24.315624 203.60104 24.45625 204.60104L23.3625 204.77292Q23.26875 204.14792 22.971874 203.8198Q22.675 203.49167 22.159374 203.3823L22.159374 206.41354Q22.95625 206.61667 23.221874 206.72604Q23.70625 206.9448 24.01875 207.2573Q24.33125 207.5698 24.4875 208.0073Q24.659374 208.42917 24.659374 208.92917Q24.659374 210.02292 23.95625 210.7573Q23.26875 211.49167 22.159374 211.53854L22.159374 212.60104L21.534374 212.60104ZM21.534374 203.36667Q20.925 203.46042 20.565624 203.86667Q20.221874 204.2573 20.221874 204.80417Q20.221874 205.33542 20.51875 205.71042Q20.815624 206.0698 21.534374 206.28854L21.534374 203.36667ZM22.159374 210.66354Q22.76875 210.58542 23.175 210.1323Q23.58125 209.66354 23.58125 208.99167Q23.58125 208.41354 23.284374 208.0698Q23.003124 207.72604 22.159374 207.4448L22.159374 210.66354ZM30.01875 211.36667L28.971874 211.36667L28.971874 204.64792Q28.58125 205.0073 27.95625 205.3823Q27.346874 205.74167 26.8625 205.91354L26.8625 204.89792Q27.7375 204.47604 28.39375 203.89792Q29.065624 203.30417 29.346874 202.74167L30.01875 202.74167L30.01875 211.36667ZM33.64375 211.36667L33.64375 210.16354L34.846874 210.16354L34.846874 211.36667L33.64375 211.36667ZM36.05 207.1323Q36.05 205.60104 36.3625 204.67917Q36.675 203.74167 37.284374 203.24167Q37.909374 202.74167 38.846874 202.74167Q39.534374 202.74167 40.05 203.02292Q40.58125 203.30417 40.925 203.83542Q41.26875 204.35104 41.45625 205.10104Q41.64375 205.85104 41.64375 207.1323Q41.64375 208.64792 41.33125 209.5698Q41.034374 210.49167 40.409374 211.0073Q39.8 211.5073 38.846874 211.5073Q37.6125 211.5073 36.89375 210.61667Q36.05 209.55417 36.05 207.1323ZM37.128124 207.1323Q37.128124 209.24167 37.628124 209.9448Q38.128124 210.64792 38.846874 210.64792Q39.58125 210.64792 40.065624 209.9448Q40.565624 209.24167 40.565624 207.1323Q40.565624 205.0073 40.065624 204.3198Q39.58125 203.61667 38.83125 203.61667Q38.1125 203.61667 37.675 204.22604Q37.128124 205.0073 37.128124 207.1323ZM43.05 207.1323Q43.05 205.60104 43.3625 204.67917Q43.675 203.74167 44.284374 203.24167Q44.909374 202.74167 45.846874 202.74167Q46.534374 202.74167 47.05 203.02292Q47.58125 203.30417 47.925 203.83542Q48.26875 204.35104 48.45625 205.10104Q48.64375 205.85104 48.64375 207.1323Q48.64375 208.64792 48.33125 209.5698Q48.034374 210.49167 47.409374 211.0073Q46.8 211.5073 45.846874 211.5073Q44.6125 211.5073 43.89375 210.61667Q43.05 209.55417 43.05 207.1323ZM44.128124 207.1323Q44.128124 209.24167 44.628124 209.9448Q45.128124 210.64792 45.846874 210.64792Q46.58125 210.64792 47.065624 209.9448Q47.565624 209.24167 47.565624 207.1323Q47.565624 205.0073 47.065624 204.3198Q46.58125 203.61667 45.83125 203.61667Q45.1125 203.61667 44.675 204.22604Q44.128124 205.0073 44.128124 207.1323Z" fill-rule="nonzero"/><path fill="#000000" d="M21.534374 153.05937L21.534374 152.0125Q20.753124 151.90312 20.253124 151.65312Q19.753124 151.40312 19.39375 150.84062Q19.034374 150.2625 18.971874 149.43437L20.034374 149.24687Q20.159374 150.09062 20.471874 150.48125Q20.925 151.04375 21.534374 151.12187L21.534374 147.7625Q20.89375 147.6375 20.20625 147.24687Q19.70625 146.96562 19.425 146.48125Q19.159374 145.98125 19.159374 145.34062Q19.159374 144.21562 19.95625 143.52812Q20.4875 143.05937 21.534374 142.95L21.534374 142.45L22.159374 142.45L22.159374 142.95Q23.08125 143.02812 23.6125 143.48125Q24.315624 144.05937 24.45625 145.05937L23.3625 145.23125Q23.26875 144.60625 22.971874 144.27812Q22.675 143.95 22.159374 143.84062L22.159374 146.87187Q22.95625 147.075 23.221874 147.18437Q23.70625 147.40312 24.01875 147.71562Q24.33125 148.02812 24.4875 148.46562Q24.659374 148.8875 24.659374 149.3875Q24.659374 150.48125 23.95625 151.21562Q23.26875 151.95 22.159374 151.99687L22.159374 153.05937L21.534374 153.05937ZM21.534374 143.825Q20.925 143.91875 20.565624 144.325Q20.221874 144.71562 20.221874 145.2625Q20.221874 145.79375 20.51875 146.16875Q20.815624 146.52812 21.534374 146.74687L21.534374 143.825ZM22.159374 151.12187Q22.76875 151.04375 23.175 150.59062Q23.58125 150.12187 23.58125 149.45Q23.58125 148.87187 23.284374 148.52812Q23.003124 148.18437 22.159374 147.90312L22.159374 151.12187ZM30.01875 151.825L28.971874 151.825L28.971874 145.10625Q28.58125 145.46562 27.95625 145.84062Q27.346874 146.2 26.8625 146.37187L26.8625 145.35625Q27.7375 144.93437 28.39375 144.35625Q29.065624 143.7625 29.346874 143.2L30.01875 143.2L30.01875 151.825ZM33.64375 151.825L33.64375 150.62187L34.846874 150.62187L34.846874 151.825L33.64375 151.825ZM36.05 149.575L37.159374 149.48125Q37.284374 150.29375 37.721874 150.7Q38.175 151.10625 38.815624 151.10625Q39.565624 151.10625 40.096874 150.52812Q40.628124 149.95 40.628124 149.0125Q40.628124 148.10625 40.1125 147.59062Q39.6125 147.05937 38.784374 147.05937Q38.284374 147.05937 37.8625 147.29375Q37.45625 147.52812 37.221874 147.8875L36.2375 147.7625L37.065624 143.35625L41.346874 143.35625L41.346874 144.35625L37.909374 144.35625L37.45625 146.66875Q38.221874 146.12187 39.065624 146.12187Q40.190624 146.12187 40.95625 146.90312Q41.7375 147.68437 41.7375 148.91875Q41.7375 150.075 41.065624 150.93437Q40.2375 151.96562 38.815624 151.96562Q37.64375 151.96562 36.89375 151.30937Q36.159374 150.65312 36.05 149.575ZM43.05 147.59062Q43.05 146.05937 43.3625 145.1375Q43.675 144.2 44.284374 143.7Q44.909374 143.2 45.846874 143.2Q46.534374 143.2 47.05 143.48125Q47.58125 143.7625 47.925 144.29375Q48.26875 144.80937 48.45625 145.55937Q48.64375 146.30937 48.64375 147.59062Q48.64375 149.10625 48.33125 150.02812Q48.034374 150.95 47.409374 151.46562Q46.8 151.96562 45.846874 151.96562Q44.6125 151.96562 43.89375 151.075Q43.05 150.0125 43.05 147.59062ZM44.128124 147.59062Q44.128124 149.7 44.628124 150.40312Q45.128124 151.10625 45.846874 151.10625Q46.58125 151.10625 47.065624 150.40312Q47.565624 149.7 47.565624 147.59062Q47.565624 145.46562 47.065624 144.77812Q46.58125 144.075 45.83125 144.075Q45.1125 144.075 44.675 144.68437Q44.128124 145.46562 44.128124 147.59062Z" fill-rule="nonzero"/><path fill="#000000" d="M21.534374 93.51771L21.534374 92.47083Q20.753124 92.36146 20.253124 92.11146Q19.753124 91.86146 19.39375 91.29896Q19.034374 90.72083 18.971874 89.89271L20.034374 89.70521Q20.159374 90.54896 20.471874 90.93958Q20.925 91.50208 21.534374 91.58021L21.534374 88.22083Q20.89375 88.09583 20.20625 87.70521Q19.70625 87.42396 19.425 86.93958Q19.159374 86.43958 19.159374 85.79896Q19.159374 84.67396 19.95625 83.98646Q20.4875 83.51771 21.534374 83.40833L21.534374 82.90833L22.159374 82.90833L22.159374 83.40833Q23.08125 83.48646 23.6125 83.93958Q24.315624 84.51771 24.45625 85.51771L23.3625 85.68958Q23.26875 85.06458 22.971874 84.73646Q22.675 84.40833 22.159374 84.29896L22.159374 87.33021Q22.95625 87.53333 23.221874 87.64271Q23.70625 87.86146 24.01875 88.17396Q24.33125 88.48646 24.4875 88.92396Q24.659374 89.34583 24.659374 89.84583Q24.659374 90.93958 23.95625 91.67396Q23.26875 92.40833 22.159374 92.45521L22.159374 93.51771L21.534374 93.51771ZM21.534374 84.28333Q20.925 84.37708 20.565624 84.78333Q20.221874 85.17396 20.221874 85.72083Q20.221874 86.25208 20.51875 86.62708Q20.815624 86.98646 21.534374 87.20521L21.534374 84.28333ZM22.159374 91.58021Q22.76875 91.50208 23.175 91.04896Q23.58125 90.58021 23.58125 89.90833Q23.58125 89.33021 23.284374 88.98646Q23.003124 88.64271 22.159374 88.36146L22.159374 91.58021ZM31.596874 91.26771L31.596874 92.28333L25.909374 92.28333Q25.909374 91.90833 26.034374 91.54896Q26.253124 90.97083 26.721874 90.40833Q27.20625 89.84583 28.1125 89.11146Q29.51875 87.95521 30.003124 87.28333Q30.503124 86.61146 30.503124 86.01771Q30.503124 85.39271 30.05 84.97083Q29.596874 84.53333 28.878124 84.53333Q28.1125 84.53333 27.659374 84.98646Q27.20625 85.43958 27.190624 86.25208L26.1125 86.14271Q26.221874 84.92396 26.940624 84.29896Q27.675 83.65833 28.909374 83.65833Q30.14375 83.65833 30.8625 84.34583Q31.58125 85.03333 31.58125 86.04896Q31.58125 86.56458 31.3625 87.06458Q31.159374 87.54896 30.659374 88.11146Q30.175 88.65833 29.05 89.61146Q28.096874 90.40833 27.815624 90.70521Q27.55 90.98646 27.378124 91.26771L31.596874 91.26771ZM33.64375 92.28333L33.64375 91.08021L34.846874 91.08021L34.846874 92.28333L33.64375 92.28333ZM36.05 88.04896Q36.05 86.51771 36.3625 85.59583Q36.675 84.65833 37.284374 84.15833Q37.909374 83.65833 38.846874 83.65833Q39.534374 83.65833 40.05 83.93958Q40.58125 84.22083 40.925 84.75208Q41.26875 85.26771 41.45625 86.01771Q41.64375 86.76771 41.64375 88.04896Q41.64375 89.56458 41.33125 90.48646Q41.034374 91.40833 40.409374 91.92396Q39.8 92.42396 38.846874 92.42396Q37.6125 92.42396 36.89375 91.53333Q36.05 90.47083 36.05 88.04896ZM37.128124 88.04896Q37.128124 90.15833 37.628124 90.86146Q38.128124 91.56458 38.846874 91.56458Q39.58125 91.56458 40.065624 90.86146Q40.565624 90.15833 40.565624 88.04896Q40.565624 85.92396 40.065624 85.23646Q39.58125 84.53333 38.83125 84.53333Q38.1125 84.53333 37.675 85.14271Q37.128124 85.92396 37.128124 88.04896ZM43.05 88.04896Q43.05 86.51771 43.3625 85.59583Q43.675 84.65833 44.284374 84.15833Q44.909374 83.65833 45.846874 83.65833Q46.534374 83.65833 47.05 83.93958Q47.58125 84.22083 47.925 84.75208Q48.26875 85.26771 48.45625 86.01771Q48.64375 86.76771 48.64375 88.04896Q48.64375 89.56458 48.33125 90.48646Q48.034374 91.40833 47.409374 91.92396Q46.8 92.42396 45.846874 92.42396Q44.6125 92.42396 43.89375 91.53333Q43.05 90.47083 43.05 88.04896ZM44.128124 88.04896Q44.128124 90.15833 44.628124 90.86146Q45.128124 91.56458 45.846874 91.56458Q46.58125 91.56458 47.065624 90.86146Q47.565624 90.15833 47.565624 88.04896Q47.565624 85.92396 47.065624 85.23646Q46.58125 84.53333 45.83125 84.53333Q45.1125 84.53333 44.675 85.14271Q44.128124 85.92396 44.128124 88.04896Z" fill-rule="nonzero"/><path fill="#000000" d="M578.45 345.21564Q578.45 343.6844 578.7625 342.7625Q579.075 341.825 579.6844 341.325Q580.3094 340.825 581.2469 340.825Q581.9344 340.825 582.45 341.10626Q582.98126 341.3875 583.325 341.91876Q583.66876 342.4344 583.85626 343.1844Q584.04376 343.9344 584.04376 345.21564Q584.04376 346.73126 583.73126 347.65314Q583.4344 348.575 582.8094 349.09064Q582.2 349.59064 581.2469 349.59064Q580.0125 349.59064 579.29376 348.7Q578.45 347.6375 578.45 345.21564ZM579.52814 345.21564Q579.52814 347.325 580.02814 348.02814Q580.52814 348.73126 581.2469 348.73126Q581.98126 348.73126 582.46564 348.02814Q582.96564 347.325 582.96564 345.21564Q582.96564 343.09064 582.46564 342.40314Q581.98126 341.7 581.23126 341.7Q580.5125 341.7 580.075 342.3094Q579.52814 343.09064 579.52814 345.21564Z" fill-rule="nonzero"/><path fill="#000000" d="M492.84686 348.4344L492.84686 349.45L487.15936 349.45Q487.15936 349.075 487.28436 348.71564Q487.5031 348.1375 487.97186 347.575Q488.45624 347.0125 489.3625 346.27814Q490.76874 345.1219 491.2531 344.45Q491.7531 343.77814 491.7531 343.1844Q491.7531 342.5594 491.3 342.1375Q490.84686 341.7 490.1281 341.7Q489.3625 341.7 488.90936 342.15314Q488.45624 342.60626 488.4406 343.41876L487.3625 343.3094Q487.47186 342.09064 488.1906 341.46564Q488.925 340.825 490.15936 340.825Q491.39374 340.825 492.1125 341.5125Q492.83124 342.2 492.83124 343.21564Q492.83124 343.73126 492.6125 344.23126Q492.40936 344.71564 491.90936 345.27814Q491.425 345.825 490.3 346.77814Q489.34686 347.575 489.0656 347.8719Q488.8 348.15314 488.6281 348.4344L492.84686 348.4344ZM494.3 345.21564Q494.3 343.6844 494.6125 342.7625Q494.925 341.825 495.53436 341.325Q496.15936 340.825 497.09686 340.825Q497.78436 340.825 498.3 341.10626Q498.83124 341.3875 499.175 341.91876Q499.51874 342.4344 499.70624 343.1844Q499.89374 343.9344 499.89374 345.21564Q499.89374 346.73126 499.58124 347.65314Q499.28436 348.575 498.65936 349.09064Q498.05 349.59064 497.09686 349.59064Q495.8625 349.59064 495.14374 348.7Q494.3 347.6375 494.3 345.21564ZM495.3781 345.21564Q495.3781 347.325 495.8781 348.02814Q496.3781 348.73126 497.09686 348.73126Q497.83124 348.73126 498.3156 348.02814Q498.8156 347.325 498.8156 345.21564Q498.8156 343.09064 498.3156 342.40314Q497.83124 341.7 497.08124 341.7Q496.3625 341.7 495.925 342.3094Q495.3781 343.09064 495.3781 345.21564Z" fill-rule="nonzero"/><path fill="#000000" d="M403.025 349.45L403.025 347.3875L399.30624 347.3875L399.30624 346.41876L403.22812 340.85626L404.0875 340.85626L404.0875 346.41876L405.24374 346.41876L405.24374 347.3875L404.0875 347.3875L404.0875 349.45L403.025 349.45ZM403.025 346.41876L403.025 342.5594L400.3375 346.41876L403.025 346.41876ZM406.65 345.21564Q406.65 343.6844 406.9625 342.7625Q407.275 341.825 407.88437 341.325Q408.50937 340.825 409.44687 340.825Q410.13437 340.825 410.65 341.10626Q411.18124 341.3875 411.525 341.91876Q411.86874 342.4344 412.05624 343.1844Q412.24374 343.9344 412.24374 345.21564Q412.24374 346.73126 411.93124 347.65314Q411.63437 348.575 411.00937 349.09064Q410.4 349.59064 409.44687 349.59064Q408.2125 349.59064 407.49374 348.7Q406.65 347.6375 406.65 345.21564ZM407.72812 345.21564Q407.72812 347.325 408.22812 348.02814Q408.72812 348.73126 409.44687 348.73126Q410.18124 348.73126 410.66562 348.02814Q411.16562 347.325 411.16562 345.21564Q411.16562 343.09064 410.66562 342.40314Q410.18124 341.7 409.43124 341.7Q408.7125 341.7 408.275 342.3094Q407.72812 343.09064 407.72812 345.21564Z" fill-rule="nonzero"/><path fill="#000000" d="M317.46875 342.96564L316.42188 343.04376Q316.28125 342.41876 316.03125 342.1375Q315.59375 341.6844 314.96875 341.6844Q314.46875 341.6844 314.07812 341.96564Q313.59375 342.34064 313.29688 343.04376Q313.01562 343.73126 313.0 345.0125Q313.375 344.4344 313.92188 344.15314Q314.48438 343.8719 315.09375 343.8719Q316.14062 343.8719 316.875 344.65314Q317.625 345.4344 317.625 346.65314Q317.625 347.46564 317.26562 348.16876Q316.92188 348.85626 316.3125 349.23126Q315.70312 349.59064 314.9375 349.59064Q313.60938 349.59064 312.78125 348.6219Q311.95312 347.65314 311.95312 345.4344Q311.95312 342.9344 312.875 341.8094Q313.67188 340.825 315.03125 340.825Q316.04688 340.825 316.6875 341.40314Q317.34375 341.96564 317.46875 342.96564ZM313.17188 346.66876Q313.17188 347.21564 313.39062 347.71564Q313.625 348.2 314.03125 348.46564Q314.45312 348.73126 314.92188 348.73126Q315.57812 348.73126 316.0625 348.2Q316.54688 347.65314 316.54688 346.73126Q316.54688 345.84064 316.0625 345.325Q315.59375 344.8094 314.875 344.8094Q314.15625 344.8094 313.65625 345.325Q313.17188 345.84064 313.17188 346.66876ZM319.0 345.21564Q319.0 343.6844 319.3125 342.7625Q319.625 341.825 320.23438 341.325Q320.85938 340.825 321.79688 340.825Q322.48438 340.825 323.0 341.10626Q323.53125 341.3875 323.875 341.91876Q324.21875 342.4344 324.40625 343.1844Q324.59375 343.9344 324.59375 345.21564Q324.59375 346.73126 324.28125 347.65314Q323.98438 348.575 323.35938 349.09064Q322.75 349.59064 321.79688 349.59064Q320.5625 349.59064 319.84375 348.7Q319.0 347.6375 319.0 345.21564ZM320.07812 345.21564Q320.07812 347.325 320.57812 348.02814Q321.07812 348.73126 321.79688 348.73126Q322.53125 348.73126 323.01562 348.02814Q323.51562 347.325 323.51562 345.21564Q323.51562 343.09064 323.01562 342.40314Q322.53125 341.7 321.78125 341.7Q321.0625 341.7 320.625 342.3094Q320.07812 343.09064 320.07812 345.21564Z" fill-rule="nonzero"/><path fill="#000000" d="M225.975 344.79376Q225.31876 344.54376 224.99063 344.10626Q224.67813 343.65314 224.67813 343.04376Q224.67813 342.10626 225.35 341.46564Q226.0375 340.825 227.14688 340.825Q228.27188 340.825 228.95938 341.48126Q229.64688 342.1375 229.64688 343.075Q229.64688 343.66876 229.33438 344.10626Q229.02188 344.54376 228.38126 344.79376Q229.17813 345.04376 229.58438 345.6219Q229.99063 346.2 229.99063 346.9969Q229.99063 348.09064 229.20938 348.84064Q228.44376 349.59064 227.1625 349.59064Q225.89688 349.59064 225.11563 348.84064Q224.33438 348.09064 224.33438 346.96564Q224.33438 346.1219 224.75626 345.5594Q225.19376 344.9969 225.975 344.79376ZM225.75626 342.9969Q225.75626 343.60626 226.14688 343.9969Q226.55313 344.3875 227.17813 344.3875Q227.7875 344.3875 228.17813 344.0125Q228.56876 343.6219 228.56876 343.0594Q228.56876 342.48126 228.1625 342.09064Q227.75626 341.6844 227.1625 341.6844Q226.55313 341.6844 226.14688 342.075Q225.75626 342.46564 225.75626 342.9969ZM225.42813 346.96564Q225.42813 347.41876 225.63126 347.84064Q225.85 348.2625 226.27188 348.4969Q226.69376 348.73126 227.17813 348.73126Q227.92813 348.73126 228.4125 348.2469Q228.9125 347.7625 228.9125 347.0125Q228.9125 346.2469 228.4125 345.7469Q227.9125 345.2469 227.14688 345.2469Q226.39688 345.2469 225.9125 345.7469Q225.42813 346.23126 225.42813 346.96564ZM231.35 345.21564Q231.35 343.6844 231.6625 342.7625Q231.975 341.825 232.58438 341.325Q233.20938 340.825 234.14688 340.825Q234.83438 340.825 235.35 341.10626Q235.88126 341.3875 236.225 341.91876Q236.56876 342.4344 236.75626 343.1844Q236.94376 343.9344 236.94376 345.21564Q236.94376 346.73126 236.63126 347.65314Q236.33438 348.575 235.70938 349.09064Q235.1 349.59064 234.14688 349.59064Q232.9125 349.59064 232.19376 348.7Q231.35 347.6375 231.35 345.21564ZM232.42813 345.21564Q232.42813 347.325 232.92813 348.02814Q233.42813 348.73126 234.14688 348.73126Q234.88126 348.73126 235.36563 348.02814Q235.86563 347.325 235.86563 345.21564Q235.86563 343.09064 235.36563 342.40314Q234.88126 341.7 234.13126 341.7Q233.4125 341.7 232.975 342.3094Q232.42813 343.09064 232.42813 345.21564Z" fill-rule="nonzero"/><path fill="#000000" d="M137.16875 349.45L136.12187 349.45L136.12187 342.73126Q135.73125 343.09064 135.10625 343.46564Q134.49687 343.825 134.0125 343.9969L134.0125 342.98126Q134.8875 342.5594 135.54375 341.98126Q136.21562 341.3875 136.49687 340.825L137.16875 340.825L137.16875 349.45ZM140.2 345.21564Q140.2 343.6844 140.5125 342.7625Q140.825 341.825 141.43437 341.325Q142.05937 340.825 142.99687 340.825Q143.68437 340.825 144.2 341.10626Q144.73125 341.3875 145.075 341.91876Q145.41875 342.4344 145.60625 343.1844Q145.79375 343.9344 145.79375 345.21564Q145.79375 346.73126 145.48125 347.65314Q145.18437 348.575 144.55937 349.09064Q143.95 349.59064 142.99687 349.59064Q141.7625 349.59064 141.04375 348.7Q140.2 347.6375 140.2 345.21564ZM141.27812 345.21564Q141.27812 347.325 141.77812 348.02814Q142.27812 348.73126 142.99687 348.73126Q143.73125 348.73126 144.21562 348.02814Q144.71562 347.325 144.71562 345.21564Q144.71562 343.09064 144.21562 342.40314Q143.73125 341.7 142.98125 341.7Q142.2625 341.7 141.825 342.3094Q141.27812 343.09064 141.27812 345.21564ZM147.2 345.21564Q147.2 343.6844 147.5125 342.7625Q147.825 341.825 148.43437 341.325Q149.05937 340.825 149.99687 340.825Q150.68437 340.825 151.2 341.10626Q151.73125 341.3875 152.075 341.91876Q152.41875 342.4344 152.60625 343.1844Q152.79375 343.9344 152.79375 345.21564Q152.79375 346.73126 152.48125 347.65314Q152.18437 348.575 151.55937 349.09064Q150.95 349.59064 149.99687 349.59064Q148.7625 349.59064 148.04375 348.7Q147.2 347.6375 147.2 345.21564ZM148.27812 345.21564Q148.27812 347.325 148.77812 348.02814Q149.27812 348.73126 149.99687 348.73126Q150.73125 348.73126 151.21562 348.02814Q151.71562 347.325 151.71562 345.21564Q151.71562 343.09064 151.21562 342.40314Q150.73125 341.7 149.98125 341.7Q149.2625 341.7 148.825 342.3094Q148.27812 343.09064 148.27812 345.21564Z" fill-rule="nonzero"/><path fill="#000000" d="M49.51875 349.45L48.471874 349.45L48.471874 342.73126Q48.08125 343.09064 47.45625 343.46564Q46.846874 343.825 46.3625 343.9969L46.3625 342.98126Q47.2375 342.5594 47.89375 341.98126Q48.565624 341.3875 48.846874 340.825L49.51875 340.825L49.51875 349.45ZM58.096874 348.4344L58.096874 349.45L52.409374 349.45Q52.409374 349.075 52.534374 348.71564Q52.753124 348.1375 53.221874 347.575Q53.70625 347.0125 54.6125 346.27814Q56.01875 345.1219 56.503124 344.45Q57.003124 343.77814 57.003124 343.1844Q57.003124 342.5594 56.55 342.1375Q56.096874 341.7 55.378124 341.7Q54.6125 341.7 54.159374 342.15314Q53.70625 342.60626 53.690624 343.41876L52.6125 343.3094Q52.721874 342.09064 53.440624 341.46564Q54.175 340.825 55.409374 340.825Q56.64375 340.825 57.3625 341.5125Q58.08125 342.2 58.08125 343.21564Q58.08125 343.73126 57.8625 344.23126Q57.659374 344.71564 57.159374 345.27814Q56.675 345.825 55.55 346.77814Q54.596874 347.575 54.315624 347.8719Q54.05 348.15314 53.878124 348.4344L58.096874 348.4344ZM59.55 345.21564Q59.55 343.6844 59.8625 342.7625Q60.175 341.825 60.784374 341.325Q61.409374 340.825 62.346874 340.825Q63.034374 340.825 63.55 341.10626Q64.08125 341.3875 64.425 341.91876Q64.76875 342.4344 64.95625 343.1844Q65.14375 343.9344 65.14375 345.21564Q65.14375 346.73126 64.83125 347.65314Q64.53438 348.575 63.909374 349.09064Q63.3 349.59064 62.346874 349.59064Q61.1125 349.59064 60.39375 348.7Q59.55 347.6375 59.55 345.21564ZM60.628124 345.21564Q60.628124 347.325 61.128124 348.02814Q61.628124 348.73126 62.346874 348.73126Q63.08125 348.73126 63.565624 348.02814Q64.06563 347.325 64.06563 345.21564Q64.06563 343.09064 63.565624 342.40314Q63.08125 341.7 62.33125 341.7Q61.6125 341.7 61.175 342.3094Q60.628124 343.09064 60.628124 345.21564Z" fill-rule="nonzero"/><path fill="#4285f4" d="M239.0 61.916668C239.0 65.23038 236.3137 67.916664 233.0 67.916664C229.6863 67.916664 227.0 65.23038 227.0 61.916668C227.0 58.60296 229.6863 55.916668 233.0 55.916668C236.3137 55.916668 239.0 58.60296 239.0 61.916668Z" fill-rule="nonzero"/><path stroke="#4285f4" stroke-width="4.0" stroke-linecap="butt" stroke-opacity="0.4" d="M255.0 61.916668L267.0 61.916668" fill-rule="nonzero"/><path fill="#1a1a1a" d="M278.10938 65.916664L278.10938 58.33854L275.28125 58.33854L275.28125 57.322914L282.09375 57.322914L282.09375 58.33854L279.25 58.33854L279.25 65.916664L278.10938 65.916664ZM282.78125 65.916664L282.78125 59.697914L283.73438 59.697914L283.73438 60.635414Q284.09375 59.979164 284.39062 59.77604Q284.70312 59.55729 285.07812 59.55729Q285.60938 59.55729 286.15625 59.885414L285.79688 60.86979Q285.40625 60.635414 285.03125 60.635414Q284.67188 60.635414 284.39062 60.854164Q284.125 61.05729 284.01562 61.43229Q283.82812 61.99479 283.82812 62.65104L283.82812 65.916664L282.78125 65.916664ZM291.04688 63.916664L292.14062 64.041664Q291.89062 64.99479 291.1875 65.52604Q290.48438 66.05729 289.40625 66.05729Q288.04688 66.05729 287.23438 65.21354Q286.4375 64.36979 286.4375 62.854164Q286.4375 61.291664 287.25 60.43229Q288.0625 59.55729 289.34375 59.55729Q290.59375 59.55729 291.375 60.40104Q292.17188 61.24479 292.17188 62.791664Q292.17188 62.885414 292.17188 63.072914L287.53125 63.072914Q287.59375 64.104164 288.10938 64.65104Q288.625 65.18229 289.40625 65.18229Q289.98438 65.18229 290.39062 64.885414Q290.8125 64.572914 291.04688 63.916664ZM287.59375 62.21354L291.0625 62.21354Q291.0 61.416664 290.67188 61.02604Q290.15625 60.416664 289.35938 60.416664Q288.625 60.416664 288.125 60.90104Q287.64062 61.385414 287.59375 62.21354ZM293.79688 65.916664L293.79688 59.697914L294.73438 59.697914L294.73438 60.572914Q295.42188 59.55729 296.71875 59.55729Q297.28125 59.55729 297.75 59.760414Q298.23438 59.96354 298.46875 60.291664Q298.70312 60.61979 298.79688 61.05729Q298.84375 61.354164 298.84375 62.08854L298.84375 65.916664L297.79688 65.916664L297.79688 62.135414Q297.79688 61.479164 297.67188 61.166664Q297.54688 60.854164 297.23438 60.666664Q296.92188 60.46354 296.5 60.46354Q295.82812 60.46354 295.32812 60.90104Q294.84375 61.322914 294.84375 62.510414L294.84375 65.916664L293.79688 65.916664ZM304.82812 65.916664L304.82812 65.135414Q304.23438 66.05729 303.09375 66.05729Q302.34375 66.05729 301.71875 65.65104Q301.09375 65.229164 300.75 64.49479Q300.40625 63.760414 300.40625 62.80729Q300.40625 61.885414 300.71875 61.11979Q301.03125 60.354164 301.65625 59.96354Q302.28125 59.55729 303.04688 59.55729Q303.60938 59.55729 304.04688 59.791664Q304.48438 60.02604 304.76562 60.40104L304.76562 57.322914L305.8125 57.322914L305.8125 65.916664L304.82812 65.916664ZM301.5 62.80729Q301.5 64.010414 302.0 64.604164Q302.5 65.18229 303.1875 65.18229Q303.875 65.18229 304.35938 64.61979Q304.84375 64.05729 304.84375 62.90104Q304.84375 61.61979 304.34375 61.02604Q303.85938 60.43229 303.14062 60.43229Q302.4375 60.43229 301.96875 61.010414Q301.5 61.572914 301.5 62.80729ZM307.76562 65.916664L307.76562 57.322914L308.82812 57.322914L308.82812 65.916664L307.76562 65.916664ZM310.79688 58.541664L310.79688 57.322914L311.85938 57.322914L311.85938 58.541664L310.79688 58.541664ZM310.79688 65.916664L310.79688 59.697914L311.85938 59.697914L311.85938 65.916664L310.79688 65.916664ZM313.79688 65.916664L313.79688 59.697914L314.73438 59.697914L314.73438 60.572914Q315.42188 59.55729 316.71875 59.55729Q317.28125 59.55729 317.75 59.760414Q318.23438 59.96354 318.46875 60.291664Q318.70312 60.61979 318.79688 61.05729Q318.84375 61.354164 318.84375 62.08854L318.84375 65.916664L317.79688 65.916664L317.79688 62.135414Q317.79688 61.479164 317.67188 61.166664Q317.54688 60.854164 317.23438 60.666664Q316.92188 60.46354 316.5 60.46354Q315.82812 60.46354 315.32812 60.90104Q314.84375 61.322914 314.84375 62.510414L314.84375 65.916664L313.79688 65.916664ZM325.04688 63.916664L326.14062 64.041664Q325.89062 64.99479 325.1875 65.52604Q324.48438 66.05729 323.40625 66.05729Q322.04688 66.05729 321.23438 65.21354Q320.4375 64.36979 320.4375 62.854164Q320.4375 61.291664 321.25 60.43229Q322.0625 59.55729 323.34375 59.55729Q324.59375 59.55729 325.375 60.40104Q326.17188 61.24479 326.17188 62.791664Q326.17188 62.885414 326.17188 63.072914L321.53125 63.072914Q321.59375 64.104164 322.10938 64.65104Q322.625 65.18229 323.40625 65.18229Q323.98438 65.18229 324.39062 64.885414Q324.8125 64.572914 325.04688 63.916664ZM321.59375 62.21354L325.0625 62.21354Q325.0 61.416664 324.67188 61.02604Q324.15625 60.416664 323.35938 60.416664Q322.625 60.416664 322.125 60.90104Q321.64062 61.385414 321.59375 62.21354ZM330.9375 65.916664L330.9375 57.322914L334.75 57.322914Q335.90625 57.322914 336.5 57.55729Q337.09375 57.791664 337.45312 58.385414Q337.8125 58.96354 337.8125 59.666664Q337.8125 60.58854 337.21875 61.21354Q336.625 61.83854 335.39062 62.010414Q335.84375 62.229164 336.07812 62.43229Q336.57812 62.885414 337.01562 63.572914L338.51562 65.916664L337.07812 65.916664L335.95312 64.135414Q335.45312 63.354164 335.125 62.947914Q334.8125 62.541664 334.54688 62.385414Q334.29688 62.21354 334.03125 62.135414Q333.84375 62.104164 333.40625 62.104164L332.07812 62.104164L332.07812 65.916664L330.9375 65.916664ZM332.07812 61.11979L334.53125 61.11979Q335.29688 61.11979 335.73438 60.96354Q336.1875 60.791664 336.40625 60.447914Q336.64062 60.08854 336.64062 59.666664Q336.64062 59.05729 336.1875 58.666664Q335.75 58.27604 334.79688 58.27604L332.07812 58.27604L332.07812 61.11979ZM339.14062 61.61979Q339.1875 61.291664 339.42188 60.947914Q339.79688 60.447914 340.64062 59.83854Q341.48438 59.229164 341.64062 59.041664Q341.85938 58.80729 341.85938 58.55729Q341.85938 58.27604 341.64062 58.104164Q341.4375 57.916664 341.04688 57.916664Q340.65625 57.916664 340.46875 58.05729Q340.28125 58.18229 340.15625 58.572914L339.26562 58.479164Q339.4375 57.83854 339.85938 57.52604Q340.28125 57.21354 341.0625 57.21354Q341.95312 57.21354 342.35938 57.572914Q342.78125 57.916664 342.78125 58.416664Q342.78125 58.90104 342.42188 59.33854Q342.17188 59.666664 341.23438 60.33854Q340.73438 60.697914 340.53125 60.916664L342.79688 60.916664L342.79688 61.61979L339.14062 61.61979ZM352.34375 60.86979L346.67188 60.86979L346.67188 59.885414L352.34375 59.885414L352.34375 60.86979ZM352.34375 63.479164L346.67188 63.479164L346.67188 62.49479L352.34375 62.49479L352.34375 63.479164ZM356.5 61.68229Q356.5 60.15104 356.8125 59.229164Q357.125 58.291664 357.73438 57.791664Q358.35938 57.291664 359.29688 57.291664Q359.98438 57.291664 360.5 57.572914Q361.03125 57.854164 361.375 58.385414Q361.71875 58.90104 361.90625 59.65104Q362.09375 60.40104 362.09375 61.68229Q362.09375 63.197914 361.78125 64.11979Q361.48438 65.041664 360.85938 65.55729Q360.25 66.05729 359.29688 66.05729Q358.0625 66.05729 357.34375 65.166664Q356.5 64.104164 356.5 61.68229ZM357.57812 61.68229Q357.57812 63.791664 358.07812 64.49479Q358.57812 65.197914 359.29688 65.197914Q360.03125 65.197914 360.51562 64.49479Q361.01562 63.791664 361.01562 61.68229Q361.01562 59.55729 360.51562 58.86979Q360.03125 58.166664 359.28125 58.166664Q358.5625 58.166664 358.125 58.77604Q357.57812 59.55729 357.57812 61.68229ZM364.09375 65.916664L364.09375 64.71354L365.29688 64.71354L365.29688 65.916664L364.09375 65.916664ZM366.5625 58.447914L366.5625 57.43229L372.125 57.43229L372.125 58.260414Q371.3125 59.135414 370.5 60.58854Q369.70312 62.02604 369.26562 63.55729Q368.9375 64.635414 368.85938 65.916664L367.76562 65.916664Q367.78125 64.90104 368.15625 63.46354Q368.54688 62.02604 369.25 60.697914Q369.96875 59.36979 370.78125 58.447914L366.5625 58.447914Z" fill-rule="nonzero"/><path fill="#000000" d="M21.7375 28.64375L21.7375 37.55L19.925 37.55L19.925 26.9875L21.690624 26.9875L21.7375 28.64375ZM25.034374 26.925L25.01875 28.596874Q24.8 28.55 24.596874 28.534374Q24.39375 28.51875 24.14375 28.51875Q23.51875 28.51875 23.034374 28.721874Q22.565624 28.909374 22.221874 29.26875Q21.89375 29.6125 21.70625 30.096874Q21.51875 30.58125 21.45625 31.159374L20.95625 31.45625Q20.95625 30.503124 21.14375 29.659374Q21.33125 28.815624 21.721874 28.175Q22.128124 27.51875 22.753124 27.159374Q23.378124 26.784374 24.2375 26.784374Q24.425 26.784374 24.675 26.83125Q24.940624 26.878124 25.034374 26.925ZM33.159374 35.7375L33.159374 30.3Q33.159374 29.675 32.909374 29.221874Q32.659374 28.753124 32.159374 28.503124Q31.659374 28.2375 30.925 28.2375Q30.253124 28.2375 29.7375 28.471874Q29.221874 28.70625 28.925 29.096874Q28.64375 29.471874 28.64375 29.909374L26.846874 29.909374Q26.846874 29.346874 27.128124 28.8Q27.425 28.2375 27.971874 27.784374Q28.534374 27.33125 29.3 27.065624Q30.08125 26.784374 31.034374 26.784374Q32.190624 26.784374 33.065624 27.175Q33.95625 27.565624 34.45625 28.3625Q34.971874 29.14375 34.971874 30.315624L34.971874 35.2375Q34.971874 35.76875 35.05 36.3625Q35.14375 36.95625 35.33125 37.39375L35.33125 37.55L33.45625 37.55Q33.315624 37.2375 33.2375 36.721874Q33.159374 36.190624 33.159374 35.7375ZM33.471874 31.14375L33.4875 32.409374L31.659374 32.409374Q30.89375 32.409374 30.284374 32.534374Q29.675 32.659374 29.26875 32.909374Q28.8625 33.14375 28.64375 33.51875Q28.425 33.878124 28.425 34.3625Q28.425 34.8625 28.64375 35.284374Q28.878124 35.690624 29.33125 35.925Q29.784374 36.159374 30.45625 36.159374Q31.284374 36.159374 31.909374 35.815624Q32.55 35.45625 32.925 34.95625Q33.3 34.440624 33.33125 33.971874L34.1125 34.83125Q34.034374 35.2375 33.721874 35.7375Q33.425 36.2375 32.925 36.690624Q32.425 37.14375 31.7375 37.45625Q31.05 37.753124 30.190624 37.753124Q29.1125 37.753124 28.3 37.33125Q27.503124 36.909374 27.05 36.20625Q26.6125 35.4875 26.6125 34.6125Q26.6125 33.753124 26.940624 33.1125Q27.284374 32.45625 27.909374 32.034374Q28.534374 31.596874 29.409374 31.378124Q30.284374 31.14375 31.378124 31.14375L33.471874 31.14375ZM39.7375 29.2375L39.7375 37.55L37.925 37.55L37.925 26.9875L39.64375 26.9875L39.7375 29.2375ZM39.3 31.8625L38.55 31.83125Q38.565624 30.753124 38.878124 29.83125Q39.190624 28.909374 39.753124 28.221874Q40.315624 27.534374 41.096874 27.159374Q41.89375 26.784374 42.846874 26.784374Q43.628124 26.784374 44.253124 27.003124Q44.878124 27.20625 45.315624 27.675Q45.76875 28.128124 46.003124 28.8625Q46.2375 29.58125 46.2375 30.628124L46.2375 37.55L44.425 37.55L44.425 30.6125Q44.425 29.76875 44.175 29.26875Q43.940624 28.76875 43.471874 28.55Q43.003124 28.315624 42.315624 28.315624Q41.64375 28.315624 41.08125 28.596874Q40.534374 28.878124 40.128124 29.378124Q39.7375 29.878124 39.51875 30.51875Q39.3 31.159374 39.3 31.8625ZM50.7375 22.55L50.7375 37.55L48.925 37.55L48.925 22.55L50.7375 22.55ZM57.20625 26.9875L52.596874 31.909374L50.01875 34.596874L49.8625 32.659374L51.70625 30.45625L54.9875 26.9875L57.20625 26.9875ZM55.55 37.55L51.784374 32.503124L52.721874 30.89375L57.675 37.55L55.55 37.55ZM67.14375 35.925L70.03438 26.9875L71.87813 26.9875L68.08125 37.55L66.8625 37.55L67.14375 35.925ZM64.72188 26.9875L67.70625 35.971874L67.90938 37.55L66.70625 37.55L62.878124 26.9875L64.72188 26.9875ZM80.08125 34.753124Q80.08125 34.3625 79.90938 34.01875Q79.7375 33.675 79.20625 33.409374Q78.69063 33.128124 77.64375 32.925Q76.76875 32.7375 76.05 32.4875Q75.34688 32.221874 74.84688 31.8625Q74.3625 31.503124 74.09688 31.01875Q73.84688 30.534374 73.84688 29.878124Q73.84688 29.253124 74.1125 28.690624Q74.39375 28.128124 74.90938 27.70625Q75.425 27.26875 76.14375 27.034374Q76.8625 26.784374 77.75313 26.784374Q79.01875 26.784374 79.90938 27.2375Q80.81563 27.690624 81.3 28.440624Q81.78438 29.175 81.78438 30.08125L79.97188 30.08125Q79.97188 29.64375 79.70625 29.2375Q79.45625 28.815624 78.95625 28.55Q78.47188 28.26875 77.75313 28.26875Q77.00313 28.26875 76.53438 28.503124Q76.08125 28.7375 75.8625 29.096874Q75.65938 29.440624 75.65938 29.83125Q75.65938 30.1125 75.75313 30.346874Q75.8625 30.58125 76.12813 30.76875Q76.39375 30.95625 76.8625 31.128124Q77.34688 31.284374 78.08125 31.45625Q79.39375 31.753124 80.22188 32.159374Q81.06563 32.565624 81.47188 33.159374Q81.89375 33.753124 81.89375 34.6125Q81.89375 35.3 81.59688 35.878124Q81.31563 36.45625 80.76875 36.878124Q80.22188 37.284374 79.47188 37.51875Q78.7375 37.753124 77.8 37.753124Q76.40938 37.753124 75.44063 37.253124Q74.47188 36.753124 73.97188 35.95625Q73.47188 35.159374 73.47188 34.284374L75.3 34.284374Q75.33125 35.034374 75.72188 35.471874Q76.1125 35.89375 76.675 36.08125Q77.25313 36.253124 77.8 36.253124Q78.55 36.253124 79.05 36.065624Q79.55 35.8625 79.81563 35.534374Q80.08125 35.190624 80.08125 34.753124ZM83.95625 36.596874Q83.95625 36.128124 84.2375 35.815624Q84.53438 35.503124 85.08125 35.503124Q85.62813 35.503124 85.90938 35.815624Q86.20625 36.128124 86.20625 36.596874Q86.20625 37.034374 85.90938 37.3625Q85.62813 37.675 85.08125 37.675Q84.53438 37.675 84.2375 37.3625Q83.95625 37.034374 83.95625 36.596874ZM98.15938 36.253124Q98.8 36.253124 99.34688 36.003124Q99.89375 35.7375 100.2375 35.26875Q100.59688 34.8 100.64375 34.20625L102.3625 34.20625Q102.31563 35.14375 101.7375 35.95625Q101.15938 36.753124 100.22188 37.253124Q99.28438 37.753124 98.15938 37.753124Q96.97188 37.753124 96.08125 37.33125Q95.19063 36.909374 94.6125 36.175Q94.03438 35.440624 93.7375 34.4875Q93.45625 33.534374 93.45625 32.471874L93.45625 32.065624Q93.45625 31.003124 93.7375 30.05Q94.03438 29.096874 94.6125 28.3625Q95.19063 27.628124 96.08125 27.20625Q96.97188 26.784374 98.15938 26.784374Q99.39375 26.784374 100.31563 27.3Q101.25313 27.8 101.78438 28.659374Q102.31563 29.51875 102.3625 30.6125L100.64375 30.6125Q100.59688 29.95625 100.26875 29.440624Q99.95625 28.909374 99.40938 28.596874Q98.87813 28.26875 98.15938 28.26875Q97.33125 28.26875 96.76875 28.596874Q96.20625 28.925 95.87813 29.4875Q95.55 30.034374 95.40938 30.70625Q95.26875 31.3625 95.26875 32.065624L95.26875 32.471874Q95.26875 33.159374 95.39375 33.846874Q95.53438 34.51875 95.8625 35.065624Q96.19063 35.6125 96.75313 35.940624Q97.31563 36.253124 98.15938 36.253124ZM103.45625 32.378124L103.45625 32.159374Q103.45625 31.01875 103.78438 30.034374Q104.1125 29.05 104.7375 28.33125Q105.3625 27.596874 106.25313 27.190624Q107.14375 26.784374 108.2375 26.784374Q109.3625 26.784374 110.25313 27.190624Q111.14375 27.596874 111.76875 28.33125Q112.40938 29.05 112.7375 30.034374Q113.06563 31.01875 113.06563 32.159374L113.06563 32.378124Q113.06563 33.51875 112.7375 34.503124Q112.40938 35.471874 111.76875 36.20625Q111.14375 36.940624 110.25313 37.346874Q109.37813 37.753124 108.26875 37.753124Q107.14375 37.753124 106.25313 37.346874Q105.37813 36.940624 104.7375 36.20625Q104.1125 35.471874 103.78438 34.503124Q103.45625 33.51875 103.45625 32.378124ZM105.25313 32.159374L105.25313 32.378124Q105.25313 33.175 105.44063 33.878124Q105.62813 34.565624 106.00313 35.1125Q106.37813 35.64375 106.94063 35.95625Q107.51875 36.253124 108.26875 36.253124Q109.00313 36.253124 109.56563 35.95625Q110.12813 35.64375 110.50313 35.1125Q110.87813 34.565624 111.06563 33.878124Q111.25313 33.175 111.25313 32.378124L111.25313 32.159374Q111.25313 31.378124 111.06563 30.690624Q110.87813 29.9875 110.4875 29.440624Q110.1125 28.89375 109.55 28.58125Q109.00313 28.26875 108.2375 28.26875Q107.50313 28.26875 106.94063 28.58125Q106.37813 28.89375 106.00313 29.440624Q105.62813 29.9875 105.44063 30.690624Q105.25313 31.378124 105.25313 32.159374ZM121.08125 34.753124Q121.08125 34.3625 120.90938 34.01875Q120.7375 33.675 120.20625 33.409374Q119.69063 33.128124 118.64375 32.925Q117.76875 32.7375 117.05 32.4875Q116.34688 32.221874 115.84688 31.8625Q115.3625 31.503124 115.09688 31.01875Q114.84688 30.534374 114.84688 29.878124Q114.84688 29.253124 115.1125 28.690624Q115.39375 28.128124 115.90938 27.70625Q116.425 27.26875 117.14375 27.034374Q117.8625 26.784374 118.75313 26.784374Q120.01875 26.784374 120.90938 27.2375Q121.81563 27.690624 122.3 28.440624Q122.78438 29.175 122.78438 30.08125L120.97188 30.08125Q120.97188 29.64375 120.70625 29.2375Q120.45625 28.815624 119.95625 28.55Q119.47188 28.26875 118.75313 28.26875Q118.00313 28.26875 117.53438 28.503124Q117.08125 28.7375 116.8625 29.096874Q116.65938 29.440624 116.65938 29.83125Q116.65938 30.1125 116.75313 30.346874Q116.8625 30.58125 117.12813 30.76875Q117.39375 30.95625 117.8625 31.128124Q118.34688 31.284374 119.08125 31.45625Q120.39375 31.753124 121.22188 32.159374Q122.06563 32.565624 122.47188 33.159374Q122.89375 33.753124 122.89375 34.6125Q122.89375 35.3 122.59688 35.878124Q122.31563 36.45625 121.76875 36.878124Q121.22188 37.284374 120.47188 37.51875Q119.7375 37.753124 118.8 37.753124Q117.40938 37.753124 116.44063 37.253124Q115.47188 36.753124 114.97188 35.95625Q114.47188 35.159374 114.47188 34.284374L116.3 34.284374Q116.33125 35.034374 116.72188 35.471874Q117.1125 35.89375 117.675 36.08125Q118.25313 36.253124 118.8 36.253124Q119.55 36.253124 120.05 36.065624Q120.55 35.8625 120.81563 35.534374Q121.08125 35.190624 121.08125 34.753124ZM129.34688 26.9875L129.34688 28.3625L123.64375 28.3625L123.64375 26.9875L129.34688 26.9875ZM125.56563 24.409374L127.37813 24.409374L127.37813 34.925Q127.37813 35.471874 127.53438 35.753124Q127.70625 36.01875 127.97188 36.1125Q128.2375 36.190624 128.53438 36.190624Q128.76875 36.190624 129.01875 36.14375Q129.26875 36.096874 129.39375 36.08125L129.39375 37.55Q129.19063 37.6125 128.83125 37.675Q128.4875 37.753124 128.00313 37.753124Q127.34688 37.753124 126.78438 37.4875Q126.22188 37.221874 125.89375 36.596874Q125.56563 35.971874 125.56563 34.925L125.56563 24.409374ZM136.8625 31.8625L136.8625 31.76875Q136.8625 29.64375 137.33125 27.925Q137.81563 26.190624 138.55 24.89375Q139.3 23.596874 140.1125 22.7375Q140.94063 21.878124 141.62813 21.503124L142.01875 22.690624Q141.44063 23.128124 140.84688 23.909374Q140.25313 24.675 139.75313 25.8Q139.26875 26.925 138.95625 28.409374Q138.65938 29.89375 138.65938 31.753124L138.65938 31.878124Q138.65938 33.7375 138.95625 35.2375Q139.26875 36.721874 139.75313 37.846874Q140.25313 38.9875 140.84688 39.784374Q141.44063 40.58125 142.01875 41.05L141.62813 42.14375Q140.94063 41.753124 140.1125 40.89375Q139.3 40.05 138.55 38.753124Q137.81563 37.45625 137.33125 35.7375Q136.8625 34.003124 136.8625 31.8625ZM149.12813 21.01875L149.12813 24.003124L147.675 24.003124L147.675 21.01875L149.12813 21.01875ZM148.95625 36.971874L148.95625 39.58125L147.50313 39.58125L147.50313 36.971874L148.95625 36.971874ZM150.90938 33.89375Q150.90938 33.3 150.64375 32.83125Q150.37813 32.3625 149.76875 31.971874Q149.175 31.58125 148.15938 31.253124Q146.925 30.8625 146.03438 30.315624Q145.14375 29.76875 144.65938 28.971874Q144.175 28.159374 144.175 27.003124Q144.175 25.8 144.69063 24.940624Q145.20625 24.065624 146.14375 23.596874Q147.09688 23.128124 148.37813 23.128124Q149.37813 23.128124 150.15938 23.425Q150.94063 23.721874 151.47188 24.315624Q152.01875 24.89375 152.3 25.753124Q152.59688 26.596874 152.59688 27.70625L150.8 27.70625Q150.8 27.05 150.64375 26.503124Q150.4875 25.95625 150.175 25.55Q149.8625 25.14375 149.40938 24.925Q148.97188 24.70625 148.37813 24.70625Q147.56563 24.70625 147.03438 24.9875Q146.50313 25.26875 146.2375 25.784374Q145.9875 26.3 145.9875 26.971874Q145.9875 27.596874 146.2375 28.065624Q146.50313 28.534374 147.1125 28.909374Q147.72188 29.284374 148.78438 29.64375Q150.05 30.05 150.925 30.596874Q151.81563 31.128124 152.26875 31.925Q152.72188 32.70625 152.72188 33.8625Q152.72188 35.128124 152.15938 36.003124Q151.59688 36.8625 150.56563 37.315624Q149.55 37.753124 148.15938 37.753124Q147.33125 37.753124 146.51875 37.534374Q145.72188 37.3 145.06563 36.8Q144.40938 36.284374 144.01875 35.440624Q143.62813 34.596874 143.62813 33.3625L145.44063 33.3625Q145.44063 34.190624 145.675 34.7375Q145.925 35.26875 146.31563 35.596874Q146.72188 35.909374 147.20625 36.05Q147.69063 36.175 148.15938 36.175Q149.05 36.175 149.65938 35.89375Q150.26875 35.6125 150.58125 35.096874Q150.90938 34.58125 150.90938 33.89375ZM161.22188 23.33125L155.28438 38.76875L153.7375 38.76875L159.675 23.33125L161.22188 23.33125ZM169.76875 26.9875L171.40938 26.9875L171.40938 37.33125Q171.40938 38.721874 170.84688 39.70625Q170.28438 40.690624 169.26875 41.20625Q168.25313 41.721874 166.94063 41.721874Q166.39375 41.721874 165.65938 41.55Q164.925 41.378124 164.20625 40.971874Q163.50313 40.565624 163.01875 39.878124L163.97188 38.815624Q164.64375 39.6125 165.3625 39.925Q166.09688 40.2375 166.8 40.2375Q167.65938 40.2375 168.28438 39.909374Q168.90938 39.596874 169.25313 38.95625Q169.6125 38.33125 169.6125 37.409374L169.6125 29.3L169.76875 26.9875ZM162.50313 32.378124L162.50313 32.175Q162.50313 30.971874 162.78438 29.9875Q163.08125 28.9875 163.6125 28.284374Q164.15938 27.565624 164.925 27.175Q165.70625 26.784374 166.675 26.784374Q167.65938 26.784374 168.40938 27.14375Q169.15938 27.4875 169.675 28.14375Q170.20625 28.8 170.50313 29.7375Q170.81563 30.659374 170.925 31.83125L170.925 32.721874Q170.81563 33.89375 170.50313 34.815624Q170.20625 35.7375 169.675 36.39375Q169.15938 37.05 168.40938 37.409374Q167.65938 37.753124 166.64375 37.753124Q165.70625 37.753124 164.94063 37.346874Q164.175 36.940624 163.62813 36.221874Q163.08125 35.503124 162.78438 34.51875Q162.50313 33.534374 162.50313 32.378124ZM164.3 32.175L164.3 32.378124Q164.3 33.175 164.45625 33.878124Q164.62813 34.565624 164.95625 35.096874Q165.3 35.6125 165.83125 35.909374Q166.3625 36.20625 167.08125 36.20625Q167.9875 36.20625 168.56563 35.83125Q169.15938 35.45625 169.50313 34.83125Q169.84688 34.20625 170.05 33.471874L170.05 31.1125Q169.94063 30.58125 169.72188 30.08125Q169.50313 29.565624 169.14375 29.175Q168.8 28.784374 168.28438 28.55Q167.78438 28.315624 167.1125 28.315624Q166.3625 28.315624 165.83125 28.628124Q165.3 28.925 164.95625 29.45625Q164.62813 29.9875 164.45625 30.690624Q164.3 31.39375 164.3 32.175ZM178.08125 31.76875L178.08125 31.8625Q178.08125 34.003124 177.59688 35.7375Q177.12813 37.45625 176.37813 38.753124Q175.64375 40.05 174.81563 40.89375Q174.00313 41.753124 173.31563 42.14375L172.925 41.05Q173.50313 40.6125 174.08125 39.815624Q174.675 39.034374 175.175 37.878124Q175.675 36.7375 175.97188 35.2375Q176.28438 33.7375 176.28438 31.878124L176.28438 31.753124Q176.28438 29.89375 175.95625 28.39375Q175.64375 26.89375 175.12813 25.753124Q174.6125 24.6125 174.03438 23.83125Q173.45625 23.034374 172.925 22.6125L173.31563 21.503124Q174.00313 21.878124 174.81563 22.7375Q175.64375 23.596874 176.37813 24.89375Q177.12813 26.190624 177.59688 27.925Q178.08125 29.64375 178.08125 31.76875Z" fill-rule="nonzero"/></svg>