<svg version="1.1" viewBox="0.0 0.0 600.0 371.0" fill="none" stroke="none" stroke-linecap="square" stroke-miterlimit="10" width="600" height="371" xmlns:xlink="http://www.w3.org/1999/xlink" xmlns="http://www.w3.org/2000/svg"><path fill="#ffffff" d="M0 0L600.0 0L600.0 371.0L0 371.0L0 0Z" fill-rule="nonzero"/><path stroke="#000000" stroke-width="1.0" stroke-linecap="butt" stroke-opacity="0.0" d="M550.5 88.5L550.5 326.5" fill-rule="nonzero"/><path stroke="#000000" stroke-width="1.0" stroke-linecap="butt" stroke-opacity="0.0" d="M521.5 88.5L521.5 326.5" fill-rule="nonzero"/><path stroke="#000000" stroke-width="1.0" stroke-linecap="butt" stroke-opacity="0.0" d="M464.5 88.5L464.5 326.5" fill-rule="nonzero"/><path stroke="#000000" stroke-width="1.0" stroke-linecap="butt" stroke-opacity="0.0" d="M435.5 88.5L435.5 326.5" fill-rule="nonzero"/><path stroke="#000000" stroke-width="1.0" stroke-linecap="butt" stroke-opacity="0.0" d="M378.5 88.5L378.5 326.5" fill-rule="nonzero"/><path stroke="#000000" stroke-width="1.0" stroke-linecap="butt" stroke-opacity="0.0" d="M349.5 88.5L349.5 326.5" fill-rule="nonzero"/><path stroke="#000000" stroke-width="1.0" stroke-linecap="butt" stroke-opacity="0.0" d="M291.5 88.5L291.5 326.5" fill-rule="nonzero"/><path stroke="#000000" stroke-width="1.0" stroke-linecap="butt" stroke-opacity="0.0" d="M263.5 88.5L263.5 326.5" fill-rule="nonzero"/><path stroke="#000000" stroke-width="1.0" stroke-linecap="butt" stroke-opacity="0.0" d="M205.5 88.5L205.5 326.5" fill-rule="nonzero"/><path stroke="#000000" stroke-width="1.0" stroke-linecap="butt" stroke-opacity="0.0" d="M177.5 88.5L177.5 326.5" fill-rule="nonzero"/><path stroke="#000000" stroke-width="1.0" stroke-linecap="butt" stroke-opacity="0.0" d="M119.5 88.5L119.5 326.5" fill-rule="nonzero"/><path stroke="#000000" stroke-width="1.0" stroke-linecap="butt" stroke-opacity="0.0" d="M91.5 88.5L91.5 326.5" fill-rule="nonzero"/><path stroke="#333333" stroke-width="1.0" stroke-linecap="butt" d="M55.5 326.5L581.5 326.5" fill-rule="nonzero"/><path stroke="#cccccc" stroke-width="1.0" stroke-linecap="butt" d="M55.5 266.5L581.5 266.5" fill-rule="nonzero"/><path stroke="#cccccc" stroke-width="1.0" stroke-linecap="butt" d="M55.5 207.5L581.5 207.5" fill-rule="nonzero"/><path stroke="#cccccc" stroke-width="1.0" stroke-linecap="butt" d="M55.5 147.5L581.5 147.5" fill-rule="nonzero"/><path stroke="#cccccc" stroke-width="1.0" stroke-linecap="butt" d="M55.5 88.5L581.5 88.5" fill-rule="nonzero"/><path stroke="#000000" stroke-width="1.0" stroke-linecap="butt" stroke-opacity="0.0" d="M55.5 306.5L581.5 306.5" fill-rule="nonzero"/><path stroke="#000000" stroke-width="1.0" stroke-linecap="butt" stroke-opacity="0.0" d="M55.5 286.5L581.5 286.5" fill-rule="nonzero"/><path stroke="#000000" stroke-width="1.0" stroke-linecap="butt" stroke-opacity="0.0" d="M55.5 247.5L581.5 247.5" fill-rule="nonzero"/><path stroke="#000000" stroke-width="1.0" stroke-linecap="butt" stroke-opacity="0.0" d="M55.5 227.5L581.5 227.5" fill-rule="nonzero"/><path stroke="#000000" stroke-width="1.0" stroke-linecap="butt" stroke-opacity="0.0" d="M55.5 187.5L581.5 187.5" fill-rule="nonzero"/><path stroke="#000000" stroke-width="1.0" stroke-linecap="butt" stroke-opacity="0.0" d="M55.5 167.5L581.5 167.5" fill-rule="nonzero"/><path stroke="#000000" stroke-width="1.0" stroke-linecap="butt" stroke-opacity="0.0" d="M55.5 127.5L581.5 127.5" fill-rule="nonzero"/><path stroke="#000000" stroke-width="1.0" stroke-linecap="butt" stroke-opacity="0.0" d="M55.5 108.5L581.5 108.5" fill-rule="nonzero"/><path stroke="#000000" stroke-width="1.0" stroke-linecap="butt" d="M581.5 326.5L55.5 326.5" fill-rule="nonzero"/><clipPath id="id_0"><path d="M55.55 88.28333L581.45 88.28333L581.45 326.45L55.55 326.45L55.55 88.28333Z" clip-rule="nonzero"/></clipPath><path stroke="#4285f4" stroke-width="2.0" stroke-linecap="butt" stroke-opacity="0.4" clip-path="url(#id_0)" d="M0 352.86523C0 352.86523 2.6666667 350.41107 4.0 349.21252C5.3333335 348.01398 6.6666665 346.8347 8.0 345.6739C9.333333 344.51306 10.666667 343.37125 12.0 342.2476C13.333333 341.12396 14.666667 340.01904 16.0 338.932C17.333334 337.845 18.666666 336.7764 20.0 335.72543C21.333334 334.67447 22.666666 333.64163 24.0 332.62616C25.333334 331.61066 26.666666 330.61307 28.0 329.6325C29.333334 328.65195 30.666666 327.68896 32.0 326.74277C33.333332 325.79657 34.666668 324.8677 36.0 323.9553C37.333332 323.04288 38.666668 322.14752 40.0 321.26837C41.333332 320.3892 42.666668 319.5268 44.0 318.6803C45.333332 317.8338 46.666668 317.00378 48.0 316.18942C49.333332 315.37503 50.666668 314.57684 52.0 313.794C53.333332 313.01117 54.666668 312.24426 56.0 311.4924C57.333332 310.74054 58.666668 310.00433 60.0 309.2829C61.333332 308.56146 62.666668 307.85538 64.0 307.16382C65.333336 306.47223 66.666664 305.79575 68.0 305.13345C69.333336 304.4712 70.666664 303.8237 72.0 303.19016C73.333336 302.5566 74.666664 301.93756 76.0 301.33218C77.333336 300.7268 78.666664 300.13565 80.0 299.5579C81.333336 298.9801 82.666664 298.4163 84.0 297.86554C85.333336 297.31482 86.666664 296.77777 88.0 296.2535C89.333336 295.72925 90.666664 295.21838 92.0 294.72006C93.333336 294.22174 94.666664 293.73648 96.0 293.26352C97.333336 292.79053 98.666664 292.33038 100.0 291.88217C101.333336 291.434 102.666664 290.99835 104.0 290.57437C105.333336 290.15042 106.666664 289.7387 108.0 289.3384C109.333336 288.9381 110.666664 288.5498 112.0 288.1726C113.333336 287.7954 114.666664 287.4299 116.0 287.07526C117.333336 286.72058 118.666664 286.37735 120.0 286.04465C121.333336 285.71198 122.666664 285.3904 124.0 285.07916C125.333336 284.76788 126.666664 284.46747 128.0 284.17703C129.33333 283.88663 130.66667 283.60678 132.0 283.33664C133.33333 283.0665 134.66667 282.80664 136.0 282.55624C137.33333 282.30582 138.66667 282.06543 140.0 281.83417C141.33333 281.6029 142.66667 281.38138 144.0 281.16873C145.33333 280.9561 146.66667 280.75287 148.0 280.55826C149.33333 280.36362 150.66667 280.17816 152.0 280.001C153.33333 279.82385 154.66667 279.6556 156.0 279.49536C157.33333 279.3351 158.66667 279.18347 160.0 279.03958C161.33333 278.89566 162.66667 278.7601 164.0 278.632C165.33333 278.50388 166.66667 278.3838 168.0 278.27087C169.33333 278.158 170.66667 278.05286 172.0 277.9546C173.33333 277.85635 174.66667 277.7656 176.0 277.68146C177.33333 277.5973 178.66667 277.52032 180.0 277.4497C181.33333 277.3791 182.66667 277.3154 184.0 277.25775C185.33333 277.2001 186.66667 277.14905 188.0 277.10382C189.33333 277.05856 190.66667 277.01965 192.0 276.98627C193.33333 276.95285 194.66667 276.9255 196.0 276.90338C197.33333 276.88126 198.66667 276.8649 200.0 276.8535C201.33333 276.84207 202.66667 276.83615 204.0 276.8349C205.33333 276.83362 206.66667 276.8376 208.0 276.8459C209.33333 276.85422 210.66667 276.8675 212.0 276.88483C213.33333 276.9022 214.66667 276.9242 216.0 276.95C217.33333 276.9758 218.66667 277.00598 220.0 277.0397C221.33333 277.07343 222.66667 277.11124 224.0 277.15228C225.33333 277.19333 226.66667 277.23816 228.0 277.28598C229.33333 277.3338 230.66667 277.38516 232.0 277.4392C233.33333 277.49323 234.66667 277.5505 236.0 277.61017C237.33333 277.66986 238.66667 277.7325 240.0 277.79727C241.33333 277.86203 242.66667 277.92947 244.0 277.99875C245.33333 278.06802 246.66667 278.1397 248.0 278.21295C249.33333 278.2862 250.66667 278.36157 252.0 278.4382C253.33333 278.51483 254.66667 278.5933 256.0 278.67276C257.33334 278.75223 258.66666 278.83325 260.0 278.915C261.33334 278.99673 262.66666 279.07974 264.0 279.16318C265.33334 279.24664 266.66666 279.33105 268.0 279.41565C269.33334 279.50024 270.66666 279.58554 272.0 279.6707C273.33334 279.75586 274.66666 279.84146 276.0 279.92664C277.33334 280.0118 278.66666 280.09714 280.0 280.1818C281.33334 280.26642 282.66666 280.35092 284.0 280.43445C285.33334 280.51797 286.66666 280.60107 288.0 280.68292C289.33334 280.76477 290.66666 280.84595 292.0 280.92557C293.33334 281.0052 294.66666 281.0838 296.0 281.16064C297.33334 281.23746 298.66666 281.31302 300.0 281.38647C301.33334 281.45993 302.66666 281.53183 304.0 281.60138C305.33334 281.6709 306.66666 281.73862 308.0 281.80365C309.33334 281.8687 310.66666 281.93164 312.0 281.99164C313.33334 282.05164 314.66666 282.10925 316.0 282.1636C317.33334 282.218 318.66666 282.2697 320.0 282.3179C321.33334 282.36612 322.66666 282.41138 324.0 282.45285C325.33334 282.4943 326.66666 282.53253 328.0 282.56668C329.33334 282.60086 330.66666 282.6315 332.0 282.6578C333.33334 282.68408 334.66666 282.7066 336.0 282.72446C337.33334 282.7423 338.66666 282.7561 340.0 282.76498C341.33334 282.77386 342.66666 282.77838 344.0 282.77768C345.33334 282.777 346.66666 282.7717 348.0 282.7609C349.33334 282.7501 350.66666 282.73438 352.0 282.7129C353.33334 282.6914 354.66666 282.66473 356.0 282.632C357.33334 282.59927 358.66666 282.56107 360.0 282.51654C361.33334 282.472 362.66666 282.4217 364.0 282.3648C365.33334 282.3079 366.66666 282.24493 368.0 282.1751C369.33334 282.10526 370.66666 282.0291 372.0 281.94577C373.33334 281.86243 374.66666 281.7725 376.0 281.6751C377.33334 281.5777 378.66666 281.47342 380.0 281.36142C381.33334 281.2494 382.66666 281.13022 384.0 281.00302C385.33334 280.8758 386.66666 280.74115 388.0 280.5982C389.33334 280.45526 390.66666 280.30457 392.0 280.1453C393.33334 279.98605 394.66666 279.81876 396.0 279.64264C397.33334 279.4665 398.66666 279.28207 400.0 279.0885C401.33334 278.89493 402.66666 278.69275 404.0 278.4812C405.33334 278.26962 406.66666 278.04916 408.0 277.81903C409.33334 277.5889 410.66666 277.3496 412.0 277.10034C413.33334 276.8511 414.66666 276.5924 416.0 276.32346C417.33334 276.0545 418.66666 275.77582 420.0 275.48663C421.33334 275.19742 422.66666 274.89822 424.0 274.5882C425.33334 274.27817 426.66666 273.9579 428.0 273.62646C429.33334 273.29507 430.66666 272.95312 432.0 272.59976C433.33334 272.24643 434.66666 271.88226 436.0 271.5064C437.33334 271.13055 438.66666 270.7436 440.0 270.34467C441.33334 269.94574 442.66666 269.53543 444.0 269.11288C445.33334 268.69034 446.66666 268.2561 448.0 267.80936C449.33334 267.3626 450.66666 266.90393 452.0 266.43243C453.33334 265.9609 454.66666 265.47717 456.0 264.98035C457.33334 264.48355 458.66666 263.97418 460.0 263.45148C461.33334 262.92877 462.66666 262.39328 464.0 261.84412C465.33334 261.29498 466.66666 260.73273 468.0 260.1566C469.33334 259.5804 470.66666 258.9909 472.0 258.38715C473.33334 257.78342 474.66666 257.16605 476.0 256.53418C477.33334 255.9023 478.66666 255.25652 480.0 254.59595C481.33334 253.93538 482.66666 253.26059 484.0 252.57077C485.33334 251.88094 486.66666 251.17662 488.0 250.45695C489.33334 249.7373 490.66666 249.00288 492.0 248.25284C493.33334 247.50279 494.66666 246.7377 496.0 245.95671C497.33334 245.17572 498.66666 244.3794 500.0 243.56688C501.33334 242.75438 502.66666 241.92625 504.0 241.08167C505.33334 240.23709 506.66666 239.3766 508.0 238.49937C509.33334 237.62216 510.66666 236.72876 512.0 235.81833C513.3333 234.9079 514.6667 233.98102 516.0 233.03682C517.3333 232.09262 518.6667 231.1317 520.0 230.15317C521.3333 229.17465 522.6667 228.17911 524.0 227.1657C525.3333 226.15228 526.6667 225.12155 528.0 224.0727C529.3333 223.02382 530.6667 221.95737 532.0 220.87248C533.3333 219.78758 534.6667 218.68483 536.0 217.56337C537.3333 216.4419 538.6667 215.30228 540.0 214.14366C541.3333 212.98505 542.6667 211.80801 544.0 210.6117C545.3333 209.41537 546.6667 208.20033 548.0 206.96574C549.3333 205.73116 550.6667 204.47757 552.0 203.20415C553.3333 201.93073 554.6667 200.63803 556.0 199.32521C557.3333 198.01239 558.6667 196.68001 560.0 195.32722C561.3333 193.97444 562.6667 192.60184 564.0 191.20853C565.3333 189.81523 566.6667 188.40181 568.0 186.96742C569.3333 185.53304 570.6667 184.07823 572.0 182.6022C573.3333 181.12616 574.6667 179.62944 576.0 178.1112C577.3333 176.59296 580.0 173.49272 580.0 173.49272" fill-rule="nonzero"/><path fill="#4285f4" clip-path="url(#id_0)" d="M579.07574 212.13C579.07574 214.61528 577.061 216.63 574.57574 216.63C572.09045 216.63 570.07574 214.61528 570.07574 212.13C570.07574 209.64471 572.09045 207.63 574.57574 207.63C577.061 207.63 579.07574 209.64471 579.07574 212.13Z" fill-rule="nonzero"/><path fill="#4285f4" clip-path="url(#id_0)" d="M570.46814 146.63417C570.46814 149.11945 568.4534 151.13417 565.96814 151.13417C563.48285 151.13417 561.46814 149.11945 561.46814 146.63417C561.46814 144.14888 563.48285 142.13417 565.96814 142.13417C568.4534 142.13417 570.46814 144.14888 570.46814 146.63417Z" fill-rule="nonzero"/><path fill="#4285f4" clip-path="url(#id_0)" d="M553.2529 234.75583C553.2529 237.24112 551.2382 239.25583 548.7529 239.25583C546.2677 239.25583 544.2529 237.24112 544.2529 234.75583C544.2529 232.27055 546.2677 230.25583 548.7529 230.25583C551.2382 230.25583 553.2529 232.27055 553.2529 234.75583Z" fill-rule="nonzero"/><path fill="#4285f4" clip-path="url(#id_0)" d="M548.94916 151.3975C548.94916 153.88278 546.93445 155.8975 544.44916 155.8975C541.96387 155.8975 539.94916 153.88278 539.94916 151.3975C539.94916 148.91222 541.96387 146.8975 544.44916 146.8975C546.93445 146.8975 548.94916 148.91222 548.94916 151.3975Z" fill-rule="nonzero"/><path fill="#4285f4" clip-path="url(#id_0)" d="M544.6454 169.26C544.6454 171.74529 542.6307 173.76 540.1454 173.76C537.6601 173.76 535.6454 171.74529 535.6454 169.26C535.6454 166.77472 537.6601 164.76 540.1454 164.76C542.6307 164.76 544.6454 166.77472 544.6454 169.26Z" fill-rule="nonzero"/><path fill="#4285f4" clip-path="url(#id_0)" d="M540.34155 243.09166C540.34155 245.57695 538.32684 247.59166 535.84155 247.59166C533.35626 247.59166 531.34155 245.57695 531.34155 243.09166C531.34155 240.60638 533.35626 238.59166 535.84155 238.59166C538.32684 238.59166 540.34155 240.60638 540.34155 243.09166Z" fill-rule="nonzero"/><path fill="#4285f4" clip-path="url(#id_0)" d="M536.0378 234.75583C536.0378 237.24112 534.0231 239.25583 531.5378 239.25583C529.0525 239.25583 527.0378 237.24112 527.0378 234.75583C527.0378 232.27055 529.0525 230.25583 531.5378 230.25583C534.0231 230.25583 536.0378 232.27055 536.0378 234.75583Z" fill-rule="nonzero"/><path fill="#4285f4" clip-path="url(#id_0)" d="M531.734 228.80167C531.734 231.28694 529.71924 233.30167 527.234 233.30167C524.7487 233.30167 522.734 231.28694 522.734 228.80167C522.734 226.31639 524.7487 224.30167 527.234 224.30167C529.71924 224.30167 531.734 226.31639 531.734 228.80167Z" fill-rule="nonzero"/><path fill="#4285f4" clip-path="url(#id_0)" d="M510.21503 246.66417C510.21503 249.14944 508.2003 251.16417 505.71503 251.16417C503.22974 251.16417 501.21503 249.14944 501.21503 246.66417C501.21503 244.17888 503.22974 242.16417 505.71503 242.16417C508.2003 242.16417 510.21503 244.17888 510.21503 246.66417Z" fill-rule="nonzero"/><path fill="#4285f4" clip-path="url(#id_0)" d="M505.91122 284.77084C505.91122 287.2561 503.8965 289.27084 501.41122 289.27084C498.92593 289.27084 496.91122 287.2561 496.91122 284.77084C496.91122 282.28555 498.92593 280.27084 501.41122 280.27084C503.8965 280.27084 505.91122 282.28555 505.91122 284.77084Z" fill-rule="nonzero"/><path fill="#4285f4" clip-path="url(#id_0)" d="M501.60742 246.66417C501.60742 249.14944 499.5927 251.16417 497.10742 251.16417C494.62216 251.16417 492.60742 249.14944 492.60742 246.66417C492.60742 244.17888 494.62216 242.16417 497.10742 242.16417C499.5927 242.16417 501.60742 244.17888 501.60742 246.66417Z" fill-rule="nonzero"/><path fill="#4285f4" clip-path="url(#id_0)" d="M497.30365 264.52667C497.30365 267.01196 495.2889 269.02667 492.80365 269.02667C490.31836 269.02667 488.30365 267.01196 488.30365 264.52667C488.30365 262.04138 490.31836 260.02667 492.80365 260.02667C495.2889 260.02667 497.30365 262.04138 497.30365 264.52667Z" fill-rule="nonzero"/><path fill="#4285f4" clip-path="url(#id_0)" d="M480.08847 272.8625C480.08847 275.34778 478.07373 277.3625 475.58847 277.3625C473.10318 277.3625 471.08847 275.34778 471.08847 272.8625C471.08847 270.37723 473.10318 268.3625 475.58847 268.3625C478.07373 268.3625 480.08847 270.37723 480.08847 272.8625Z" fill-rule="nonzero"/><path fill="#4285f4" clip-path="url(#id_0)" d="M475.78467 243.09166C475.78467 245.57695 473.76996 247.59166 471.28467 247.59166C468.79938 247.59166 466.78467 245.57695 466.78467 243.09166C466.78467 240.60638 468.79938 238.59166 471.28467 238.59166C473.76996 238.59166 475.78467 240.60638 475.78467 243.09166Z" fill-rule="nonzero"/><path fill="#4285f4" clip-path="url(#id_0)" d="M467.1771 272.8625C467.1771 275.34778 465.16235 277.3625 462.6771 277.3625C460.1918 277.3625 458.1771 275.34778 458.1771 272.8625C458.1771 270.37723 460.1918 268.3625 462.6771 268.3625C465.16235 268.3625 467.1771 270.37723 467.1771 272.8625Z" fill-rule="nonzero"/><path fill="#4285f4" clip-path="url(#id_0)" d="M462.8733 234.75583C462.8733 237.24112 460.85858 239.25583 458.3733 239.25583C455.888 239.25583 453.8733 237.24112 453.8733 234.75583C453.8733 232.27055 455.888 230.25583 458.3733 230.25583C460.85858 230.25583 462.8733 232.27055 462.8733 234.75583Z" fill-rule="nonzero"/><path fill="#4285f4" clip-path="url(#id_0)" d="M449.9619 287.1525C449.9619 289.6378 447.9472 291.6525 445.4619 291.6525C442.97662 291.6525 440.9619 289.6378 440.9619 287.1525C440.9619 284.6672 442.97662 282.6525 445.4619 282.6525C447.9472 282.6525 449.9619 284.6672 449.9619 287.1525Z" fill-rule="nonzero"/><path fill="#4285f4" clip-path="url(#id_0)" d="M445.6581 300.25168C445.6581 302.73694 443.6434 304.75168 441.1581 304.75168C438.67282 304.75168 436.6581 302.73694 436.6581 300.25168C436.6581 297.7664 438.67282 295.75168 441.1581 295.75168C443.6434 295.75168 445.6581 297.7664 445.6581 300.25168Z" fill-rule="nonzero"/><path fill="#4285f4" clip-path="url(#id_0)" d="M441.3543 277.62582C441.3543 280.1111 439.3396 282.12582 436.8543 282.12582C434.36905 282.12582 432.3543 280.1111 432.3543 277.62582C432.3543 275.14056 434.36905 273.12582 436.8543 273.12582C439.3396 273.12582 441.3543 275.14056 441.3543 277.62582Z" fill-rule="nonzero"/><path fill="#4285f4" clip-path="url(#id_0)" d="M437.05054 219.275C437.05054 221.76028 435.0358 223.775 432.55054 223.775C430.06525 223.775 428.05054 221.76028 428.05054 219.275C428.05054 216.78972 430.06525 214.775 432.55054 214.775C435.0358 214.775 437.05054 216.78972 437.05054 219.275Z" fill-rule="nonzero"/><path fill="#4285f4" clip-path="url(#id_0)" d="M428.44293 278.81668C428.44293 281.30194 426.42822 283.31668 423.94293 283.31668C421.45767 283.31668 419.44293 281.30194 419.44293 278.81668C419.44293 276.3314 421.45767 274.31668 423.94293 274.31668C426.42822 274.31668 428.44293 276.3314 428.44293 278.81668Z" fill-rule="nonzero"/><path fill="#4285f4" clip-path="url(#id_0)" d="M368.18982 272.8625C368.18982 275.34778 366.1751 277.3625 363.68982 277.3625C361.20456 277.3625 359.18982 275.34778 359.18982 272.8625C359.18982 270.37723 361.20456 268.3625 363.68982 268.3625C366.1751 268.3625 368.18982 270.37723 368.18982 272.8625Z" fill-rule="nonzero"/><path fill="#4285f4" clip-path="url(#id_0)" d="M363.88605 266.90833C363.88605 269.39362 361.8713 271.40833 359.38605 271.40833C356.90076 271.40833 354.88605 269.39362 354.88605 266.90833C354.88605 264.42307 356.90076 262.40833 359.38605 262.40833C361.8713 262.40833 363.88605 264.42307 363.88605 266.90833Z" fill-rule="nonzero"/><path fill="#4285f4" clip-path="url(#id_0)" d="M355.27844 284.77084C355.27844 287.2561 353.26373 289.27084 350.77844 289.27084C348.29318 289.27084 346.27844 287.2561 346.27844 284.77084C346.27844 282.28555 348.29318 280.27084 350.77844 280.27084C353.26373 280.27084 355.27844 282.28555 355.27844 284.77084Z" fill-rule="nonzero"/><path fill="#4285f4" clip-path="url(#id_0)" d="M350.97467 297.87C350.97467 300.3553 348.95993 302.37 346.47467 302.37C343.98938 302.37 341.97467 300.3553 341.97467 297.87C341.97467 295.3847 343.98938 293.37 346.47467 293.37C348.95993 293.37 350.97467 295.3847 350.97467 297.87Z" fill-rule="nonzero"/><path fill="#4285f4" clip-path="url(#id_0)" d="M342.36707 301.4425C342.36707 303.9278 340.35236 305.9425 337.86707 305.9425C335.38177 305.9425 333.36707 303.9278 333.36707 301.4425C333.36707 298.9572 335.38177 296.9425 337.86707 296.9425C340.35236 296.9425 342.36707 298.9572 342.36707 301.4425Z" fill-rule="nonzero"/><path fill="#4285f4" clip-path="url(#id_0)" d="M299.32913 293.10666C299.32913 295.59195 297.31442 297.60666 294.82913 297.60666C292.34384 297.60666 290.32913 295.59195 290.32913 293.10666C290.32913 290.6214 292.34384 288.60666 294.82913 288.60666C297.31442 288.60666 299.32913 290.6214 299.32913 293.10666Z" fill-rule="nonzero"/><path fill="#4285f4" clip-path="url(#id_0)" d="M286.41776 251.4275C286.41776 253.91278 284.40305 255.9275 281.91776 255.9275C279.43246 255.9275 277.41776 253.91278 277.41776 251.4275C277.41776 248.94221 279.43246 246.9275 281.91776 246.9275C284.40305 246.9275 286.41776 248.94221 286.41776 251.4275Z" fill-rule="nonzero"/><path fill="#4285f4" clip-path="url(#id_0)" d="M277.81018 290.725C277.81018 293.2103 275.79544 295.225 273.31018 295.225C270.8249 295.225 268.81018 293.2103 268.81018 290.725C268.81018 288.23972 270.8249 286.225 273.31018 286.225C275.79544 286.225 277.81018 288.23972 277.81018 290.725Z" fill-rule="nonzero"/><path fill="#4285f4" clip-path="url(#id_0)" d="M260.595 284.77084C260.595 287.2561 258.58026 289.27084 256.095 289.27084C253.60971 289.27084 251.595 287.2561 251.595 284.77084C251.595 282.28555 253.60971 280.27084 256.095 280.27084C258.58026 280.27084 260.595 282.28555 260.595 284.77084Z" fill-rule="nonzero"/><path fill="#4285f4" clip-path="url(#id_0)" d="M234.77223 169.26C234.77223 171.74529 232.7575 173.76 230.27223 173.76C227.78696 173.76 225.77223 171.74529 225.77223 169.26C225.77223 166.77472 227.78696 164.76 230.27223 164.76C232.7575 164.76 234.77223 166.77472 234.77223 169.26Z" fill-rule="nonzero"/><path fill="#4285f4" clip-path="url(#id_0)" d="M230.46844 262.145C230.46844 264.63028 228.45372 266.645 225.96844 266.645C223.48315 266.645 221.46844 264.63028 221.46844 262.145C221.46844 259.65973 223.48315 257.645 225.96844 257.645C228.45372 257.645 230.46844 259.65973 230.46844 262.145Z" fill-rule="nonzero"/><path fill="#4285f4" clip-path="url(#id_0)" d="M226.16464 296.67917C226.16464 299.16446 224.14993 301.17917 221.66464 301.17917C219.17937 301.17917 217.16464 299.16446 217.16464 296.67917C217.16464 294.19388 219.17937 292.17917 221.66464 292.17917C224.14993 292.17917 226.16464 294.19388 226.16464 296.67917Z" fill-rule="nonzero"/><path fill="#4285f4" clip-path="url(#id_0)" d="M221.86086 297.87C221.86086 300.3553 219.84613 302.37 217.36086 302.37C214.87556 302.37 212.86086 300.3553 212.86086 297.87C212.86086 295.3847 214.87556 293.37 217.36086 293.37C219.84613 293.37 221.86086 295.3847 221.86086 297.87Z" fill-rule="nonzero"/><path fill="#4285f4" clip-path="url(#id_0)" d="M191.7343 259.76334C191.7343 262.24863 189.71957 264.26334 187.2343 264.26334C184.74902 264.26334 182.7343 262.24863 182.7343 259.76334C182.7343 257.27805 184.74902 255.26334 187.2343 255.26334C189.71957 255.26334 191.7343 257.27805 191.7343 259.76334Z" fill-rule="nonzero"/><path fill="#4285f4" clip-path="url(#id_0)" d="M187.43051 288.34332C187.43051 290.8286 185.41579 292.84332 182.93051 292.84332C180.44522 292.84332 178.43051 290.8286 178.43051 288.34332C178.43051 285.85806 180.44522 283.84332 182.93051 283.84332C185.41579 283.84332 187.43051 285.85806 187.43051 288.34332Z" fill-rule="nonzero"/><path fill="#4285f4" clip-path="url(#id_0)" d="M170.21533 290.725C170.21533 293.2103 168.2006 295.225 165.71533 295.225C163.23004 295.225 161.21533 293.2103 161.21533 290.725C161.21533 288.23972 163.23004 286.225 165.71533 286.225C168.2006 286.225 170.21533 288.23972 170.21533 290.725Z" fill-rule="nonzero"/><path fill="#4285f4" clip-path="url(#id_0)" d="M161.60774 300.25168C161.60774 302.73694 159.59302 304.75168 157.10774 304.75168C154.62247 304.75168 152.60774 302.73694 152.60774 300.25168C152.60774 297.7664 154.62247 295.75168 157.10774 295.75168C159.59302 295.75168 161.60774 297.7664 161.60774 300.25168Z" fill-rule="nonzero"/><path fill="#4285f4" clip-path="url(#id_0)" d="M148.69637 300.25168C148.69637 302.73694 146.68164 304.75168 144.19637 304.75168C141.71107 304.75168 139.69637 302.73694 139.69637 300.25168C139.69637 297.7664 141.71107 295.75168 144.19637 295.75168C146.68164 295.75168 148.69637 297.7664 148.69637 300.25168Z" fill-rule="nonzero"/><path fill="#4285f4" clip-path="url(#id_0)" d="M140.08878 302.63333C140.08878 305.11862 138.07405 307.13333 135.58878 307.13333C133.1035 307.13333 131.08878 305.11862 131.08878 302.63333C131.08878 300.14804 133.1035 298.13333 135.58878 298.13333C138.07405 298.13333 140.08878 300.14804 140.08878 302.63333Z" fill-rule="nonzero"/><path fill="#4285f4" clip-path="url(#id_0)" d="M135.78499 301.4425C135.78499 303.9278 133.77026 305.9425 131.28499 305.9425C128.7997 305.9425 126.78498 303.9278 126.78498 301.4425C126.78498 298.9572 128.7997 296.9425 131.28499 296.9425C133.77026 296.9425 135.78499 298.9572 135.78499 301.4425Z" fill-rule="nonzero"/><path fill="#4285f4" clip-path="url(#id_0)" d="M114.266014 296.67917C114.266014 299.16446 112.2513 301.17917 109.766014 301.17917C107.28073 301.17917 105.266014 299.16446 105.266014 296.67917C105.266014 294.19388 107.28073 292.17917 109.766014 292.17917C112.2513 292.17917 114.266014 294.19388 114.266014 296.67917Z" fill-rule="nonzero"/><path fill="#4285f4" clip-path="url(#id_0)" d="M109.96222 296.67917C109.96222 299.16446 107.9475 301.17917 105.46222 301.17917C102.97694 301.17917 100.96222 299.16446 100.96222 296.67917C100.96222 294.19388 102.97694 292.17917 105.46222 292.17917C107.9475 292.17917 109.96222 294.19388 109.96222 296.67917Z" fill-rule="nonzero"/><path fill="#4285f4" clip-path="url(#id_0)" d="M105.658424 294.2975C105.658424 296.78278 103.64371 298.7975 101.158424 298.7975C98.67315 298.7975 96.658424 296.78278 96.658424 294.2975C96.658424 291.81223 98.67315 289.7975 101.158424 289.7975C103.64371 289.7975 105.658424 291.81223 105.658424 294.2975Z" fill-rule="nonzero"/><path fill="#4285f4" clip-path="url(#id_0)" d="M71.22808 283.58C71.22808 286.06528 69.21336 288.08 66.72808 288.08C64.2428 288.08 62.228077 286.06528 62.228077 283.58C62.228077 281.09473 64.2428 279.08 66.72808 279.08C69.21336 279.08 71.22808 281.09473 71.22808 283.58Z" fill-rule="nonzero"/><path fill="#4285f4" clip-path="url(#id_0)" d="M66.924286 288.34332C66.924286 290.8286 64.90957 292.84332 62.424286 292.84332C59.939003 292.84332 57.924286 290.8286 57.924286 288.34332C57.924286 285.85806 59.939003 283.84332 62.424286 283.84332C64.90957 283.84332 66.924286 285.85806 66.924286 288.34332Z" fill-rule="nonzero"/><path stroke="#000000" stroke-width="1.0" stroke-linecap="butt" d="M550.5 329.5L550.5 323.5" fill-rule="nonzero"/><path stroke="#000000" stroke-width="1.0" stroke-linecap="butt" d="M521.5 329.5L521.5 323.5" fill-rule="nonzero"/><path stroke="#000000" stroke-width="1.0" stroke-linecap="butt" d="M464.5 329.5L464.5 323.5" fill-rule="nonzero"/><path stroke="#000000" stroke-width="1.0" stroke-linecap="butt" d="M435.5 329.5L435.5 323.5" fill-rule="nonzero"/><path stroke="#000000" stroke-width="1.0" stroke-linecap="butt" d="M378.5 329.5L378.5 323.5" fill-rule="nonzero"/><path stroke="#000000" stroke-width="1.0" stroke-linecap="butt" d="M349.5 329.5L349.5 323.5" fill-rule="nonzero"/><path stroke="#000000" stroke-width="1.0" stroke-linecap="butt" d="M291.5 329.5L291.5 323.5" fill-rule="nonzero"/><path stroke="#000000" stroke-width="1.0" stroke-linecap="butt" d="M263.5 329.5L263.5 323.5" fill-rule="nonzero"/><path stroke="#000000" stroke-width="1.0" stroke-linecap="butt" d="M205.5 329.5L205.5 323.5" fill-rule="nonzero"/><path stroke="#000000" stroke-width="1.0" stroke-linecap="butt" d="M177.5 329.5L177.5 323.5" fill-rule="nonzero"/><path stroke="#000000" stroke-width="1.0" stroke-linecap="butt" d="M119.5 329.5L119.5 323.5" fill-rule="nonzero"/><path stroke="#000000" stroke-width="1.0" stroke-linecap="butt" d="M91.5 329.5L91.5 323.5" fill-rule="nonzero"/><path stroke="#000000" stroke-width="1.0" stroke-linecap="butt" d="M578.5 332.5L578.5 320.5" fill-rule="nonzero"/><path stroke="#000000" stroke-width="1.0" stroke-linecap="butt" d="M492.5 332.5L492.5 320.5" fill-rule="nonzero"/><path stroke="#000000" stroke-width="1.0" stroke-linecap="butt" d="M406.5 332.5L406.5 320.5" fill-rule="nonzero"/><path stroke="#000000" stroke-width="1.0" stroke-linecap="butt" d="M320.5 332.5L320.5 320.5" fill-rule="nonzero"/><path stroke="#000000" stroke-width="1.0" stroke-linecap="butt" d="M234.5 332.5L234.5 320.5" fill-rule="nonzero"/><path stroke="#000000" stroke-width="1.0" stroke-linecap="butt" d="M148.5 332.5L148.5 320.5" fill-rule="nonzero"/><path stroke="#000000" stroke-width="1.0" stroke-linecap="butt" d="M62.5 332.5L62.5 320.5" fill-rule="nonzero"/><path fill="#000000" d="M21.534374 331.6844L21.534374 330.6375Q20.753124 330.52814 20.253124 330.27814Q19.753124 330.02814 19.39375 329.46564Q19.034374 328.8875 18.971874 328.0594L20.034374 327.8719Q20.159374 328.71564 20.471874 329.10626Q20.925 329.66876 21.534374 329.7469L21.534374 326.3875Q20.89375 326.2625 20.20625 325.8719Q19.70625 325.59064 19.425 325.10626Q19.159374 324.60626 19.159374 323.96564Q19.159374 322.84064 19.95625 322.15314Q20.4875 321.6844 21.534374 321.575L21.534374 321.075L22.159374 321.075L22.159374 321.575Q23.08125 321.65314 23.6125 322.10626Q24.315624 322.6844 24.45625 323.6844L23.3625 323.85626Q23.26875 323.23126 22.971874 322.90314Q22.675 322.575 22.159374 322.46564L22.159374 325.4969Q22.95625 325.7 23.221874 325.8094Q23.70625 326.02814 24.01875 326.34064Q24.33125 326.65314 24.4875 327.09064Q24.659374 327.5125 24.659374 328.0125Q24.659374 329.10626 23.95625 329.84064Q23.26875 330.575 22.159374 330.6219L22.159374 331.6844L21.534374 331.6844ZM21.534374 322.45Q20.925 322.54376 20.565624 322.95Q20.221874 323.34064 20.221874 323.8875Q20.221874 324.41876 20.51875 324.79376Q20.815624 325.15314 21.534374 325.3719L21.534374 322.45ZM22.159374 329.7469Q22.76875 329.66876 23.175 329.21564Q23.58125 328.7469 23.58125 328.075Q23.58125 327.4969 23.284374 327.15314Q23.003124 326.8094 22.159374 326.52814L22.159374 329.7469ZM26.05 326.21564Q26.05 324.6844 26.3625 323.7625Q26.675 322.825 27.284374 322.325Q27.909374 321.825 28.846874 321.825Q29.534374 321.825 30.05 322.10626Q30.58125 322.3875 30.925 322.91876Q31.26875 323.4344 31.45625 324.1844Q31.64375 324.9344 31.64375 326.21564Q31.64375 327.73126 31.33125 328.65314Q31.034374 329.575 30.409374 330.09064Q29.8 330.59064 28.846874 330.59064Q27.6125 330.59064 26.89375 329.7Q26.05 328.6375 26.05 326.21564ZM27.128124 326.21564Q27.128124 328.325 27.628124 329.02814Q28.128124 329.73126 28.846874 329.73126Q29.58125 329.73126 30.065624 329.02814Q30.565624 328.325 30.565624 326.21564Q30.565624 324.09064 30.065624 323.40314Q29.58125 322.7 28.83125 322.7Q28.1125 322.7 27.675 323.3094Q27.128124 324.09064 27.128124 326.21564ZM33.64375 330.45L33.64375 329.2469L34.846874 329.2469L34.846874 330.45L33.64375 330.45ZM36.05 326.21564Q36.05 324.6844 36.3625 323.7625Q36.675 322.825 37.284374 322.325Q37.909374 321.825 38.846874 321.825Q39.534374 321.825 40.05 322.10626Q40.58125 322.3875 40.925 322.91876Q41.26875 323.4344 41.45625 324.1844Q41.64375 324.9344 41.64375 326.21564Q41.64375 327.73126 41.33125 328.65314Q41.034374 329.575 40.409374 330.09064Q39.8 330.59064 38.846874 330.59064Q37.6125 330.59064 36.89375 329.7Q36.05 328.6375 36.05 326.21564ZM37.128124 326.21564Q37.128124 328.325 37.628124 329.02814Q38.128124 329.73126 38.846874 329.73126Q39.58125 329.73126 40.065624 329.02814Q40.565624 328.325 40.565624 326.21564Q40.565624 324.09064 40.065624 323.40314Q39.58125 322.7 38.83125 322.7Q38.1125 322.7 37.675 323.3094Q37.128124 324.09064 37.128124 326.21564ZM43.05 326.21564Q43.05 324.6844 43.3625 323.7625Q43.675 322.825 44.284374 322.325Q44.909374 321.825 45.846874 321.825Q46.534374 321.825 47.05 322.10626Q47.58125 322.3875 47.925 322.91876Q48.26875 323.4344 48.45625 324.1844Q48.64375 324.9344 48.64375 326.21564Q48.64375 327.73126 48.33125 328.65314Q48.034374 329.575 47.409374 330.09064Q46.8 330.59064 45.846874 330.59064Q44.6125 330.59064 43.89375 329.7Q43.05 328.6375 43.05 326.21564ZM44.128124 326.21564Q44.128124 328.325 44.628124 329.02814Q45.128124 329.73126 45.846874 329.73126Q46.58125 329.73126 47.065624 329.02814Q47.565624 328.325 47.565624 326.21564Q47.565624 324.09064 47.065624 323.40314Q46.58125 322.7 45.83125 322.7Q45.1125 322.7 44.675 323.3094Q44.128124 324.09064 44.128124 326.21564Z" fill-rule="nonzero"/><path fill="#000000" d="M21.534374 272.1427L21.534374 271.09583Q20.753124 270.98645 20.253124 270.73645Q19.753124 270.48645 19.39375 269.92395Q19.034374 269.34583 18.971874 268.5177L20.034374 268.3302Q20.159374 269.17395 20.471874 269.56458Q20.925 270.12708 21.534374 270.2052L21.534374 266.84583Q20.89375 266.72083 20.20625 266.3302Q19.70625 266.04895 19.425 265.56458Q19.159374 265.06458 19.159374 264.42395Q19.159374 263.29895 19.95625 262.61145Q20.4875 262.1427 21.534374 262.03333L21.534374 261.53333L22.159374 261.53333L22.159374 262.03333Q23.08125 262.11145 23.6125 262.56458Q24.315624 263.1427 24.45625 264.1427L23.3625 264.31458Q23.26875 263.68958 22.971874 263.36145Q22.675 263.03333 22.159374 262.92395L22.159374 265.9552Q22.95625 266.15833 23.221874 266.2677Q23.70625 266.48645 24.01875 266.79895Q24.33125 267.11145 24.4875 267.54895Q24.659374 267.97083 24.659374 268.47083Q24.659374 269.56458 23.95625 270.29895Q23.26875 271.03333 22.159374 271.0802L22.159374 272.1427L21.534374 272.1427ZM21.534374 262.90833Q20.925 263.00208 20.565624 263.40833Q20.221874 263.79895 20.221874 264.34583Q20.221874 264.87708 20.51875 265.25208Q20.815624 265.61145 21.534374 265.8302L21.534374 262.90833ZM22.159374 270.2052Q22.76875 270.12708 23.175 269.67395Q23.58125 269.2052 23.58125 268.53333Q23.58125 267.9552 23.284374 267.61145Q23.003124 267.2677 22.159374 266.98645L22.159374 270.2052ZM26.05 266.67395Q26.05 265.1427 26.3625 264.22083Q26.675 263.28333 27.284374 262.78333Q27.909374 262.28333 28.846874 262.28333Q29.534374 262.28333 30.05 262.56458Q30.58125 262.84583 30.925 263.37708Q31.26875 263.8927 31.45625 264.6427Q31.64375 265.3927 31.64375 266.67395Q31.64375 268.18958 31.33125 269.11145Q31.034374 270.03333 30.409374 270.54895Q29.8 271.04895 28.846874 271.04895Q27.6125 271.04895 26.89375 270.15833Q26.05 269.09583 26.05 266.67395ZM27.128124 266.67395Q27.128124 268.78333 27.628124 269.48645Q28.128124 270.18958 28.846874 270.18958Q29.58125 270.18958 30.065624 269.48645Q30.565624 268.78333 30.565624 266.67395Q30.565624 264.54895 30.065624 263.86145Q29.58125 263.15833 28.83125 263.15833Q28.1125 263.15833 27.675 263.7677Q27.128124 264.54895 27.128124 266.67395ZM33.64375 270.90833L33.64375 269.7052L34.846874 269.7052L34.846874 270.90833L33.64375 270.90833ZM36.05 268.65833L37.159374 268.56458Q37.284374 269.37708 37.721874 269.78333Q38.175 270.18958 38.815624 270.18958Q39.565624 270.18958 40.096874 269.61145Q40.628124 269.03333 40.628124 268.09583Q40.628124 267.18958 40.1125 266.67395Q39.6125 266.1427 38.784374 266.1427Q38.284374 266.1427 37.8625 266.37708Q37.45625 266.61145 37.221874 266.97083L36.2375 266.84583L37.065624 262.43958L41.346874 262.43958L41.346874 263.43958L37.909374 263.43958L37.45625 265.75208Q38.221874 265.2052 39.065624 265.2052Q40.190624 265.2052 40.95625 265.98645Q41.7375 266.7677 41.7375 268.00208Q41.7375 269.15833 41.065624 270.0177Q40.2375 271.04895 38.815624 271.04895Q37.64375 271.04895 36.89375 270.3927Q36.159374 269.73645 36.05 268.65833ZM43.05 266.67395Q43.05 265.1427 43.3625 264.22083Q43.675 263.28333 44.284374 262.78333Q44.909374 262.28333 45.846874 262.28333Q46.534374 262.28333 47.05 262.56458Q47.58125 262.84583 47.925 263.37708Q48.26875 263.8927 48.45625 264.6427Q48.64375 265.3927 48.64375 266.67395Q48.64375 268.18958 48.33125 269.11145Q48.034374 270.03333 47.409374 270.54895Q46.8 271.04895 45.846874 271.04895Q44.6125 271.04895 43.89375 270.15833Q43.05 269.09583 43.05 266.67395ZM44.128124 266.67395Q44.128124 268.78333 44.628124 269.48645Q45.128124 270.18958 45.846874 270.18958Q46.58125 270.18958 47.065624 269.48645Q47.565624 268.78333 47.565624 266.67395Q47.565624 264.54895 47.065624 263.86145Q46.58125 263.15833 45.83125 263.15833Q45.1125 263.15833 44.675 263.7677Q44.128124 264.54895 44.128124 266.67395Z" fill-rule="nonzero"/><path fill="#000000" d="M21.534374 212.60104L21.534374 211.55417Q20.753124 211.4448 20.253124 211.1948Q19.753124 210.9448 19.39375 210.3823Q19.034374 209.80417 18.971874 208.97604L20.034374 208.78854Q20.159374 209.6323 20.471874 210.02292Q20.925 210.58542 21.534374 210.66354L21.534374 207.30417Q20.89375 207.17917 20.20625 206.78854Q19.70625 206.5073 19.425 206.02292Q19.159374 205.52292 19.159374 204.8823Q19.159374 203.7573 19.95625 203.0698Q20.4875 202.60104 21.534374 202.49167L21.534374 201.99167L22.159374 201.99167L22.159374 202.49167Q23.08125 202.5698 23.6125 203.02292Q24.315624 203.60104 24.45625 204.60104L23.3625 204.77292Q23.26875 204.14792 22.971874 203.8198Q22.675 203.49167 22.159374 203.3823L22.159374 206.41354Q22.95625 206.61667 23.221874 206.72604Q23.70625 206.9448 24.01875 207.2573Q24.33125 207.5698 24.4875 208.0073Q24.659374 208.42917 24.659374 208.92917Q24.659374 210.02292 23.95625 210.7573Q23.26875 211.49167 22.159374 211.53854L22.159374 212.60104L21.534374 212.60104ZM21.534374 203.36667Q20.925 203.46042 20.565624 203.86667Q20.221874 204.2573 20.221874 204.80417Q20.221874 205.33542 20.51875 205.71042Q20.815624 206.0698 21.534374 206.28854L21.534374 203.36667ZM22.159374 210.66354Q22.76875 210.58542 23.175 210.1323Q23.58125 209.66354 23.58125 208.99167Q23.58125 208.41354 23.284374 208.0698Q23.003124 207.72604 22.159374 207.4448L22.159374 210.66354ZM30.01875 211.36667L28.971874 211.36667L28.971874 204.64792Q28.58125 205.0073 27.95625 205.3823Q27.346874 205.74167 26.8625 205.91354L26.8625 204.89792Q27.7375 204.47604 28.39375 203.89792Q29.065624 203.30417 29.346874 202.74167L30.01875 202.74167L30.01875 211.36667ZM33.64375 211.36667L33.64375 210.16354L34.846874 210.16354L34.846874 211.36667L33.64375 211.36667ZM36.05 207.1323Q36.05 205.60104 36.3625 204.67917Q36.675 203.74167 37.284374 203.24167Q37.909374 202.74167 38.846874 202.74167Q39.534374 202.74167 40.05 203.02292Q40.58125 203.30417 40.925 203.83542Q41.26875 204.35104 41.45625 205.10104Q41.64375 205.85104 41.64375 207.1323Q41.64375 208.64792 41.33125 209.5698Q41.034374 210.49167 40.409374 211.0073Q39.8 211.5073 38.846874 211.5073Q37.6125 211.5073 36.89375 210.61667Q36.05 209.55417 36.05 207.1323ZM37.128124 207.1323Q37.128124 209.24167 37.628124 209.9448Q38.128124 210.64792 38.846874 210.64792Q39.58125 210.64792 40.065624 209.9448Q40.565624 209.24167 40.565624 207.1323Q40.565624 205.0073 40.065624 204.3198Q39.58125 203.61667 38.83125 203.61667Q38.1125 203.61667 37.675 204.22604Q37.128124 205.0073 37.128124 207.1323ZM43.05 207.1323Q43.05 205.60104 43.3625 204.67917Q43.675 203.74167 44.284374 203.24167Q44.909374 202.74167 45.846874 202.74167Q46.534374 202.74167 47.05 203.02292Q47.58125 203.30417 47.925 203.83542Q48.26875 204.35104 48.45625 205.10104Q48.64375 205.85104 48.64375 207.1323Q48.64375 208.64792 48.33125 209.5698Q48.034374 210.49167 47.409374 211.0073Q46.8 211.5073 45.846874 211.5073Q44.6125 211.5073 43.89375 210.61667Q43.05 209.55417 43.05 207.1323ZM44.128124 207.1323Q44.128124 209.24167 44.628124 209.9448Q45.128124 210.64792 45.846874 210.64792Q46.58125 210.64792 47.065624 209.9448Q47.565624 209.24167 47.565624 207.1323Q47.565624 205.0073 47.065624 204.3198Q46.58125 203.61667 45.83125 203.61667Q45.1125 203.61667 44.675 204.22604Q44.128124 205.0073 44.128124 207.1323Z" fill-rule="nonzero"/><path fill="#000000" d="M21.534374 153.05937L21.534374 152.0125Q20.753124 151.90312 20.253124 151.65312Q19.753124 151.40312 19.39375 150.84062Q19.034374 150.2625 18.971874 149.43437L20.034374 149.24687Q20.159374 150.09062 20.471874 150.48125Q20.925 151.04375 21.534374 151.12187L21.534374 147.7625Q20.89375 147.6375 20.20625 147.24687Q19.70625 146.96562 19.425 146.48125Q19.159374 145.98125 19.159374 145.34062Q19.159374 144.21562 19.95625 143.52812Q20.4875 143.05937 21.534374 142.95L21.534374 142.45L22.159374 142.45L22.159374 142.95Q23.08125 143.02812 23.6125 143.48125Q24.315624 144.05937 24.45625 145.05937L23.3625 145.23125Q23.26875 144.60625 22.971874 144.27812Q22.675 143.95 22.159374 143.84062L22.159374 146.87187Q22.95625 147.075 23.221874 147.18437Q23.70625 147.40312 24.01875 147.71562Q24.33125 148.02812 24.4875 148.46562Q24.659374 148.8875 24.659374 149.3875Q24.659374 150.48125 23.95625 151.21562Q23.26875 151.95 22.159374 151.99687L22.159374 153.05937L21.534374 153.05937ZM21.534374 143.825Q20.925 143.91875 20.565624 144.325Q20.221874 144.71562 20.221874 145.2625Q20.221874 145.79375 20.51875 146.16875Q20.815624 146.52812 21.534374 146.74687L21.534374 143.825ZM22.159374 151.12187Q22.76875 151.04375 23.175 150.59062Q23.58125 150.12187 23.58125 149.45Q23.58125 148.87187 23.284374 148.52812Q23.003124 148.18437 22.159374 147.90312L22.159374 151.12187ZM30.01875 151.825L28.971874 151.825L28.971874 145.10625Q28.58125 145.46562 27.95625 145.84062Q27.346874 146.2 26.8625 146.37187L26.8625 145.35625Q27.7375 144.93437 28.39375 144.35625Q29.065624 143.7625 29.346874 143.2L30.01875 143.2L30.01875 151.825ZM33.64375 151.825L33.64375 150.62187L34.846874 150.62187L34.846874 151.825L33.64375 151.825ZM36.05 149.575L37.159374 149.48125Q37.284374 150.29375 37.721874 150.7Q38.175 151.10625 38.815624 151.10625Q39.565624 151.10625 40.096874 150.52812Q40.628124 149.95 40.628124 149.0125Q40.628124 148.10625 40.1125 147.59062Q39.6125 147.05937 38.784374 147.05937Q38.284374 147.05937 37.8625 147.29375Q37.45625 147.52812 37.221874 147.8875L36.2375 147.7625L37.065624 143.35625L41.346874 143.35625L41.346874 144.35625L37.909374 144.35625L37.45625 146.66875Q38.221874 146.12187 39.065624 146.12187Q40.190624 146.12187 40.95625 146.90312Q41.7375 147.68437 41.7375 148.91875Q41.7375 150.075 41.065624 150.93437Q40.2375 151.96562 38.815624 151.96562Q37.64375 151.96562 36.89375 151.30937Q36.159374 150.65312 36.05 149.575ZM43.05 147.59062Q43.05 146.05937 43.3625 145.1375Q43.675 144.2 44.284374 143.7Q44.909374 143.2 45.846874 143.2Q46.534374 143.2 47.05 143.48125Q47.58125 143.7625 47.925 144.29375Q48.26875 144.80937 48.45625 145.55937Q48.64375 146.30937 48.64375 147.59062Q48.64375 149.10625 48.33125 150.02812Q48.034374 150.95 47.409374 151.46562Q46.8 151.96562 45.846874 151.96562Q44.6125 151.96562 43.89375 151.075Q43.05 150.0125 43.05 147.59062ZM44.128124 147.59062Q44.128124 149.7 44.628124 150.40312Q45.128124 151.10625 45.846874 151.10625Q46.58125 151.10625 47.065624 150.40312Q47.565624 149.7 47.565624 147.59062Q47.565624 145.46562 47.065624 144.77812Q46.58125 144.075 45.83125 144.075Q45.1125 144.075 44.675 144.68437Q44.128124 145.46562 44.128124 147.59062Z" fill-rule="nonzero"/><path fill="#000000" d="M21.534374 93.51771L21.534374 92.47083Q20.753124 92.36146 20.253124 92.11146Q19.753124 91.86146 19.39375 91.29896Q19.034374 90.72083 18.971874 89.89271L20.034374 89.70521Q20.159374 90.54896 20.471874 90.93958Q20.925 91.50208 21.534374 91.58021L21.534374 88.22083Q20.89375 88.09583 20.20625 87.70521Q19.70625 87.42396 19.425 86.93958Q19.159374 86.43958 19.159374 85.79896Q19.159374 84.67396 19.95625 83.98646Q20.4875 83.51771 21.534374 83.40833L21.534374 82.90833L22.159374 82.90833L22.159374 83.40833Q23.08125 83.48646 23.6125 83.93958Q24.315624 84.51771 24.45625 85.51771L23.3625 85.68958Q23.26875 85.06458 22.971874 84.73646Q22.675 84.40833 22.159374 84.29896L22.159374 87.33021Q22.95625 87.53333 23.221874 87.64271Q23.70625 87.86146 24.01875 88.17396Q24.33125 88.48646 24.4875 88.92396Q24.659374 89.34583 24.659374 89.84583Q24.659374 90.93958 23.95625 91.67396Q23.26875 92.40833 22.159374 92.45521L22.159374 93.51771L21.534374 93.51771ZM21.534374 84.28333Q20.925 84.37708 20.565624 84.78333Q20.221874 85.17396 20.221874 85.72083Q20.221874 86.25208 20.51875 86.62708Q20.815624 86.98646 21.534374 87.20521L21.534374 84.28333ZM22.159374 91.58021Q22.76875 91.50208 23.175 91.04896Q23.58125 90.58021 23.58125 89.90833Q23.58125 89.33021 23.284374 88.98646Q23.003124 88.64271 22.159374 88.36146L22.159374 91.58021ZM31.596874 91.26771L31.596874 92.28333L25.909374 92.28333Q25.909374 91.90833 26.034374 91.54896Q26.253124 90.97083 26.721874 90.40833Q27.20625 89.84583 28.1125 89.11146Q29.51875 87.95521 30.003124 87.28333Q30.503124 86.61146 30.503124 86.01771Q30.503124 85.39271 30.05 84.97083Q29.596874 84.53333 28.878124 84.53333Q28.1125 84.53333 27.659374 84.98646Q27.20625 85.43958 27.190624 86.25208L26.1125 86.14271Q26.221874 84.92396 26.940624 84.29896Q27.675 83.65833 28.909374 83.65833Q30.14375 83.65833 30.8625 84.34583Q31.58125 85.03333 31.58125 86.04896Q31.58125 86.56458 31.3625 87.06458Q31.159374 87.54896 30.659374 88.11146Q30.175 88.65833 29.05 89.61146Q28.096874 90.40833 27.815624 90.70521Q27.55 90.98646 27.378124 91.26771L31.596874 91.26771ZM33.64375 92.28333L33.64375 91.08021L34.846874 91.08021L34.846874 92.28333L33.64375 92.28333ZM36.05 88.04896Q36.05 86.51771 36.3625 85.59583Q36.675 84.65833 37.284374 84.15833Q37.909374 83.65833 38.846874 83.65833Q39.534374 83.65833 40.05 83.93958Q40.58125 84.22083 40.925 84.75208Q41.26875 85.26771 41.45625 86.01771Q41.64375 86.76771 41.64375 88.04896Q41.64375 89.56458 41.33125 90.48646Q41.034374 91.40833 40.409374 91.92396Q39.8 92.42396 38.846874 92.42396Q37.6125 92.42396 36.89375 91.53333Q36.05 90.47083 36.05 88.04896ZM37.128124 88.04896Q37.128124 90.15833 37.628124 90.86146Q38.128124 91.56458 38.846874 91.56458Q39.58125 91.56458 40.065624 90.86146Q40.565624 90.15833 40.565624 88.04896Q40.565624 85.92396 40.065624 85.23646Q39.58125 84.53333 38.83125 84.53333Q38.1125 84.53333 37.675 85.14271Q37.128124 85.92396 37.128124 88.04896ZM43.05 88.04896Q43.05 86.51771 43.3625 85.59583Q43.675 84.65833 44.284374 84.15833Q44.909374 83.65833 45.846874 83.65833Q46.534374 83.65833 47.05 83.93958Q47.58125 84.22083 47.925 84.75208Q48.26875 85.26771 48.45625 86.01771Q48.64375 86.76771 48.64375 88.04896Q48.64375 89.56458 48.33125 90.48646Q48.034374 91.40833 47.409374 91.92396Q46.8 92.42396 45.846874 92.42396Q44.6125 92.42396 43.89375 91.53333Q43.05 90.47083 43.05 88.04896ZM44.128124 88.04896Q44.128124 90.15833 44.628124 90.86146Q45.128124 91.56458 45.846874 91.56458Q46.58125 91.56458 47.065624 90.86146Q47.565624 90.15833 47.565624 88.04896Q47.565624 85.92396 47.065624 85.23646Q46.58125 84.53333 45.83125 84.53333Q45.1125 84.53333 44.675 85.14271Q44.128124 85.92396 44.128124 88.04896Z" fill-rule="nonzero"/><path fill="#000000" d="M575.8795 345.21564Q575.8795 343.6844 576.192 342.7625Q576.5045 341.825 577.1139 341.325Q577.7389 340.825 578.6764 340.825Q579.3639 340.825 579.8795 341.10626Q580.41077 341.3875 580.7545 341.91876Q581.09827 342.4344 581.28577 343.1844Q581.47327 343.9344 581.47327 345.21564Q581.47327 346.73126 581.16077 347.65314Q580.8639 348.575 580.2389 349.09064Q579.6295 349.59064 578.6764 349.59064Q577.442 349.59064 576.72327 348.7Q575.8795 347.6375 575.8795 345.21564ZM576.95764 345.21564Q576.95764 347.325 577.45764 348.02814Q577.95764 348.73126 578.6764 348.73126Q579.41077 348.73126 579.89514 348.02814Q580.39514 347.325 580.39514 345.21564Q580.39514 343.09064 579.89514 342.40314Q579.41077 341.7 578.66077 341.7Q577.942 341.7 577.5045 342.3094Q576.95764 343.09064 576.95764 345.21564Z" fill-rule="nonzero"/><path fill="#000000" d="M491.85052 348.4344L491.85052 349.45L486.16302 349.45Q486.16302 349.075 486.28802 348.71564Q486.50677 348.1375 486.97552 347.575Q487.4599 347.0125 488.36615 346.27814Q489.7724 345.1219 490.25677 344.45Q490.75677 343.77814 490.75677 343.1844Q490.75677 342.5594 490.30365 342.1375Q489.85052 341.7 489.13177 341.7Q488.36615 341.7 487.91302 342.15314Q487.4599 342.60626 487.44427 343.41876L486.36615 343.3094Q486.47552 342.09064 487.19427 341.46564Q487.92865 340.825 489.16302 340.825Q490.3974 340.825 491.11615 341.5125Q491.8349 342.2 491.8349 343.21564Q491.8349 343.73126 491.61615 344.23126Q491.41302 344.71564 490.91302 345.27814Q490.42865 345.825 489.30365 346.77814Q488.35052 347.575 488.06927 347.8719Q487.80365 348.15314 487.63177 348.4344L491.85052 348.4344ZM493.30365 345.21564Q493.30365 343.6844 493.61615 342.7625Q493.92865 341.825 494.53802 341.325Q495.16302 340.825 496.10052 340.825Q496.78802 340.825 497.30365 341.10626Q497.8349 341.3875 498.17865 341.91876Q498.5224 342.4344 498.7099 343.1844Q498.8974 343.9344 498.8974 345.21564Q498.8974 346.73126 498.5849 347.65314Q498.28802 348.575 497.66302 349.09064Q497.05365 349.59064 496.10052 349.59064Q494.86615 349.59064 494.1474 348.7Q493.30365 347.6375 493.30365 345.21564ZM494.38177 345.21564Q494.38177 347.325 494.88177 348.02814Q495.38177 348.73126 496.10052 348.73126Q496.8349 348.73126 497.31927 348.02814Q497.81927 347.325 497.81927 345.21564Q497.81927 343.09064 497.31927 342.40314Q496.8349 341.7 496.0849 341.7Q495.36615 341.7 494.92865 342.3094Q494.38177 343.09064 494.38177 345.21564Z" fill-rule="nonzero"/><path fill="#000000" d="M403.60275 349.45L403.60275 347.3875L399.884 347.3875L399.884 346.41876L403.80588 340.85626L404.66525 340.85626L404.66525 346.41876L405.8215 346.41876L405.8215 347.3875L404.66525 347.3875L404.66525 349.45L403.60275 349.45ZM403.60275 346.41876L403.60275 342.5594L400.91525 346.41876L403.60275 346.41876ZM407.22775 345.21564Q407.22775 343.6844 407.54025 342.7625Q407.85275 341.825 408.46213 341.325Q409.08713 340.825 410.02463 340.825Q410.71213 340.825 411.22775 341.10626Q411.759 341.3875 412.10275 341.91876Q412.4465 342.4344 412.634 343.1844Q412.8215 343.9344 412.8215 345.21564Q412.8215 346.73126 412.509 347.65314Q412.21213 348.575 411.58713 349.09064Q410.97775 349.59064 410.02463 349.59064Q408.79025 349.59064 408.0715 348.7Q407.22775 347.6375 407.22775 345.21564ZM408.30588 345.21564Q408.30588 347.325 408.80588 348.02814Q409.30588 348.73126 410.02463 348.73126Q410.759 348.73126 411.24338 348.02814Q411.74338 347.325 411.74338 345.21564Q411.74338 343.09064 411.24338 342.40314Q410.759 341.7 410.009 341.7Q409.29025 341.7 408.85275 342.3094Q408.30588 343.09064 408.30588 345.21564Z" fill-rule="nonzero"/><path fill="#000000" d="M319.62064 342.96564L318.57376 343.04376Q318.43314 342.41876 318.18314 342.1375Q317.74564 341.6844 317.12064 341.6844Q316.62064 341.6844 316.23 341.96564Q315.74564 342.34064 315.44876 343.04376Q315.1675 343.73126 315.1519 345.0125Q315.5269 344.4344 316.07376 344.15314Q316.63626 343.8719 317.24564 343.8719Q318.2925 343.8719 319.0269 344.65314Q319.7769 345.4344 319.7769 346.65314Q319.7769 347.46564 319.4175 348.16876Q319.07376 348.85626 318.4644 349.23126Q317.855 349.59064 317.0894 349.59064Q315.76126 349.59064 314.93314 348.6219Q314.105 347.65314 314.105 345.4344Q314.105 342.9344 315.0269 341.8094Q315.82376 340.825 317.18314 340.825Q318.19876 340.825 318.8394 341.40314Q319.49564 341.96564 319.62064 342.96564ZM315.32376 346.66876Q315.32376 347.21564 315.5425 347.71564Q315.7769 348.2 316.18314 348.46564Q316.605 348.73126 317.07376 348.73126Q317.73 348.73126 318.2144 348.2Q318.69876 347.65314 318.69876 346.73126Q318.69876 345.84064 318.2144 345.325Q317.74564 344.8094 317.0269 344.8094Q316.30814 344.8094 315.80814 345.325Q315.32376 345.84064 315.32376 346.66876ZM321.1519 345.21564Q321.1519 343.6844 321.4644 342.7625Q321.7769 341.825 322.38626 341.325Q323.01126 340.825 323.94876 340.825Q324.63626 340.825 325.1519 341.10626Q325.68314 341.3875 326.0269 341.91876Q326.37064 342.4344 326.55814 343.1844Q326.74564 343.9344 326.74564 345.21564Q326.74564 346.73126 326.43314 347.65314Q326.13626 348.575 325.51126 349.09064Q324.9019 349.59064 323.94876 349.59064Q322.7144 349.59064 321.99564 348.7Q321.1519 347.6375 321.1519 345.21564ZM322.23 345.21564Q322.23 347.325 322.73 348.02814Q323.23 348.73126 323.94876 348.73126Q324.68314 348.73126 325.1675 348.02814Q325.6675 347.325 325.6675 345.21564Q325.6675 343.09064 325.1675 342.40314Q324.68314 341.7 323.93314 341.7Q323.2144 341.7 322.7769 342.3094Q322.23 343.09064 322.23 345.21564Z" fill-rule="nonzero"/><path fill="#000000" d="M229.70102 344.79376Q229.04477 344.54376 228.71664 344.10626Q228.40414 343.65314 228.40414 343.04376Q228.40414 342.10626 229.07602 341.46564Q229.76352 340.825 230.8729 340.825Q231.9979 340.825 232.6854 341.48126Q233.3729 342.1375 233.3729 343.075Q233.3729 343.66876 233.0604 344.10626Q232.7479 344.54376 232.10727 344.79376Q232.90414 345.04376 233.3104 345.6219Q233.71664 346.2 233.71664 346.9969Q233.71664 348.09064 232.9354 348.84064Q232.16977 349.59064 230.88852 349.59064Q229.6229 349.59064 228.84164 348.84064Q228.0604 348.09064 228.0604 346.96564Q228.0604 346.1219 228.48227 345.5594Q228.91977 344.9969 229.70102 344.79376ZM229.48227 342.9969Q229.48227 343.60626 229.8729 343.9969Q230.27914 344.3875 230.90414 344.3875Q231.51352 344.3875 231.90414 344.0125Q232.29477 343.6219 232.29477 343.0594Q232.29477 342.48126 231.88852 342.09064Q231.48227 341.6844 230.88852 341.6844Q230.27914 341.6844 229.8729 342.075Q229.48227 342.46564 229.48227 342.9969ZM229.15414 346.96564Q229.15414 347.41876 229.35727 347.84064Q229.57602 348.2625 229.9979 348.4969Q230.41977 348.73126 230.90414 348.73126Q231.65414 348.73126 232.13852 348.2469Q232.63852 347.7625 232.63852 347.0125Q232.63852 346.2469 232.13852 345.7469Q231.63852 345.2469 230.8729 345.2469Q230.1229 345.2469 229.63852 345.7469Q229.15414 346.23126 229.15414 346.96564ZM235.07602 345.21564Q235.07602 343.6844 235.38852 342.7625Q235.70102 341.825 236.3104 341.325Q236.9354 340.825 237.8729 340.825Q238.5604 340.825 239.07602 341.10626Q239.60727 341.3875 239.95102 341.91876Q240.29477 342.4344 240.48227 343.1844Q240.66977 343.9344 240.66977 345.21564Q240.66977 346.73126 240.35727 347.65314Q240.0604 348.575 239.4354 349.09064Q238.82602 349.59064 237.8729 349.59064Q236.63852 349.59064 235.91977 348.7Q235.07602 347.6375 235.07602 345.21564ZM236.15414 345.21564Q236.15414 347.325 236.65414 348.02814Q237.15414 348.73126 237.8729 348.73126Q238.60727 348.73126 239.09164 348.02814Q239.59164 347.325 239.59164 345.21564Q239.59164 343.09064 239.09164 342.40314Q238.60727 341.7 237.85727 341.7Q237.13852 341.7 236.70102 342.3094Q236.15414 343.09064 236.15414 345.21564Z" fill-rule="nonzero"/><path fill="#000000" d="M142.4689 349.45L141.42203 349.45L141.42203 342.73126Q141.0314 343.09064 140.4064 343.46564Q139.79703 343.825 139.31265 343.9969L139.31265 342.98126Q140.18765 342.5594 140.8439 341.98126Q141.51578 341.3875 141.79703 340.825L142.4689 340.825L142.4689 349.45ZM145.50015 345.21564Q145.50015 343.6844 145.81265 342.7625Q146.12515 341.825 146.73453 341.325Q147.35953 340.825 148.29703 340.825Q148.98453 340.825 149.50015 341.10626Q150.0314 341.3875 150.37515 341.91876Q150.7189 342.4344 150.9064 343.1844Q151.0939 343.9344 151.0939 345.21564Q151.0939 346.73126 150.7814 347.65314Q150.48453 348.575 149.85953 349.09064Q149.25015 349.59064 148.29703 349.59064Q147.06265 349.59064 146.3439 348.7Q145.50015 347.6375 145.50015 345.21564ZM146.57828 345.21564Q146.57828 347.325 147.07828 348.02814Q147.57828 348.73126 148.29703 348.73126Q149.0314 348.73126 149.51578 348.02814Q150.01578 347.325 150.01578 345.21564Q150.01578 343.09064 149.51578 342.40314Q149.0314 341.7 148.2814 341.7Q147.56265 341.7 147.12515 342.3094Q146.57828 343.09064 146.57828 345.21564ZM152.50015 345.21564Q152.50015 343.6844 152.81265 342.7625Q153.12515 341.825 153.73453 341.325Q154.35953 340.825 155.29703 340.825Q155.98453 340.825 156.50015 341.10626Q157.0314 341.3875 157.37515 341.91876Q157.7189 342.4344 157.9064 343.1844Q158.0939 343.9344 158.0939 345.21564Q158.0939 346.73126 157.7814 347.65314Q157.48453 348.575 156.85953 349.09064Q156.25015 349.59064 155.29703 349.59064Q154.06265 349.59064 153.3439 348.7Q152.50015 347.6375 152.50015 345.21564ZM153.57828 345.21564Q153.57828 347.325 154.07828 348.02814Q154.57828 348.73126 155.29703 348.73126Q156.0314 348.73126 156.51578 348.02814Q157.01578 347.325 157.01578 345.21564Q157.01578 343.09064 156.51578 342.40314Q156.0314 341.7 155.2814 341.7Q154.56265 341.7 154.12515 342.3094Q153.57828 343.09064 153.57828 345.21564Z" fill-rule="nonzero"/><path fill="#000000" d="M56.393036 349.45L55.34616 349.45L55.34616 342.73126Q54.955536 343.09064 54.330536 343.46564Q53.72116 343.825 53.236786 343.9969L53.236786 342.98126Q54.111786 342.5594 54.768036 341.98126Q55.43991 341.3875 55.72116 340.825L56.393036 340.825L56.393036 349.45ZM64.97116 348.4344L64.97116 349.45L59.28366 349.45Q59.28366 349.075 59.40866 348.71564Q59.62741 348.1375 60.09616 347.575Q60.580536 347.0125 61.486786 346.27814Q62.893036 345.1219 63.37741 344.45Q63.87741 343.77814 63.87741 343.1844Q63.87741 342.5594 63.424286 342.1375Q62.97116 341.7 62.25241 341.7Q61.486786 341.7 61.03366 342.15314Q60.580536 342.60626 60.56491 343.41876L59.486786 343.3094Q59.59616 342.09064 60.31491 341.46564Q61.049286 340.825 62.28366 340.825Q63.518036 340.825 64.236786 341.5125Q64.955536 342.2 64.955536 343.21564Q64.955536 343.73126 64.736786 344.23126Q64.53366 344.71564 64.03366 345.27814Q63.549286 345.825 62.424286 346.77814Q61.47116 347.575 61.18991 347.8719Q60.924286 348.15314 60.75241 348.4344L64.97116 348.4344ZM66.424286 345.21564Q66.424286 343.6844 66.736786 342.7625Q67.049286 341.825 67.65866 341.325Q68.28366 340.825 69.22116 340.825Q69.90866 340.825 70.424286 341.10626Q70.955536 341.3875 71.299286 341.91876Q71.643036 342.4344 71.830536 343.1844Q72.018036 343.9344 72.018036 345.21564Q72.018036 346.73126 71.705536 347.65314Q71.40866 348.575 70.78366 349.09064Q70.174286 349.59064 69.22116 349.59064Q67.986786 349.59064 67.268036 348.7Q66.424286 347.6375 66.424286 345.21564ZM67.50241 345.21564Q67.50241 347.325 68.00241 348.02814Q68.50241 348.73126 69.22116 348.73126Q69.955536 348.73126 70.43991 348.02814Q70.93991 347.325 70.93991 345.21564Q70.93991 343.09064 70.43991 342.40314Q69.955536 341.7 69.205536 341.7Q68.486786 341.7 68.049286 342.3094Q67.50241 343.09064 67.50241 345.21564Z" fill-rule="nonzero"/><path fill="#4285f4" d="M232.0 61.916668C232.0 65.23038 229.3137 67.916664 226.0 67.916664C222.6863 67.916664 220.0 65.23038 220.0 61.916668C220.0 58.60296 222.6863 55.916668 226.0 55.916668C229.3137 55.916668 232.0 58.60296 232.0 61.916668Z" fill-rule="nonzero"/><path stroke="#4285f4" stroke-width="4.0" stroke-linecap="butt" stroke-opacity="0.4" d="M248.0 61.916668L260.0 61.916668" fill-rule="nonzero"/><path fill="#1a1a1a" d="M271.10938 65.916664L271.10938 58.33854L268.28125 58.33854L268.28125 57.322914L275.09375 57.322914L275.09375 58.33854L272.25 58.33854L272.25 65.916664L271.10938 65.916664ZM275.78125 65.916664L275.78125 59.697914L276.73438 59.697914L276.73438 60.635414Q277.09375 59.979164 277.39062 59.77604Q277.70312 59.55729 278.07812 59.55729Q278.60938 59.55729 279.15625 59.885414L278.79688 60.86979Q278.40625 60.635414 278.03125 60.635414Q277.67188 60.635414 277.39062 60.854164Q277.125 61.05729 277.01562 61.43229Q276.82812 61.99479 276.82812 62.65104L276.82812 65.916664L275.78125 65.916664ZM284.04688 63.916664L285.14062 64.041664Q284.89062 64.99479 284.1875 65.52604Q283.48438 66.05729 282.40625 66.05729Q281.04688 66.05729 280.23438 65.21354Q279.4375 64.36979 279.4375 62.854164Q279.4375 61.291664 280.25 60.43229Q281.0625 59.55729 282.34375 59.55729Q283.59375 59.55729 284.375 60.40104Q285.17188 61.24479 285.17188 62.791664Q285.17188 62.885414 285.17188 63.072914L280.53125 63.072914Q280.59375 64.104164 281.10938 64.65104Q281.625 65.18229 282.40625 65.18229Q282.98438 65.18229 283.39062 64.885414Q283.8125 64.572914 284.04688 63.916664ZM280.59375 62.21354L284.0625 62.21354Q284.0 61.416664 283.67188 61.02604Q283.15625 60.416664 282.35938 60.416664Q281.625 60.416664 281.125 60.90104Q280.64062 61.385414 280.59375 62.21354ZM286.79688 65.916664L286.79688 59.697914L287.73438 59.697914L287.73438 60.572914Q288.42188 59.55729 289.71875 59.55729Q290.28125 59.55729 290.75 59.760414Q291.23438 59.96354 291.46875 60.291664Q291.70312 60.61979 291.79688 61.05729Q291.84375 61.354164 291.84375 62.08854L291.84375 65.916664L290.79688 65.916664L290.79688 62.135414Q290.79688 61.479164 290.67188 61.166664Q290.54688 60.854164 290.23438 60.666664Q289.92188 60.46354 289.5 60.46354Q288.82812 60.46354 288.32812 60.90104Q287.84375 61.322914 287.84375 62.510414L287.84375 65.916664L286.79688 65.916664ZM297.82812 65.916664L297.82812 65.135414Q297.23438 66.05729 296.09375 66.05729Q295.34375 66.05729 294.71875 65.65104Q294.09375 65.229164 293.75 64.49479Q293.40625 63.760414 293.40625 62.80729Q293.40625 61.885414 293.71875 61.11979Q294.03125 60.354164 294.65625 59.96354Q295.28125 59.55729 296.04688 59.55729Q296.60938 59.55729 297.04688 59.791664Q297.48438 60.02604 297.76562 60.40104L297.76562 57.322914L298.8125 57.322914L298.8125 65.916664L297.82812 65.916664ZM294.5 62.80729Q294.5 64.010414 295.0 64.604164Q295.5 65.18229 296.1875 65.18229Q296.875 65.18229 297.35938 64.61979Q297.84375 64.05729 297.84375 62.90104Q297.84375 61.61979 297.34375 61.02604Q296.85938 60.43229 296.14062 60.43229Q295.4375 60.43229 294.96875 61.010414Q294.5 61.572914 294.5 62.80729ZM300.76562 65.916664L300.76562 57.322914L301.82812 57.322914L301.82812 65.916664L300.76562 65.916664ZM303.79688 58.541664L303.79688 57.322914L304.85938 57.322914L304.85938 58.541664L303.79688 58.541664ZM303.79688 65.916664L303.79688 59.697914L304.85938 59.697914L304.85938 65.916664L303.79688 65.916664ZM306.79688 65.916664L306.79688 59.697914L307.73438 59.697914L307.73438 60.572914Q308.42188 59.55729 309.71875 59.55729Q310.28125 59.55729 310.75 59.760414Q311.23438 59.96354 311.46875 60.291664Q311.70312 60.61979 311.79688 61.05729Q311.84375 61.354164 311.84375 62.08854L311.84375 65.916664L310.79688 65.916664L310.79688 62.135414Q310.79688 61.479164 310.67188 61.166664Q310.54688 60.854164 310.23438 60.666664Q309.92188 60.46354 309.5 60.46354Q308.82812 60.46354 308.32812 60.90104Q307.84375 61.322914 307.84375 62.510414L307.84375 65.916664L306.79688 65.916664ZM318.04688 63.916664L319.14062 64.041664Q318.89062 64.99479 318.1875 65.52604Q317.48438 66.05729 316.40625 66.05729Q315.04688 66.05729 314.23438 65.21354Q313.4375 64.36979 313.4375 62.854164Q313.4375 61.291664 314.25 60.43229Q315.0625 59.55729 316.34375 59.55729Q317.59375 59.55729 318.375 60.40104Q319.17188 61.24479 319.17188 62.791664Q319.17188 62.885414 319.17188 63.072914L314.53125 63.072914Q314.59375 64.104164 315.10938 64.65104Q315.625 65.18229 316.40625 65.18229Q316.98438 65.18229 317.39062 64.885414Q317.8125 64.572914 318.04688 63.916664ZM314.59375 62.21354L318.0625 62.21354Q318.0 61.416664 317.67188 61.02604Q317.15625 60.416664 316.35938 60.416664Q315.625 60.416664 315.125 60.90104Q314.64062 61.385414 314.59375 62.21354ZM323.9375 65.916664L323.9375 57.322914L327.75 57.322914Q328.90625 57.322914 329.5 57.55729Q330.09375 57.791664 330.45312 58.385414Q330.8125 58.96354 330.8125 59.666664Q330.8125 60.58854 330.21875 61.21354Q329.625 61.83854 328.39062 62.010414Q328.84375 62.229164 329.07812 62.43229Q329.57812 62.885414 330.01562 63.572914L331.51562 65.916664L330.07812 65.916664L328.95312 64.135414Q328.45312 63.354164 328.125 62.947914Q327.8125 62.541664 327.54688 62.385414Q327.29688 62.21354 327.03125 62.135414Q326.84375 62.104164 326.40625 62.104164L325.07812 62.104164L325.07812 65.916664L323.9375 65.916664ZM325.07812 61.11979L327.53125 61.11979Q328.29688 61.11979 328.73438 60.96354Q329.1875 60.791664 329.40625 60.447914Q329.64062 60.08854 329.64062 59.666664Q329.64062 59.05729 329.1875 58.666664Q328.75 58.27604 327.79688 58.27604L325.07812 58.27604L325.07812 61.11979ZM332.14062 61.61979Q332.1875 61.291664 332.42188 60.947914Q332.79688 60.447914 333.64062 59.83854Q334.48438 59.229164 334.64062 59.041664Q334.85938 58.80729 334.85938 58.55729Q334.85938 58.27604 334.64062 58.104164Q334.4375 57.916664 334.04688 57.916664Q333.65625 57.916664 333.46875 58.05729Q333.28125 58.18229 333.15625 58.572914L332.26562 58.479164Q332.4375 57.83854 332.85938 57.52604Q333.28125 57.21354 334.0625 57.21354Q334.95312 57.21354 335.35938 57.572914Q335.78125 57.916664 335.78125 58.416664Q335.78125 58.90104 335.42188 59.33854Q335.17188 59.666664 334.23438 60.33854Q333.73438 60.697914 333.53125 60.916664L335.79688 60.916664L335.79688 61.61979L332.14062 61.61979ZM345.34375 60.86979L339.67188 60.86979L339.67188 59.885414L345.34375 59.885414L345.34375 60.86979ZM345.34375 63.479164L339.67188 63.479164L339.67188 62.49479L345.34375 62.49479L345.34375 63.479164ZM349.5 61.68229Q349.5 60.15104 349.8125 59.229164Q350.125 58.291664 350.73438 57.791664Q351.35938 57.291664 352.29688 57.291664Q352.98438 57.291664 353.5 57.572914Q354.03125 57.854164 354.375 58.385414Q354.71875 58.90104 354.90625 59.65104Q355.09375 60.40104 355.09375 61.68229Q355.09375 63.197914 354.78125 64.11979Q354.48438 65.041664 353.85938 65.55729Q353.25 66.05729 352.29688 66.05729Q351.0625 66.05729 350.34375 65.166664Q349.5 64.104164 349.5 61.68229ZM350.57812 61.68229Q350.57812 63.791664 351.07812 64.49479Q351.57812 65.197914 352.29688 65.197914Q353.03125 65.197914 353.51562 64.49479Q354.01562 63.791664 354.01562 61.68229Q354.01562 59.55729 353.51562 58.86979Q353.03125 58.166664 352.28125 58.166664Q351.5625 58.166664 351.125 58.77604Q350.57812 59.55729 350.57812 61.68229ZM357.09375 65.916664L357.09375 64.71354L358.29688 64.71354L358.29688 65.916664L357.09375 65.916664ZM359.5 63.666664L360.60938 63.572914Q360.73438 64.385414 361.17188 64.791664Q361.625 65.197914 362.26562 65.197914Q363.01562 65.197914 363.54688 64.61979Q364.07812 64.041664 364.07812 63.104164Q364.07812 62.197914 363.5625 61.68229Q363.0625 61.15104 362.23438 61.15104Q361.73438 61.15104 361.3125 61.385414Q360.90625 61.61979 360.67188 61.979164L359.6875 61.854164L360.51562 57.447914L364.79688 57.447914L364.79688 58.447914L361.35938 58.447914L360.90625 60.760414Q361.67188 60.21354 362.51562 60.21354Q363.64062 60.21354 364.40625 60.99479Q365.1875 61.77604 365.1875 63.010414Q365.1875 64.166664 364.51562 65.02604Q363.6875 66.05729 362.26562 66.05729Q361.09375 66.05729 360.34375 65.40104Q359.60938 64.74479 359.5 63.666664ZM372.04688 64.90104L372.04688 65.916664L366.35938 65.916664Q366.35938 65.541664 366.48438 65.18229Q366.70312 64.604164 367.17188 64.041664Q367.65625 63.479164 368.5625 62.74479Q369.96875 61.58854 370.45312 60.916664Q370.95312 60.24479 370.95312 59.65104Q370.95312 59.02604 370.5 58.604164Q370.04688 58.166664 369.32812 58.166664Q368.5625 58.166664 368.10938 58.61979Q367.65625 59.072914 367.64062 59.885414L366.5625 59.77604Q366.67188 58.55729 367.39062 57.93229Q368.125 57.291664 369.35938 57.291664Q370.59375 57.291664 371.3125 57.979164Q372.03125 58.666664 372.03125 59.68229Q372.03125 60.197914 371.8125 60.697914Q371.60938 61.18229 371.10938 61.74479Q370.625 62.291664 369.5 63.24479Q368.54688 64.041664 368.26562 64.33854Q368.0 64.61979 367.82812 64.90104L372.04688 64.90104ZM373.65625 63.93229L374.67188 63.83854Q374.79688 64.55729 375.15625 64.885414Q375.53125 65.197914 376.09375 65.197914Q376.57812 65.197914 376.9375 64.979164Q377.3125 64.74479 377.54688 64.385414Q377.78125 64.010414 377.9375 63.385414Q378.09375 62.74479 378.09375 62.08854Q378.09375 62.010414 378.09375 61.86979Q377.78125 62.36979 377.23438 62.697914Q376.6875 63.010414 376.04688 63.010414Q374.96875 63.010414 374.23438 62.24479Q373.5 61.46354 373.5 60.197914Q373.5 58.885414 374.26562 58.08854Q375.04688 57.291664 376.20312 57.291664Q377.03125 57.291664 377.71875 57.74479Q378.42188 58.197914 378.78125 59.041664Q379.14062 59.86979 379.14062 61.447914Q379.14062 63.08854 378.78125 64.072914Q378.4375 65.041664 377.71875 65.55729Q377.01562 66.05729 376.07812 66.05729Q375.0625 66.05729 374.42188 65.510414Q373.78125 64.947914 373.65625 63.93229ZM377.96875 60.135414Q377.96875 59.229164 377.48438 58.697914Q377.01562 58.166664 376.32812 58.166664Q375.625 58.166664 375.09375 58.74479Q374.57812 59.30729 374.57812 60.229164Q374.57812 61.041664 375.07812 61.55729Q375.57812 62.072914 376.29688 62.072914Q377.03125 62.072914 377.5 61.55729Q377.96875 61.041664 377.96875 60.135414Z" fill-rule="nonzero"/><path fill="#000000" d="M21.7375 28.64375L21.7375 37.55L19.925 37.55L19.925 26.9875L21.690624 26.9875L21.7375 28.64375ZM25.034374 26.925L25.01875 28.596874Q24.8 28.55 24.596874 28.534374Q24.39375 28.51875 24.14375 28.51875Q23.51875 28.51875 23.034374 28.721874Q22.565624 28.909374 22.221874 29.26875Q21.89375 29.6125 21.70625 30.096874Q21.51875 30.58125 21.45625 31.159374L20.95625 31.45625Q20.95625 30.503124 21.14375 29.659374Q21.33125 28.815624 21.721874 28.175Q22.128124 27.51875 22.753124 27.159374Q23.378124 26.784374 24.2375 26.784374Q24.425 26.784374 24.675 26.83125Q24.940624 26.878124 25.034374 26.925ZM33.159374 35.7375L33.159374 30.3Q33.159374 29.675 32.909374 29.221874Q32.659374 28.753124 32.159374 28.503124Q31.659374 28.2375 30.925 28.2375Q30.253124 28.2375 29.7375 28.471874Q29.221874 28.70625 28.925 29.096874Q28.64375 29.471874 28.64375 29.909374L26.846874 29.909374Q26.846874 29.346874 27.128124 28.8Q27.425 28.2375 27.971874 27.784374Q28.534374 27.33125 29.3 27.065624Q30.08125 26.784374 31.034374 26.784374Q32.190624 26.784374 33.065624 27.175Q33.95625 27.565624 34.45625 28.3625Q34.971874 29.14375 34.971874 30.315624L34.971874 35.2375Q34.971874 35.76875 35.05 36.3625Q35.14375 36.95625 35.33125 37.39375L35.33125 37.55L33.45625 37.55Q33.315624 37.2375 33.2375 36.721874Q33.159374 36.190624 33.159374 35.7375ZM33.471874 31.14375L33.4875 32.409374L31.659374 32.409374Q30.89375 32.409374 30.284374 32.534374Q29.675 32.659374 29.26875 32.909374Q28.8625 33.14375 28.64375 33.51875Q28.425 33.878124 28.425 34.3625Q28.425 34.8625 28.64375 35.284374Q28.878124 35.690624 29.33125 35.925Q29.784374 36.159374 30.45625 36.159374Q31.284374 36.159374 31.909374 35.815624Q32.55 35.45625 32.925 34.95625Q33.3 34.440624 33.33125 33.971874L34.1125 34.83125Q34.034374 35.2375 33.721874 35.7375Q33.425 36.2375 32.925 36.690624Q32.425 37.14375 31.7375 37.45625Q31.05 37.753124 30.190624 37.753124Q29.1125 37.753124 28.3 37.33125Q27.503124 36.909374 27.05 36.20625Q26.6125 35.4875 26.6125 34.6125Q26.6125 33.753124 26.940624 33.1125Q27.284374 32.45625 27.909374 32.034374Q28.534374 31.596874 29.409374 31.378124Q30.284374 31.14375 31.378124 31.14375L33.471874 31.14375ZM39.7375 29.2375L39.7375 37.55L37.925 37.55L37.925 26.9875L39.64375 26.9875L39.7375 29.2375ZM39.3 31.8625L38.55 31.83125Q38.565624 30.753124 38.878124 29.83125Q39.190624 28.909374 39.753124 28.221874Q40.315624 27.534374 41.096874 27.159374Q41.89375 26.784374 42.846874 26.784374Q43.628124 26.784374 44.253124 27.003124Q44.878124 27.20625 45.315624 27.675Q45.76875 28.128124 46.003124 28.8625Q46.2375 29.58125 46.2375 30.628124L46.2375 37.55L44.425 37.55L44.425 30.6125Q44.425 29.76875 44.175 29.26875Q43.940624 28.76875 43.471874 28.55Q43.003124 28.315624 42.315624 28.315624Q41.64375 28.315624 41.08125 28.596874Q40.534374 28.878124 40.128124 29.378124Q39.7375 29.878124 39.51875 30.51875Q39.3 31.159374 39.3 31.8625ZM50.7375 22.55L50.7375 37.55L48.925 37.55L48.925 22.55L50.7375 22.55ZM57.20625 26.9875L52.596874 31.909374L50.01875 34.596874L49.8625 32.659374L51.70625 30.45625L54.9875 26.9875L57.20625 26.9875ZM55.55 37.55L51.784374 32.503124L52.721874 30.89375L57.675 37.55L55.55 37.55ZM67.14375 35.925L70.03438 26.9875L71.87813 26.9875L68.08125 37.55L66.8625 37.55L67.14375 35.925ZM64.72188 26.9875L67.70625 35.971874L67.90938 37.55L66.70625 37.55L62.878124 26.9875L64.72188 26.9875ZM80.08125 34.753124Q80.08125 34.3625 79.90938 34.01875Q79.7375 33.675 79.20625 33.409374Q78.69063 33.128124 77.64375 32.925Q76.76875 32.7375 76.05 32.4875Q75.34688 32.221874 74.84688 31.8625Q74.3625 31.503124 74.09688 31.01875Q73.84688 30.534374 73.84688 29.878124Q73.84688 29.253124 74.1125 28.690624Q74.39375 28.128124 74.90938 27.70625Q75.425 27.26875 76.14375 27.034374Q76.8625 26.784374 77.75313 26.784374Q79.01875 26.784374 79.90938 27.2375Q80.81563 27.690624 81.3 28.440624Q81.78438 29.175 81.78438 30.08125L79.97188 30.08125Q79.97188 29.64375 79.70625 29.2375Q79.45625 28.815624 78.95625 28.55Q78.47188 28.26875 77.75313 28.26875Q77.00313 28.26875 76.53438 28.503124Q76.08125 28.7375 75.8625 29.096874Q75.65938 29.440624 75.65938 29.83125Q75.65938 30.1125 75.75313 30.346874Q75.8625 30.58125 76.12813 30.76875Q76.39375 30.95625 76.8625 31.128124Q77.34688 31.284374 78.08125 31.45625Q79.39375 31.753124 80.22188 32.159374Q81.06563 32.565624 81.47188 33.159374Q81.89375 33.753124 81.89375 34.6125Q81.89375 35.3 81.59688 35.878124Q81.31563 36.45625 80.76875 36.878124Q80.22188 37.284374 79.47188 37.51875Q78.7375 37.753124 77.8 37.753124Q76.40938 37.753124 75.44063 37.253124Q74.47188 36.753124 73.97188 35.95625Q73.47188 35.159374 73.47188 34.284374L75.3 34.284374Q75.33125 35.034374 75.72188 35.471874Q76.1125 35.89375 76.675 36.08125Q77.25313 36.253124 77.8 36.253124Q78.55 36.253124 79.05 36.065624Q79.55 35.8625 79.81563 35.534374Q80.08125 35.190624 80.08125 34.753124ZM83.95625 36.596874Q83.95625 36.128124 84.2375 35.815624Q84.53438 35.503124 85.08125 35.503124Q85.62813 35.503124 85.90938 35.815624Q86.20625 36.128124 86.20625 36.596874Q86.20625 37.034374 85.90938 37.3625Q85.62813 37.675 85.08125 37.675Q84.53438 37.675 84.2375 37.3625Q83.95625 37.034374 83.95625 36.596874ZM98.15938 36.253124Q98.8 36.253124 99.34688 36.003124Q99.89375 35.7375 100.2375 35.26875Q100.59688 34.8 100.64375 34.20625L102.3625 34.20625Q102.31563 35.14375 101.7375 35.95625Q101.15938 36.753124 100.22188 37.253124Q99.28438 37.753124 98.15938 37.753124Q96.97188 37.753124 96.08125 37.33125Q95.19063 36.909374 94.6125 36.175Q94.03438 35.440624 93.7375 34.4875Q93.45625 33.534374 93.45625 32.471874L93.45625 32.065624Q93.45625 31.003124 93.7375 30.05Q94.03438 29.096874 94.6125 28.3625Q95.19063 27.628124 96.08125 27.20625Q96.97188 26.784374 98.15938 26.784374Q99.39375 26.784374 100.31563 27.3Q101.25313 27.8 101.78438 28.659374Q102.31563 29.51875 102.3625 30.6125L100.64375 30.6125Q100.59688 29.95625 100.26875 29.440624Q99.95625 28.909374 99.40938 28.596874Q98.87813 28.26875 98.15938 28.26875Q97.33125 28.26875 96.76875 28.596874Q96.20625 28.925 95.87813 29.4875Q95.55 30.034374 95.40938 30.70625Q95.26875 31.3625 95.26875 32.065624L95.26875 32.471874Q95.26875 33.159374 95.39375 33.846874Q95.53438 34.51875 95.8625 35.065624Q96.19063 35.6125 96.75313 35.940624Q97.31563 36.253124 98.15938 36.253124ZM103.45625 32.378124L103.45625 32.159374Q103.45625 31.01875 103.78438 30.034374Q104.1125 29.05 104.7375 28.33125Q105.3625 27.596874 106.25313 27.190624Q107.14375 26.784374 108.2375 26.784374Q109.3625 26.784374 110.25313 27.190624Q111.14375 27.596874 111.76875 28.33125Q112.40938 29.05 112.7375 30.034374Q113.06563 31.01875 113.06563 32.159374L113.06563 32.378124Q113.06563 33.51875 112.7375 34.503124Q112.40938 35.471874 111.76875 36.20625Q111.14375 36.940624 110.25313 37.346874Q109.37813 37.753124 108.26875 37.753124Q107.14375 37.753124 106.25313 37.346874Q105.37813 36.940624 104.7375 36.20625Q104.1125 35.471874 103.78438 34.503124Q103.45625 33.51875 103.45625 32.378124ZM105.25313 32.159374L105.25313 32.378124Q105.25313 33.175 105.44063 33.878124Q105.62813 34.565624 106.00313 35.1125Q106.37813 35.64375 106.94063 35.95625Q107.51875 36.253124 108.26875 36.253124Q109.00313 36.253124 109.56563 35.95625Q110.12813 35.64375 110.50313 35.1125Q110.87813 34.565624 111.06563 33.878124Q111.25313 33.175 111.25313 32.378124L111.25313 32.159374Q111.25313 31.378124 111.06563 30.690624Q110.87813 29.9875 110.4875 29.440624Q110.1125 28.89375 109.55 28.58125Q109.00313 28.26875 108.2375 28.26875Q107.50313 28.26875 106.94063 28.58125Q106.37813 28.89375 106.00313 29.440624Q105.62813 29.9875 105.44063 30.690624Q105.25313 31.378124 105.25313 32.159374ZM121.08125 34.753124Q121.08125 34.3625 120.90938 34.01875Q120.7375 33.675 120.20625 33.409374Q119.69063 33.128124 118.64375 32.925Q117.76875 32.7375 117.05 32.4875Q116.34688 32.221874 115.84688 31.8625Q115.3625 31.503124 115.09688 31.01875Q114.84688 30.534374 114.84688 29.878124Q114.84688 29.253124 115.1125 28.690624Q115.39375 28.128124 115.90938 27.70625Q116.425 27.26875 117.14375 27.034374Q117.8625 26.784374 118.75313 26.784374Q120.01875 26.784374 120.90938 27.2375Q121.81563 27.690624 122.3 28.440624Q122.78438 29.175 122.78438 30.08125L120.97188 30.08125Q120.97188 29.64375 120.70625 29.2375Q120.45625 28.815624 119.95625 28.55Q119.47188 28.26875 118.75313 28.26875Q118.00313 28.26875 117.53438 28.503124Q117.08125 28.7375 116.8625 29.096874Q116.65938 29.440624 116.65938 29.83125Q116.65938 30.1125 116.75313 30.346874Q116.8625 30.58125 117.12813 30.76875Q117.39375 30.95625 117.8625 31.128124Q118.34688 31.284374 119.08125 31.45625Q120.39375 31.753124 121.22188 32.159374Q122.06563 32.565624 122.47188 33.159374Q122.89375 33.753124 122.89375 34.6125Q122.89375 35.3 122.59688 35.878124Q122.31563 36.45625 121.76875 36.878124Q121.22188 37.284374 120.47188 37.51875Q119.7375 37.753124 118.8 37.753124Q117.40938 37.753124 116.44063 37.253124Q115.47188 36.753124 114.97188 35.95625Q114.47188 35.159374 114.47188 34.284374L116.3 34.284374Q116.33125 35.034374 116.72188 35.471874Q117.1125 35.89375 117.675 36.08125Q118.25313 36.253124 118.8 36.253124Q119.55 36.253124 120.05 36.065624Q120.55 35.8625 120.81563 35.534374Q121.08125 35.190624 121.08125 34.753124ZM129.34688 26.9875L129.34688 28.3625L123.64375 28.3625L123.64375 26.9875L129.34688 26.9875ZM125.56563 24.409374L127.37813 24.409374L127.37813 34.925Q127.37813 35.471874 127.53438 35.753124Q127.70625 36.01875 127.97188 36.1125Q128.2375 36.190624 128.53438 36.190624Q128.76875 36.190624 129.01875 36.14375Q129.26875 36.096874 129.39375 36.08125L129.39375 37.55Q129.19063 37.6125 128.83125 37.675Q128.4875 37.753124 128.00313 37.753124Q127.34688 37.753124 126.78438 37.4875Q126.22188 37.221874 125.89375 36.596874Q125.56563 35.971874 125.56563 34.925L125.56563 24.409374ZM136.8625 31.8625L136.8625 31.76875Q136.8625 29.64375 137.33125 27.925Q137.81563 26.190624 138.55 24.89375Q139.3 23.596874 140.1125 22.7375Q140.94063 21.878124 141.62813 21.503124L142.01875 22.690624Q141.44063 23.128124 140.84688 23.909374Q140.25313 24.675 139.75313 25.8Q139.26875 26.925 138.95625 28.409374Q138.65938 29.89375 138.65938 31.753124L138.65938 31.878124Q138.65938 33.7375 138.95625 35.2375Q139.26875 36.721874 139.75313 37.846874Q140.25313 38.9875 140.84688 39.784374Q141.44063 40.58125 142.01875 41.05L141.62813 42.14375Q140.94063 41.753124 140.1125 40.89375Q139.3 40.05 138.55 38.753124Q137.81563 37.45625 137.33125 35.7375Q136.8625 34.003124 136.8625 31.8625ZM149.12813 21.01875L149.12813 24.003124L147.675 24.003124L147.675 21.01875L149.12813 21.01875ZM148.95625 36.971874L148.95625 39.58125L147.50313 39.58125L147.50313 36.971874L148.95625 36.971874ZM150.90938 33.89375Q150.90938 33.3 150.64375 32.83125Q150.37813 32.3625 149.76875 31.971874Q149.175 31.58125 148.15938 31.253124Q146.925 30.8625 146.03438 30.315624Q145.14375 29.76875 144.65938 28.971874Q144.175 28.159374 144.175 27.003124Q144.175 25.8 144.69063 24.940624Q145.20625 24.065624 146.14375 23.596874Q147.09688 23.128124 148.37813 23.128124Q149.37813 23.128124 150.15938 23.425Q150.94063 23.721874 151.47188 24.315624Q152.01875 24.89375 152.3 25.753124Q152.59688 26.596874 152.59688 27.70625L150.8 27.70625Q150.8 27.05 150.64375 26.503124Q150.4875 25.95625 150.175 25.55Q149.8625 25.14375 149.40938 24.925Q148.97188 24.70625 148.37813 24.70625Q147.56563 24.70625 147.03438 24.9875Q146.50313 25.26875 146.2375 25.784374Q145.9875 26.3 145.9875 26.971874Q145.9875 27.596874 146.2375 28.065624Q146.50313 28.534374 147.1125 28.909374Q147.72188 29.284374 148.78438 29.64375Q150.05 30.05 150.925 30.596874Q151.81563 31.128124 152.26875 31.925Q152.72188 32.70625 152.72188 33.8625Q152.72188 35.128124 152.15938 36.003124Q151.59688 36.8625 150.56563 37.315624Q149.55 37.753124 148.15938 37.753124Q147.33125 37.753124 146.51875 37.534374Q145.72188 37.3 145.06563 36.8Q144.40938 36.284374 144.01875 35.440624Q143.62813 34.596874 143.62813 33.3625L145.44063 33.3625Q145.44063 34.190624 145.675 34.7375Q145.925 35.26875 146.31563 35.596874Q146.72188 35.909374 147.20625 36.05Q147.69063 36.175 148.15938 36.175Q149.05 36.175 149.65938 35.89375Q150.26875 35.6125 150.58125 35.096874Q150.90938 34.58125 150.90938 33.89375ZM161.22188 23.33125L155.28438 38.76875L153.7375 38.76875L159.675 23.33125L161.22188 23.33125ZM169.76875 26.9875L171.40938 26.9875L171.40938 37.33125Q171.40938 38.721874 170.84688 39.70625Q170.28438 40.690624 169.26875 41.20625Q168.25313 41.721874 166.94063 41.721874Q166.39375 41.721874 165.65938 41.55Q164.925 41.378124 164.20625 40.971874Q163.50313 40.565624 163.01875 39.878124L163.97188 38.815624Q164.64375 39.6125 165.3625 39.925Q166.09688 40.2375 166.8 40.2375Q167.65938 40.2375 168.28438 39.909374Q168.90938 39.596874 169.25313 38.95625Q169.6125 38.33125 169.6125 37.409374L169.6125 29.3L169.76875 26.9875ZM162.50313 32.378124L162.50313 32.175Q162.50313 30.971874 162.78438 29.9875Q163.08125 28.9875 163.6125 28.284374Q164.15938 27.565624 164.925 27.175Q165.70625 26.784374 166.675 26.784374Q167.65938 26.784374 168.40938 27.14375Q169.15938 27.4875 169.675 28.14375Q170.20625 28.8 170.50313 29.7375Q170.81563 30.659374 170.925 31.83125L170.925 32.721874Q170.81563 33.89375 170.50313 34.815624Q170.20625 35.7375 169.675 36.39375Q169.15938 37.05 168.40938 37.409374Q167.65938 37.753124 166.64375 37.753124Q165.70625 37.753124 164.94063 37.346874Q164.175 36.940624 163.62813 36.221874Q163.08125 35.503124 162.78438 34.51875Q162.50313 33.534374 162.50313 32.378124ZM164.3 32.175L164.3 32.378124Q164.3 33.175 164.45625 33.878124Q164.62813 34.565624 164.95625 35.096874Q165.3 35.6125 165.83125 35.909374Q166.3625 36.20625 167.08125 36.20625Q167.9875 36.20625 168.56563 35.83125Q169.15938 35.45625 169.50313 34.83125Q169.84688 34.20625 170.05 33.471874L170.05 31.1125Q169.94063 30.58125 169.72188 30.08125Q169.50313 29.565624 169.14375 29.175Q168.8 28.784374 168.28438 28.55Q167.78438 28.315624 167.1125 28.315624Q166.3625 28.315624 165.83125 28.628124Q165.3 28.925 164.95625 29.45625Q164.62813 29.9875 164.45625 30.690624Q164.3 31.39375 164.3 32.175ZM178.08125 31.76875L178.08125 31.8625Q178.08125 34.003124 177.59688 35.7375Q177.12813 37.45625 176.37813 38.753124Q175.64375 40.05 174.81563 40.89375Q174.00313 41.753124 173.31563 42.14375L172.925 41.05Q173.50313 40.6125 174.08125 39.815624Q174.675 39.034374 175.175 37.878124Q175.675 36.7375 175.97188 35.2375Q176.28438 33.7375 176.28438 31.878124L176.28438 31.753124Q176.28438 29.89375 175.95625 28.39375Q175.64375 26.89375 175.12813 25.753124Q174.6125 24.6125 174.03438 23.83125Q173.45625 23.034374 172.925 22.6125L173.31563 21.503124Q174.00313 21.878124 174.81563 22.7375Q175.64375 23.596874 176.37813 24.89375Q177.12813 26.190624 177.59688 27.925Q178.08125 29.64375 178.08125 31.76875Z" fill-rule="nonzero"/></svg>