<svg version="1.1" viewBox="0.0 0.0 600.0 371.0" fill="none" stroke="none" stroke-linecap="square" stroke-miterlimit="10" width="600" height="371" xmlns:xlink="http://www.w3.org/1999/xlink" xmlns="http://www.w3.org/2000/svg"><path fill="#ffffff" d="M0 0L600.0 0L600.0 371.0L0 371.0L0 0Z" fill-rule="nonzero"/><path stroke="#000000" stroke-width="1.0" stroke-linecap="butt" stroke-opacity="0.0" d="M551.5 88.5L551.5 326.5" fill-rule="nonzero"/><path stroke="#000000" stroke-width="1.0" stroke-linecap="butt" stroke-opacity="0.0" d="M521.5 88.5L521.5 326.5" fill-rule="nonzero"/><path stroke="#000000" stroke-width="1.0" stroke-linecap="butt" stroke-opacity="0.0" d="M462.5 88.5L462.5 326.5" fill-rule="nonzero"/><path stroke="#000000" stroke-width="1.0" stroke-linecap="butt" stroke-opacity="0.0" d="M432.5 88.5L432.5 326.5" fill-rule="nonzero"/><path stroke="#000000" stroke-width="1.0" stroke-linecap="butt" stroke-opacity="0.0" d="M373.5 88.5L373.5 326.5" fill-rule="nonzero"/><path stroke="#000000" stroke-width="1.0" stroke-linecap="butt" stroke-opacity="0.0" d="M343.5 88.5L343.5 326.5" fill-rule="nonzero"/><path stroke="#000000" stroke-width="1.0" stroke-linecap="butt" stroke-opacity="0.0" d="M283.5 88.5L283.5 326.5" fill-rule="nonzero"/><path stroke="#000000" stroke-width="1.0" stroke-linecap="butt" stroke-opacity="0.0" d="M253.5 88.5L253.5 326.5" fill-rule="nonzero"/><path stroke="#000000" stroke-width="1.0" stroke-linecap="butt" stroke-opacity="0.0" d="M194.5 88.5L194.5 326.5" fill-rule="nonzero"/><path stroke="#000000" stroke-width="1.0" stroke-linecap="butt" stroke-opacity="0.0" d="M164.5 88.5L164.5 326.5" fill-rule="nonzero"/><path stroke="#000000" stroke-width="1.0" stroke-linecap="butt" stroke-opacity="0.0" d="M105.5 88.5L105.5 326.5" fill-rule="nonzero"/><path stroke="#000000" stroke-width="1.0" stroke-linecap="butt" stroke-opacity="0.0" d="M75.5 88.5L75.5 326.5" fill-rule="nonzero"/><path stroke="#cccccc" stroke-width="1.0" stroke-linecap="butt" d="M45.5 326.5L581.5 326.5" fill-rule="nonzero"/><path stroke="#cccccc" stroke-width="1.0" stroke-linecap="butt" d="M45.5 247.5L581.5 247.5" fill-rule="nonzero"/><path stroke="#333333" stroke-width="1.0" stroke-linecap="butt" d="M45.5 167.5L581.5 167.5" fill-rule="nonzero"/><path stroke="#cccccc" stroke-width="1.0" stroke-linecap="butt" d="M45.5 88.5L581.5 88.5" fill-rule="nonzero"/><path stroke="#000000" stroke-width="1.0" stroke-linecap="butt" d="M581.5 326.5L45.5 326.5" fill-rule="nonzero"/><clipPath id="id_0"><path d="M45.55 88.28333L581.45 88.28333L581.45 326.45L45.55 326.45L45.55 88.28333Z" clip-rule="nonzero"/></clipPath><path stroke="#4285f4" stroke-width="2.0" stroke-linecap="butt" stroke-opacity="0.4" clip-path="url(#id_0)" d="M0 281.97476C0 281.97476 2.6666667 279.54956 4.0 278.34863C5.3333335 277.1477 6.6666665 275.95456 8.0 274.7692C9.333333 273.58383 10.666667 272.40622 12.0 271.23642C13.333333 270.06662 14.666667 268.90457 16.0 267.75034C17.333334 266.59607 18.666666 265.44962 20.0 264.3109C21.333334 263.17224 22.666666 262.04132 24.0 260.9182C25.333334 259.79507 26.666666 258.67972 28.0 257.57217C29.333334 256.4646 30.666666 255.3648 32.0 254.27281C33.333332 253.1808 34.666668 252.09657 36.0 251.02013C37.333332 249.94368 38.666668 248.87502 40.0 247.81413C41.333332 246.75325 42.666668 245.70015 44.0 244.65483C45.333332 243.60951 46.666668 242.57196 48.0 241.5422C49.333332 240.51244 50.666668 239.49046 52.0 238.47626C53.333332 237.46207 54.666668 236.45564 56.0 235.457C57.333332 234.45836 58.666668 233.4675 60.0 232.48442C61.333332 231.50134 62.666668 230.52605 64.0 229.55853C65.333336 228.59102 66.666664 227.63127 68.0 226.67932C69.333336 225.72736 70.666664 224.78319 72.0 223.84679C73.333336 222.91039 74.666664 221.98178 76.0 221.06094C77.333336 220.1401 78.666664 219.22705 80.0 218.32178C81.333336 217.4165 82.666664 216.51901 84.0 215.6293C85.333336 214.73958 86.666664 213.85765 88.0 212.98349C89.333336 212.10934 90.666664 211.24298 92.0 210.38438C93.333336 209.52579 94.666664 208.67497 96.0 207.83195C97.333336 206.98892 98.666664 206.15367 100.0 205.3262C101.333336 204.49873 102.666664 203.67905 104.0 202.86713C105.333336 202.05522 106.666664 201.2511 108.0 200.45474C109.333336 199.6584 110.666664 198.86983 112.0 198.08905C113.333336 197.30826 114.666664 196.53525 116.0 195.77002C117.333336 195.0048 118.666664 194.24736 120.0 193.4977C121.333336 192.74803 122.666664 192.00613 124.0 191.27203C125.333336 190.53793 126.666664 189.81161 128.0 189.09306C129.33333 188.37453 130.66667 187.66376 132.0 186.96077C133.33333 186.2578 134.66667 185.56259 136.0 184.87517C137.33333 184.18774 138.66667 183.5081 140.0 182.83624C141.33333 182.16438 142.66667 181.5003 144.0 180.84401C145.33333 180.18771 146.66667 179.53918 148.0 178.89845C149.33333 178.2577 150.66667 177.62476 152.0 176.99957C153.33333 176.3744 154.66667 175.757 156.0 175.14738C157.33333 174.53777 158.66667 173.93593 160.0 173.34187C161.33333 172.74782 162.66667 172.16154 164.0 171.58305C165.33333 171.00456 166.66667 170.43384 168.0 169.87091C169.33333 169.30797 170.66667 168.75282 172.0 168.20544C173.33333 167.65807 174.66667 167.11848 176.0 166.58667C177.33333 166.05486 178.66667 165.53082 180.0 165.01457C181.33333 164.49832 182.66667 163.98985 184.0 163.48917C185.33333 162.98846 186.66667 162.49556 188.0 162.01044C189.33333 161.5253 190.66667 161.04796 192.0 160.57838C193.33333 160.10881 194.66667 159.64703 196.0 159.19302C197.33333 158.73901 198.66667 158.29279 200.0 157.85434C201.33333 157.4159 202.66667 156.98523 204.0 156.56235C205.33333 156.13945 206.66667 155.72435 208.0 155.31702C209.33333 154.9097 210.66667 154.51016 212.0 154.1184C213.33333 153.72662 214.66667 153.34264 216.0 152.96645C217.33333 152.59024 218.66667 152.22182 220.0 151.86118C221.33333 151.50053 222.66667 151.14767 224.0 150.80258C225.33333 150.4575 226.66667 150.12021 228.0 149.79068C229.33333 149.46117 230.66667 149.13942 232.0 148.82547C233.33333 148.5115 234.66667 148.20532 236.0 147.90694C237.33333 147.60854 238.66667 147.31792 240.0 147.03508C241.33333 146.75224 242.66667 146.47719 244.0 146.2099C245.33333 145.94263 246.66667 145.68314 248.0 145.43141C249.33333 145.1797 250.66667 144.93576 252.0 144.69962C253.33333 144.46346 254.66667 144.23508 256.0 144.01448C257.33334 143.7939 258.66666 143.58109 260.0 143.37605C261.33334 143.17102 262.66666 142.97375 264.0 142.78429C265.33334 142.59482 266.66666 142.41313 268.0 142.23921C269.33334 142.0653 270.66666 141.89917 272.0 141.74083C273.33334 141.58247 274.66666 141.4319 276.0 141.28911C277.33334 141.14633 278.66666 141.01132 280.0 140.8841C281.33334 140.75687 282.66666 140.6374 284.0 140.52574C285.33334 140.41408 286.66666 140.3102 288.0 140.21408C289.33334 140.11798 290.66666 140.02965 292.0 139.9491C293.33334 139.86856 294.66666 139.79579 296.0 139.7308C297.33334 139.66582 298.66666 139.60863 300.0 139.55919C301.33334 139.50977 302.66666 139.46812 304.0 139.43427C305.33334 139.4004 306.66666 139.37431 308.0 139.35602C309.33334 139.33772 310.66666 139.3272 312.0 139.32445C313.33334 139.32172 314.66666 139.32675 316.0 139.33957C317.33334 139.35239 318.66666 139.37299 320.0 139.40137C321.33334 139.42975 322.66666 139.46591 324.0 139.50986C325.33334 139.5538 326.66666 139.60551 328.0 139.66502C329.33334 139.72453 330.66666 139.79181 332.0 139.86687C333.33334 139.94194 334.66666 140.02478 336.0 140.1154C337.33334 140.20602 338.66666 140.30443 340.0 140.41061C341.33334 140.5168 342.66666 140.63077 344.0 140.75252C345.33334 140.87427 346.66666 141.00378 348.0 141.1411C349.33334 141.27841 350.66666 141.4235 352.0 141.57635C353.33334 141.72923 354.66666 141.88988 356.0 142.0583C357.33334 142.22673 358.66666 142.40294 360.0 142.58693C361.33334 142.77092 362.66666 142.96269 364.0 143.16225C365.33334 143.3618 366.66666 143.56912 368.0 143.78424C369.33334 143.99936 370.66666 144.22224 372.0 144.45291C373.33334 144.6836 374.66666 144.92204 376.0 145.16827C377.33334 145.4145 378.66666 145.66852 380.0 145.93031C381.33334 146.19211 382.66666 146.46169 384.0 146.73904C385.33334 147.0164 386.66666 147.30153 388.0 147.59445C389.33334 147.88737 390.66666 148.18806 392.0 148.49654C393.33334 148.80502 394.66666 149.12128 396.0 149.44531C397.33334 149.76935 398.66666 150.10117 400.0 150.44077C401.33334 150.78036 402.66666 151.12775 404.0 151.48291C405.33334 151.83807 406.66666 152.201 408.0 152.57173C409.33334 152.94246 410.66666 153.32095 412.0 153.70723C413.33334 154.09352 414.66666 154.48758 416.0 154.88942C417.33334 155.29126 418.66666 155.70088 420.0 156.11829C421.33334 156.53569 422.66666 156.96088 424.0 157.39384C425.33334 157.82681 426.66666 158.26755 428.0 158.71608C429.33334 159.16461 430.66666 159.62091 432.0 160.08499C433.33334 160.54909 434.66666 161.02095 436.0 161.5006C437.33334 161.98024 438.66666 162.46767 440.0 162.96288C441.33334 163.45808 442.66666 163.96107 444.0 164.47185C445.33334 164.98262 446.66666 165.50116 448.0 166.0275C449.33334 166.55383 450.66666 167.08794 452.0 167.62982C453.33334 168.17172 454.66666 168.72139 456.0 169.27884C457.33334 169.83629 458.66666 170.40154 460.0 170.97453C461.33334 171.54755 462.66666 172.12834 464.0 172.71692C465.33334 173.3055 466.66666 173.90186 468.0 174.50598C469.33334 175.11012 470.66666 175.72203 472.0 176.34174C473.33334 176.96143 474.66666 177.5889 476.0 178.22415C477.33334 178.85942 478.66666 179.50246 480.0 180.15327C481.33334 180.8041 482.66666 181.46268 484.0 182.12906C485.33334 182.79544 486.66666 183.4696 488.0 184.15154C489.33334 184.83348 490.66666 185.5232 492.0 186.2207C493.33334 186.9182 494.66666 187.62347 496.0 188.33653C497.33334 189.0496 498.66666 189.77045 500.0 190.49907C501.33334 191.22769 502.66666 191.96408 504.0 192.70827C505.33334 193.45245 506.66666 194.20442 508.0 194.96416C509.33334 195.7239 510.66666 196.49142 512.0 197.26674C513.3333 198.04204 514.6667 198.82512 516.0 199.616C517.3333 200.40686 518.6667 201.2055 520.0 202.01193C521.3333 202.81836 522.6667 203.63257 524.0 204.45454C525.3333 205.27654 526.6667 206.10631 528.0 206.94385C529.3333 207.7814 530.6667 208.62672 532.0 209.47984C533.3333 210.33295 534.6667 211.19383 536.0 212.06252C537.3333 212.93118 538.6667 213.80763 540.0 214.69186C541.3333 215.5761 542.6667 216.46811 544.0 217.36789C545.3333 218.26768 546.6667 219.17526 548.0 220.0906C549.3333 221.00597 550.6667 221.92911 552.0 222.86002C553.3333 223.79092 554.6667 224.72963 556.0 225.6761C557.3333 226.62257 558.6667 227.57683 560.0 228.53886C561.3333 229.5009 562.6667 230.47072 564.0 231.44832C565.3333 232.4259 566.6667 233.41129 568.0 234.40445C569.3333 235.3976 570.6667 236.39854 572.0 237.40726C573.3333 238.41597 574.6667 239.43248 576.0 240.45676C577.3333 241.48103 580.0 243.55293 580.0 243.55293" fill-rule="nonzero"/><path fill="#4285f4" clip-path="url(#id_0)" d="M563.62085 296.5596C563.62085 299.04486 561.60614 301.0596 559.12085 301.0596C556.63556 301.0596 554.62085 299.04486 554.62085 296.5596C554.62085 294.0743 556.63556 292.0596 559.12085 292.0596C561.60614 292.0596 563.62085 294.0743 563.62085 296.5596Z" fill-rule="nonzero"/><path fill="#4285f4" clip-path="url(#id_0)" d="M559.155 173.65704C559.155 176.14232 557.14026 178.15704 554.655 178.15704C552.16974 178.15704 550.155 176.14232 550.155 173.65704C550.155 171.17175 552.16974 169.15704 554.655 169.15704C557.14026 169.15704 559.155 171.17175 559.155 173.65704Z" fill-rule="nonzero"/><path fill="#4285f4" clip-path="url(#id_0)" d="M514.49664 237.1478C514.49664 239.63309 512.48193 241.6478 509.99667 241.6478C507.51138 241.6478 505.49667 239.63309 505.49667 237.1478C505.49667 234.66252 507.51138 232.6478 509.99667 232.6478C512.48193 232.6478 514.49664 234.66252 514.49664 237.1478Z" fill-rule="nonzero"/><path fill="#4285f4" clip-path="url(#id_0)" d="M469.83835 133.98445C469.83835 136.46974 467.8236 138.48445 465.33835 138.48445C462.85306 138.48445 460.83835 136.46974 460.83835 133.98445C460.83835 131.49918 462.85306 129.48445 465.33835 129.48445C467.8236 129.48445 469.83835 131.49918 469.83835 133.98445Z" fill-rule="nonzero"/><path fill="#4285f4" clip-path="url(#id_0)" d="M451.975 109.195145C451.975 111.68043 449.9603 113.695145 447.475 113.695145C444.98972 113.695145 442.975 111.68043 442.975 109.195145C442.975 106.70986 444.98972 104.695145 447.475 104.695145C449.9603 104.695145 451.975 106.70986 451.975 109.195145Z" fill-rule="nonzero"/><path fill="#4285f4" clip-path="url(#id_0)" d="M367.12418 152.65536C367.12418 155.14066 365.10944 157.15536 362.62418 157.15536C360.1389 157.15536 358.12418 155.14066 358.12418 152.65536C358.12418 150.17009 360.1389 148.15536 362.62418 148.15536C365.10944 148.15536 367.12418 150.17009 367.12418 152.65536Z" fill-rule="nonzero"/><path fill="#4285f4" clip-path="url(#id_0)" d="M353.72665 127.67183C353.72665 130.1571 351.71194 132.17183 349.22665 132.17183C346.7414 132.17183 344.72665 130.1571 344.72665 127.67183C344.72665 125.18655 346.7414 123.17183 349.22665 123.17183C351.71194 123.17183 353.72665 125.18655 353.72665 127.67183Z" fill-rule="nonzero"/><path fill="#4285f4" clip-path="url(#id_0)" d="M331.3975 130.5368C331.3975 133.0221 329.38278 135.0368 326.8975 135.0368C324.41223 135.0368 322.3975 133.0221 322.3975 130.5368C322.3975 128.05153 324.41223 126.03681 326.8975 126.03681C329.38278 126.03681 331.3975 128.05153 331.3975 130.5368Z" fill-rule="nonzero"/><path fill="#4285f4" clip-path="url(#id_0)" d="M326.93167 141.14693C326.93167 143.6322 324.91696 145.64693 322.43167 145.64693C319.94638 145.64693 317.93167 143.6322 317.93167 141.14693C317.93167 138.66165 319.94638 136.64693 322.43167 136.64693C324.91696 136.64693 326.93167 138.66165 326.93167 141.14693Z" fill-rule="nonzero"/><path fill="#4285f4" clip-path="url(#id_0)" d="M318.0 149.11058C318.0 151.59587 315.9853 153.61058 313.5 153.61058C311.0147 153.61058 309.0 151.59587 309.0 149.11058C309.0 146.6253 311.0147 144.61058 313.5 144.61058C315.9853 144.61058 318.0 146.6253 318.0 149.11058Z" fill-rule="nonzero"/><path fill="#4285f4" clip-path="url(#id_0)" d="M286.73917 177.9303C286.73917 180.41557 284.72446 182.4303 282.23917 182.4303C279.75388 182.4303 277.73917 180.41557 277.73917 177.9303C277.73917 175.445 279.75388 173.4303 282.23917 173.4303C284.72446 173.4303 286.73917 175.445 286.73917 177.9303Z" fill-rule="nonzero"/><path fill="#4285f4" clip-path="url(#id_0)" d="M206.35417 168.16998C206.35417 170.65526 204.33945 172.66998 201.85417 172.66998C199.36888 172.66998 197.35417 170.65526 197.35417 168.16998C197.35417 165.6847 199.36888 163.66998 201.85417 163.66998C204.33945 163.66998 206.35417 165.6847 206.35417 168.16998Z" fill-rule="nonzero"/><path fill="#4285f4" clip-path="url(#id_0)" d="M184.025 172.92876C184.025 175.41403 182.01028 177.42876 179.525 177.42876C177.03972 177.42876 175.025 175.41403 175.025 172.92876C175.025 170.44348 177.03972 168.42876 179.525 168.42876C182.01028 168.42876 184.025 170.44348 184.025 172.92876Z" fill-rule="nonzero"/><path fill="#4285f4" clip-path="url(#id_0)" d="M170.6275 167.83008C170.6275 170.31535 168.61278 172.33008 166.1275 172.33008C163.64221 172.33008 161.6275 170.31535 161.6275 167.83008C161.6275 165.3448 163.64221 163.33008 166.1275 163.33008C168.61278 163.33008 170.6275 165.3448 170.6275 167.83008Z" fill-rule="nonzero"/><path fill="#4285f4" clip-path="url(#id_0)" d="M143.8325 208.76523C143.8325 211.2505 141.81778 213.26523 139.3325 213.26523C136.84721 213.26523 134.8325 211.2505 134.8325 208.76523C134.8325 206.27994 136.84721 204.26523 139.3325 204.26523C141.81778 204.26523 143.8325 206.27994 143.8325 208.76523Z" fill-rule="nonzero"/><path fill="#4285f4" clip-path="url(#id_0)" d="M139.36667 183.3932C139.36667 185.8785 137.35194 187.8932 134.86667 187.8932C132.38138 187.8932 130.36667 185.8785 130.36667 183.3932C130.36667 180.90793 132.38138 178.8932 134.86667 178.8932C137.35194 178.8932 139.36667 180.90793 139.36667 183.3932Z" fill-rule="nonzero"/><path fill="#4285f4" clip-path="url(#id_0)" d="M130.435 180.941C130.435 183.42627 128.42029 185.441 125.935 185.441C123.44972 185.441 121.435 183.42627 121.435 180.941C121.435 178.4557 123.44972 176.441 125.935 176.441C128.42029 176.441 130.435 178.4557 130.435 180.941Z" fill-rule="nonzero"/><path fill="#4285f4" clip-path="url(#id_0)" d="M112.57166 192.13382C112.57166 194.6191 110.556946 196.63382 108.07166 196.63382C105.58639 196.63382 103.57166 194.6191 103.57166 192.13382C103.57166 189.64853 105.58639 187.63382 108.07166 187.63382C110.556946 187.63382 112.57166 189.64853 112.57166 192.13382Z" fill-rule="nonzero"/><path fill="#4285f4" clip-path="url(#id_0)" d="M108.105835 189.48735C108.105835 191.97264 106.09112 193.98735 103.605835 193.98735C101.12055 193.98735 99.105835 191.97264 99.105835 189.48735C99.105835 187.00208 101.12055 184.98735 103.605835 184.98735C106.09112 184.98735 108.105835 187.00208 108.105835 189.48735Z" fill-rule="nonzero"/><path fill="#4285f4" clip-path="url(#id_0)" d="M85.776665 209.3965C85.776665 211.88179 83.76195 213.8965 81.276665 213.8965C78.79138 213.8965 76.776665 211.88179 76.776665 209.3965C76.776665 206.91122 78.79138 204.8965 81.276665 204.8965C83.76195 204.8965 85.776665 206.91122 85.776665 209.3965Z" fill-rule="nonzero"/><path fill="#4285f4" clip-path="url(#id_0)" d="M81.31084 199.17487C81.31084 201.66014 79.29611 203.67487 76.81084 203.67487C74.325554 203.67487 72.31084 201.66014 72.31084 199.17487C72.31084 196.68958 74.325554 194.67487 76.81084 194.67487C79.29611 194.67487 81.31084 196.68958 81.31084 199.17487Z" fill-rule="nonzero"/><path fill="#4285f4" clip-path="url(#id_0)" d="M76.845 222.09467C76.845 224.57994 74.830284 226.59467 72.345 226.59467C69.85972 226.59467 67.845 224.57994 67.845 222.09467C67.845 219.60938 69.85972 217.59467 72.345 217.59467C74.830284 217.59467 76.845 219.60938 76.845 222.09467Z" fill-rule="nonzero"/><path fill="#4285f4" clip-path="url(#id_0)" d="M72.379166 303.72214C72.379166 306.20743 70.36445 308.22214 67.879166 308.22214C65.39388 308.22214 63.379166 306.20743 63.379166 303.72214C63.379166 301.23688 65.39388 299.22214 67.879166 299.22214C70.36445 299.22214 72.379166 301.23688 72.379166 303.72214Z" fill-rule="nonzero"/><path fill="#4285f4" clip-path="url(#id_0)" d="M67.91333 208.27966C67.91333 210.76494 65.89861 212.77966 63.413334 212.77966C60.92805 212.77966 58.913334 210.76494 58.913334 208.27966C58.913334 205.79437 60.92805 203.77966 63.413334 203.77966C65.89861 203.77966 67.91333 205.79437 67.91333 208.27966Z" fill-rule="nonzero"/><path fill="#4285f4" clip-path="url(#id_0)" d="M63.4475 239.72154C63.4475 242.20682 61.43278 244.22154 58.9475 244.22154C56.46222 244.22154 54.4475 242.20682 54.4475 239.72154C54.4475 237.23625 56.46222 235.22154 58.9475 235.22154C61.43278 235.22154 63.4475 237.23625 63.4475 239.72154Z" fill-rule="nonzero"/><path fill="#4285f4" clip-path="url(#id_0)" d="M58.981667 199.19914C58.981667 201.68443 56.96695 203.69914 54.481667 203.69914C51.996384 203.69914 49.981667 201.68443 49.981667 199.19914C49.981667 196.71387 51.996384 194.69914 54.481667 194.69914C56.96695 194.69914 58.981667 196.71387 58.981667 199.19914Z" fill-rule="nonzero"/><path stroke="#000000" stroke-width="1.0" stroke-linecap="butt" d="M551.5 329.5L551.5 323.5" fill-rule="nonzero"/><path stroke="#000000" stroke-width="1.0" stroke-linecap="butt" d="M521.5 329.5L521.5 323.5" fill-rule="nonzero"/><path stroke="#000000" stroke-width="1.0" stroke-linecap="butt" d="M462.5 329.5L462.5 323.5" fill-rule="nonzero"/><path stroke="#000000" stroke-width="1.0" stroke-linecap="butt" d="M432.5 329.5L432.5 323.5" fill-rule="nonzero"/><path stroke="#000000" stroke-width="1.0" stroke-linecap="butt" d="M373.5 329.5L373.5 323.5" fill-rule="nonzero"/><path stroke="#000000" stroke-width="1.0" stroke-linecap="butt" d="M343.5 329.5L343.5 323.5" fill-rule="nonzero"/><path stroke="#000000" stroke-width="1.0" stroke-linecap="butt" d="M283.5 329.5L283.5 323.5" fill-rule="nonzero"/><path stroke="#000000" stroke-width="1.0" stroke-linecap="butt" d="M253.5 329.5L253.5 323.5" fill-rule="nonzero"/><path stroke="#000000" stroke-width="1.0" stroke-linecap="butt" d="M194.5 329.5L194.5 323.5" fill-rule="nonzero"/><path stroke="#000000" stroke-width="1.0" stroke-linecap="butt" d="M164.5 329.5L164.5 323.5" fill-rule="nonzero"/><path stroke="#000000" stroke-width="1.0" stroke-linecap="butt" d="M105.5 329.5L105.5 323.5" fill-rule="nonzero"/><path stroke="#000000" stroke-width="1.0" stroke-linecap="butt" d="M75.5 329.5L75.5 323.5" fill-rule="nonzero"/><path stroke="#000000" stroke-width="1.0" stroke-linecap="butt" d="M581.5 332.5L581.5 320.5" fill-rule="nonzero"/><path stroke="#000000" stroke-width="1.0" stroke-linecap="butt" d="M492.5 332.5L492.5 320.5" fill-rule="nonzero"/><path stroke="#000000" stroke-width="1.0" stroke-linecap="butt" d="M402.5 332.5L402.5 320.5" fill-rule="nonzero"/><path stroke="#000000" stroke-width="1.0" stroke-linecap="butt" d="M313.5 332.5L313.5 320.5" fill-rule="nonzero"/><path stroke="#000000" stroke-width="1.0" stroke-linecap="butt" d="M224.5 332.5L224.5 320.5" fill-rule="nonzero"/><path stroke="#000000" stroke-width="1.0" stroke-linecap="butt" d="M134.5 332.5L134.5 320.5" fill-rule="nonzero"/><path stroke="#000000" stroke-width="1.0" stroke-linecap="butt" d="M45.5 332.5L45.5 320.5" fill-rule="nonzero"/><path fill="#000000" d="M28.925 327.8719L28.925 326.8094L32.175 326.8094L32.175 327.8719L28.925 327.8719ZM36.425 330.45L36.425 328.3875L32.70625 328.3875L32.70625 327.41876L36.628124 321.85626L37.4875 321.85626L37.4875 327.41876L38.64375 327.41876L38.64375 328.3875L37.4875 328.3875L37.4875 330.45L36.425 330.45ZM36.425 327.41876L36.425 323.5594L33.7375 327.41876L36.425 327.41876Z" fill-rule="nonzero"/><path fill="#000000" d="M28.925 248.48299L28.925 247.42049L32.175 247.42049L32.175 248.48299L28.925 248.48299ZM38.596874 250.04549L38.596874 251.06111L32.909374 251.06111Q32.909374 250.68611 33.034374 250.32674Q33.253124 249.74861 33.721874 249.18611Q34.20625 248.62361 35.1125 247.88924Q36.51875 246.73299 37.003124 246.06111Q37.503124 245.38924 37.503124 244.79549Q37.503124 244.17049 37.05 243.74861Q36.596874 243.31111 35.878124 243.31111Q35.1125 243.31111 34.659374 243.76424Q34.20625 244.21736 34.190624 245.02986L33.1125 244.92049Q33.221874 243.70174 33.940624 243.07674Q34.675 242.43611 35.909374 242.43611Q37.14375 242.43611 37.8625 243.12361Q38.58125 243.81111 38.58125 244.82674Q38.58125 245.34236 38.3625 245.84236Q38.159374 246.32674 37.659374 246.88924Q37.175 247.43611 36.05 248.38924Q35.096874 249.18611 34.815624 249.48299Q34.55 249.76424 34.378124 250.04549L38.596874 250.04549Z" fill-rule="nonzero"/><path fill="#000000" d="M33.05 167.43785Q33.05 165.9066 33.3625 164.98473Q33.675 164.04723 34.284374 163.54723Q34.909374 163.04723 35.846874 163.04723Q36.534374 163.04723 37.05 163.32848Q37.58125 163.60973 37.925 164.14098Q38.26875 164.6566 38.45625 165.4066Q38.64375 166.1566 38.64375 167.43785Q38.64375 168.95348 38.33125 169.87535Q38.034374 170.79723 37.409374 171.31285Q36.8 171.81285 35.846874 171.81285Q34.6125 171.81285 33.89375 170.92223Q33.05 169.85973 33.05 167.43785ZM34.128124 167.43785Q34.128124 169.54723 34.628124 170.25035Q35.128124 170.95348 35.846874 170.95348Q36.58125 170.95348 37.065624 170.25035Q37.565624 169.54723 37.565624 167.43785Q37.565624 165.31285 37.065624 164.62535Q36.58125 163.92223 35.83125 163.92223Q35.1125 163.92223 34.675 164.5316Q34.128124 165.31285 34.128124 167.43785Z" fill-rule="nonzero"/><path fill="#000000" d="M38.596874 91.26771L38.596874 92.28333L32.909374 92.28333Q32.909374 91.90833 33.034374 91.54896Q33.253124 90.97083 33.721874 90.40833Q34.20625 89.84583 35.1125 89.11146Q36.51875 87.95521 37.003124 87.28333Q37.503124 86.61146 37.503124 86.01771Q37.503124 85.39271 37.05 84.97083Q36.596874 84.53333 35.878124 84.53333Q35.1125 84.53333 34.659374 84.98646Q34.20625 85.43958 34.190624 86.25208L33.1125 86.14271Q33.221874 84.92396 33.940624 84.29896Q34.675 83.65833 35.909374 83.65833Q37.14375 83.65833 37.8625 84.34583Q38.58125 85.03333 38.58125 86.04896Q38.58125 86.56458 38.3625 87.06458Q38.159374 87.54896 37.659374 88.11146Q37.175 88.65833 36.05 89.61146Q35.096874 90.40833 34.815624 90.70521Q34.55 90.98646 34.378124 91.26771L38.596874 91.26771Z" fill-rule="nonzero"/><path fill="#000000" d="M578.45 345.21564Q578.45 343.6844 578.7625 342.7625Q579.075 341.825 579.6844 341.325Q580.3094 340.825 581.2469 340.825Q581.9344 340.825 582.45 341.10626Q582.98126 341.3875 583.325 341.91876Q583.66876 342.4344 583.85626 343.1844Q584.04376 343.9344 584.04376 345.21564Q584.04376 346.73126 583.73126 347.65314Q583.4344 348.575 582.8094 349.09064Q582.2 349.59064 581.2469 349.59064Q580.0125 349.59064 579.29376 348.7Q578.45 347.6375 578.45 345.21564ZM579.52814 345.21564Q579.52814 347.325 580.02814 348.02814Q580.52814 348.73126 581.2469 348.73126Q581.98126 348.73126 582.46564 348.02814Q582.96564 347.325 582.96564 345.21564Q582.96564 343.09064 582.46564 342.40314Q581.98126 341.7 581.23126 341.7Q580.5125 341.7 580.075 342.3094Q579.52814 343.09064 579.52814 345.21564Z" fill-rule="nonzero"/><path fill="#000000" d="M491.1802 348.4344L491.1802 349.45L485.4927 349.45Q485.4927 349.075 485.6177 348.71564Q485.83646 348.1375 486.3052 347.575Q486.78958 347.0125 487.69583 346.27814Q489.10208 345.1219 489.58646 344.45Q490.08646 343.77814 490.08646 343.1844Q490.08646 342.5594 489.63333 342.1375Q489.1802 341.7 488.46146 341.7Q487.69583 341.7 487.2427 342.15314Q486.78958 342.60626 486.77396 343.41876L485.69583 343.3094Q485.8052 342.09064 486.52396 341.46564Q487.25833 340.825 488.4927 340.825Q489.72708 340.825 490.44583 341.5125Q491.16458 342.2 491.16458 343.21564Q491.16458 343.73126 490.94583 344.23126Q490.7427 344.71564 490.2427 345.27814Q489.75833 345.825 488.63333 346.77814Q487.6802 347.575 487.39896 347.8719Q487.13333 348.15314 486.96146 348.4344L491.1802 348.4344ZM492.63333 345.21564Q492.63333 343.6844 492.94583 342.7625Q493.25833 341.825 493.8677 341.325Q494.4927 340.825 495.4302 340.825Q496.1177 340.825 496.63333 341.10626Q497.16458 341.3875 497.50833 341.91876Q497.85208 342.4344 498.03958 343.1844Q498.22708 343.9344 498.22708 345.21564Q498.22708 346.73126 497.91458 347.65314Q497.6177 348.575 496.9927 349.09064Q496.38333 349.59064 495.4302 349.59064Q494.19583 349.59064 493.47708 348.7Q492.63333 347.6375 492.63333 345.21564ZM493.71146 345.21564Q493.71146 347.325 494.21146 348.02814Q494.71146 348.73126 495.4302 348.73126Q496.16458 348.73126 496.64896 348.02814Q497.14896 347.325 497.14896 345.21564Q497.14896 343.09064 496.64896 342.40314Q496.16458 341.7 495.41458 341.7Q494.69583 341.7 494.25833 342.3094Q493.71146 343.09064 493.71146 345.21564Z" fill-rule="nonzero"/><path fill="#000000" d="M399.69168 349.45L399.69168 347.3875L395.97293 347.3875L395.97293 346.41876L399.8948 340.85626L400.75418 340.85626L400.75418 346.41876L401.91043 346.41876L401.91043 347.3875L400.75418 347.3875L400.75418 349.45L399.69168 349.45ZM399.69168 346.41876L399.69168 342.5594L397.00418 346.41876L399.69168 346.41876ZM403.31668 345.21564Q403.31668 343.6844 403.62918 342.7625Q403.94168 341.825 404.55106 341.325Q405.17606 340.825 406.11356 340.825Q406.80106 340.825 407.31668 341.10626Q407.84793 341.3875 408.19168 341.91876Q408.53543 342.4344 408.72293 343.1844Q408.91043 343.9344 408.91043 345.21564Q408.91043 346.73126 408.59793 347.65314Q408.30106 348.575 407.67606 349.09064Q407.06668 349.59064 406.11356 349.59064Q404.87918 349.59064 404.16043 348.7Q403.31668 347.6375 403.31668 345.21564ZM404.3948 345.21564Q404.3948 347.325 404.8948 348.02814Q405.3948 348.73126 406.11356 348.73126Q406.84793 348.73126 407.3323 348.02814Q407.8323 347.325 407.8323 345.21564Q407.8323 343.09064 407.3323 342.40314Q406.84793 341.7 406.09793 341.7Q405.37918 341.7 404.94168 342.3094Q404.3948 343.09064 404.3948 345.21564Z" fill-rule="nonzero"/><path fill="#000000" d="M312.46875 342.96564L311.42188 343.04376Q311.28125 342.41876 311.03125 342.1375Q310.59375 341.6844 309.96875 341.6844Q309.46875 341.6844 309.07812 341.96564Q308.59375 342.34064 308.29688 343.04376Q308.01562 343.73126 308.0 345.0125Q308.375 344.4344 308.92188 344.15314Q309.48438 343.8719 310.09375 343.8719Q311.14062 343.8719 311.875 344.65314Q312.625 345.4344 312.625 346.65314Q312.625 347.46564 312.26562 348.16876Q311.92188 348.85626 311.3125 349.23126Q310.70312 349.59064 309.9375 349.59064Q308.60938 349.59064 307.78125 348.6219Q306.95312 347.65314 306.95312 345.4344Q306.95312 342.9344 307.875 341.8094Q308.67188 340.825 310.03125 340.825Q311.04688 340.825 311.6875 341.40314Q312.34375 341.96564 312.46875 342.96564ZM308.17188 346.66876Q308.17188 347.21564 308.39062 347.71564Q308.625 348.2 309.03125 348.46564Q309.45312 348.73126 309.92188 348.73126Q310.57812 348.73126 311.0625 348.2Q311.54688 347.65314 311.54688 346.73126Q311.54688 345.84064 311.0625 345.325Q310.59375 344.8094 309.875 344.8094Q309.15625 344.8094 308.65625 345.325Q308.17188 345.84064 308.17188 346.66876ZM314.0 345.21564Q314.0 343.6844 314.3125 342.7625Q314.625 341.825 315.23438 341.325Q315.85938 340.825 316.79688 340.825Q317.48438 340.825 318.0 341.10626Q318.53125 341.3875 318.875 341.91876Q319.21875 342.4344 319.40625 343.1844Q319.59375 343.9344 319.59375 345.21564Q319.59375 346.73126 319.28125 347.65314Q318.98438 348.575 318.35938 349.09064Q317.75 349.59064 316.79688 349.59064Q315.5625 349.59064 314.84375 348.7Q314.0 347.6375 314.0 345.21564ZM315.07812 345.21564Q315.07812 347.325 315.57812 348.02814Q316.07812 348.73126 316.79688 348.73126Q317.53125 348.73126 318.01562 348.02814Q318.51562 347.325 318.51562 345.21564Q318.51562 343.09064 318.01562 342.40314Q317.53125 341.7 316.78125 341.7Q316.0625 341.7 315.625 342.3094Q315.07812 343.09064 315.07812 345.21564Z" fill-rule="nonzero"/><path fill="#000000" d="M219.30833 344.79376Q218.65208 344.54376 218.32396 344.10626Q218.01146 343.65314 218.01146 343.04376Q218.01146 342.10626 218.68333 341.46564Q219.37083 340.825 220.48021 340.825Q221.60521 340.825 222.29271 341.48126Q222.98021 342.1375 222.98021 343.075Q222.98021 343.66876 222.66771 344.10626Q222.35521 344.54376 221.71458 344.79376Q222.51146 345.04376 222.91771 345.6219Q223.32396 346.2 223.32396 346.9969Q223.32396 348.09064 222.54271 348.84064Q221.77708 349.59064 220.49583 349.59064Q219.23021 349.59064 218.44896 348.84064Q217.66771 348.09064 217.66771 346.96564Q217.66771 346.1219 218.08958 345.5594Q218.52708 344.9969 219.30833 344.79376ZM219.08958 342.9969Q219.08958 343.60626 219.48021 343.9969Q219.88646 344.3875 220.51146 344.3875Q221.12083 344.3875 221.51146 344.0125Q221.90208 343.6219 221.90208 343.0594Q221.90208 342.48126 221.49583 342.09064Q221.08958 341.6844 220.49583 341.6844Q219.88646 341.6844 219.48021 342.075Q219.08958 342.46564 219.08958 342.9969ZM218.76146 346.96564Q218.76146 347.41876 218.96458 347.84064Q219.18333 348.2625 219.60521 348.4969Q220.02708 348.73126 220.51146 348.73126Q221.26146 348.73126 221.74583 348.2469Q222.24583 347.7625 222.24583 347.0125Q222.24583 346.2469 221.74583 345.7469Q221.24583 345.2469 220.48021 345.2469Q219.73021 345.2469 219.24583 345.7469Q218.76146 346.23126 218.76146 346.96564ZM224.68333 345.21564Q224.68333 343.6844 224.99583 342.7625Q225.30833 341.825 225.91771 341.325Q226.54271 340.825 227.48021 340.825Q228.16771 340.825 228.68333 341.10626Q229.21458 341.3875 229.55833 341.91876Q229.90208 342.4344 230.08958 343.1844Q230.27708 343.9344 230.27708 345.21564Q230.27708 346.73126 229.96458 347.65314Q229.66771 348.575 229.04271 349.09064Q228.43333 349.59064 227.48021 349.59064Q226.24583 349.59064 225.52708 348.7Q224.68333 347.6375 224.68333 345.21564ZM225.76146 345.21564Q225.76146 347.325 226.26146 348.02814Q226.76146 348.73126 227.48021 348.73126Q228.21458 348.73126 228.69896 348.02814Q229.19896 347.325 229.19896 345.21564Q229.19896 343.09064 228.69896 342.40314Q228.21458 341.7 227.46458 341.7Q226.74583 341.7 226.30833 342.3094Q225.76146 343.09064 225.76146 345.21564Z" fill-rule="nonzero"/><path fill="#000000" d="M128.83542 349.45L127.78854 349.45L127.78854 342.73126Q127.39792 343.09064 126.77292 343.46564Q126.16354 343.825 125.67917 343.9969L125.67917 342.98126Q126.55417 342.5594 127.21042 341.98126Q127.88229 341.3875 128.16354 340.825L128.83542 340.825L128.83542 349.45ZM131.86667 345.21564Q131.86667 343.6844 132.17917 342.7625Q132.49167 341.825 133.10104 341.325Q133.72604 340.825 134.66354 340.825Q135.35104 340.825 135.86667 341.10626Q136.39792 341.3875 136.74167 341.91876Q137.08542 342.4344 137.27292 343.1844Q137.46042 343.9344 137.46042 345.21564Q137.46042 346.73126 137.14792 347.65314Q136.85104 348.575 136.22604 349.09064Q135.61667 349.59064 134.66354 349.59064Q133.42917 349.59064 132.71042 348.7Q131.86667 347.6375 131.86667 345.21564ZM132.9448 345.21564Q132.9448 347.325 133.4448 348.02814Q133.9448 348.73126 134.66354 348.73126Q135.39792 348.73126 135.8823 348.02814Q136.3823 347.325 136.3823 345.21564Q136.3823 343.09064 135.8823 342.40314Q135.39792 341.7 134.64792 341.7Q133.92917 341.7 133.49167 342.3094Q132.9448 343.09064 132.9448 345.21564ZM138.86667 345.21564Q138.86667 343.6844 139.17917 342.7625Q139.49167 341.825 140.10104 341.325Q140.72604 340.825 141.66354 340.825Q142.35104 340.825 142.86667 341.10626Q143.39792 341.3875 143.74167 341.91876Q144.08542 342.4344 144.27292 343.1844Q144.46042 343.9344 144.46042 345.21564Q144.46042 346.73126 144.14792 347.65314Q143.85104 348.575 143.22604 349.09064Q142.61667 349.59064 141.66354 349.59064Q140.42917 349.59064 139.71042 348.7Q138.86667 347.6375 138.86667 345.21564ZM139.9448 345.21564Q139.9448 347.325 140.4448 348.02814Q140.9448 348.73126 141.66354 348.73126Q142.39792 348.73126 142.8823 348.02814Q143.3823 347.325 143.3823 345.21564Q143.3823 343.09064 142.8823 342.40314Q142.39792 341.7 141.64792 341.7Q140.92917 341.7 140.49167 342.3094Q139.9448 343.09064 139.9448 345.21564Z" fill-rule="nonzero"/><path fill="#000000" d="M39.51875 349.45L38.471874 349.45L38.471874 342.73126Q38.08125 343.09064 37.45625 343.46564Q36.846874 343.825 36.3625 343.9969L36.3625 342.98126Q37.2375 342.5594 37.89375 341.98126Q38.565624 341.3875 38.846874 340.825L39.51875 340.825L39.51875 349.45ZM48.096874 348.4344L48.096874 349.45L42.409374 349.45Q42.409374 349.075 42.534374 348.71564Q42.753124 348.1375 43.221874 347.575Q43.70625 347.0125 44.6125 346.27814Q46.01875 345.1219 46.503124 344.45Q47.003124 343.77814 47.003124 343.1844Q47.003124 342.5594 46.55 342.1375Q46.096874 341.7 45.378124 341.7Q44.6125 341.7 44.159374 342.15314Q43.70625 342.60626 43.690624 343.41876L42.6125 343.3094Q42.721874 342.09064 43.440624 341.46564Q44.175 340.825 45.409374 340.825Q46.64375 340.825 47.3625 341.5125Q48.08125 342.2 48.08125 343.21564Q48.08125 343.73126 47.8625 344.23126Q47.659374 344.71564 47.159374 345.27814Q46.675 345.825 45.55 346.77814Q44.596874 347.575 44.315624 347.8719Q44.05 348.15314 43.878124 348.4344L48.096874 348.4344ZM49.55 345.21564Q49.55 343.6844 49.8625 342.7625Q50.175 341.825 50.784374 341.325Q51.409374 340.825 52.346874 340.825Q53.034374 340.825 53.55 341.10626Q54.08125 341.3875 54.425 341.91876Q54.76875 342.4344 54.95625 343.1844Q55.14375 343.9344 55.14375 345.21564Q55.14375 346.73126 54.83125 347.65314Q54.534374 348.575 53.909374 349.09064Q53.3 349.59064 52.346874 349.59064Q51.1125 349.59064 50.39375 348.7Q49.55 347.6375 49.55 345.21564ZM50.628124 345.21564Q50.628124 347.325 51.128124 348.02814Q51.628124 348.73126 52.346874 348.73126Q53.08125 348.73126 53.565624 348.02814Q54.065624 347.325 54.065624 345.21564Q54.065624 343.09064 53.565624 342.40314Q53.08125 341.7 52.33125 341.7Q51.6125 341.7 51.175 342.3094Q50.628124 343.09064 50.628124 345.21564Z" fill-rule="nonzero"/><path fill="#4285f4" d="M199.5 61.916668C199.5 65.23038 196.8137 67.916664 193.5 67.916664C190.1863 67.916664 187.5 65.23038 187.5 61.916668C187.5 58.60296 190.1863 55.916668 193.5 55.916668C196.8137 55.916668 199.5 58.60296 199.5 61.916668Z" fill-rule="nonzero"/><path stroke="#4285f4" stroke-width="4.0" stroke-linecap="butt" stroke-opacity="0.4" d="M215.5 61.916668L227.5 61.916668" fill-rule="nonzero"/><path fill="#1a1a1a" d="M238.60938 65.916664L238.60938 58.33854L235.78125 58.33854L235.78125 57.322914L242.59375 57.322914L242.59375 58.33854L239.75 58.33854L239.75 65.916664L238.60938 65.916664ZM243.28125 65.916664L243.28125 59.697914L244.23438 59.697914L244.23438 60.635414Q244.59375 59.979164 244.89062 59.77604Q245.20312 59.55729 245.57812 59.55729Q246.10938 59.55729 246.65625 59.885414L246.29688 60.86979Q245.90625 60.635414 245.53125 60.635414Q245.17188 60.635414 244.89062 60.854164Q244.625 61.05729 244.51562 61.43229Q244.32812 61.99479 244.32812 62.65104L244.32812 65.916664L243.28125 65.916664ZM251.54688 63.916664L252.64062 64.041664Q252.39062 64.99479 251.6875 65.52604Q250.98438 66.05729 249.90625 66.05729Q248.54688 66.05729 247.73438 65.21354Q246.9375 64.36979 246.9375 62.854164Q246.9375 61.291664 247.75 60.43229Q248.5625 59.55729 249.84375 59.55729Q251.09375 59.55729 251.875 60.40104Q252.67188 61.24479 252.67188 62.791664Q252.67188 62.885414 252.67188 63.072914L248.03125 63.072914Q248.09375 64.104164 248.60938 64.65104Q249.125 65.18229 249.90625 65.18229Q250.48438 65.18229 250.89062 64.885414Q251.3125 64.572914 251.54688 63.916664ZM248.09375 62.21354L251.5625 62.21354Q251.5 61.416664 251.17188 61.02604Q250.65625 60.416664 249.85938 60.416664Q249.125 60.416664 248.625 60.90104Q248.14062 61.385414 248.09375 62.21354ZM254.29688 65.916664L254.29688 59.697914L255.23438 59.697914L255.23438 60.572914Q255.92188 59.55729 257.21875 59.55729Q257.78125 59.55729 258.25 59.760414Q258.73438 59.96354 258.96875 60.291664Q259.20312 60.61979 259.29688 61.05729Q259.34375 61.354164 259.34375 62.08854L259.34375 65.916664L258.29688 65.916664L258.29688 62.135414Q258.29688 61.479164 258.17188 61.166664Q258.04688 60.854164 257.73438 60.666664Q257.42188 60.46354 257.0 60.46354Q256.32812 60.46354 255.82812 60.90104Q255.34375 61.322914 255.34375 62.510414L255.34375 65.916664L254.29688 65.916664ZM265.32812 65.916664L265.32812 65.135414Q264.73438 66.05729 263.59375 66.05729Q262.84375 66.05729 262.21875 65.65104Q261.59375 65.229164 261.25 64.49479Q260.90625 63.760414 260.90625 62.80729Q260.90625 61.885414 261.21875 61.11979Q261.53125 60.354164 262.15625 59.96354Q262.78125 59.55729 263.54688 59.55729Q264.10938 59.55729 264.54688 59.791664Q264.98438 60.02604 265.26562 60.40104L265.26562 57.322914L266.3125 57.322914L266.3125 65.916664L265.32812 65.916664ZM262.0 62.80729Q262.0 64.010414 262.5 64.604164Q263.0 65.18229 263.6875 65.18229Q264.375 65.18229 264.85938 64.61979Q265.34375 64.05729 265.34375 62.90104Q265.34375 61.61979 264.84375 61.02604Q264.35938 60.43229 263.64062 60.43229Q262.9375 60.43229 262.46875 61.010414Q262.0 61.572914 262.0 62.80729ZM268.26562 65.916664L268.26562 57.322914L269.32812 57.322914L269.32812 65.916664L268.26562 65.916664ZM271.29688 58.541664L271.29688 57.322914L272.35938 57.322914L272.35938 58.541664L271.29688 58.541664ZM271.29688 65.916664L271.29688 59.697914L272.35938 59.697914L272.35938 65.916664L271.29688 65.916664ZM274.29688 65.916664L274.29688 59.697914L275.23438 59.697914L275.23438 60.572914Q275.92188 59.55729 277.21875 59.55729Q277.78125 59.55729 278.25 59.760414Q278.73438 59.96354 278.96875 60.291664Q279.20312 60.61979 279.29688 61.05729Q279.34375 61.354164 279.34375 62.08854L279.34375 65.916664L278.29688 65.916664L278.29688 62.135414Q278.29688 61.479164 278.17188 61.166664Q278.04688 60.854164 277.73438 60.666664Q277.42188 60.46354 277.0 60.46354Q276.32812 60.46354 275.82812 60.90104Q275.34375 61.322914 275.34375 62.510414L275.34375 65.916664L274.29688 65.916664ZM285.54688 63.916664L286.64062 64.041664Q286.39062 64.99479 285.6875 65.52604Q284.98438 66.05729 283.90625 66.05729Q282.54688 66.05729 281.73438 65.21354Q280.9375 64.36979 280.9375 62.854164Q280.9375 61.291664 281.75 60.43229Q282.5625 59.55729 283.84375 59.55729Q285.09375 59.55729 285.875 60.40104Q286.67188 61.24479 286.67188 62.791664Q286.67188 62.885414 286.67188 63.072914L282.03125 63.072914Q282.09375 64.104164 282.60938 64.65104Q283.125 65.18229 283.90625 65.18229Q284.48438 65.18229 284.89062 64.885414Q285.3125 64.572914 285.54688 63.916664ZM282.09375 62.21354L285.5625 62.21354Q285.5 61.416664 285.17188 61.02604Q284.65625 60.416664 283.85938 60.416664Q283.125 60.416664 282.625 60.90104Q282.14062 61.385414 282.09375 62.21354ZM291.54688 65.916664L291.54688 60.510414L290.60938 60.510414L290.60938 59.697914L291.54688 59.697914L291.54688 59.02604Q291.54688 58.40104 291.65625 58.104164Q291.8125 57.68229 292.1875 57.43229Q292.57812 57.18229 293.26562 57.18229Q293.71875 57.18229 294.25 57.291664L294.09375 58.197914Q293.76562 58.15104 293.46875 58.15104Q292.98438 58.15104 292.78125 58.354164Q292.59375 58.55729 292.59375 59.11979L292.59375 59.697914L293.8125 59.697914L293.8125 60.510414L292.59375 60.510414L292.59375 65.916664L291.54688 65.916664ZM293.90625 62.80729Q293.90625 61.072914 294.85938 60.24479Q295.65625 59.55729 296.8125 59.55729Q298.09375 59.55729 298.90625 60.40104Q299.73438 61.229164 299.73438 62.71354Q299.73438 63.916664 299.375 64.604164Q299.01562 65.291664 298.3125 65.68229Q297.625 66.05729 296.8125 66.05729Q295.51562 66.05729 294.70312 65.229164Q293.90625 64.385414 293.90625 62.80729ZM294.98438 62.80729Q294.98438 63.99479 295.5 64.58854Q296.03125 65.18229 296.8125 65.18229Q297.60938 65.18229 298.125 64.58854Q298.64062 63.99479 298.64062 62.77604Q298.64062 61.61979 298.10938 61.02604Q297.59375 60.43229 296.8125 60.43229Q296.03125 60.43229 295.5 61.02604Q294.98438 61.604164 294.98438 62.80729ZM301.28125 65.916664L301.28125 59.697914L302.23438 59.697914L302.23438 60.635414Q302.59375 59.979164 302.89062 59.77604Q303.20312 59.55729 303.57812 59.55729Q304.10938 59.55729 304.65625 59.885414L304.29688 60.86979Q303.90625 60.635414 303.53125 60.635414Q303.17188 60.635414 302.89062 60.854164Q302.625 61.05729 302.51562 61.43229Q302.32812 61.99479 302.32812 62.65104L302.32812 65.916664L301.28125 65.916664ZM307.875 64.05729L308.90625 63.90104Q309.0 64.52604 309.39062 64.854164Q309.79688 65.18229 310.53125 65.18229Q311.25 65.18229 311.59375 64.90104Q311.95312 64.604164 311.95312 64.197914Q311.95312 63.83854 311.64062 63.635414Q311.42188 63.49479 310.5625 63.27604Q309.40625 62.979164 308.95312 62.77604Q308.51562 62.55729 308.28125 62.18229Q308.04688 61.80729 308.04688 61.33854Q308.04688 60.93229 308.23438 60.572914Q308.42188 60.21354 308.75 59.979164Q309.0 59.80729 309.42188 59.68229Q309.84375 59.55729 310.34375 59.55729Q311.0625 59.55729 311.60938 59.77604Q312.17188 59.979164 312.4375 60.33854Q312.70312 60.697914 312.79688 61.291664L311.76562 61.43229Q311.70312 60.96354 311.35938 60.697914Q311.03125 60.416664 310.40625 60.416664Q309.6875 60.416664 309.375 60.666664Q309.0625 60.90104 309.0625 61.229164Q309.0625 61.43229 309.1875 61.58854Q309.32812 61.760414 309.59375 61.86979Q309.75 61.93229 310.53125 62.135414Q311.65625 62.447914 312.09375 62.635414Q312.53125 62.822914 312.78125 63.18229Q313.03125 63.541664 313.03125 64.08854Q313.03125 64.61979 312.71875 65.08854Q312.42188 65.541664 311.84375 65.80729Q311.26562 66.05729 310.53125 66.05729Q309.3125 66.05729 308.67188 65.55729Q308.04688 65.041664 307.875 64.05729ZM319.54688 63.916664L320.64062 64.041664Q320.39062 64.99479 319.6875 65.52604Q318.98438 66.05729 317.90625 66.05729Q316.54688 66.05729 315.73438 65.21354Q314.9375 64.36979 314.9375 62.854164Q314.9375 61.291664 315.75 60.43229Q316.5625 59.55729 317.84375 59.55729Q319.09375 59.55729 319.875 60.40104Q320.67188 61.24479 320.67188 62.791664Q320.67188 62.885414 320.67188 63.072914L316.03125 63.072914Q316.09375 64.104164 316.60938 64.65104Q317.125 65.18229 317.90625 65.18229Q318.48438 65.18229 318.89062 64.885414Q319.3125 64.572914 319.54688 63.916664ZM316.09375 62.21354L319.5625 62.21354Q319.5 61.416664 319.17188 61.02604Q318.65625 60.416664 317.85938 60.416664Q317.125 60.416664 316.625 60.90104Q316.14062 61.385414 316.09375 62.21354ZM322.28125 65.916664L322.28125 59.697914L323.23438 59.697914L323.23438 60.635414Q323.59375 59.979164 323.89062 59.77604Q324.20312 59.55729 324.57812 59.55729Q325.10938 59.55729 325.65625 59.885414L325.29688 60.86979Q324.90625 60.635414 324.53125 60.635414Q324.17188 60.635414 323.89062 60.854164Q323.625 61.05729 323.51562 61.43229Q323.32812 61.99479 323.32812 62.65104L323.32812 65.916664L322.28125 65.916664ZM326.29688 58.541664L326.29688 57.322914L327.35938 57.322914L327.35938 58.541664L326.29688 58.541664ZM326.29688 65.916664L326.29688 59.697914L327.35938 59.697914L327.35938 65.916664L326.29688 65.916664ZM333.54688 63.916664L334.64062 64.041664Q334.39062 64.99479 333.6875 65.52604Q332.98438 66.05729 331.90625 66.05729Q330.54688 66.05729 329.73438 65.21354Q328.9375 64.36979 328.9375 62.854164Q328.9375 61.291664 329.75 60.43229Q330.5625 59.55729 331.84375 59.55729Q333.09375 59.55729 333.875 60.40104Q334.67188 61.24479 334.67188 62.791664Q334.67188 62.885414 334.67188 63.072914L330.03125 63.072914Q330.09375 64.104164 330.60938 64.65104Q331.125 65.18229 331.90625 65.18229Q332.48438 65.18229 332.89062 64.885414Q333.3125 64.572914 333.54688 63.916664ZM330.09375 62.21354L333.5625 62.21354Q333.5 61.416664 333.17188 61.02604Q332.65625 60.416664 331.85938 60.416664Q331.125 60.416664 330.625 60.90104Q330.14062 61.385414 330.09375 62.21354ZM335.875 64.05729L336.90625 63.90104Q337.0 64.52604 337.39062 64.854164Q337.79688 65.18229 338.53125 65.18229Q339.25 65.18229 339.59375 64.90104Q339.95312 64.604164 339.95312 64.197914Q339.95312 63.83854 339.64062 63.635414Q339.42188 63.49479 338.5625 63.27604Q337.40625 62.979164 336.95312 62.77604Q336.51562 62.55729 336.28125 62.18229Q336.04688 61.80729 336.04688 61.33854Q336.04688 60.93229 336.23438 60.572914Q336.42188 60.21354 336.75 59.979164Q337.0 59.80729 337.42188 59.68229Q337.84375 59.55729 338.34375 59.55729Q339.0625 59.55729 339.60938 59.77604Q340.17188 59.979164 340.4375 60.33854Q340.70312 60.697914 340.79688 61.291664L339.76562 61.43229Q339.70312 60.96354 339.35938 60.697914Q339.03125 60.416664 338.40625 60.416664Q337.6875 60.416664 337.375 60.666664Q337.0625 60.90104 337.0625 61.229164Q337.0625 61.43229 337.1875 61.58854Q337.32812 61.760414 337.59375 61.86979Q337.75 61.93229 338.53125 62.135414Q339.65625 62.447914 340.09375 62.635414Q340.53125 62.822914 340.78125 63.18229Q341.03125 63.541664 341.03125 64.08854Q341.03125 64.61979 340.71875 65.08854Q340.42188 65.541664 339.84375 65.80729Q339.26562 66.05729 338.53125 66.05729Q337.3125 66.05729 336.67188 65.55729Q336.04688 65.041664 335.875 64.05729ZM349.96875 65.916664L348.92188 65.916664L348.92188 59.197914Q348.53125 59.55729 347.90625 59.93229Q347.29688 60.291664 346.8125 60.46354L346.8125 59.447914Q347.6875 59.02604 348.34375 58.447914Q349.01562 57.854164 349.29688 57.291664L349.96875 57.291664L349.96875 65.916664ZM356.4375 65.916664L356.4375 57.322914L360.25 57.322914Q361.40625 57.322914 362.0 57.55729Q362.59375 57.791664 362.95312 58.385414Q363.3125 58.96354 363.3125 59.666664Q363.3125 60.58854 362.71875 61.21354Q362.125 61.83854 360.89062 62.010414Q361.34375 62.229164 361.57812 62.43229Q362.07812 62.885414 362.51562 63.572914L364.01562 65.916664L362.57812 65.916664L361.45312 64.135414Q360.95312 63.354164 360.625 62.947914Q360.3125 62.541664 360.04688 62.385414Q359.79688 62.21354 359.53125 62.135414Q359.34375 62.104164 358.90625 62.104164L357.57812 62.104164L357.57812 65.916664L356.4375 65.916664ZM357.57812 61.11979L360.03125 61.11979Q360.79688 61.11979 361.23438 60.96354Q361.6875 60.791664 361.90625 60.447914Q362.14062 60.08854 362.14062 59.666664Q362.14062 59.05729 361.6875 58.666664Q361.25 58.27604 360.29688 58.27604L357.57812 58.27604L357.57812 61.11979ZM364.64062 61.61979Q364.6875 61.291664 364.92188 60.947914Q365.29688 60.447914 366.14062 59.83854Q366.98438 59.229164 367.14062 59.041664Q367.35938 58.80729 367.35938 58.55729Q367.35938 58.27604 367.14062 58.104164Q366.9375 57.916664 366.54688 57.916664Q366.15625 57.916664 365.96875 58.05729Q365.78125 58.18229 365.65625 58.572914L364.76562 58.479164Q364.9375 57.83854 365.35938 57.52604Q365.78125 57.21354 366.5625 57.21354Q367.45312 57.21354 367.85938 57.572914Q368.28125 57.916664 368.28125 58.416664Q368.28125 58.90104 367.92188 59.33854Q367.67188 59.666664 366.73438 60.33854Q366.23438 60.697914 366.03125 60.916664L368.29688 60.916664L368.29688 61.61979L364.64062 61.61979ZM377.84375 60.86979L372.17188 60.86979L372.17188 59.885414L377.84375 59.885414L377.84375 60.86979ZM377.84375 63.479164L372.17188 63.479164L372.17188 62.49479L377.84375 62.49479L377.84375 63.479164ZM382.0 61.68229Q382.0 60.15104 382.3125 59.229164Q382.625 58.291664 383.23438 57.791664Q383.85938 57.291664 384.79688 57.291664Q385.48438 57.291664 386.0 57.572914Q386.53125 57.854164 386.875 58.385414Q387.21875 58.90104 387.40625 59.65104Q387.59375 60.40104 387.59375 61.68229Q387.59375 63.197914 387.28125 64.11979Q386.98438 65.041664 386.35938 65.55729Q385.75 66.05729 384.79688 66.05729Q383.5625 66.05729 382.84375 65.166664Q382.0 64.104164 382.0 61.68229ZM383.07812 61.68229Q383.07812 63.791664 383.57812 64.49479Q384.07812 65.197914 384.79688 65.197914Q385.53125 65.197914 386.01562 64.49479Q386.51562 63.791664 386.51562 61.68229Q386.51562 59.55729 386.01562 58.86979Q385.53125 58.166664 384.78125 58.166664Q384.0625 58.166664 383.625 58.77604Q383.07812 59.55729 383.07812 61.68229ZM389.59375 65.916664L389.59375 64.71354L390.79688 64.71354L390.79688 65.916664L389.59375 65.916664ZM392.0 63.666664L393.10938 63.572914Q393.23438 64.385414 393.67188 64.791664Q394.125 65.197914 394.76562 65.197914Q395.51562 65.197914 396.04688 64.61979Q396.57812 64.041664 396.57812 63.104164Q396.57812 62.197914 396.0625 61.68229Q395.5625 61.15104 394.73438 61.15104Q394.23438 61.15104 393.8125 61.385414Q393.40625 61.61979 393.17188 61.979164L392.1875 61.854164L393.01562 57.447914L397.29688 57.447914L397.29688 58.447914L393.85938 58.447914L393.40625 60.760414Q394.17188 60.21354 395.01562 60.21354Q396.14062 60.21354 396.90625 60.99479Q397.6875 61.77604 397.6875 63.010414Q397.6875 64.166664 397.01562 65.02604Q396.1875 66.05729 394.76562 66.05729Q393.59375 66.05729 392.84375 65.40104Q392.10938 64.74479 392.0 63.666664ZM402.375 65.916664L402.375 63.854164L398.65625 63.854164L398.65625 62.885414L402.57812 57.322914L403.4375 57.322914L403.4375 62.885414L404.59375 62.885414L404.59375 63.854164L403.4375 63.854164L403.4375 65.916664L402.375 65.916664ZM402.375 62.885414L402.375 59.02604L399.6875 62.885414L402.375 62.885414ZM411.46875 59.43229L410.42188 59.510414Q410.28125 58.885414 410.03125 58.604164Q409.59375 58.15104 408.96875 58.15104Q408.46875 58.15104 408.07812 58.43229Q407.59375 58.80729 407.29688 59.510414Q407.01562 60.197914 407.0 61.479164Q407.375 60.90104 407.92188 60.61979Q408.48438 60.33854 409.09375 60.33854Q410.14062 60.33854 410.875 61.11979Q411.625 61.90104 411.625 63.11979Q411.625 63.93229 411.26562 64.635414Q410.92188 65.322914 410.3125 65.697914Q409.70312 66.05729 408.9375 66.05729Q407.60938 66.05729 406.78125 65.08854Q405.95312 64.11979 405.95312 61.90104Q405.95312 59.40104 406.875 58.27604Q407.67188 57.291664 409.03125 57.291664Q410.04688 57.291664 410.6875 57.86979Q411.34375 58.43229 411.46875 59.43229ZM407.17188 63.135414Q407.17188 63.68229 407.39062 64.18229Q407.625 64.666664 408.03125 64.93229Q408.45312 65.197914 408.92188 65.197914Q409.57812 65.197914 410.0625 64.666664Q410.54688 64.11979 410.54688 63.197914Q410.54688 62.30729 410.0625 61.791664Q409.59375 61.27604 408.875 61.27604Q408.15625 61.27604 407.65625 61.791664Q407.17188 62.30729 407.17188 63.135414Z" fill-rule="nonzero"/><path fill="#000000" d="M21.7375 28.64375L21.7375 37.55L19.925 37.55L19.925 26.9875L21.690624 26.9875L21.7375 28.64375ZM25.034374 26.925L25.01875 28.596874Q24.8 28.55 24.596874 28.534374Q24.39375 28.51875 24.14375 28.51875Q23.51875 28.51875 23.034374 28.721874Q22.565624 28.909374 22.221874 29.26875Q21.89375 29.6125 21.70625 30.096874Q21.51875 30.58125 21.45625 31.159374L20.95625 31.45625Q20.95625 30.503124 21.14375 29.659374Q21.33125 28.815624 21.721874 28.175Q22.128124 27.51875 22.753124 27.159374Q23.378124 26.784374 24.2375 26.784374Q24.425 26.784374 24.675 26.83125Q24.940624 26.878124 25.034374 26.925ZM33.159374 35.7375L33.159374 30.3Q33.159374 29.675 32.909374 29.221874Q32.659374 28.753124 32.159374 28.503124Q31.659374 28.2375 30.925 28.2375Q30.253124 28.2375 29.7375 28.471874Q29.221874 28.70625 28.925 29.096874Q28.64375 29.471874 28.64375 29.909374L26.846874 29.909374Q26.846874 29.346874 27.128124 28.8Q27.425 28.2375 27.971874 27.784374Q28.534374 27.33125 29.3 27.065624Q30.08125 26.784374 31.034374 26.784374Q32.190624 26.784374 33.065624 27.175Q33.95625 27.565624 34.45625 28.3625Q34.971874 29.14375 34.971874 30.315624L34.971874 35.2375Q34.971874 35.76875 35.05 36.3625Q35.14375 36.95625 35.33125 37.39375L35.33125 37.55L33.45625 37.55Q33.315624 37.2375 33.2375 36.721874Q33.159374 36.190624 33.159374 35.7375ZM33.471874 31.14375L33.4875 32.409374L31.659374 32.409374Q30.89375 32.409374 30.284374 32.534374Q29.675 32.659374 29.26875 32.909374Q28.8625 33.14375 28.64375 33.51875Q28.425 33.878124 28.425 34.3625Q28.425 34.8625 28.64375 35.284374Q28.878124 35.690624 29.33125 35.925Q29.784374 36.159374 30.45625 36.159374Q31.284374 36.159374 31.909374 35.815624Q32.55 35.45625 32.925 34.95625Q33.3 34.440624 33.33125 33.971874L34.1125 34.83125Q34.034374 35.2375 33.721874 35.7375Q33.425 36.2375 32.925 36.690624Q32.425 37.14375 31.7375 37.45625Q31.05 37.753124 30.190624 37.753124Q29.1125 37.753124 28.3 37.33125Q27.503124 36.909374 27.05 36.20625Q26.6125 35.4875 26.6125 34.6125Q26.6125 33.753124 26.940624 33.1125Q27.284374 32.45625 27.909374 32.034374Q28.534374 31.596874 29.409374 31.378124Q30.284374 31.14375 31.378124 31.14375L33.471874 31.14375ZM39.7375 29.2375L39.7375 37.55L37.925 37.55L37.925 26.9875L39.64375 26.9875L39.7375 29.2375ZM39.3 31.8625L38.55 31.83125Q38.565624 30.753124 38.878124 29.83125Q39.190624 28.909374 39.753124 28.221874Q40.315624 27.534374 41.096874 27.159374Q41.89375 26.784374 42.846874 26.784374Q43.628124 26.784374 44.253124 27.003124Q44.878124 27.20625 45.315624 27.675Q45.76875 28.128124 46.003124 28.8625Q46.2375 29.58125 46.2375 30.628124L46.2375 37.55L44.425 37.55L44.425 30.6125Q44.425 29.76875 44.175 29.26875Q43.940624 28.76875 43.471874 28.55Q43.003124 28.315624 42.315624 28.315624Q41.64375 28.315624 41.08125 28.596874Q40.534374 28.878124 40.128124 29.378124Q39.7375 29.878124 39.51875 30.51875Q39.3 31.159374 39.3 31.8625ZM50.7375 22.55L50.7375 37.55L48.925 37.55L48.925 22.55L50.7375 22.55ZM57.20625 26.9875L52.596874 31.909374L50.01875 34.596874L49.8625 32.659374L51.70625 30.45625L54.9875 26.9875L57.20625 26.9875ZM55.55 37.55L51.784374 32.503124L52.721874 30.89375L57.675 37.55L55.55 37.55ZM67.14375 35.925L70.03438 26.9875L71.87813 26.9875L68.08125 37.55L66.8625 37.55L67.14375 35.925ZM64.72188 26.9875L67.70625 35.971874L67.90938 37.55L66.70625 37.55L62.878124 26.9875L64.72188 26.9875ZM80.08125 34.753124Q80.08125 34.3625 79.90938 34.01875Q79.7375 33.675 79.20625 33.409374Q78.69063 33.128124 77.64375 32.925Q76.76875 32.7375 76.05 32.4875Q75.34688 32.221874 74.84688 31.8625Q74.3625 31.503124 74.09688 31.01875Q73.84688 30.534374 73.84688 29.878124Q73.84688 29.253124 74.1125 28.690624Q74.39375 28.128124 74.90938 27.70625Q75.425 27.26875 76.14375 27.034374Q76.8625 26.784374 77.75313 26.784374Q79.01875 26.784374 79.90938 27.2375Q80.81563 27.690624 81.3 28.440624Q81.78438 29.175 81.78438 30.08125L79.97188 30.08125Q79.97188 29.64375 79.70625 29.2375Q79.45625 28.815624 78.95625 28.55Q78.47188 28.26875 77.75313 28.26875Q77.00313 28.26875 76.53438 28.503124Q76.08125 28.7375 75.8625 29.096874Q75.65938 29.440624 75.65938 29.83125Q75.65938 30.1125 75.75313 30.346874Q75.8625 30.58125 76.12813 30.76875Q76.39375 30.95625 76.8625 31.128124Q77.34688 31.284374 78.08125 31.45625Q79.39375 31.753124 80.22188 32.159374Q81.06563 32.565624 81.47188 33.159374Q81.89375 33.753124 81.89375 34.6125Q81.89375 35.3 81.59688 35.878124Q81.31563 36.45625 80.76875 36.878124Q80.22188 37.284374 79.47188 37.51875Q78.7375 37.753124 77.8 37.753124Q76.40938 37.753124 75.44063 37.253124Q74.47188 36.753124 73.97188 35.95625Q73.47188 35.159374 73.47188 34.284374L75.3 34.284374Q75.33125 35.034374 75.72188 35.471874Q76.1125 35.89375 76.675 36.08125Q77.25313 36.253124 77.8 36.253124Q78.55 36.253124 79.05 36.065624Q79.55 35.8625 79.81563 35.534374Q80.08125 35.190624 80.08125 34.753124ZM83.95625 36.596874Q83.95625 36.128124 84.2375 35.815624Q84.53438 35.503124 85.08125 35.503124Q85.62813 35.503124 85.90938 35.815624Q86.20625 36.128124 86.20625 36.596874Q86.20625 37.034374 85.90938 37.3625Q85.62813 37.675 85.08125 37.675Q84.53438 37.675 84.2375 37.3625Q83.95625 37.034374 83.95625 36.596874ZM95.7375 29.01875L95.7375 41.6125L93.925 41.6125L93.925 26.9875L95.58125 26.9875L95.7375 29.01875ZM102.84688 32.175L102.84688 32.378124Q102.84688 33.534374 102.56563 34.51875Q102.3 35.503124 101.78438 36.221874Q101.26875 36.940624 100.50313 37.346874Q99.7375 37.753124 98.75313 37.753124Q97.75313 37.753124 96.97188 37.425Q96.20625 37.08125 95.65938 36.45625Q95.12813 35.815624 94.8 34.925Q94.4875 34.034374 94.37813 32.925L94.37813 31.83125Q94.4875 30.659374 94.81563 29.7375Q95.14375 28.8 95.675 28.14375Q96.20625 27.4875 96.95625 27.14375Q97.72188 26.784374 98.72188 26.784374Q99.72188 26.784374 100.4875 27.175Q101.26875 27.565624 101.78438 28.284374Q102.31563 28.9875 102.58125 29.9875Q102.84688 30.971874 102.84688 32.175ZM101.03438 32.378124L101.03438 32.175Q101.03438 31.39375 100.8625 30.690624Q100.70625 29.9875 100.3625 29.45625Q100.01875 28.925 99.47188 28.628124Q98.94063 28.315624 98.19063 28.315624Q97.51875 28.315624 97.00313 28.55Q96.50313 28.784374 96.14375 29.175Q95.8 29.565624 95.58125 30.08125Q95.3625 30.58125 95.25313 31.1125L95.25313 33.64375Q95.45625 34.33125 95.8 34.940624Q96.15938 35.534374 96.7375 35.89375Q97.33125 36.253124 98.22188 36.253124Q98.94063 36.253124 99.47188 35.95625Q100.01875 35.64375 100.3625 35.1125Q100.70625 34.565624 100.8625 33.878124Q101.03438 33.175 101.03438 32.378124ZM106.7375 28.64375L106.7375 37.55L104.925 37.55L104.925 26.9875L106.69063 26.9875L106.7375 28.64375ZM110.03438 26.925L110.01875 28.596874Q109.8 28.55 109.59688 28.534374Q109.39375 28.51875 109.14375 28.51875Q108.51875 28.51875 108.03438 28.721874Q107.56563 28.909374 107.22188 29.26875Q106.89375 29.6125 106.70625 30.096874Q106.51875 30.58125 106.45625 31.159374L105.95625 31.45625Q105.95625 30.503124 106.14375 29.659374Q106.33125 28.815624 106.72188 28.175Q107.12813 27.51875 107.75313 27.159374Q108.37813 26.784374 109.2375 26.784374Q109.425 26.784374 109.675 26.83125Q109.94063 26.878124 110.03438 26.925ZM113.89375 26.9875L113.89375 37.55L112.08125 37.55L112.08125 26.9875L113.89375 26.9875ZM111.94063 24.175Q111.94063 23.7375 112.20625 23.440624Q112.47188 23.128124 113.00313 23.128124Q113.51875 23.128124 113.8 23.440624Q114.08125 23.7375 114.08125 24.175Q114.08125 24.596874 113.8 24.89375Q113.51875 25.190624 113.00313 25.190624Q112.47188 25.190624 112.20625 24.89375Q111.94063 24.596874 111.94063 24.175ZM121.15938 36.253124Q121.8 36.253124 122.34688 36.003124Q122.89375 35.7375 123.2375 35.26875Q123.59688 34.8 123.64375 34.20625L125.3625 34.20625Q125.31563 35.14375 124.7375 35.95625Q124.15938 36.753124 123.22188 37.253124Q122.28438 37.753124 121.15938 37.753124Q119.97188 37.753124 119.08125 37.33125Q118.19063 36.909374 117.6125 36.175Q117.03438 35.440624 116.7375 34.4875Q116.45625 33.534374 116.45625 32.471874L116.45625 32.065624Q116.45625 31.003124 116.7375 30.05Q117.03438 29.096874 117.6125 28.3625Q118.19063 27.628124 119.08125 27.20625Q119.97188 26.784374 121.15938 26.784374Q122.39375 26.784374 123.31563 27.3Q124.25313 27.8 124.78438 28.659374Q125.31563 29.51875 125.3625 30.6125L123.64375 30.6125Q123.59688 29.95625 123.26875 29.440624Q122.95625 28.909374 122.40938 28.596874Q121.87813 28.26875 121.15938 28.26875Q120.33125 28.26875 119.76875 28.596874Q119.20625 28.925 118.87813 29.4875Q118.55 30.034374 118.40938 30.70625Q118.26875 31.3625 118.26875 32.065624L118.26875 32.471874Q118.26875 33.159374 118.39375 33.846874Q118.53438 34.51875 118.8625 35.065624Q119.19063 35.6125 119.75313 35.940624Q120.31563 36.253124 121.15938 36.253124ZM131.31563 37.753124Q130.20625 37.753124 129.31563 37.378124Q128.425 36.9875 127.78438 36.315624Q127.14375 35.628124 126.8 34.690624Q126.45625 33.753124 126.45625 32.64375L126.45625 32.221874Q126.45625 30.940624 126.83125 29.925Q127.22188 28.909374 127.87813 28.20625Q128.53438 27.503124 129.3625 27.14375Q130.19063 26.784374 131.08125 26.784374Q132.20625 26.784374 133.03438 27.175Q133.8625 27.565624 134.37813 28.26875Q134.90938 28.971874 135.15938 29.909374Q135.425 30.846874 135.425 31.95625L135.425 32.76875L127.53438 32.76875L127.53438 31.3L133.6125 31.3L133.6125 31.159374Q133.58125 30.45625 133.33125 29.8Q133.08125 29.128124 132.53438 28.70625Q132.00313 28.26875 131.08125 28.26875Q130.45625 28.26875 129.94063 28.534374Q129.425 28.784374 129.05 29.3Q128.69063 29.8 128.47188 30.534374Q128.26875 31.26875 128.26875 32.221874L128.26875 32.64375Q128.26875 33.39375 128.47188 34.05Q128.69063 34.70625 129.09688 35.20625Q129.50313 35.70625 130.08125 35.9875Q130.675 36.26875 131.40938 36.26875Q132.3625 36.26875 133.01875 35.878124Q133.69063 35.4875 134.19063 34.83125L135.28438 35.70625Q134.94063 36.221874 134.40938 36.690624Q133.89375 37.159374 133.12813 37.45625Q132.3625 37.753124 131.31563 37.753124ZM147.31563 37.753124Q146.20625 37.753124 145.31563 37.378124Q144.425 36.9875 143.78438 36.315624Q143.14375 35.628124 142.8 34.690624Q142.45625 33.753124 142.45625 32.64375L142.45625 32.221874Q142.45625 30.940624 142.83125 29.925Q143.22188 28.909374 143.87813 28.20625Q144.53438 27.503124 145.3625 27.14375Q146.19063 26.784374 147.08125 26.784374Q148.20625 26.784374 149.03438 27.175Q149.8625 27.565624 150.37813 28.26875Q150.90938 28.971874 151.15938 29.909374Q151.425 30.846874 151.425 31.95625L151.425 32.76875L143.53438 32.76875L143.53438 31.3L149.6125 31.3L149.6125 31.159374Q149.58125 30.45625 149.33125 29.8Q149.08125 29.128124 148.53438 28.70625Q148.00313 28.26875 147.08125 28.26875Q146.45625 28.26875 145.94063 28.534374Q145.425 28.784374 145.05 29.3Q144.69063 29.8 144.47188 30.534374Q144.26875 31.26875 144.26875 32.221874L144.26875 32.64375Q144.26875 33.39375 144.47188 34.05Q144.69063 34.70625 145.09688 35.20625Q145.50313 35.70625 146.08125 35.9875Q146.675 36.26875 147.40938 36.26875Q148.3625 36.26875 149.01875 35.878124Q149.69063 35.4875 150.19063 34.83125L151.28438 35.70625Q150.94063 36.221874 150.40938 36.690624Q149.89375 37.159374 149.12813 37.45625Q148.3625 37.753124 147.31563 37.753124ZM156.62813 37.55L154.81563 37.55L154.81563 25.8625Q154.81563 24.721874 155.22188 23.940624Q155.64375 23.159374 156.425 22.753124Q157.20625 22.346874 158.28438 22.346874Q158.59688 22.346874 158.90938 22.39375Q159.2375 22.425 159.53438 22.503124L159.44063 23.971874Q159.2375 23.925 158.97188 23.909374Q158.70625 23.89375 158.45625 23.89375Q157.87813 23.89375 157.45625 24.128124Q157.05 24.346874 156.83125 24.784374Q156.62813 25.221874 156.62813 25.8625L156.62813 37.55ZM158.8625 26.9875L158.8625 28.3625L153.14375 28.3625L153.14375 26.9875L158.8625 26.9875ZM163.62813 37.55L161.81563 37.55L161.81563 25.8625Q161.81563 24.721874 162.22188 23.940624Q162.64375 23.159374 163.425 22.753124Q164.20625 22.346874 165.28438 22.346874Q165.59688 22.346874 165.90938 22.39375Q166.2375 22.425 166.53438 22.503124L166.44063 23.971874Q166.2375 23.925 165.97188 23.909374Q165.70625 23.89375 165.45625 23.89375Q164.87813 23.89375 164.45625 24.128124Q164.05 24.346874 163.83125 24.784374Q163.62813 25.221874 163.62813 25.8625L163.62813 37.55ZM165.8625 26.9875L165.8625 28.3625L160.14375 28.3625L160.14375 26.9875L165.8625 26.9875ZM169.89375 26.9875L169.89375 37.55L168.08125 37.55L168.08125 26.9875L169.89375 26.9875ZM167.94063 24.175Q167.94063 23.7375 168.20625 23.440624Q168.47188 23.128124 169.00313 23.128124Q169.51875 23.128124 169.8 23.440624Q170.08125 23.7375 170.08125 24.175Q170.08125 24.596874 169.8 24.89375Q169.51875 25.190624 169.00313 25.190624Q168.47188 25.190624 168.20625 24.89375Q167.94063 24.596874 167.94063 24.175ZM177.15938 36.253124Q177.8 36.253124 178.34688 36.003124Q178.89375 35.7375 179.2375 35.26875Q179.59688 34.8 179.64375 34.20625L181.3625 34.20625Q181.31563 35.14375 180.7375 35.95625Q180.15938 36.753124 179.22188 37.253124Q178.28438 37.753124 177.15938 37.753124Q175.97188 37.753124 175.08125 37.33125Q174.19063 36.909374 173.6125 36.175Q173.03438 35.440624 172.7375 34.4875Q172.45625 33.534374 172.45625 32.471874L172.45625 32.065624Q172.45625 31.003124 172.7375 30.05Q173.03438 29.096874 173.6125 28.3625Q174.19063 27.628124 175.08125 27.20625Q175.97188 26.784374 177.15938 26.784374Q178.39375 26.784374 179.31563 27.3Q180.25313 27.8 180.78438 28.659374Q181.31563 29.51875 181.3625 30.6125L179.64375 30.6125Q179.59688 29.95625 179.26875 29.440624Q178.95625 28.909374 178.40938 28.596874Q177.87813 28.26875 177.15938 28.26875Q176.33125 28.26875 175.76875 28.596874Q175.20625 28.925 174.87813 29.4875Q174.55 30.034374 174.40938 30.70625Q174.26875 31.3625 174.26875 32.065624L174.26875 32.471874Q174.26875 33.159374 174.39375 33.846874Q174.53438 34.51875 174.8625 35.065624Q175.19063 35.6125 175.75313 35.940624Q176.31563 36.253124 177.15938 36.253124ZM184.89375 26.9875L184.89375 37.55L183.08125 37.55L183.08125 26.9875L184.89375 26.9875ZM182.94063 24.175Q182.94063 23.7375 183.20625 23.440624Q183.47188 23.128124 184.00313 23.128124Q184.51875 23.128124 184.8 23.440624Q185.08125 23.7375 185.08125 24.175Q185.08125 24.596874 184.8 24.89375Q184.51875 25.190624 184.00313 25.190624Q183.47188 25.190624 183.20625 24.89375Q182.94063 24.596874 182.94063 24.175ZM192.31563 37.753124Q191.20625 37.753124 190.31563 37.378124Q189.425 36.9875 188.78438 36.315624Q188.14375 35.628124 187.8 34.690624Q187.45625 33.753124 187.45625 32.64375L187.45625 32.221874Q187.45625 30.940624 187.83125 29.925Q188.22188 28.909374 188.87813 28.20625Q189.53438 27.503124 190.3625 27.14375Q191.19063 26.784374 192.08125 26.784374Q193.20625 26.784374 194.03438 27.175Q194.8625 27.565624 195.37813 28.26875Q195.90938 28.971874 196.15938 29.909374Q196.425 30.846874 196.425 31.95625L196.425 32.76875L188.53438 32.76875L188.53438 31.3L194.6125 31.3L194.6125 31.159374Q194.58125 30.45625 194.33125 29.8Q194.08125 29.128124 193.53438 28.70625Q193.00313 28.26875 192.08125 28.26875Q191.45625 28.26875 190.94063 28.534374Q190.425 28.784374 190.05 29.3Q189.69063 29.8 189.47188 30.534374Q189.26875 31.26875 189.26875 32.221874L189.26875 32.64375Q189.26875 33.39375 189.47188 34.05Q189.69063 34.70625 190.09688 35.20625Q190.50313 35.70625 191.08125 35.9875Q191.675 36.26875 192.40938 36.26875Q193.3625 36.26875 194.01875 35.878124Q194.69063 35.4875 195.19063 34.83125L196.28438 35.70625Q195.94063 36.221874 195.40938 36.690624Q194.89375 37.159374 194.12813 37.45625Q193.3625 37.753124 192.31563 37.753124ZM200.7375 29.2375L200.7375 37.55L198.925 37.55L198.925 26.9875L200.64375 26.9875L200.7375 29.2375ZM200.3 31.8625L199.55 31.83125Q199.56563 30.753124 199.87813 29.83125Q200.19063 28.909374 200.75313 28.221874Q201.31563 27.534374 202.09688 27.159374Q202.89375 26.784374 203.84688 26.784374Q204.62813 26.784374 205.25313 27.003124Q205.87813 27.20625 206.31563 27.675Q206.76875 28.128124 207.00313 28.8625Q207.2375 29.58125 207.2375 30.628124L207.2375 37.55L205.425 37.55L205.425 30.6125Q205.425 29.76875 205.175 29.26875Q204.94063 28.76875 204.47188 28.55Q204.00313 28.315624 203.31563 28.315624Q202.64375 28.315624 202.08125 28.596874Q201.53438 28.878124 201.12813 29.378124Q200.7375 29.878124 200.51875 30.51875Q200.3 31.159374 200.3 31.8625ZM214.15938 36.253124Q214.8 36.253124 215.34688 36.003124Q215.89375 35.7375 216.2375 35.26875Q216.59688 34.8 216.64375 34.20625L218.3625 34.20625Q218.31563 35.14375 217.7375 35.95625Q217.15938 36.753124 216.22188 37.253124Q215.28438 37.753124 214.15938 37.753124Q212.97188 37.753124 212.08125 37.33125Q211.19063 36.909374 210.6125 36.175Q210.03438 35.440624 209.7375 34.4875Q209.45625 33.534374 209.45625 32.471874L209.45625 32.065624Q209.45625 31.003124 209.7375 30.05Q210.03438 29.096874 210.6125 28.3625Q211.19063 27.628124 212.08125 27.20625Q212.97188 26.784374 214.15938 26.784374Q215.39375 26.784374 216.31563 27.3Q217.25313 27.8 217.78438 28.659374Q218.31563 29.51875 218.3625 30.6125L216.64375 30.6125Q216.59688 29.95625 216.26875 29.440624Q215.95625 28.909374 215.40938 28.596874Q214.87813 28.26875 214.15938 28.26875Q213.33125 28.26875 212.76875 28.596874Q212.20625 28.925 211.87813 29.4875Q211.55 30.034374 211.40938 30.70625Q211.26875 31.3625 211.26875 32.065624L211.26875 32.471874Q211.26875 33.159374 211.39375 33.846874Q211.53438 34.51875 211.8625 35.065624Q212.19063 35.6125 212.75313 35.940624Q213.31563 36.253124 214.15938 36.253124ZM222.89375 36.45625L225.83125 26.9875L227.76875 26.9875L223.53438 39.175Q223.37813 39.565624 223.14375 40.01875Q222.90938 40.4875 222.53438 40.89375Q222.15938 41.3 221.62813 41.55Q221.1125 41.815624 220.39375 41.815624Q220.175 41.815624 219.84688 41.753124Q219.51875 41.70625 219.37813 41.659374L219.37813 40.190624Q219.45625 40.20625 219.6125 40.221874Q219.78438 40.2375 219.8625 40.2375Q220.47188 40.2375 220.89375 40.065624Q221.33125 39.909374 221.62813 39.534374Q221.925 39.159374 222.14375 38.503124L222.89375 36.45625ZM220.7375 26.9875L223.4875 35.190624L223.95625 37.096874L222.65938 37.753124L218.76875 26.9875L220.7375 26.9875ZM233.8625 31.8625L233.8625 31.76875Q233.8625 29.64375 234.33125 27.925Q234.81563 26.190624 235.55 24.89375Q236.3 23.596874 237.1125 22.7375Q237.94063 21.878124 238.62813 21.503124L239.01875 22.690624Q238.44063 23.128124 237.84688 23.909374Q237.25313 24.675 236.75313 25.8Q236.26875 26.925 235.95625 28.409374Q235.65938 29.89375 235.65938 31.753124L235.65938 31.878124Q235.65938 33.7375 235.95625 35.2375Q236.26875 36.721874 236.75313 37.846874Q237.25313 38.9875 237.84688 39.784374Q238.44063 40.58125 239.01875 41.05L238.62813 42.14375Q237.94063 41.753124 237.1125 40.89375Q236.3 40.05 235.55 38.753124Q234.81563 37.45625 234.33125 35.7375Q233.8625 34.003124 233.8625 31.8625ZM245.15938 36.253124Q245.8 36.253124 246.34688 36.003124Q246.89375 35.7375 247.2375 35.26875Q247.59688 34.8 247.64375 34.20625L249.3625 34.20625Q249.31563 35.14375 248.7375 35.95625Q248.15938 36.753124 247.22188 37.253124Q246.28438 37.753124 245.15938 37.753124Q243.97188 37.753124 243.08125 37.33125Q242.19063 36.909374 241.6125 36.175Q241.03438 35.440624 240.7375 34.4875Q240.45625 33.534374 240.45625 32.471874L240.45625 32.065624Q240.45625 31.003124 240.7375 30.05Q241.03438 29.096874 241.6125 28.3625Q242.19063 27.628124 243.08125 27.20625Q243.97188 26.784374 245.15938 26.784374Q246.39375 26.784374 247.31563 27.3Q248.25313 27.8 248.78438 28.659374Q249.31563 29.51875 249.3625 30.6125L247.64375 30.6125Q247.59688 29.95625 247.26875 29.440624Q246.95625 28.909374 246.40938 28.596874Q245.87813 28.26875 245.15938 28.26875Q244.33125 28.26875 243.76875 28.596874Q243.20625 28.925 242.87813 29.4875Q242.55 30.034374 242.40938 30.70625Q242.26875 31.3625 242.26875 32.065624L242.26875 32.471874Q242.26875 33.159374 242.39375 33.846874Q242.53438 34.51875 242.8625 35.065624Q243.19063 35.6125 243.75313 35.940624Q244.31563 36.253124 245.15938 36.253124ZM250.45625 32.378124L250.45625 32.159374Q250.45625 31.01875 250.78438 30.034374Q251.1125 29.05 251.7375 28.33125Q252.3625 27.596874 253.25313 27.190624Q254.14375 26.784374 255.2375 26.784374Q256.3625 26.784374 257.2531 27.190624Q258.14374 27.596874 258.76874 28.33125Q259.40936 29.05 259.7375 30.034374Q260.0656 31.01875 260.0656 32.159374L260.0656 32.378124Q260.0656 33.51875 259.7375 34.503124Q259.40936 35.471874 258.76874 36.20625Q258.14374 36.940624 257.2531 37.346874Q256.3781 37.753124 255.26875 37.753124Q254.14375 37.753124 253.25313 37.346874Q252.37813 36.940624 251.7375 36.20625Q251.1125 35.471874 250.78438 34.503124Q250.45625 33.51875 250.45625 32.378124ZM252.25313 32.159374L252.25313 32.378124Q252.25313 33.175 252.44063 33.878124Q252.62813 34.565624 253.00313 35.1125Q253.37813 35.64375 253.94063 35.95625Q254.51875 36.253124 255.26875 36.253124Q256.0031 36.253124 256.5656 35.95625Q257.1281 35.64375 257.5031 35.1125Q257.8781 34.565624 258.0656 33.878124Q258.2531 33.175 258.2531 32.378124L258.2531 32.159374Q258.2531 31.378124 258.0656 30.690624Q257.8781 29.9875 257.4875 29.440624Q257.1125 28.89375 256.55 28.58125Q256.0031 28.26875 255.2375 28.26875Q254.50313 28.26875 253.94063 28.58125Q253.37813 28.89375 253.00313 29.440624Q252.62813 29.9875 252.44063 30.690624Q252.25313 31.378124 252.25313 32.159374ZM268.08124 34.753124Q268.08124 34.3625 267.90936 34.01875Q267.7375 33.675 267.20624 33.409374Q266.6906 33.128124 265.64374 32.925Q264.76874 32.7375 264.05 32.4875Q263.34686 32.221874 262.84686 31.8625Q262.3625 31.503124 262.09686 31.01875Q261.84686 30.534374 261.84686 29.878124Q261.84686 29.253124 262.1125 28.690624Q262.39374 28.128124 262.90936 27.70625Q263.425 27.26875 264.14374 27.034374Q264.8625 26.784374 265.7531 26.784374Q267.01874 26.784374 267.90936 27.2375Q268.8156 27.690624 269.3 28.440624Q269.78436 29.175 269.78436 30.08125L267.97186 30.08125Q267.97186 29.64375 267.70624 29.2375Q267.45624 28.815624 266.95624 28.55Q266.47186 28.26875 265.7531 28.26875Q265.0031 28.26875 264.53436 28.503124Q264.08124 28.7375 263.8625 29.096874Q263.65936 29.440624 263.65936 29.83125Q263.65936 30.1125 263.7531 30.346874Q263.8625 30.58125 264.1281 30.76875Q264.39374 30.95625 264.8625 31.128124Q265.34686 31.284374 266.08124 31.45625Q267.39374 31.753124 268.22186 32.159374Q269.0656 32.565624 269.47186 33.159374Q269.89374 33.753124 269.89374 34.6125Q269.89374 35.3 269.59686 35.878124Q269.3156 36.45625 268.76874 36.878124Q268.22186 37.284374 267.47186 37.51875Q266.7375 37.753124 265.8 37.753124Q264.40936 37.753124 263.4406 37.253124Q262.47186 36.753124 261.97186 35.95625Q261.47186 35.159374 261.47186 34.284374L263.3 34.284374Q263.33124 35.034374 263.72186 35.471874Q264.1125 35.89375 264.675 36.08125Q265.2531 36.253124 265.8 36.253124Q266.55 36.253124 267.05 36.065624Q267.55 35.8625 267.8156 35.534374Q268.08124 35.190624 268.08124 34.753124ZM276.34686 26.9875L276.34686 28.3625L270.64374 28.3625L270.64374 26.9875L276.34686 26.9875ZM272.5656 24.409374L274.3781 24.409374L274.3781 34.925Q274.3781 35.471874 274.53436 35.753124Q274.70624 36.01875 274.97186 36.1125Q275.2375 36.190624 275.53436 36.190624Q275.76874 36.190624 276.01874 36.14375Q276.26874 36.096874 276.39374 36.08125L276.39374 37.55Q276.1906 37.6125 275.83124 37.675Q275.4875 37.753124 275.0031 37.753124Q274.34686 37.753124 273.78436 37.4875Q273.22186 37.221874 272.89374 36.596874Q272.5656 35.971874 272.5656 34.925L272.5656 24.409374ZM282.6906 30.76875L282.6906 32.253124L277.925 32.253124L277.925 30.76875L282.6906 30.76875ZM286.7375 28.64375L286.7375 37.55L284.925 37.55L284.925 26.9875L286.6906 26.9875L286.7375 28.64375ZM290.03436 26.925L290.01874 28.596874Q289.8 28.55 289.59686 28.534374Q289.39374 28.51875 289.14374 28.51875Q288.51874 28.51875 288.03436 28.721874Q287.5656 28.909374 287.22186 29.26875Q286.89374 29.6125 286.70624 30.096874Q286.51874 30.58125 286.45624 31.159374L285.95624 31.45625Q285.95624 30.503124 286.14374 29.659374Q286.33124 28.815624 286.72186 28.175Q287.1281 27.51875 287.7531 27.159374Q288.3781 26.784374 289.2375 26.784374Q289.425 26.784374 289.675 26.83125Q289.9406 26.878124 290.03436 26.925ZM298.15936 35.7375L298.15936 30.3Q298.15936 29.675 297.90936 29.221874Q297.65936 28.753124 297.15936 28.503124Q296.65936 28.2375 295.925 28.2375Q295.2531 28.2375 294.7375 28.471874Q294.22186 28.70625 293.925 29.096874Q293.64374 29.471874 293.64374 29.909374L291.84686 29.909374Q291.84686 29.346874 292.1281 28.8Q292.425 28.2375 292.97186 27.784374Q293.53436 27.33125 294.3 27.065624Q295.08124 26.784374 296.03436 26.784374Q297.1906 26.784374 298.0656 27.175Q298.95624 27.565624 299.45624 28.3625Q299.97186 29.14375 299.97186 30.315624L299.97186 35.2375Q299.97186 35.76875 300.05 36.3625Q300.14374 36.95625 300.33124 37.39375L300.33124 37.55L298.45624 37.55Q298.3156 37.2375 298.2375 36.721874Q298.15936 36.190624 298.15936 35.7375ZM298.47186 31.14375L298.4875 32.409374L296.65936 32.409374Q295.89374 32.409374 295.28436 32.534374Q294.675 32.659374 294.26874 32.909374Q293.8625 33.14375 293.64374 33.51875Q293.425 33.878124 293.425 34.3625Q293.425 34.8625 293.64374 35.284374Q293.8781 35.690624 294.33124 35.925Q294.78436 36.159374 295.45624 36.159374Q296.28436 36.159374 296.90936 35.815624Q297.55 35.45625 297.925 34.95625Q298.3 34.440624 298.33124 33.971874L299.1125 34.83125Q299.03436 35.2375 298.72186 35.7375Q298.425 36.2375 297.925 36.690624Q297.425 37.14375 296.7375 37.45625Q296.05 37.753124 295.1906 37.753124Q294.1125 37.753124 293.3 37.33125Q292.5031 36.909374 292.05 36.20625Q291.6125 35.4875 291.6125 34.6125Q291.6125 33.753124 291.9406 33.1125Q292.28436 32.45625 292.90936 32.034374Q293.53436 31.596874 294.40936 31.378124Q295.28436 31.14375 296.3781 31.14375L298.47186 31.14375ZM304.7375 29.2375L304.7375 37.55L302.925 37.55L302.925 26.9875L304.64374 26.9875L304.7375 29.2375ZM304.3 31.8625L303.55 31.83125Q303.5656 30.753124 303.8781 29.83125Q304.1906 28.909374 304.7531 28.221874Q305.3156 27.534374 306.09686 27.159374Q306.89374 26.784374 307.84686 26.784374Q308.6281 26.784374 309.2531 27.003124Q309.8781 27.20625 310.3156 27.675Q310.76874 28.128124 311.0031 28.8625Q311.2375 29.58125 311.2375 30.628124L311.2375 37.55L309.425 37.55L309.425 30.6125Q309.425 29.76875 309.175 29.26875Q308.9406 28.76875 308.47186 28.55Q308.0031 28.315624 307.3156 28.315624Q306.64374 28.315624 306.08124 28.596874Q305.53436 28.878124 305.1281 29.378124Q304.7375 29.878124 304.51874 30.51875Q304.3 31.159374 304.3 31.8625ZM315.7375 22.55L315.7375 37.55L313.925 37.55L313.925 22.55L315.7375 22.55ZM322.20624 26.9875L317.59686 31.909374L315.01874 34.596874L314.8625 32.659374L316.70624 30.45625L319.9875 26.9875L322.20624 26.9875ZM320.55 37.55L316.78436 32.503124L317.72186 30.89375L322.675 37.55L320.55 37.55ZM335.08124 34.753124Q335.08124 34.3625 334.90936 34.01875Q334.7375 33.675 334.20624 33.409374Q333.6906 33.128124 332.64374 32.925Q331.76874 32.7375 331.05 32.4875Q330.34686 32.221874 329.84686 31.8625Q329.3625 31.503124 329.09686 31.01875Q328.84686 30.534374 328.84686 29.878124Q328.84686 29.253124 329.1125 28.690624Q329.39374 28.128124 329.90936 27.70625Q330.425 27.26875 331.14374 27.034374Q331.8625 26.784374 332.7531 26.784374Q334.01874 26.784374 334.90936 27.2375Q335.8156 27.690624 336.3 28.440624Q336.78436 29.175 336.78436 30.08125L334.97186 30.08125Q334.97186 29.64375 334.70624 29.2375Q334.45624 28.815624 333.95624 28.55Q333.47186 28.26875 332.7531 28.26875Q332.0031 28.26875 331.53436 28.503124Q331.08124 28.7375 330.8625 29.096874Q330.65936 29.440624 330.65936 29.83125Q330.65936 30.1125 330.7531 30.346874Q330.8625 30.58125 331.1281 30.76875Q331.39374 30.95625 331.8625 31.128124Q332.34686 31.284374 333.08124 31.45625Q334.39374 31.753124 335.22186 32.159374Q336.0656 32.565624 336.47186 33.159374Q336.89374 33.753124 336.89374 34.6125Q336.89374 35.3 336.59686 35.878124Q336.3156 36.45625 335.76874 36.878124Q335.22186 37.284374 334.47186 37.51875Q333.7375 37.753124 332.8 37.753124Q331.40936 37.753124 330.4406 37.253124Q329.47186 36.753124 328.97186 35.95625Q328.47186 35.159374 328.47186 34.284374L330.3 34.284374Q330.33124 35.034374 330.72186 35.471874Q331.1125 35.89375 331.675 36.08125Q332.2531 36.253124 332.8 36.253124Q333.55 36.253124 334.05 36.065624Q334.55 35.8625 334.8156 35.534374Q335.08124 35.190624 335.08124 34.753124ZM343.15936 36.253124Q343.8 36.253124 344.34686 36.003124Q344.89374 35.7375 345.2375 35.26875Q345.59686 34.8 345.64374 34.20625L347.3625 34.20625Q347.3156 35.14375 346.7375 35.95625Q346.15936 36.753124 345.22186 37.253124Q344.28436 37.753124 343.15936 37.753124Q341.97186 37.753124 341.08124 37.33125Q340.1906 36.909374 339.6125 36.175Q339.03436 35.440624 338.7375 34.4875Q338.45624 33.534374 338.45624 32.471874L338.45624 32.065624Q338.45624 31.003124 338.7375 30.05Q339.03436 29.096874 339.6125 28.3625Q340.1906 27.628124 341.08124 27.20625Q341.97186 26.784374 343.15936 26.784374Q344.39374 26.784374 345.3156 27.3Q346.2531 27.8 346.78436 28.659374Q347.3156 29.51875 347.3625 30.6125L345.64374 30.6125Q345.59686 29.95625 345.26874 29.440624Q344.95624 28.909374 344.40936 28.596874Q343.8781 28.26875 343.15936 28.26875Q342.33124 28.26875 341.76874 28.596874Q341.20624 28.925 340.8781 29.4875Q340.55 30.034374 340.40936 30.70625Q340.26874 31.3625 340.26874 32.065624L340.26874 32.471874Q340.26874 33.159374 340.39374 33.846874Q340.53436 34.51875 340.8625 35.065624Q341.1906 35.6125 341.7531 35.940624Q342.3156 36.253124 343.15936 36.253124ZM348.45624 32.378124L348.45624 32.159374Q348.45624 31.01875 348.78436 30.034374Q349.1125 29.05 349.7375 28.33125Q350.3625 27.596874 351.2531 27.190624Q352.14374 26.784374 353.2375 26.784374Q354.3625 26.784374 355.2531 27.190624Q356.14374 27.596874 356.76874 28.33125Q357.40936 29.05 357.7375 30.034374Q358.0656 31.01875 358.0656 32.159374L358.0656 32.378124Q358.0656 33.51875 357.7375 34.503124Q357.40936 35.471874 356.76874 36.20625Q356.14374 36.940624 355.2531 37.346874Q354.3781 37.753124 353.26874 37.753124Q352.14374 37.753124 351.2531 37.346874Q350.3781 36.940624 349.7375 36.20625Q349.1125 35.471874 348.78436 34.503124Q348.45624 33.51875 348.45624 32.378124ZM350.2531 32.159374L350.2531 32.378124Q350.2531 33.175 350.4406 33.878124Q350.6281 34.565624 351.0031 35.1125Q351.3781 35.64375 351.9406 35.95625Q352.51874 36.253124 353.26874 36.253124Q354.0031 36.253124 354.5656 35.95625Q355.1281 35.64375 355.5031 35.1125Q355.8781 34.565624 356.0656 33.878124Q356.2531 33.175 356.2531 32.378124L356.2531 32.159374Q356.2531 31.378124 356.0656 30.690624Q355.8781 29.9875 355.4875 29.440624Q355.1125 28.89375 354.55 28.58125Q354.0031 28.26875 353.2375 28.26875Q352.5031 28.26875 351.9406 28.58125Q351.3781 28.89375 351.0031 29.440624Q350.6281 29.9875 350.4406 30.690624Q350.2531 31.378124 350.2531 32.159374ZM361.7375 28.64375L361.7375 37.55L359.925 37.55L359.925 26.9875L361.6906 26.9875L361.7375 28.64375ZM365.03436 26.925L365.01874 28.596874Q364.8 28.55 364.59686 28.534374Q364.39374 28.51875 364.14374 28.51875Q363.51874 28.51875 363.03436 28.721874Q362.5656 28.909374 362.22186 29.26875Q361.89374 29.6125 361.70624 30.096874Q361.51874 30.58125 361.45624 31.159374L360.95624 31.45625Q360.95624 30.503124 361.14374 29.659374Q361.33124 28.815624 361.72186 28.175Q362.1281 27.51875 362.7531 27.159374Q363.3781 26.784374 364.2375 26.784374Q364.425 26.784374 364.675 26.83125Q364.9406 26.878124 365.03436 26.925ZM371.3156 37.753124Q370.20624 37.753124 369.3156 37.378124Q368.425 36.9875 367.78436 36.315624Q367.14374 35.628124 366.8 34.690624Q366.45624 33.753124 366.45624 32.64375L366.45624 32.221874Q366.45624 30.940624 366.83124 29.925Q367.22186 28.909374 367.8781 28.20625Q368.53436 27.503124 369.3625 27.14375Q370.1906 26.784374 371.08124 26.784374Q372.20624 26.784374 373.03436 27.175Q373.8625 27.565624 374.3781 28.26875Q374.90936 28.971874 375.15936 29.909374Q375.425 30.846874 375.425 31.95625L375.425 32.76875L367.53436 32.76875L367.53436 31.3L373.6125 31.3L373.6125 31.159374Q373.58124 30.45625 373.33124 29.8Q373.08124 29.128124 372.53436 28.70625Q372.0031 28.26875 371.08124 28.26875Q370.45624 28.26875 369.9406 28.534374Q369.425 28.784374 369.05 29.3Q368.6906 29.8 368.47186 30.534374Q368.26874 31.26875 368.26874 32.221874L368.26874 32.64375Q368.26874 33.39375 368.47186 34.05Q368.6906 34.70625 369.09686 35.20625Q369.5031 35.70625 370.08124 35.9875Q370.675 36.26875 371.40936 36.26875Q372.3625 36.26875 373.01874 35.878124Q373.6906 35.4875 374.1906 34.83125L375.28436 35.70625Q374.9406 36.221874 374.40936 36.690624Q373.89374 37.159374 373.1281 37.45625Q372.3625 37.753124 371.3156 37.753124ZM382.08124 31.76875L382.08124 31.8625Q382.08124 34.003124 381.59686 35.7375Q381.1281 37.45625 380.3781 38.753124Q379.64374 40.05 378.8156 40.89375Q378.0031 41.753124 377.3156 42.14375L376.925 41.05Q377.5031 40.6125 378.08124 39.815624Q378.675 39.034374 379.175 37.878124Q379.675 36.7375 379.97186 35.2375Q380.28436 33.7375 380.28436 31.878124L380.28436 31.753124Q380.28436 29.89375 379.95624 28.39375Q379.64374 26.89375 379.1281 25.753124Q378.6125 24.6125 378.03436 23.83125Q377.45624 23.034374 376.925 22.6125L377.3156 21.503124Q378.0031 21.878124 378.8156 22.7375Q379.64374 23.596874 380.3781 24.89375Q381.1281 26.190624 381.59686 27.925Q382.08124 29.64375 382.08124 31.76875Z" fill-rule="nonzero"/></svg>