<svg version="1.1" viewBox="0.0 0.0 600.0 371.0" fill="none" stroke="none" stroke-linecap="square" stroke-miterlimit="10" width="600" height="371" xmlns:xlink="http://www.w3.org/1999/xlink" xmlns="http://www.w3.org/2000/svg"><path fill="#ffffff" d="M0 0L600.0 0L600.0 371.0L0 371.0L0 0Z" fill-rule="nonzero"/><path stroke="#000000" stroke-width="1.0" stroke-linecap="butt" stroke-opacity="0.0" d="M552.5 88.5L552.5 326.5" fill-rule="nonzero"/><path stroke="#000000" stroke-width="1.0" stroke-linecap="butt" stroke-opacity="0.0" d="M523.5 88.5L523.5 326.5" fill-rule="nonzero"/><path stroke="#000000" stroke-width="1.0" stroke-linecap="butt" stroke-opacity="0.0" d="M464.5 88.5L464.5 326.5" fill-rule="nonzero"/><path stroke="#000000" stroke-width="1.0" stroke-linecap="butt" stroke-opacity="0.0" d="M435.5 88.5L435.5 326.5" fill-rule="nonzero"/><path stroke="#000000" stroke-width="1.0" stroke-linecap="butt" stroke-opacity="0.0" d="M376.5 88.5L376.5 326.5" fill-rule="nonzero"/><path stroke="#000000" stroke-width="1.0" stroke-linecap="butt" stroke-opacity="0.0" d="M347.5 88.5L347.5 326.5" fill-rule="nonzero"/><path stroke="#000000" stroke-width="1.0" stroke-linecap="butt" stroke-opacity="0.0" d="M289.5 88.5L289.5 326.5" fill-rule="nonzero"/><path stroke="#000000" stroke-width="1.0" stroke-linecap="butt" stroke-opacity="0.0" d="M260.5 88.5L260.5 326.5" fill-rule="nonzero"/><path stroke="#000000" stroke-width="1.0" stroke-linecap="butt" stroke-opacity="0.0" d="M201.5 88.5L201.5 326.5" fill-rule="nonzero"/><path stroke="#000000" stroke-width="1.0" stroke-linecap="butt" stroke-opacity="0.0" d="M172.5 88.5L172.5 326.5" fill-rule="nonzero"/><path stroke="#000000" stroke-width="1.0" stroke-linecap="butt" stroke-opacity="0.0" d="M113.5 88.5L113.5 326.5" fill-rule="nonzero"/><path stroke="#000000" stroke-width="1.0" stroke-linecap="butt" stroke-opacity="0.0" d="M84.5 88.5L84.5 326.5" fill-rule="nonzero"/><path stroke="#333333" stroke-width="1.0" stroke-linecap="butt" d="M55.5 326.5L581.5 326.5" fill-rule="nonzero"/><path stroke="#cccccc" stroke-width="1.0" stroke-linecap="butt" d="M55.5 278.5L581.5 278.5" fill-rule="nonzero"/><path stroke="#cccccc" stroke-width="1.0" stroke-linecap="butt" d="M55.5 231.5L581.5 231.5" fill-rule="nonzero"/><path stroke="#cccccc" stroke-width="1.0" stroke-linecap="butt" d="M55.5 183.5L581.5 183.5" fill-rule="nonzero"/><path stroke="#cccccc" stroke-width="1.0" stroke-linecap="butt" d="M55.5 135.5L581.5 135.5" fill-rule="nonzero"/><path stroke="#cccccc" stroke-width="1.0" stroke-linecap="butt" d="M55.5 88.5L581.5 88.5" fill-rule="nonzero"/><path stroke="#000000" stroke-width="1.0" stroke-linecap="butt" stroke-opacity="0.0" d="M55.5 310.5L581.5 310.5" fill-rule="nonzero"/><path stroke="#000000" stroke-width="1.0" stroke-linecap="butt" stroke-opacity="0.0" d="M55.5 294.5L581.5 294.5" fill-rule="nonzero"/><path stroke="#000000" stroke-width="1.0" stroke-linecap="butt" stroke-opacity="0.0" d="M55.5 262.5L581.5 262.5" fill-rule="nonzero"/><path stroke="#000000" stroke-width="1.0" stroke-linecap="butt" stroke-opacity="0.0" d="M55.5 247.5L581.5 247.5" fill-rule="nonzero"/><path stroke="#000000" stroke-width="1.0" stroke-linecap="butt" stroke-opacity="0.0" d="M55.5 215.5L581.5 215.5" fill-rule="nonzero"/><path stroke="#000000" stroke-width="1.0" stroke-linecap="butt" stroke-opacity="0.0" d="M55.5 199.5L581.5 199.5" fill-rule="nonzero"/><path stroke="#000000" stroke-width="1.0" stroke-linecap="butt" stroke-opacity="0.0" d="M55.5 167.5L581.5 167.5" fill-rule="nonzero"/><path stroke="#000000" stroke-width="1.0" stroke-linecap="butt" stroke-opacity="0.0" d="M55.5 151.5L581.5 151.5" fill-rule="nonzero"/><path stroke="#000000" stroke-width="1.0" stroke-linecap="butt" stroke-opacity="0.0" d="M55.5 120.5L581.5 120.5" fill-rule="nonzero"/><path stroke="#000000" stroke-width="1.0" stroke-linecap="butt" stroke-opacity="0.0" d="M55.5 104.5L581.5 104.5" fill-rule="nonzero"/><path stroke="#000000" stroke-width="1.0" stroke-linecap="butt" d="M581.5 326.5L55.5 326.5" fill-rule="nonzero"/><clipPath id="id_0"><path d="M55.55 88.28333L581.45 88.28333L581.45 326.45L55.55 326.45L55.55 88.28333Z" clip-rule="nonzero"/></clipPath><path stroke="#4285f4" stroke-width="2.0" stroke-linecap="butt" stroke-opacity="0.4" clip-path="url(#id_0)" d="M0 289.28598C0 289.28598 2.6666667 289.08374 4.0 288.99448C5.3333335 288.90524 6.6666665 288.82413 8.0 288.7505C9.333333 288.67685 10.666667 288.61115 12.0 288.5527C13.333333 288.49426 14.666667 288.44354 16.0 288.39987C17.333334 288.35623 18.666666 288.32007 20.0 288.29077C21.333334 288.26144 22.666666 288.23944 24.0 288.22406C25.333334 288.20868 26.666666 288.20038 28.0 288.19852C29.333334 288.19666 30.666666 288.20163 32.0 288.21286C33.333332 288.2241 34.666668 288.24194 36.0 288.26584C37.333332 288.2897 38.666668 288.32004 40.0 288.35614C41.333332 288.39227 42.666668 288.43463 44.0 288.48257C45.333332 288.5305 46.666668 288.58444 48.0 288.6438C49.333332 288.70312 50.666668 288.76825 52.0 288.83856C53.333332 288.90887 54.666668 288.98477 56.0 289.06564C57.333332 289.14648 58.666668 289.23273 60.0 289.32373C61.333332 289.4147 62.666668 289.51086 64.0 289.61154C65.333336 289.71225 66.666664 289.8179 68.0 289.92786C69.333336 290.03784 70.666664 290.15256 72.0 290.2714C73.333336 290.39023 74.666664 290.51358 76.0 290.64087C77.333336 290.76813 78.666664 290.89972 80.0 291.035C81.333336 291.17032 82.666664 291.3097 84.0 291.45258C85.333336 291.59546 86.666664 291.74225 88.0 291.8923C89.333336 292.04233 90.666664 292.19608 92.0 292.35287C93.333336 292.50967 94.666664 292.66995 96.0 292.83307C97.333336 292.9962 98.666664 293.1626 100.0 293.3316C101.333336 293.50064 102.666664 293.67273 104.0 293.84723C105.333336 294.02173 106.666664 294.19907 108.0 294.37863C109.333336 294.5582 110.666664 294.7404 112.0 294.9246C113.333336 295.1088 114.666664 295.2954 116.0 295.48383C117.333336 295.67224 118.666664 295.86285 120.0 296.05505C121.333336 296.24725 122.666664 296.44147 124.0 296.63702C125.333336 296.83258 126.666664 297.02994 128.0 297.22845C129.33333 297.42697 130.66667 297.62708 132.0 297.8281C133.33333 298.02914 134.66667 298.23154 136.0 298.43466C137.33333 298.63782 138.66667 298.8421 140.0 299.0469C141.33333 299.2517 142.66667 299.4575 144.0 299.66354C145.33333 299.86963 146.66667 300.07642 148.0 300.28333C149.33333 300.4902 150.66667 300.69763 152.0 300.90494C153.33333 301.11227 154.66667 301.3199 156.0 301.5272C157.33333 301.73447 158.66667 301.94186 160.0 302.14874C161.33333 302.3556 162.66667 302.56235 164.0 302.76834C165.33333 302.97437 166.66667 303.18005 168.0 303.38477C169.33333 303.58948 170.66667 303.79367 172.0 303.9967C173.33333 304.19974 174.66667 304.402 176.0 304.6029C177.33333 304.8038 178.66667 305.00375 180.0 305.2021C181.33333 305.40045 182.66667 305.59763 184.0 305.793C185.33333 305.98837 186.66667 306.18237 188.0 306.37436C189.33333 306.56635 190.66667 306.75674 192.0 306.94492C193.33333 307.1331 194.66667 307.31946 196.0 307.5034C197.33333 307.68735 198.66667 307.86926 200.0 308.04852C201.33333 308.2278 202.66667 308.40485 204.0 308.57904C205.33333 308.75323 206.66667 308.925 208.0 309.0937C209.33333 309.26236 210.66667 309.4284 212.0 309.59116C213.33333 309.75394 214.66667 309.91382 216.0 310.07025C217.33333 310.22665 218.66667 310.37997 220.0 310.52963C221.33333 310.67926 222.66667 310.82562 224.0 310.96805C225.33333 311.1105 226.66667 311.24945 228.0 311.38428C229.33333 311.5191 230.66667 311.6502 232.0 311.777C233.33333 311.90378 234.66667 312.02664 236.0 312.14496C237.33333 312.26328 238.66667 312.37747 240.0 312.4869C241.33333 312.59634 242.66667 312.70145 244.0 312.80157C245.33333 312.9017 246.66667 312.99728 248.0 313.08768C249.33333 313.17807 250.66667 313.26373 252.0 313.34396C253.33333 313.42422 254.66667 313.49948 256.0 313.56915C257.33334 313.63882 258.66666 313.7033 260.0 313.762C261.33334 313.82065 262.66666 313.87393 264.0 313.92117C265.33334 313.96844 266.66666 314.01007 268.0 314.0455C269.33334 314.0809 270.66666 314.1105 272.0 314.13364C273.33334 314.15677 274.66666 314.1739 276.0 314.18436C277.33334 314.1948 278.66666 314.19904 280.0 314.19638C281.33334 314.19373 282.66666 314.1846 284.0 314.16843C285.33334 314.15222 286.66666 314.1294 288.0 314.09924C289.33334 314.0691 290.66666 314.03207 292.0 313.98758C293.33334 313.94305 294.66666 313.89145 296.0 313.83212C297.33334 313.7728 298.66666 313.70618 300.0 313.63165C301.33334 313.5571 302.66666 313.47504 304.0 313.38486C305.33334 313.29468 306.66666 313.19678 308.0 313.0905C309.33334 312.98425 310.66666 312.87006 312.0 312.7473C313.33334 312.62457 314.66666 312.49368 316.0 312.35403C317.33334 312.21436 318.66666 312.06635 320.0 311.90936C321.33334 311.75235 322.66666 311.5868 324.0 311.41205C325.33334 311.2373 326.66666 311.05377 328.0 310.86084C329.33334 310.6679 330.66666 310.46597 332.0 310.25446C333.33334 310.0429 334.66666 309.82217 336.0 309.5916C337.33334 309.36105 338.66666 309.1211 340.0 308.87106C341.33334 308.62106 342.66666 308.36142 344.0 308.09155C345.33334 307.8217 346.66666 307.54196 348.0 307.2518C349.33334 306.9616 350.66666 306.6614 352.0 306.35052C353.33334 306.0396 354.66666 305.71848 356.0 305.38644C357.33334 305.0544 358.66666 304.71194 360.0 304.35834C361.33334 304.00476 362.66666 303.6405 364.0 303.26492C365.33334 302.88937 366.66666 302.5029 368.0 302.10492C369.33334 301.70694 370.66666 301.29788 372.0 300.87708C373.33334 300.45627 374.66666 300.02417 376.0 299.5801C377.33334 299.13605 378.66666 298.68048 380.0 298.21274C381.33334 297.74503 382.66666 297.26556 384.0 296.77374C385.33334 296.28192 386.66666 295.77814 388.0 295.2618C389.33334 294.74548 390.66666 294.21698 392.0 293.6757C393.33334 293.1344 394.66666 292.58078 396.0 292.01413C397.33334 291.44748 398.66666 290.86826 400.0 290.27582C401.33334 289.6834 402.66666 289.0782 404.0 288.45953C405.33334 287.8409 406.66666 287.20926 408.0 286.564C409.33334 285.91873 410.66666 285.26025 412.0 284.58792C413.33334 283.91562 414.66666 283.22986 416.0 282.53006C417.33334 281.83026 418.66666 281.11685 420.0 280.38913C421.33334 279.66144 422.66666 278.91992 424.0 278.16388C425.33334 277.40787 426.66666 276.63782 428.0 275.85306C429.33334 275.0683 430.66666 274.26926 432.0 273.45532C433.33334 272.64142 434.66666 271.81302 436.0 270.96948C437.33334 270.12598 438.66666 269.2678 440.0 268.39426C441.33334 267.52072 442.66666 266.63232 444.0 265.72836C445.33334 264.8244 446.66666 263.90533 448.0 262.97052C449.33334 262.0357 450.66666 261.08557 452.0 260.11948C453.33334 259.15338 454.66666 258.17175 456.0 257.17398C457.33334 256.17618 458.66666 255.16264 460.0 254.13274C461.33334 253.10281 462.66666 252.05695 464.0 250.99448C465.33334 249.93202 466.66666 248.8534 468.0 247.75797C469.33334 246.66254 470.66666 245.55074 472.0 244.4219C473.33334 243.29309 474.66666 242.14769 476.0 240.98505C477.33334 239.82242 478.66666 238.64299 480.0 237.44612C481.33334 236.24925 482.66666 235.03537 484.0 233.80385C485.33334 232.57231 486.66666 231.32356 488.0 230.05696C489.33334 228.79034 490.66666 227.5063 492.0 226.2042C493.33334 224.90208 494.66666 223.58234 496.0 222.2443C497.33334 220.90625 498.66666 219.55037 500.0 218.17598C501.33334 216.80159 502.66666 215.40913 504.0 213.99799C505.33334 212.58684 506.66666 211.1574 508.0 209.70905C509.33334 208.2607 510.66666 206.79385 512.0 205.30789C513.3333 203.82193 514.6667 202.31726 516.0 200.79326C517.3333 199.26926 518.6667 197.72633 520.0 196.16388C521.3333 194.60141 522.6667 193.01982 524.0 191.41847C525.3333 189.81712 526.6667 188.19644 528.0 186.55579C529.3333 184.91515 530.6667 183.25494 532.0 181.57455C533.3333 179.89418 534.6667 178.19403 536.0 176.47351C537.3333 174.75298 538.6667 173.01247 540.0 171.25137C541.3333 169.49026 542.6667 167.70897 544.0 165.90688C545.3333 164.10477 546.6667 162.28227 548.0 160.43875C549.3333 158.59525 550.6667 156.73111 552.0 154.84575C553.3333 152.96039 554.6667 151.05421 556.0 149.12659C557.3333 147.19897 558.6667 145.25032 560.0 143.28001C561.3333 141.3097 562.6667 139.31815 564.0 137.30473C565.3333 135.29132 566.6667 133.25645 568.0 131.1995C569.3333 129.14255 570.6667 127.06394 572.0 124.963036C573.3333 122.86214 574.6667 120.73936 576.0 118.59408C577.3333 116.4488 580.0 112.09136 580.0 112.09136" fill-rule="nonzero"/><path fill="#4285f4" clip-path="url(#id_0)" d="M564.0375 88.28333C564.0375 90.768616 562.02277 92.78333 559.5375 92.78333C557.05225 92.78333 555.0375 90.768616 555.0375 88.28333C555.0375 85.79805 557.05225 83.78333 559.5375 83.78333C562.02277 83.78333 564.0375 85.79805 564.0375 88.28333Z" fill-rule="nonzero"/><path fill="#4285f4" clip-path="url(#id_0)" d="M559.655 213.08267C559.655 215.56795 557.64026 217.58267 555.155 217.58267C552.66974 217.58267 550.655 215.56795 550.655 213.08267C550.655 210.59738 552.66974 208.58267 555.155 208.58267C557.64026 208.58267 559.655 210.59738 559.655 213.08267Z" fill-rule="nonzero"/><path fill="#4285f4" clip-path="url(#id_0)" d="M515.83 160.686C515.83 163.17128 513.8153 165.186 511.33 165.186C508.84473 165.186 506.83 163.17128 506.83 160.686C506.83 158.20071 508.84473 156.186 511.33 156.186C513.8153 156.186 515.83 158.20071 515.83 160.686Z" fill-rule="nonzero"/><path fill="#4285f4" clip-path="url(#id_0)" d="M472.005 275.95868C472.005 278.44394 469.9903 280.45868 467.505 280.45868C465.0197 280.45868 463.005 278.44394 463.005 275.95868C463.005 273.4734 465.0197 271.45868 467.505 271.45868C469.9903 271.45868 472.005 273.4734 472.005 275.95868Z" fill-rule="nonzero"/><path fill="#4285f4" clip-path="url(#id_0)" d="M454.475 305.49133C454.475 307.97662 452.4603 309.99133 449.975 309.99133C447.48972 309.99133 445.475 307.97662 445.475 305.49133C445.475 303.00604 447.48972 300.99133 449.975 300.99133C452.4603 300.99133 454.475 303.00604 454.475 305.49133Z" fill-rule="nonzero"/><path fill="#4285f4" clip-path="url(#id_0)" d="M371.2075 283.58C371.2075 286.06528 369.19278 288.08 366.7075 288.08C364.22223 288.08 362.2075 286.06528 362.2075 283.58C362.2075 281.09473 364.22223 279.08 366.7075 279.08C369.19278 279.08 371.2075 281.09473 371.2075 283.58Z" fill-rule="nonzero"/><path fill="#4285f4" clip-path="url(#id_0)" d="M358.06 312.16C358.06 314.6453 356.0453 316.66 353.56 316.66C351.0747 316.66 349.06 314.6453 349.06 312.16C349.06 309.6747 351.0747 307.66 353.56 307.66C356.0453 307.66 358.06 309.6747 358.06 312.16Z" fill-rule="nonzero"/><path fill="#4285f4" clip-path="url(#id_0)" d="M336.1475 315.018C336.1475 317.5033 334.13278 319.518 331.6475 319.518C329.16223 319.518 327.1475 317.5033 327.1475 315.018C327.1475 312.5327 329.16223 310.518 331.6475 310.518C334.13278 310.518 336.1475 312.5327 336.1475 315.018Z" fill-rule="nonzero"/><path fill="#4285f4" clip-path="url(#id_0)" d="M331.765 305.49133C331.765 307.97662 329.75027 309.99133 327.265 309.99133C324.77972 309.99133 322.765 307.97662 322.765 305.49133C322.765 303.00604 324.77972 300.99133 327.265 300.99133C329.75027 300.99133 331.765 303.00604 331.765 305.49133Z" fill-rule="nonzero"/><path fill="#4285f4" clip-path="url(#id_0)" d="M323.0 299.77533C323.0 302.26062 320.9853 304.27533 318.5 304.27533C316.0147 304.27533 314.0 302.26062 314.0 299.77533C314.0 297.29004 316.0147 295.27533 318.5 295.27533C320.9853 295.27533 323.0 297.29004 323.0 299.77533Z" fill-rule="nonzero"/><path fill="#4285f4" clip-path="url(#id_0)" d="M292.3225 278.81668C292.3225 281.30194 290.30777 283.31668 287.8225 283.31668C285.33722 283.31668 283.3225 281.30194 283.3225 278.81668C283.3225 276.3314 285.33722 274.31668 287.8225 274.31668C290.30777 274.31668 292.3225 276.3314 292.3225 278.81668Z" fill-rule="nonzero"/><path fill="#4285f4" clip-path="url(#id_0)" d="M213.4375 309.302C213.4375 311.7873 211.42278 313.802 208.9375 313.802C206.45222 313.802 204.4375 311.7873 204.4375 309.302C204.4375 306.8167 206.45222 304.802 208.9375 304.802C211.42278 304.802 213.4375 306.8167 213.4375 309.302Z" fill-rule="nonzero"/><path fill="#4285f4" clip-path="url(#id_0)" d="M191.525 310.25467C191.525 312.73996 189.51028 314.75467 187.025 314.75467C184.53972 314.75467 182.525 312.73996 182.525 310.25467C182.525 307.76938 184.53972 305.75467 187.025 305.75467C189.51028 305.75467 191.525 307.76938 191.525 310.25467Z" fill-rule="nonzero"/><path fill="#4285f4" clip-path="url(#id_0)" d="M178.3775 318.82867C178.3775 321.31393 176.36278 323.32867 173.8775 323.32867C171.39221 323.32867 169.3775 321.31393 169.3775 318.82867C169.3775 316.34338 171.39221 314.32867 173.8775 314.32867C176.36278 314.32867 178.3775 316.34338 178.3775 318.82867Z" fill-rule="nonzero"/><path fill="#4285f4" clip-path="url(#id_0)" d="M152.0825 284.53265C152.0825 287.01794 150.06778 289.03265 147.5825 289.03265C145.09721 289.03265 143.0825 287.01794 143.0825 284.53265C143.0825 282.0474 145.09721 280.03265 147.5825 280.03265C150.06778 280.03265 152.0825 282.0474 152.0825 284.53265Z" fill-rule="nonzero"/><path fill="#4285f4" clip-path="url(#id_0)" d="M147.7 311.20734C147.7 313.69263 145.68529 315.70734 143.2 315.70734C140.71472 315.70734 138.7 313.69263 138.7 311.20734C138.7 308.72205 140.71472 306.70734 143.2 306.70734C145.68529 306.70734 147.7 308.72205 147.7 311.20734Z" fill-rule="nonzero"/><path fill="#4285f4" clip-path="url(#id_0)" d="M138.935 315.97067C138.935 318.45596 136.92029 320.47067 134.435 320.47067C131.94972 320.47067 129.935 318.45596 129.935 315.97067C129.935 313.48538 131.94972 311.47067 134.435 311.47067C136.92029 311.47067 138.935 313.48538 138.935 315.97067Z" fill-rule="nonzero"/><path fill="#4285f4" clip-path="url(#id_0)" d="M121.405 309.302C121.405 311.7873 119.39028 313.802 116.905 313.802C114.419716 313.802 112.405 311.7873 112.405 309.302C112.405 306.8167 114.419716 304.802 116.905 304.802C119.39028 304.802 121.405 306.8167 121.405 309.302Z" fill-rule="nonzero"/><path fill="#4285f4" clip-path="url(#id_0)" d="M117.0225 313.11267C117.0225 315.59796 115.00778 317.61267 112.5225 317.61267C110.03722 317.61267 108.0225 315.59796 108.0225 313.11267C108.0225 310.62738 110.03722 308.61267 112.5225 308.61267C115.00778 308.61267 117.0225 310.62738 117.0225 313.11267Z" fill-rule="nonzero"/><path fill="#4285f4" clip-path="url(#id_0)" d="M95.11 298.82266C95.11 301.30795 93.09528 303.32266 90.61 303.32266C88.12472 303.32266 86.11 301.30795 86.11 298.82266C86.11 296.33737 88.12472 294.32266 90.61 294.32266C93.09528 294.32266 95.11 296.33737 95.11 298.82266Z" fill-rule="nonzero"/><path fill="#4285f4" clip-path="url(#id_0)" d="M90.7275 310.25467C90.7275 312.73996 88.71278 314.75467 86.2275 314.75467C83.74222 314.75467 81.7275 312.73996 81.7275 310.25467C81.7275 307.76938 83.74222 305.75467 86.2275 305.75467C88.71278 305.75467 90.7275 307.76938 90.7275 310.25467Z" fill-rule="nonzero"/><path fill="#4285f4" clip-path="url(#id_0)" d="M86.345 288.34332C86.345 290.8286 84.330284 292.84332 81.845 292.84332C79.35972 292.84332 77.345 290.8286 77.345 288.34332C77.345 285.85806 79.35972 283.84332 81.845 283.84332C84.330284 283.84332 86.345 285.85806 86.345 288.34332Z" fill-rule="nonzero"/><path fill="#4285f4" clip-path="url(#id_0)" d="M81.9625 207.36667C81.9625 209.85194 79.947784 211.86667 77.4625 211.86667C74.97722 211.86667 72.9625 209.85194 72.9625 207.36667C72.9625 204.88138 74.97722 202.86667 77.4625 202.86667C79.947784 202.86667 81.9625 204.88138 81.9625 207.36667Z" fill-rule="nonzero"/><path fill="#4285f4" clip-path="url(#id_0)" d="M77.58 304.53867C77.58 307.02396 75.565285 309.03867 73.08 309.03867C70.59472 309.03867 68.58 307.02396 68.58 304.53867C68.58 302.05338 70.59472 300.03867 73.08 300.03867C75.565285 300.03867 77.58 302.05338 77.58 304.53867Z" fill-rule="nonzero"/><path fill="#4285f4" clip-path="url(#id_0)" d="M73.1975 274.05334C73.1975 276.5386 71.182785 278.55334 68.6975 278.55334C66.21222 278.55334 64.1975 276.5386 64.1975 274.05334C64.1975 271.56805 66.21222 269.55334 68.6975 269.55334C71.182785 269.55334 73.1975 271.56805 73.1975 274.05334Z" fill-rule="nonzero"/><path fill="#4285f4" clip-path="url(#id_0)" d="M68.815 315.97067C68.815 318.45596 66.80028 320.47067 64.315 320.47067C61.82972 320.47067 59.815 318.45596 59.815 315.97067C59.815 313.48538 61.82972 311.47067 64.315 311.47067C66.80028 311.47067 68.815 313.48538 68.815 315.97067Z" fill-rule="nonzero"/><path stroke="#000000" stroke-width="1.0" stroke-linecap="butt" d="M552.5 329.5L552.5 323.5" fill-rule="nonzero"/><path stroke="#000000" stroke-width="1.0" stroke-linecap="butt" d="M523.5 329.5L523.5 323.5" fill-rule="nonzero"/><path stroke="#000000" stroke-width="1.0" stroke-linecap="butt" d="M464.5 329.5L464.5 323.5" fill-rule="nonzero"/><path stroke="#000000" stroke-width="1.0" stroke-linecap="butt" d="M435.5 329.5L435.5 323.5" fill-rule="nonzero"/><path stroke="#000000" stroke-width="1.0" stroke-linecap="butt" d="M376.5 329.5L376.5 323.5" fill-rule="nonzero"/><path stroke="#000000" stroke-width="1.0" stroke-linecap="butt" d="M347.5 329.5L347.5 323.5" fill-rule="nonzero"/><path stroke="#000000" stroke-width="1.0" stroke-linecap="butt" d="M289.5 329.5L289.5 323.5" fill-rule="nonzero"/><path stroke="#000000" stroke-width="1.0" stroke-linecap="butt" d="M260.5 329.5L260.5 323.5" fill-rule="nonzero"/><path stroke="#000000" stroke-width="1.0" stroke-linecap="butt" d="M201.5 329.5L201.5 323.5" fill-rule="nonzero"/><path stroke="#000000" stroke-width="1.0" stroke-linecap="butt" d="M172.5 329.5L172.5 323.5" fill-rule="nonzero"/><path stroke="#000000" stroke-width="1.0" stroke-linecap="butt" d="M113.5 329.5L113.5 323.5" fill-rule="nonzero"/><path stroke="#000000" stroke-width="1.0" stroke-linecap="butt" d="M84.5 329.5L84.5 323.5" fill-rule="nonzero"/><path stroke="#000000" stroke-width="1.0" stroke-linecap="butt" d="M581.5 332.5L581.5 320.5" fill-rule="nonzero"/><path stroke="#000000" stroke-width="1.0" stroke-linecap="butt" d="M493.5 332.5L493.5 320.5" fill-rule="nonzero"/><path stroke="#000000" stroke-width="1.0" stroke-linecap="butt" d="M406.5 332.5L406.5 320.5" fill-rule="nonzero"/><path stroke="#000000" stroke-width="1.0" stroke-linecap="butt" d="M318.5 332.5L318.5 320.5" fill-rule="nonzero"/><path stroke="#000000" stroke-width="1.0" stroke-linecap="butt" d="M230.5 332.5L230.5 320.5" fill-rule="nonzero"/><path stroke="#000000" stroke-width="1.0" stroke-linecap="butt" d="M143.5 332.5L143.5 320.5" fill-rule="nonzero"/><path stroke="#000000" stroke-width="1.0" stroke-linecap="butt" d="M55.5 332.5L55.5 320.5" fill-rule="nonzero"/><path fill="#000000" d="M21.534374 331.6844L21.534374 330.6375Q20.753124 330.52814 20.253124 330.27814Q19.753124 330.02814 19.39375 329.46564Q19.034374 328.8875 18.971874 328.0594L20.034374 327.8719Q20.159374 328.71564 20.471874 329.10626Q20.925 329.66876 21.534374 329.7469L21.534374 326.3875Q20.89375 326.2625 20.20625 325.8719Q19.70625 325.59064 19.425 325.10626Q19.159374 324.60626 19.159374 323.96564Q19.159374 322.84064 19.95625 322.15314Q20.4875 321.6844 21.534374 321.575L21.534374 321.075L22.159374 321.075L22.159374 321.575Q23.08125 321.65314 23.6125 322.10626Q24.315624 322.6844 24.45625 323.6844L23.3625 323.85626Q23.26875 323.23126 22.971874 322.90314Q22.675 322.575 22.159374 322.46564L22.159374 325.4969Q22.95625 325.7 23.221874 325.8094Q23.70625 326.02814 24.01875 326.34064Q24.33125 326.65314 24.4875 327.09064Q24.659374 327.5125 24.659374 328.0125Q24.659374 329.10626 23.95625 329.84064Q23.26875 330.575 22.159374 330.6219L22.159374 331.6844L21.534374 331.6844ZM21.534374 322.45Q20.925 322.54376 20.565624 322.95Q20.221874 323.34064 20.221874 323.8875Q20.221874 324.41876 20.51875 324.79376Q20.815624 325.15314 21.534374 325.3719L21.534374 322.45ZM22.159374 329.7469Q22.76875 329.66876 23.175 329.21564Q23.58125 328.7469 23.58125 328.075Q23.58125 327.4969 23.284374 327.15314Q23.003124 326.8094 22.159374 326.52814L22.159374 329.7469ZM26.05 326.21564Q26.05 324.6844 26.3625 323.7625Q26.675 322.825 27.284374 322.325Q27.909374 321.825 28.846874 321.825Q29.534374 321.825 30.05 322.10626Q30.58125 322.3875 30.925 322.91876Q31.26875 323.4344 31.45625 324.1844Q31.64375 324.9344 31.64375 326.21564Q31.64375 327.73126 31.33125 328.65314Q31.034374 329.575 30.409374 330.09064Q29.8 330.59064 28.846874 330.59064Q27.6125 330.59064 26.89375 329.7Q26.05 328.6375 26.05 326.21564ZM27.128124 326.21564Q27.128124 328.325 27.628124 329.02814Q28.128124 329.73126 28.846874 329.73126Q29.58125 329.73126 30.065624 329.02814Q30.565624 328.325 30.565624 326.21564Q30.565624 324.09064 30.065624 323.40314Q29.58125 322.7 28.83125 322.7Q28.1125 322.7 27.675 323.3094Q27.128124 324.09064 27.128124 326.21564ZM33.64375 330.45L33.64375 329.2469L34.846874 329.2469L34.846874 330.45L33.64375 330.45ZM36.05 326.21564Q36.05 324.6844 36.3625 323.7625Q36.675 322.825 37.284374 322.325Q37.909374 321.825 38.846874 321.825Q39.534374 321.825 40.05 322.10626Q40.58125 322.3875 40.925 322.91876Q41.26875 323.4344 41.45625 324.1844Q41.64375 324.9344 41.64375 326.21564Q41.64375 327.73126 41.33125 328.65314Q41.034374 329.575 40.409374 330.09064Q39.8 330.59064 38.846874 330.59064Q37.6125 330.59064 36.89375 329.7Q36.05 328.6375 36.05 326.21564ZM37.128124 326.21564Q37.128124 328.325 37.628124 329.02814Q38.128124 329.73126 38.846874 329.73126Q39.58125 329.73126 40.065624 329.02814Q40.565624 328.325 40.565624 326.21564Q40.565624 324.09064 40.065624 323.40314Q39.58125 322.7 38.83125 322.7Q38.1125 322.7 37.675 323.3094Q37.128124 324.09064 37.128124 326.21564ZM43.05 326.21564Q43.05 324.6844 43.3625 323.7625Q43.675 322.825 44.284374 322.325Q44.909374 321.825 45.846874 321.825Q46.534374 321.825 47.05 322.10626Q47.58125 322.3875 47.925 322.91876Q48.26875 323.4344 48.45625 324.1844Q48.64375 324.9344 48.64375 326.21564Q48.64375 327.73126 48.33125 328.65314Q48.034374 329.575 47.409374 330.09064Q46.8 330.59064 45.846874 330.59064Q44.6125 330.59064 43.89375 329.7Q43.05 328.6375 43.05 326.21564ZM44.128124 326.21564Q44.128124 328.325 44.628124 329.02814Q45.128124 329.73126 45.846874 329.73126Q46.58125 329.73126 47.065624 329.02814Q47.565624 328.325 47.565624 326.21564Q47.565624 324.09064 47.065624 323.40314Q46.58125 322.7 45.83125 322.7Q45.1125 322.7 44.675 323.3094Q44.128124 324.09064 44.128124 326.21564Z" fill-rule="nonzero"/><path fill="#000000" d="M21.534374 284.05106L21.534374 283.00418Q20.753124 282.8948 20.253124 282.6448Q19.753124 282.3948 19.39375 281.8323Q19.034374 281.25418 18.971874 280.42606L20.034374 280.23856Q20.159374 281.0823 20.471874 281.47293Q20.925 282.03543 21.534374 282.11356L21.534374 278.75418Q20.89375 278.62918 20.20625 278.23856Q19.70625 277.9573 19.425 277.47293Q19.159374 276.97293 19.159374 276.3323Q19.159374 275.2073 19.95625 274.5198Q20.4875 274.05106 21.534374 273.94168L21.534374 273.44168L22.159374 273.44168L22.159374 273.94168Q23.08125 274.0198 23.6125 274.47293Q24.315624 275.05106 24.45625 276.05106L23.3625 276.22293Q23.26875 275.59793 22.971874 275.2698Q22.675 274.94168 22.159374 274.8323L22.159374 277.86356Q22.95625 278.06668 23.221874 278.17606Q23.70625 278.3948 24.01875 278.7073Q24.33125 279.0198 24.4875 279.4573Q24.659374 279.87918 24.659374 280.37918Q24.659374 281.47293 23.95625 282.2073Q23.26875 282.94168 22.159374 282.98856L22.159374 284.05106L21.534374 284.05106ZM21.534374 274.81668Q20.925 274.91043 20.565624 275.31668Q20.221874 275.7073 20.221874 276.25418Q20.221874 276.78543 20.51875 277.16043Q20.815624 277.5198 21.534374 277.73856L21.534374 274.81668ZM22.159374 282.11356Q22.76875 282.03543 23.175 281.5823Q23.58125 281.11356 23.58125 280.44168Q23.58125 279.86356 23.284374 279.5198Q23.003124 279.17606 22.159374 278.8948L22.159374 282.11356ZM26.05 278.5823Q26.05 277.05106 26.3625 276.12918Q26.675 275.19168 27.284374 274.69168Q27.909374 274.19168 28.846874 274.19168Q29.534374 274.19168 30.05 274.47293Q30.58125 274.75418 30.925 275.28543Q31.26875 275.80106 31.45625 276.55106Q31.64375 277.30106 31.64375 278.5823Q31.64375 280.09793 31.33125 281.0198Q31.034374 281.94168 30.409374 282.4573Q29.8 282.9573 28.846874 282.9573Q27.6125 282.9573 26.89375 282.06668Q26.05 281.00418 26.05 278.5823ZM27.128124 278.5823Q27.128124 280.69168 27.628124 281.3948Q28.128124 282.09793 28.846874 282.09793Q29.58125 282.09793 30.065624 281.3948Q30.565624 280.69168 30.565624 278.5823Q30.565624 276.4573 30.065624 275.7698Q29.58125 275.06668 28.83125 275.06668Q28.1125 275.06668 27.675 275.67606Q27.128124 276.4573 27.128124 278.5823ZM33.64375 282.81668L33.64375 281.61356L34.846874 281.61356L34.846874 282.81668L33.64375 282.81668ZM36.05 280.56668L37.159374 280.47293Q37.284374 281.28543 37.721874 281.69168Q38.175 282.09793 38.815624 282.09793Q39.565624 282.09793 40.096874 281.5198Q40.628124 280.94168 40.628124 280.00418Q40.628124 279.09793 40.1125 278.5823Q39.6125 278.05106 38.784374 278.05106Q38.284374 278.05106 37.8625 278.28543Q37.45625 278.5198 37.221874 278.87918L36.2375 278.75418L37.065624 274.34793L41.346874 274.34793L41.346874 275.34793L37.909374 275.34793L37.45625 277.66043Q38.221874 277.11356 39.065624 277.11356Q40.190624 277.11356 40.95625 277.8948Q41.7375 278.67606 41.7375 279.91043Q41.7375 281.06668 41.065624 281.92606Q40.2375 282.9573 38.815624 282.9573Q37.64375 282.9573 36.89375 282.30106Q36.159374 281.6448 36.05 280.56668ZM43.05 278.5823Q43.05 277.05106 43.3625 276.12918Q43.675 275.19168 44.284374 274.69168Q44.909374 274.19168 45.846874 274.19168Q46.534374 274.19168 47.05 274.47293Q47.58125 274.75418 47.925 275.28543Q48.26875 275.80106 48.45625 276.55106Q48.64375 277.30106 48.64375 278.5823Q48.64375 280.09793 48.33125 281.0198Q48.034374 281.94168 47.409374 282.4573Q46.8 282.9573 45.846874 282.9573Q44.6125 282.9573 43.89375 282.06668Q43.05 281.00418 43.05 278.5823ZM44.128124 278.5823Q44.128124 280.69168 44.628124 281.3948Q45.128124 282.09793 45.846874 282.09793Q46.58125 282.09793 47.065624 281.3948Q47.565624 280.69168 47.565624 278.5823Q47.565624 276.4573 47.065624 275.7698Q46.58125 275.06668 45.83125 275.06668Q45.1125 275.06668 44.675 275.67606Q44.128124 276.4573 44.128124 278.5823Z" fill-rule="nonzero"/><path fill="#000000" d="M21.534374 236.41771L21.534374 235.37083Q20.753124 235.26146 20.253124 235.01146Q19.753124 234.76146 19.39375 234.19896Q19.034374 233.62083 18.971874 232.79271L20.034374 232.60521Q20.159374 233.44896 20.471874 233.83958Q20.925 234.40208 21.534374 234.48021L21.534374 231.12083Q20.89375 230.99583 20.20625 230.60521Q19.70625 230.32396 19.425 229.83958Q19.159374 229.33958 19.159374 228.69896Q19.159374 227.57396 19.95625 226.88646Q20.4875 226.41771 21.534374 226.30833L21.534374 225.80833L22.159374 225.80833L22.159374 226.30833Q23.08125 226.38646 23.6125 226.83958Q24.315624 227.41771 24.45625 228.41771L23.3625 228.58958Q23.26875 227.96458 22.971874 227.63646Q22.675 227.30833 22.159374 227.19896L22.159374 230.23021Q22.95625 230.43333 23.221874 230.54271Q23.70625 230.76146 24.01875 231.07396Q24.33125 231.38646 24.4875 231.82396Q24.659374 232.24583 24.659374 232.74583Q24.659374 233.83958 23.95625 234.57396Q23.26875 235.30833 22.159374 235.35521L22.159374 236.41771L21.534374 236.41771ZM21.534374 227.18333Q20.925 227.27708 20.565624 227.68333Q20.221874 228.07396 20.221874 228.62083Q20.221874 229.15208 20.51875 229.52708Q20.815624 229.88646 21.534374 230.10521L21.534374 227.18333ZM22.159374 234.48021Q22.76875 234.40208 23.175 233.94896Q23.58125 233.48021 23.58125 232.80833Q23.58125 232.23021 23.284374 231.88646Q23.003124 231.54271 22.159374 231.26146L22.159374 234.48021ZM30.01875 235.18333L28.971874 235.18333L28.971874 228.46458Q28.58125 228.82396 27.95625 229.19896Q27.346874 229.55833 26.8625 229.73021L26.8625 228.71458Q27.7375 228.29271 28.39375 227.71458Q29.065624 227.12083 29.346874 226.55833L30.01875 226.55833L30.01875 235.18333ZM33.64375 235.18333L33.64375 233.98021L34.846874 233.98021L34.846874 235.18333L33.64375 235.18333ZM36.05 230.94896Q36.05 229.41771 36.3625 228.49583Q36.675 227.55833 37.284374 227.05833Q37.909374 226.55833 38.846874 226.55833Q39.534374 226.55833 40.05 226.83958Q40.58125 227.12083 40.925 227.65208Q41.26875 228.16771 41.45625 228.91771Q41.64375 229.66771 41.64375 230.94896Q41.64375 232.46458 41.33125 233.38646Q41.034374 234.30833 40.409374 234.82396Q39.8 235.32396 38.846874 235.32396Q37.6125 235.32396 36.89375 234.43333Q36.05 233.37083 36.05 230.94896ZM37.128124 230.94896Q37.128124 233.05833 37.628124 233.76146Q38.128124 234.46458 38.846874 234.46458Q39.58125 234.46458 40.065624 233.76146Q40.565624 233.05833 40.565624 230.94896Q40.565624 228.82396 40.065624 228.13646Q39.58125 227.43333 38.83125 227.43333Q38.1125 227.43333 37.675 228.04271Q37.128124 228.82396 37.128124 230.94896ZM43.05 230.94896Q43.05 229.41771 43.3625 228.49583Q43.675 227.55833 44.284374 227.05833Q44.909374 226.55833 45.846874 226.55833Q46.534374 226.55833 47.05 226.83958Q47.58125 227.12083 47.925 227.65208Q48.26875 228.16771 48.45625 228.91771Q48.64375 229.66771 48.64375 230.94896Q48.64375 232.46458 48.33125 233.38646Q48.034374 234.30833 47.409374 234.82396Q46.8 235.32396 45.846874 235.32396Q44.6125 235.32396 43.89375 234.43333Q43.05 233.37083 43.05 230.94896ZM44.128124 230.94896Q44.128124 233.05833 44.628124 233.76146Q45.128124 234.46458 45.846874 234.46458Q46.58125 234.46458 47.065624 233.76146Q47.565624 233.05833 47.565624 230.94896Q47.565624 228.82396 47.065624 228.13646Q46.58125 227.43333 45.83125 227.43333Q45.1125 227.43333 44.675 228.04271Q44.128124 228.82396 44.128124 230.94896Z" fill-rule="nonzero"/><path fill="#000000" d="M21.534374 188.78438L21.534374 187.7375Q20.753124 187.62813 20.253124 187.37813Q19.753124 187.12813 19.39375 186.56563Q19.034374 185.9875 18.971874 185.15938L20.034374 184.97188Q20.159374 185.81563 20.471874 186.20625Q20.925 186.76875 21.534374 186.84688L21.534374 183.4875Q20.89375 183.3625 20.20625 182.97188Q19.70625 182.69063 19.425 182.20625Q19.159374 181.70625 19.159374 181.06563Q19.159374 179.94063 19.95625 179.25313Q20.4875 178.78438 21.534374 178.675L21.534374 178.175L22.159374 178.175L22.159374 178.675Q23.08125 178.75313 23.6125 179.20625Q24.315624 179.78438 24.45625 180.78438L23.3625 180.95625Q23.26875 180.33125 22.971874 180.00313Q22.675 179.675 22.159374 179.56563L22.159374 182.59688Q22.95625 182.8 23.221874 182.90938Q23.70625 183.12813 24.01875 183.44063Q24.33125 183.75313 24.4875 184.19063Q24.659374 184.6125 24.659374 185.1125Q24.659374 186.20625 23.95625 186.94063Q23.26875 187.675 22.159374 187.72188L22.159374 188.78438L21.534374 188.78438ZM21.534374 179.55Q20.925 179.64375 20.565624 180.05Q20.221874 180.44063 20.221874 180.9875Q20.221874 181.51875 20.51875 181.89375Q20.815624 182.25313 21.534374 182.47188L21.534374 179.55ZM22.159374 186.84688Q22.76875 186.76875 23.175 186.31563Q23.58125 185.84688 23.58125 185.175Q23.58125 184.59688 23.284374 184.25313Q23.003124 183.90938 22.159374 183.62813L22.159374 186.84688ZM30.01875 187.55L28.971874 187.55L28.971874 180.83125Q28.58125 181.19063 27.95625 181.56563Q27.346874 181.925 26.8625 182.09688L26.8625 181.08125Q27.7375 180.65938 28.39375 180.08125Q29.065624 179.4875 29.346874 178.925L30.01875 178.925L30.01875 187.55ZM33.64375 187.55L33.64375 186.34688L34.846874 186.34688L34.846874 187.55L33.64375 187.55ZM36.05 185.3L37.159374 185.20625Q37.284374 186.01875 37.721874 186.425Q38.175 186.83125 38.815624 186.83125Q39.565624 186.83125 40.096874 186.25313Q40.628124 185.675 40.628124 184.7375Q40.628124 183.83125 40.1125 183.31563Q39.6125 182.78438 38.784374 182.78438Q38.284374 182.78438 37.8625 183.01875Q37.45625 183.25313 37.221874 183.6125L36.2375 183.4875L37.065624 179.08125L41.346874 179.08125L41.346874 180.08125L37.909374 180.08125L37.45625 182.39375Q38.221874 181.84688 39.065624 181.84688Q40.190624 181.84688 40.95625 182.62813Q41.7375 183.40938 41.7375 184.64375Q41.7375 185.8 41.065624 186.65938Q40.2375 187.69063 38.815624 187.69063Q37.64375 187.69063 36.89375 187.03438Q36.159374 186.37813 36.05 185.3ZM43.05 183.31563Q43.05 181.78438 43.3625 180.8625Q43.675 179.925 44.284374 179.425Q44.909374 178.925 45.846874 178.925Q46.534374 178.925 47.05 179.20625Q47.58125 179.4875 47.925 180.01875Q48.26875 180.53438 48.45625 181.28438Q48.64375 182.03438 48.64375 183.31563Q48.64375 184.83125 48.33125 185.75313Q48.034374 186.675 47.409374 187.19063Q46.8 187.69063 45.846874 187.69063Q44.6125 187.69063 43.89375 186.8Q43.05 185.7375 43.05 183.31563ZM44.128124 183.31563Q44.128124 185.425 44.628124 186.12813Q45.128124 186.83125 45.846874 186.83125Q46.58125 186.83125 47.065624 186.12813Q47.565624 185.425 47.565624 183.31563Q47.565624 181.19063 47.065624 180.50313Q46.58125 179.8 45.83125 179.8Q45.1125 179.8 44.675 180.40938Q44.128124 181.19063 44.128124 183.31563Z" fill-rule="nonzero"/><path fill="#000000" d="M21.534374 141.15105L21.534374 140.10417Q20.753124 139.9948 20.253124 139.7448Q19.753124 139.4948 19.39375 138.9323Q19.034374 138.35417 18.971874 137.52605L20.034374 137.33855Q20.159374 138.1823 20.471874 138.57292Q20.925 139.13542 21.534374 139.21355L21.534374 135.85417Q20.89375 135.72917 20.20625 135.33855Q19.70625 135.0573 19.425 134.57292Q19.159374 134.07292 19.159374 133.4323Q19.159374 132.3073 19.95625 131.6198Q20.4875 131.15105 21.534374 131.04167L21.534374 130.54167L22.159374 130.54167L22.159374 131.04167Q23.08125 131.1198 23.6125 131.57292Q24.315624 132.15105 24.45625 133.15105L23.3625 133.32292Q23.26875 132.69792 22.971874 132.3698Q22.675 132.04167 22.159374 131.9323L22.159374 134.96355Q22.95625 135.16667 23.221874 135.27605Q23.70625 135.4948 24.01875 135.8073Q24.33125 136.1198 24.4875 136.5573Q24.659374 136.97917 24.659374 137.47917Q24.659374 138.57292 23.95625 139.3073Q23.26875 140.04167 22.159374 140.08855L22.159374 141.15105L21.534374 141.15105ZM21.534374 131.91667Q20.925 132.01042 20.565624 132.41667Q20.221874 132.8073 20.221874 133.35417Q20.221874 133.88542 20.51875 134.26042Q20.815624 134.6198 21.534374 134.83855L21.534374 131.91667ZM22.159374 139.21355Q22.76875 139.13542 23.175 138.6823Q23.58125 138.21355 23.58125 137.54167Q23.58125 136.96355 23.284374 136.6198Q23.003124 136.27605 22.159374 135.9948L22.159374 139.21355ZM31.596874 138.90105L31.596874 139.91667L25.909374 139.91667Q25.909374 139.54167 26.034374 139.1823Q26.253124 138.60417 26.721874 138.04167Q27.20625 137.47917 28.1125 136.7448Q29.51875 135.58855 30.003124 134.91667Q30.503124 134.2448 30.503124 133.65105Q30.503124 133.02605 30.05 132.60417Q29.596874 132.16667 28.878124 132.16667Q28.1125 132.16667 27.659374 132.6198Q27.20625 133.07292 27.190624 133.88542L26.1125 133.77605Q26.221874 132.5573 26.940624 131.9323Q27.675 131.29167 28.909374 131.29167Q30.14375 131.29167 30.8625 131.97917Q31.58125 132.66667 31.58125 133.6823Q31.58125 134.19792 31.3625 134.69792Q31.159374 135.1823 30.659374 135.7448Q30.175 136.29167 29.05 137.2448Q28.096874 138.04167 27.815624 138.33855Q27.55 138.6198 27.378124 138.90105L31.596874 138.90105ZM33.64375 139.91667L33.64375 138.71355L34.846874 138.71355L34.846874 139.91667L33.64375 139.91667ZM36.05 135.6823Q36.05 134.15105 36.3625 133.22917Q36.675 132.29167 37.284374 131.79167Q37.909374 131.29167 38.846874 131.29167Q39.534374 131.29167 40.05 131.57292Q40.58125 131.85417 40.925 132.38542Q41.26875 132.90105 41.45625 133.65105Q41.64375 134.40105 41.64375 135.6823Q41.64375 137.19792 41.33125 138.1198Q41.034374 139.04167 40.409374 139.5573Q39.8 140.0573 38.846874 140.0573Q37.6125 140.0573 36.89375 139.16667Q36.05 138.10417 36.05 135.6823ZM37.128124 135.6823Q37.128124 137.79167 37.628124 138.4948Q38.128124 139.19792 38.846874 139.19792Q39.58125 139.19792 40.065624 138.4948Q40.565624 137.79167 40.565624 135.6823Q40.565624 133.5573 40.065624 132.8698Q39.58125 132.16667 38.83125 132.16667Q38.1125 132.16667 37.675 132.77605Q37.128124 133.5573 37.128124 135.6823ZM43.05 135.6823Q43.05 134.15105 43.3625 133.22917Q43.675 132.29167 44.284374 131.79167Q44.909374 131.29167 45.846874 131.29167Q46.534374 131.29167 47.05 131.57292Q47.58125 131.85417 47.925 132.38542Q48.26875 132.90105 48.45625 133.65105Q48.64375 134.40105 48.64375 135.6823Q48.64375 137.19792 48.33125 138.1198Q48.034374 139.04167 47.409374 139.5573Q46.8 140.0573 45.846874 140.0573Q44.6125 140.0573 43.89375 139.16667Q43.05 138.10417 43.05 135.6823ZM44.128124 135.6823Q44.128124 137.79167 44.628124 138.4948Q45.128124 139.19792 45.846874 139.19792Q46.58125 139.19792 47.065624 138.4948Q47.565624 137.79167 47.565624 135.6823Q47.565624 133.5573 47.065624 132.8698Q46.58125 132.16667 45.83125 132.16667Q45.1125 132.16667 44.675 132.77605Q44.128124 133.5573 44.128124 135.6823Z" fill-rule="nonzero"/><path fill="#000000" d="M21.534374 93.51771L21.534374 92.47083Q20.753124 92.36146 20.253124 92.11146Q19.753124 91.86146 19.39375 91.29896Q19.034374 90.72083 18.971874 89.89271L20.034374 89.70521Q20.159374 90.54896 20.471874 90.93958Q20.925 91.50208 21.534374 91.58021L21.534374 88.22083Q20.89375 88.09583 20.20625 87.70521Q19.70625 87.42396 19.425 86.93958Q19.159374 86.43958 19.159374 85.79896Q19.159374 84.67396 19.95625 83.98646Q20.4875 83.51771 21.534374 83.40833L21.534374 82.90833L22.159374 82.90833L22.159374 83.40833Q23.08125 83.48646 23.6125 83.93958Q24.315624 84.51771 24.45625 85.51771L23.3625 85.68958Q23.26875 85.06458 22.971874 84.73646Q22.675 84.40833 22.159374 84.29896L22.159374 87.33021Q22.95625 87.53333 23.221874 87.64271Q23.70625 87.86146 24.01875 88.17396Q24.33125 88.48646 24.4875 88.92396Q24.659374 89.34583 24.659374 89.84583Q24.659374 90.93958 23.95625 91.67396Q23.26875 92.40833 22.159374 92.45521L22.159374 93.51771L21.534374 93.51771ZM21.534374 84.28333Q20.925 84.37708 20.565624 84.78333Q20.221874 85.17396 20.221874 85.72083Q20.221874 86.25208 20.51875 86.62708Q20.815624 86.98646 21.534374 87.20521L21.534374 84.28333ZM22.159374 91.58021Q22.76875 91.50208 23.175 91.04896Q23.58125 90.58021 23.58125 89.90833Q23.58125 89.33021 23.284374 88.98646Q23.003124 88.64271 22.159374 88.36146L22.159374 91.58021ZM31.596874 91.26771L31.596874 92.28333L25.909374 92.28333Q25.909374 91.90833 26.034374 91.54896Q26.253124 90.97083 26.721874 90.40833Q27.20625 89.84583 28.1125 89.11146Q29.51875 87.95521 30.003124 87.28333Q30.503124 86.61146 30.503124 86.01771Q30.503124 85.39271 30.05 84.97083Q29.596874 84.53333 28.878124 84.53333Q28.1125 84.53333 27.659374 84.98646Q27.20625 85.43958 27.190624 86.25208L26.1125 86.14271Q26.221874 84.92396 26.940624 84.29896Q27.675 83.65833 28.909374 83.65833Q30.14375 83.65833 30.8625 84.34583Q31.58125 85.03333 31.58125 86.04896Q31.58125 86.56458 31.3625 87.06458Q31.159374 87.54896 30.659374 88.11146Q30.175 88.65833 29.05 89.61146Q28.096874 90.40833 27.815624 90.70521Q27.55 90.98646 27.378124 91.26771L31.596874 91.26771ZM33.64375 92.28333L33.64375 91.08021L34.846874 91.08021L34.846874 92.28333L33.64375 92.28333ZM36.05 90.03333L37.159374 89.93958Q37.284374 90.75208 37.721874 91.15833Q38.175 91.56458 38.815624 91.56458Q39.565624 91.56458 40.096874 90.98646Q40.628124 90.40833 40.628124 89.47083Q40.628124 88.56458 40.1125 88.04896Q39.6125 87.51771 38.784374 87.51771Q38.284374 87.51771 37.8625 87.75208Q37.45625 87.98646 37.221874 88.34583L36.2375 88.22083L37.065624 83.81458L41.346874 83.81458L41.346874 84.81458L37.909374 84.81458L37.45625 87.12708Q38.221874 86.58021 39.065624 86.58021Q40.190624 86.58021 40.95625 87.36146Q41.7375 88.14271 41.7375 89.37708Q41.7375 90.53333 41.065624 91.39271Q40.2375 92.42396 38.815624 92.42396Q37.64375 92.42396 36.89375 91.76771Q36.159374 91.11146 36.05 90.03333ZM43.05 88.04896Q43.05 86.51771 43.3625 85.59583Q43.675 84.65833 44.284374 84.15833Q44.909374 83.65833 45.846874 83.65833Q46.534374 83.65833 47.05 83.93958Q47.58125 84.22083 47.925 84.75208Q48.26875 85.26771 48.45625 86.01771Q48.64375 86.76771 48.64375 88.04896Q48.64375 89.56458 48.33125 90.48646Q48.034374 91.40833 47.409374 91.92396Q46.8 92.42396 45.846874 92.42396Q44.6125 92.42396 43.89375 91.53333Q43.05 90.47083 43.05 88.04896ZM44.128124 88.04896Q44.128124 90.15833 44.628124 90.86146Q45.128124 91.56458 45.846874 91.56458Q46.58125 91.56458 47.065624 90.86146Q47.565624 90.15833 47.565624 88.04896Q47.565624 85.92396 47.065624 85.23646Q46.58125 84.53333 45.83125 84.53333Q45.1125 84.53333 44.675 85.14271Q44.128124 85.92396 44.128124 88.04896Z" fill-rule="nonzero"/><path fill="#000000" d="M578.45 345.21564Q578.45 343.6844 578.7625 342.7625Q579.075 341.825 579.6844 341.325Q580.3094 340.825 581.2469 340.825Q581.9344 340.825 582.45 341.10626Q582.98126 341.3875 583.325 341.91876Q583.66876 342.4344 583.85626 343.1844Q584.04376 343.9344 584.04376 345.21564Q584.04376 346.73126 583.73126 347.65314Q583.4344 348.575 582.8094 349.09064Q582.2 349.59064 581.2469 349.59064Q580.0125 349.59064 579.29376 348.7Q578.45 347.6375 578.45 345.21564ZM579.52814 345.21564Q579.52814 347.325 580.02814 348.02814Q580.52814 348.73126 581.2469 348.73126Q581.98126 348.73126 582.46564 348.02814Q582.96564 347.325 582.96564 345.21564Q582.96564 343.09064 582.46564 342.40314Q581.98126 341.7 581.23126 341.7Q580.5125 341.7 580.075 342.3094Q579.52814 343.09064 579.52814 345.21564Z" fill-rule="nonzero"/><path fill="#000000" d="M492.84686 348.4344L492.84686 349.45L487.15936 349.45Q487.15936 349.075 487.28436 348.71564Q487.5031 348.1375 487.97186 347.575Q488.45624 347.0125 489.3625 346.27814Q490.76874 345.1219 491.2531 344.45Q491.7531 343.77814 491.7531 343.1844Q491.7531 342.5594 491.3 342.1375Q490.84686 341.7 490.1281 341.7Q489.3625 341.7 488.90936 342.15314Q488.45624 342.60626 488.4406 343.41876L487.3625 343.3094Q487.47186 342.09064 488.1906 341.46564Q488.925 340.825 490.15936 340.825Q491.39374 340.825 492.1125 341.5125Q492.83124 342.2 492.83124 343.21564Q492.83124 343.73126 492.6125 344.23126Q492.40936 344.71564 491.90936 345.27814Q491.425 345.825 490.3 346.77814Q489.34686 347.575 489.0656 347.8719Q488.8 348.15314 488.6281 348.4344L492.84686 348.4344ZM494.3 345.21564Q494.3 343.6844 494.6125 342.7625Q494.925 341.825 495.53436 341.325Q496.15936 340.825 497.09686 340.825Q497.78436 340.825 498.3 341.10626Q498.83124 341.3875 499.175 341.91876Q499.51874 342.4344 499.70624 343.1844Q499.89374 343.9344 499.89374 345.21564Q499.89374 346.73126 499.58124 347.65314Q499.28436 348.575 498.65936 349.09064Q498.05 349.59064 497.09686 349.59064Q495.8625 349.59064 495.14374 348.7Q494.3 347.6375 494.3 345.21564ZM495.3781 345.21564Q495.3781 347.325 495.8781 348.02814Q496.3781 348.73126 497.09686 348.73126Q497.83124 348.73126 498.3156 348.02814Q498.8156 347.325 498.8156 345.21564Q498.8156 343.09064 498.3156 342.40314Q497.83124 341.7 497.08124 341.7Q496.3625 341.7 495.925 342.3094Q495.3781 343.09064 495.3781 345.21564Z" fill-rule="nonzero"/><path fill="#000000" d="M403.025 349.45L403.025 347.3875L399.30624 347.3875L399.30624 346.41876L403.22812 340.85626L404.0875 340.85626L404.0875 346.41876L405.24374 346.41876L405.24374 347.3875L404.0875 347.3875L404.0875 349.45L403.025 349.45ZM403.025 346.41876L403.025 342.5594L400.3375 346.41876L403.025 346.41876ZM406.65 345.21564Q406.65 343.6844 406.9625 342.7625Q407.275 341.825 407.88437 341.325Q408.50937 340.825 409.44687 340.825Q410.13437 340.825 410.65 341.10626Q411.18124 341.3875 411.525 341.91876Q411.86874 342.4344 412.05624 343.1844Q412.24374 343.9344 412.24374 345.21564Q412.24374 346.73126 411.93124 347.65314Q411.63437 348.575 411.00937 349.09064Q410.4 349.59064 409.44687 349.59064Q408.2125 349.59064 407.49374 348.7Q406.65 347.6375 406.65 345.21564ZM407.72812 345.21564Q407.72812 347.325 408.22812 348.02814Q408.72812 348.73126 409.44687 348.73126Q410.18124 348.73126 410.66562 348.02814Q411.16562 347.325 411.16562 345.21564Q411.16562 343.09064 410.66562 342.40314Q410.18124 341.7 409.43124 341.7Q408.7125 341.7 408.275 342.3094Q407.72812 343.09064 407.72812 345.21564Z" fill-rule="nonzero"/><path fill="#000000" d="M317.46875 342.96564L316.42188 343.04376Q316.28125 342.41876 316.03125 342.1375Q315.59375 341.6844 314.96875 341.6844Q314.46875 341.6844 314.07812 341.96564Q313.59375 342.34064 313.29688 343.04376Q313.01562 343.73126 313.0 345.0125Q313.375 344.4344 313.92188 344.15314Q314.48438 343.8719 315.09375 343.8719Q316.14062 343.8719 316.875 344.65314Q317.625 345.4344 317.625 346.65314Q317.625 347.46564 317.26562 348.16876Q316.92188 348.85626 316.3125 349.23126Q315.70312 349.59064 314.9375 349.59064Q313.60938 349.59064 312.78125 348.6219Q311.95312 347.65314 311.95312 345.4344Q311.95312 342.9344 312.875 341.8094Q313.67188 340.825 315.03125 340.825Q316.04688 340.825 316.6875 341.40314Q317.34375 341.96564 317.46875 342.96564ZM313.17188 346.66876Q313.17188 347.21564 313.39062 347.71564Q313.625 348.2 314.03125 348.46564Q314.45312 348.73126 314.92188 348.73126Q315.57812 348.73126 316.0625 348.2Q316.54688 347.65314 316.54688 346.73126Q316.54688 345.84064 316.0625 345.325Q315.59375 344.8094 314.875 344.8094Q314.15625 344.8094 313.65625 345.325Q313.17188 345.84064 313.17188 346.66876ZM319.0 345.21564Q319.0 343.6844 319.3125 342.7625Q319.625 341.825 320.23438 341.325Q320.85938 340.825 321.79688 340.825Q322.48438 340.825 323.0 341.10626Q323.53125 341.3875 323.875 341.91876Q324.21875 342.4344 324.40625 343.1844Q324.59375 343.9344 324.59375 345.21564Q324.59375 346.73126 324.28125 347.65314Q323.98438 348.575 323.35938 349.09064Q322.75 349.59064 321.79688 349.59064Q320.5625 349.59064 319.84375 348.7Q319.0 347.6375 319.0 345.21564ZM320.07812 345.21564Q320.07812 347.325 320.57812 348.02814Q321.07812 348.73126 321.79688 348.73126Q322.53125 348.73126 323.01562 348.02814Q323.51562 347.325 323.51562 345.21564Q323.51562 343.09064 323.01562 342.40314Q322.53125 341.7 321.78125 341.7Q321.0625 341.7 320.625 342.3094Q320.07812 343.09064 320.07812 345.21564Z" fill-rule="nonzero"/><path fill="#000000" d="M225.975 344.79376Q225.31876 344.54376 224.99063 344.10626Q224.67813 343.65314 224.67813 343.04376Q224.67813 342.10626 225.35 341.46564Q226.0375 340.825 227.14688 340.825Q228.27188 340.825 228.95938 341.48126Q229.64688 342.1375 229.64688 343.075Q229.64688 343.66876 229.33438 344.10626Q229.02188 344.54376 228.38126 344.79376Q229.17813 345.04376 229.58438 345.6219Q229.99063 346.2 229.99063 346.9969Q229.99063 348.09064 229.20938 348.84064Q228.44376 349.59064 227.1625 349.59064Q225.89688 349.59064 225.11563 348.84064Q224.33438 348.09064 224.33438 346.96564Q224.33438 346.1219 224.75626 345.5594Q225.19376 344.9969 225.975 344.79376ZM225.75626 342.9969Q225.75626 343.60626 226.14688 343.9969Q226.55313 344.3875 227.17813 344.3875Q227.7875 344.3875 228.17813 344.0125Q228.56876 343.6219 228.56876 343.0594Q228.56876 342.48126 228.1625 342.09064Q227.75626 341.6844 227.1625 341.6844Q226.55313 341.6844 226.14688 342.075Q225.75626 342.46564 225.75626 342.9969ZM225.42813 346.96564Q225.42813 347.41876 225.63126 347.84064Q225.85 348.2625 226.27188 348.4969Q226.69376 348.73126 227.17813 348.73126Q227.92813 348.73126 228.4125 348.2469Q228.9125 347.7625 228.9125 347.0125Q228.9125 346.2469 228.4125 345.7469Q227.9125 345.2469 227.14688 345.2469Q226.39688 345.2469 225.9125 345.7469Q225.42813 346.23126 225.42813 346.96564ZM231.35 345.21564Q231.35 343.6844 231.6625 342.7625Q231.975 341.825 232.58438 341.325Q233.20938 340.825 234.14688 340.825Q234.83438 340.825 235.35 341.10626Q235.88126 341.3875 236.225 341.91876Q236.56876 342.4344 236.75626 343.1844Q236.94376 343.9344 236.94376 345.21564Q236.94376 346.73126 236.63126 347.65314Q236.33438 348.575 235.70938 349.09064Q235.1 349.59064 234.14688 349.59064Q232.9125 349.59064 232.19376 348.7Q231.35 347.6375 231.35 345.21564ZM232.42813 345.21564Q232.42813 347.325 232.92813 348.02814Q233.42813 348.73126 234.14688 348.73126Q234.88126 348.73126 235.36563 348.02814Q235.86563 347.325 235.86563 345.21564Q235.86563 343.09064 235.36563 342.40314Q234.88126 341.7 234.13126 341.7Q233.4125 341.7 232.975 342.3094Q232.42813 343.09064 232.42813 345.21564Z" fill-rule="nonzero"/><path fill="#000000" d="M137.16875 349.45L136.12187 349.45L136.12187 342.73126Q135.73125 343.09064 135.10625 343.46564Q134.49687 343.825 134.0125 343.9969L134.0125 342.98126Q134.8875 342.5594 135.54375 341.98126Q136.21562 341.3875 136.49687 340.825L137.16875 340.825L137.16875 349.45ZM140.2 345.21564Q140.2 343.6844 140.5125 342.7625Q140.825 341.825 141.43437 341.325Q142.05937 340.825 142.99687 340.825Q143.68437 340.825 144.2 341.10626Q144.73125 341.3875 145.075 341.91876Q145.41875 342.4344 145.60625 343.1844Q145.79375 343.9344 145.79375 345.21564Q145.79375 346.73126 145.48125 347.65314Q145.18437 348.575 144.55937 349.09064Q143.95 349.59064 142.99687 349.59064Q141.7625 349.59064 141.04375 348.7Q140.2 347.6375 140.2 345.21564ZM141.27812 345.21564Q141.27812 347.325 141.77812 348.02814Q142.27812 348.73126 142.99687 348.73126Q143.73125 348.73126 144.21562 348.02814Q144.71562 347.325 144.71562 345.21564Q144.71562 343.09064 144.21562 342.40314Q143.73125 341.7 142.98125 341.7Q142.2625 341.7 141.825 342.3094Q141.27812 343.09064 141.27812 345.21564ZM147.2 345.21564Q147.2 343.6844 147.5125 342.7625Q147.825 341.825 148.43437 341.325Q149.05937 340.825 149.99687 340.825Q150.68437 340.825 151.2 341.10626Q151.73125 341.3875 152.075 341.91876Q152.41875 342.4344 152.60625 343.1844Q152.79375 343.9344 152.79375 345.21564Q152.79375 346.73126 152.48125 347.65314Q152.18437 348.575 151.55937 349.09064Q150.95 349.59064 149.99687 349.59064Q148.7625 349.59064 148.04375 348.7Q147.2 347.6375 147.2 345.21564ZM148.27812 345.21564Q148.27812 347.325 148.77812 348.02814Q149.27812 348.73126 149.99687 348.73126Q150.73125 348.73126 151.21562 348.02814Q151.71562 347.325 151.71562 345.21564Q151.71562 343.09064 151.21562 342.40314Q150.73125 341.7 149.98125 341.7Q149.2625 341.7 148.825 342.3094Q148.27812 343.09064 148.27812 345.21564Z" fill-rule="nonzero"/><path fill="#000000" d="M49.51875 349.45L48.471874 349.45L48.471874 342.73126Q48.08125 343.09064 47.45625 343.46564Q46.846874 343.825 46.3625 343.9969L46.3625 342.98126Q47.2375 342.5594 47.89375 341.98126Q48.565624 341.3875 48.846874 340.825L49.51875 340.825L49.51875 349.45ZM58.096874 348.4344L58.096874 349.45L52.409374 349.45Q52.409374 349.075 52.534374 348.71564Q52.753124 348.1375 53.221874 347.575Q53.70625 347.0125 54.6125 346.27814Q56.01875 345.1219 56.503124 344.45Q57.003124 343.77814 57.003124 343.1844Q57.003124 342.5594 56.55 342.1375Q56.096874 341.7 55.378124 341.7Q54.6125 341.7 54.159374 342.15314Q53.70625 342.60626 53.690624 343.41876L52.6125 343.3094Q52.721874 342.09064 53.440624 341.46564Q54.175 340.825 55.409374 340.825Q56.64375 340.825 57.3625 341.5125Q58.08125 342.2 58.08125 343.21564Q58.08125 343.73126 57.8625 344.23126Q57.659374 344.71564 57.159374 345.27814Q56.675 345.825 55.55 346.77814Q54.596874 347.575 54.315624 347.8719Q54.05 348.15314 53.878124 348.4344L58.096874 348.4344ZM59.55 345.21564Q59.55 343.6844 59.8625 342.7625Q60.175 341.825 60.784374 341.325Q61.409374 340.825 62.346874 340.825Q63.034374 340.825 63.55 341.10626Q64.08125 341.3875 64.425 341.91876Q64.76875 342.4344 64.95625 343.1844Q65.14375 343.9344 65.14375 345.21564Q65.14375 346.73126 64.83125 347.65314Q64.53438 348.575 63.909374 349.09064Q63.3 349.59064 62.346874 349.59064Q61.1125 349.59064 60.39375 348.7Q59.55 347.6375 59.55 345.21564ZM60.628124 345.21564Q60.628124 347.325 61.128124 348.02814Q61.628124 348.73126 62.346874 348.73126Q63.08125 348.73126 63.565624 348.02814Q64.06563 347.325 64.06563 345.21564Q64.06563 343.09064 63.565624 342.40314Q63.08125 341.7 62.33125 341.7Q61.6125 341.7 61.175 342.3094Q60.628124 343.09064 60.628124 345.21564Z" fill-rule="nonzero"/><path fill="#4285f4" d="M232.0 61.916668C232.0 65.23038 229.3137 67.916664 226.0 67.916664C222.6863 67.916664 220.0 65.23038 220.0 61.916668C220.0 58.60296 222.6863 55.916668 226.0 55.916668C229.3137 55.916668 232.0 58.60296 232.0 61.916668Z" fill-rule="nonzero"/><path stroke="#4285f4" stroke-width="4.0" stroke-linecap="butt" stroke-opacity="0.4" d="M248.0 61.916668L260.0 61.916668" fill-rule="nonzero"/><path fill="#1a1a1a" d="M271.10938 65.916664L271.10938 58.33854L268.28125 58.33854L268.28125 57.322914L275.09375 57.322914L275.09375 58.33854L272.25 58.33854L272.25 65.916664L271.10938 65.916664ZM275.78125 65.916664L275.78125 59.697914L276.73438 59.697914L276.73438 60.635414Q277.09375 59.979164 277.39062 59.77604Q277.70312 59.55729 278.07812 59.55729Q278.60938 59.55729 279.15625 59.885414L278.79688 60.86979Q278.40625 60.635414 278.03125 60.635414Q277.67188 60.635414 277.39062 60.854164Q277.125 61.05729 277.01562 61.43229Q276.82812 61.99479 276.82812 62.65104L276.82812 65.916664L275.78125 65.916664ZM284.04688 63.916664L285.14062 64.041664Q284.89062 64.99479 284.1875 65.52604Q283.48438 66.05729 282.40625 66.05729Q281.04688 66.05729 280.23438 65.21354Q279.4375 64.36979 279.4375 62.854164Q279.4375 61.291664 280.25 60.43229Q281.0625 59.55729 282.34375 59.55729Q283.59375 59.55729 284.375 60.40104Q285.17188 61.24479 285.17188 62.791664Q285.17188 62.885414 285.17188 63.072914L280.53125 63.072914Q280.59375 64.104164 281.10938 64.65104Q281.625 65.18229 282.40625 65.18229Q282.98438 65.18229 283.39062 64.885414Q283.8125 64.572914 284.04688 63.916664ZM280.59375 62.21354L284.0625 62.21354Q284.0 61.416664 283.67188 61.02604Q283.15625 60.416664 282.35938 60.416664Q281.625 60.416664 281.125 60.90104Q280.64062 61.385414 280.59375 62.21354ZM286.79688 65.916664L286.79688 59.697914L287.73438 59.697914L287.73438 60.572914Q288.42188 59.55729 289.71875 59.55729Q290.28125 59.55729 290.75 59.760414Q291.23438 59.96354 291.46875 60.291664Q291.70312 60.61979 291.79688 61.05729Q291.84375 61.354164 291.84375 62.08854L291.84375 65.916664L290.79688 65.916664L290.79688 62.135414Q290.79688 61.479164 290.67188 61.166664Q290.54688 60.854164 290.23438 60.666664Q289.92188 60.46354 289.5 60.46354Q288.82812 60.46354 288.32812 60.90104Q287.84375 61.322914 287.84375 62.510414L287.84375 65.916664L286.79688 65.916664ZM297.82812 65.916664L297.82812 65.135414Q297.23438 66.05729 296.09375 66.05729Q295.34375 66.05729 294.71875 65.65104Q294.09375 65.229164 293.75 64.49479Q293.40625 63.760414 293.40625 62.80729Q293.40625 61.885414 293.71875 61.11979Q294.03125 60.354164 294.65625 59.96354Q295.28125 59.55729 296.04688 59.55729Q296.60938 59.55729 297.04688 59.791664Q297.48438 60.02604 297.76562 60.40104L297.76562 57.322914L298.8125 57.322914L298.8125 65.916664L297.82812 65.916664ZM294.5 62.80729Q294.5 64.010414 295.0 64.604164Q295.5 65.18229 296.1875 65.18229Q296.875 65.18229 297.35938 64.61979Q297.84375 64.05729 297.84375 62.90104Q297.84375 61.61979 297.34375 61.02604Q296.85938 60.43229 296.14062 60.43229Q295.4375 60.43229 294.96875 61.010414Q294.5 61.572914 294.5 62.80729ZM300.76562 65.916664L300.76562 57.322914L301.82812 57.322914L301.82812 65.916664L300.76562 65.916664ZM303.79688 58.541664L303.79688 57.322914L304.85938 57.322914L304.85938 58.541664L303.79688 58.541664ZM303.79688 65.916664L303.79688 59.697914L304.85938 59.697914L304.85938 65.916664L303.79688 65.916664ZM306.79688 65.916664L306.79688 59.697914L307.73438 59.697914L307.73438 60.572914Q308.42188 59.55729 309.71875 59.55729Q310.28125 59.55729 310.75 59.760414Q311.23438 59.96354 311.46875 60.291664Q311.70312 60.61979 311.79688 61.05729Q311.84375 61.354164 311.84375 62.08854L311.84375 65.916664L310.79688 65.916664L310.79688 62.135414Q310.79688 61.479164 310.67188 61.166664Q310.54688 60.854164 310.23438 60.666664Q309.92188 60.46354 309.5 60.46354Q308.82812 60.46354 308.32812 60.90104Q307.84375 61.322914 307.84375 62.510414L307.84375 65.916664L306.79688 65.916664ZM318.04688 63.916664L319.14062 64.041664Q318.89062 64.99479 318.1875 65.52604Q317.48438 66.05729 316.40625 66.05729Q315.04688 66.05729 314.23438 65.21354Q313.4375 64.36979 313.4375 62.854164Q313.4375 61.291664 314.25 60.43229Q315.0625 59.55729 316.34375 59.55729Q317.59375 59.55729 318.375 60.40104Q319.17188 61.24479 319.17188 62.791664Q319.17188 62.885414 319.17188 63.072914L314.53125 63.072914Q314.59375 64.104164 315.10938 64.65104Q315.625 65.18229 316.40625 65.18229Q316.98438 65.18229 317.39062 64.885414Q317.8125 64.572914 318.04688 63.916664ZM314.59375 62.21354L318.0625 62.21354Q318.0 61.416664 317.67188 61.02604Q317.15625 60.416664 316.35938 60.416664Q315.625 60.416664 315.125 60.90104Q314.64062 61.385414 314.59375 62.21354ZM323.9375 65.916664L323.9375 57.322914L327.75 57.322914Q328.90625 57.322914 329.5 57.55729Q330.09375 57.791664 330.45312 58.385414Q330.8125 58.96354 330.8125 59.666664Q330.8125 60.58854 330.21875 61.21354Q329.625 61.83854 328.39062 62.010414Q328.84375 62.229164 329.07812 62.43229Q329.57812 62.885414 330.01562 63.572914L331.51562 65.916664L330.07812 65.916664L328.95312 64.135414Q328.45312 63.354164 328.125 62.947914Q327.8125 62.541664 327.54688 62.385414Q327.29688 62.21354 327.03125 62.135414Q326.84375 62.104164 326.40625 62.104164L325.07812 62.104164L325.07812 65.916664L323.9375 65.916664ZM325.07812 61.11979L327.53125 61.11979Q328.29688 61.11979 328.73438 60.96354Q329.1875 60.791664 329.40625 60.447914Q329.64062 60.08854 329.64062 59.666664Q329.64062 59.05729 329.1875 58.666664Q328.75 58.27604 327.79688 58.27604L325.07812 58.27604L325.07812 61.11979ZM332.14062 61.61979Q332.1875 61.291664 332.42188 60.947914Q332.79688 60.447914 333.64062 59.83854Q334.48438 59.229164 334.64062 59.041664Q334.85938 58.80729 334.85938 58.55729Q334.85938 58.27604 334.64062 58.104164Q334.4375 57.916664 334.04688 57.916664Q333.65625 57.916664 333.46875 58.05729Q333.28125 58.18229 333.15625 58.572914L332.26562 58.479164Q332.4375 57.83854 332.85938 57.52604Q333.28125 57.21354 334.0625 57.21354Q334.95312 57.21354 335.35938 57.572914Q335.78125 57.916664 335.78125 58.416664Q335.78125 58.90104 335.42188 59.33854Q335.17188 59.666664 334.23438 60.33854Q333.73438 60.697914 333.53125 60.916664L335.79688 60.916664L335.79688 61.61979L332.14062 61.61979ZM345.34375 60.86979L339.67188 60.86979L339.67188 59.885414L345.34375 59.885414L345.34375 60.86979ZM345.34375 63.479164L339.67188 63.479164L339.67188 62.49479L345.34375 62.49479L345.34375 63.479164ZM349.5 61.68229Q349.5 60.15104 349.8125 59.229164Q350.125 58.291664 350.73438 57.791664Q351.35938 57.291664 352.29688 57.291664Q352.98438 57.291664 353.5 57.572914Q354.03125 57.854164 354.375 58.385414Q354.71875 58.90104 354.90625 59.65104Q355.09375 60.40104 355.09375 61.68229Q355.09375 63.197914 354.78125 64.11979Q354.48438 65.041664 353.85938 65.55729Q353.25 66.05729 352.29688 66.05729Q351.0625 66.05729 350.34375 65.166664Q349.5 64.104164 349.5 61.68229ZM350.57812 61.68229Q350.57812 63.791664 351.07812 64.49479Q351.57812 65.197914 352.29688 65.197914Q353.03125 65.197914 353.51562 64.49479Q354.01562 63.791664 354.01562 61.68229Q354.01562 59.55729 353.51562 58.86979Q353.03125 58.166664 352.28125 58.166664Q351.5625 58.166664 351.125 58.77604Q350.57812 59.55729 350.57812 61.68229ZM357.09375 65.916664L357.09375 64.71354L358.29688 64.71354L358.29688 65.916664L357.09375 65.916664ZM364.96875 59.43229L363.92188 59.510414Q363.78125 58.885414 363.53125 58.604164Q363.09375 58.15104 362.46875 58.15104Q361.96875 58.15104 361.57812 58.43229Q361.09375 58.80729 360.79688 59.510414Q360.51562 60.197914 360.5 61.479164Q360.875 60.90104 361.42188 60.61979Q361.98438 60.33854 362.59375 60.33854Q363.64062 60.33854 364.375 61.11979Q365.125 61.90104 365.125 63.11979Q365.125 63.93229 364.76562 64.635414Q364.42188 65.322914 363.8125 65.697914Q363.20312 66.05729 362.4375 66.05729Q361.10938 66.05729 360.28125 65.08854Q359.45312 64.11979 359.45312 61.90104Q359.45312 59.40104 360.375 58.27604Q361.17188 57.291664 362.53125 57.291664Q363.54688 57.291664 364.1875 57.86979Q364.84375 58.43229 364.96875 59.43229ZM360.67188 63.135414Q360.67188 63.68229 360.89062 64.18229Q361.125 64.666664 361.53125 64.93229Q361.95312 65.197914 362.42188 65.197914Q363.07812 65.197914 363.5625 64.666664Q364.04688 64.11979 364.04688 63.197914Q364.04688 62.30729 363.5625 61.791664Q363.09375 61.27604 362.375 61.27604Q361.65625 61.27604 361.15625 61.791664Q360.67188 62.30729 360.67188 63.135414ZM368.125 61.260414Q367.46875 61.010414 367.14062 60.572914Q366.82812 60.11979 366.82812 59.510414Q366.82812 58.572914 367.5 57.93229Q368.1875 57.291664 369.29688 57.291664Q370.42188 57.291664 371.10938 57.947914Q371.79688 58.604164 371.79688 59.541664Q371.79688 60.135414 371.48438 60.572914Q371.17188 61.010414 370.53125 61.260414Q371.32812 61.510414 371.73438 62.08854Q372.14062 62.666664 372.14062 63.46354Q372.14062 64.55729 371.35938 65.30729Q370.59375 66.05729 369.3125 66.05729Q368.04688 66.05729 367.26562 65.30729Q366.48438 64.55729 366.48438 63.43229Q366.48438 62.58854 366.90625 62.02604Q367.34375 61.46354 368.125 61.260414ZM367.90625 59.46354Q367.90625 60.072914 368.29688 60.46354Q368.70312 60.854164 369.32812 60.854164Q369.9375 60.854164 370.32812 60.479164Q370.71875 60.08854 370.71875 59.52604Q370.71875 58.947914 370.3125 58.55729Q369.90625 58.15104 369.3125 58.15104Q368.70312 58.15104 368.29688 58.541664Q367.90625 58.93229 367.90625 59.46354ZM367.57812 63.43229Q367.57812 63.885414 367.78125 64.30729Q368.0 64.729164 368.42188 64.96354Q368.84375 65.197914 369.32812 65.197914Q370.07812 65.197914 370.5625 64.71354Q371.0625 64.229164 371.0625 63.479164Q371.0625 62.71354 370.5625 62.21354Q370.0625 61.71354 369.29688 61.71354Q368.54688 61.71354 368.0625 62.21354Q367.57812 62.697914 367.57812 63.43229ZM375.125 61.260414Q374.46875 61.010414 374.14062 60.572914Q373.82812 60.11979 373.82812 59.510414Q373.82812 58.572914 374.5 57.93229Q375.1875 57.291664 376.29688 57.291664Q377.42188 57.291664 378.10938 57.947914Q378.79688 58.604164 378.79688 59.541664Q378.79688 60.135414 378.48438 60.572914Q378.17188 61.010414 377.53125 61.260414Q378.32812 61.510414 378.73438 62.08854Q379.14062 62.666664 379.14062 63.46354Q379.14062 64.55729 378.35938 65.30729Q377.59375 66.05729 376.3125 66.05729Q375.04688 66.05729 374.26562 65.30729Q373.48438 64.55729 373.48438 63.43229Q373.48438 62.58854 373.90625 62.02604Q374.34375 61.46354 375.125 61.260414ZM374.90625 59.46354Q374.90625 60.072914 375.29688 60.46354Q375.70312 60.854164 376.32812 60.854164Q376.9375 60.854164 377.32812 60.479164Q377.71875 60.08854 377.71875 59.52604Q377.71875 58.947914 377.3125 58.55729Q376.90625 58.15104 376.3125 58.15104Q375.70312 58.15104 375.29688 58.541664Q374.90625 58.93229 374.90625 59.46354ZM374.57812 63.43229Q374.57812 63.885414 374.78125 64.30729Q375.0 64.729164 375.42188 64.96354Q375.84375 65.197914 376.32812 65.197914Q377.07812 65.197914 377.5625 64.71354Q378.0625 64.229164 378.0625 63.479164Q378.0625 62.71354 377.5625 62.21354Q377.0625 61.71354 376.29688 61.71354Q375.54688 61.71354 375.0625 62.21354Q374.57812 62.697914 374.57812 63.43229Z" fill-rule="nonzero"/><path fill="#000000" d="M21.7375 28.64375L21.7375 37.55L19.925 37.55L19.925 26.9875L21.690624 26.9875L21.7375 28.64375ZM25.034374 26.925L25.01875 28.596874Q24.8 28.55 24.596874 28.534374Q24.39375 28.51875 24.14375 28.51875Q23.51875 28.51875 23.034374 28.721874Q22.565624 28.909374 22.221874 29.26875Q21.89375 29.6125 21.70625 30.096874Q21.51875 30.58125 21.45625 31.159374L20.95625 31.45625Q20.95625 30.503124 21.14375 29.659374Q21.33125 28.815624 21.721874 28.175Q22.128124 27.51875 22.753124 27.159374Q23.378124 26.784374 24.2375 26.784374Q24.425 26.784374 24.675 26.83125Q24.940624 26.878124 25.034374 26.925ZM33.159374 35.7375L33.159374 30.3Q33.159374 29.675 32.909374 29.221874Q32.659374 28.753124 32.159374 28.503124Q31.659374 28.2375 30.925 28.2375Q30.253124 28.2375 29.7375 28.471874Q29.221874 28.70625 28.925 29.096874Q28.64375 29.471874 28.64375 29.909374L26.846874 29.909374Q26.846874 29.346874 27.128124 28.8Q27.425 28.2375 27.971874 27.784374Q28.534374 27.33125 29.3 27.065624Q30.08125 26.784374 31.034374 26.784374Q32.190624 26.784374 33.065624 27.175Q33.95625 27.565624 34.45625 28.3625Q34.971874 29.14375 34.971874 30.315624L34.971874 35.2375Q34.971874 35.76875 35.05 36.3625Q35.14375 36.95625 35.33125 37.39375L35.33125 37.55L33.45625 37.55Q33.315624 37.2375 33.2375 36.721874Q33.159374 36.190624 33.159374 35.7375ZM33.471874 31.14375L33.4875 32.409374L31.659374 32.409374Q30.89375 32.409374 30.284374 32.534374Q29.675 32.659374 29.26875 32.909374Q28.8625 33.14375 28.64375 33.51875Q28.425 33.878124 28.425 34.3625Q28.425 34.8625 28.64375 35.284374Q28.878124 35.690624 29.33125 35.925Q29.784374 36.159374 30.45625 36.159374Q31.284374 36.159374 31.909374 35.815624Q32.55 35.45625 32.925 34.95625Q33.3 34.440624 33.33125 33.971874L34.1125 34.83125Q34.034374 35.2375 33.721874 35.7375Q33.425 36.2375 32.925 36.690624Q32.425 37.14375 31.7375 37.45625Q31.05 37.753124 30.190624 37.753124Q29.1125 37.753124 28.3 37.33125Q27.503124 36.909374 27.05 36.20625Q26.6125 35.4875 26.6125 34.6125Q26.6125 33.753124 26.940624 33.1125Q27.284374 32.45625 27.909374 32.034374Q28.534374 31.596874 29.409374 31.378124Q30.284374 31.14375 31.378124 31.14375L33.471874 31.14375ZM39.7375 29.2375L39.7375 37.55L37.925 37.55L37.925 26.9875L39.64375 26.9875L39.7375 29.2375ZM39.3 31.8625L38.55 31.83125Q38.565624 30.753124 38.878124 29.83125Q39.190624 28.909374 39.753124 28.221874Q40.315624 27.534374 41.096874 27.159374Q41.89375 26.784374 42.846874 26.784374Q43.628124 26.784374 44.253124 27.003124Q44.878124 27.20625 45.315624 27.675Q45.76875 28.128124 46.003124 28.8625Q46.2375 29.58125 46.2375 30.628124L46.2375 37.55L44.425 37.55L44.425 30.6125Q44.425 29.76875 44.175 29.26875Q43.940624 28.76875 43.471874 28.55Q43.003124 28.315624 42.315624 28.315624Q41.64375 28.315624 41.08125 28.596874Q40.534374 28.878124 40.128124 29.378124Q39.7375 29.878124 39.51875 30.51875Q39.3 31.159374 39.3 31.8625ZM50.7375 22.55L50.7375 37.55L48.925 37.55L48.925 22.55L50.7375 22.55ZM57.20625 26.9875L52.596874 31.909374L50.01875 34.596874L49.8625 32.659374L51.70625 30.45625L54.9875 26.9875L57.20625 26.9875ZM55.55 37.55L51.784374 32.503124L52.721874 30.89375L57.675 37.55L55.55 37.55ZM67.14375 35.925L70.03438 26.9875L71.87813 26.9875L68.08125 37.55L66.8625 37.55L67.14375 35.925ZM64.72188 26.9875L67.70625 35.971874L67.90938 37.55L66.70625 37.55L62.878124 26.9875L64.72188 26.9875ZM80.08125 34.753124Q80.08125 34.3625 79.90938 34.01875Q79.7375 33.675 79.20625 33.409374Q78.69063 33.128124 77.64375 32.925Q76.76875 32.7375 76.05 32.4875Q75.34688 32.221874 74.84688 31.8625Q74.3625 31.503124 74.09688 31.01875Q73.84688 30.534374 73.84688 29.878124Q73.84688 29.253124 74.1125 28.690624Q74.39375 28.128124 74.90938 27.70625Q75.425 27.26875 76.14375 27.034374Q76.8625 26.784374 77.75313 26.784374Q79.01875 26.784374 79.90938 27.2375Q80.81563 27.690624 81.3 28.440624Q81.78438 29.175 81.78438 30.08125L79.97188 30.08125Q79.97188 29.64375 79.70625 29.2375Q79.45625 28.815624 78.95625 28.55Q78.47188 28.26875 77.75313 28.26875Q77.00313 28.26875 76.53438 28.503124Q76.08125 28.7375 75.8625 29.096874Q75.65938 29.440624 75.65938 29.83125Q75.65938 30.1125 75.75313 30.346874Q75.8625 30.58125 76.12813 30.76875Q76.39375 30.95625 76.8625 31.128124Q77.34688 31.284374 78.08125 31.45625Q79.39375 31.753124 80.22188 32.159374Q81.06563 32.565624 81.47188 33.159374Q81.89375 33.753124 81.89375 34.6125Q81.89375 35.3 81.59688 35.878124Q81.31563 36.45625 80.76875 36.878124Q80.22188 37.284374 79.47188 37.51875Q78.7375 37.753124 77.8 37.753124Q76.40938 37.753124 75.44063 37.253124Q74.47188 36.753124 73.97188 35.95625Q73.47188 35.159374 73.47188 34.284374L75.3 34.284374Q75.33125 35.034374 75.72188 35.471874Q76.1125 35.89375 76.675 36.08125Q77.25313 36.253124 77.8 36.253124Q78.55 36.253124 79.05 36.065624Q79.55 35.8625 79.81563 35.534374Q80.08125 35.190624 80.08125 34.753124ZM83.95625 36.596874Q83.95625 36.128124 84.2375 35.815624Q84.53438 35.503124 85.08125 35.503124Q85.62813 35.503124 85.90938 35.815624Q86.20625 36.128124 86.20625 36.596874Q86.20625 37.034374 85.90938 37.3625Q85.62813 37.675 85.08125 37.675Q84.53438 37.675 84.2375 37.3625Q83.95625 37.034374 83.95625 36.596874ZM98.15938 36.253124Q98.8 36.253124 99.34688 36.003124Q99.89375 35.7375 100.2375 35.26875Q100.59688 34.8 100.64375 34.20625L102.3625 34.20625Q102.31563 35.14375 101.7375 35.95625Q101.15938 36.753124 100.22188 37.253124Q99.28438 37.753124 98.15938 37.753124Q96.97188 37.753124 96.08125 37.33125Q95.19063 36.909374 94.6125 36.175Q94.03438 35.440624 93.7375 34.4875Q93.45625 33.534374 93.45625 32.471874L93.45625 32.065624Q93.45625 31.003124 93.7375 30.05Q94.03438 29.096874 94.6125 28.3625Q95.19063 27.628124 96.08125 27.20625Q96.97188 26.784374 98.15938 26.784374Q99.39375 26.784374 100.31563 27.3Q101.25313 27.8 101.78438 28.659374Q102.31563 29.51875 102.3625 30.6125L100.64375 30.6125Q100.59688 29.95625 100.26875 29.440624Q99.95625 28.909374 99.40938 28.596874Q98.87813 28.26875 98.15938 28.26875Q97.33125 28.26875 96.76875 28.596874Q96.20625 28.925 95.87813 29.4875Q95.55 30.034374 95.40938 30.70625Q95.26875 31.3625 95.26875 32.065624L95.26875 32.471874Q95.26875 33.159374 95.39375 33.846874Q95.53438 34.51875 95.8625 35.065624Q96.19063 35.6125 96.75313 35.940624Q97.31563 36.253124 98.15938 36.253124ZM103.45625 32.378124L103.45625 32.159374Q103.45625 31.01875 103.78438 30.034374Q104.1125 29.05 104.7375 28.33125Q105.3625 27.596874 106.25313 27.190624Q107.14375 26.784374 108.2375 26.784374Q109.3625 26.784374 110.25313 27.190624Q111.14375 27.596874 111.76875 28.33125Q112.40938 29.05 112.7375 30.034374Q113.06563 31.01875 113.06563 32.159374L113.06563 32.378124Q113.06563 33.51875 112.7375 34.503124Q112.40938 35.471874 111.76875 36.20625Q111.14375 36.940624 110.25313 37.346874Q109.37813 37.753124 108.26875 37.753124Q107.14375 37.753124 106.25313 37.346874Q105.37813 36.940624 104.7375 36.20625Q104.1125 35.471874 103.78438 34.503124Q103.45625 33.51875 103.45625 32.378124ZM105.25313 32.159374L105.25313 32.378124Q105.25313 33.175 105.44063 33.878124Q105.62813 34.565624 106.00313 35.1125Q106.37813 35.64375 106.94063 35.95625Q107.51875 36.253124 108.26875 36.253124Q109.00313 36.253124 109.56563 35.95625Q110.12813 35.64375 110.50313 35.1125Q110.87813 34.565624 111.06563 33.878124Q111.25313 33.175 111.25313 32.378124L111.25313 32.159374Q111.25313 31.378124 111.06563 30.690624Q110.87813 29.9875 110.4875 29.440624Q110.1125 28.89375 109.55 28.58125Q109.00313 28.26875 108.2375 28.26875Q107.50313 28.26875 106.94063 28.58125Q106.37813 28.89375 106.00313 29.440624Q105.62813 29.9875 105.44063 30.690624Q105.25313 31.378124 105.25313 32.159374ZM121.08125 34.753124Q121.08125 34.3625 120.90938 34.01875Q120.7375 33.675 120.20625 33.409374Q119.69063 33.128124 118.64375 32.925Q117.76875 32.7375 117.05 32.4875Q116.34688 32.221874 115.84688 31.8625Q115.3625 31.503124 115.09688 31.01875Q114.84688 30.534374 114.84688 29.878124Q114.84688 29.253124 115.1125 28.690624Q115.39375 28.128124 115.90938 27.70625Q116.425 27.26875 117.14375 27.034374Q117.8625 26.784374 118.75313 26.784374Q120.01875 26.784374 120.90938 27.2375Q121.81563 27.690624 122.3 28.440624Q122.78438 29.175 122.78438 30.08125L120.97188 30.08125Q120.97188 29.64375 120.70625 29.2375Q120.45625 28.815624 119.95625 28.55Q119.47188 28.26875 118.75313 28.26875Q118.00313 28.26875 117.53438 28.503124Q117.08125 28.7375 116.8625 29.096874Q116.65938 29.440624 116.65938 29.83125Q116.65938 30.1125 116.75313 30.346874Q116.8625 30.58125 117.12813 30.76875Q117.39375 30.95625 117.8625 31.128124Q118.34688 31.284374 119.08125 31.45625Q120.39375 31.753124 121.22188 32.159374Q122.06563 32.565624 122.47188 33.159374Q122.89375 33.753124 122.89375 34.6125Q122.89375 35.3 122.59688 35.878124Q122.31563 36.45625 121.76875 36.878124Q121.22188 37.284374 120.47188 37.51875Q119.7375 37.753124 118.8 37.753124Q117.40938 37.753124 116.44063 37.253124Q115.47188 36.753124 114.97188 35.95625Q114.47188 35.159374 114.47188 34.284374L116.3 34.284374Q116.33125 35.034374 116.72188 35.471874Q117.1125 35.89375 117.675 36.08125Q118.25313 36.253124 118.8 36.253124Q119.55 36.253124 120.05 36.065624Q120.55 35.8625 120.81563 35.534374Q121.08125 35.190624 121.08125 34.753124ZM129.34688 26.9875L129.34688 28.3625L123.64375 28.3625L123.64375 26.9875L129.34688 26.9875ZM125.56563 24.409374L127.37813 24.409374L127.37813 34.925Q127.37813 35.471874 127.53438 35.753124Q127.70625 36.01875 127.97188 36.1125Q128.2375 36.190624 128.53438 36.190624Q128.76875 36.190624 129.01875 36.14375Q129.26875 36.096874 129.39375 36.08125L129.39375 37.55Q129.19063 37.6125 128.83125 37.675Q128.4875 37.753124 128.00313 37.753124Q127.34688 37.753124 126.78438 37.4875Q126.22188 37.221874 125.89375 36.596874Q125.56563 35.971874 125.56563 34.925L125.56563 24.409374ZM136.8625 31.8625L136.8625 31.76875Q136.8625 29.64375 137.33125 27.925Q137.81563 26.190624 138.55 24.89375Q139.3 23.596874 140.1125 22.7375Q140.94063 21.878124 141.62813 21.503124L142.01875 22.690624Q141.44063 23.128124 140.84688 23.909374Q140.25313 24.675 139.75313 25.8Q139.26875 26.925 138.95625 28.409374Q138.65938 29.89375 138.65938 31.753124L138.65938 31.878124Q138.65938 33.7375 138.95625 35.2375Q139.26875 36.721874 139.75313 37.846874Q140.25313 38.9875 140.84688 39.784374Q141.44063 40.58125 142.01875 41.05L141.62813 42.14375Q140.94063 41.753124 140.1125 40.89375Q139.3 40.05 138.55 38.753124Q137.81563 37.45625 137.33125 35.7375Q136.8625 34.003124 136.8625 31.8625ZM149.12813 21.01875L149.12813 24.003124L147.675 24.003124L147.675 21.01875L149.12813 21.01875ZM148.95625 36.971874L148.95625 39.58125L147.50313 39.58125L147.50313 36.971874L148.95625 36.971874ZM150.90938 33.89375Q150.90938 33.3 150.64375 32.83125Q150.37813 32.3625 149.76875 31.971874Q149.175 31.58125 148.15938 31.253124Q146.925 30.8625 146.03438 30.315624Q145.14375 29.76875 144.65938 28.971874Q144.175 28.159374 144.175 27.003124Q144.175 25.8 144.69063 24.940624Q145.20625 24.065624 146.14375 23.596874Q147.09688 23.128124 148.37813 23.128124Q149.37813 23.128124 150.15938 23.425Q150.94063 23.721874 151.47188 24.315624Q152.01875 24.89375 152.3 25.753124Q152.59688 26.596874 152.59688 27.70625L150.8 27.70625Q150.8 27.05 150.64375 26.503124Q150.4875 25.95625 150.175 25.55Q149.8625 25.14375 149.40938 24.925Q148.97188 24.70625 148.37813 24.70625Q147.56563 24.70625 147.03438 24.9875Q146.50313 25.26875 146.2375 25.784374Q145.9875 26.3 145.9875 26.971874Q145.9875 27.596874 146.2375 28.065624Q146.50313 28.534374 147.1125 28.909374Q147.72188 29.284374 148.78438 29.64375Q150.05 30.05 150.925 30.596874Q151.81563 31.128124 152.26875 31.925Q152.72188 32.70625 152.72188 33.8625Q152.72188 35.128124 152.15938 36.003124Q151.59688 36.8625 150.56563 37.315624Q149.55 37.753124 148.15938 37.753124Q147.33125 37.753124 146.51875 37.534374Q145.72188 37.3 145.06563 36.8Q144.40938 36.284374 144.01875 35.440624Q143.62813 34.596874 143.62813 33.3625L145.44063 33.3625Q145.44063 34.190624 145.675 34.7375Q145.925 35.26875 146.31563 35.596874Q146.72188 35.909374 147.20625 36.05Q147.69063 36.175 148.15938 36.175Q149.05 36.175 149.65938 35.89375Q150.26875 35.6125 150.58125 35.096874Q150.90938 34.58125 150.90938 33.89375ZM161.22188 23.33125L155.28438 38.76875L153.7375 38.76875L159.675 23.33125L161.22188 23.33125ZM169.76875 26.9875L171.40938 26.9875L171.40938 37.33125Q171.40938 38.721874 170.84688 39.70625Q170.28438 40.690624 169.26875 41.20625Q168.25313 41.721874 166.94063 41.721874Q166.39375 41.721874 165.65938 41.55Q164.925 41.378124 164.20625 40.971874Q163.50313 40.565624 163.01875 39.878124L163.97188 38.815624Q164.64375 39.6125 165.3625 39.925Q166.09688 40.2375 166.8 40.2375Q167.65938 40.2375 168.28438 39.909374Q168.90938 39.596874 169.25313 38.95625Q169.6125 38.33125 169.6125 37.409374L169.6125 29.3L169.76875 26.9875ZM162.50313 32.378124L162.50313 32.175Q162.50313 30.971874 162.78438 29.9875Q163.08125 28.9875 163.6125 28.284374Q164.15938 27.565624 164.925 27.175Q165.70625 26.784374 166.675 26.784374Q167.65938 26.784374 168.40938 27.14375Q169.15938 27.4875 169.675 28.14375Q170.20625 28.8 170.50313 29.7375Q170.81563 30.659374 170.925 31.83125L170.925 32.721874Q170.81563 33.89375 170.50313 34.815624Q170.20625 35.7375 169.675 36.39375Q169.15938 37.05 168.40938 37.409374Q167.65938 37.753124 166.64375 37.753124Q165.70625 37.753124 164.94063 37.346874Q164.175 36.940624 163.62813 36.221874Q163.08125 35.503124 162.78438 34.51875Q162.50313 33.534374 162.50313 32.378124ZM164.3 32.175L164.3 32.378124Q164.3 33.175 164.45625 33.878124Q164.62813 34.565624 164.95625 35.096874Q165.3 35.6125 165.83125 35.909374Q166.3625 36.20625 167.08125 36.20625Q167.9875 36.20625 168.56563 35.83125Q169.15938 35.45625 169.50313 34.83125Q169.84688 34.20625 170.05 33.471874L170.05 31.1125Q169.94063 30.58125 169.72188 30.08125Q169.50313 29.565624 169.14375 29.175Q168.8 28.784374 168.28438 28.55Q167.78438 28.315624 167.1125 28.315624Q166.3625 28.315624 165.83125 28.628124Q165.3 28.925 164.95625 29.45625Q164.62813 29.9875 164.45625 30.690624Q164.3 31.39375 164.3 32.175ZM178.08125 31.76875L178.08125 31.8625Q178.08125 34.003124 177.59688 35.7375Q177.12813 37.45625 176.37813 38.753124Q175.64375 40.05 174.81563 40.89375Q174.00313 41.753124 173.31563 42.14375L172.925 41.05Q173.50313 40.6125 174.08125 39.815624Q174.675 39.034374 175.175 37.878124Q175.675 36.7375 175.97188 35.2375Q176.28438 33.7375 176.28438 31.878124L176.28438 31.753124Q176.28438 29.89375 175.95625 28.39375Q175.64375 26.89375 175.12813 25.753124Q174.6125 24.6125 174.03438 23.83125Q173.45625 23.034374 172.925 22.6125L173.31563 21.503124Q174.00313 21.878124 174.81563 22.7375Q175.64375 23.596874 176.37813 24.89375Q177.12813 26.190624 177.59688 27.925Q178.08125 29.64375 178.08125 31.76875Z" fill-rule="nonzero"/></svg>