<svg version="1.1" viewBox="0.0 0.0 600.0 371.0" fill="none" stroke="none" stroke-linecap="square" stroke-miterlimit="10" width="600" height="371" xmlns:xlink="http://www.w3.org/1999/xlink" xmlns="http://www.w3.org/2000/svg"><path fill="#ffffff" d="M0 0L600.0 0L600.0 371.0L0 371.0L0 0Z" fill-rule="nonzero"/><path stroke="#000000" stroke-width="1.0" stroke-linecap="butt" stroke-opacity="0.0" d="M71.5 88.5L71.5 326.5" fill-rule="nonzero"/><path stroke="#000000" stroke-width="1.0" stroke-linecap="butt" stroke-opacity="0.0" d="M107.5 88.5L107.5 326.5" fill-rule="nonzero"/><path stroke="#000000" stroke-width="1.0" stroke-linecap="butt" stroke-opacity="0.0" d="M180.5 88.5L180.5 326.5" fill-rule="nonzero"/><path stroke="#000000" stroke-width="1.0" stroke-linecap="butt" stroke-opacity="0.0" d="M217.5 88.5L217.5 326.5" fill-rule="nonzero"/><path stroke="#000000" stroke-width="1.0" stroke-linecap="butt" stroke-opacity="0.0" d="M289.5 88.5L289.5 326.5" fill-rule="nonzero"/><path stroke="#000000" stroke-width="1.0" stroke-linecap="butt" stroke-opacity="0.0" d="M326.5 88.5L326.5 326.5" fill-rule="nonzero"/><path stroke="#000000" stroke-width="1.0" stroke-linecap="butt" stroke-opacity="0.0" d="M399.5 88.5L399.5 326.5" fill-rule="nonzero"/><path stroke="#000000" stroke-width="1.0" stroke-linecap="butt" stroke-opacity="0.0" d="M435.5 88.5L435.5 326.5" fill-rule="nonzero"/><path stroke="#000000" stroke-width="1.0" stroke-linecap="butt" stroke-opacity="0.0" d="M508.5 88.5L508.5 326.5" fill-rule="nonzero"/><path stroke="#000000" stroke-width="1.0" stroke-linecap="butt" stroke-opacity="0.0" d="M545.5 88.5L545.5 326.5" fill-rule="nonzero"/><path stroke="#cccccc" stroke-width="1.0" stroke-linecap="butt" d="M45.5 326.5L581.5 326.5" fill-rule="nonzero"/><path stroke="#cccccc" stroke-width="1.0" stroke-linecap="butt" d="M45.5 247.5L581.5 247.5" fill-rule="nonzero"/><path stroke="#333333" stroke-width="1.0" stroke-linecap="butt" d="M45.5 167.5L581.5 167.5" fill-rule="nonzero"/><path stroke="#cccccc" stroke-width="1.0" stroke-linecap="butt" d="M45.5 88.5L581.5 88.5" fill-rule="nonzero"/><path stroke="#000000" stroke-width="1.0" stroke-linecap="butt" d="M581.5 326.5L45.5 326.5" fill-rule="nonzero"/><clipPath id="id_0"><path d="M45.55 88.28333L581.45 88.28333L581.45 326.45L45.55 326.45L45.55 88.28333Z" clip-rule="nonzero"/></clipPath><path stroke="#4285f4" stroke-width="2.0" stroke-linecap="butt" stroke-opacity="0.4" clip-path="url(#id_0)" d="M0 176.00168C0 176.00168 2.6666667 176.27892 4.0 176.41582C5.3333335 176.55272 6.6666665 176.68848 8.0 176.82309C9.333333 176.9577 10.666667 177.09116 12.0 177.22348C13.333333 177.35579 14.666667 177.48695 16.0 177.61697C17.333334 177.747 18.666666 177.87587 20.0 178.0036C21.333334 178.13133 22.666666 178.2579 24.0 178.38335C25.333334 178.50877 26.666666 178.63306 28.0 178.7562C29.333334 178.87933 30.666666 179.00133 32.0 179.12218C33.333332 179.24301 34.666668 179.36272 36.0 179.48126C37.333332 179.59981 38.666668 179.71721 40.0 179.83347C41.333332 179.94972 42.666668 180.06483 44.0 180.1788C45.333332 180.29276 46.666668 180.40558 48.0 180.51724C49.333332 180.6289 50.666668 180.73943 52.0 180.8488C53.333332 180.95818 54.666668 181.0664 56.0 181.17348C57.333332 181.28056 58.666668 181.38649 60.0 181.49127C61.333332 181.59607 62.666668 181.6997 64.0 181.80219C65.333336 181.90468 66.666664 182.00603 68.0 182.10622C69.333336 182.20642 70.666664 182.30547 72.0 182.40337C73.333336 182.50128 74.666664 182.59804 76.0 182.69363C77.333336 182.78925 78.666664 182.88371 80.0 182.97702C81.333336 183.07034 82.666664 183.1625 84.0 183.25352C85.333336 183.34454 86.666664 183.43442 88.0 183.52315C89.333336 183.61188 90.666664 183.69945 92.0 183.78589C93.333336 183.87231 94.666664 183.9576 96.0 184.04173C97.333336 184.12587 98.666664 184.20886 100.0 184.29071C101.333336 184.37256 102.666664 184.45325 104.0 184.5328C105.333336 184.61235 106.666664 184.69075 108.0 184.768C109.333336 184.84526 110.666664 184.92137 112.0 184.99634C113.333336 185.07129 114.666664 185.14511 116.0 185.21777C117.333336 185.29044 118.666664 185.36197 120.0 185.43234C121.333336 185.50272 122.666664 185.57193 124.0 185.64001C125.333336 185.7081 126.666664 185.77502 128.0 185.8408C129.33333 185.9066 130.66667 185.97124 132.0 186.03473C133.33333 186.09822 134.66667 186.16055 136.0 186.22176C137.33333 186.28294 138.66667 186.343 140.0 186.4019C141.33333 186.4608 142.66667 186.51855 144.0 186.57516C145.33333 186.63177 146.66667 186.68724 148.0 186.74155C149.33333 186.79587 150.66667 186.84903 152.0 186.90105C153.33333 186.95306 154.66667 187.00394 156.0 187.05367C157.33333 187.1034 158.66667 187.15198 160.0 187.1994C161.33333 187.24684 162.66667 187.29312 164.0 187.33826C165.33333 187.38339 166.66667 187.42738 168.0 187.47023C169.33333 187.51308 170.66667 187.55476 172.0 187.59532C173.33333 187.63586 174.66667 187.67528 176.0 187.71353C177.33333 187.75179 178.66667 187.7889 180.0 187.82484C181.33333 187.86081 182.66667 187.89563 184.0 187.92929C185.33333 187.96295 186.66667 187.99548 188.0 188.02686C189.33333 188.05823 190.66667 188.08846 192.0 188.11752C193.33333 188.1466 194.66667 188.17453 196.0 188.20132C197.33333 188.2281 198.66667 188.25374 200.0 188.27823C201.33333 188.30272 202.66667 188.32607 204.0 188.34827C205.33333 188.37045 206.66667 188.39151 208.0 188.4114C209.33333 188.4313 210.66667 188.45007 212.0 188.46767C213.33333 188.48528 214.66667 188.50174 216.0 188.51706C217.33333 188.53236 218.66667 188.54654 220.0 188.55956C221.33333 188.57257 222.66667 188.58444 224.0 188.59517C225.33333 188.6059 226.66667 188.61548 228.0 188.6239C229.33333 188.63234 230.66667 188.63962 232.0 188.64575C233.33333 188.6519 234.66667 188.65689 236.0 188.66074C237.33333 188.66457 238.66667 188.66727 240.0 188.66882C241.33333 188.67036 242.66667 188.67076 244.0 188.67003C245.33333 188.66928 246.66667 188.66739 248.0 188.66434C249.33333 188.6613 250.66667 188.65712 252.0 188.65178C253.33333 188.64645 254.66667 188.63997 256.0 188.63234C257.33334 188.62471 258.66666 188.61594 260.0 188.60602C261.33334 188.5961 262.66666 188.58502 264.0 188.57281C265.33334 188.5606 266.66666 188.54723 268.0 188.53271C269.33334 188.5182 270.66666 188.50255 272.0 188.48575C273.33334 188.46895 274.66666 188.45099 276.0 188.4319C277.33334 188.4128 278.66666 188.39255 280.0 188.37115C281.33334 188.34976 282.66666 188.32722 284.0 188.30354C285.33334 188.27985 286.66666 188.25502 288.0 188.22903C289.33334 188.20306 290.66666 188.17593 292.0 188.14766C293.33334 188.11938 294.66666 188.08995 296.0 188.05939C297.33334 188.02882 298.66666 187.9971 300.0 187.96423C301.33334 187.93138 302.66666 187.89737 304.0 187.86221C305.33334 187.82706 306.66666 187.79074 308.0 187.7533C309.33334 187.71584 310.66666 187.67725 312.0 187.6375C313.33334 187.59775 314.66666 187.55685 316.0 187.51482C317.33334 187.47278 318.66666 187.4296 320.0 187.38525C321.33334 187.34093 322.66666 187.29544 324.0 187.24881C325.33334 187.20218 326.66666 187.1544 328.0 187.10548C329.33334 187.05656 330.66666 187.0065 332.0 186.95528C333.33334 186.90407 334.66666 186.8517 336.0 186.79819C337.33334 186.74467 338.66666 186.69002 340.0 186.63422C341.33334 186.57841 342.66666 186.52145 344.0 186.46336C345.33334 186.40526 346.66666 186.34601 348.0 186.28563C349.33334 186.22523 350.66666 186.1637 352.0 186.101C353.33334 186.03831 354.66666 185.97449 356.0 185.9095C357.33334 185.84451 358.66666 185.7784 360.0 185.71112C361.33334 185.64384 362.66666 185.57541 364.0 185.50584C365.33334 185.43628 366.66666 185.36555 368.0 185.2937C369.33334 185.22183 370.66666 185.14882 372.0 185.07466C373.33334 185.0005 374.66666 184.9252 376.0 184.84875C377.33334 184.7723 378.66666 184.6947 380.0 184.61595C381.33334 184.5372 382.66666 184.4573 384.0 184.37627C385.33334 184.29523 386.66666 184.21304 388.0 184.12971C389.33334 184.04637 390.66666 183.9619 392.0 183.87627C393.33334 183.79063 394.66666 183.70386 396.0 183.61594C397.33334 183.52802 398.66666 183.43895 400.0 183.34872C401.33334 183.25851 402.66666 183.16714 404.0 183.07463C405.33334 182.98213 406.66666 182.88847 408.0 182.79366C409.33334 182.69885 410.66666 182.6029 412.0 182.5058C413.33334 182.4087 414.66666 182.31046 416.0 182.21106C417.33334 182.11168 418.66666 182.01112 420.0 181.90944C421.33334 181.80775 422.66666 181.70493 424.0 181.60094C425.33334 181.49696 426.66666 181.39183 428.0 181.28555C429.33334 181.17928 430.66666 181.07185 432.0 180.96329C433.33334 180.85472 434.66666 180.745 436.0 180.63414C437.33334 180.52327 438.66666 180.41125 440.0 180.2981C441.33334 180.18494 442.66666 180.07063 444.0 179.95518C445.33334 179.83974 446.66666 179.72313 448.0 179.60538C449.33334 179.48764 450.66666 179.36874 452.0 179.2487C453.33334 179.12866 454.66666 179.00748 456.0 178.88513C457.33334 178.7628 458.66666 178.63933 460.0 178.5147C461.33334 178.39006 462.66666 178.26428 464.0 178.13736C465.33334 178.01044 466.66666 177.88237 468.0 177.75316C469.33334 177.62393 470.66666 177.49358 472.0 177.36206C473.33334 177.23055 474.66666 177.09789 476.0 176.96408C477.33334 176.83028 478.66666 176.69533 480.0 176.55923C481.33334 176.42313 482.66666 176.28587 484.0 176.14749C485.33334 176.0091 486.66666 175.86955 488.0 175.72887C489.33334 175.58818 490.66666 175.44633 492.0 175.30336C493.33334 175.16037 494.66666 175.01625 496.0 174.87097C497.33334 174.7257 498.66666 174.57927 500.0 174.4317C501.33334 174.28413 502.66666 174.1354 504.0 173.98555C505.33334 173.83568 506.66666 173.68468 508.0 173.53252C509.33334 173.38036 510.66666 173.22705 512.0 173.0726C513.3333 172.91814 514.6667 172.76254 516.0 172.60579C517.3333 172.44905 518.6667 172.29115 520.0 172.13211C521.3333 171.97307 522.6667 171.81288 524.0 171.65155C525.3333 171.49022 526.6667 171.32773 528.0 171.16411C529.3333 171.00047 530.6667 170.8357 532.0 170.66977C533.3333 170.50385 534.6667 170.33678 536.0 170.16856C537.3333 170.00034 538.6667 169.83098 540.0 169.66046C541.3333 169.48996 542.6667 169.3183 544.0 169.1455C545.3333 168.97269 546.6667 168.79874 548.0 168.62363C549.3333 168.44853 550.6667 168.27228 552.0 168.0949C553.3333 167.9175 554.6667 167.73895 556.0 167.55927C557.3333 167.37958 558.6667 167.19875 560.0 167.01675C561.3333 166.83478 562.6667 166.65164 564.0 166.46736C565.3333 166.2831 566.6667 166.09767 568.0 165.9111C569.3333 165.72452 570.6667 165.5368 572.0 165.34795C573.3333 165.15907 574.6667 164.96907 576.0 164.77791C577.3333 164.58675 580.0 164.20099 580.0 164.20099" fill-rule="nonzero"/><path fill="#4285f4" clip-path="url(#id_0)" d="M585.95 173.65704C585.95 176.14232 583.9353 178.15704 581.45 178.15704C578.9647 178.15704 576.95 176.14232 576.95 173.65704C576.95 171.17175 578.9647 169.15704 581.45 169.15704C583.9353 169.15704 585.95 171.17175 585.95 173.65704Z" fill-rule="nonzero"/><path fill="#4285f4" clip-path="url(#id_0)" d="M299.59576 237.1478C299.59576 239.63309 297.58105 241.6478 295.09576 241.6478C292.6105 241.6478 290.59576 239.63309 290.59576 237.1478C290.59576 234.66252 292.6105 232.6478 295.09576 232.6478C297.58105 232.6478 299.59576 234.66252 299.59576 237.1478Z" fill-rule="nonzero"/><path fill="#4285f4" clip-path="url(#id_0)" d="M419.82083 133.98445C419.82083 136.46974 417.80612 138.48445 415.32083 138.48445C412.83554 138.48445 410.82083 136.46974 410.82083 133.98445C410.82083 131.49918 412.83554 129.48445 415.32083 129.48445C417.80612 129.48445 419.82083 131.49918 419.82083 133.98445Z" fill-rule="nonzero"/><path fill="#4285f4" clip-path="url(#id_0)" d="M155.3257 109.195145C155.3257 111.68043 153.31099 113.695145 150.8257 113.695145C148.34042 113.695145 146.3257 111.68043 146.3257 109.195145C146.3257 106.70986 148.34042 104.695145 150.8257 104.695145C153.31099 104.695145 155.3257 106.70986 155.3257 109.195145Z" fill-rule="nonzero"/><path fill="#4285f4" clip-path="url(#id_0)" d="M87.562485 152.65536C87.562485 155.14066 85.54777 157.15536 83.062485 157.15536C80.5772 157.15536 78.562485 155.14066 78.562485 152.65536C78.562485 150.17009 80.5772 148.15536 83.062485 148.15536C85.54777 148.15536 87.562485 150.17009 87.562485 152.65536Z" fill-rule="nonzero"/><path fill="#4285f4" clip-path="url(#id_0)" d="M137.83842 127.67183C137.83842 130.1571 135.8237 132.17183 133.33842 132.17183C130.85313 132.17183 128.83842 130.1571 128.83842 127.67183C128.83842 125.18655 130.85313 123.17183 133.33842 123.17183C135.8237 123.17183 137.83842 125.18655 137.83842 127.67183Z" fill-rule="nonzero"/><path fill="#4285f4" clip-path="url(#id_0)" d="M72.261116 130.5368C72.261116 133.0221 70.2464 135.0368 67.761116 135.0368C65.27583 135.0368 63.261116 133.0221 63.261116 130.5368C63.261116 128.05153 65.27583 126.03681 67.761116 126.03681C70.2464 126.03681 72.261116 128.05153 72.261116 130.5368Z" fill-rule="nonzero"/><path fill="#4285f4" clip-path="url(#id_0)" d="M65.703384 141.14693C65.703384 143.6322 63.688667 145.64693 61.203384 145.64693C58.7181 145.64693 56.703384 143.6322 56.703384 141.14693C56.703384 138.66165 58.7181 136.64693 61.203384 136.64693C63.688667 136.64693 65.703384 138.66165 65.703384 141.14693Z" fill-rule="nonzero"/><path fill="#4285f4" clip-path="url(#id_0)" d="M87.562485 149.11058C87.562485 151.59587 85.54777 153.61058 83.062485 153.61058C80.5772 153.61058 78.562485 151.59587 78.562485 149.11058C78.562485 146.6253 80.5772 144.61058 83.062485 144.61058C85.54777 144.61058 87.562485 146.6253 87.562485 149.11058Z" fill-rule="nonzero"/><path fill="#4285f4" clip-path="url(#id_0)" d="M100.67795 177.9303C100.67795 180.41557 98.66323 182.4303 96.17795 182.4303C93.692665 182.4303 91.67795 180.41557 91.67795 177.9303C91.67795 175.445 93.692665 173.4303 96.17795 173.4303C98.66323 173.4303 100.67795 175.445 100.67795 177.9303Z" fill-rule="nonzero"/><path fill="#4285f4" clip-path="url(#id_0)" d="M148.76797 168.16998C148.76797 170.65526 146.75325 172.66998 144.26797 172.66998C141.78268 172.66998 139.76797 170.65526 139.76797 168.16998C139.76797 165.6847 141.78268 163.66998 144.26797 163.66998C146.75325 163.66998 148.76797 165.6847 148.76797 168.16998Z" fill-rule="nonzero"/><path fill="#4285f4" clip-path="url(#id_0)" d="M78.81885 172.92876C78.81885 175.41403 76.80413 177.42876 74.31885 177.42876C71.833565 177.42876 69.81885 175.41403 69.81885 172.92876C69.81885 170.44348 71.833565 168.42876 74.31885 168.42876C76.80413 168.42876 78.81885 170.44348 78.81885 172.92876Z" fill-rule="nonzero"/><path fill="#4285f4" clip-path="url(#id_0)" d="M76.632935 167.83008C76.632935 170.31535 74.61822 172.33008 72.132935 172.33008C69.64765 172.33008 67.632935 170.31535 67.632935 167.83008C67.632935 165.3448 69.64765 163.33008 72.132935 163.33008C74.61822 163.33008 76.632935 165.3448 76.632935 167.83008Z" fill-rule="nonzero"/><path fill="#4285f4" clip-path="url(#id_0)" d="M56.959743 208.76523C56.959743 211.2505 54.945026 213.26523 52.459743 213.26523C49.974464 213.26523 47.959743 211.2505 47.959743 208.76523C47.959743 206.27994 49.974464 204.26523 52.459743 204.26523C54.945026 204.26523 56.959743 206.27994 56.959743 208.76523Z" fill-rule="nonzero"/><path fill="#4285f4" clip-path="url(#id_0)" d="M135.65251 183.3932C135.65251 185.8785 133.63779 187.8932 131.15251 187.8932C128.66722 187.8932 126.65251 185.8785 126.65251 183.3932C126.65251 180.90793 128.66722 178.8932 131.15251 178.8932C133.63779 178.8932 135.65251 180.90793 135.65251 183.3932Z" fill-rule="nonzero"/><path fill="#4285f4" clip-path="url(#id_0)" d="M74.44702 180.941C74.44702 183.42627 72.432304 185.441 69.94702 185.441C67.46175 185.441 65.44702 183.42627 65.44702 180.941C65.44702 178.4557 67.46175 176.441 69.94702 176.441C72.432304 176.441 74.44702 178.4557 74.44702 180.941Z" fill-rule="nonzero"/><path fill="#4285f4" clip-path="url(#id_0)" d="M63.517475 192.13382C63.517475 194.6191 61.502754 196.63382 59.017475 196.63382C56.532192 196.63382 54.517475 194.6191 54.517475 192.13382C54.517475 189.64853 56.532192 187.63382 59.017475 187.63382C61.502754 187.63382 63.517475 189.64853 63.517475 192.13382Z" fill-rule="nonzero"/><path fill="#4285f4" clip-path="url(#id_0)" d="M78.81885 189.48735C78.81885 191.97264 76.80413 193.98735 74.31885 193.98735C71.833565 193.98735 69.81885 191.97264 69.81885 189.48735C69.81885 187.00208 71.833565 184.98735 74.31885 184.98735C76.80413 184.98735 78.81885 187.00208 78.81885 189.48735Z" fill-rule="nonzero"/><path fill="#4285f4" clip-path="url(#id_0)" d="M70.0752 209.3965C70.0752 211.88179 68.060486 213.8965 65.5752 213.8965C63.089924 213.8965 61.075207 211.88179 61.075207 209.3965C61.075207 206.91122 63.089924 204.8965 65.5752 204.8965C68.060486 204.8965 70.0752 206.91122 70.0752 209.3965Z" fill-rule="nonzero"/><path fill="#4285f4" clip-path="url(#id_0)" d="M102.86385 199.17487C102.86385 201.66014 100.84914 203.67487 98.36385 203.67487C95.87858 203.67487 93.86385 201.66014 93.86385 199.17487C93.86385 196.68958 95.87858 194.67487 98.36385 194.67487C100.84914 194.67487 102.86385 196.68958 102.86385 199.17487Z" fill-rule="nonzero"/><path fill="#4285f4" clip-path="url(#id_0)" d="M76.632935 222.09467C76.632935 224.57994 74.61822 226.59467 72.132935 226.59467C69.64765 226.59467 67.632935 224.57994 67.632935 222.09467C67.632935 219.60938 69.64765 217.59467 72.132935 217.59467C74.61822 217.59467 76.632935 219.60938 76.632935 222.09467Z" fill-rule="nonzero"/><path fill="#4285f4" clip-path="url(#id_0)" d="M126.90887 303.72214C126.90887 306.20743 124.89415 308.22214 122.40887 308.22214C119.923584 308.22214 117.90887 306.20743 117.90887 303.72214C117.90887 301.23688 119.923584 299.22214 122.40887 299.22214C124.89415 299.22214 126.90887 301.23688 126.90887 303.72214Z" fill-rule="nonzero"/><path fill="#4285f4" clip-path="url(#id_0)" d="M312.71124 208.27966C312.71124 210.76494 310.6965 212.77966 308.21124 212.77966C305.72595 212.77966 303.71124 210.76494 303.71124 208.27966C303.71124 205.79437 305.72595 203.77966 308.21124 203.77966C310.6965 203.77966 312.71124 205.79437 312.71124 208.27966Z" fill-rule="nonzero"/><path fill="#4285f4" clip-path="url(#id_0)" d="M89.7484 239.72154C89.7484 242.20682 87.73368 244.22154 85.2484 244.22154C82.763115 244.22154 80.7484 242.20682 80.7484 239.72154C80.7484 237.23625 82.763115 235.22154 85.2484 235.22154C87.73368 235.22154 89.7484 237.23625 89.7484 239.72154Z" fill-rule="nonzero"/><path fill="#4285f4" clip-path="url(#id_0)" d="M159.69753 199.19914C159.69753 201.68443 157.6828 203.69914 155.19753 203.69914C152.71223 203.69914 150.69753 201.68443 150.69753 199.19914C150.69753 196.71387 152.71223 194.69914 155.19753 194.69914C157.6828 194.69914 159.69753 196.71387 159.69753 199.19914Z" fill-rule="nonzero"/><path stroke="#000000" stroke-width="1.0" stroke-linecap="butt" d="M71.5 329.5L71.5 323.5" fill-rule="nonzero"/><path stroke="#000000" stroke-width="1.0" stroke-linecap="butt" d="M107.5 329.5L107.5 323.5" fill-rule="nonzero"/><path stroke="#000000" stroke-width="1.0" stroke-linecap="butt" d="M180.5 329.5L180.5 323.5" fill-rule="nonzero"/><path stroke="#000000" stroke-width="1.0" stroke-linecap="butt" d="M217.5 329.5L217.5 323.5" fill-rule="nonzero"/><path stroke="#000000" stroke-width="1.0" stroke-linecap="butt" d="M289.5 329.5L289.5 323.5" fill-rule="nonzero"/><path stroke="#000000" stroke-width="1.0" stroke-linecap="butt" d="M326.5 329.5L326.5 323.5" fill-rule="nonzero"/><path stroke="#000000" stroke-width="1.0" stroke-linecap="butt" d="M399.5 329.5L399.5 323.5" fill-rule="nonzero"/><path stroke="#000000" stroke-width="1.0" stroke-linecap="butt" d="M435.5 329.5L435.5 323.5" fill-rule="nonzero"/><path stroke="#000000" stroke-width="1.0" stroke-linecap="butt" d="M508.5 329.5L508.5 323.5" fill-rule="nonzero"/><path stroke="#000000" stroke-width="1.0" stroke-linecap="butt" d="M545.5 329.5L545.5 323.5" fill-rule="nonzero"/><path stroke="#000000" stroke-width="1.0" stroke-linecap="butt" d="M144.5 332.5L144.5 320.5" fill-rule="nonzero"/><path stroke="#000000" stroke-width="1.0" stroke-linecap="butt" d="M253.5 332.5L253.5 320.5" fill-rule="nonzero"/><path stroke="#000000" stroke-width="1.0" stroke-linecap="butt" d="M362.5 332.5L362.5 320.5" fill-rule="nonzero"/><path stroke="#000000" stroke-width="1.0" stroke-linecap="butt" d="M472.5 332.5L472.5 320.5" fill-rule="nonzero"/><path stroke="#000000" stroke-width="1.0" stroke-linecap="butt" d="M581.5 332.5L581.5 320.5" fill-rule="nonzero"/><path fill="#000000" d="M28.925 327.8719L28.925 326.8094L32.175 326.8094L32.175 327.8719L28.925 327.8719ZM36.425 330.45L36.425 328.3875L32.70625 328.3875L32.70625 327.41876L36.628124 321.85626L37.4875 321.85626L37.4875 327.41876L38.64375 327.41876L38.64375 328.3875L37.4875 328.3875L37.4875 330.45L36.425 330.45ZM36.425 327.41876L36.425 323.5594L33.7375 327.41876L36.425 327.41876Z" fill-rule="nonzero"/><path fill="#000000" d="M28.925 248.48299L28.925 247.42049L32.175 247.42049L32.175 248.48299L28.925 248.48299ZM38.596874 250.04549L38.596874 251.06111L32.909374 251.06111Q32.909374 250.68611 33.034374 250.32674Q33.253124 249.74861 33.721874 249.18611Q34.20625 248.62361 35.1125 247.88924Q36.51875 246.73299 37.003124 246.06111Q37.503124 245.38924 37.503124 244.79549Q37.503124 244.17049 37.05 243.74861Q36.596874 243.31111 35.878124 243.31111Q35.1125 243.31111 34.659374 243.76424Q34.20625 244.21736 34.190624 245.02986L33.1125 244.92049Q33.221874 243.70174 33.940624 243.07674Q34.675 242.43611 35.909374 242.43611Q37.14375 242.43611 37.8625 243.12361Q38.58125 243.81111 38.58125 244.82674Q38.58125 245.34236 38.3625 245.84236Q38.159374 246.32674 37.659374 246.88924Q37.175 247.43611 36.05 248.38924Q35.096874 249.18611 34.815624 249.48299Q34.55 249.76424 34.378124 250.04549L38.596874 250.04549Z" fill-rule="nonzero"/><path fill="#000000" d="M33.05 167.43785Q33.05 165.9066 33.3625 164.98473Q33.675 164.04723 34.284374 163.54723Q34.909374 163.04723 35.846874 163.04723Q36.534374 163.04723 37.05 163.32848Q37.58125 163.60973 37.925 164.14098Q38.26875 164.6566 38.45625 165.4066Q38.64375 166.1566 38.64375 167.43785Q38.64375 168.95348 38.33125 169.87535Q38.034374 170.79723 37.409374 171.31285Q36.8 171.81285 35.846874 171.81285Q34.6125 171.81285 33.89375 170.92223Q33.05 169.85973 33.05 167.43785ZM34.128124 167.43785Q34.128124 169.54723 34.628124 170.25035Q35.128124 170.95348 35.846874 170.95348Q36.58125 170.95348 37.065624 170.25035Q37.565624 169.54723 37.565624 167.43785Q37.565624 165.31285 37.065624 164.62535Q36.58125 163.92223 35.83125 163.92223Q35.1125 163.92223 34.675 164.5316Q34.128124 165.31285 34.128124 167.43785Z" fill-rule="nonzero"/><path fill="#000000" d="M38.596874 91.26771L38.596874 92.28333L32.909374 92.28333Q32.909374 91.90833 33.034374 91.54896Q33.253124 90.97083 33.721874 90.40833Q34.20625 89.84583 35.1125 89.11146Q36.51875 87.95521 37.003124 87.28333Q37.503124 86.61146 37.503124 86.01771Q37.503124 85.39271 37.05 84.97083Q36.596874 84.53333 35.878124 84.53333Q35.1125 84.53333 34.659374 84.98646Q34.20625 85.43958 34.190624 86.25208L33.1125 86.14271Q33.221874 84.92396 33.940624 84.29896Q34.675 83.65833 35.909374 83.65833Q37.14375 83.65833 37.8625 84.34583Q38.58125 85.03333 38.58125 86.04896Q38.58125 86.56458 38.3625 87.06458Q38.159374 87.54896 37.659374 88.11146Q37.175 88.65833 36.05 89.61146Q35.096874 90.40833 34.815624 90.70521Q34.55 90.98646 34.378124 91.26771L38.596874 91.26771Z" fill-rule="nonzero"/><path fill="#000000" d="M131.75235 350.6844L131.75235 349.6375Q130.9711 349.52814 130.4711 349.27814Q129.9711 349.02814 129.61172 348.46564Q129.25235 347.8875 129.18985 347.0594L130.25235 346.8719Q130.37735 347.71564 130.68985 348.10626Q131.14297 348.66876 131.75235 348.7469L131.75235 345.3875Q131.11172 345.2625 130.42422 344.8719Q129.92422 344.59064 129.64297 344.10626Q129.37735 343.60626 129.37735 342.96564Q129.37735 341.84064 130.17422 341.15314Q130.70547 340.6844 131.75235 340.575L131.75235 340.075L132.37735 340.075L132.37735 340.575Q133.29922 340.65314 133.83047 341.10626Q134.5336 341.6844 134.67422 342.6844L133.58047 342.85626Q133.48672 342.23126 133.18985 341.90314Q132.89297 341.575 132.37735 341.46564L132.37735 344.4969Q133.17422 344.7 133.43985 344.8094Q133.92422 345.02814 134.23672 345.34064Q134.54922 345.65314 134.70547 346.09064Q134.87735 346.5125 134.87735 347.0125Q134.87735 348.10626 134.17422 348.84064Q133.48672 349.575 132.37735 349.6219L132.37735 350.6844L131.75235 350.6844ZM131.75235 341.45Q131.14297 341.54376 130.7836 341.95Q130.43985 342.34064 130.43985 342.8875Q130.43985 343.41876 130.73672 343.79376Q131.0336 344.15314 131.75235 344.3719L131.75235 341.45ZM132.37735 348.7469Q132.98672 348.66876 133.39297 348.21564Q133.79922 347.7469 133.79922 347.075Q133.79922 346.4969 133.50235 346.15314Q133.2211 345.8094 132.37735 345.52814L132.37735 348.7469ZM136.26797 345.21564Q136.26797 343.6844 136.58047 342.7625Q136.89297 341.825 137.50235 341.325Q138.12735 340.825 139.06485 340.825Q139.75235 340.825 140.26797 341.10626Q140.79922 341.3875 141.14297 341.91876Q141.48672 342.4344 141.67422 343.1844Q141.86172 343.9344 141.86172 345.21564Q141.86172 346.73126 141.54922 347.65314Q141.25235 348.575 140.62735 349.09064Q140.01797 349.59064 139.06485 349.59064Q137.83047 349.59064 137.11172 348.7Q136.26797 347.6375 136.26797 345.21564ZM137.3461 345.21564Q137.3461 347.325 137.8461 348.02814Q138.3461 348.73126 139.06485 348.73126Q139.79922 348.73126 140.2836 348.02814Q140.7836 347.325 140.7836 345.21564Q140.7836 343.09064 140.2836 342.40314Q139.79922 341.7 139.04922 341.7Q138.33047 341.7 137.89297 342.3094Q137.3461 343.09064 137.3461 345.21564ZM143.86172 349.45L143.86172 348.2469L145.06485 348.2469L145.06485 349.45L143.86172 349.45ZM146.26797 347.2L147.37735 347.10626Q147.50235 347.91876 147.93985 348.325Q148.39297 348.73126 149.0336 348.73126Q149.7836 348.73126 150.31485 348.15314Q150.8461 347.575 150.8461 346.6375Q150.8461 345.73126 150.33047 345.21564Q149.83047 344.6844 149.00235 344.6844Q148.50235 344.6844 148.08047 344.91876Q147.67422 345.15314 147.43985 345.5125L146.45547 345.3875L147.2836 340.98126L151.56485 340.98126L151.56485 341.98126L148.12735 341.98126L147.67422 344.29376Q148.43985 343.7469 149.2836 343.7469Q150.4086 343.7469 151.17422 344.52814Q151.95547 345.3094 151.95547 346.54376Q151.95547 347.7 151.2836 348.5594Q150.45547 349.59064 149.0336 349.59064Q147.86172 349.59064 147.11172 348.9344Q146.37735 348.27814 146.26797 347.2ZM153.26797 345.21564Q153.26797 343.6844 153.58047 342.7625Q153.89297 341.825 154.50235 341.325Q155.12735 340.825 156.06485 340.825Q156.75235 340.825 157.26797 341.10626Q157.79922 341.3875 158.14297 341.91876Q158.48672 342.4344 158.67422 343.1844Q158.86172 343.9344 158.86172 345.21564Q158.86172 346.73126 158.54922 347.65314Q158.25235 348.575 157.62735 349.09064Q157.01797 349.59064 156.06485 349.59064Q154.83047 349.59064 154.11172 348.7Q153.26797 347.6375 153.26797 345.21564ZM154.3461 345.21564Q154.3461 347.325 154.8461 348.02814Q155.3461 348.73126 156.06485 348.73126Q156.79922 348.73126 157.2836 348.02814Q157.7836 347.325 157.7836 345.21564Q157.7836 343.09064 157.2836 342.40314Q156.79922 341.7 156.04922 341.7Q155.33047 341.7 154.89297 342.3094Q154.3461 343.09064 154.3461 345.21564Z" fill-rule="nonzero"/><path fill="#000000" d="M241.04785 350.6844L241.04785 349.6375Q240.2666 349.52814 239.7666 349.27814Q239.2666 349.02814 238.90723 348.46564Q238.54785 347.8875 238.48535 347.0594L239.54785 346.8719Q239.67285 347.71564 239.98535 348.10626Q240.43848 348.66876 241.04785 348.7469L241.04785 345.3875Q240.40723 345.2625 239.71973 344.8719Q239.21973 344.59064 238.93848 344.10626Q238.67285 343.60626 238.67285 342.96564Q238.67285 341.84064 239.46973 341.15314Q240.00098 340.6844 241.04785 340.575L241.04785 340.075L241.67285 340.075L241.67285 340.575Q242.59473 340.65314 243.12598 341.10626Q243.8291 341.6844 243.96973 342.6844L242.87598 342.85626Q242.78223 342.23126 242.48535 341.90314Q242.18848 341.575 241.67285 341.46564L241.67285 344.4969Q242.46973 344.7 242.73535 344.8094Q243.21973 345.02814 243.53223 345.34064Q243.84473 345.65314 244.00098 346.09064Q244.17285 346.5125 244.17285 347.0125Q244.17285 348.10626 243.46973 348.84064Q242.78223 349.575 241.67285 349.6219L241.67285 350.6844L241.04785 350.6844ZM241.04785 341.45Q240.43848 341.54376 240.0791 341.95Q239.73535 342.34064 239.73535 342.8875Q239.73535 343.41876 240.03223 343.79376Q240.3291 344.15314 241.04785 344.3719L241.04785 341.45ZM241.67285 348.7469Q242.28223 348.66876 242.68848 348.21564Q243.09473 347.7469 243.09473 347.075Q243.09473 346.4969 242.79785 346.15314Q242.5166 345.8094 241.67285 345.52814L241.67285 348.7469ZM249.53223 349.45L248.48535 349.45L248.48535 342.73126Q248.09473 343.09064 247.46973 343.46564Q246.86035 343.825 246.37598 343.9969L246.37598 342.98126Q247.25098 342.5594 247.90723 341.98126Q248.5791 341.3875 248.86035 340.825L249.53223 340.825L249.53223 349.45ZM253.15723 349.45L253.15723 348.2469L254.36035 348.2469L254.36035 349.45L253.15723 349.45ZM255.56348 345.21564Q255.56348 343.6844 255.87598 342.7625Q256.18848 341.825 256.79785 341.325Q257.42285 340.825 258.36035 340.825Q259.04785 340.825 259.56348 341.10626Q260.09473 341.3875 260.43848 341.91876Q260.78223 342.4344 260.96973 343.1844Q261.15723 343.9344 261.15723 345.21564Q261.15723 346.73126 260.84473 347.65314Q260.54785 348.575 259.92285 349.09064Q259.31348 349.59064 258.36035 349.59064Q257.12598 349.59064 256.40723 348.7Q255.56348 347.6375 255.56348 345.21564ZM256.6416 345.21564Q256.6416 347.325 257.1416 348.02814Q257.6416 348.73126 258.36035 348.73126Q259.09473 348.73126 259.5791 348.02814Q260.0791 347.325 260.0791 345.21564Q260.0791 343.09064 259.5791 342.40314Q259.09473 341.7 258.34473 341.7Q257.62598 341.7 257.18848 342.3094Q256.6416 343.09064 256.6416 345.21564ZM262.56348 345.21564Q262.56348 343.6844 262.87598 342.7625Q263.18848 341.825 263.79785 341.325Q264.42285 340.825 265.36035 340.825Q266.04785 340.825 266.56348 341.10626Q267.09473 341.3875 267.43848 341.91876Q267.78223 342.4344 267.96973 343.1844Q268.15723 343.9344 268.15723 345.21564Q268.15723 346.73126 267.84473 347.65314Q267.54785 348.575 266.92285 349.09064Q266.31348 349.59064 265.36035 349.59064Q264.12598 349.59064 263.40723 348.7Q262.56348 347.6375 262.56348 345.21564ZM263.6416 345.21564Q263.6416 347.325 264.1416 348.02814Q264.6416 348.73126 265.36035 348.73126Q266.09473 348.73126 266.5791 348.02814Q267.0791 347.325 267.0791 345.21564Q267.0791 343.09064 266.5791 342.40314Q266.09473 341.7 265.34473 341.7Q264.62598 341.7 264.18848 342.3094Q263.6416 343.09064 263.6416 345.21564Z" fill-rule="nonzero"/><path fill="#000000" d="M350.34335 350.6844L350.34335 349.6375Q349.5621 349.52814 349.0621 349.27814Q348.5621 349.02814 348.20273 348.46564Q347.84335 347.8875 347.78085 347.0594L348.84335 346.8719Q348.96835 347.71564 349.28085 348.10626Q349.73398 348.66876 350.34335 348.7469L350.34335 345.3875Q349.70273 345.2625 349.01523 344.8719Q348.51523 344.59064 348.23398 344.10626Q347.96835 343.60626 347.96835 342.96564Q347.96835 341.84064 348.76523 341.15314Q349.29648 340.6844 350.34335 340.575L350.34335 340.075L350.96835 340.075L350.96835 340.575Q351.89023 340.65314 352.42148 341.10626Q353.1246 341.6844 353.26523 342.6844L352.17148 342.85626Q352.07773 342.23126 351.78085 341.90314Q351.48398 341.575 350.96835 341.46564L350.96835 344.4969Q351.76523 344.7 352.03085 344.8094Q352.51523 345.02814 352.82773 345.34064Q353.14023 345.65314 353.29648 346.09064Q353.46835 346.5125 353.46835 347.0125Q353.46835 348.10626 352.76523 348.84064Q352.07773 349.575 350.96835 349.6219L350.96835 350.6844L350.34335 350.6844ZM350.34335 341.45Q349.73398 341.54376 349.3746 341.95Q349.03085 342.34064 349.03085 342.8875Q349.03085 343.41876 349.32773 343.79376Q349.6246 344.15314 350.34335 344.3719L350.34335 341.45ZM350.96835 348.7469Q351.57773 348.66876 351.98398 348.21564Q352.39023 347.7469 352.39023 347.075Q352.39023 346.4969 352.09335 346.15314Q351.8121 345.8094 350.96835 345.52814L350.96835 348.7469ZM358.82773 349.45L357.78085 349.45L357.78085 342.73126Q357.39023 343.09064 356.76523 343.46564Q356.15585 343.825 355.67148 343.9969L355.67148 342.98126Q356.54648 342.5594 357.20273 341.98126Q357.8746 341.3875 358.15585 340.825L358.82773 340.825L358.82773 349.45ZM362.45273 349.45L362.45273 348.2469L363.65585 348.2469L363.65585 349.45L362.45273 349.45ZM364.85898 347.2L365.96835 347.10626Q366.09335 347.91876 366.53085 348.325Q366.98398 348.73126 367.6246 348.73126Q368.3746 348.73126 368.90585 348.15314Q369.4371 347.575 369.4371 346.6375Q369.4371 345.73126 368.92148 345.21564Q368.42148 344.6844 367.59335 344.6844Q367.09335 344.6844 366.67148 344.91876Q366.26523 345.15314 366.03085 345.5125L365.04648 345.3875L365.8746 340.98126L370.15585 340.98126L370.15585 341.98126L366.71835 341.98126L366.26523 344.29376Q367.03085 343.7469 367.8746 343.7469Q368.9996 343.7469 369.76523 344.52814Q370.54648 345.3094 370.54648 346.54376Q370.54648 347.7 369.8746 348.5594Q369.04648 349.59064 367.6246 349.59064Q366.45273 349.59064 365.70273 348.9344Q364.96835 348.27814 364.85898 347.2ZM371.85898 345.21564Q371.85898 343.6844 372.17148 342.7625Q372.48398 341.825 373.09335 341.325Q373.71835 340.825 374.65585 340.825Q375.34335 340.825 375.85898 341.10626Q376.39023 341.3875 376.73398 341.91876Q377.07773 342.4344 377.26523 343.1844Q377.45273 343.9344 377.45273 345.21564Q377.45273 346.73126 377.14023 347.65314Q376.84335 348.575 376.21835 349.09064Q375.60898 349.59064 374.65585 349.59064Q373.42148 349.59064 372.70273 348.7Q371.85898 347.6375 371.85898 345.21564ZM372.9371 345.21564Q372.9371 347.325 373.4371 348.02814Q373.9371 348.73126 374.65585 348.73126Q375.39023 348.73126 375.8746 348.02814Q376.3746 347.325 376.3746 345.21564Q376.3746 343.09064 375.8746 342.40314Q375.39023 341.7 374.64023 341.7Q373.92148 341.7 373.48398 342.3094Q372.9371 343.09064 372.9371 345.21564Z" fill-rule="nonzero"/><path fill="#000000" d="M459.63885 350.6844L459.63885 349.6375Q458.8576 349.52814 458.3576 349.27814Q457.8576 349.02814 457.49823 348.46564Q457.13885 347.8875 457.07635 347.0594L458.13885 346.8719Q458.26385 347.71564 458.57635 348.10626Q459.02948 348.66876 459.63885 348.7469L459.63885 345.3875Q458.99823 345.2625 458.31073 344.8719Q457.81073 344.59064 457.52948 344.10626Q457.26385 343.60626 457.26385 342.96564Q457.26385 341.84064 458.06073 341.15314Q458.59198 340.6844 459.63885 340.575L459.63885 340.075L460.26385 340.075L460.26385 340.575Q461.18573 340.65314 461.71698 341.10626Q462.4201 341.6844 462.56073 342.6844L461.46698 342.85626Q461.37323 342.23126 461.07635 341.90314Q460.77948 341.575 460.26385 341.46564L460.26385 344.4969Q461.06073 344.7 461.32635 344.8094Q461.81073 345.02814 462.12323 345.34064Q462.43573 345.65314 462.59198 346.09064Q462.76385 346.5125 462.76385 347.0125Q462.76385 348.10626 462.06073 348.84064Q461.37323 349.575 460.26385 349.6219L460.26385 350.6844L459.63885 350.6844ZM459.63885 341.45Q459.02948 341.54376 458.6701 341.95Q458.32635 342.34064 458.32635 342.8875Q458.32635 343.41876 458.62323 343.79376Q458.9201 344.15314 459.63885 344.3719L459.63885 341.45ZM460.26385 348.7469Q460.87323 348.66876 461.27948 348.21564Q461.68573 347.7469 461.68573 347.075Q461.68573 346.4969 461.38885 346.15314Q461.1076 345.8094 460.26385 345.52814L460.26385 348.7469ZM469.70135 348.4344L469.70135 349.45L464.01385 349.45Q464.01385 349.075 464.13885 348.71564Q464.3576 348.1375 464.82635 347.575Q465.31073 347.0125 466.21698 346.27814Q467.62323 345.1219 468.1076 344.45Q468.6076 343.77814 468.6076 343.1844Q468.6076 342.5594 468.15448 342.1375Q467.70135 341.7 466.9826 341.7Q466.21698 341.7 465.76385 342.15314Q465.31073 342.60626 465.2951 343.41876L464.21698 343.3094Q464.32635 342.09064 465.0451 341.46564Q465.77948 340.825 467.01385 340.825Q468.24823 340.825 468.96698 341.5125Q469.68573 342.2 469.68573 343.21564Q469.68573 343.73126 469.46698 344.23126Q469.26385 344.71564 468.76385 345.27814Q468.27948 345.825 467.15448 346.77814Q466.20135 347.575 465.9201 347.8719Q465.65448 348.15314 465.4826 348.4344L469.70135 348.4344ZM471.74823 349.45L471.74823 348.2469L472.95135 348.2469L472.95135 349.45L471.74823 349.45ZM474.15448 345.21564Q474.15448 343.6844 474.46698 342.7625Q474.77948 341.825 475.38885 341.325Q476.01385 340.825 476.95135 340.825Q477.63885 340.825 478.15448 341.10626Q478.68573 341.3875 479.02948 341.91876Q479.37323 342.4344 479.56073 343.1844Q479.74823 343.9344 479.74823 345.21564Q479.74823 346.73126 479.43573 347.65314Q479.13885 348.575 478.51385 349.09064Q477.90448 349.59064 476.95135 349.59064Q475.71698 349.59064 474.99823 348.7Q474.15448 347.6375 474.15448 345.21564ZM475.2326 345.21564Q475.2326 347.325 475.7326 348.02814Q476.2326 348.73126 476.95135 348.73126Q477.68573 348.73126 478.1701 348.02814Q478.6701 347.325 478.6701 345.21564Q478.6701 343.09064 478.1701 342.40314Q477.68573 341.7 476.93573 341.7Q476.21698 341.7 475.77948 342.3094Q475.2326 343.09064 475.2326 345.21564ZM481.15448 345.21564Q481.15448 343.6844 481.46698 342.7625Q481.77948 341.825 482.38885 341.325Q483.01385 340.825 483.95135 340.825Q484.63885 340.825 485.15448 341.10626Q485.68573 341.3875 486.02948 341.91876Q486.37323 342.4344 486.56073 343.1844Q486.74823 343.9344 486.74823 345.21564Q486.74823 346.73126 486.43573 347.65314Q486.13885 348.575 485.51385 349.09064Q484.90448 349.59064 483.95135 349.59064Q482.71698 349.59064 481.99823 348.7Q481.15448 347.6375 481.15448 345.21564ZM482.2326 345.21564Q482.2326 347.325 482.7326 348.02814Q483.2326 348.73126 483.95135 348.73126Q484.68573 348.73126 485.1701 348.02814Q485.6701 347.325 485.6701 345.21564Q485.6701 343.09064 485.1701 342.40314Q484.68573 341.7 483.93573 341.7Q483.21698 341.7 482.77948 342.3094Q482.2326 343.09064 482.2326 345.21564Z" fill-rule="nonzero"/><path fill="#000000" d="M568.9344 350.6844L568.9344 349.6375Q568.15314 349.52814 567.65314 349.27814Q567.15314 349.02814 566.79376 348.46564Q566.4344 347.8875 566.3719 347.0594L567.4344 346.8719Q567.5594 347.71564 567.8719 348.10626Q568.325 348.66876 568.9344 348.7469L568.9344 345.3875Q568.29376 345.2625 567.60626 344.8719Q567.10626 344.59064 566.825 344.10626Q566.5594 343.60626 566.5594 342.96564Q566.5594 341.84064 567.35626 341.15314Q567.8875 340.6844 568.9344 340.575L568.9344 340.075L569.5594 340.075L569.5594 340.575Q570.48126 340.65314 571.0125 341.10626Q571.71564 341.6844 571.85626 342.6844L570.7625 342.85626Q570.66876 342.23126 570.3719 341.90314Q570.075 341.575 569.5594 341.46564L569.5594 344.4969Q570.35626 344.7 570.6219 344.8094Q571.10626 345.02814 571.41876 345.34064Q571.73126 345.65314 571.8875 346.09064Q572.0594 346.5125 572.0594 347.0125Q572.0594 348.10626 571.35626 348.84064Q570.66876 349.575 569.5594 349.6219L569.5594 350.6844L568.9344 350.6844ZM568.9344 341.45Q568.325 341.54376 567.96564 341.95Q567.6219 342.34064 567.6219 342.8875Q567.6219 343.41876 567.91876 343.79376Q568.21564 344.15314 568.9344 344.3719L568.9344 341.45ZM569.5594 348.7469Q570.16876 348.66876 570.575 348.21564Q570.98126 347.7469 570.98126 347.075Q570.98126 346.4969 570.6844 346.15314Q570.40314 345.8094 569.5594 345.52814L569.5594 348.7469ZM578.9969 348.4344L578.9969 349.45L573.3094 349.45Q573.3094 349.075 573.4344 348.71564Q573.65314 348.1375 574.1219 347.575Q574.60626 347.0125 575.5125 346.27814Q576.91876 345.1219 577.40314 344.45Q577.90314 343.77814 577.90314 343.1844Q577.90314 342.5594 577.45 342.1375Q576.9969 341.7 576.27814 341.7Q575.5125 341.7 575.0594 342.15314Q574.60626 342.60626 574.59064 343.41876L573.5125 343.3094Q573.6219 342.09064 574.34064 341.46564Q575.075 340.825 576.3094 340.825Q577.54376 340.825 578.2625 341.5125Q578.98126 342.2 578.98126 343.21564Q578.98126 343.73126 578.7625 344.23126Q578.5594 344.71564 578.0594 345.27814Q577.575 345.825 576.45 346.77814Q575.4969 347.575 575.21564 347.8719Q574.95 348.15314 574.77814 348.4344L578.9969 348.4344ZM581.04376 349.45L581.04376 348.2469L582.2469 348.2469L582.2469 349.45L581.04376 349.45ZM583.45 347.2L584.5594 347.10626Q584.6844 347.91876 585.1219 348.325Q585.575 348.73126 586.21564 348.73126Q586.96564 348.73126 587.4969 348.15314Q588.02814 347.575 588.02814 346.6375Q588.02814 345.73126 587.5125 345.21564Q587.0125 344.6844 586.1844 344.6844Q585.6844 344.6844 585.2625 344.91876Q584.85626 345.15314 584.6219 345.5125L583.6375 345.3875L584.46564 340.98126L588.7469 340.98126L588.7469 341.98126L585.3094 341.98126L584.85626 344.29376Q585.6219 343.7469 586.46564 343.7469Q587.59064 343.7469 588.35626 344.52814Q589.1375 345.3094 589.1375 346.54376Q589.1375 347.7 588.46564 348.5594Q587.6375 349.59064 586.21564 349.59064Q585.04376 349.59064 584.29376 348.9344Q583.5594 348.27814 583.45 347.2ZM590.45 345.21564Q590.45 343.6844 590.7625 342.7625Q591.075 341.825 591.6844 341.325Q592.3094 340.825 593.2469 340.825Q593.9344 340.825 594.45 341.10626Q594.98126 341.3875 595.325 341.91876Q595.66876 342.4344 595.85626 343.1844Q596.04376 343.9344 596.04376 345.21564Q596.04376 346.73126 595.73126 347.65314Q595.4344 348.575 594.8094 349.09064Q594.2 349.59064 593.2469 349.59064Q592.0125 349.59064 591.29376 348.7Q590.45 347.6375 590.45 345.21564ZM591.52814 345.21564Q591.52814 347.325 592.02814 348.02814Q592.52814 348.73126 593.2469 348.73126Q593.98126 348.73126 594.46564 348.02814Q594.96564 347.325 594.96564 345.21564Q594.96564 343.09064 594.46564 342.40314Q593.98126 341.7 593.23126 341.7Q592.5125 341.7 592.075 342.3094Q591.52814 343.09064 591.52814 345.21564Z" fill-rule="nonzero"/><path fill="#4285f4" d="M199.5 61.916668C199.5 65.23038 196.8137 67.916664 193.5 67.916664C190.1863 67.916664 187.5 65.23038 187.5 61.916668C187.5 58.60296 190.1863 55.916668 193.5 55.916668C196.8137 55.916668 199.5 58.60296 199.5 61.916668Z" fill-rule="nonzero"/><path stroke="#4285f4" stroke-width="4.0" stroke-linecap="butt" stroke-opacity="0.4" d="M215.5 61.916668L227.5 61.916668" fill-rule="nonzero"/><path fill="#1a1a1a" d="M238.60938 65.916664L238.60938 58.33854L235.78125 58.33854L235.78125 57.322914L242.59375 57.322914L242.59375 58.33854L239.75 58.33854L239.75 65.916664L238.60938 65.916664ZM243.28125 65.916664L243.28125 59.697914L244.23438 59.697914L244.23438 60.635414Q244.59375 59.979164 244.89062 59.77604Q245.20312 59.55729 245.57812 59.55729Q246.10938 59.55729 246.65625 59.885414L246.29688 60.86979Q245.90625 60.635414 245.53125 60.635414Q245.17188 60.635414 244.89062 60.854164Q244.625 61.05729 244.51562 61.43229Q244.32812 61.99479 244.32812 62.65104L244.32812 65.916664L243.28125 65.916664ZM251.54688 63.916664L252.64062 64.041664Q252.39062 64.99479 251.6875 65.52604Q250.98438 66.05729 249.90625 66.05729Q248.54688 66.05729 247.73438 65.21354Q246.9375 64.36979 246.9375 62.854164Q246.9375 61.291664 247.75 60.43229Q248.5625 59.55729 249.84375 59.55729Q251.09375 59.55729 251.875 60.40104Q252.67188 61.24479 252.67188 62.791664Q252.67188 62.885414 252.67188 63.072914L248.03125 63.072914Q248.09375 64.104164 248.60938 64.65104Q249.125 65.18229 249.90625 65.18229Q250.48438 65.18229 250.89062 64.885414Q251.3125 64.572914 251.54688 63.916664ZM248.09375 62.21354L251.5625 62.21354Q251.5 61.416664 251.17188 61.02604Q250.65625 60.416664 249.85938 60.416664Q249.125 60.416664 248.625 60.90104Q248.14062 61.385414 248.09375 62.21354ZM254.29688 65.916664L254.29688 59.697914L255.23438 59.697914L255.23438 60.572914Q255.92188 59.55729 257.21875 59.55729Q257.78125 59.55729 258.25 59.760414Q258.73438 59.96354 258.96875 60.291664Q259.20312 60.61979 259.29688 61.05729Q259.34375 61.354164 259.34375 62.08854L259.34375 65.916664L258.29688 65.916664L258.29688 62.135414Q258.29688 61.479164 258.17188 61.166664Q258.04688 60.854164 257.73438 60.666664Q257.42188 60.46354 257.0 60.46354Q256.32812 60.46354 255.82812 60.90104Q255.34375 61.322914 255.34375 62.510414L255.34375 65.916664L254.29688 65.916664ZM265.32812 65.916664L265.32812 65.135414Q264.73438 66.05729 263.59375 66.05729Q262.84375 66.05729 262.21875 65.65104Q261.59375 65.229164 261.25 64.49479Q260.90625 63.760414 260.90625 62.80729Q260.90625 61.885414 261.21875 61.11979Q261.53125 60.354164 262.15625 59.96354Q262.78125 59.55729 263.54688 59.55729Q264.10938 59.55729 264.54688 59.791664Q264.98438 60.02604 265.26562 60.40104L265.26562 57.322914L266.3125 57.322914L266.3125 65.916664L265.32812 65.916664ZM262.0 62.80729Q262.0 64.010414 262.5 64.604164Q263.0 65.18229 263.6875 65.18229Q264.375 65.18229 264.85938 64.61979Q265.34375 64.05729 265.34375 62.90104Q265.34375 61.61979 264.84375 61.02604Q264.35938 60.43229 263.64062 60.43229Q262.9375 60.43229 262.46875 61.010414Q262.0 61.572914 262.0 62.80729ZM268.26562 65.916664L268.26562 57.322914L269.32812 57.322914L269.32812 65.916664L268.26562 65.916664ZM271.29688 58.541664L271.29688 57.322914L272.35938 57.322914L272.35938 58.541664L271.29688 58.541664ZM271.29688 65.916664L271.29688 59.697914L272.35938 59.697914L272.35938 65.916664L271.29688 65.916664ZM274.29688 65.916664L274.29688 59.697914L275.23438 59.697914L275.23438 60.572914Q275.92188 59.55729 277.21875 59.55729Q277.78125 59.55729 278.25 59.760414Q278.73438 59.96354 278.96875 60.291664Q279.20312 60.61979 279.29688 61.05729Q279.34375 61.354164 279.34375 62.08854L279.34375 65.916664L278.29688 65.916664L278.29688 62.135414Q278.29688 61.479164 278.17188 61.166664Q278.04688 60.854164 277.73438 60.666664Q277.42188 60.46354 277.0 60.46354Q276.32812 60.46354 275.82812 60.90104Q275.34375 61.322914 275.34375 62.510414L275.34375 65.916664L274.29688 65.916664ZM285.54688 63.916664L286.64062 64.041664Q286.39062 64.99479 285.6875 65.52604Q284.98438 66.05729 283.90625 66.05729Q282.54688 66.05729 281.73438 65.21354Q280.9375 64.36979 280.9375 62.854164Q280.9375 61.291664 281.75 60.43229Q282.5625 59.55729 283.84375 59.55729Q285.09375 59.55729 285.875 60.40104Q286.67188 61.24479 286.67188 62.791664Q286.67188 62.885414 286.67188 63.072914L282.03125 63.072914Q282.09375 64.104164 282.60938 64.65104Q283.125 65.18229 283.90625 65.18229Q284.48438 65.18229 284.89062 64.885414Q285.3125 64.572914 285.54688 63.916664ZM282.09375 62.21354L285.5625 62.21354Q285.5 61.416664 285.17188 61.02604Q284.65625 60.416664 283.85938 60.416664Q283.125 60.416664 282.625 60.90104Q282.14062 61.385414 282.09375 62.21354ZM291.54688 65.916664L291.54688 60.510414L290.60938 60.510414L290.60938 59.697914L291.54688 59.697914L291.54688 59.02604Q291.54688 58.40104 291.65625 58.104164Q291.8125 57.68229 292.1875 57.43229Q292.57812 57.18229 293.26562 57.18229Q293.71875 57.18229 294.25 57.291664L294.09375 58.197914Q293.76562 58.15104 293.46875 58.15104Q292.98438 58.15104 292.78125 58.354164Q292.59375 58.55729 292.59375 59.11979L292.59375 59.697914L293.8125 59.697914L293.8125 60.510414L292.59375 60.510414L292.59375 65.916664L291.54688 65.916664ZM293.90625 62.80729Q293.90625 61.072914 294.85938 60.24479Q295.65625 59.55729 296.8125 59.55729Q298.09375 59.55729 298.90625 60.40104Q299.73438 61.229164 299.73438 62.71354Q299.73438 63.916664 299.375 64.604164Q299.01562 65.291664 298.3125 65.68229Q297.625 66.05729 296.8125 66.05729Q295.51562 66.05729 294.70312 65.229164Q293.90625 64.385414 293.90625 62.80729ZM294.98438 62.80729Q294.98438 63.99479 295.5 64.58854Q296.03125 65.18229 296.8125 65.18229Q297.60938 65.18229 298.125 64.58854Q298.64062 63.99479 298.64062 62.77604Q298.64062 61.61979 298.10938 61.02604Q297.59375 60.43229 296.8125 60.43229Q296.03125 60.43229 295.5 61.02604Q294.98438 61.604164 294.98438 62.80729ZM301.28125 65.916664L301.28125 59.697914L302.23438 59.697914L302.23438 60.635414Q302.59375 59.979164 302.89062 59.77604Q303.20312 59.55729 303.57812 59.55729Q304.10938 59.55729 304.65625 59.885414L304.29688 60.86979Q303.90625 60.635414 303.53125 60.635414Q303.17188 60.635414 302.89062 60.854164Q302.625 61.05729 302.51562 61.43229Q302.32812 61.99479 302.32812 62.65104L302.32812 65.916664L301.28125 65.916664ZM307.875 64.05729L308.90625 63.90104Q309.0 64.52604 309.39062 64.854164Q309.79688 65.18229 310.53125 65.18229Q311.25 65.18229 311.59375 64.90104Q311.95312 64.604164 311.95312 64.197914Q311.95312 63.83854 311.64062 63.635414Q311.42188 63.49479 310.5625 63.27604Q309.40625 62.979164 308.95312 62.77604Q308.51562 62.55729 308.28125 62.18229Q308.04688 61.80729 308.04688 61.33854Q308.04688 60.93229 308.23438 60.572914Q308.42188 60.21354 308.75 59.979164Q309.0 59.80729 309.42188 59.68229Q309.84375 59.55729 310.34375 59.55729Q311.0625 59.55729 311.60938 59.77604Q312.17188 59.979164 312.4375 60.33854Q312.70312 60.697914 312.79688 61.291664L311.76562 61.43229Q311.70312 60.96354 311.35938 60.697914Q311.03125 60.416664 310.40625 60.416664Q309.6875 60.416664 309.375 60.666664Q309.0625 60.90104 309.0625 61.229164Q309.0625 61.43229 309.1875 61.58854Q309.32812 61.760414 309.59375 61.86979Q309.75 61.93229 310.53125 62.135414Q311.65625 62.447914 312.09375 62.635414Q312.53125 62.822914 312.78125 63.18229Q313.03125 63.541664 313.03125 64.08854Q313.03125 64.61979 312.71875 65.08854Q312.42188 65.541664 311.84375 65.80729Q311.26562 66.05729 310.53125 66.05729Q309.3125 66.05729 308.67188 65.55729Q308.04688 65.041664 307.875 64.05729ZM319.54688 63.916664L320.64062 64.041664Q320.39062 64.99479 319.6875 65.52604Q318.98438 66.05729 317.90625 66.05729Q316.54688 66.05729 315.73438 65.21354Q314.9375 64.36979 314.9375 62.854164Q314.9375 61.291664 315.75 60.43229Q316.5625 59.55729 317.84375 59.55729Q319.09375 59.55729 319.875 60.40104Q320.67188 61.24479 320.67188 62.791664Q320.67188 62.885414 320.67188 63.072914L316.03125 63.072914Q316.09375 64.104164 316.60938 64.65104Q317.125 65.18229 317.90625 65.18229Q318.48438 65.18229 318.89062 64.885414Q319.3125 64.572914 319.54688 63.916664ZM316.09375 62.21354L319.5625 62.21354Q319.5 61.416664 319.17188 61.02604Q318.65625 60.416664 317.85938 60.416664Q317.125 60.416664 316.625 60.90104Q316.14062 61.385414 316.09375 62.21354ZM322.28125 65.916664L322.28125 59.697914L323.23438 59.697914L323.23438 60.635414Q323.59375 59.979164 323.89062 59.77604Q324.20312 59.55729 324.57812 59.55729Q325.10938 59.55729 325.65625 59.885414L325.29688 60.86979Q324.90625 60.635414 324.53125 60.635414Q324.17188 60.635414 323.89062 60.854164Q323.625 61.05729 323.51562 61.43229Q323.32812 61.99479 323.32812 62.65104L323.32812 65.916664L322.28125 65.916664ZM326.29688 58.541664L326.29688 57.322914L327.35938 57.322914L327.35938 58.541664L326.29688 58.541664ZM326.29688 65.916664L326.29688 59.697914L327.35938 59.697914L327.35938 65.916664L326.29688 65.916664ZM333.54688 63.916664L334.64062 64.041664Q334.39062 64.99479 333.6875 65.52604Q332.98438 66.05729 331.90625 66.05729Q330.54688 66.05729 329.73438 65.21354Q328.9375 64.36979 328.9375 62.854164Q328.9375 61.291664 329.75 60.43229Q330.5625 59.55729 331.84375 59.55729Q333.09375 59.55729 333.875 60.40104Q334.67188 61.24479 334.67188 62.791664Q334.67188 62.885414 334.67188 63.072914L330.03125 63.072914Q330.09375 64.104164 330.60938 64.65104Q331.125 65.18229 331.90625 65.18229Q332.48438 65.18229 332.89062 64.885414Q333.3125 64.572914 333.54688 63.916664ZM330.09375 62.21354L333.5625 62.21354Q333.5 61.416664 333.17188 61.02604Q332.65625 60.416664 331.85938 60.416664Q331.125 60.416664 330.625 60.90104Q330.14062 61.385414 330.09375 62.21354ZM335.875 64.05729L336.90625 63.90104Q337.0 64.52604 337.39062 64.854164Q337.79688 65.18229 338.53125 65.18229Q339.25 65.18229 339.59375 64.90104Q339.95312 64.604164 339.95312 64.197914Q339.95312 63.83854 339.64062 63.635414Q339.42188 63.49479 338.5625 63.27604Q337.40625 62.979164 336.95312 62.77604Q336.51562 62.55729 336.28125 62.18229Q336.04688 61.80729 336.04688 61.33854Q336.04688 60.93229 336.23438 60.572914Q336.42188 60.21354 336.75 59.979164Q337.0 59.80729 337.42188 59.68229Q337.84375 59.55729 338.34375 59.55729Q339.0625 59.55729 339.60938 59.77604Q340.17188 59.979164 340.4375 60.33854Q340.70312 60.697914 340.79688 61.291664L339.76562 61.43229Q339.70312 60.96354 339.35938 60.697914Q339.03125 60.416664 338.40625 60.416664Q337.6875 60.416664 337.375 60.666664Q337.0625 60.90104 337.0625 61.229164Q337.0625 61.43229 337.1875 61.58854Q337.32812 61.760414 337.59375 61.86979Q337.75 61.93229 338.53125 62.135414Q339.65625 62.447914 340.09375 62.635414Q340.53125 62.822914 340.78125 63.18229Q341.03125 63.541664 341.03125 64.08854Q341.03125 64.61979 340.71875 65.08854Q340.42188 65.541664 339.84375 65.80729Q339.26562 66.05729 338.53125 66.05729Q337.3125 66.05729 336.67188 65.55729Q336.04688 65.041664 335.875 64.05729ZM349.96875 65.916664L348.92188 65.916664L348.92188 59.197914Q348.53125 59.55729 347.90625 59.93229Q347.29688 60.291664 346.8125 60.46354L346.8125 59.447914Q347.6875 59.02604 348.34375 58.447914Q349.01562 57.854164 349.29688 57.291664L349.96875 57.291664L349.96875 65.916664ZM356.4375 65.916664L356.4375 57.322914L360.25 57.322914Q361.40625 57.322914 362.0 57.55729Q362.59375 57.791664 362.95312 58.385414Q363.3125 58.96354 363.3125 59.666664Q363.3125 60.58854 362.71875 61.21354Q362.125 61.83854 360.89062 62.010414Q361.34375 62.229164 361.57812 62.43229Q362.07812 62.885414 362.51562 63.572914L364.01562 65.916664L362.57812 65.916664L361.45312 64.135414Q360.95312 63.354164 360.625 62.947914Q360.3125 62.541664 360.04688 62.385414Q359.79688 62.21354 359.53125 62.135414Q359.34375 62.104164 358.90625 62.104164L357.57812 62.104164L357.57812 65.916664L356.4375 65.916664ZM357.57812 61.11979L360.03125 61.11979Q360.79688 61.11979 361.23438 60.96354Q361.6875 60.791664 361.90625 60.447914Q362.14062 60.08854 362.14062 59.666664Q362.14062 59.05729 361.6875 58.666664Q361.25 58.27604 360.29688 58.27604L357.57812 58.27604L357.57812 61.11979ZM364.64062 61.61979Q364.6875 61.291664 364.92188 60.947914Q365.29688 60.447914 366.14062 59.83854Q366.98438 59.229164 367.14062 59.041664Q367.35938 58.80729 367.35938 58.55729Q367.35938 58.27604 367.14062 58.104164Q366.9375 57.916664 366.54688 57.916664Q366.15625 57.916664 365.96875 58.05729Q365.78125 58.18229 365.65625 58.572914L364.76562 58.479164Q364.9375 57.83854 365.35938 57.52604Q365.78125 57.21354 366.5625 57.21354Q367.45312 57.21354 367.85938 57.572914Q368.28125 57.916664 368.28125 58.416664Q368.28125 58.90104 367.92188 59.33854Q367.67188 59.666664 366.73438 60.33854Q366.23438 60.697914 366.03125 60.916664L368.29688 60.916664L368.29688 61.61979L364.64062 61.61979ZM377.84375 60.86979L372.17188 60.86979L372.17188 59.885414L377.84375 59.885414L377.84375 60.86979ZM377.84375 63.479164L372.17188 63.479164L372.17188 62.49479L377.84375 62.49479L377.84375 63.479164ZM382.0 61.68229Q382.0 60.15104 382.3125 59.229164Q382.625 58.291664 383.23438 57.791664Q383.85938 57.291664 384.79688 57.291664Q385.48438 57.291664 386.0 57.572914Q386.53125 57.854164 386.875 58.385414Q387.21875 58.90104 387.40625 59.65104Q387.59375 60.40104 387.59375 61.68229Q387.59375 63.197914 387.28125 64.11979Q386.98438 65.041664 386.35938 65.55729Q385.75 66.05729 384.79688 66.05729Q383.5625 66.05729 382.84375 65.166664Q382.0 64.104164 382.0 61.68229ZM383.07812 61.68229Q383.07812 63.791664 383.57812 64.49479Q384.07812 65.197914 384.79688 65.197914Q385.53125 65.197914 386.01562 64.49479Q386.51562 63.791664 386.51562 61.68229Q386.51562 59.55729 386.01562 58.86979Q385.53125 58.166664 384.78125 58.166664Q384.0625 58.166664 383.625 58.77604Q383.07812 59.55729 383.07812 61.68229ZM389.59375 65.916664L389.59375 64.71354L390.79688 64.71354L390.79688 65.916664L389.59375 65.916664ZM392.0 61.68229Q392.0 60.15104 392.3125 59.229164Q392.625 58.291664 393.23438 57.791664Q393.85938 57.291664 394.79688 57.291664Q395.48438 57.291664 396.0 57.572914Q396.53125 57.854164 396.875 58.385414Q397.21875 58.90104 397.40625 59.65104Q397.59375 60.40104 397.59375 61.68229Q397.59375 63.197914 397.28125 64.11979Q396.98438 65.041664 396.35938 65.55729Q395.75 66.05729 394.79688 66.05729Q393.5625 66.05729 392.84375 65.166664Q392.0 64.104164 392.0 61.68229ZM393.07812 61.68229Q393.07812 63.791664 393.57812 64.49479Q394.07812 65.197914 394.79688 65.197914Q395.53125 65.197914 396.01562 64.49479Q396.51562 63.791664 396.51562 61.68229Q396.51562 59.55729 396.01562 58.86979Q395.53125 58.166664 394.78125 58.166664Q394.0625 58.166664 393.625 58.77604Q393.07812 59.55729 393.07812 61.68229ZM402.96875 65.916664L401.92188 65.916664L401.92188 59.197914Q401.53125 59.55729 400.90625 59.93229Q400.29688 60.291664 399.8125 60.46354L399.8125 59.447914Q400.6875 59.02604 401.34375 58.447914Q402.01562 57.854164 402.29688 57.291664L402.96875 57.291664L402.96875 65.916664ZM411.54688 64.90104L411.54688 65.916664L405.85938 65.916664Q405.85938 65.541664 405.98438 65.18229Q406.20312 64.604164 406.67188 64.041664Q407.15625 63.479164 408.0625 62.74479Q409.46875 61.58854 409.95312 60.916664Q410.45312 60.24479 410.45312 59.65104Q410.45312 59.02604 410.0 58.604164Q409.54688 58.166664 408.82812 58.166664Q408.0625 58.166664 407.60938 58.61979Q407.15625 59.072914 407.14062 59.885414L406.0625 59.77604Q406.17188 58.55729 406.89062 57.93229Q407.625 57.291664 408.85938 57.291664Q410.09375 57.291664 410.8125 57.979164Q411.53125 58.666664 411.53125 59.68229Q411.53125 60.197914 411.3125 60.697914Q411.10938 61.18229 410.60938 61.74479Q410.125 62.291664 409.0 63.24479Q408.04688 64.041664 407.76562 64.33854Q407.5 64.61979 407.32812 64.90104L411.54688 64.90104Z" fill-rule="nonzero"/><path fill="#000000" d="M24.159374 36.253124Q24.8 36.253124 25.346874 36.003124Q25.89375 35.7375 26.2375 35.26875Q26.596874 34.8 26.64375 34.20625L28.3625 34.20625Q28.315624 35.14375 27.7375 35.95625Q27.159374 36.753124 26.221874 37.253124Q25.284374 37.753124 24.159374 37.753124Q22.971874 37.753124 22.08125 37.33125Q21.190624 36.909374 20.6125 36.175Q20.034374 35.440624 19.7375 34.4875Q19.45625 33.534374 19.45625 32.471874L19.45625 32.065624Q19.45625 31.003124 19.7375 30.05Q20.034374 29.096874 20.6125 28.3625Q21.190624 27.628124 22.08125 27.20625Q22.971874 26.784374 24.159374 26.784374Q25.39375 26.784374 26.315624 27.3Q27.253124 27.8 27.784374 28.659374Q28.315624 29.51875 28.3625 30.6125L26.64375 30.6125Q26.596874 29.95625 26.26875 29.440624Q25.95625 28.909374 25.409374 28.596874Q24.878124 28.26875 24.159374 28.26875Q23.33125 28.26875 22.76875 28.596874Q22.20625 28.925 21.878124 29.4875Q21.55 30.034374 21.409374 30.70625Q21.26875 31.3625 21.26875 32.065624L21.26875 32.471874Q21.26875 33.159374 21.39375 33.846874Q21.534374 34.51875 21.8625 35.065624Q22.190624 35.6125 22.753124 35.940624Q23.315624 36.253124 24.159374 36.253124ZM29.45625 32.378124L29.45625 32.159374Q29.45625 31.01875 29.784374 30.034374Q30.1125 29.05 30.7375 28.33125Q31.3625 27.596874 32.253124 27.190624Q33.14375 26.784374 34.2375 26.784374Q35.3625 26.784374 36.253124 27.190624Q37.14375 27.596874 37.76875 28.33125Q38.409374 29.05 38.7375 30.034374Q39.065624 31.01875 39.065624 32.159374L39.065624 32.378124Q39.065624 33.51875 38.7375 34.503124Q38.409374 35.471874 37.76875 36.20625Q37.14375 36.940624 36.253124 37.346874Q35.378124 37.753124 34.26875 37.753124Q33.14375 37.753124 32.253124 37.346874Q31.378124 36.940624 30.7375 36.20625Q30.1125 35.471874 29.784374 34.503124Q29.45625 33.51875 29.45625 32.378124ZM31.253124 32.159374L31.253124 32.378124Q31.253124 33.175 31.440624 33.878124Q31.628124 34.565624 32.003124 35.1125Q32.378124 35.64375 32.940624 35.95625Q33.51875 36.253124 34.26875 36.253124Q35.003124 36.253124 35.565624 35.95625Q36.128124 35.64375 36.503124 35.1125Q36.878124 34.565624 37.065624 33.878124Q37.253124 33.175 37.253124 32.378124L37.253124 32.159374Q37.253124 31.378124 37.065624 30.690624Q36.878124 29.9875 36.4875 29.440624Q36.1125 28.89375 35.55 28.58125Q35.003124 28.26875 34.2375 28.26875Q33.503124 28.26875 32.940624 28.58125Q32.378124 28.89375 32.003124 29.440624Q31.628124 29.9875 31.440624 30.690624Q31.253124 31.378124 31.253124 32.159374ZM47.08125 34.753124Q47.08125 34.3625 46.909374 34.01875Q46.7375 33.675 46.20625 33.409374Q45.690624 33.128124 44.64375 32.925Q43.76875 32.7375 43.05 32.4875Q42.346874 32.221874 41.846874 31.8625Q41.3625 31.503124 41.096874 31.01875Q40.846874 30.534374 40.846874 29.878124Q40.846874 29.253124 41.1125 28.690624Q41.39375 28.128124 41.909374 27.70625Q42.425 27.26875 43.14375 27.034374Q43.8625 26.784374 44.753124 26.784374Q46.01875 26.784374 46.909374 27.2375Q47.815624 27.690624 48.3 28.440624Q48.784374 29.175 48.784374 30.08125L46.971874 30.08125Q46.971874 29.64375 46.70625 29.2375Q46.45625 28.815624 45.95625 28.55Q45.471874 28.26875 44.753124 28.26875Q44.003124 28.26875 43.534374 28.503124Q43.08125 28.7375 42.8625 29.096874Q42.659374 29.440624 42.659374 29.83125Q42.659374 30.1125 42.753124 30.346874Q42.8625 30.58125 43.128124 30.76875Q43.39375 30.95625 43.8625 31.128124Q44.346874 31.284374 45.08125 31.45625Q46.39375 31.753124 47.221874 32.159374Q48.065624 32.565624 48.471874 33.159374Q48.89375 33.753124 48.89375 34.6125Q48.89375 35.3 48.596874 35.878124Q48.315624 36.45625 47.76875 36.878124Q47.221874 37.284374 46.471874 37.51875Q45.7375 37.753124 44.8 37.753124Q43.409374 37.753124 42.440624 37.253124Q41.471874 36.753124 40.971874 35.95625Q40.471874 35.159374 40.471874 34.284374L42.3 34.284374Q42.33125 35.034374 42.721874 35.471874Q43.1125 35.89375 43.675 36.08125Q44.253124 36.253124 44.8 36.253124Q45.55 36.253124 46.05 36.065624Q46.55 35.8625 46.815624 35.534374Q47.08125 35.190624 47.08125 34.753124ZM55.346874 26.9875L55.346874 28.3625L49.64375 28.3625L49.64375 26.9875L55.346874 26.9875ZM51.565624 24.409374L53.378124 24.409374L53.378124 34.925Q53.378124 35.471874 53.534374 35.753124Q53.70625 36.01875 53.971874 36.1125Q54.2375 36.190624 54.534374 36.190624Q54.76875 36.190624 55.01875 36.14375Q55.26875 36.096874 55.39375 36.08125L55.39375 37.55Q55.190624 37.6125 54.83125 37.675Q54.4875 37.753124 54.003124 37.753124Q53.346874 37.753124 52.784374 37.4875Q52.221874 37.221874 51.89375 36.596874Q51.565624 35.971874 51.565624 34.925L51.565624 24.409374ZM66.14375 35.925L69.03438 26.9875L70.87813 26.9875L67.08125 37.55L65.8625 37.55L66.14375 35.925ZM63.721874 26.9875L66.70625 35.971874L66.90938 37.55L65.70625 37.55L61.878124 26.9875L63.721874 26.9875ZM79.08125 34.753124Q79.08125 34.3625 78.90938 34.01875Q78.7375 33.675 78.20625 33.409374Q77.69063 33.128124 76.64375 32.925Q75.76875 32.7375 75.05 32.4875Q74.34688 32.221874 73.84688 31.8625Q73.3625 31.503124 73.09688 31.01875Q72.84688 30.534374 72.84688 29.878124Q72.84688 29.253124 73.1125 28.690624Q73.39375 28.128124 73.90938 27.70625Q74.425 27.26875 75.14375 27.034374Q75.8625 26.784374 76.75313 26.784374Q78.01875 26.784374 78.90938 27.2375Q79.81563 27.690624 80.3 28.440624Q80.78438 29.175 80.78438 30.08125L78.97188 30.08125Q78.97188 29.64375 78.70625 29.2375Q78.45625 28.815624 77.95625 28.55Q77.47188 28.26875 76.75313 28.26875Q76.00313 28.26875 75.53438 28.503124Q75.08125 28.7375 74.8625 29.096874Q74.65938 29.440624 74.65938 29.83125Q74.65938 30.1125 74.75313 30.346874Q74.8625 30.58125 75.12813 30.76875Q75.39375 30.95625 75.8625 31.128124Q76.34688 31.284374 77.08125 31.45625Q78.39375 31.753124 79.22188 32.159374Q80.06563 32.565624 80.47188 33.159374Q80.89375 33.753124 80.89375 34.6125Q80.89375 35.3 80.59688 35.878124Q80.31563 36.45625 79.76875 36.878124Q79.22188 37.284374 78.47188 37.51875Q77.7375 37.753124 76.8 37.753124Q75.40938 37.753124 74.44063 37.253124Q73.47188 36.753124 72.97188 35.95625Q72.47188 35.159374 72.47188 34.284374L74.3 34.284374Q74.33125 35.034374 74.72188 35.471874Q75.1125 35.89375 75.675 36.08125Q76.25313 36.253124 76.8 36.253124Q77.55 36.253124 78.05 36.065624Q78.55 35.8625 78.81563 35.534374Q79.08125 35.190624 79.08125 34.753124ZM82.95625 36.596874Q82.95625 36.128124 83.2375 35.815624Q83.53438 35.503124 84.08125 35.503124Q84.62813 35.503124 84.90938 35.815624Q85.20625 36.128124 85.20625 36.596874Q85.20625 37.034374 84.90938 37.3625Q84.62813 37.675 84.08125 37.675Q83.53438 37.675 83.2375 37.3625Q82.95625 37.034374 82.95625 36.596874ZM94.7375 29.01875L94.7375 41.6125L92.925 41.6125L92.925 26.9875L94.58125 26.9875L94.7375 29.01875ZM101.84688 32.175L101.84688 32.378124Q101.84688 33.534374 101.56563 34.51875Q101.3 35.503124 100.78438 36.221874Q100.26875 36.940624 99.50313 37.346874Q98.7375 37.753124 97.75313 37.753124Q96.75313 37.753124 95.97188 37.425Q95.20625 37.08125 94.65938 36.45625Q94.12813 35.815624 93.8 34.925Q93.4875 34.034374 93.37813 32.925L93.37813 31.83125Q93.4875 30.659374 93.81563 29.7375Q94.14375 28.8 94.675 28.14375Q95.20625 27.4875 95.95625 27.14375Q96.72188 26.784374 97.72188 26.784374Q98.72188 26.784374 99.4875 27.175Q100.26875 27.565624 100.78438 28.284374Q101.31563 28.9875 101.58125 29.9875Q101.84688 30.971874 101.84688 32.175ZM100.03438 32.378124L100.03438 32.175Q100.03438 31.39375 99.8625 30.690624Q99.70625 29.9875 99.3625 29.45625Q99.01875 28.925 98.47188 28.628124Q97.94063 28.315624 97.19063 28.315624Q96.51875 28.315624 96.00313 28.55Q95.50313 28.784374 95.14375 29.175Q94.8 29.565624 94.58125 30.08125Q94.3625 30.58125 94.25313 31.1125L94.25313 33.64375Q94.45625 34.33125 94.8 34.940624Q95.15938 35.534374 95.7375 35.89375Q96.33125 36.253124 97.22188 36.253124Q97.94063 36.253124 98.47188 35.95625Q99.01875 35.64375 99.3625 35.1125Q99.70625 34.565624 99.8625 33.878124Q100.03438 33.175 100.03438 32.378124ZM105.7375 28.64375L105.7375 37.55L103.925 37.55L103.925 26.9875L105.69063 26.9875L105.7375 28.64375ZM109.03438 26.925L109.01875 28.596874Q108.8 28.55 108.59688 28.534374Q108.39375 28.51875 108.14375 28.51875Q107.51875 28.51875 107.03438 28.721874Q106.56563 28.909374 106.22188 29.26875Q105.89375 29.6125 105.70625 30.096874Q105.51875 30.58125 105.45625 31.159374L104.95625 31.45625Q104.95625 30.503124 105.14375 29.659374Q105.33125 28.815624 105.72188 28.175Q106.12813 27.51875 106.75313 27.159374Q107.37813 26.784374 108.2375 26.784374Q108.425 26.784374 108.675 26.83125Q108.94063 26.878124 109.03438 26.925ZM112.89375 26.9875L112.89375 37.55L111.08125 37.55L111.08125 26.9875L112.89375 26.9875ZM110.94063 24.175Q110.94063 23.7375 111.20625 23.440624Q111.47188 23.128124 112.00313 23.128124Q112.51875 23.128124 112.8 23.440624Q113.08125 23.7375 113.08125 24.175Q113.08125 24.596874 112.8 24.89375Q112.51875 25.190624 112.00313 25.190624Q111.47188 25.190624 111.20625 24.89375Q110.94063 24.596874 110.94063 24.175ZM120.15938 36.253124Q120.8 36.253124 121.34688 36.003124Q121.89375 35.7375 122.2375 35.26875Q122.59688 34.8 122.64375 34.20625L124.3625 34.20625Q124.31563 35.14375 123.7375 35.95625Q123.15938 36.753124 122.22188 37.253124Q121.28438 37.753124 120.15938 37.753124Q118.97188 37.753124 118.08125 37.33125Q117.19063 36.909374 116.6125 36.175Q116.03438 35.440624 115.7375 34.4875Q115.45625 33.534374 115.45625 32.471874L115.45625 32.065624Q115.45625 31.003124 115.7375 30.05Q116.03438 29.096874 116.6125 28.3625Q117.19063 27.628124 118.08125 27.20625Q118.97188 26.784374 120.15938 26.784374Q121.39375 26.784374 122.31563 27.3Q123.25313 27.8 123.78438 28.659374Q124.31563 29.51875 124.3625 30.6125L122.64375 30.6125Q122.59688 29.95625 122.26875 29.440624Q121.95625 28.909374 121.40938 28.596874Q120.87813 28.26875 120.15938 28.26875Q119.33125 28.26875 118.76875 28.596874Q118.20625 28.925 117.87813 29.4875Q117.55 30.034374 117.40938 30.70625Q117.26875 31.3625 117.26875 32.065624L117.26875 32.471874Q117.26875 33.159374 117.39375 33.846874Q117.53438 34.51875 117.8625 35.065624Q118.19063 35.6125 118.75313 35.940624Q119.31563 36.253124 120.15938 36.253124ZM130.31563 37.753124Q129.20625 37.753124 128.31563 37.378124Q127.425 36.9875 126.78438 36.315624Q126.14375 35.628124 125.8 34.690624Q125.45625 33.753124 125.45625 32.64375L125.45625 32.221874Q125.45625 30.940624 125.83125 29.925Q126.22188 28.909374 126.87813 28.20625Q127.53438 27.503124 128.3625 27.14375Q129.19063 26.784374 130.08125 26.784374Q131.20625 26.784374 132.03438 27.175Q132.8625 27.565624 133.37813 28.26875Q133.90938 28.971874 134.15938 29.909374Q134.425 30.846874 134.425 31.95625L134.425 32.76875L126.53438 32.76875L126.53438 31.3L132.6125 31.3L132.6125 31.159374Q132.58125 30.45625 132.33125 29.8Q132.08125 29.128124 131.53438 28.70625Q131.00313 28.26875 130.08125 28.26875Q129.45625 28.26875 128.94063 28.534374Q128.425 28.784374 128.05 29.3Q127.69063 29.8 127.47188 30.534374Q127.26875 31.26875 127.26875 32.221874L127.26875 32.64375Q127.26875 33.39375 127.47188 34.05Q127.69063 34.70625 128.09688 35.20625Q128.50313 35.70625 129.08125 35.9875Q129.675 36.26875 130.40938 36.26875Q131.3625 36.26875 132.01875 35.878124Q132.69063 35.4875 133.19063 34.83125L134.28438 35.70625Q133.94063 36.221874 133.40938 36.690624Q132.89375 37.159374 132.12813 37.45625Q131.3625 37.753124 130.31563 37.753124ZM146.31563 37.753124Q145.20625 37.753124 144.31563 37.378124Q143.425 36.9875 142.78438 36.315624Q142.14375 35.628124 141.8 34.690624Q141.45625 33.753124 141.45625 32.64375L141.45625 32.221874Q141.45625 30.940624 141.83125 29.925Q142.22188 28.909374 142.87813 28.20625Q143.53438 27.503124 144.3625 27.14375Q145.19063 26.784374 146.08125 26.784374Q147.20625 26.784374 148.03438 27.175Q148.8625 27.565624 149.37813 28.26875Q149.90938 28.971874 150.15938 29.909374Q150.425 30.846874 150.425 31.95625L150.425 32.76875L142.53438 32.76875L142.53438 31.3L148.6125 31.3L148.6125 31.159374Q148.58125 30.45625 148.33125 29.8Q148.08125 29.128124 147.53438 28.70625Q147.00313 28.26875 146.08125 28.26875Q145.45625 28.26875 144.94063 28.534374Q144.425 28.784374 144.05 29.3Q143.69063 29.8 143.47188 30.534374Q143.26875 31.26875 143.26875 32.221874L143.26875 32.64375Q143.26875 33.39375 143.47188 34.05Q143.69063 34.70625 144.09688 35.20625Q144.50313 35.70625 145.08125 35.9875Q145.675 36.26875 146.40938 36.26875Q147.3625 36.26875 148.01875 35.878124Q148.69063 35.4875 149.19063 34.83125L150.28438 35.70625Q149.94063 36.221874 149.40938 36.690624Q148.89375 37.159374 148.12813 37.45625Q147.3625 37.753124 146.31563 37.753124ZM155.62813 37.55L153.81563 37.55L153.81563 25.8625Q153.81563 24.721874 154.22188 23.940624Q154.64375 23.159374 155.425 22.753124Q156.20625 22.346874 157.28438 22.346874Q157.59688 22.346874 157.90938 22.39375Q158.2375 22.425 158.53438 22.503124L158.44063 23.971874Q158.2375 23.925 157.97188 23.909374Q157.70625 23.89375 157.45625 23.89375Q156.87813 23.89375 156.45625 24.128124Q156.05 24.346874 155.83125 24.784374Q155.62813 25.221874 155.62813 25.8625L155.62813 37.55ZM157.8625 26.9875L157.8625 28.3625L152.14375 28.3625L152.14375 26.9875L157.8625 26.9875ZM162.62813 37.55L160.81563 37.55L160.81563 25.8625Q160.81563 24.721874 161.22188 23.940624Q161.64375 23.159374 162.425 22.753124Q163.20625 22.346874 164.28438 22.346874Q164.59688 22.346874 164.90938 22.39375Q165.2375 22.425 165.53438 22.503124L165.44063 23.971874Q165.2375 23.925 164.97188 23.909374Q164.70625 23.89375 164.45625 23.89375Q163.87813 23.89375 163.45625 24.128124Q163.05 24.346874 162.83125 24.784374Q162.62813 25.221874 162.62813 25.8625L162.62813 37.55ZM164.8625 26.9875L164.8625 28.3625L159.14375 28.3625L159.14375 26.9875L164.8625 26.9875ZM168.89375 26.9875L168.89375 37.55L167.08125 37.55L167.08125 26.9875L168.89375 26.9875ZM166.94063 24.175Q166.94063 23.7375 167.20625 23.440624Q167.47188 23.128124 168.00313 23.128124Q168.51875 23.128124 168.8 23.440624Q169.08125 23.7375 169.08125 24.175Q169.08125 24.596874 168.8 24.89375Q168.51875 25.190624 168.00313 25.190624Q167.47188 25.190624 167.20625 24.89375Q166.94063 24.596874 166.94063 24.175ZM176.15938 36.253124Q176.8 36.253124 177.34688 36.003124Q177.89375 35.7375 178.2375 35.26875Q178.59688 34.8 178.64375 34.20625L180.3625 34.20625Q180.31563 35.14375 179.7375 35.95625Q179.15938 36.753124 178.22188 37.253124Q177.28438 37.753124 176.15938 37.753124Q174.97188 37.753124 174.08125 37.33125Q173.19063 36.909374 172.6125 36.175Q172.03438 35.440624 171.7375 34.4875Q171.45625 33.534374 171.45625 32.471874L171.45625 32.065624Q171.45625 31.003124 171.7375 30.05Q172.03438 29.096874 172.6125 28.3625Q173.19063 27.628124 174.08125 27.20625Q174.97188 26.784374 176.15938 26.784374Q177.39375 26.784374 178.31563 27.3Q179.25313 27.8 179.78438 28.659374Q180.31563 29.51875 180.3625 30.6125L178.64375 30.6125Q178.59688 29.95625 178.26875 29.440624Q177.95625 28.909374 177.40938 28.596874Q176.87813 28.26875 176.15938 28.26875Q175.33125 28.26875 174.76875 28.596874Q174.20625 28.925 173.87813 29.4875Q173.55 30.034374 173.40938 30.70625Q173.26875 31.3625 173.26875 32.065624L173.26875 32.471874Q173.26875 33.159374 173.39375 33.846874Q173.53438 34.51875 173.8625 35.065624Q174.19063 35.6125 174.75313 35.940624Q175.31563 36.253124 176.15938 36.253124ZM183.89375 26.9875L183.89375 37.55L182.08125 37.55L182.08125 26.9875L183.89375 26.9875ZM181.94063 24.175Q181.94063 23.7375 182.20625 23.440624Q182.47188 23.128124 183.00313 23.128124Q183.51875 23.128124 183.8 23.440624Q184.08125 23.7375 184.08125 24.175Q184.08125 24.596874 183.8 24.89375Q183.51875 25.190624 183.00313 25.190624Q182.47188 25.190624 182.20625 24.89375Q181.94063 24.596874 181.94063 24.175ZM191.31563 37.753124Q190.20625 37.753124 189.31563 37.378124Q188.425 36.9875 187.78438 36.315624Q187.14375 35.628124 186.8 34.690624Q186.45625 33.753124 186.45625 32.64375L186.45625 32.221874Q186.45625 30.940624 186.83125 29.925Q187.22188 28.909374 187.87813 28.20625Q188.53438 27.503124 189.3625 27.14375Q190.19063 26.784374 191.08125 26.784374Q192.20625 26.784374 193.03438 27.175Q193.8625 27.565624 194.37813 28.26875Q194.90938 28.971874 195.15938 29.909374Q195.425 30.846874 195.425 31.95625L195.425 32.76875L187.53438 32.76875L187.53438 31.3L193.6125 31.3L193.6125 31.159374Q193.58125 30.45625 193.33125 29.8Q193.08125 29.128124 192.53438 28.70625Q192.00313 28.26875 191.08125 28.26875Q190.45625 28.26875 189.94063 28.534374Q189.425 28.784374 189.05 29.3Q188.69063 29.8 188.47188 30.534374Q188.26875 31.26875 188.26875 32.221874L188.26875 32.64375Q188.26875 33.39375 188.47188 34.05Q188.69063 34.70625 189.09688 35.20625Q189.50313 35.70625 190.08125 35.9875Q190.675 36.26875 191.40938 36.26875Q192.3625 36.26875 193.01875 35.878124Q193.69063 35.4875 194.19063 34.83125L195.28438 35.70625Q194.94063 36.221874 194.40938 36.690624Q193.89375 37.159374 193.12813 37.45625Q192.3625 37.753124 191.31563 37.753124ZM199.7375 29.2375L199.7375 37.55L197.925 37.55L197.925 26.9875L199.64375 26.9875L199.7375 29.2375ZM199.3 31.8625L198.55 31.83125Q198.56563 30.753124 198.87813 29.83125Q199.19063 28.909374 199.75313 28.221874Q200.31563 27.534374 201.09688 27.159374Q201.89375 26.784374 202.84688 26.784374Q203.62813 26.784374 204.25313 27.003124Q204.87813 27.20625 205.31563 27.675Q205.76875 28.128124 206.00313 28.8625Q206.2375 29.58125 206.2375 30.628124L206.2375 37.55L204.425 37.55L204.425 30.6125Q204.425 29.76875 204.175 29.26875Q203.94063 28.76875 203.47188 28.55Q203.00313 28.315624 202.31563 28.315624Q201.64375 28.315624 201.08125 28.596874Q200.53438 28.878124 200.12813 29.378124Q199.7375 29.878124 199.51875 30.51875Q199.3 31.159374 199.3 31.8625ZM213.15938 36.253124Q213.8 36.253124 214.34688 36.003124Q214.89375 35.7375 215.2375 35.26875Q215.59688 34.8 215.64375 34.20625L217.3625 34.20625Q217.31563 35.14375 216.7375 35.95625Q216.15938 36.753124 215.22188 37.253124Q214.28438 37.753124 213.15938 37.753124Q211.97188 37.753124 211.08125 37.33125Q210.19063 36.909374 209.6125 36.175Q209.03438 35.440624 208.7375 34.4875Q208.45625 33.534374 208.45625 32.471874L208.45625 32.065624Q208.45625 31.003124 208.7375 30.05Q209.03438 29.096874 209.6125 28.3625Q210.19063 27.628124 211.08125 27.20625Q211.97188 26.784374 213.15938 26.784374Q214.39375 26.784374 215.31563 27.3Q216.25313 27.8 216.78438 28.659374Q217.31563 29.51875 217.3625 30.6125L215.64375 30.6125Q215.59688 29.95625 215.26875 29.440624Q214.95625 28.909374 214.40938 28.596874Q213.87813 28.26875 213.15938 28.26875Q212.33125 28.26875 211.76875 28.596874Q211.20625 28.925 210.87813 29.4875Q210.55 30.034374 210.40938 30.70625Q210.26875 31.3625 210.26875 32.065624L210.26875 32.471874Q210.26875 33.159374 210.39375 33.846874Q210.53438 34.51875 210.8625 35.065624Q211.19063 35.6125 211.75313 35.940624Q212.31563 36.253124 213.15938 36.253124ZM221.89375 36.45625L224.83125 26.9875L226.76875 26.9875L222.53438 39.175Q222.37813 39.565624 222.14375 40.01875Q221.90938 40.4875 221.53438 40.89375Q221.15938 41.3 220.62813 41.55Q220.1125 41.815624 219.39375 41.815624Q219.175 41.815624 218.84688 41.753124Q218.51875 41.70625 218.37813 41.659374L218.37813 40.190624Q218.45625 40.20625 218.6125 40.221874Q218.78438 40.2375 218.8625 40.2375Q219.47188 40.2375 219.89375 40.065624Q220.33125 39.909374 220.62813 39.534374Q220.925 39.159374 221.14375 38.503124L221.89375 36.45625ZM219.7375 26.9875L222.4875 35.190624L222.95625 37.096874L221.65938 37.753124L217.76875 26.9875L219.7375 26.9875ZM232.8625 31.8625L232.8625 31.76875Q232.8625 29.64375 233.33125 27.925Q233.81563 26.190624 234.55 24.89375Q235.3 23.596874 236.1125 22.7375Q236.94063 21.878124 237.62813 21.503124L238.01875 22.690624Q237.44063 23.128124 236.84688 23.909374Q236.25313 24.675 235.75313 25.8Q235.26875 26.925 234.95625 28.409374Q234.65938 29.89375 234.65938 31.753124L234.65938 31.878124Q234.65938 33.7375 234.95625 35.2375Q235.26875 36.721874 235.75313 37.846874Q236.25313 38.9875 236.84688 39.784374Q237.44063 40.58125 238.01875 41.05L237.62813 42.14375Q236.94063 41.753124 236.1125 40.89375Q235.3 40.05 234.55 38.753124Q233.81563 37.45625 233.33125 35.7375Q232.8625 34.003124 232.8625 31.8625ZM244.15938 36.253124Q244.8 36.253124 245.34688 36.003124Q245.89375 35.7375 246.2375 35.26875Q246.59688 34.8 246.64375 34.20625L248.3625 34.20625Q248.31563 35.14375 247.7375 35.95625Q247.15938 36.753124 246.22188 37.253124Q245.28438 37.753124 244.15938 37.753124Q242.97188 37.753124 242.08125 37.33125Q241.19063 36.909374 240.6125 36.175Q240.03438 35.440624 239.7375 34.4875Q239.45625 33.534374 239.45625 32.471874L239.45625 32.065624Q239.45625 31.003124 239.7375 30.05Q240.03438 29.096874 240.6125 28.3625Q241.19063 27.628124 242.08125 27.20625Q242.97188 26.784374 244.15938 26.784374Q245.39375 26.784374 246.31563 27.3Q247.25313 27.8 247.78438 28.659374Q248.31563 29.51875 248.3625 30.6125L246.64375 30.6125Q246.59688 29.95625 246.26875 29.440624Q245.95625 28.909374 245.40938 28.596874Q244.87813 28.26875 244.15938 28.26875Q243.33125 28.26875 242.76875 28.596874Q242.20625 28.925 241.87813 29.4875Q241.55 30.034374 241.40938 30.70625Q241.26875 31.3625 241.26875 32.065624L241.26875 32.471874Q241.26875 33.159374 241.39375 33.846874Q241.53438 34.51875 241.8625 35.065624Q242.19063 35.6125 242.75313 35.940624Q243.31563 36.253124 244.15938 36.253124ZM249.45625 32.378124L249.45625 32.159374Q249.45625 31.01875 249.78438 30.034374Q250.1125 29.05 250.7375 28.33125Q251.3625 27.596874 252.25313 27.190624Q253.14375 26.784374 254.2375 26.784374Q255.3625 26.784374 256.2531 27.190624Q257.14374 27.596874 257.76874 28.33125Q258.40936 29.05 258.7375 30.034374Q259.0656 31.01875 259.0656 32.159374L259.0656 32.378124Q259.0656 33.51875 258.7375 34.503124Q258.40936 35.471874 257.76874 36.20625Q257.14374 36.940624 256.2531 37.346874Q255.37813 37.753124 254.26875 37.753124Q253.14375 37.753124 252.25313 37.346874Q251.37813 36.940624 250.7375 36.20625Q250.1125 35.471874 249.78438 34.503124Q249.45625 33.51875 249.45625 32.378124ZM251.25313 32.159374L251.25313 32.378124Q251.25313 33.175 251.44063 33.878124Q251.62813 34.565624 252.00313 35.1125Q252.37813 35.64375 252.94063 35.95625Q253.51875 36.253124 254.26875 36.253124Q255.00313 36.253124 255.56563 35.95625Q256.1281 35.64375 256.5031 35.1125Q256.8781 34.565624 257.0656 33.878124Q257.2531 33.175 257.2531 32.378124L257.2531 32.159374Q257.2531 31.378124 257.0656 30.690624Q256.8781 29.9875 256.4875 29.440624Q256.1125 28.89375 255.55 28.58125Q255.00313 28.26875 254.2375 28.26875Q253.50313 28.26875 252.94063 28.58125Q252.37813 28.89375 252.00313 29.440624Q251.62813 29.9875 251.44063 30.690624Q251.25313 31.378124 251.25313 32.159374ZM267.08124 34.753124Q267.08124 34.3625 266.90936 34.01875Q266.7375 33.675 266.20624 33.409374Q265.6906 33.128124 264.64374 32.925Q263.76874 32.7375 263.05 32.4875Q262.34686 32.221874 261.84686 31.8625Q261.3625 31.503124 261.09686 31.01875Q260.84686 30.534374 260.84686 29.878124Q260.84686 29.253124 261.1125 28.690624Q261.39374 28.128124 261.90936 27.70625Q262.425 27.26875 263.14374 27.034374Q263.8625 26.784374 264.7531 26.784374Q266.01874 26.784374 266.90936 27.2375Q267.8156 27.690624 268.3 28.440624Q268.78436 29.175 268.78436 30.08125L266.97186 30.08125Q266.97186 29.64375 266.70624 29.2375Q266.45624 28.815624 265.95624 28.55Q265.47186 28.26875 264.7531 28.26875Q264.0031 28.26875 263.53436 28.503124Q263.08124 28.7375 262.8625 29.096874Q262.65936 29.440624 262.65936 29.83125Q262.65936 30.1125 262.7531 30.346874Q262.8625 30.58125 263.1281 30.76875Q263.39374 30.95625 263.8625 31.128124Q264.34686 31.284374 265.08124 31.45625Q266.39374 31.753124 267.22186 32.159374Q268.0656 32.565624 268.47186 33.159374Q268.89374 33.753124 268.89374 34.6125Q268.89374 35.3 268.59686 35.878124Q268.3156 36.45625 267.76874 36.878124Q267.22186 37.284374 266.47186 37.51875Q265.7375 37.753124 264.8 37.753124Q263.40936 37.753124 262.4406 37.253124Q261.47186 36.753124 260.97186 35.95625Q260.47186 35.159374 260.47186 34.284374L262.3 34.284374Q262.33124 35.034374 262.72186 35.471874Q263.1125 35.89375 263.675 36.08125Q264.2531 36.253124 264.8 36.253124Q265.55 36.253124 266.05 36.065624Q266.55 35.8625 266.8156 35.534374Q267.08124 35.190624 267.08124 34.753124ZM275.34686 26.9875L275.34686 28.3625L269.64374 28.3625L269.64374 26.9875L275.34686 26.9875ZM271.5656 24.409374L273.3781 24.409374L273.3781 34.925Q273.3781 35.471874 273.53436 35.753124Q273.70624 36.01875 273.97186 36.1125Q274.2375 36.190624 274.53436 36.190624Q274.76874 36.190624 275.01874 36.14375Q275.26874 36.096874 275.39374 36.08125L275.39374 37.55Q275.1906 37.6125 274.83124 37.675Q274.4875 37.753124 274.0031 37.753124Q273.34686 37.753124 272.78436 37.4875Q272.22186 37.221874 271.89374 36.596874Q271.5656 35.971874 271.5656 34.925L271.5656 24.409374ZM281.6906 30.76875L281.6906 32.253124L276.925 32.253124L276.925 30.76875L281.6906 30.76875ZM285.7375 28.64375L285.7375 37.55L283.925 37.55L283.925 26.9875L285.6906 26.9875L285.7375 28.64375ZM289.03436 26.925L289.01874 28.596874Q288.8 28.55 288.59686 28.534374Q288.39374 28.51875 288.14374 28.51875Q287.51874 28.51875 287.03436 28.721874Q286.5656 28.909374 286.22186 29.26875Q285.89374 29.6125 285.70624 30.096874Q285.51874 30.58125 285.45624 31.159374L284.95624 31.45625Q284.95624 30.503124 285.14374 29.659374Q285.33124 28.815624 285.72186 28.175Q286.1281 27.51875 286.7531 27.159374Q287.3781 26.784374 288.2375 26.784374Q288.425 26.784374 288.675 26.83125Q288.9406 26.878124 289.03436 26.925ZM297.15936 35.7375L297.15936 30.3Q297.15936 29.675 296.90936 29.221874Q296.65936 28.753124 296.15936 28.503124Q295.65936 28.2375 294.925 28.2375Q294.2531 28.2375 293.7375 28.471874Q293.22186 28.70625 292.925 29.096874Q292.64374 29.471874 292.64374 29.909374L290.84686 29.909374Q290.84686 29.346874 291.1281 28.8Q291.425 28.2375 291.97186 27.784374Q292.53436 27.33125 293.3 27.065624Q294.08124 26.784374 295.03436 26.784374Q296.1906 26.784374 297.0656 27.175Q297.95624 27.565624 298.45624 28.3625Q298.97186 29.14375 298.97186 30.315624L298.97186 35.2375Q298.97186 35.76875 299.05 36.3625Q299.14374 36.95625 299.33124 37.39375L299.33124 37.55L297.45624 37.55Q297.3156 37.2375 297.2375 36.721874Q297.15936 36.190624 297.15936 35.7375ZM297.47186 31.14375L297.4875 32.409374L295.65936 32.409374Q294.89374 32.409374 294.28436 32.534374Q293.675 32.659374 293.26874 32.909374Q292.8625 33.14375 292.64374 33.51875Q292.425 33.878124 292.425 34.3625Q292.425 34.8625 292.64374 35.284374Q292.8781 35.690624 293.33124 35.925Q293.78436 36.159374 294.45624 36.159374Q295.28436 36.159374 295.90936 35.815624Q296.55 35.45625 296.925 34.95625Q297.3 34.440624 297.33124 33.971874L298.1125 34.83125Q298.03436 35.2375 297.72186 35.7375Q297.425 36.2375 296.925 36.690624Q296.425 37.14375 295.7375 37.45625Q295.05 37.753124 294.1906 37.753124Q293.1125 37.753124 292.3 37.33125Q291.5031 36.909374 291.05 36.20625Q290.6125 35.4875 290.6125 34.6125Q290.6125 33.753124 290.9406 33.1125Q291.28436 32.45625 291.90936 32.034374Q292.53436 31.596874 293.40936 31.378124Q294.28436 31.14375 295.3781 31.14375L297.47186 31.14375ZM303.7375 29.2375L303.7375 37.55L301.925 37.55L301.925 26.9875L303.64374 26.9875L303.7375 29.2375ZM303.3 31.8625L302.55 31.83125Q302.5656 30.753124 302.8781 29.83125Q303.1906 28.909374 303.7531 28.221874Q304.3156 27.534374 305.09686 27.159374Q305.89374 26.784374 306.84686 26.784374Q307.6281 26.784374 308.2531 27.003124Q308.8781 27.20625 309.3156 27.675Q309.76874 28.128124 310.0031 28.8625Q310.2375 29.58125 310.2375 30.628124L310.2375 37.55L308.425 37.55L308.425 30.6125Q308.425 29.76875 308.175 29.26875Q307.9406 28.76875 307.47186 28.55Q307.0031 28.315624 306.3156 28.315624Q305.64374 28.315624 305.08124 28.596874Q304.53436 28.878124 304.1281 29.378124Q303.7375 29.878124 303.51874 30.51875Q303.3 31.159374 303.3 31.8625ZM314.7375 22.55L314.7375 37.55L312.925 37.55L312.925 22.55L314.7375 22.55ZM321.20624 26.9875L316.59686 31.909374L314.01874 34.596874L313.8625 32.659374L315.70624 30.45625L318.9875 26.9875L321.20624 26.9875ZM319.55 37.55L315.78436 32.503124L316.72186 30.89375L321.675 37.55L319.55 37.55ZM334.08124 34.753124Q334.08124 34.3625 333.90936 34.01875Q333.7375 33.675 333.20624 33.409374Q332.6906 33.128124 331.64374 32.925Q330.76874 32.7375 330.05 32.4875Q329.34686 32.221874 328.84686 31.8625Q328.3625 31.503124 328.09686 31.01875Q327.84686 30.534374 327.84686 29.878124Q327.84686 29.253124 328.1125 28.690624Q328.39374 28.128124 328.90936 27.70625Q329.425 27.26875 330.14374 27.034374Q330.8625 26.784374 331.7531 26.784374Q333.01874 26.784374 333.90936 27.2375Q334.8156 27.690624 335.3 28.440624Q335.78436 29.175 335.78436 30.08125L333.97186 30.08125Q333.97186 29.64375 333.70624 29.2375Q333.45624 28.815624 332.95624 28.55Q332.47186 28.26875 331.7531 28.26875Q331.0031 28.26875 330.53436 28.503124Q330.08124 28.7375 329.8625 29.096874Q329.65936 29.440624 329.65936 29.83125Q329.65936 30.1125 329.7531 30.346874Q329.8625 30.58125 330.1281 30.76875Q330.39374 30.95625 330.8625 31.128124Q331.34686 31.284374 332.08124 31.45625Q333.39374 31.753124 334.22186 32.159374Q335.0656 32.565624 335.47186 33.159374Q335.89374 33.753124 335.89374 34.6125Q335.89374 35.3 335.59686 35.878124Q335.3156 36.45625 334.76874 36.878124Q334.22186 37.284374 333.47186 37.51875Q332.7375 37.753124 331.8 37.753124Q330.40936 37.753124 329.4406 37.253124Q328.47186 36.753124 327.97186 35.95625Q327.47186 35.159374 327.47186 34.284374L329.3 34.284374Q329.33124 35.034374 329.72186 35.471874Q330.1125 35.89375 330.675 36.08125Q331.2531 36.253124 331.8 36.253124Q332.55 36.253124 333.05 36.065624Q333.55 35.8625 333.8156 35.534374Q334.08124 35.190624 334.08124 34.753124ZM342.15936 36.253124Q342.8 36.253124 343.34686 36.003124Q343.89374 35.7375 344.2375 35.26875Q344.59686 34.8 344.64374 34.20625L346.3625 34.20625Q346.3156 35.14375 345.7375 35.95625Q345.15936 36.753124 344.22186 37.253124Q343.28436 37.753124 342.15936 37.753124Q340.97186 37.753124 340.08124 37.33125Q339.1906 36.909374 338.6125 36.175Q338.03436 35.440624 337.7375 34.4875Q337.45624 33.534374 337.45624 32.471874L337.45624 32.065624Q337.45624 31.003124 337.7375 30.05Q338.03436 29.096874 338.6125 28.3625Q339.1906 27.628124 340.08124 27.20625Q340.97186 26.784374 342.15936 26.784374Q343.39374 26.784374 344.3156 27.3Q345.2531 27.8 345.78436 28.659374Q346.3156 29.51875 346.3625 30.6125L344.64374 30.6125Q344.59686 29.95625 344.26874 29.440624Q343.95624 28.909374 343.40936 28.596874Q342.8781 28.26875 342.15936 28.26875Q341.33124 28.26875 340.76874 28.596874Q340.20624 28.925 339.8781 29.4875Q339.55 30.034374 339.40936 30.70625Q339.26874 31.3625 339.26874 32.065624L339.26874 32.471874Q339.26874 33.159374 339.39374 33.846874Q339.53436 34.51875 339.8625 35.065624Q340.1906 35.6125 340.7531 35.940624Q341.3156 36.253124 342.15936 36.253124ZM347.45624 32.378124L347.45624 32.159374Q347.45624 31.01875 347.78436 30.034374Q348.1125 29.05 348.7375 28.33125Q349.3625 27.596874 350.2531 27.190624Q351.14374 26.784374 352.2375 26.784374Q353.3625 26.784374 354.2531 27.190624Q355.14374 27.596874 355.76874 28.33125Q356.40936 29.05 356.7375 30.034374Q357.0656 31.01875 357.0656 32.159374L357.0656 32.378124Q357.0656 33.51875 356.7375 34.503124Q356.40936 35.471874 355.76874 36.20625Q355.14374 36.940624 354.2531 37.346874Q353.3781 37.753124 352.26874 37.753124Q351.14374 37.753124 350.2531 37.346874Q349.3781 36.940624 348.7375 36.20625Q348.1125 35.471874 347.78436 34.503124Q347.45624 33.51875 347.45624 32.378124ZM349.2531 32.159374L349.2531 32.378124Q349.2531 33.175 349.4406 33.878124Q349.6281 34.565624 350.0031 35.1125Q350.3781 35.64375 350.9406 35.95625Q351.51874 36.253124 352.26874 36.253124Q353.0031 36.253124 353.5656 35.95625Q354.1281 35.64375 354.5031 35.1125Q354.8781 34.565624 355.0656 33.878124Q355.2531 33.175 355.2531 32.378124L355.2531 32.159374Q355.2531 31.378124 355.0656 30.690624Q354.8781 29.9875 354.4875 29.440624Q354.1125 28.89375 353.55 28.58125Q353.0031 28.26875 352.2375 28.26875Q351.5031 28.26875 350.9406 28.58125Q350.3781 28.89375 350.0031 29.440624Q349.6281 29.9875 349.4406 30.690624Q349.2531 31.378124 349.2531 32.159374ZM360.7375 28.64375L360.7375 37.55L358.925 37.55L358.925 26.9875L360.6906 26.9875L360.7375 28.64375ZM364.03436 26.925L364.01874 28.596874Q363.8 28.55 363.59686 28.534374Q363.39374 28.51875 363.14374 28.51875Q362.51874 28.51875 362.03436 28.721874Q361.5656 28.909374 361.22186 29.26875Q360.89374 29.6125 360.70624 30.096874Q360.51874 30.58125 360.45624 31.159374L359.95624 31.45625Q359.95624 30.503124 360.14374 29.659374Q360.33124 28.815624 360.72186 28.175Q361.1281 27.51875 361.7531 27.159374Q362.3781 26.784374 363.2375 26.784374Q363.425 26.784374 363.675 26.83125Q363.9406 26.878124 364.03436 26.925ZM370.3156 37.753124Q369.20624 37.753124 368.3156 37.378124Q367.425 36.9875 366.78436 36.315624Q366.14374 35.628124 365.8 34.690624Q365.45624 33.753124 365.45624 32.64375L365.45624 32.221874Q365.45624 30.940624 365.83124 29.925Q366.22186 28.909374 366.8781 28.20625Q367.53436 27.503124 368.3625 27.14375Q369.1906 26.784374 370.08124 26.784374Q371.20624 26.784374 372.03436 27.175Q372.8625 27.565624 373.3781 28.26875Q373.90936 28.971874 374.15936 29.909374Q374.425 30.846874 374.425 31.95625L374.425 32.76875L366.53436 32.76875L366.53436 31.3L372.6125 31.3L372.6125 31.159374Q372.58124 30.45625 372.33124 29.8Q372.08124 29.128124 371.53436 28.70625Q371.0031 28.26875 370.08124 28.26875Q369.45624 28.26875 368.9406 28.534374Q368.425 28.784374 368.05 29.3Q367.6906 29.8 367.47186 30.534374Q367.26874 31.26875 367.26874 32.221874L367.26874 32.64375Q367.26874 33.39375 367.47186 34.05Q367.6906 34.70625 368.09686 35.20625Q368.5031 35.70625 369.08124 35.9875Q369.675 36.26875 370.40936 36.26875Q371.3625 36.26875 372.01874 35.878124Q372.6906 35.4875 373.1906 34.83125L374.28436 35.70625Q373.9406 36.221874 373.40936 36.690624Q372.89374 37.159374 372.1281 37.45625Q371.3625 37.753124 370.3156 37.753124ZM381.08124 31.76875L381.08124 31.8625Q381.08124 34.003124 380.59686 35.7375Q380.1281 37.45625 379.3781 38.753124Q378.64374 40.05 377.8156 40.89375Q377.0031 41.753124 376.3156 42.14375L375.925 41.05Q376.5031 40.6125 377.08124 39.815624Q377.675 39.034374 378.175 37.878124Q378.675 36.7375 378.97186 35.2375Q379.28436 33.7375 379.28436 31.878124L379.28436 31.753124Q379.28436 29.89375 378.95624 28.39375Q378.64374 26.89375 378.1281 25.753124Q377.6125 24.6125 377.03436 23.83125Q376.45624 23.034374 375.925 22.6125L376.3156 21.503124Q377.0031 21.878124 377.8156 22.7375Q378.64374 23.596874 379.3781 24.89375Q380.1281 26.190624 380.59686 27.925Q381.08124 29.64375 381.08124 31.76875Z" fill-rule="nonzero"/></svg>