<svg version="1.1" viewBox="0.0 0.0 600.0 371.0" fill="none" stroke="none" stroke-linecap="square" stroke-miterlimit="10" width="600" height="371" xmlns:xlink="http://www.w3.org/1999/xlink" xmlns="http://www.w3.org/2000/svg"><path fill="#ffffff" d="M0 0L600.0 0L600.0 371.0L0 371.0L0 0Z" fill-rule="nonzero"/><path stroke="#000000" stroke-width="1.0" stroke-linecap="butt" stroke-opacity="0.0" d="M552.5 88.5L552.5 326.5" fill-rule="nonzero"/><path stroke="#000000" stroke-width="1.0" stroke-linecap="butt" stroke-opacity="0.0" d="M523.5 88.5L523.5 326.5" fill-rule="nonzero"/><path stroke="#000000" stroke-width="1.0" stroke-linecap="butt" stroke-opacity="0.0" d="M464.5 88.5L464.5 326.5" fill-rule="nonzero"/><path stroke="#000000" stroke-width="1.0" stroke-linecap="butt" stroke-opacity="0.0" d="M435.5 88.5L435.5 326.5" fill-rule="nonzero"/><path stroke="#000000" stroke-width="1.0" stroke-linecap="butt" stroke-opacity="0.0" d="M376.5 88.5L376.5 326.5" fill-rule="nonzero"/><path stroke="#000000" stroke-width="1.0" stroke-linecap="butt" stroke-opacity="0.0" d="M347.5 88.5L347.5 326.5" fill-rule="nonzero"/><path stroke="#000000" stroke-width="1.0" stroke-linecap="butt" stroke-opacity="0.0" d="M289.5 88.5L289.5 326.5" fill-rule="nonzero"/><path stroke="#000000" stroke-width="1.0" stroke-linecap="butt" stroke-opacity="0.0" d="M260.5 88.5L260.5 326.5" fill-rule="nonzero"/><path stroke="#000000" stroke-width="1.0" stroke-linecap="butt" stroke-opacity="0.0" d="M201.5 88.5L201.5 326.5" fill-rule="nonzero"/><path stroke="#000000" stroke-width="1.0" stroke-linecap="butt" stroke-opacity="0.0" d="M172.5 88.5L172.5 326.5" fill-rule="nonzero"/><path stroke="#000000" stroke-width="1.0" stroke-linecap="butt" stroke-opacity="0.0" d="M113.5 88.5L113.5 326.5" fill-rule="nonzero"/><path stroke="#000000" stroke-width="1.0" stroke-linecap="butt" stroke-opacity="0.0" d="M84.5 88.5L84.5 326.5" fill-rule="nonzero"/><path stroke="#333333" stroke-width="1.0" stroke-linecap="butt" d="M55.5 326.5L581.5 326.5" fill-rule="nonzero"/><path stroke="#cccccc" stroke-width="1.0" stroke-linecap="butt" d="M55.5 266.5L581.5 266.5" fill-rule="nonzero"/><path stroke="#cccccc" stroke-width="1.0" stroke-linecap="butt" d="M55.5 207.5L581.5 207.5" fill-rule="nonzero"/><path stroke="#cccccc" stroke-width="1.0" stroke-linecap="butt" d="M55.5 147.5L581.5 147.5" fill-rule="nonzero"/><path stroke="#cccccc" stroke-width="1.0" stroke-linecap="butt" d="M55.5 88.5L581.5 88.5" fill-rule="nonzero"/><path stroke="#000000" stroke-width="1.0" stroke-linecap="butt" stroke-opacity="0.0" d="M55.5 306.5L581.5 306.5" fill-rule="nonzero"/><path stroke="#000000" stroke-width="1.0" stroke-linecap="butt" stroke-opacity="0.0" d="M55.5 286.5L581.5 286.5" fill-rule="nonzero"/><path stroke="#000000" stroke-width="1.0" stroke-linecap="butt" stroke-opacity="0.0" d="M55.5 247.5L581.5 247.5" fill-rule="nonzero"/><path stroke="#000000" stroke-width="1.0" stroke-linecap="butt" stroke-opacity="0.0" d="M55.5 227.5L581.5 227.5" fill-rule="nonzero"/><path stroke="#000000" stroke-width="1.0" stroke-linecap="butt" stroke-opacity="0.0" d="M55.5 187.5L581.5 187.5" fill-rule="nonzero"/><path stroke="#000000" stroke-width="1.0" stroke-linecap="butt" stroke-opacity="0.0" d="M55.5 167.5L581.5 167.5" fill-rule="nonzero"/><path stroke="#000000" stroke-width="1.0" stroke-linecap="butt" stroke-opacity="0.0" d="M55.5 127.5L581.5 127.5" fill-rule="nonzero"/><path stroke="#000000" stroke-width="1.0" stroke-linecap="butt" stroke-opacity="0.0" d="M55.5 108.5L581.5 108.5" fill-rule="nonzero"/><path stroke="#000000" stroke-width="1.0" stroke-linecap="butt" d="M581.5 326.5L55.5 326.5" fill-rule="nonzero"/><clipPath id="id_0"><path d="M55.55 88.28333L581.45 88.28333L581.45 326.45L55.55 326.45L55.55 88.28333Z" clip-rule="nonzero"/></clipPath><path stroke="#4285f4" stroke-width="2.0" stroke-linecap="butt" stroke-opacity="0.4" clip-path="url(#id_0)" d="M0 749.91486C0 749.91486 2.6666667 737.4475 4.0 731.33374C5.3333335 725.22 6.6666665 719.1871 8.0 713.2321C9.333333 707.27716 10.666667 701.40216 12.0 695.6041C13.333333 689.806 14.666667 684.0869 16.0 678.4438C17.333334 672.8006 18.666666 667.2354 20.0 661.7452C21.333334 656.25494 22.666666 650.8417 24.0 645.50244C25.333334 640.16315 26.666666 634.8999 28.0 629.7096C29.333334 624.51935 30.666666 619.40405 32.0 614.3608C33.333332 609.3175 34.666668 604.34827 36.0 599.4501C37.333332 594.5518 38.666668 589.7266 40.0 584.9715C41.333332 580.2163 42.666668 575.5332 44.0 570.9191C45.333332 566.30505 46.666668 561.7621 48.0 557.2871C49.333332 552.8122 50.666668 548.4073 52.0 544.0695C53.333332 539.73175 54.666668 535.463 56.0 531.2604C57.333332 527.0578 58.666668 522.9233 60.0 518.8538C61.333332 514.7844 62.666668 510.7821 64.0 506.84393C65.333336 502.90576 66.666664 499.0337 68.0 495.22476C69.333336 491.41583 70.666664 487.67203 72.0 483.9904C73.333336 480.30875 74.666664 476.69125 76.0 473.13492C77.333336 469.57858 78.666664 466.08542 80.0 462.6524C81.333336 459.21942 82.666664 455.8486 84.0 452.53696C85.333336 449.22534 86.666664 445.97488 88.0 442.78265C89.333336 439.59042 90.666664 436.45837 92.0 433.38354C93.333336 430.30872 94.666664 427.29312 96.0 424.33374C97.333336 421.37436 98.666664 418.4732 100.0 415.62732C101.333336 412.7814 102.666664 409.99274 104.0 407.25833C105.333336 404.52393 106.666664 401.84576 108.0 399.2209C109.333336 396.596 110.666664 394.0264 112.0 391.50906C113.333336 388.99176 114.666664 386.5287 116.0 384.11694C117.333336 381.7052 118.666664 379.34674 120.0 377.0386C121.333336 374.73047 122.666664 372.47464 124.0 370.26813C125.333336 368.06165 126.666664 365.90643 128.0 363.7996C129.33333 361.69275 130.66667 359.63623 132.0 357.62708C133.33333 355.61792 134.66667 353.6581 136.0 351.7447C137.33333 349.83124 138.66667 347.96616 140.0 346.14645C141.33333 344.32675 142.66667 342.5544 144.0 340.8265C145.33333 339.09857 146.66667 337.41702 148.0 335.77887C149.33333 334.14075 150.66667 332.548 152.0 330.9977C153.33333 329.4474 154.66667 327.94147 156.0 326.47702C157.33333 325.01257 158.66667 323.59152 160.0 322.21094C161.33333 320.83035 162.66667 319.4922 164.0 318.1935C165.33333 316.89484 166.66667 315.6376 168.0 314.41885C169.33333 313.2001 170.66667 312.02182 172.0 310.881C173.33333 309.74023 174.66667 308.63892 176.0 307.5741C177.33333 306.50928 178.66667 305.48297 180.0 304.49216C181.33333 303.50137 182.66667 302.54807 184.0 301.6293C185.33333 300.71054 186.66667 299.8283 188.0 298.9796C189.33333 298.13092 190.66667 297.31775 192.0 296.53714C193.33333 295.75656 194.66667 295.0105 196.0 294.29602C197.33333 293.58154 198.66667 292.9006 200.0 292.25027C201.33333 291.5999 202.66667 290.98215 204.0 290.39398C205.33333 289.80585 206.66667 289.24924 208.0 288.72128C209.33333 288.19333 210.66667 287.69595 212.0 287.22623C213.33333 286.7565 214.66667 286.31635 216.0 285.90286C217.33333 285.4894 218.66667 285.10452 220.0 284.74533C221.33333 284.38614 222.66667 284.05457 224.0 283.74768C225.33333 283.4408 226.66667 283.16055 228.0 282.904C229.33333 282.64743 230.66667 282.41653 232.0 282.20834C233.33333 282.00012 234.66667 281.81662 236.0 281.65482C237.33333 281.493 238.66667 281.3549 240.0 281.2375C241.33333 281.1201 242.66667 281.02542 244.0 280.95047C245.33333 280.87552 246.66667 280.82227 248.0 280.7878C249.33333 280.75333 250.66667 280.73956 252.0 280.7436C253.33333 280.74762 254.66667 280.77136 256.0 280.81192C257.33334 280.85245 258.66666 280.91174 260.0 280.98685C261.33334 281.06192 262.66666 281.1548 264.0 281.26245C265.33334 281.37015 266.66666 281.4946 268.0 281.63287C269.33334 281.77115 270.66666 281.9252 272.0 282.0921C273.33334 282.259 274.66666 282.44073 276.0 282.6343C277.33334 282.82785 278.66666 283.03525 280.0 283.2535C281.33334 283.47174 282.66666 283.70282 284.0 283.9438C285.33334 284.18475 286.66666 284.43756 288.0 284.69928C289.33334 284.96097 290.66666 285.23352 292.0 285.514C293.33334 285.79446 294.66666 286.0848 296.0 286.38208C297.33334 286.67932 298.66666 286.98547 300.0 287.29758C301.33334 287.60965 302.66666 287.92963 304.0 288.25458C305.33334 288.5795 306.66666 288.91135 308.0 289.24713C309.33334 289.58295 310.66666 289.92468 312.0 290.26938C313.33334 290.61407 314.66666 290.9637 316.0 291.31537C317.33334 291.667 318.66666 292.02258 320.0 292.37918C321.33334 292.73575 322.66666 293.0953 324.0 293.45486C325.33334 293.81445 326.66666 294.176 328.0 294.5366C329.33334 294.89716 330.66666 295.25873 332.0 295.61835C333.33334 295.97797 334.66666 296.3376 336.0 296.69424C337.33334 297.05093 338.66666 297.40665 340.0 297.7584C341.33334 298.11017 342.66666 298.45996 344.0 298.80487C345.33334 299.14975 346.66666 299.49167 348.0 299.8277C349.33334 300.16373 350.66666 300.49582 352.0 300.821C353.33334 301.1462 354.66666 301.4665 356.0 301.77887C357.33334 302.09128 358.66666 302.39777 360.0 302.69537C361.33334 302.993 362.66666 303.28372 364.0 303.5646C365.33334 303.84546 366.66666 304.11847 368.0 304.3806C369.33334 304.64276 370.66666 304.89606 372.0 305.1375C373.33334 305.37897 374.66666 305.61057 376.0 305.82935C377.33334 306.04813 378.66666 306.25607 380.0 306.45023C381.33334 306.64438 382.66666 306.8267 384.0 306.99423C385.33334 307.16177 386.66666 307.3165 388.0 307.45544C389.33334 307.5944 390.66666 307.7195 392.0 307.8279C393.33334 307.9363 394.66666 308.0299 396.0 308.10574C397.33334 308.1816 398.66666 308.2417 400.0 308.28305C401.33334 308.3244 402.66666 308.34897 404.0 308.35385C405.33334 308.3587 406.66666 308.34586 408.0 308.31226C409.33334 308.2787 410.66666 308.22635 412.0 308.15234C413.33334 308.07834 414.66666 307.98462 416.0 307.86823C417.33334 307.7518 418.66666 307.61472 420.0 307.45392C421.33334 307.29315 422.66666 307.1107 424.0 306.90356C425.33334 306.69644 426.66666 306.46664 428.0 306.2112C429.33334 305.95578 430.66666 305.67667 432.0 305.37094C433.33334 305.06522 434.66666 304.73483 436.0 304.37686C437.33334 304.01886 438.66666 303.63522 440.0 303.22302C441.33334 302.8108 442.66666 302.37195 444.0 301.9035C445.33334 301.43506 446.66666 300.93903 448.0 300.4124C449.33334 299.88577 450.66666 299.33057 452.0 298.7438C453.33334 298.157 454.66666 297.54068 456.0 296.89175C457.33334 296.24286 458.66666 295.5634 460.0 294.8504C461.33334 294.1374 462.66666 293.39282 464.0 292.61374C465.33334 291.8347 466.66666 291.02304 468.0 290.17593C469.33334 289.3288 470.66666 288.44815 472.0 287.531C473.33334 286.61386 474.66666 285.6622 476.0 284.67307C477.33334 283.68393 478.66666 282.6593 480.0 281.5962C481.33334 280.53308 482.66666 279.43347 484.0 278.29443C485.33334 277.1554 486.66666 275.97888 488.0 274.76193C489.33334 273.54495 490.66666 272.28955 492.0 270.9927C493.33334 269.69586 494.66666 268.35956 496.0 266.98087C497.33334 265.60217 498.66666 264.183 500.0 262.7205C501.33334 261.25797 502.66666 259.754 504.0 258.20566C505.33334 256.65735 506.66666 255.06659 508.0 253.43047C509.33334 251.79436 510.66666 250.11485 512.0 248.38898C513.3333 246.66312 514.6667 244.89287 516.0 243.07527C517.3333 241.25769 518.6667 239.39473 520.0 237.48344C521.3333 235.57216 522.6667 233.61452 524.0 231.60756C525.3333 229.6006 526.6667 227.5463 528.0 225.4417C529.3333 223.3371 530.6667 221.18417 532.0 218.97997C533.3333 216.77574 534.6667 214.52222 536.0 212.21642C537.3333 209.9106 538.6667 207.5545 540.0 205.14513C541.3333 202.73576 542.6667 200.27512 544.0 197.76021C545.3333 195.2453 546.6667 192.67813 548.0 190.05573C549.3333 187.4333 550.6667 184.75764 552.0 182.02574C553.3333 179.29385 554.6667 176.50772 556.0 173.66437C557.3333 170.82103 558.6667 167.92244 560.0 164.96567C561.3333 162.0089 562.6667 158.99591 564.0 155.92374C565.3333 152.85156 566.6667 149.72218 568.0 146.53264C569.3333 143.3431 570.6667 140.09535 572.0 136.78645C573.3333 133.47755 574.6667 130.10948 576.0 126.679276C577.3333 123.24906 580.0 116.20518 580.0 116.20518" fill-rule="nonzero"/><path fill="#4285f4" clip-path="url(#id_0)" d="M577.185 88.28333C577.185 90.768616 575.1703 92.78333 572.685 92.78333C570.1997 92.78333 568.185 90.768616 568.185 88.28333C568.185 85.79805 570.1997 83.78333 572.685 83.78333C575.1703 83.78333 577.185 85.79805 577.185 88.28333Z" fill-rule="nonzero"/><path fill="#4285f4" clip-path="url(#id_0)" d="M568.42 183.55C568.42 186.03528 566.4053 188.05 563.92 188.05C561.4347 188.05 559.42 186.03528 559.42 183.55C559.42 181.06471 561.4347 179.05 563.92 179.05C566.4053 179.05 568.42 181.06471 568.42 183.55Z" fill-rule="nonzero"/><path fill="#4285f4" clip-path="url(#id_0)" d="M528.9775 278.81668C528.9775 281.30194 526.96277 283.31668 524.4775 283.31668C521.99225 283.31668 519.9775 281.30194 519.9775 278.81668C519.9775 276.3314 521.99225 274.31668 524.4775 274.31668C526.96277 274.31668 528.9775 276.3314 528.9775 278.81668Z" fill-rule="nonzero"/><path fill="#4285f4" clip-path="url(#id_0)" d="M489.535 264.52667C489.535 267.01196 487.5203 269.02667 485.035 269.02667C482.5497 269.02667 480.535 267.01196 480.535 264.52667C480.535 262.04138 482.5497 260.02667 485.035 260.02667C487.5203 260.02667 489.535 262.04138 489.535 264.52667Z" fill-rule="nonzero"/><path fill="#4285f4" clip-path="url(#id_0)" d="M415.0325 296.67917C415.0325 299.16446 413.0178 301.17917 410.5325 301.17917C408.0472 301.17917 406.0325 299.16446 406.0325 296.67917C406.0325 294.19388 408.0472 292.17917 410.5325 292.17917C413.0178 292.17917 415.0325 294.19388 415.0325 296.67917Z" fill-rule="nonzero"/><path fill="#4285f4" clip-path="url(#id_0)" d="M410.65 293.10666C410.65 295.59195 408.63528 297.60666 406.15 297.60666C403.6647 297.60666 401.65 295.59195 401.65 293.10666C401.65 290.6214 403.6647 288.60666 406.15 288.60666C408.63528 288.60666 410.65 290.6214 410.65 293.10666Z" fill-rule="nonzero"/><path fill="#4285f4" clip-path="url(#id_0)" d="M244.115 301.4425C244.115 303.9278 242.10028 305.9425 239.615 305.9425C237.12971 305.9425 235.115 303.9278 235.115 301.4425C235.115 298.9572 237.12971 296.9425 239.615 296.9425C242.10028 296.9425 244.115 298.9572 244.115 301.4425Z" fill-rule="nonzero"/><path fill="#4285f4" clip-path="url(#id_0)" d="M239.7325 293.10666C239.7325 295.59195 237.71779 297.60666 235.2325 297.60666C232.74722 297.60666 230.7325 295.59195 230.7325 293.10666C230.7325 290.6214 232.74722 288.60666 235.2325 288.60666C237.71779 288.60666 239.7325 290.6214 239.7325 293.10666Z" fill-rule="nonzero"/><path fill="#4285f4" clip-path="url(#id_0)" d="M235.35 271.67166C235.35 274.15695 233.33528 276.17166 230.85 276.17166C228.36472 276.17166 226.35 274.15695 226.35 271.67166C226.35 269.18637 228.36472 267.17166 230.85 267.17166C233.33528 267.17166 235.35 269.18637 235.35 271.67166Z" fill-rule="nonzero"/><path fill="#4285f4" clip-path="url(#id_0)" d="M209.055 297.87C209.055 300.3553 207.04028 302.37 204.555 302.37C202.06972 302.37 200.055 300.3553 200.055 297.87C200.055 295.3847 202.06972 293.37 204.555 293.37C207.04028 293.37 209.055 295.3847 209.055 297.87Z" fill-rule="nonzero"/><path fill="#4285f4" clip-path="url(#id_0)" d="M204.6725 276.435C204.6725 278.9203 202.65778 280.935 200.1725 280.935C197.68723 280.935 195.6725 278.9203 195.6725 276.435C195.6725 273.9497 197.68723 271.935 200.1725 271.935C202.65778 271.935 204.6725 273.9497 204.6725 276.435Z" fill-rule="nonzero"/><path fill="#4285f4" clip-path="url(#id_0)" d="M200.29 288.34332C200.29 290.8286 198.27528 292.84332 195.79 292.84332C193.30472 292.84332 191.29 290.8286 191.29 288.34332C191.29 285.85806 193.30472 283.84332 195.79 283.84332C198.27528 283.84332 200.29 285.85806 200.29 288.34332Z" fill-rule="nonzero"/><path fill="#4285f4" clip-path="url(#id_0)" d="M195.9075 310.96918C195.9075 313.45444 193.89278 315.46918 191.4075 315.46918C188.92223 315.46918 186.9075 313.45444 186.9075 310.96918C186.9075 308.4839 188.92223 306.46918 191.4075 306.46918C193.89278 306.46918 195.9075 308.4839 195.9075 310.96918Z" fill-rule="nonzero"/><path fill="#4285f4" clip-path="url(#id_0)" d="M169.6125 307.39667C169.6125 309.88196 167.59778 311.89667 165.1125 311.89667C162.62721 311.89667 160.6125 309.88196 160.6125 307.39667C160.6125 304.91138 162.62721 302.89667 165.1125 302.89667C167.59778 302.89667 169.6125 304.91138 169.6125 307.39667Z" fill-rule="nonzero"/><path stroke="#000000" stroke-width="1.0" stroke-linecap="butt" d="M552.5 329.5L552.5 323.5" fill-rule="nonzero"/><path stroke="#000000" stroke-width="1.0" stroke-linecap="butt" d="M523.5 329.5L523.5 323.5" fill-rule="nonzero"/><path stroke="#000000" stroke-width="1.0" stroke-linecap="butt" d="M464.5 329.5L464.5 323.5" fill-rule="nonzero"/><path stroke="#000000" stroke-width="1.0" stroke-linecap="butt" d="M435.5 329.5L435.5 323.5" fill-rule="nonzero"/><path stroke="#000000" stroke-width="1.0" stroke-linecap="butt" d="M376.5 329.5L376.5 323.5" fill-rule="nonzero"/><path stroke="#000000" stroke-width="1.0" stroke-linecap="butt" d="M347.5 329.5L347.5 323.5" fill-rule="nonzero"/><path stroke="#000000" stroke-width="1.0" stroke-linecap="butt" d="M289.5 329.5L289.5 323.5" fill-rule="nonzero"/><path stroke="#000000" stroke-width="1.0" stroke-linecap="butt" d="M260.5 329.5L260.5 323.5" fill-rule="nonzero"/><path stroke="#000000" stroke-width="1.0" stroke-linecap="butt" d="M201.5 329.5L201.5 323.5" fill-rule="nonzero"/><path stroke="#000000" stroke-width="1.0" stroke-linecap="butt" d="M172.5 329.5L172.5 323.5" fill-rule="nonzero"/><path stroke="#000000" stroke-width="1.0" stroke-linecap="butt" d="M113.5 329.5L113.5 323.5" fill-rule="nonzero"/><path stroke="#000000" stroke-width="1.0" stroke-linecap="butt" d="M84.5 329.5L84.5 323.5" fill-rule="nonzero"/><path stroke="#000000" stroke-width="1.0" stroke-linecap="butt" d="M581.5 332.5L581.5 320.5" fill-rule="nonzero"/><path stroke="#000000" stroke-width="1.0" stroke-linecap="butt" d="M493.5 332.5L493.5 320.5" fill-rule="nonzero"/><path stroke="#000000" stroke-width="1.0" stroke-linecap="butt" d="M406.5 332.5L406.5 320.5" fill-rule="nonzero"/><path stroke="#000000" stroke-width="1.0" stroke-linecap="butt" d="M318.5 332.5L318.5 320.5" fill-rule="nonzero"/><path stroke="#000000" stroke-width="1.0" stroke-linecap="butt" d="M230.5 332.5L230.5 320.5" fill-rule="nonzero"/><path stroke="#000000" stroke-width="1.0" stroke-linecap="butt" d="M143.5 332.5L143.5 320.5" fill-rule="nonzero"/><path stroke="#000000" stroke-width="1.0" stroke-linecap="butt" d="M55.5 332.5L55.5 320.5" fill-rule="nonzero"/><path fill="#000000" d="M21.534374 331.6844L21.534374 330.6375Q20.753124 330.52814 20.253124 330.27814Q19.753124 330.02814 19.39375 329.46564Q19.034374 328.8875 18.971874 328.0594L20.034374 327.8719Q20.159374 328.71564 20.471874 329.10626Q20.925 329.66876 21.534374 329.7469L21.534374 326.3875Q20.89375 326.2625 20.20625 325.8719Q19.70625 325.59064 19.425 325.10626Q19.159374 324.60626 19.159374 323.96564Q19.159374 322.84064 19.95625 322.15314Q20.4875 321.6844 21.534374 321.575L21.534374 321.075L22.159374 321.075L22.159374 321.575Q23.08125 321.65314 23.6125 322.10626Q24.315624 322.6844 24.45625 323.6844L23.3625 323.85626Q23.26875 323.23126 22.971874 322.90314Q22.675 322.575 22.159374 322.46564L22.159374 325.4969Q22.95625 325.7 23.221874 325.8094Q23.70625 326.02814 24.01875 326.34064Q24.33125 326.65314 24.4875 327.09064Q24.659374 327.5125 24.659374 328.0125Q24.659374 329.10626 23.95625 329.84064Q23.26875 330.575 22.159374 330.6219L22.159374 331.6844L21.534374 331.6844ZM21.534374 322.45Q20.925 322.54376 20.565624 322.95Q20.221874 323.34064 20.221874 323.8875Q20.221874 324.41876 20.51875 324.79376Q20.815624 325.15314 21.534374 325.3719L21.534374 322.45ZM22.159374 329.7469Q22.76875 329.66876 23.175 329.21564Q23.58125 328.7469 23.58125 328.075Q23.58125 327.4969 23.284374 327.15314Q23.003124 326.8094 22.159374 326.52814L22.159374 329.7469ZM26.05 326.21564Q26.05 324.6844 26.3625 323.7625Q26.675 322.825 27.284374 322.325Q27.909374 321.825 28.846874 321.825Q29.534374 321.825 30.05 322.10626Q30.58125 322.3875 30.925 322.91876Q31.26875 323.4344 31.45625 324.1844Q31.64375 324.9344 31.64375 326.21564Q31.64375 327.73126 31.33125 328.65314Q31.034374 329.575 30.409374 330.09064Q29.8 330.59064 28.846874 330.59064Q27.6125 330.59064 26.89375 329.7Q26.05 328.6375 26.05 326.21564ZM27.128124 326.21564Q27.128124 328.325 27.628124 329.02814Q28.128124 329.73126 28.846874 329.73126Q29.58125 329.73126 30.065624 329.02814Q30.565624 328.325 30.565624 326.21564Q30.565624 324.09064 30.065624 323.40314Q29.58125 322.7 28.83125 322.7Q28.1125 322.7 27.675 323.3094Q27.128124 324.09064 27.128124 326.21564ZM33.64375 330.45L33.64375 329.2469L34.846874 329.2469L34.846874 330.45L33.64375 330.45ZM36.05 326.21564Q36.05 324.6844 36.3625 323.7625Q36.675 322.825 37.284374 322.325Q37.909374 321.825 38.846874 321.825Q39.534374 321.825 40.05 322.10626Q40.58125 322.3875 40.925 322.91876Q41.26875 323.4344 41.45625 324.1844Q41.64375 324.9344 41.64375 326.21564Q41.64375 327.73126 41.33125 328.65314Q41.034374 329.575 40.409374 330.09064Q39.8 330.59064 38.846874 330.59064Q37.6125 330.59064 36.89375 329.7Q36.05 328.6375 36.05 326.21564ZM37.128124 326.21564Q37.128124 328.325 37.628124 329.02814Q38.128124 329.73126 38.846874 329.73126Q39.58125 329.73126 40.065624 329.02814Q40.565624 328.325 40.565624 326.21564Q40.565624 324.09064 40.065624 323.40314Q39.58125 322.7 38.83125 322.7Q38.1125 322.7 37.675 323.3094Q37.128124 324.09064 37.128124 326.21564ZM43.05 326.21564Q43.05 324.6844 43.3625 323.7625Q43.675 322.825 44.284374 322.325Q44.909374 321.825 45.846874 321.825Q46.534374 321.825 47.05 322.10626Q47.58125 322.3875 47.925 322.91876Q48.26875 323.4344 48.45625 324.1844Q48.64375 324.9344 48.64375 326.21564Q48.64375 327.73126 48.33125 328.65314Q48.034374 329.575 47.409374 330.09064Q46.8 330.59064 45.846874 330.59064Q44.6125 330.59064 43.89375 329.7Q43.05 328.6375 43.05 326.21564ZM44.128124 326.21564Q44.128124 328.325 44.628124 329.02814Q45.128124 329.73126 45.846874 329.73126Q46.58125 329.73126 47.065624 329.02814Q47.565624 328.325 47.565624 326.21564Q47.565624 324.09064 47.065624 323.40314Q46.58125 322.7 45.83125 322.7Q45.1125 322.7 44.675 323.3094Q44.128124 324.09064 44.128124 326.21564Z" fill-rule="nonzero"/><path fill="#000000" d="M21.534374 272.1427L21.534374 271.09583Q20.753124 270.98645 20.253124 270.73645Q19.753124 270.48645 19.39375 269.92395Q19.034374 269.34583 18.971874 268.5177L20.034374 268.3302Q20.159374 269.17395 20.471874 269.56458Q20.925 270.12708 21.534374 270.2052L21.534374 266.84583Q20.89375 266.72083 20.20625 266.3302Q19.70625 266.04895 19.425 265.56458Q19.159374 265.06458 19.159374 264.42395Q19.159374 263.29895 19.95625 262.61145Q20.4875 262.1427 21.534374 262.03333L21.534374 261.53333L22.159374 261.53333L22.159374 262.03333Q23.08125 262.11145 23.6125 262.56458Q24.315624 263.1427 24.45625 264.1427L23.3625 264.31458Q23.26875 263.68958 22.971874 263.36145Q22.675 263.03333 22.159374 262.92395L22.159374 265.9552Q22.95625 266.15833 23.221874 266.2677Q23.70625 266.48645 24.01875 266.79895Q24.33125 267.11145 24.4875 267.54895Q24.659374 267.97083 24.659374 268.47083Q24.659374 269.56458 23.95625 270.29895Q23.26875 271.03333 22.159374 271.0802L22.159374 272.1427L21.534374 272.1427ZM21.534374 262.90833Q20.925 263.00208 20.565624 263.40833Q20.221874 263.79895 20.221874 264.34583Q20.221874 264.87708 20.51875 265.25208Q20.815624 265.61145 21.534374 265.8302L21.534374 262.90833ZM22.159374 270.2052Q22.76875 270.12708 23.175 269.67395Q23.58125 269.2052 23.58125 268.53333Q23.58125 267.9552 23.284374 267.61145Q23.003124 267.2677 22.159374 266.98645L22.159374 270.2052ZM26.05 266.67395Q26.05 265.1427 26.3625 264.22083Q26.675 263.28333 27.284374 262.78333Q27.909374 262.28333 28.846874 262.28333Q29.534374 262.28333 30.05 262.56458Q30.58125 262.84583 30.925 263.37708Q31.26875 263.8927 31.45625 264.6427Q31.64375 265.3927 31.64375 266.67395Q31.64375 268.18958 31.33125 269.11145Q31.034374 270.03333 30.409374 270.54895Q29.8 271.04895 28.846874 271.04895Q27.6125 271.04895 26.89375 270.15833Q26.05 269.09583 26.05 266.67395ZM27.128124 266.67395Q27.128124 268.78333 27.628124 269.48645Q28.128124 270.18958 28.846874 270.18958Q29.58125 270.18958 30.065624 269.48645Q30.565624 268.78333 30.565624 266.67395Q30.565624 264.54895 30.065624 263.86145Q29.58125 263.15833 28.83125 263.15833Q28.1125 263.15833 27.675 263.7677Q27.128124 264.54895 27.128124 266.67395ZM33.64375 270.90833L33.64375 269.7052L34.846874 269.7052L34.846874 270.90833L33.64375 270.90833ZM36.05 268.65833L37.159374 268.56458Q37.284374 269.37708 37.721874 269.78333Q38.175 270.18958 38.815624 270.18958Q39.565624 270.18958 40.096874 269.61145Q40.628124 269.03333 40.628124 268.09583Q40.628124 267.18958 40.1125 266.67395Q39.6125 266.1427 38.784374 266.1427Q38.284374 266.1427 37.8625 266.37708Q37.45625 266.61145 37.221874 266.97083L36.2375 266.84583L37.065624 262.43958L41.346874 262.43958L41.346874 263.43958L37.909374 263.43958L37.45625 265.75208Q38.221874 265.2052 39.065624 265.2052Q40.190624 265.2052 40.95625 265.98645Q41.7375 266.7677 41.7375 268.00208Q41.7375 269.15833 41.065624 270.0177Q40.2375 271.04895 38.815624 271.04895Q37.64375 271.04895 36.89375 270.3927Q36.159374 269.73645 36.05 268.65833ZM43.05 266.67395Q43.05 265.1427 43.3625 264.22083Q43.675 263.28333 44.284374 262.78333Q44.909374 262.28333 45.846874 262.28333Q46.534374 262.28333 47.05 262.56458Q47.58125 262.84583 47.925 263.37708Q48.26875 263.8927 48.45625 264.6427Q48.64375 265.3927 48.64375 266.67395Q48.64375 268.18958 48.33125 269.11145Q48.034374 270.03333 47.409374 270.54895Q46.8 271.04895 45.846874 271.04895Q44.6125 271.04895 43.89375 270.15833Q43.05 269.09583 43.05 266.67395ZM44.128124 266.67395Q44.128124 268.78333 44.628124 269.48645Q45.128124 270.18958 45.846874 270.18958Q46.58125 270.18958 47.065624 269.48645Q47.565624 268.78333 47.565624 266.67395Q47.565624 264.54895 47.065624 263.86145Q46.58125 263.15833 45.83125 263.15833Q45.1125 263.15833 44.675 263.7677Q44.128124 264.54895 44.128124 266.67395Z" fill-rule="nonzero"/><path fill="#000000" d="M21.534374 212.60104L21.534374 211.55417Q20.753124 211.4448 20.253124 211.1948Q19.753124 210.9448 19.39375 210.3823Q19.034374 209.80417 18.971874 208.97604L20.034374 208.78854Q20.159374 209.6323 20.471874 210.02292Q20.925 210.58542 21.534374 210.66354L21.534374 207.30417Q20.89375 207.17917 20.20625 206.78854Q19.70625 206.5073 19.425 206.02292Q19.159374 205.52292 19.159374 204.8823Q19.159374 203.7573 19.95625 203.0698Q20.4875 202.60104 21.534374 202.49167L21.534374 201.99167L22.159374 201.99167L22.159374 202.49167Q23.08125 202.5698 23.6125 203.02292Q24.315624 203.60104 24.45625 204.60104L23.3625 204.77292Q23.26875 204.14792 22.971874 203.8198Q22.675 203.49167 22.159374 203.3823L22.159374 206.41354Q22.95625 206.61667 23.221874 206.72604Q23.70625 206.9448 24.01875 207.2573Q24.33125 207.5698 24.4875 208.0073Q24.659374 208.42917 24.659374 208.92917Q24.659374 210.02292 23.95625 210.7573Q23.26875 211.49167 22.159374 211.53854L22.159374 212.60104L21.534374 212.60104ZM21.534374 203.36667Q20.925 203.46042 20.565624 203.86667Q20.221874 204.2573 20.221874 204.80417Q20.221874 205.33542 20.51875 205.71042Q20.815624 206.0698 21.534374 206.28854L21.534374 203.36667ZM22.159374 210.66354Q22.76875 210.58542 23.175 210.1323Q23.58125 209.66354 23.58125 208.99167Q23.58125 208.41354 23.284374 208.0698Q23.003124 207.72604 22.159374 207.4448L22.159374 210.66354ZM30.01875 211.36667L28.971874 211.36667L28.971874 204.64792Q28.58125 205.0073 27.95625 205.3823Q27.346874 205.74167 26.8625 205.91354L26.8625 204.89792Q27.7375 204.47604 28.39375 203.89792Q29.065624 203.30417 29.346874 202.74167L30.01875 202.74167L30.01875 211.36667ZM33.64375 211.36667L33.64375 210.16354L34.846874 210.16354L34.846874 211.36667L33.64375 211.36667ZM36.05 207.1323Q36.05 205.60104 36.3625 204.67917Q36.675 203.74167 37.284374 203.24167Q37.909374 202.74167 38.846874 202.74167Q39.534374 202.74167 40.05 203.02292Q40.58125 203.30417 40.925 203.83542Q41.26875 204.35104 41.45625 205.10104Q41.64375 205.85104 41.64375 207.1323Q41.64375 208.64792 41.33125 209.5698Q41.034374 210.49167 40.409374 211.0073Q39.8 211.5073 38.846874 211.5073Q37.6125 211.5073 36.89375 210.61667Q36.05 209.55417 36.05 207.1323ZM37.128124 207.1323Q37.128124 209.24167 37.628124 209.9448Q38.128124 210.64792 38.846874 210.64792Q39.58125 210.64792 40.065624 209.9448Q40.565624 209.24167 40.565624 207.1323Q40.565624 205.0073 40.065624 204.3198Q39.58125 203.61667 38.83125 203.61667Q38.1125 203.61667 37.675 204.22604Q37.128124 205.0073 37.128124 207.1323ZM43.05 207.1323Q43.05 205.60104 43.3625 204.67917Q43.675 203.74167 44.284374 203.24167Q44.909374 202.74167 45.846874 202.74167Q46.534374 202.74167 47.05 203.02292Q47.58125 203.30417 47.925 203.83542Q48.26875 204.35104 48.45625 205.10104Q48.64375 205.85104 48.64375 207.1323Q48.64375 208.64792 48.33125 209.5698Q48.034374 210.49167 47.409374 211.0073Q46.8 211.5073 45.846874 211.5073Q44.6125 211.5073 43.89375 210.61667Q43.05 209.55417 43.05 207.1323ZM44.128124 207.1323Q44.128124 209.24167 44.628124 209.9448Q45.128124 210.64792 45.846874 210.64792Q46.58125 210.64792 47.065624 209.9448Q47.565624 209.24167 47.565624 207.1323Q47.565624 205.0073 47.065624 204.3198Q46.58125 203.61667 45.83125 203.61667Q45.1125 203.61667 44.675 204.22604Q44.128124 205.0073 44.128124 207.1323Z" fill-rule="nonzero"/><path fill="#000000" d="M21.534374 153.05937L21.534374 152.0125Q20.753124 151.90312 20.253124 151.65312Q19.753124 151.40312 19.39375 150.84062Q19.034374 150.2625 18.971874 149.43437L20.034374 149.24687Q20.159374 150.09062 20.471874 150.48125Q20.925 151.04375 21.534374 151.12187L21.534374 147.7625Q20.89375 147.6375 20.20625 147.24687Q19.70625 146.96562 19.425 146.48125Q19.159374 145.98125 19.159374 145.34062Q19.159374 144.21562 19.95625 143.52812Q20.4875 143.05937 21.534374 142.95L21.534374 142.45L22.159374 142.45L22.159374 142.95Q23.08125 143.02812 23.6125 143.48125Q24.315624 144.05937 24.45625 145.05937L23.3625 145.23125Q23.26875 144.60625 22.971874 144.27812Q22.675 143.95 22.159374 143.84062L22.159374 146.87187Q22.95625 147.075 23.221874 147.18437Q23.70625 147.40312 24.01875 147.71562Q24.33125 148.02812 24.4875 148.46562Q24.659374 148.8875 24.659374 149.3875Q24.659374 150.48125 23.95625 151.21562Q23.26875 151.95 22.159374 151.99687L22.159374 153.05937L21.534374 153.05937ZM21.534374 143.825Q20.925 143.91875 20.565624 144.325Q20.221874 144.71562 20.221874 145.2625Q20.221874 145.79375 20.51875 146.16875Q20.815624 146.52812 21.534374 146.74687L21.534374 143.825ZM22.159374 151.12187Q22.76875 151.04375 23.175 150.59062Q23.58125 150.12187 23.58125 149.45Q23.58125 148.87187 23.284374 148.52812Q23.003124 148.18437 22.159374 147.90312L22.159374 151.12187ZM30.01875 151.825L28.971874 151.825L28.971874 145.10625Q28.58125 145.46562 27.95625 145.84062Q27.346874 146.2 26.8625 146.37187L26.8625 145.35625Q27.7375 144.93437 28.39375 144.35625Q29.065624 143.7625 29.346874 143.2L30.01875 143.2L30.01875 151.825ZM33.64375 151.825L33.64375 150.62187L34.846874 150.62187L34.846874 151.825L33.64375 151.825ZM36.05 149.575L37.159374 149.48125Q37.284374 150.29375 37.721874 150.7Q38.175 151.10625 38.815624 151.10625Q39.565624 151.10625 40.096874 150.52812Q40.628124 149.95 40.628124 149.0125Q40.628124 148.10625 40.1125 147.59062Q39.6125 147.05937 38.784374 147.05937Q38.284374 147.05937 37.8625 147.29375Q37.45625 147.52812 37.221874 147.8875L36.2375 147.7625L37.065624 143.35625L41.346874 143.35625L41.346874 144.35625L37.909374 144.35625L37.45625 146.66875Q38.221874 146.12187 39.065624 146.12187Q40.190624 146.12187 40.95625 146.90312Q41.7375 147.68437 41.7375 148.91875Q41.7375 150.075 41.065624 150.93437Q40.2375 151.96562 38.815624 151.96562Q37.64375 151.96562 36.89375 151.30937Q36.159374 150.65312 36.05 149.575ZM43.05 147.59062Q43.05 146.05937 43.3625 145.1375Q43.675 144.2 44.284374 143.7Q44.909374 143.2 45.846874 143.2Q46.534374 143.2 47.05 143.48125Q47.58125 143.7625 47.925 144.29375Q48.26875 144.80937 48.45625 145.55937Q48.64375 146.30937 48.64375 147.59062Q48.64375 149.10625 48.33125 150.02812Q48.034374 150.95 47.409374 151.46562Q46.8 151.96562 45.846874 151.96562Q44.6125 151.96562 43.89375 151.075Q43.05 150.0125 43.05 147.59062ZM44.128124 147.59062Q44.128124 149.7 44.628124 150.40312Q45.128124 151.10625 45.846874 151.10625Q46.58125 151.10625 47.065624 150.40312Q47.565624 149.7 47.565624 147.59062Q47.565624 145.46562 47.065624 144.77812Q46.58125 144.075 45.83125 144.075Q45.1125 144.075 44.675 144.68437Q44.128124 145.46562 44.128124 147.59062Z" fill-rule="nonzero"/><path fill="#000000" d="M21.534374 93.51771L21.534374 92.47083Q20.753124 92.36146 20.253124 92.11146Q19.753124 91.86146 19.39375 91.29896Q19.034374 90.72083 18.971874 89.89271L20.034374 89.70521Q20.159374 90.54896 20.471874 90.93958Q20.925 91.50208 21.534374 91.58021L21.534374 88.22083Q20.89375 88.09583 20.20625 87.70521Q19.70625 87.42396 19.425 86.93958Q19.159374 86.43958 19.159374 85.79896Q19.159374 84.67396 19.95625 83.98646Q20.4875 83.51771 21.534374 83.40833L21.534374 82.90833L22.159374 82.90833L22.159374 83.40833Q23.08125 83.48646 23.6125 83.93958Q24.315624 84.51771 24.45625 85.51771L23.3625 85.68958Q23.26875 85.06458 22.971874 84.73646Q22.675 84.40833 22.159374 84.29896L22.159374 87.33021Q22.95625 87.53333 23.221874 87.64271Q23.70625 87.86146 24.01875 88.17396Q24.33125 88.48646 24.4875 88.92396Q24.659374 89.34583 24.659374 89.84583Q24.659374 90.93958 23.95625 91.67396Q23.26875 92.40833 22.159374 92.45521L22.159374 93.51771L21.534374 93.51771ZM21.534374 84.28333Q20.925 84.37708 20.565624 84.78333Q20.221874 85.17396 20.221874 85.72083Q20.221874 86.25208 20.51875 86.62708Q20.815624 86.98646 21.534374 87.20521L21.534374 84.28333ZM22.159374 91.58021Q22.76875 91.50208 23.175 91.04896Q23.58125 90.58021 23.58125 89.90833Q23.58125 89.33021 23.284374 88.98646Q23.003124 88.64271 22.159374 88.36146L22.159374 91.58021ZM31.596874 91.26771L31.596874 92.28333L25.909374 92.28333Q25.909374 91.90833 26.034374 91.54896Q26.253124 90.97083 26.721874 90.40833Q27.20625 89.84583 28.1125 89.11146Q29.51875 87.95521 30.003124 87.28333Q30.503124 86.61146 30.503124 86.01771Q30.503124 85.39271 30.05 84.97083Q29.596874 84.53333 28.878124 84.53333Q28.1125 84.53333 27.659374 84.98646Q27.20625 85.43958 27.190624 86.25208L26.1125 86.14271Q26.221874 84.92396 26.940624 84.29896Q27.675 83.65833 28.909374 83.65833Q30.14375 83.65833 30.8625 84.34583Q31.58125 85.03333 31.58125 86.04896Q31.58125 86.56458 31.3625 87.06458Q31.159374 87.54896 30.659374 88.11146Q30.175 88.65833 29.05 89.61146Q28.096874 90.40833 27.815624 90.70521Q27.55 90.98646 27.378124 91.26771L31.596874 91.26771ZM33.64375 92.28333L33.64375 91.08021L34.846874 91.08021L34.846874 92.28333L33.64375 92.28333ZM36.05 88.04896Q36.05 86.51771 36.3625 85.59583Q36.675 84.65833 37.284374 84.15833Q37.909374 83.65833 38.846874 83.65833Q39.534374 83.65833 40.05 83.93958Q40.58125 84.22083 40.925 84.75208Q41.26875 85.26771 41.45625 86.01771Q41.64375 86.76771 41.64375 88.04896Q41.64375 89.56458 41.33125 90.48646Q41.034374 91.40833 40.409374 91.92396Q39.8 92.42396 38.846874 92.42396Q37.6125 92.42396 36.89375 91.53333Q36.05 90.47083 36.05 88.04896ZM37.128124 88.04896Q37.128124 90.15833 37.628124 90.86146Q38.128124 91.56458 38.846874 91.56458Q39.58125 91.56458 40.065624 90.86146Q40.565624 90.15833 40.565624 88.04896Q40.565624 85.92396 40.065624 85.23646Q39.58125 84.53333 38.83125 84.53333Q38.1125 84.53333 37.675 85.14271Q37.128124 85.92396 37.128124 88.04896ZM43.05 88.04896Q43.05 86.51771 43.3625 85.59583Q43.675 84.65833 44.284374 84.15833Q44.909374 83.65833 45.846874 83.65833Q46.534374 83.65833 47.05 83.93958Q47.58125 84.22083 47.925 84.75208Q48.26875 85.26771 48.45625 86.01771Q48.64375 86.76771 48.64375 88.04896Q48.64375 89.56458 48.33125 90.48646Q48.034374 91.40833 47.409374 91.92396Q46.8 92.42396 45.846874 92.42396Q44.6125 92.42396 43.89375 91.53333Q43.05 90.47083 43.05 88.04896ZM44.128124 88.04896Q44.128124 90.15833 44.628124 90.86146Q45.128124 91.56458 45.846874 91.56458Q46.58125 91.56458 47.065624 90.86146Q47.565624 90.15833 47.565624 88.04896Q47.565624 85.92396 47.065624 85.23646Q46.58125 84.53333 45.83125 84.53333Q45.1125 84.53333 44.675 85.14271Q44.128124 85.92396 44.128124 88.04896Z" fill-rule="nonzero"/><path fill="#000000" d="M578.45 345.21564Q578.45 343.6844 578.7625 342.7625Q579.075 341.825 579.6844 341.325Q580.3094 340.825 581.2469 340.825Q581.9344 340.825 582.45 341.10626Q582.98126 341.3875 583.325 341.91876Q583.66876 342.4344 583.85626 343.1844Q584.04376 343.9344 584.04376 345.21564Q584.04376 346.73126 583.73126 347.65314Q583.4344 348.575 582.8094 349.09064Q582.2 349.59064 581.2469 349.59064Q580.0125 349.59064 579.29376 348.7Q578.45 347.6375 578.45 345.21564ZM579.52814 345.21564Q579.52814 347.325 580.02814 348.02814Q580.52814 348.73126 581.2469 348.73126Q581.98126 348.73126 582.46564 348.02814Q582.96564 347.325 582.96564 345.21564Q582.96564 343.09064 582.46564 342.40314Q581.98126 341.7 581.23126 341.7Q580.5125 341.7 580.075 342.3094Q579.52814 343.09064 579.52814 345.21564Z" fill-rule="nonzero"/><path fill="#000000" d="M492.84686 348.4344L492.84686 349.45L487.15936 349.45Q487.15936 349.075 487.28436 348.71564Q487.5031 348.1375 487.97186 347.575Q488.45624 347.0125 489.3625 346.27814Q490.76874 345.1219 491.2531 344.45Q491.7531 343.77814 491.7531 343.1844Q491.7531 342.5594 491.3 342.1375Q490.84686 341.7 490.1281 341.7Q489.3625 341.7 488.90936 342.15314Q488.45624 342.60626 488.4406 343.41876L487.3625 343.3094Q487.47186 342.09064 488.1906 341.46564Q488.925 340.825 490.15936 340.825Q491.39374 340.825 492.1125 341.5125Q492.83124 342.2 492.83124 343.21564Q492.83124 343.73126 492.6125 344.23126Q492.40936 344.71564 491.90936 345.27814Q491.425 345.825 490.3 346.77814Q489.34686 347.575 489.0656 347.8719Q488.8 348.15314 488.6281 348.4344L492.84686 348.4344ZM494.3 345.21564Q494.3 343.6844 494.6125 342.7625Q494.925 341.825 495.53436 341.325Q496.15936 340.825 497.09686 340.825Q497.78436 340.825 498.3 341.10626Q498.83124 341.3875 499.175 341.91876Q499.51874 342.4344 499.70624 343.1844Q499.89374 343.9344 499.89374 345.21564Q499.89374 346.73126 499.58124 347.65314Q499.28436 348.575 498.65936 349.09064Q498.05 349.59064 497.09686 349.59064Q495.8625 349.59064 495.14374 348.7Q494.3 347.6375 494.3 345.21564ZM495.3781 345.21564Q495.3781 347.325 495.8781 348.02814Q496.3781 348.73126 497.09686 348.73126Q497.83124 348.73126 498.3156 348.02814Q498.8156 347.325 498.8156 345.21564Q498.8156 343.09064 498.3156 342.40314Q497.83124 341.7 497.08124 341.7Q496.3625 341.7 495.925 342.3094Q495.3781 343.09064 495.3781 345.21564Z" fill-rule="nonzero"/><path fill="#000000" d="M403.025 349.45L403.025 347.3875L399.30624 347.3875L399.30624 346.41876L403.22812 340.85626L404.0875 340.85626L404.0875 346.41876L405.24374 346.41876L405.24374 347.3875L404.0875 347.3875L404.0875 349.45L403.025 349.45ZM403.025 346.41876L403.025 342.5594L400.3375 346.41876L403.025 346.41876ZM406.65 345.21564Q406.65 343.6844 406.9625 342.7625Q407.275 341.825 407.88437 341.325Q408.50937 340.825 409.44687 340.825Q410.13437 340.825 410.65 341.10626Q411.18124 341.3875 411.525 341.91876Q411.86874 342.4344 412.05624 343.1844Q412.24374 343.9344 412.24374 345.21564Q412.24374 346.73126 411.93124 347.65314Q411.63437 348.575 411.00937 349.09064Q410.4 349.59064 409.44687 349.59064Q408.2125 349.59064 407.49374 348.7Q406.65 347.6375 406.65 345.21564ZM407.72812 345.21564Q407.72812 347.325 408.22812 348.02814Q408.72812 348.73126 409.44687 348.73126Q410.18124 348.73126 410.66562 348.02814Q411.16562 347.325 411.16562 345.21564Q411.16562 343.09064 410.66562 342.40314Q410.18124 341.7 409.43124 341.7Q408.7125 341.7 408.275 342.3094Q407.72812 343.09064 407.72812 345.21564Z" fill-rule="nonzero"/><path fill="#000000" d="M317.46875 342.96564L316.42188 343.04376Q316.28125 342.41876 316.03125 342.1375Q315.59375 341.6844 314.96875 341.6844Q314.46875 341.6844 314.07812 341.96564Q313.59375 342.34064 313.29688 343.04376Q313.01562 343.73126 313.0 345.0125Q313.375 344.4344 313.92188 344.15314Q314.48438 343.8719 315.09375 343.8719Q316.14062 343.8719 316.875 344.65314Q317.625 345.4344 317.625 346.65314Q317.625 347.46564 317.26562 348.16876Q316.92188 348.85626 316.3125 349.23126Q315.70312 349.59064 314.9375 349.59064Q313.60938 349.59064 312.78125 348.6219Q311.95312 347.65314 311.95312 345.4344Q311.95312 342.9344 312.875 341.8094Q313.67188 340.825 315.03125 340.825Q316.04688 340.825 316.6875 341.40314Q317.34375 341.96564 317.46875 342.96564ZM313.17188 346.66876Q313.17188 347.21564 313.39062 347.71564Q313.625 348.2 314.03125 348.46564Q314.45312 348.73126 314.92188 348.73126Q315.57812 348.73126 316.0625 348.2Q316.54688 347.65314 316.54688 346.73126Q316.54688 345.84064 316.0625 345.325Q315.59375 344.8094 314.875 344.8094Q314.15625 344.8094 313.65625 345.325Q313.17188 345.84064 313.17188 346.66876ZM319.0 345.21564Q319.0 343.6844 319.3125 342.7625Q319.625 341.825 320.23438 341.325Q320.85938 340.825 321.79688 340.825Q322.48438 340.825 323.0 341.10626Q323.53125 341.3875 323.875 341.91876Q324.21875 342.4344 324.40625 343.1844Q324.59375 343.9344 324.59375 345.21564Q324.59375 346.73126 324.28125 347.65314Q323.98438 348.575 323.35938 349.09064Q322.75 349.59064 321.79688 349.59064Q320.5625 349.59064 319.84375 348.7Q319.0 347.6375 319.0 345.21564ZM320.07812 345.21564Q320.07812 347.325 320.57812 348.02814Q321.07812 348.73126 321.79688 348.73126Q322.53125 348.73126 323.01562 348.02814Q323.51562 347.325 323.51562 345.21564Q323.51562 343.09064 323.01562 342.40314Q322.53125 341.7 321.78125 341.7Q321.0625 341.7 320.625 342.3094Q320.07812 343.09064 320.07812 345.21564Z" fill-rule="nonzero"/><path fill="#000000" d="M225.975 344.79376Q225.31876 344.54376 224.99063 344.10626Q224.67813 343.65314 224.67813 343.04376Q224.67813 342.10626 225.35 341.46564Q226.0375 340.825 227.14688 340.825Q228.27188 340.825 228.95938 341.48126Q229.64688 342.1375 229.64688 343.075Q229.64688 343.66876 229.33438 344.10626Q229.02188 344.54376 228.38126 344.79376Q229.17813 345.04376 229.58438 345.6219Q229.99063 346.2 229.99063 346.9969Q229.99063 348.09064 229.20938 348.84064Q228.44376 349.59064 227.1625 349.59064Q225.89688 349.59064 225.11563 348.84064Q224.33438 348.09064 224.33438 346.96564Q224.33438 346.1219 224.75626 345.5594Q225.19376 344.9969 225.975 344.79376ZM225.75626 342.9969Q225.75626 343.60626 226.14688 343.9969Q226.55313 344.3875 227.17813 344.3875Q227.7875 344.3875 228.17813 344.0125Q228.56876 343.6219 228.56876 343.0594Q228.56876 342.48126 228.1625 342.09064Q227.75626 341.6844 227.1625 341.6844Q226.55313 341.6844 226.14688 342.075Q225.75626 342.46564 225.75626 342.9969ZM225.42813 346.96564Q225.42813 347.41876 225.63126 347.84064Q225.85 348.2625 226.27188 348.4969Q226.69376 348.73126 227.17813 348.73126Q227.92813 348.73126 228.4125 348.2469Q228.9125 347.7625 228.9125 347.0125Q228.9125 346.2469 228.4125 345.7469Q227.9125 345.2469 227.14688 345.2469Q226.39688 345.2469 225.9125 345.7469Q225.42813 346.23126 225.42813 346.96564ZM231.35 345.21564Q231.35 343.6844 231.6625 342.7625Q231.975 341.825 232.58438 341.325Q233.20938 340.825 234.14688 340.825Q234.83438 340.825 235.35 341.10626Q235.88126 341.3875 236.225 341.91876Q236.56876 342.4344 236.75626 343.1844Q236.94376 343.9344 236.94376 345.21564Q236.94376 346.73126 236.63126 347.65314Q236.33438 348.575 235.70938 349.09064Q235.1 349.59064 234.14688 349.59064Q232.9125 349.59064 232.19376 348.7Q231.35 347.6375 231.35 345.21564ZM232.42813 345.21564Q232.42813 347.325 232.92813 348.02814Q233.42813 348.73126 234.14688 348.73126Q234.88126 348.73126 235.36563 348.02814Q235.86563 347.325 235.86563 345.21564Q235.86563 343.09064 235.36563 342.40314Q234.88126 341.7 234.13126 341.7Q233.4125 341.7 232.975 342.3094Q232.42813 343.09064 232.42813 345.21564Z" fill-rule="nonzero"/><path fill="#000000" d="M137.16875 349.45L136.12187 349.45L136.12187 342.73126Q135.73125 343.09064 135.10625 343.46564Q134.49687 343.825 134.0125 343.9969L134.0125 342.98126Q134.8875 342.5594 135.54375 341.98126Q136.21562 341.3875 136.49687 340.825L137.16875 340.825L137.16875 349.45ZM140.2 345.21564Q140.2 343.6844 140.5125 342.7625Q140.825 341.825 141.43437 341.325Q142.05937 340.825 142.99687 340.825Q143.68437 340.825 144.2 341.10626Q144.73125 341.3875 145.075 341.91876Q145.41875 342.4344 145.60625 343.1844Q145.79375 343.9344 145.79375 345.21564Q145.79375 346.73126 145.48125 347.65314Q145.18437 348.575 144.55937 349.09064Q143.95 349.59064 142.99687 349.59064Q141.7625 349.59064 141.04375 348.7Q140.2 347.6375 140.2 345.21564ZM141.27812 345.21564Q141.27812 347.325 141.77812 348.02814Q142.27812 348.73126 142.99687 348.73126Q143.73125 348.73126 144.21562 348.02814Q144.71562 347.325 144.71562 345.21564Q144.71562 343.09064 144.21562 342.40314Q143.73125 341.7 142.98125 341.7Q142.2625 341.7 141.825 342.3094Q141.27812 343.09064 141.27812 345.21564ZM147.2 345.21564Q147.2 343.6844 147.5125 342.7625Q147.825 341.825 148.43437 341.325Q149.05937 340.825 149.99687 340.825Q150.68437 340.825 151.2 341.10626Q151.73125 341.3875 152.075 341.91876Q152.41875 342.4344 152.60625 343.1844Q152.79375 343.9344 152.79375 345.21564Q152.79375 346.73126 152.48125 347.65314Q152.18437 348.575 151.55937 349.09064Q150.95 349.59064 149.99687 349.59064Q148.7625 349.59064 148.04375 348.7Q147.2 347.6375 147.2 345.21564ZM148.27812 345.21564Q148.27812 347.325 148.77812 348.02814Q149.27812 348.73126 149.99687 348.73126Q150.73125 348.73126 151.21562 348.02814Q151.71562 347.325 151.71562 345.21564Q151.71562 343.09064 151.21562 342.40314Q150.73125 341.7 149.98125 341.7Q149.2625 341.7 148.825 342.3094Q148.27812 343.09064 148.27812 345.21564Z" fill-rule="nonzero"/><path fill="#000000" d="M49.51875 349.45L48.471874 349.45L48.471874 342.73126Q48.08125 343.09064 47.45625 343.46564Q46.846874 343.825 46.3625 343.9969L46.3625 342.98126Q47.2375 342.5594 47.89375 341.98126Q48.565624 341.3875 48.846874 340.825L49.51875 340.825L49.51875 349.45ZM58.096874 348.4344L58.096874 349.45L52.409374 349.45Q52.409374 349.075 52.534374 348.71564Q52.753124 348.1375 53.221874 347.575Q53.70625 347.0125 54.6125 346.27814Q56.01875 345.1219 56.503124 344.45Q57.003124 343.77814 57.003124 343.1844Q57.003124 342.5594 56.55 342.1375Q56.096874 341.7 55.378124 341.7Q54.6125 341.7 54.159374 342.15314Q53.70625 342.60626 53.690624 343.41876L52.6125 343.3094Q52.721874 342.09064 53.440624 341.46564Q54.175 340.825 55.409374 340.825Q56.64375 340.825 57.3625 341.5125Q58.08125 342.2 58.08125 343.21564Q58.08125 343.73126 57.8625 344.23126Q57.659374 344.71564 57.159374 345.27814Q56.675 345.825 55.55 346.77814Q54.596874 347.575 54.315624 347.8719Q54.05 348.15314 53.878124 348.4344L58.096874 348.4344ZM59.55 345.21564Q59.55 343.6844 59.8625 342.7625Q60.175 341.825 60.784374 341.325Q61.409374 340.825 62.346874 340.825Q63.034374 340.825 63.55 341.10626Q64.08125 341.3875 64.425 341.91876Q64.76875 342.4344 64.95625 343.1844Q65.14375 343.9344 65.14375 345.21564Q65.14375 346.73126 64.83125 347.65314Q64.53438 348.575 63.909374 349.09064Q63.3 349.59064 62.346874 349.59064Q61.1125 349.59064 60.39375 348.7Q59.55 347.6375 59.55 345.21564ZM60.628124 345.21564Q60.628124 347.325 61.128124 348.02814Q61.628124 348.73126 62.346874 348.73126Q63.08125 348.73126 63.565624 348.02814Q64.06563 347.325 64.06563 345.21564Q64.06563 343.09064 63.565624 342.40314Q63.08125 341.7 62.33125 341.7Q61.6125 341.7 61.175 342.3094Q60.628124 343.09064 60.628124 345.21564Z" fill-rule="nonzero"/><path fill="#4285f4" d="M232.0 61.916668C232.0 65.23038 229.3137 67.916664 226.0 67.916664C222.6863 67.916664 220.0 65.23038 220.0 61.916668C220.0 58.60296 222.6863 55.916668 226.0 55.916668C229.3137 55.916668 232.0 58.60296 232.0 61.916668Z" fill-rule="nonzero"/><path stroke="#4285f4" stroke-width="4.0" stroke-linecap="butt" stroke-opacity="0.4" d="M248.0 61.916668L260.0 61.916668" fill-rule="nonzero"/><path fill="#1a1a1a" d="M271.10938 65.916664L271.10938 58.33854L268.28125 58.33854L268.28125 57.322914L275.09375 57.322914L275.09375 58.33854L272.25 58.33854L272.25 65.916664L271.10938 65.916664ZM275.78125 65.916664L275.78125 59.697914L276.73438 59.697914L276.73438 60.635414Q277.09375 59.979164 277.39062 59.77604Q277.70312 59.55729 278.07812 59.55729Q278.60938 59.55729 279.15625 59.885414L278.79688 60.86979Q278.40625 60.635414 278.03125 60.635414Q277.67188 60.635414 277.39062 60.854164Q277.125 61.05729 277.01562 61.43229Q276.82812 61.99479 276.82812 62.65104L276.82812 65.916664L275.78125 65.916664ZM284.04688 63.916664L285.14062 64.041664Q284.89062 64.99479 284.1875 65.52604Q283.48438 66.05729 282.40625 66.05729Q281.04688 66.05729 280.23438 65.21354Q279.4375 64.36979 279.4375 62.854164Q279.4375 61.291664 280.25 60.43229Q281.0625 59.55729 282.34375 59.55729Q283.59375 59.55729 284.375 60.40104Q285.17188 61.24479 285.17188 62.791664Q285.17188 62.885414 285.17188 63.072914L280.53125 63.072914Q280.59375 64.104164 281.10938 64.65104Q281.625 65.18229 282.40625 65.18229Q282.98438 65.18229 283.39062 64.885414Q283.8125 64.572914 284.04688 63.916664ZM280.59375 62.21354L284.0625 62.21354Q284.0 61.416664 283.67188 61.02604Q283.15625 60.416664 282.35938 60.416664Q281.625 60.416664 281.125 60.90104Q280.64062 61.385414 280.59375 62.21354ZM286.79688 65.916664L286.79688 59.697914L287.73438 59.697914L287.73438 60.572914Q288.42188 59.55729 289.71875 59.55729Q290.28125 59.55729 290.75 59.760414Q291.23438 59.96354 291.46875 60.291664Q291.70312 60.61979 291.79688 61.05729Q291.84375 61.354164 291.84375 62.08854L291.84375 65.916664L290.79688 65.916664L290.79688 62.135414Q290.79688 61.479164 290.67188 61.166664Q290.54688 60.854164 290.23438 60.666664Q289.92188 60.46354 289.5 60.46354Q288.82812 60.46354 288.32812 60.90104Q287.84375 61.322914 287.84375 62.510414L287.84375 65.916664L286.79688 65.916664ZM297.82812 65.916664L297.82812 65.135414Q297.23438 66.05729 296.09375 66.05729Q295.34375 66.05729 294.71875 65.65104Q294.09375 65.229164 293.75 64.49479Q293.40625 63.760414 293.40625 62.80729Q293.40625 61.885414 293.71875 61.11979Q294.03125 60.354164 294.65625 59.96354Q295.28125 59.55729 296.04688 59.55729Q296.60938 59.55729 297.04688 59.791664Q297.48438 60.02604 297.76562 60.40104L297.76562 57.322914L298.8125 57.322914L298.8125 65.916664L297.82812 65.916664ZM294.5 62.80729Q294.5 64.010414 295.0 64.604164Q295.5 65.18229 296.1875 65.18229Q296.875 65.18229 297.35938 64.61979Q297.84375 64.05729 297.84375 62.90104Q297.84375 61.61979 297.34375 61.02604Q296.85938 60.43229 296.14062 60.43229Q295.4375 60.43229 294.96875 61.010414Q294.5 61.572914 294.5 62.80729ZM300.76562 65.916664L300.76562 57.322914L301.82812 57.322914L301.82812 65.916664L300.76562 65.916664ZM303.79688 58.541664L303.79688 57.322914L304.85938 57.322914L304.85938 58.541664L303.79688 58.541664ZM303.79688 65.916664L303.79688 59.697914L304.85938 59.697914L304.85938 65.916664L303.79688 65.916664ZM306.79688 65.916664L306.79688 59.697914L307.73438 59.697914L307.73438 60.572914Q308.42188 59.55729 309.71875 59.55729Q310.28125 59.55729 310.75 59.760414Q311.23438 59.96354 311.46875 60.291664Q311.70312 60.61979 311.79688 61.05729Q311.84375 61.354164 311.84375 62.08854L311.84375 65.916664L310.79688 65.916664L310.79688 62.135414Q310.79688 61.479164 310.67188 61.166664Q310.54688 60.854164 310.23438 60.666664Q309.92188 60.46354 309.5 60.46354Q308.82812 60.46354 308.32812 60.90104Q307.84375 61.322914 307.84375 62.510414L307.84375 65.916664L306.79688 65.916664ZM318.04688 63.916664L319.14062 64.041664Q318.89062 64.99479 318.1875 65.52604Q317.48438 66.05729 316.40625 66.05729Q315.04688 66.05729 314.23438 65.21354Q313.4375 64.36979 313.4375 62.854164Q313.4375 61.291664 314.25 60.43229Q315.0625 59.55729 316.34375 59.55729Q317.59375 59.55729 318.375 60.40104Q319.17188 61.24479 319.17188 62.791664Q319.17188 62.885414 319.17188 63.072914L314.53125 63.072914Q314.59375 64.104164 315.10938 64.65104Q315.625 65.18229 316.40625 65.18229Q316.98438 65.18229 317.39062 64.885414Q317.8125 64.572914 318.04688 63.916664ZM314.59375 62.21354L318.0625 62.21354Q318.0 61.416664 317.67188 61.02604Q317.15625 60.416664 316.35938 60.416664Q315.625 60.416664 315.125 60.90104Q314.64062 61.385414 314.59375 62.21354ZM323.9375 65.916664L323.9375 57.322914L327.75 57.322914Q328.90625 57.322914 329.5 57.55729Q330.09375 57.791664 330.45312 58.385414Q330.8125 58.96354 330.8125 59.666664Q330.8125 60.58854 330.21875 61.21354Q329.625 61.83854 328.39062 62.010414Q328.84375 62.229164 329.07812 62.43229Q329.57812 62.885414 330.01562 63.572914L331.51562 65.916664L330.07812 65.916664L328.95312 64.135414Q328.45312 63.354164 328.125 62.947914Q327.8125 62.541664 327.54688 62.385414Q327.29688 62.21354 327.03125 62.135414Q326.84375 62.104164 326.40625 62.104164L325.07812 62.104164L325.07812 65.916664L323.9375 65.916664ZM325.07812 61.11979L327.53125 61.11979Q328.29688 61.11979 328.73438 60.96354Q329.1875 60.791664 329.40625 60.447914Q329.64062 60.08854 329.64062 59.666664Q329.64062 59.05729 329.1875 58.666664Q328.75 58.27604 327.79688 58.27604L325.07812 58.27604L325.07812 61.11979ZM332.14062 61.61979Q332.1875 61.291664 332.42188 60.947914Q332.79688 60.447914 333.64062 59.83854Q334.48438 59.229164 334.64062 59.041664Q334.85938 58.80729 334.85938 58.55729Q334.85938 58.27604 334.64062 58.104164Q334.4375 57.916664 334.04688 57.916664Q333.65625 57.916664 333.46875 58.05729Q333.28125 58.18229 333.15625 58.572914L332.26562 58.479164Q332.4375 57.83854 332.85938 57.52604Q333.28125 57.21354 334.0625 57.21354Q334.95312 57.21354 335.35938 57.572914Q335.78125 57.916664 335.78125 58.416664Q335.78125 58.90104 335.42188 59.33854Q335.17188 59.666664 334.23438 60.33854Q333.73438 60.697914 333.53125 60.916664L335.79688 60.916664L335.79688 61.61979L332.14062 61.61979ZM345.34375 60.86979L339.67188 60.86979L339.67188 59.885414L345.34375 59.885414L345.34375 60.86979ZM345.34375 63.479164L339.67188 63.479164L339.67188 62.49479L345.34375 62.49479L345.34375 63.479164ZM349.5 61.68229Q349.5 60.15104 349.8125 59.229164Q350.125 58.291664 350.73438 57.791664Q351.35938 57.291664 352.29688 57.291664Q352.98438 57.291664 353.5 57.572914Q354.03125 57.854164 354.375 58.385414Q354.71875 58.90104 354.90625 59.65104Q355.09375 60.40104 355.09375 61.68229Q355.09375 63.197914 354.78125 64.11979Q354.48438 65.041664 353.85938 65.55729Q353.25 66.05729 352.29688 66.05729Q351.0625 66.05729 350.34375 65.166664Q349.5 64.104164 349.5 61.68229ZM350.57812 61.68229Q350.57812 63.791664 351.07812 64.49479Q351.57812 65.197914 352.29688 65.197914Q353.03125 65.197914 353.51562 64.49479Q354.01562 63.791664 354.01562 61.68229Q354.01562 59.55729 353.51562 58.86979Q353.03125 58.166664 352.28125 58.166664Q351.5625 58.166664 351.125 58.77604Q350.57812 59.55729 350.57812 61.68229ZM357.09375 65.916664L357.09375 64.71354L358.29688 64.71354L358.29688 65.916664L357.09375 65.916664ZM361.125 61.260414Q360.46875 61.010414 360.14062 60.572914Q359.82812 60.11979 359.82812 59.510414Q359.82812 58.572914 360.5 57.93229Q361.1875 57.291664 362.29688 57.291664Q363.42188 57.291664 364.10938 57.947914Q364.79688 58.604164 364.79688 59.541664Q364.79688 60.135414 364.48438 60.572914Q364.17188 61.010414 363.53125 61.260414Q364.32812 61.510414 364.73438 62.08854Q365.14062 62.666664 365.14062 63.46354Q365.14062 64.55729 364.35938 65.30729Q363.59375 66.05729 362.3125 66.05729Q361.04688 66.05729 360.26562 65.30729Q359.48438 64.55729 359.48438 63.43229Q359.48438 62.58854 359.90625 62.02604Q360.34375 61.46354 361.125 61.260414ZM360.90625 59.46354Q360.90625 60.072914 361.29688 60.46354Q361.70312 60.854164 362.32812 60.854164Q362.9375 60.854164 363.32812 60.479164Q363.71875 60.08854 363.71875 59.52604Q363.71875 58.947914 363.3125 58.55729Q362.90625 58.15104 362.3125 58.15104Q361.70312 58.15104 361.29688 58.541664Q360.90625 58.93229 360.90625 59.46354ZM360.57812 63.43229Q360.57812 63.885414 360.78125 64.30729Q361.0 64.729164 361.42188 64.96354Q361.84375 65.197914 362.32812 65.197914Q363.07812 65.197914 363.5625 64.71354Q364.0625 64.229164 364.0625 63.479164Q364.0625 62.71354 363.5625 62.21354Q363.0625 61.71354 362.29688 61.71354Q361.54688 61.71354 361.0625 62.21354Q360.57812 62.697914 360.57812 63.43229ZM366.5 63.666664L367.60938 63.572914Q367.73438 64.385414 368.17188 64.791664Q368.625 65.197914 369.26562 65.197914Q370.01562 65.197914 370.54688 64.61979Q371.07812 64.041664 371.07812 63.104164Q371.07812 62.197914 370.5625 61.68229Q370.0625 61.15104 369.23438 61.15104Q368.73438 61.15104 368.3125 61.385414Q367.90625 61.61979 367.67188 61.979164L366.6875 61.854164L367.51562 57.447914L371.79688 57.447914L371.79688 58.447914L368.35938 58.447914L367.90625 60.760414Q368.67188 60.21354 369.51562 60.21354Q370.64062 60.21354 371.40625 60.99479Q372.1875 61.77604 372.1875 63.010414Q372.1875 64.166664 371.51562 65.02604Q370.6875 66.05729 369.26562 66.05729Q368.09375 66.05729 367.34375 65.40104Q366.60938 64.74479 366.5 63.666664ZM379.04688 64.90104L379.04688 65.916664L373.35938 65.916664Q373.35938 65.541664 373.48438 65.18229Q373.70312 64.604164 374.17188 64.041664Q374.65625 63.479164 375.5625 62.74479Q376.96875 61.58854 377.45312 60.916664Q377.95312 60.24479 377.95312 59.65104Q377.95312 59.02604 377.5 58.604164Q377.04688 58.166664 376.32812 58.166664Q375.5625 58.166664 375.10938 58.61979Q374.65625 59.072914 374.64062 59.885414L373.5625 59.77604Q373.67188 58.55729 374.39062 57.93229Q375.125 57.291664 376.35938 57.291664Q377.59375 57.291664 378.3125 57.979164Q379.03125 58.666664 379.03125 59.68229Q379.03125 60.197914 378.8125 60.697914Q378.60938 61.18229 378.10938 61.74479Q377.625 62.291664 376.5 63.24479Q375.54688 64.041664 375.26562 64.33854Q375.0 64.61979 374.82812 64.90104L379.04688 64.90104Z" fill-rule="nonzero"/><path fill="#000000" d="M21.7375 28.64375L21.7375 37.55L19.925 37.55L19.925 26.9875L21.690624 26.9875L21.7375 28.64375ZM25.034374 26.925L25.01875 28.596874Q24.8 28.55 24.596874 28.534374Q24.39375 28.51875 24.14375 28.51875Q23.51875 28.51875 23.034374 28.721874Q22.565624 28.909374 22.221874 29.26875Q21.89375 29.6125 21.70625 30.096874Q21.51875 30.58125 21.45625 31.159374L20.95625 31.45625Q20.95625 30.503124 21.14375 29.659374Q21.33125 28.815624 21.721874 28.175Q22.128124 27.51875 22.753124 27.159374Q23.378124 26.784374 24.2375 26.784374Q24.425 26.784374 24.675 26.83125Q24.940624 26.878124 25.034374 26.925ZM33.159374 35.7375L33.159374 30.3Q33.159374 29.675 32.909374 29.221874Q32.659374 28.753124 32.159374 28.503124Q31.659374 28.2375 30.925 28.2375Q30.253124 28.2375 29.7375 28.471874Q29.221874 28.70625 28.925 29.096874Q28.64375 29.471874 28.64375 29.909374L26.846874 29.909374Q26.846874 29.346874 27.128124 28.8Q27.425 28.2375 27.971874 27.784374Q28.534374 27.33125 29.3 27.065624Q30.08125 26.784374 31.034374 26.784374Q32.190624 26.784374 33.065624 27.175Q33.95625 27.565624 34.45625 28.3625Q34.971874 29.14375 34.971874 30.315624L34.971874 35.2375Q34.971874 35.76875 35.05 36.3625Q35.14375 36.95625 35.33125 37.39375L35.33125 37.55L33.45625 37.55Q33.315624 37.2375 33.2375 36.721874Q33.159374 36.190624 33.159374 35.7375ZM33.471874 31.14375L33.4875 32.409374L31.659374 32.409374Q30.89375 32.409374 30.284374 32.534374Q29.675 32.659374 29.26875 32.909374Q28.8625 33.14375 28.64375 33.51875Q28.425 33.878124 28.425 34.3625Q28.425 34.8625 28.64375 35.284374Q28.878124 35.690624 29.33125 35.925Q29.784374 36.159374 30.45625 36.159374Q31.284374 36.159374 31.909374 35.815624Q32.55 35.45625 32.925 34.95625Q33.3 34.440624 33.33125 33.971874L34.1125 34.83125Q34.034374 35.2375 33.721874 35.7375Q33.425 36.2375 32.925 36.690624Q32.425 37.14375 31.7375 37.45625Q31.05 37.753124 30.190624 37.753124Q29.1125 37.753124 28.3 37.33125Q27.503124 36.909374 27.05 36.20625Q26.6125 35.4875 26.6125 34.6125Q26.6125 33.753124 26.940624 33.1125Q27.284374 32.45625 27.909374 32.034374Q28.534374 31.596874 29.409374 31.378124Q30.284374 31.14375 31.378124 31.14375L33.471874 31.14375ZM39.7375 29.2375L39.7375 37.55L37.925 37.55L37.925 26.9875L39.64375 26.9875L39.7375 29.2375ZM39.3 31.8625L38.55 31.83125Q38.565624 30.753124 38.878124 29.83125Q39.190624 28.909374 39.753124 28.221874Q40.315624 27.534374 41.096874 27.159374Q41.89375 26.784374 42.846874 26.784374Q43.628124 26.784374 44.253124 27.003124Q44.878124 27.20625 45.315624 27.675Q45.76875 28.128124 46.003124 28.8625Q46.2375 29.58125 46.2375 30.628124L46.2375 37.55L44.425 37.55L44.425 30.6125Q44.425 29.76875 44.175 29.26875Q43.940624 28.76875 43.471874 28.55Q43.003124 28.315624 42.315624 28.315624Q41.64375 28.315624 41.08125 28.596874Q40.534374 28.878124 40.128124 29.378124Q39.7375 29.878124 39.51875 30.51875Q39.3 31.159374 39.3 31.8625ZM50.7375 22.55L50.7375 37.55L48.925 37.55L48.925 22.55L50.7375 22.55ZM57.20625 26.9875L52.596874 31.909374L50.01875 34.596874L49.8625 32.659374L51.70625 30.45625L54.9875 26.9875L57.20625 26.9875ZM55.55 37.55L51.784374 32.503124L52.721874 30.89375L57.675 37.55L55.55 37.55ZM67.14375 35.925L70.03438 26.9875L71.87813 26.9875L68.08125 37.55L66.8625 37.55L67.14375 35.925ZM64.72188 26.9875L67.70625 35.971874L67.90938 37.55L66.70625 37.55L62.878124 26.9875L64.72188 26.9875ZM80.08125 34.753124Q80.08125 34.3625 79.90938 34.01875Q79.7375 33.675 79.20625 33.409374Q78.69063 33.128124 77.64375 32.925Q76.76875 32.7375 76.05 32.4875Q75.34688 32.221874 74.84688 31.8625Q74.3625 31.503124 74.09688 31.01875Q73.84688 30.534374 73.84688 29.878124Q73.84688 29.253124 74.1125 28.690624Q74.39375 28.128124 74.90938 27.70625Q75.425 27.26875 76.14375 27.034374Q76.8625 26.784374 77.75313 26.784374Q79.01875 26.784374 79.90938 27.2375Q80.81563 27.690624 81.3 28.440624Q81.78438 29.175 81.78438 30.08125L79.97188 30.08125Q79.97188 29.64375 79.70625 29.2375Q79.45625 28.815624 78.95625 28.55Q78.47188 28.26875 77.75313 28.26875Q77.00313 28.26875 76.53438 28.503124Q76.08125 28.7375 75.8625 29.096874Q75.65938 29.440624 75.65938 29.83125Q75.65938 30.1125 75.75313 30.346874Q75.8625 30.58125 76.12813 30.76875Q76.39375 30.95625 76.8625 31.128124Q77.34688 31.284374 78.08125 31.45625Q79.39375 31.753124 80.22188 32.159374Q81.06563 32.565624 81.47188 33.159374Q81.89375 33.753124 81.89375 34.6125Q81.89375 35.3 81.59688 35.878124Q81.31563 36.45625 80.76875 36.878124Q80.22188 37.284374 79.47188 37.51875Q78.7375 37.753124 77.8 37.753124Q76.40938 37.753124 75.44063 37.253124Q74.47188 36.753124 73.97188 35.95625Q73.47188 35.159374 73.47188 34.284374L75.3 34.284374Q75.33125 35.034374 75.72188 35.471874Q76.1125 35.89375 76.675 36.08125Q77.25313 36.253124 77.8 36.253124Q78.55 36.253124 79.05 36.065624Q79.55 35.8625 79.81563 35.534374Q80.08125 35.190624 80.08125 34.753124ZM83.95625 36.596874Q83.95625 36.128124 84.2375 35.815624Q84.53438 35.503124 85.08125 35.503124Q85.62813 35.503124 85.90938 35.815624Q86.20625 36.128124 86.20625 36.596874Q86.20625 37.034374 85.90938 37.3625Q85.62813 37.675 85.08125 37.675Q84.53438 37.675 84.2375 37.3625Q83.95625 37.034374 83.95625 36.596874ZM98.15938 36.253124Q98.8 36.253124 99.34688 36.003124Q99.89375 35.7375 100.2375 35.26875Q100.59688 34.8 100.64375 34.20625L102.3625 34.20625Q102.31563 35.14375 101.7375 35.95625Q101.15938 36.753124 100.22188 37.253124Q99.28438 37.753124 98.15938 37.753124Q96.97188 37.753124 96.08125 37.33125Q95.19063 36.909374 94.6125 36.175Q94.03438 35.440624 93.7375 34.4875Q93.45625 33.534374 93.45625 32.471874L93.45625 32.065624Q93.45625 31.003124 93.7375 30.05Q94.03438 29.096874 94.6125 28.3625Q95.19063 27.628124 96.08125 27.20625Q96.97188 26.784374 98.15938 26.784374Q99.39375 26.784374 100.31563 27.3Q101.25313 27.8 101.78438 28.659374Q102.31563 29.51875 102.3625 30.6125L100.64375 30.6125Q100.59688 29.95625 100.26875 29.440624Q99.95625 28.909374 99.40938 28.596874Q98.87813 28.26875 98.15938 28.26875Q97.33125 28.26875 96.76875 28.596874Q96.20625 28.925 95.87813 29.4875Q95.55 30.034374 95.40938 30.70625Q95.26875 31.3625 95.26875 32.065624L95.26875 32.471874Q95.26875 33.159374 95.39375 33.846874Q95.53438 34.51875 95.8625 35.065624Q96.19063 35.6125 96.75313 35.940624Q97.31563 36.253124 98.15938 36.253124ZM103.45625 32.378124L103.45625 32.159374Q103.45625 31.01875 103.78438 30.034374Q104.1125 29.05 104.7375 28.33125Q105.3625 27.596874 106.25313 27.190624Q107.14375 26.784374 108.2375 26.784374Q109.3625 26.784374 110.25313 27.190624Q111.14375 27.596874 111.76875 28.33125Q112.40938 29.05 112.7375 30.034374Q113.06563 31.01875 113.06563 32.159374L113.06563 32.378124Q113.06563 33.51875 112.7375 34.503124Q112.40938 35.471874 111.76875 36.20625Q111.14375 36.940624 110.25313 37.346874Q109.37813 37.753124 108.26875 37.753124Q107.14375 37.753124 106.25313 37.346874Q105.37813 36.940624 104.7375 36.20625Q104.1125 35.471874 103.78438 34.503124Q103.45625 33.51875 103.45625 32.378124ZM105.25313 32.159374L105.25313 32.378124Q105.25313 33.175 105.44063 33.878124Q105.62813 34.565624 106.00313 35.1125Q106.37813 35.64375 106.94063 35.95625Q107.51875 36.253124 108.26875 36.253124Q109.00313 36.253124 109.56563 35.95625Q110.12813 35.64375 110.50313 35.1125Q110.87813 34.565624 111.06563 33.878124Q111.25313 33.175 111.25313 32.378124L111.25313 32.159374Q111.25313 31.378124 111.06563 30.690624Q110.87813 29.9875 110.4875 29.440624Q110.1125 28.89375 109.55 28.58125Q109.00313 28.26875 108.2375 28.26875Q107.50313 28.26875 106.94063 28.58125Q106.37813 28.89375 106.00313 29.440624Q105.62813 29.9875 105.44063 30.690624Q105.25313 31.378124 105.25313 32.159374ZM121.08125 34.753124Q121.08125 34.3625 120.90938 34.01875Q120.7375 33.675 120.20625 33.409374Q119.69063 33.128124 118.64375 32.925Q117.76875 32.7375 117.05 32.4875Q116.34688 32.221874 115.84688 31.8625Q115.3625 31.503124 115.09688 31.01875Q114.84688 30.534374 114.84688 29.878124Q114.84688 29.253124 115.1125 28.690624Q115.39375 28.128124 115.90938 27.70625Q116.425 27.26875 117.14375 27.034374Q117.8625 26.784374 118.75313 26.784374Q120.01875 26.784374 120.90938 27.2375Q121.81563 27.690624 122.3 28.440624Q122.78438 29.175 122.78438 30.08125L120.97188 30.08125Q120.97188 29.64375 120.70625 29.2375Q120.45625 28.815624 119.95625 28.55Q119.47188 28.26875 118.75313 28.26875Q118.00313 28.26875 117.53438 28.503124Q117.08125 28.7375 116.8625 29.096874Q116.65938 29.440624 116.65938 29.83125Q116.65938 30.1125 116.75313 30.346874Q116.8625 30.58125 117.12813 30.76875Q117.39375 30.95625 117.8625 31.128124Q118.34688 31.284374 119.08125 31.45625Q120.39375 31.753124 121.22188 32.159374Q122.06563 32.565624 122.47188 33.159374Q122.89375 33.753124 122.89375 34.6125Q122.89375 35.3 122.59688 35.878124Q122.31563 36.45625 121.76875 36.878124Q121.22188 37.284374 120.47188 37.51875Q119.7375 37.753124 118.8 37.753124Q117.40938 37.753124 116.44063 37.253124Q115.47188 36.753124 114.97188 35.95625Q114.47188 35.159374 114.47188 34.284374L116.3 34.284374Q116.33125 35.034374 116.72188 35.471874Q117.1125 35.89375 117.675 36.08125Q118.25313 36.253124 118.8 36.253124Q119.55 36.253124 120.05 36.065624Q120.55 35.8625 120.81563 35.534374Q121.08125 35.190624 121.08125 34.753124ZM129.34688 26.9875L129.34688 28.3625L123.64375 28.3625L123.64375 26.9875L129.34688 26.9875ZM125.56563 24.409374L127.37813 24.409374L127.37813 34.925Q127.37813 35.471874 127.53438 35.753124Q127.70625 36.01875 127.97188 36.1125Q128.2375 36.190624 128.53438 36.190624Q128.76875 36.190624 129.01875 36.14375Q129.26875 36.096874 129.39375 36.08125L129.39375 37.55Q129.19063 37.6125 128.83125 37.675Q128.4875 37.753124 128.00313 37.753124Q127.34688 37.753124 126.78438 37.4875Q126.22188 37.221874 125.89375 36.596874Q125.56563 35.971874 125.56563 34.925L125.56563 24.409374ZM136.8625 31.8625L136.8625 31.76875Q136.8625 29.64375 137.33125 27.925Q137.81563 26.190624 138.55 24.89375Q139.3 23.596874 140.1125 22.7375Q140.94063 21.878124 141.62813 21.503124L142.01875 22.690624Q141.44063 23.128124 140.84688 23.909374Q140.25313 24.675 139.75313 25.8Q139.26875 26.925 138.95625 28.409374Q138.65938 29.89375 138.65938 31.753124L138.65938 31.878124Q138.65938 33.7375 138.95625 35.2375Q139.26875 36.721874 139.75313 37.846874Q140.25313 38.9875 140.84688 39.784374Q141.44063 40.58125 142.01875 41.05L141.62813 42.14375Q140.94063 41.753124 140.1125 40.89375Q139.3 40.05 138.55 38.753124Q137.81563 37.45625 137.33125 35.7375Q136.8625 34.003124 136.8625 31.8625ZM149.12813 21.01875L149.12813 24.003124L147.675 24.003124L147.675 21.01875L149.12813 21.01875ZM148.95625 36.971874L148.95625 39.58125L147.50313 39.58125L147.50313 36.971874L148.95625 36.971874ZM150.90938 33.89375Q150.90938 33.3 150.64375 32.83125Q150.37813 32.3625 149.76875 31.971874Q149.175 31.58125 148.15938 31.253124Q146.925 30.8625 146.03438 30.315624Q145.14375 29.76875 144.65938 28.971874Q144.175 28.159374 144.175 27.003124Q144.175 25.8 144.69063 24.940624Q145.20625 24.065624 146.14375 23.596874Q147.09688 23.128124 148.37813 23.128124Q149.37813 23.128124 150.15938 23.425Q150.94063 23.721874 151.47188 24.315624Q152.01875 24.89375 152.3 25.753124Q152.59688 26.596874 152.59688 27.70625L150.8 27.70625Q150.8 27.05 150.64375 26.503124Q150.4875 25.95625 150.175 25.55Q149.8625 25.14375 149.40938 24.925Q148.97188 24.70625 148.37813 24.70625Q147.56563 24.70625 147.03438 24.9875Q146.50313 25.26875 146.2375 25.784374Q145.9875 26.3 145.9875 26.971874Q145.9875 27.596874 146.2375 28.065624Q146.50313 28.534374 147.1125 28.909374Q147.72188 29.284374 148.78438 29.64375Q150.05 30.05 150.925 30.596874Q151.81563 31.128124 152.26875 31.925Q152.72188 32.70625 152.72188 33.8625Q152.72188 35.128124 152.15938 36.003124Q151.59688 36.8625 150.56563 37.315624Q149.55 37.753124 148.15938 37.753124Q147.33125 37.753124 146.51875 37.534374Q145.72188 37.3 145.06563 36.8Q144.40938 36.284374 144.01875 35.440624Q143.62813 34.596874 143.62813 33.3625L145.44063 33.3625Q145.44063 34.190624 145.675 34.7375Q145.925 35.26875 146.31563 35.596874Q146.72188 35.909374 147.20625 36.05Q147.69063 36.175 148.15938 36.175Q149.05 36.175 149.65938 35.89375Q150.26875 35.6125 150.58125 35.096874Q150.90938 34.58125 150.90938 33.89375ZM161.22188 23.33125L155.28438 38.76875L153.7375 38.76875L159.675 23.33125L161.22188 23.33125ZM169.76875 26.9875L171.40938 26.9875L171.40938 37.33125Q171.40938 38.721874 170.84688 39.70625Q170.28438 40.690624 169.26875 41.20625Q168.25313 41.721874 166.94063 41.721874Q166.39375 41.721874 165.65938 41.55Q164.925 41.378124 164.20625 40.971874Q163.50313 40.565624 163.01875 39.878124L163.97188 38.815624Q164.64375 39.6125 165.3625 39.925Q166.09688 40.2375 166.8 40.2375Q167.65938 40.2375 168.28438 39.909374Q168.90938 39.596874 169.25313 38.95625Q169.6125 38.33125 169.6125 37.409374L169.6125 29.3L169.76875 26.9875ZM162.50313 32.378124L162.50313 32.175Q162.50313 30.971874 162.78438 29.9875Q163.08125 28.9875 163.6125 28.284374Q164.15938 27.565624 164.925 27.175Q165.70625 26.784374 166.675 26.784374Q167.65938 26.784374 168.40938 27.14375Q169.15938 27.4875 169.675 28.14375Q170.20625 28.8 170.50313 29.7375Q170.81563 30.659374 170.925 31.83125L170.925 32.721874Q170.81563 33.89375 170.50313 34.815624Q170.20625 35.7375 169.675 36.39375Q169.15938 37.05 168.40938 37.409374Q167.65938 37.753124 166.64375 37.753124Q165.70625 37.753124 164.94063 37.346874Q164.175 36.940624 163.62813 36.221874Q163.08125 35.503124 162.78438 34.51875Q162.50313 33.534374 162.50313 32.378124ZM164.3 32.175L164.3 32.378124Q164.3 33.175 164.45625 33.878124Q164.62813 34.565624 164.95625 35.096874Q165.3 35.6125 165.83125 35.909374Q166.3625 36.20625 167.08125 36.20625Q167.9875 36.20625 168.56563 35.83125Q169.15938 35.45625 169.50313 34.83125Q169.84688 34.20625 170.05 33.471874L170.05 31.1125Q169.94063 30.58125 169.72188 30.08125Q169.50313 29.565624 169.14375 29.175Q168.8 28.784374 168.28438 28.55Q167.78438 28.315624 167.1125 28.315624Q166.3625 28.315624 165.83125 28.628124Q165.3 28.925 164.95625 29.45625Q164.62813 29.9875 164.45625 30.690624Q164.3 31.39375 164.3 32.175ZM178.08125 31.76875L178.08125 31.8625Q178.08125 34.003124 177.59688 35.7375Q177.12813 37.45625 176.37813 38.753124Q175.64375 40.05 174.81563 40.89375Q174.00313 41.753124 173.31563 42.14375L172.925 41.05Q173.50313 40.6125 174.08125 39.815624Q174.675 39.034374 175.175 37.878124Q175.675 36.7375 175.97188 35.2375Q176.28438 33.7375 176.28438 31.878124L176.28438 31.753124Q176.28438 29.89375 175.95625 28.39375Q175.64375 26.89375 175.12813 25.753124Q174.6125 24.6125 174.03438 23.83125Q173.45625 23.034374 172.925 22.6125L173.31563 21.503124Q174.00313 21.878124 174.81563 22.7375Q175.64375 23.596874 176.37813 24.89375Q177.12813 26.190624 177.59688 27.925Q178.08125 29.64375 178.08125 31.76875Z" fill-rule="nonzero"/></svg>